<?xml version="1.0" encoding="UTF-8"?>
<svg xmlns="http://www.w3.org/2000/svg" version="1.1" width="356" height="356" viewBox="0 0 356 356"><rect x="0" y="0" width="356" height="356" fill="#ffffff"/><g transform="scale(6.717)"><g transform="translate(0,0)"><path fill-rule="evenodd" d="M8 0L8 2L9 2L9 4L8 4L8 9L9 9L9 4L10 4L10 5L11 5L11 2L13 2L13 3L14 3L14 1L15 1L15 0L13 0L13 1L9 1L9 0ZM18 0L18 1L16 1L16 2L18 2L18 1L19 1L19 4L20 4L20 5L18 5L18 3L15 3L15 5L16 5L16 7L17 7L17 6L18 6L18 8L19 8L19 12L18 12L18 10L16 10L16 11L17 11L17 12L18 12L18 14L16 14L16 12L15 12L15 10L14 10L14 9L15 9L15 8L14 8L14 7L15 7L15 6L14 6L14 7L13 7L13 5L12 5L12 8L10 8L10 12L8 12L8 13L7 13L7 12L6 12L6 13L7 13L7 14L6 14L6 15L5 15L5 14L4 14L4 15L3 15L3 13L2 13L2 15L3 15L3 16L0 16L0 17L3 17L3 16L5 16L5 17L7 17L7 16L9 16L9 18L8 18L8 19L7 19L7 18L6 18L6 19L4 19L4 20L3 20L3 18L0 18L0 21L1 21L1 22L0 22L0 26L1 26L1 27L0 27L0 29L1 29L1 28L2 28L2 29L3 29L3 30L4 30L4 31L2 31L2 30L0 30L0 31L2 31L2 32L5 32L5 31L7 31L7 30L5 30L5 29L10 29L10 30L8 30L8 33L7 33L7 32L6 32L6 33L5 33L5 35L3 35L3 36L5 36L5 38L6 38L6 39L7 39L7 40L6 40L6 41L5 41L5 40L4 40L4 38L3 38L3 37L2 37L2 36L1 36L1 37L2 37L2 38L3 38L3 39L1 39L1 38L0 38L0 41L2 41L2 42L0 42L0 43L1 43L1 44L3 44L3 45L4 45L4 44L3 44L3 43L10 43L10 44L6 44L6 45L8 45L8 46L9 46L9 47L8 47L8 48L9 48L9 49L10 49L10 50L8 50L8 53L9 53L9 52L10 52L10 50L12 50L12 52L11 52L11 53L13 53L13 52L14 52L14 53L16 53L16 52L18 52L18 53L19 53L19 52L18 52L18 49L19 49L19 48L20 48L20 49L21 49L21 48L20 48L20 47L21 47L21 46L20 46L20 45L21 45L21 43L22 43L22 41L23 41L23 40L22 40L22 39L24 39L24 42L23 42L23 44L22 44L22 46L23 46L23 47L22 47L22 48L23 48L23 51L21 51L21 50L20 50L20 51L21 51L21 52L20 52L20 53L21 53L21 52L22 52L22 53L23 53L23 51L24 51L24 53L27 53L27 52L28 52L28 53L30 53L30 52L32 52L32 53L33 53L33 52L34 52L34 53L35 53L35 51L37 51L37 50L38 50L38 52L36 52L36 53L39 53L39 51L40 51L40 53L42 53L42 51L41 51L41 49L43 49L43 50L44 50L44 51L43 51L43 53L44 53L44 52L46 52L46 53L49 53L49 52L50 52L50 51L49 51L49 48L50 48L50 46L51 46L51 45L52 45L52 47L51 47L51 49L52 49L52 47L53 47L53 45L52 45L52 44L53 44L53 42L52 42L52 44L51 44L51 45L50 45L50 42L51 42L51 40L52 40L52 39L53 39L53 38L52 38L52 39L51 39L51 37L50 37L50 35L51 35L51 33L49 33L49 32L50 32L50 31L51 31L51 30L50 30L50 29L52 29L52 32L53 32L53 29L52 29L52 27L53 27L53 26L52 26L52 27L51 27L51 25L50 25L50 23L51 23L51 24L52 24L52 23L53 23L53 22L52 22L52 21L53 21L53 18L52 18L52 20L51 20L51 21L50 21L50 19L51 19L51 17L52 17L52 16L53 16L53 14L52 14L52 16L51 16L51 17L50 17L50 16L49 16L49 15L51 15L51 14L50 14L50 11L51 11L51 13L53 13L53 10L52 10L52 9L53 9L53 8L51 8L51 10L50 10L50 9L49 9L49 8L45 8L45 6L44 6L44 8L45 8L45 10L44 10L44 9L43 9L43 10L42 10L42 8L43 8L43 3L44 3L44 4L45 4L45 3L44 3L44 1L43 1L43 0L41 0L41 2L40 2L40 0L38 0L38 1L37 1L37 0L36 0L36 2L35 2L35 0L34 0L34 1L33 1L33 0L32 0L32 2L31 2L31 4L30 4L30 1L31 1L31 0L30 0L30 1L29 1L29 2L28 2L28 0L24 0L24 1L21 1L21 0ZM20 1L20 2L21 2L21 3L22 3L22 4L21 4L21 5L20 5L20 6L19 6L19 8L20 8L20 6L21 6L21 7L22 7L22 8L21 8L21 10L20 10L20 11L21 11L21 12L20 12L20 14L19 14L19 15L18 15L18 16L19 16L19 17L18 17L18 18L19 18L19 20L21 20L21 21L20 21L20 22L19 22L19 21L18 21L18 19L17 19L17 18L16 18L16 19L17 19L17 20L16 20L16 23L14 23L14 24L15 24L15 25L14 25L14 26L15 26L15 28L16 28L16 30L13 30L13 28L14 28L14 27L12 27L12 26L11 26L11 24L13 24L13 22L12 22L12 20L13 20L13 19L14 19L14 20L15 20L15 19L14 19L14 18L15 18L15 16L14 16L14 15L16 15L16 14L13 14L13 12L14 12L14 10L13 10L13 8L12 8L12 10L11 10L11 12L10 12L10 13L8 13L8 14L7 14L7 15L6 15L6 16L7 16L7 15L9 15L9 16L10 16L10 15L9 15L9 14L13 14L13 15L12 15L12 17L11 17L11 18L9 18L9 19L8 19L8 20L7 20L7 19L6 19L6 20L4 20L4 21L3 21L3 23L6 23L6 24L7 24L7 23L8 23L8 24L9 24L9 23L10 23L10 26L11 26L11 27L10 27L10 28L12 28L12 29L11 29L11 30L10 30L10 31L9 31L9 33L8 33L8 34L7 34L7 33L6 33L6 34L7 34L7 35L5 35L5 36L8 36L8 34L9 34L9 35L10 35L10 38L13 38L13 37L14 37L14 38L15 38L15 39L14 39L14 40L15 40L15 41L14 41L14 42L13 42L13 41L12 41L12 42L13 42L13 43L11 43L11 44L10 44L10 45L11 45L11 46L10 46L10 47L9 47L9 48L10 48L10 49L13 49L13 48L12 48L12 47L14 47L14 50L13 50L13 51L14 51L14 52L15 52L15 51L14 51L14 50L15 50L15 48L16 48L16 47L17 47L17 46L19 46L19 47L18 47L18 48L19 48L19 47L20 47L20 46L19 46L19 45L20 45L20 44L19 44L19 45L18 45L18 43L19 43L19 40L18 40L18 39L19 39L19 38L22 38L22 35L23 35L23 32L24 32L24 37L23 37L23 38L24 38L24 39L25 39L25 40L26 40L26 39L28 39L28 40L27 40L27 41L28 41L28 42L27 42L27 43L28 43L28 44L29 44L29 45L30 45L30 47L29 47L29 48L30 48L30 50L32 50L32 51L33 51L33 49L32 49L32 48L34 48L34 50L35 50L35 47L37 47L37 48L39 48L39 49L38 49L38 50L39 50L39 49L40 49L40 48L41 48L41 47L42 47L42 48L44 48L44 46L43 46L43 44L44 44L44 43L45 43L45 44L46 44L46 41L47 41L47 39L46 39L46 37L47 37L47 35L50 35L50 34L49 34L49 33L48 33L48 34L47 34L47 35L46 35L46 33L47 33L47 32L48 32L48 30L49 30L49 31L50 31L50 30L49 30L49 29L48 29L48 30L47 30L47 29L46 29L46 30L45 30L45 32L46 32L46 33L44 33L44 34L43 34L43 33L42 33L42 32L41 32L41 31L39 31L39 33L38 33L38 32L37 32L37 33L38 33L38 34L40 34L40 35L42 35L42 34L43 34L43 36L42 36L42 37L40 37L40 39L39 39L39 40L38 40L38 42L37 42L37 43L36 43L36 44L35 44L35 42L36 42L36 38L37 38L37 39L38 39L38 38L39 38L39 37L38 37L38 38L37 38L37 37L36 37L36 36L37 36L37 35L36 35L36 36L35 36L35 32L34 32L34 31L31 31L31 29L32 29L32 30L33 30L33 29L32 29L32 28L33 28L33 27L34 27L34 28L35 28L35 29L34 29L34 30L36 30L36 27L37 27L37 28L38 28L38 30L37 30L37 31L38 31L38 30L40 30L40 28L41 28L41 29L42 29L42 30L43 30L43 29L42 29L42 28L44 28L44 25L42 25L42 23L43 23L43 21L42 21L42 20L44 20L44 22L45 22L45 23L44 23L44 24L45 24L45 23L47 23L47 24L49 24L49 23L50 23L50 22L49 22L49 23L48 23L48 22L47 22L47 21L48 21L48 20L49 20L49 17L48 17L48 20L47 20L47 21L46 21L46 20L45 20L45 17L46 17L46 19L47 19L47 17L46 17L46 15L45 15L45 17L44 17L44 18L43 18L43 15L44 15L44 14L45 14L45 13L44 13L44 12L42 12L42 10L41 10L41 11L40 11L40 12L39 12L39 9L40 9L40 8L42 8L42 4L41 4L41 3L40 3L40 5L38 5L38 4L39 4L39 3L38 3L38 2L39 2L39 1L38 1L38 2L36 2L36 5L35 5L35 7L34 7L34 4L35 4L35 2L32 2L32 6L31 6L31 5L30 5L30 4L29 4L29 3L28 3L28 4L29 4L29 5L30 5L30 6L29 6L29 8L30 8L30 10L29 10L29 11L28 11L28 9L27 9L27 11L26 11L26 13L25 13L25 14L24 14L24 13L22 13L22 12L23 12L23 11L24 11L24 12L25 12L25 11L24 11L24 10L25 10L25 9L24 9L24 10L23 10L23 9L22 9L22 8L23 8L23 7L24 7L24 3L25 3L25 1L24 1L24 3L22 3L22 2L21 2L21 1ZM42 2L42 3L43 3L43 2ZM22 5L22 7L23 7L23 5ZM25 5L25 8L28 8L28 5ZM36 5L36 7L37 7L37 6L38 6L38 7L39 7L39 8L40 8L40 7L41 7L41 5L40 5L40 7L39 7L39 6L38 6L38 5ZM10 6L10 7L11 7L11 6ZM26 6L26 7L27 7L27 6ZM30 6L30 7L31 7L31 6ZM32 6L32 9L31 9L31 10L30 10L30 13L29 13L29 12L28 12L28 13L27 13L27 14L28 14L28 15L27 15L27 16L26 16L26 15L25 15L25 16L24 16L24 14L23 14L23 15L22 15L22 14L20 14L20 17L21 17L21 18L20 18L20 19L21 19L21 20L22 20L22 21L21 21L21 22L20 22L20 24L19 24L19 23L18 23L18 24L19 24L19 26L18 26L18 27L17 27L17 26L16 26L16 27L17 27L17 28L18 28L18 29L19 29L19 28L22 28L22 30L23 30L23 31L22 31L22 32L23 32L23 31L24 31L24 32L25 32L25 29L27 29L27 30L26 30L26 31L27 31L27 32L26 32L26 33L28 33L28 34L26 34L26 35L27 35L27 36L26 36L26 37L27 37L27 38L28 38L28 37L27 37L27 36L28 36L28 34L30 34L30 36L29 36L29 38L30 38L30 41L29 41L29 40L28 40L28 41L29 41L29 42L30 42L30 41L31 41L31 38L32 38L32 43L34 43L34 41L35 41L35 39L34 39L34 40L33 40L33 38L32 38L32 37L33 37L33 35L34 35L34 32L32 32L32 33L33 33L33 35L31 35L31 34L30 34L30 33L31 33L31 31L30 31L30 29L31 29L31 27L32 27L32 25L33 25L33 26L34 26L34 27L36 27L36 25L37 25L37 27L38 27L38 28L40 28L40 27L43 27L43 26L42 26L42 25L41 25L41 22L40 22L40 21L41 21L41 19L43 19L43 18L42 18L42 16L41 16L41 14L42 14L42 15L43 15L43 14L44 14L44 13L43 13L43 14L42 14L42 12L40 12L40 13L39 13L39 14L40 14L40 18L39 18L39 19L38 19L38 17L39 17L39 16L38 16L38 17L37 17L37 16L36 16L36 15L35 15L35 14L36 14L36 13L37 13L37 15L38 15L38 12L37 12L37 10L38 10L38 8L36 8L36 9L35 9L35 10L34 10L34 9L33 9L33 6ZM0 8L0 12L1 12L1 11L2 11L2 12L4 12L4 13L5 13L5 12L4 12L4 11L3 11L3 10L5 10L5 9L7 9L7 8L5 8L5 9L3 9L3 8ZM16 8L16 9L17 9L17 8ZM1 9L1 10L2 10L2 9ZM46 9L46 10L47 10L47 13L46 13L46 14L47 14L47 15L48 15L48 9ZM6 10L6 11L9 11L9 10ZM12 10L12 12L13 12L13 10ZM21 10L21 11L22 11L22 10ZM31 10L31 11L32 11L32 12L31 12L31 13L30 13L30 14L29 14L29 15L30 15L30 16L29 16L29 17L25 17L25 18L24 18L24 20L25 20L25 19L26 19L26 20L27 20L27 23L26 23L26 22L25 22L25 23L24 23L24 24L23 24L23 21L22 21L22 24L23 24L23 25L21 25L21 26L20 26L20 27L22 27L22 26L24 26L24 24L25 24L25 23L26 23L26 24L27 24L27 23L28 23L28 24L31 24L31 25L30 25L30 26L31 26L31 25L32 25L32 23L34 23L34 22L35 22L35 21L36 21L36 20L37 20L37 21L38 21L38 22L36 22L36 24L34 24L34 26L35 26L35 25L36 25L36 24L37 24L37 25L38 25L38 27L40 27L40 26L41 26L41 25L40 25L40 24L39 24L39 23L40 23L40 22L39 22L39 21L40 21L40 20L39 20L39 21L38 21L38 19L35 19L35 18L37 18L37 17L36 17L36 16L35 16L35 17L34 17L34 15L33 15L33 17L34 17L34 19L35 19L35 21L34 21L34 20L33 20L33 18L32 18L32 14L31 14L31 13L32 13L32 12L33 12L33 10ZM43 10L43 11L44 11L44 10ZM51 10L51 11L52 11L52 10ZM35 11L35 13L34 13L34 14L35 14L35 13L36 13L36 11ZM45 11L45 12L46 12L46 11ZM0 13L0 15L1 15L1 13ZM30 14L30 15L31 15L31 14ZM21 15L21 16L22 16L22 15ZM29 17L29 18L28 18L28 19L27 19L27 20L28 20L28 19L29 19L29 22L28 22L28 23L30 23L30 21L31 21L31 22L32 22L32 21L33 21L33 22L34 22L34 21L33 21L33 20L32 20L32 21L31 21L31 20L30 20L30 19L29 19L29 18L30 18L30 17ZM12 18L12 19L10 19L10 20L12 20L12 19L13 19L13 18ZM31 18L31 19L32 19L32 18ZM40 18L40 19L41 19L41 18ZM1 19L1 20L2 20L2 19ZM6 20L6 21L5 21L5 22L6 22L6 23L7 23L7 22L8 22L8 21L7 21L7 20ZM6 21L6 22L7 22L7 21ZM9 21L9 22L10 22L10 23L11 23L11 22L10 22L10 21ZM17 21L17 22L18 22L18 21ZM45 21L45 22L46 22L46 21ZM1 22L1 23L2 23L2 22ZM38 22L38 23L39 23L39 22ZM51 22L51 23L52 23L52 22ZM16 23L16 25L17 25L17 23ZM2 24L2 25L4 25L4 24ZM5 25L5 28L8 28L8 25ZM25 25L25 28L28 28L28 25ZM39 25L39 26L40 26L40 25ZM45 25L45 28L48 28L48 25ZM6 26L6 27L7 27L7 26ZM26 26L26 27L27 27L27 26ZM46 26L46 27L47 27L47 26ZM2 27L2 28L3 28L3 29L4 29L4 27ZM29 27L29 28L30 28L30 27ZM50 27L50 28L51 28L51 27ZM28 29L28 30L29 30L29 29ZM12 30L12 31L10 31L10 32L11 32L11 33L12 33L12 34L11 34L11 36L12 36L12 37L13 37L13 36L12 36L12 34L13 34L13 35L15 35L15 36L14 36L14 37L15 37L15 38L16 38L16 36L17 36L17 35L16 35L16 34L18 34L18 38L19 38L19 34L18 34L18 33L19 33L19 32L18 32L18 31L21 31L21 30L16 30L16 32L15 32L15 31L14 31L14 32L15 32L15 34L13 34L13 33L12 33L12 31L13 31L13 30ZM46 30L46 31L47 31L47 30ZM28 31L28 33L30 33L30 32L29 32L29 31ZM20 32L20 33L21 33L21 32ZM40 32L40 33L41 33L41 34L42 34L42 33L41 33L41 32ZM2 33L2 34L1 34L1 35L2 35L2 34L4 34L4 33ZM9 33L9 34L10 34L10 33ZM20 34L20 35L22 35L22 34ZM44 34L44 36L43 36L43 40L42 40L42 39L41 39L41 40L40 40L40 42L38 42L38 44L36 44L36 45L35 45L35 46L34 46L34 45L33 45L33 44L32 44L32 46L31 46L31 47L30 47L30 48L32 48L32 46L33 46L33 47L35 47L35 46L36 46L36 45L37 45L37 47L38 47L38 44L40 44L40 45L41 45L41 46L42 46L42 47L43 47L43 46L42 46L42 44L40 44L40 43L42 43L42 41L44 41L44 40L46 40L46 39L44 39L44 38L45 38L45 37L46 37L46 36L45 36L45 34ZM52 34L52 35L53 35L53 34ZM38 35L38 36L39 36L39 35ZM34 36L34 37L35 37L35 36ZM48 36L48 38L49 38L49 39L48 39L48 40L49 40L49 39L50 39L50 40L51 40L51 39L50 39L50 37L49 37L49 36ZM6 37L6 38L7 38L7 37ZM8 37L8 39L9 39L9 37ZM24 37L24 38L25 38L25 39L26 39L26 38L25 38L25 37ZM30 37L30 38L31 38L31 37ZM12 39L12 40L13 40L13 39ZM15 39L15 40L16 40L16 41L17 41L17 39ZM20 39L20 40L21 40L21 39ZM2 40L2 41L4 41L4 40ZM7 40L7 41L6 41L6 42L7 42L7 41L8 41L8 40ZM9 40L9 41L10 41L10 40ZM48 41L48 43L47 43L47 44L48 44L48 43L49 43L49 42L50 42L50 41ZM2 42L2 43L3 43L3 42ZM16 42L16 43L18 43L18 42ZM20 42L20 43L21 43L21 42ZM24 42L24 44L26 44L26 43L25 43L25 42ZM13 43L13 44L12 44L12 46L13 46L13 45L14 45L14 43ZM30 43L30 45L31 45L31 43ZM15 44L15 46L14 46L14 47L16 47L16 44ZM23 45L23 46L24 46L24 45ZM25 45L25 48L28 48L28 45ZM45 45L45 48L48 48L48 45ZM49 45L49 46L50 46L50 45ZM26 46L26 47L27 47L27 46ZM39 46L39 48L40 48L40 46ZM46 46L46 47L47 47L47 46ZM26 49L26 51L25 51L25 50L24 50L24 51L25 51L25 52L27 52L27 51L28 51L28 52L30 52L30 51L28 51L28 50L29 50L29 49L28 49L28 50L27 50L27 49ZM36 49L36 50L37 50L37 49ZM44 49L44 50L46 50L46 52L49 52L49 51L48 51L48 49L47 49L47 50L46 50L46 49ZM16 50L16 51L17 51L17 50ZM52 52L52 53L53 53L53 52ZM0 0L0 7L7 7L7 0ZM1 1L1 6L6 6L6 1ZM2 2L2 5L5 5L5 2ZM46 0L46 7L53 7L53 0ZM47 1L47 6L52 6L52 1ZM48 2L48 5L51 5L51 2ZM0 46L0 53L7 53L7 46ZM1 47L1 52L6 52L6 47ZM2 48L2 51L5 51L5 48Z" fill="#000000"/></g></g></svg>
