<?xml version="1.0" encoding="UTF-8"?>
<svg xmlns="http://www.w3.org/2000/svg" version="1.1" width="356" height="356" viewBox="0 0 356 356"><rect x="0" y="0" width="356" height="356" fill="#ffffff"/><g transform="scale(6.717)"><g transform="translate(0,0)"><path fill-rule="evenodd" d="M8 0L8 2L9 2L9 4L8 4L8 11L9 11L9 6L10 6L10 8L11 8L11 9L12 9L12 10L11 10L11 11L10 11L10 12L9 12L9 13L8 13L8 14L6 14L6 15L8 15L8 16L4 16L4 15L5 15L5 14L4 14L4 15L2 15L2 14L1 14L1 13L0 13L0 14L1 14L1 16L3 16L3 17L2 17L2 18L0 18L0 21L1 21L1 22L0 22L0 27L1 27L1 28L0 28L0 32L2 32L2 34L1 34L1 33L0 33L0 37L1 37L1 35L2 35L2 38L1 38L1 39L3 39L3 40L0 40L0 41L2 41L2 42L0 42L0 43L1 43L1 44L3 44L3 45L4 45L4 44L3 44L3 43L7 43L7 42L8 42L8 41L7 41L7 40L8 40L8 39L9 39L9 38L8 38L8 37L9 37L9 33L7 33L7 32L8 32L8 31L7 31L7 30L9 30L9 26L10 26L10 27L11 27L11 29L13 29L13 30L16 30L16 32L15 32L15 31L14 31L14 32L15 32L15 34L13 34L13 32L11 32L11 31L12 31L12 30L11 30L11 31L9 31L9 32L11 32L11 33L10 33L10 34L11 34L11 36L10 36L10 40L9 40L9 44L8 44L8 46L9 46L9 47L8 47L8 48L9 48L9 47L10 47L10 50L11 50L11 51L9 51L9 50L8 50L8 53L9 53L9 52L10 52L10 53L12 53L12 52L13 52L13 53L14 53L14 52L15 52L15 53L16 53L16 52L18 52L18 53L20 53L20 52L18 52L18 49L19 49L19 48L20 48L20 49L21 49L21 48L20 48L20 47L21 47L21 46L23 46L23 47L22 47L22 48L23 48L23 51L24 51L24 49L25 49L25 51L26 51L26 52L24 52L24 53L26 53L26 52L27 52L27 51L28 51L28 53L31 53L31 52L30 52L30 51L32 51L32 53L33 53L33 52L34 52L34 53L35 53L35 50L34 50L34 48L32 48L32 46L33 46L33 47L35 47L35 48L36 48L36 49L37 49L37 50L36 50L36 51L38 51L38 49L37 49L37 48L36 48L36 47L35 47L35 46L34 46L34 45L35 45L35 44L34 44L34 45L33 45L33 44L32 44L32 46L30 46L30 44L31 44L31 42L30 42L30 41L28 41L28 43L27 43L27 40L28 40L28 39L27 39L27 38L28 38L28 37L29 37L29 38L30 38L30 39L29 39L29 40L30 40L30 39L31 39L31 38L32 38L32 37L33 37L33 35L34 35L34 37L35 37L35 38L36 38L36 37L37 37L37 39L36 39L36 41L37 41L37 42L38 42L38 45L39 45L39 47L40 47L40 50L41 50L41 51L39 51L39 52L38 52L38 53L41 53L41 52L42 52L42 51L43 51L43 50L44 50L44 51L45 51L45 52L44 52L44 53L45 53L45 52L46 52L46 53L49 53L49 52L50 52L50 51L51 51L51 50L50 50L50 49L49 49L49 48L50 48L50 46L52 46L52 47L51 47L51 48L52 48L52 47L53 47L53 45L52 45L52 44L53 44L53 42L52 42L52 44L50 44L50 43L49 43L49 44L48 44L48 43L47 43L47 42L48 42L48 41L49 41L49 42L50 42L50 41L52 41L52 40L53 40L53 38L52 38L52 40L50 40L50 39L51 39L51 36L50 36L50 35L48 35L48 33L49 33L49 34L51 34L51 33L49 33L49 32L50 32L50 31L51 31L51 30L50 30L50 29L52 29L52 33L53 33L53 29L52 29L52 27L53 27L53 26L52 26L52 27L51 27L51 25L52 25L52 23L53 23L53 22L52 22L52 23L51 23L51 21L53 21L53 18L52 18L52 20L51 20L51 21L50 21L50 18L51 18L51 17L50 17L50 16L49 16L49 15L52 15L52 16L53 16L53 10L52 10L52 9L53 9L53 8L51 8L51 10L52 10L52 11L51 11L51 12L50 12L50 10L49 10L49 8L45 8L45 6L44 6L44 8L43 8L43 10L44 10L44 9L45 9L45 11L46 11L46 12L44 12L44 13L43 13L43 14L42 14L42 12L43 12L43 11L42 11L42 7L43 7L43 3L44 3L44 4L45 4L45 3L44 3L44 1L43 1L43 0L41 0L41 2L40 2L40 3L39 3L39 2L38 2L38 3L39 3L39 4L38 4L38 7L37 7L37 5L36 5L36 3L37 3L37 0L36 0L36 2L35 2L35 0L34 0L34 1L33 1L33 0L32 0L32 2L31 2L31 4L30 4L30 1L31 1L31 0L30 0L30 1L29 1L29 0L28 0L28 1L26 1L26 0L24 0L24 1L22 1L22 0L18 0L18 1L16 1L16 2L18 2L18 1L19 1L19 4L20 4L20 5L18 5L18 3L15 3L15 2L14 2L14 1L15 1L15 0L11 0L11 1L12 1L12 2L10 2L10 1L9 1L9 0ZM38 0L38 1L40 1L40 0ZM20 1L20 2L22 2L22 4L23 4L23 7L22 7L22 5L20 5L20 6L19 6L19 8L18 8L18 6L17 6L17 7L16 7L16 5L15 5L15 3L13 3L13 4L12 4L12 5L10 5L10 4L9 4L9 5L10 5L10 6L11 6L11 8L12 8L12 5L13 5L13 7L14 7L14 8L15 8L15 9L14 9L14 10L15 10L15 11L13 11L13 10L12 10L12 11L11 11L11 12L16 12L16 14L12 14L12 15L13 15L13 19L14 19L14 20L15 20L15 19L14 19L14 18L15 18L15 16L14 16L14 15L16 15L16 14L18 14L18 12L19 12L19 8L20 8L20 6L21 6L21 7L22 7L22 8L21 8L21 10L20 10L20 11L21 11L21 12L20 12L20 14L19 14L19 15L18 15L18 16L19 16L19 17L18 17L18 18L19 18L19 20L21 20L21 21L20 21L20 22L19 22L19 21L18 21L18 19L17 19L17 18L16 18L16 19L17 19L17 20L16 20L16 23L14 23L14 24L15 24L15 25L14 25L14 26L15 26L15 28L16 28L16 30L21 30L21 31L18 31L18 32L19 32L19 33L18 33L18 34L16 34L16 35L17 35L17 36L16 36L16 38L15 38L15 37L14 37L14 36L15 36L15 35L13 35L13 36L12 36L12 37L11 37L11 40L10 40L10 41L11 41L11 42L10 42L10 44L11 44L11 46L13 46L13 45L15 45L15 44L16 44L16 47L15 47L15 46L14 46L14 47L12 47L12 48L11 48L11 49L12 49L12 51L13 51L13 48L14 48L14 51L15 51L15 48L16 48L16 47L17 47L17 46L19 46L19 45L20 45L20 46L21 46L21 45L22 45L22 44L19 44L19 45L18 45L18 43L19 43L19 40L20 40L20 39L21 39L21 38L22 38L22 34L23 34L23 32L24 32L24 31L23 31L23 29L22 29L22 28L24 28L24 25L21 25L21 26L20 26L20 27L22 27L22 28L19 28L19 29L18 29L18 28L17 28L17 27L18 27L18 26L19 26L19 24L20 24L20 22L22 22L22 24L23 24L23 22L24 22L24 24L25 24L25 23L26 23L26 24L29 24L29 23L30 23L30 25L29 25L29 27L30 27L30 28L29 28L29 29L28 29L28 30L26 30L26 31L25 31L25 33L26 33L26 35L25 35L25 34L24 34L24 35L23 35L23 36L25 36L25 37L26 37L26 38L27 38L27 37L26 37L26 35L27 35L27 34L28 34L28 36L29 36L29 37L30 37L30 38L31 38L31 35L33 35L33 33L32 33L32 32L34 32L34 35L35 35L35 37L36 37L36 36L37 36L37 37L38 37L38 38L40 38L40 39L39 39L39 40L38 40L38 39L37 39L37 40L38 40L38 42L39 42L39 43L40 43L40 44L39 44L39 45L40 45L40 44L41 44L41 43L42 43L42 44L44 44L44 42L45 42L45 40L44 40L44 41L43 41L43 39L42 39L42 38L44 38L44 39L46 39L46 40L47 40L47 39L46 39L46 38L47 38L47 37L46 37L46 36L47 36L47 35L46 35L46 34L47 34L47 33L46 33L46 29L44 29L44 30L43 30L43 29L42 29L42 26L43 26L43 28L44 28L44 26L43 26L43 24L44 24L44 23L46 23L46 22L47 22L47 24L49 24L49 23L50 23L50 25L51 25L51 23L50 23L50 22L49 22L49 21L48 21L48 19L49 19L49 17L48 17L48 19L47 19L47 17L46 17L46 15L45 15L45 13L44 13L44 14L43 14L43 15L41 15L41 13L40 13L40 12L42 12L42 11L39 11L39 12L38 12L38 11L37 11L37 13L36 13L36 11L33 11L33 10L31 10L31 9L32 9L32 6L33 6L33 9L34 9L34 10L35 10L35 9L36 9L36 8L37 8L37 7L36 7L36 5L35 5L35 7L34 7L34 6L33 6L33 2L32 2L32 5L30 5L30 4L29 4L29 3L27 3L27 4L29 4L29 7L30 7L30 8L29 8L29 9L24 9L24 10L23 10L23 9L22 9L22 8L24 8L24 3L25 3L25 4L26 4L26 1L24 1L24 3L23 3L23 2L22 2L22 1ZM28 1L28 2L29 2L29 1ZM42 2L42 3L43 3L43 2ZM34 3L34 4L35 4L35 3ZM40 3L40 5L41 5L41 7L42 7L42 4L41 4L41 3ZM25 5L25 8L28 8L28 5ZM14 6L14 7L15 7L15 6ZM26 6L26 7L27 7L27 6ZM30 6L30 7L31 7L31 6ZM39 6L39 7L38 7L38 10L40 10L40 9L39 9L39 7L40 7L40 6ZM0 8L0 12L2 12L2 11L1 11L1 10L4 10L4 12L3 12L3 13L4 13L4 12L5 12L5 13L7 13L7 12L6 12L6 11L7 11L7 10L6 10L6 11L5 11L5 9L7 9L7 8L5 8L5 9L3 9L3 8ZM16 8L16 9L17 9L17 8ZM30 8L30 9L29 9L29 10L28 10L28 12L27 12L27 13L26 13L26 10L24 10L24 11L23 11L23 10L21 10L21 11L22 11L22 12L21 12L21 14L20 14L20 17L21 17L21 18L20 18L20 19L21 19L21 20L22 20L22 21L23 21L23 20L22 20L22 19L23 19L23 18L25 18L25 22L26 22L26 23L27 23L27 21L28 21L28 23L29 23L29 22L30 22L30 23L31 23L31 22L32 22L32 21L33 21L33 23L32 23L32 25L31 25L31 27L32 27L32 25L33 25L33 26L34 26L34 27L33 27L33 28L32 28L32 29L31 29L31 28L30 28L30 29L31 29L31 31L33 31L33 30L34 30L34 32L35 32L35 35L37 35L37 36L38 36L38 35L39 35L39 34L40 34L40 38L42 38L42 37L44 37L44 38L45 38L45 37L44 37L44 36L45 36L45 35L44 35L44 36L43 36L43 35L42 35L42 37L41 37L41 34L40 34L40 33L41 33L41 32L42 32L42 33L43 33L43 34L44 34L44 33L45 33L45 30L44 30L44 31L43 31L43 30L42 30L42 29L41 29L41 28L40 28L40 27L38 27L38 24L39 24L39 22L40 22L40 25L41 25L41 26L42 26L42 24L41 24L41 22L42 22L42 21L43 21L43 19L44 19L44 20L45 20L45 22L46 22L46 20L47 20L47 19L46 19L46 17L45 17L45 16L44 16L44 17L43 17L43 19L40 19L40 18L42 18L42 17L41 17L41 15L40 15L40 13L39 13L39 15L38 15L38 16L36 16L36 13L35 13L35 12L32 12L32 13L33 13L33 14L32 14L32 18L30 18L30 15L31 15L31 14L30 14L30 12L31 12L31 10L30 10L30 9L31 9L31 8ZM46 9L46 10L47 10L47 11L48 11L48 9ZM16 10L16 11L17 11L17 12L18 12L18 10ZM24 11L24 12L25 12L25 11ZM28 12L28 13L29 13L29 12ZM46 12L46 14L47 14L47 15L48 15L48 14L47 14L47 13L48 13L48 12ZM10 13L10 14L8 14L8 15L10 15L10 16L9 16L9 18L8 18L8 17L6 17L6 18L3 18L3 19L4 19L4 20L3 20L3 21L2 21L2 23L1 23L1 25L2 25L2 26L1 26L1 27L2 27L2 29L1 29L1 30L2 30L2 32L3 32L3 34L4 34L4 35L3 35L3 38L4 38L4 37L6 37L6 38L7 38L7 37L8 37L8 36L7 36L7 35L8 35L8 34L7 34L7 33L6 33L6 32L7 32L7 31L6 31L6 32L3 32L3 31L4 31L4 29L3 29L3 28L4 28L4 26L3 26L3 25L4 25L4 24L7 24L7 23L6 23L6 22L8 22L8 24L10 24L10 25L11 25L11 24L12 24L12 25L13 25L13 23L10 23L10 22L9 22L9 21L10 21L10 20L11 20L11 21L12 21L12 20L11 20L11 19L10 19L10 17L11 17L11 18L12 18L12 16L11 16L11 15L10 15L10 14L11 14L11 13ZM23 13L23 14L22 14L22 15L21 15L21 16L22 16L22 15L24 15L24 16L23 16L23 17L24 17L24 16L25 16L25 15L24 15L24 14L26 14L26 13ZM34 13L34 14L33 14L33 17L34 17L34 19L33 19L33 18L32 18L32 19L30 19L30 20L31 20L31 21L30 21L30 22L31 22L31 21L32 21L32 20L34 20L34 22L35 22L35 21L36 21L36 24L34 24L34 26L35 26L35 25L36 25L36 27L34 27L34 28L33 28L33 29L34 29L34 30L35 30L35 31L36 31L36 27L37 27L37 28L38 28L38 30L37 30L37 31L38 31L38 30L40 30L40 31L39 31L39 33L38 33L38 34L37 34L37 35L38 35L38 34L39 34L39 33L40 33L40 31L42 31L42 32L43 32L43 31L42 31L42 30L40 30L40 28L38 28L38 27L37 27L37 25L36 25L36 24L37 24L37 23L38 23L38 22L39 22L39 21L40 21L40 22L41 22L41 21L42 21L42 20L41 20L41 21L40 21L40 20L39 20L39 19L38 19L38 20L37 20L37 19L36 19L36 20L34 20L34 19L35 19L35 18L37 18L37 17L36 17L36 16L35 16L35 17L34 17L34 14L35 14L35 13ZM37 13L37 14L38 14L38 13ZM50 13L50 14L51 14L51 13ZM27 14L27 15L26 15L26 16L27 16L27 17L26 17L26 18L27 18L27 19L26 19L26 20L28 20L28 21L29 21L29 20L28 20L28 17L29 17L29 16L28 16L28 14ZM39 15L39 16L38 16L38 18L39 18L39 17L40 17L40 15ZM44 17L44 18L45 18L45 17ZM6 18L6 19L7 19L7 20L5 20L5 21L3 21L3 22L5 22L5 21L7 21L7 20L8 20L8 21L9 21L9 19L8 19L8 18ZM1 19L1 20L2 20L2 19ZM36 20L36 21L37 21L37 22L38 22L38 21L37 21L37 20ZM17 21L17 22L18 22L18 21ZM48 22L48 23L49 23L49 22ZM3 23L3 24L2 24L2 25L3 25L3 24L4 24L4 23ZM16 23L16 25L17 25L17 23ZM18 23L18 24L19 24L19 23ZM5 25L5 28L8 28L8 25ZM25 25L25 28L28 28L28 25ZM45 25L45 28L48 28L48 25ZM6 26L6 27L7 27L7 26ZM12 26L12 27L13 27L13 28L14 28L14 27L13 27L13 26ZM16 26L16 27L17 27L17 26ZM26 26L26 27L27 27L27 26ZM46 26L46 27L47 27L47 26ZM49 26L49 27L50 27L50 28L51 28L51 27L50 27L50 26ZM2 29L2 30L3 30L3 29ZM5 29L5 30L7 30L7 29ZM48 29L48 30L47 30L47 32L48 32L48 30L49 30L49 31L50 31L50 30L49 30L49 29ZM28 30L28 31L27 31L27 32L26 32L26 33L28 33L28 34L30 34L30 35L31 35L31 34L30 34L30 32L28 32L28 31L29 31L29 30ZM22 31L22 32L23 32L23 31ZM20 32L20 33L21 33L21 32ZM5 33L5 34L6 34L6 35L5 35L5 36L6 36L6 37L7 37L7 36L6 36L6 35L7 35L7 34L6 34L6 33ZM11 33L11 34L12 34L12 33ZM18 34L18 38L19 38L19 39L18 39L18 40L19 40L19 39L20 39L20 38L19 38L19 34ZM20 34L20 35L21 35L21 34ZM52 34L52 35L53 35L53 34ZM48 36L48 38L49 38L49 39L48 39L48 40L49 40L49 39L50 39L50 36ZM12 37L12 41L13 41L13 42L14 42L14 43L13 43L13 44L12 44L12 45L13 45L13 44L15 44L15 42L14 42L14 41L15 41L15 40L16 40L16 41L17 41L17 39L15 39L15 38L13 38L13 37ZM23 37L23 38L24 38L24 39L25 39L25 40L23 40L23 39L22 39L22 40L23 40L23 41L22 41L22 42L20 42L20 43L22 43L22 42L23 42L23 41L24 41L24 42L26 42L26 39L25 39L25 38L24 38L24 37ZM4 39L4 40L3 40L3 41L4 41L4 42L7 42L7 41L6 41L6 40L7 40L7 39L6 39L6 40L5 40L5 39ZM14 39L14 40L15 40L15 39ZM32 39L32 43L34 43L34 41L35 41L35 39L34 39L34 40L33 40L33 39ZM4 40L4 41L5 41L5 40ZM40 40L40 41L39 41L39 42L40 42L40 43L41 43L41 42L42 42L42 43L43 43L43 42L42 42L42 40ZM40 41L40 42L41 42L41 41ZM46 41L46 42L47 42L47 41ZM2 42L2 43L3 43L3 42ZM16 42L16 43L18 43L18 42ZM35 42L35 43L36 43L36 46L37 46L37 43L36 43L36 42ZM23 43L23 46L24 46L24 43ZM25 43L25 44L26 44L26 43ZM28 43L28 44L30 44L30 43ZM6 44L6 45L7 45L7 44ZM49 44L49 46L50 46L50 44ZM9 45L9 46L10 46L10 45ZM25 45L25 48L28 48L28 45ZM42 45L42 47L41 47L41 48L42 48L42 50L43 50L43 47L44 47L44 45ZM45 45L45 48L48 48L48 45ZM26 46L26 47L27 47L27 46ZM29 46L29 47L30 47L30 48L31 48L31 49L30 49L30 50L29 50L29 51L30 51L30 50L32 50L32 51L33 51L33 49L32 49L32 48L31 48L31 47L30 47L30 46ZM46 46L46 47L47 47L47 46ZM18 47L18 48L19 48L19 47ZM26 49L26 51L27 51L27 50L28 50L28 49ZM44 49L44 50L45 50L45 51L46 51L46 52L49 52L49 51L50 51L50 50L49 50L49 51L48 51L48 49L46 49L46 50L45 50L45 49ZM16 50L16 51L17 51L17 50ZM20 50L20 51L22 51L22 50ZM46 50L46 51L47 51L47 50ZM22 52L22 53L23 53L23 52ZM36 52L36 53L37 53L37 52ZM52 52L52 53L53 53L53 52ZM0 0L0 7L7 7L7 0ZM1 1L1 6L6 6L6 1ZM2 2L2 5L5 5L5 2ZM46 0L46 7L53 7L53 0ZM47 1L47 6L52 6L52 1ZM48 2L48 5L51 5L51 2ZM0 46L0 53L7 53L7 46ZM1 47L1 52L6 52L6 47ZM2 48L2 51L5 51L5 48Z" fill="#000000"/></g></g></svg>
