<?xml version="1.0" encoding="UTF-8"?>
<svg xmlns="http://www.w3.org/2000/svg" version="1.1" width="356" height="356" viewBox="0 0 356 356"><rect x="0" y="0" width="356" height="356" fill="#ffffff"/><g transform="scale(6.717)"><g transform="translate(0,0)"><path fill-rule="evenodd" d="M8 0L8 4L9 4L9 0ZM13 0L13 2L14 2L14 1L16 1L16 2L18 2L18 3L19 3L19 4L20 4L20 8L19 8L19 6L18 6L18 5L16 5L16 7L15 7L15 5L12 5L12 4L13 4L13 3L12 3L12 1L10 1L10 3L11 3L11 4L10 4L10 7L9 7L9 5L8 5L8 7L9 7L9 8L10 8L10 7L11 7L11 8L12 8L12 10L11 10L11 9L10 9L10 11L8 11L8 13L9 13L9 12L10 12L10 15L9 15L9 14L6 14L6 15L9 15L9 16L5 16L5 15L4 15L4 13L7 13L7 12L4 12L4 9L7 9L7 8L4 8L4 9L2 9L2 8L0 8L0 10L1 10L1 12L0 12L0 13L1 13L1 15L0 15L0 16L1 16L1 15L2 15L2 14L3 14L3 15L4 15L4 16L2 16L2 20L0 20L0 21L1 21L1 22L2 22L2 24L1 24L1 25L0 25L0 26L1 26L1 27L3 27L3 28L0 28L0 29L2 29L2 31L4 31L4 32L1 32L1 30L0 30L0 34L2 34L2 35L0 35L0 36L3 36L3 38L4 38L4 36L5 36L5 39L4 39L4 41L3 41L3 39L2 39L2 37L0 37L0 40L2 40L2 42L1 42L1 41L0 41L0 43L1 43L1 44L3 44L3 45L4 45L4 44L3 44L3 43L7 43L7 44L6 44L6 45L7 45L7 44L8 44L8 46L9 46L9 44L8 44L8 43L9 43L9 41L11 41L11 40L12 40L12 41L14 41L14 42L12 42L12 43L11 43L11 42L10 42L10 44L13 44L13 45L10 45L10 47L11 47L11 48L10 48L10 49L9 49L9 47L8 47L8 49L9 49L9 51L8 51L8 53L10 53L10 52L11 52L11 53L12 53L12 52L11 52L11 51L14 51L14 49L15 49L15 51L16 51L16 50L17 50L17 51L20 51L20 50L21 50L21 51L22 51L22 52L20 52L20 53L22 53L22 52L23 52L23 53L28 53L28 52L31 52L31 51L28 51L28 49L29 49L29 50L32 50L32 53L33 53L33 52L34 52L34 53L37 53L37 52L36 52L36 51L35 51L35 50L37 50L37 48L38 48L38 47L39 47L39 49L38 49L38 53L40 53L40 51L41 51L41 50L40 50L40 44L41 44L41 46L43 46L43 45L44 45L44 48L43 48L43 47L41 47L41 49L42 49L42 51L44 51L44 50L45 50L45 51L46 51L46 52L45 52L45 53L46 53L46 52L48 52L48 53L49 53L49 52L50 52L50 51L51 51L51 53L52 53L52 52L53 52L53 51L51 51L51 50L50 50L50 49L49 49L49 48L50 48L50 47L51 47L51 46L52 46L52 48L51 48L51 49L53 49L53 44L52 44L52 43L53 43L53 42L52 42L52 43L51 43L51 44L52 44L52 45L51 45L51 46L50 46L50 43L48 43L48 42L49 42L49 41L50 41L50 42L51 42L51 40L52 40L52 41L53 41L53 40L52 40L52 39L53 39L53 38L52 38L52 37L53 37L53 34L52 34L52 35L51 35L51 34L49 34L49 33L47 33L47 34L46 34L46 37L47 37L47 38L46 38L46 39L48 39L48 38L49 38L49 40L48 40L48 41L46 41L46 40L45 40L45 39L44 39L44 38L43 38L43 37L45 37L45 35L44 35L44 34L45 34L45 33L46 33L46 31L47 31L47 32L50 32L50 30L51 30L51 28L50 28L50 27L51 27L51 26L50 26L50 22L49 22L49 21L50 21L50 19L51 19L51 20L52 20L52 19L53 19L53 18L52 18L52 19L51 19L51 18L50 18L50 16L49 16L49 15L48 15L48 17L47 17L47 20L46 20L46 15L47 15L47 14L49 14L49 12L50 12L50 14L51 14L51 12L50 12L50 11L51 11L51 10L52 10L52 11L53 11L53 10L52 10L52 9L53 9L53 8L49 8L49 10L50 10L50 11L48 11L48 13L47 13L47 10L46 10L46 9L45 9L45 6L44 6L44 7L43 7L43 3L44 3L44 4L45 4L45 3L44 3L44 1L43 1L43 0L38 0L38 1L39 1L39 2L38 2L38 5L37 5L37 4L36 4L36 5L34 5L34 3L36 3L36 2L35 2L35 1L37 1L37 0L35 0L35 1L34 1L34 0L32 0L32 1L31 1L31 0L27 0L27 1L31 1L31 2L30 2L30 3L26 3L26 0ZM19 1L19 3L21 3L21 8L22 8L22 9L19 9L19 8L18 8L18 9L17 9L17 8L16 8L16 9L15 9L15 10L14 10L14 9L13 9L13 12L12 12L12 13L13 13L13 14L12 14L12 15L11 15L11 16L9 16L9 18L8 18L8 17L5 17L5 16L4 16L4 17L3 17L3 21L2 21L2 22L3 22L3 23L4 23L4 24L3 24L3 25L2 25L2 26L3 26L3 25L4 25L4 24L5 24L5 23L4 23L4 22L5 22L5 20L7 20L7 21L6 21L6 22L7 22L7 23L6 23L6 24L8 24L8 22L9 22L9 24L12 24L12 25L13 25L13 26L11 26L11 25L10 25L10 26L11 26L11 27L9 27L9 29L8 29L8 32L9 32L9 33L10 33L10 34L8 34L8 33L6 33L6 32L7 32L7 31L6 31L6 30L7 30L7 29L6 29L6 30L5 30L5 32L4 32L4 33L2 33L2 34L3 34L3 35L4 35L4 34L5 34L5 33L6 33L6 34L8 34L8 35L10 35L10 34L13 34L13 37L11 37L11 38L12 38L12 40L13 40L13 39L14 39L14 40L16 40L16 41L15 41L15 43L16 43L16 42L18 42L18 41L19 41L19 43L20 43L20 42L21 42L21 41L22 41L22 45L21 45L21 46L20 46L20 44L19 44L19 46L18 46L18 45L16 45L16 44L14 44L14 45L13 45L13 46L12 46L12 47L13 47L13 49L14 49L14 48L15 48L15 49L18 49L18 48L19 48L19 49L20 49L20 48L21 48L21 47L22 47L22 48L23 48L23 49L21 49L21 50L24 50L24 51L25 51L25 49L24 49L24 47L23 47L23 46L22 46L22 45L24 45L24 44L25 44L25 43L24 43L24 44L23 44L23 42L25 42L25 41L26 41L26 39L24 39L24 41L23 41L23 40L22 40L22 39L21 39L21 38L25 38L25 37L26 37L26 38L27 38L27 37L28 37L28 39L27 39L27 42L26 42L26 43L29 43L29 45L32 45L32 46L31 46L31 47L32 47L32 48L29 48L29 49L32 49L32 48L33 48L33 49L34 49L34 50L35 50L35 49L34 49L34 48L33 48L33 47L34 47L34 46L35 46L35 47L36 47L36 48L37 48L37 47L38 47L38 45L39 45L39 43L40 43L40 42L41 42L41 44L42 44L42 45L43 45L43 42L41 42L41 41L43 41L43 38L42 38L42 39L41 39L41 38L40 38L40 37L43 37L43 36L44 36L44 35L43 35L43 34L44 34L44 33L43 33L43 32L44 32L44 31L46 31L46 30L45 30L45 29L44 29L44 27L43 27L43 26L44 26L44 24L45 24L45 23L46 23L46 24L47 24L47 23L48 23L48 24L49 24L49 23L48 23L48 22L47 22L47 21L46 21L46 20L44 20L44 17L43 17L43 18L42 18L42 19L40 19L40 21L39 21L39 22L38 22L38 20L39 20L39 19L38 19L38 17L39 17L39 15L40 15L40 17L41 17L41 16L44 16L44 15L46 15L46 14L47 14L47 13L46 13L46 12L45 12L45 13L46 13L46 14L44 14L44 13L43 13L43 12L40 12L40 10L41 10L41 11L42 11L42 9L43 9L43 10L44 10L44 9L43 9L43 7L42 7L42 5L41 5L41 4L42 4L42 3L43 3L43 2L42 2L42 1L40 1L40 2L39 2L39 4L40 4L40 5L38 5L38 6L37 6L37 7L36 7L36 6L35 6L35 7L36 7L36 8L38 8L38 6L39 6L39 7L40 7L40 5L41 5L41 8L40 8L40 10L38 10L38 9L36 9L36 11L34 11L34 12L33 12L33 13L34 13L34 14L37 14L37 13L39 13L39 15L38 15L38 17L37 17L37 18L36 18L36 17L35 17L35 16L37 16L37 15L34 15L34 19L32 19L32 18L33 18L33 17L32 17L32 15L33 15L33 14L32 14L32 15L31 15L31 14L29 14L29 15L28 15L28 12L29 12L29 13L32 13L32 11L31 11L31 10L33 10L33 9L32 9L32 5L31 5L31 7L30 7L30 6L29 6L29 7L30 7L30 9L31 9L31 10L30 10L30 11L31 11L31 12L29 12L29 11L28 11L28 10L29 10L29 9L27 9L27 10L26 10L26 9L25 9L25 10L24 10L24 5L23 5L23 4L22 4L22 3L23 3L23 2L22 2L22 1L21 1L21 2L20 2L20 1ZM32 1L32 2L31 2L31 3L30 3L30 4L31 4L31 3L32 3L32 4L33 4L33 3L34 3L34 2L33 2L33 1ZM32 2L32 3L33 3L33 2ZM41 2L41 3L40 3L40 4L41 4L41 3L42 3L42 2ZM25 3L25 4L26 4L26 3ZM22 5L22 8L23 8L23 5ZM25 5L25 8L28 8L28 5ZM33 5L33 7L34 7L34 5ZM11 6L11 7L12 7L12 8L13 8L13 7L14 7L14 8L15 8L15 7L14 7L14 6L13 6L13 7L12 7L12 6ZM17 6L17 7L18 7L18 6ZM26 6L26 7L27 7L27 6ZM41 8L41 9L42 9L42 8ZM47 8L47 9L48 9L48 8ZM8 9L8 10L9 10L9 9ZM18 9L18 10L16 10L16 11L15 11L15 12L13 12L13 13L15 13L15 14L13 14L13 15L14 15L14 16L15 16L15 14L16 14L16 15L18 15L18 14L16 14L16 13L20 13L20 14L19 14L19 15L20 15L20 17L19 17L19 16L18 16L18 17L13 17L13 16L11 16L11 18L12 18L12 19L10 19L10 18L9 18L9 19L7 19L7 18L5 18L5 19L4 19L4 20L5 20L5 19L7 19L7 20L9 20L9 19L10 19L10 20L11 20L11 21L10 21L10 23L13 23L13 25L14 25L14 26L15 26L15 25L16 25L16 21L17 21L17 22L18 22L18 23L17 23L17 25L18 25L18 26L19 26L19 25L21 25L21 23L22 23L22 24L23 24L23 26L22 26L22 28L21 28L21 26L20 26L20 27L18 27L18 28L17 28L17 26L16 26L16 27L14 27L14 28L13 28L13 27L12 27L12 28L11 28L11 30L10 30L10 29L9 29L9 30L10 30L10 31L9 31L9 32L10 32L10 31L12 31L12 29L15 29L15 30L13 30L13 31L14 31L14 32L16 32L16 31L18 31L18 30L22 30L22 28L24 28L24 29L23 29L23 32L22 32L22 31L21 31L21 32L20 32L20 33L19 33L19 32L18 32L18 33L13 33L13 34L15 34L15 35L16 35L16 34L19 34L19 35L17 35L17 36L16 36L16 37L15 37L15 36L14 36L14 37L13 37L13 38L16 38L16 37L19 37L19 38L18 38L18 39L17 39L17 41L18 41L18 40L19 40L19 41L21 41L21 40L20 40L20 39L19 39L19 38L21 38L21 37L22 37L22 35L23 35L23 36L25 36L25 34L26 34L26 37L27 37L27 33L28 33L28 36L30 36L30 37L29 37L29 39L28 39L28 42L30 42L30 44L32 44L32 45L33 45L33 46L32 46L32 47L33 47L33 46L34 46L34 44L35 44L35 45L38 45L38 43L39 43L39 42L40 42L40 40L41 40L41 39L38 39L38 38L39 38L39 37L40 37L40 36L43 36L43 35L42 35L42 34L43 34L43 33L42 33L42 32L43 32L43 31L42 31L42 32L41 32L41 30L44 30L44 29L43 29L43 27L42 27L42 26L43 26L43 25L42 25L42 23L44 23L44 22L46 22L46 23L47 23L47 22L46 22L46 21L44 21L44 22L43 22L43 19L42 19L42 21L40 21L40 22L41 22L41 23L39 23L39 24L38 24L38 22L37 22L37 20L38 20L38 19L37 19L37 20L35 20L35 21L36 21L36 22L34 22L34 20L32 20L32 21L31 21L31 20L30 20L30 21L29 21L29 20L28 20L28 19L31 19L31 18L32 18L32 17L31 17L31 16L30 16L30 17L28 17L28 19L27 19L27 18L26 18L26 19L25 19L25 18L24 18L24 19L23 19L23 17L27 17L27 16L28 16L28 15L27 15L27 14L26 14L26 13L27 13L27 12L28 12L28 11L27 11L27 12L26 12L26 11L25 11L25 12L23 12L23 13L22 13L22 11L21 11L21 10L20 10L20 11L19 11L19 9ZM34 9L34 10L35 10L35 9ZM50 9L50 10L51 10L51 9ZM2 10L2 12L1 12L1 13L2 13L2 12L3 12L3 10ZM6 10L6 11L7 11L7 10ZM37 10L37 11L38 11L38 12L39 12L39 13L40 13L40 12L39 12L39 11L38 11L38 10ZM17 11L17 12L19 12L19 11ZM15 12L15 13L16 13L16 12ZM20 12L20 13L21 13L21 12ZM35 12L35 13L37 13L37 12ZM41 13L41 15L44 15L44 14L43 14L43 13ZM52 13L52 15L51 15L51 16L52 16L52 17L53 17L53 16L52 16L52 15L53 15L53 13ZM20 14L20 15L21 15L21 14ZM22 14L22 16L21 16L21 17L23 17L23 16L25 16L25 14ZM26 15L26 16L27 16L27 15ZM12 17L12 18L13 18L13 17ZM0 18L0 19L1 19L1 18ZM14 18L14 20L15 20L15 21L13 21L13 23L14 23L14 24L15 24L15 21L16 21L16 20L17 20L17 18L16 18L16 19L15 19L15 18ZM18 18L18 19L19 19L19 20L22 20L22 23L23 23L23 24L25 24L25 23L26 23L26 24L27 24L27 23L26 23L26 22L27 22L27 21L28 21L28 20L27 20L27 19L26 19L26 20L27 20L27 21L25 21L25 19L24 19L24 21L25 21L25 23L24 23L24 22L23 22L23 20L22 20L22 18L20 18L20 19L19 19L19 18ZM35 18L35 19L36 19L36 18ZM49 18L49 19L48 19L48 20L49 20L49 19L50 19L50 18ZM11 21L11 22L12 22L12 21ZM19 21L19 22L20 22L20 23L19 23L19 24L18 24L18 25L19 25L19 24L20 24L20 23L21 23L21 22L20 22L20 21ZM32 21L32 22L33 22L33 25L34 25L34 26L33 26L33 27L32 27L32 23L31 23L31 22L29 22L29 25L30 25L30 24L31 24L31 26L30 26L30 27L29 27L29 29L28 29L28 30L27 30L27 29L24 29L24 31L25 31L25 33L24 33L24 32L23 32L23 33L21 33L21 34L20 34L20 35L19 35L19 37L21 37L21 35L22 35L22 34L23 34L23 33L24 33L24 34L25 34L25 33L26 33L26 31L27 31L27 32L28 32L28 33L29 33L29 32L30 32L30 33L32 33L32 32L33 32L33 33L34 33L34 35L33 35L33 36L34 36L34 37L33 37L33 38L32 38L32 37L31 37L31 38L30 38L30 39L29 39L29 41L30 41L30 40L31 40L31 41L32 41L32 44L33 44L33 41L34 41L34 43L36 43L36 44L37 44L37 42L38 42L38 41L35 41L35 39L36 39L36 40L37 40L37 38L38 38L38 36L37 36L37 38L36 38L36 37L35 37L35 36L34 36L34 35L38 35L38 33L39 33L39 31L40 31L40 30L41 30L41 29L42 29L42 27L41 27L41 28L40 28L40 29L39 29L39 28L38 28L38 27L40 27L40 25L41 25L41 24L40 24L40 25L39 25L39 26L38 26L38 25L37 25L37 28L38 28L38 29L36 29L36 27L35 27L35 29L34 29L34 30L32 30L32 31L31 31L31 32L30 32L30 31L29 31L29 32L28 32L28 30L29 30L29 29L32 29L32 28L34 28L34 26L35 26L35 25L34 25L34 24L37 24L37 22L36 22L36 23L34 23L34 22L33 22L33 21ZM51 21L51 22L52 22L52 23L51 23L51 24L52 24L52 25L53 25L53 22L52 22L52 21ZM5 25L5 28L8 28L8 25ZM25 25L25 28L28 28L28 25ZM45 25L45 28L48 28L48 25ZM6 26L6 27L7 27L7 26ZM26 26L26 27L27 27L27 26ZM46 26L46 27L47 27L47 26ZM49 26L49 27L50 27L50 26ZM52 26L52 31L51 31L51 33L52 33L52 31L53 31L53 26ZM3 28L3 29L4 29L4 28ZM15 28L15 29L16 29L16 30L15 30L15 31L16 31L16 30L18 30L18 29L16 29L16 28ZM19 28L19 29L21 29L21 28ZM35 29L35 30L34 30L34 31L33 31L33 32L34 32L34 33L35 33L35 34L37 34L37 33L38 33L38 31L39 31L39 29L38 29L38 31L36 31L36 33L35 33L35 32L34 32L34 31L35 31L35 30L36 30L36 29ZM49 29L49 30L47 30L47 31L49 31L49 30L50 30L50 29ZM25 30L25 31L26 31L26 30ZM11 32L11 33L12 33L12 32ZM40 32L40 33L41 33L41 32ZM39 34L39 36L40 36L40 34ZM47 34L47 37L50 37L50 40L51 40L51 39L52 39L52 38L51 38L51 37L50 37L50 36L51 36L51 35L50 35L50 36L48 36L48 35L49 35L49 34ZM5 35L5 36L7 36L7 37L6 37L6 38L7 38L7 39L5 39L5 40L7 40L7 41L4 41L4 42L7 42L7 41L8 41L8 40L9 40L9 39L8 39L8 38L7 38L7 37L10 37L10 36L7 36L7 35ZM31 38L31 39L32 39L32 41L33 41L33 40L34 40L34 39L32 39L32 38ZM10 39L10 40L11 40L11 39ZM44 40L44 41L45 41L45 42L44 42L44 43L46 43L46 44L47 44L47 43L46 43L46 41L45 41L45 40ZM2 42L2 43L3 43L3 42ZM15 45L15 48L16 48L16 45ZM25 45L25 48L28 48L28 45ZM45 45L45 48L48 48L48 45ZM13 46L13 47L14 47L14 46ZM17 46L17 47L18 47L18 46ZM19 46L19 47L20 47L20 46ZM26 46L26 47L27 47L27 46ZM36 46L36 47L37 47L37 46ZM46 46L46 47L47 47L47 46ZM49 46L49 47L50 47L50 46ZM11 48L11 50L10 50L10 51L11 51L11 50L12 50L12 48ZM43 49L43 50L44 50L44 49ZM46 49L46 51L48 51L48 52L49 52L49 49ZM27 51L27 52L28 52L28 51ZM34 51L34 52L35 52L35 51ZM16 52L16 53L19 53L19 52ZM0 0L0 7L7 7L7 0ZM1 1L1 6L6 6L6 1ZM2 2L2 5L5 5L5 2ZM46 0L46 7L53 7L53 0ZM47 1L47 6L52 6L52 1ZM48 2L48 5L51 5L51 2ZM0 46L0 53L7 53L7 46ZM1 47L1 52L6 52L6 47ZM2 48L2 51L5 51L5 48Z" fill="#000000"/></g></g></svg>
