<?xml version="1.0" encoding="UTF-8"?>
<svg xmlns="http://www.w3.org/2000/svg" version="1.1" width="356" height="356" viewBox="0 0 356 356"><rect x="0" y="0" width="356" height="356" fill="#ffffff"/><g transform="scale(6.717)"><g transform="translate(0,0)"><path fill-rule="evenodd" d="M9 0L9 1L8 1L8 2L10 2L10 4L9 4L9 3L8 3L8 4L9 4L9 5L8 5L8 7L9 7L9 6L10 6L10 8L6 8L6 9L5 9L5 8L0 8L0 9L1 9L1 10L0 10L0 11L1 11L1 10L2 10L2 12L3 12L3 13L4 13L4 15L3 15L3 17L2 17L2 19L4 19L4 20L3 20L3 21L2 21L2 20L1 20L1 16L2 16L2 13L1 13L1 14L0 14L0 20L1 20L1 21L2 21L2 22L1 22L1 23L0 23L0 26L2 26L2 24L3 24L3 27L0 27L0 28L1 28L1 30L2 30L2 32L3 32L3 33L5 33L5 32L6 32L6 33L8 33L8 34L9 34L9 35L8 35L8 37L7 37L7 36L6 36L6 35L7 35L7 34L3 34L3 36L4 36L4 37L7 37L7 38L3 38L3 37L2 37L2 36L1 36L1 39L0 39L0 43L1 43L1 44L3 44L3 45L4 45L4 44L3 44L3 43L7 43L7 42L8 42L8 43L9 43L9 42L8 42L8 39L7 39L7 38L9 38L9 40L10 40L10 41L11 41L11 43L12 43L12 41L11 41L11 40L10 40L10 39L11 39L11 38L10 38L10 36L12 36L12 35L13 35L13 34L12 34L12 35L10 35L10 34L11 34L11 33L16 33L16 34L15 34L15 35L16 35L16 36L15 36L15 37L21 37L21 39L22 39L22 38L23 38L23 37L25 37L25 38L24 38L24 39L23 39L23 42L24 42L24 39L25 39L25 42L26 42L26 44L25 44L25 43L24 43L24 47L23 47L23 45L22 45L22 47L21 47L21 48L22 48L22 49L21 49L21 50L22 50L22 49L23 49L23 48L24 48L24 50L23 50L23 51L24 51L24 50L26 50L26 51L25 51L25 52L23 52L23 53L25 53L25 52L26 52L26 53L27 53L27 52L28 52L28 51L29 51L29 52L30 52L30 53L32 53L32 52L33 52L33 53L38 53L38 52L39 52L39 53L40 53L40 52L41 52L41 53L43 53L43 52L44 52L44 53L47 53L47 52L44 52L44 50L43 50L43 48L44 48L44 49L45 49L45 51L48 51L48 53L51 53L51 52L52 52L52 51L53 51L53 50L52 50L52 49L53 49L53 48L52 48L52 49L51 49L51 48L50 48L50 47L51 47L51 45L53 45L53 43L51 43L51 42L52 42L52 41L50 41L50 43L48 43L48 44L47 44L47 43L45 43L45 42L49 42L49 40L50 40L50 38L51 38L51 36L52 36L52 37L53 37L53 36L52 36L52 35L51 35L51 36L50 36L50 34L52 34L52 32L50 32L50 27L49 27L49 24L50 24L50 26L52 26L52 24L53 24L53 23L52 23L52 24L50 24L50 22L52 22L52 20L53 20L53 19L51 19L51 18L52 18L52 17L53 17L53 15L52 15L52 17L51 17L51 16L50 16L50 17L49 17L49 16L48 16L48 15L46 15L46 14L45 14L45 15L44 15L44 16L43 16L43 14L44 14L44 12L42 12L42 10L43 10L43 11L45 11L45 13L47 13L47 14L50 14L50 13L49 13L49 12L50 12L50 11L51 11L51 10L50 10L50 8L49 8L49 10L47 10L47 11L46 11L46 10L43 10L43 9L46 9L46 8L45 8L45 6L44 6L44 8L43 8L43 3L44 3L44 4L45 4L45 3L44 3L44 1L43 1L43 0L42 0L42 1L41 1L41 2L40 2L40 0L39 0L39 1L38 1L38 0L35 0L35 1L34 1L34 2L33 2L33 1L32 1L32 0L29 0L29 1L30 1L30 2L27 2L27 3L25 3L25 4L23 4L23 5L22 5L22 4L21 4L21 3L22 3L22 2L23 2L23 3L24 3L24 2L26 2L26 1L28 1L28 0L26 0L26 1L25 1L25 0L21 0L21 1L22 1L22 2L21 2L21 3L18 3L18 2L20 2L20 1L19 1L19 0L16 0L16 1L15 1L15 2L14 2L14 1L13 1L13 0L12 0L12 1L11 1L11 0ZM12 1L12 2L13 2L13 3L12 3L12 4L11 4L11 5L10 5L10 6L11 6L11 8L10 8L10 10L9 10L9 9L8 9L8 10L7 10L7 9L6 9L6 10L5 10L5 11L3 11L3 12L5 12L5 11L6 11L6 12L8 12L8 13L6 13L6 14L7 14L7 15L5 15L5 16L4 16L4 17L5 17L5 18L7 18L7 17L6 17L6 16L7 16L7 15L8 15L8 19L5 19L5 22L4 22L4 21L3 21L3 23L5 23L5 24L9 24L9 23L10 23L10 25L9 25L9 27L10 27L10 28L9 28L9 29L10 29L10 30L11 30L11 29L12 29L12 28L13 28L13 29L15 29L15 31L18 31L18 29L15 29L15 28L14 28L14 27L16 27L16 28L17 28L17 26L18 26L18 25L21 25L21 24L22 24L22 26L23 26L23 25L24 25L24 24L23 24L23 23L24 23L24 21L23 21L23 19L22 19L22 20L21 20L21 18L22 18L22 17L25 17L25 18L24 18L24 19L25 19L25 20L27 20L27 22L26 22L26 23L25 23L25 24L27 24L27 23L29 23L29 21L28 21L28 20L27 20L27 19L30 19L30 20L32 20L32 21L31 21L31 23L30 23L30 24L29 24L29 25L30 25L30 24L32 24L32 26L30 26L30 27L29 27L29 29L31 29L31 27L32 27L32 31L31 31L31 30L28 30L28 31L27 31L27 30L25 30L25 29L23 29L23 27L21 27L21 29L19 29L19 32L20 32L20 33L19 33L19 34L20 34L20 35L17 35L17 36L21 36L21 37L23 37L23 36L21 36L21 33L22 33L22 34L23 34L23 35L24 35L24 34L25 34L25 36L26 36L26 38L25 38L25 39L26 39L26 42L27 42L27 44L29 44L29 45L31 45L31 47L30 47L30 48L29 48L29 49L31 49L31 52L32 52L32 50L34 50L34 51L33 51L33 52L34 52L34 51L36 51L36 50L35 50L35 49L33 49L33 47L32 47L32 45L33 45L33 46L34 46L34 48L37 48L37 49L38 49L38 51L37 51L37 52L38 52L38 51L39 51L39 52L40 52L40 51L41 51L41 50L42 50L42 51L43 51L43 50L42 50L42 48L43 48L43 47L44 47L44 44L45 44L45 43L44 43L44 44L42 44L42 45L43 45L43 47L42 47L42 48L41 48L41 43L43 43L43 42L44 42L44 39L48 39L48 38L45 38L45 37L44 37L44 35L45 35L45 36L47 36L47 37L49 37L49 38L50 38L50 36L49 36L49 35L48 35L48 36L47 36L47 34L46 34L46 33L48 33L48 32L49 32L49 31L47 31L47 30L43 30L43 32L42 32L42 31L41 31L41 29L42 29L42 28L38 28L38 29L37 29L37 30L39 30L39 31L40 31L40 32L38 32L38 31L36 31L36 32L35 32L35 33L33 33L33 30L34 30L34 31L35 31L35 29L36 29L36 28L37 28L37 27L38 27L38 26L39 26L39 25L41 25L41 24L42 24L42 25L43 25L43 26L40 26L40 27L43 27L43 29L44 29L44 27L43 27L43 26L44 26L44 24L42 24L42 23L44 23L44 22L45 22L45 23L47 23L47 24L48 24L48 23L47 23L47 22L48 22L48 21L46 21L46 19L44 19L44 20L43 20L43 18L42 18L42 20L43 20L43 21L44 21L44 22L42 22L42 21L41 21L41 20L39 20L39 17L42 17L42 14L41 14L41 11L40 11L40 10L41 10L41 9L42 9L42 5L41 5L41 3L43 3L43 2L41 2L41 3L39 3L39 4L38 4L38 2L37 2L37 1L35 1L35 3L32 3L32 6L31 6L31 7L30 7L30 5L29 5L29 7L30 7L30 8L32 8L32 9L33 9L33 10L34 10L34 12L33 12L33 11L32 11L32 13L33 13L33 14L32 14L32 15L31 15L31 14L29 14L29 13L31 13L31 11L30 11L30 12L29 12L29 9L28 9L28 10L27 10L27 11L26 11L26 12L25 12L25 13L24 13L24 12L23 12L23 11L24 11L24 10L23 10L23 9L24 9L24 5L23 5L23 7L22 7L22 6L21 6L21 4L20 4L20 6L19 6L19 4L16 4L16 2L15 2L15 3L14 3L14 2L13 2L13 1ZM31 1L31 2L32 2L32 1ZM36 2L36 3L35 3L35 4L37 4L37 5L38 5L38 4L37 4L37 2ZM27 3L27 4L29 4L29 3ZM30 3L30 4L31 4L31 3ZM13 4L13 5L15 5L15 6L14 6L14 7L13 7L13 6L12 6L12 8L14 8L14 7L15 7L15 8L16 8L16 7L17 7L17 6L18 6L18 7L19 7L19 6L18 6L18 5L16 5L16 4ZM33 4L33 5L34 5L34 7L33 7L33 6L32 6L32 8L34 8L34 9L35 9L35 10L36 10L36 11L39 11L39 12L40 12L40 11L39 11L39 10L38 10L38 9L40 9L40 8L41 8L41 5L40 5L40 8L37 8L37 6L36 6L36 8L34 8L34 7L35 7L35 5L34 5L34 4ZM25 5L25 8L28 8L28 5ZM15 6L15 7L16 7L16 6ZM20 6L20 8L21 8L21 6ZM26 6L26 7L27 7L27 6ZM38 6L38 7L39 7L39 6ZM17 8L17 9L18 9L18 10L20 10L20 11L17 11L17 12L16 12L16 11L14 11L14 9L12 9L12 11L13 11L13 12L15 12L15 13L12 13L12 12L11 12L11 11L9 11L9 10L8 10L8 11L9 11L9 12L11 12L11 14L12 14L12 15L11 15L11 16L9 16L9 17L11 17L11 16L12 16L12 17L16 17L16 18L15 18L15 19L16 19L16 20L15 20L15 21L13 21L13 20L14 20L14 18L13 18L13 19L12 19L12 20L11 20L11 19L10 19L10 18L9 18L9 20L11 20L11 21L9 21L9 22L11 22L11 23L13 23L13 24L14 24L14 23L13 23L13 22L15 22L15 24L17 24L17 25L18 25L18 24L17 24L17 23L18 23L18 22L19 22L19 23L20 23L20 24L21 24L21 23L23 23L23 22L21 22L21 23L20 23L20 21L19 21L19 20L17 20L17 18L18 18L18 19L20 19L20 18L19 18L19 17L20 17L20 16L21 16L21 17L22 17L22 16L26 16L26 13L25 13L25 15L23 15L23 13L22 13L22 14L21 14L21 15L20 15L20 13L21 13L21 10L22 10L22 9L18 9L18 8ZM47 8L47 9L48 9L48 8ZM51 8L51 9L52 9L52 8ZM3 9L3 10L4 10L4 9ZM15 9L15 10L16 10L16 9ZM25 9L25 10L26 10L26 9ZM36 9L36 10L37 10L37 9ZM6 10L6 11L7 11L7 10ZM48 11L48 12L49 12L49 11ZM52 11L52 12L51 12L51 13L52 13L52 12L53 12L53 11ZM19 12L19 13L15 13L15 16L16 16L16 17L18 17L18 16L16 16L16 15L18 15L18 14L19 14L19 13L20 13L20 12ZM28 12L28 13L29 13L29 12ZM34 12L34 13L38 13L38 12ZM9 13L9 14L8 14L8 15L9 15L9 14L10 14L10 13ZM33 14L33 15L32 15L32 16L31 16L31 15L29 15L29 16L28 16L28 15L27 15L27 17L26 17L26 18L25 18L25 19L27 19L27 18L31 18L31 17L32 17L32 19L34 19L34 20L33 20L33 21L32 21L32 24L33 24L33 25L35 25L35 26L38 26L38 25L39 25L39 23L40 23L40 24L41 24L41 23L42 23L42 22L40 22L40 21L39 21L39 23L38 23L38 25L37 25L37 22L38 22L38 21L37 21L37 19L38 19L38 17L39 17L39 16L40 16L40 15L41 15L41 14L37 14L37 15L34 15L34 14ZM12 15L12 16L14 16L14 15ZM19 15L19 16L20 16L20 15ZM37 15L37 17L38 17L38 16L39 16L39 15ZM30 16L30 17L31 17L31 16ZM32 16L32 17L33 17L33 18L35 18L35 19L36 19L36 17L35 17L35 16ZM44 16L44 18L47 18L47 20L48 20L48 19L50 19L50 20L49 20L49 21L50 21L50 20L51 20L51 19L50 19L50 18L51 18L51 17L50 17L50 18L47 18L47 17L48 17L48 16ZM6 20L6 21L7 21L7 22L5 22L5 23L7 23L7 22L8 22L8 21L7 21L7 20ZM44 20L44 21L45 21L45 20ZM15 21L15 22L17 22L17 21ZM33 21L33 24L34 24L34 23L36 23L36 22L35 22L35 21ZM1 23L1 24L2 24L2 23ZM5 25L5 28L8 28L8 25ZM10 25L10 27L11 27L11 28L12 28L12 26L14 26L14 25ZM15 25L15 26L16 26L16 25ZM25 25L25 28L28 28L28 25ZM45 25L45 28L48 28L48 25ZM6 26L6 27L7 27L7 26ZM19 26L19 27L18 27L18 28L19 28L19 27L20 27L20 26ZM26 26L26 27L27 27L27 26ZM32 26L32 27L33 27L33 26ZM46 26L46 27L47 27L47 26ZM35 27L35 28L34 28L34 29L35 29L35 28L36 28L36 27ZM3 28L3 29L2 29L2 30L4 30L4 31L5 31L5 30L7 30L7 31L6 31L6 32L9 32L9 34L10 34L10 33L11 33L11 31L10 31L10 32L9 32L9 31L8 31L8 29L5 29L5 30L4 30L4 28ZM51 28L51 29L52 29L52 30L51 30L51 31L52 31L52 30L53 30L53 28ZM21 29L21 30L22 30L22 31L21 31L21 32L22 32L22 33L23 33L23 32L24 32L24 33L25 33L25 34L29 34L29 35L31 35L31 36L33 36L33 37L36 37L36 38L33 38L33 39L32 39L32 40L31 40L31 38L32 38L32 37L29 37L29 38L28 38L28 36L27 36L27 35L26 35L26 36L27 36L27 38L26 38L26 39L27 39L27 38L28 38L28 39L29 39L29 38L30 38L30 40L31 40L31 41L29 41L29 42L28 42L28 41L27 41L27 42L28 42L28 43L29 43L29 44L30 44L30 43L29 43L29 42L31 42L31 45L32 45L32 42L33 42L33 44L35 44L35 45L37 45L37 46L38 46L38 47L37 47L37 48L38 48L38 47L39 47L39 46L38 46L38 45L39 45L39 44L40 44L40 43L41 43L41 42L43 42L43 40L42 40L42 39L43 39L43 36L41 36L41 37L39 37L39 36L40 36L40 35L41 35L41 34L45 34L45 32L46 32L46 31L44 31L44 33L42 33L42 32L41 32L41 33L39 33L39 34L36 34L36 33L38 33L38 32L36 32L36 33L35 33L35 34L31 34L31 33L32 33L32 32L31 32L31 31L30 31L30 33L29 33L29 32L27 32L27 31L26 31L26 32L27 32L27 33L25 33L25 32L24 32L24 31L23 31L23 29ZM39 29L39 30L40 30L40 29ZM12 30L12 31L13 31L13 32L14 32L14 31L13 31L13 30ZM0 31L0 33L1 33L1 34L0 34L0 35L1 35L1 34L2 34L2 33L1 33L1 31ZM16 32L16 33L18 33L18 32ZM49 33L49 34L50 34L50 33ZM35 34L35 36L36 36L36 34ZM4 35L4 36L5 36L5 35ZM9 35L9 36L10 36L10 35ZM33 35L33 36L34 36L34 35ZM37 35L37 37L38 37L38 38L37 38L37 39L35 39L35 40L34 40L34 41L33 41L33 40L32 40L32 41L31 41L31 42L32 42L32 41L33 41L33 42L36 42L36 43L35 43L35 44L36 44L36 43L37 43L37 41L35 41L35 40L38 40L38 44L37 44L37 45L38 45L38 44L39 44L39 41L41 41L41 40L38 40L38 39L40 39L40 38L39 38L39 37L38 37L38 36L39 36L39 35ZM13 36L13 37L14 37L14 36ZM16 38L16 40L17 40L17 41L18 41L18 42L20 42L20 43L19 43L19 44L16 44L16 43L15 43L15 42L16 42L16 41L15 41L15 42L14 42L14 41L13 41L13 43L14 43L14 45L12 45L12 44L11 44L11 46L10 46L10 47L9 47L9 45L10 45L10 44L9 44L9 45L8 45L8 47L9 47L9 48L8 48L8 53L9 53L9 52L11 52L11 53L20 53L20 52L19 52L19 51L20 51L20 50L19 50L19 49L20 49L20 48L19 48L19 47L20 47L20 44L22 44L22 43L21 43L21 41L22 41L22 40L21 40L21 41L18 41L18 40L17 40L17 39L18 39L18 38ZM4 39L4 40L3 40L3 41L2 41L2 40L1 40L1 41L2 41L2 43L3 43L3 41L4 41L4 42L7 42L7 41L4 41L4 40L5 40L5 39ZM6 39L6 40L7 40L7 39ZM12 39L12 40L14 40L14 39ZM19 39L19 40L20 40L20 39ZM52 39L52 40L53 40L53 39ZM45 40L45 41L48 41L48 40ZM50 43L50 44L49 44L49 47L50 47L50 44L51 44L51 43ZM6 44L6 45L7 45L7 44ZM15 45L15 46L14 46L14 47L11 47L11 50L12 50L12 51L13 51L13 52L16 52L16 51L13 51L13 49L14 49L14 47L15 47L15 46L17 46L17 47L18 47L18 45ZM25 45L25 48L28 48L28 45ZM45 45L45 48L48 48L48 45ZM26 46L26 47L27 47L27 46ZM46 46L46 47L47 47L47 46ZM31 47L31 49L32 49L32 47ZM16 48L16 49L15 49L15 50L16 50L16 49L18 49L18 48ZM26 49L26 50L27 50L27 49ZM39 49L39 50L41 50L41 49ZM47 49L47 50L51 50L51 51L49 51L49 52L51 52L51 51L52 51L52 50L51 50L51 49ZM17 50L17 51L19 51L19 50ZM29 50L29 51L30 51L30 50ZM26 51L26 52L27 52L27 51ZM0 0L0 7L7 7L7 0ZM1 1L1 6L6 6L6 1ZM2 2L2 5L5 5L5 2ZM46 0L46 7L53 7L53 0ZM47 1L47 6L52 6L52 1ZM48 2L48 5L51 5L51 2ZM0 46L0 53L7 53L7 46ZM1 47L1 52L6 52L6 47ZM2 48L2 51L5 51L5 48Z" fill="#000000"/></g></g></svg>
