<?xml version="1.0" encoding="UTF-8"?>
<svg xmlns="http://www.w3.org/2000/svg" version="1.1" width="356" height="356" viewBox="0 0 356 356"><rect x="0" y="0" width="356" height="356" fill="#ffffff"/><g transform="scale(6.717)"><g transform="translate(0,0)"><path fill-rule="evenodd" d="M8 0L8 1L9 1L9 0ZM16 0L16 2L15 2L15 1L13 1L13 3L11 3L11 2L12 2L12 1L11 1L11 2L10 2L10 3L9 3L9 2L8 2L8 5L9 5L9 6L8 6L8 7L9 7L9 6L10 6L10 8L8 8L8 10L6 10L6 9L7 9L7 8L6 8L6 9L4 9L4 8L0 8L0 10L2 10L2 12L1 12L1 11L0 11L0 13L4 13L4 10L5 10L5 12L6 12L6 13L5 13L5 14L1 14L1 15L2 15L2 16L1 16L1 17L2 17L2 19L1 19L1 18L0 18L0 20L1 20L1 21L0 21L0 29L1 29L1 31L2 31L2 32L0 32L0 35L1 35L1 36L0 36L0 37L1 37L1 38L2 38L2 37L3 37L3 38L4 38L4 39L3 39L3 40L4 40L4 41L2 41L2 40L1 40L1 39L0 39L0 40L1 40L1 41L2 41L2 42L0 42L0 43L1 43L1 44L3 44L3 45L4 45L4 44L3 44L3 43L7 43L7 42L8 42L8 41L10 41L10 43L8 43L8 44L6 44L6 45L8 45L8 46L11 46L11 49L12 49L12 51L13 51L13 53L14 53L14 52L15 52L15 51L13 51L13 50L17 50L17 49L16 49L16 48L13 48L13 47L14 47L14 45L15 45L15 44L13 44L13 47L12 47L12 46L11 46L11 45L9 45L9 44L11 44L11 43L14 43L14 42L13 42L13 41L12 41L12 40L14 40L14 41L16 41L16 42L17 42L17 41L16 41L16 40L17 40L17 39L19 39L19 40L18 40L18 41L19 41L19 40L20 40L20 43L17 43L17 45L18 45L18 46L16 46L16 47L17 47L17 48L18 48L18 49L20 49L20 50L21 50L21 52L19 52L19 50L18 50L18 51L16 51L16 53L17 53L17 52L19 52L19 53L22 53L22 51L23 51L23 52L25 52L25 53L26 53L26 51L27 51L27 53L28 53L28 51L27 51L27 49L28 49L28 50L29 50L29 47L31 47L31 44L33 44L33 45L32 45L32 46L33 46L33 47L34 47L34 48L33 48L33 49L32 49L32 48L31 48L31 49L32 49L32 50L31 50L31 51L32 51L32 52L29 52L29 53L34 53L34 52L35 52L35 51L36 51L36 52L37 52L37 51L38 51L38 52L39 52L39 53L40 53L40 52L41 52L41 51L40 51L40 50L41 50L41 49L39 49L39 48L41 48L41 46L44 46L44 50L45 50L45 49L47 49L47 50L46 50L46 51L48 51L48 52L46 52L46 53L48 53L48 52L49 52L49 53L50 53L50 51L48 51L48 50L50 50L50 49L51 49L51 48L52 48L52 49L53 49L53 47L52 47L52 46L51 46L51 45L50 45L50 44L51 44L51 43L49 43L49 44L47 44L47 43L48 43L48 40L50 40L50 41L52 41L52 42L53 42L53 41L52 41L52 40L53 40L53 38L51 38L51 39L52 39L52 40L50 40L50 39L47 39L47 36L49 36L49 35L52 35L52 37L53 37L53 35L52 35L52 33L51 33L51 32L52 32L52 29L53 29L53 28L52 28L52 29L51 29L51 28L50 28L50 27L49 27L49 26L51 26L51 27L53 27L53 26L51 26L51 25L52 25L52 24L50 24L50 25L49 25L49 24L46 24L46 22L45 22L45 24L44 24L44 29L43 29L43 27L42 27L42 29L41 29L41 30L42 30L42 32L43 32L43 33L41 33L41 32L39 32L39 31L40 31L40 30L39 30L39 31L38 31L38 30L37 30L37 31L36 31L36 32L37 32L37 33L35 33L35 34L34 34L34 35L35 35L35 37L36 37L36 38L35 38L35 39L34 39L34 37L31 37L31 39L30 39L30 41L31 41L31 43L30 43L30 42L29 42L29 41L28 41L28 40L26 40L26 38L25 38L25 37L26 37L26 35L27 35L27 39L28 39L28 36L29 36L29 37L30 37L30 35L29 35L29 34L31 34L31 35L32 35L32 36L33 36L33 35L32 35L32 34L31 34L31 33L29 33L29 32L30 32L30 29L29 29L29 28L31 28L31 29L32 29L32 30L36 30L36 27L37 27L37 28L39 28L39 29L40 29L40 28L39 28L39 27L37 27L37 26L40 26L40 27L41 27L41 26L40 26L40 22L41 22L41 21L42 21L42 23L44 23L44 22L43 22L43 21L42 21L42 20L44 20L44 21L48 21L48 22L49 22L49 23L52 23L52 22L51 22L51 17L49 17L49 19L47 19L47 18L48 18L48 15L50 15L50 14L51 14L51 16L52 16L52 18L53 18L53 14L51 14L51 13L52 13L52 10L50 10L50 9L51 9L51 8L48 8L48 9L49 9L49 10L50 10L50 11L51 11L51 12L50 12L50 13L49 13L49 11L46 11L46 12L45 12L45 13L44 13L44 11L45 11L45 10L44 10L44 9L46 9L46 8L44 8L44 9L43 9L43 3L44 3L44 4L45 4L45 3L44 3L44 1L43 1L43 0L41 0L41 2L40 2L40 3L41 3L41 4L40 4L40 5L39 5L39 4L37 4L37 3L34 3L34 2L39 2L39 1L38 1L38 0L35 0L35 1L33 1L33 2L32 2L32 3L33 3L33 4L31 4L31 6L30 6L30 5L29 5L29 3L28 3L28 4L27 4L27 3L26 3L26 4L25 4L25 1L26 1L26 0L23 0L23 2L22 2L22 1L19 1L19 0ZM27 0L27 2L28 2L28 0ZM29 0L29 1L32 1L32 0ZM17 1L17 2L16 2L16 3L13 3L13 4L14 4L14 6L13 6L13 7L14 7L14 6L15 6L15 8L14 8L14 10L13 10L13 8L12 8L12 4L11 4L11 3L10 3L10 4L9 4L9 5L10 5L10 4L11 4L11 8L10 8L10 9L9 9L9 10L10 10L10 11L9 11L9 12L10 12L10 11L11 11L11 12L12 12L12 10L13 10L13 11L14 11L14 10L15 10L15 8L17 8L17 7L18 7L18 6L17 6L17 4L16 4L16 3L17 3L17 2L19 2L19 1ZM20 2L20 3L21 3L21 5L19 5L19 8L20 8L20 9L21 9L21 7L22 7L22 4L23 4L23 7L24 7L24 4L23 4L23 3L22 3L22 2ZM41 2L41 3L43 3L43 2ZM34 4L34 5L33 5L33 7L32 7L32 6L31 6L31 7L30 7L30 6L29 6L29 8L30 8L30 9L33 9L33 10L32 10L32 14L31 14L31 12L30 12L30 10L29 10L29 9L28 9L28 11L29 11L29 13L28 13L28 12L27 12L27 11L26 11L26 9L25 9L25 10L24 10L24 15L25 15L25 14L26 14L26 16L25 16L25 18L24 18L24 21L23 21L23 22L24 22L24 21L29 21L29 20L30 20L30 21L34 21L34 22L35 22L35 23L34 23L34 24L35 24L35 23L36 23L36 24L37 24L37 25L34 25L34 26L35 26L35 27L34 27L34 28L33 28L33 27L31 27L31 28L33 28L33 29L34 29L34 28L35 28L35 27L36 27L36 26L37 26L37 25L39 25L39 23L38 23L38 22L39 22L39 20L40 20L40 19L41 19L41 20L42 20L42 19L43 19L43 18L44 18L44 19L45 19L45 15L46 15L46 14L47 14L47 15L48 15L48 12L47 12L47 13L46 13L46 14L44 14L44 15L43 15L43 13L42 13L42 12L43 12L43 10L41 10L41 9L42 9L42 8L41 8L41 9L40 9L40 8L39 8L39 9L38 9L38 10L39 10L39 11L38 11L38 13L35 13L35 12L36 12L36 11L37 11L37 7L38 7L38 6L39 6L39 7L40 7L40 6L41 6L41 7L42 7L42 6L41 6L41 5L40 5L40 6L39 6L39 5L37 5L37 4ZM25 5L25 8L28 8L28 5ZM35 5L35 6L34 6L34 7L35 7L35 11L36 11L36 7L37 7L37 5ZM16 6L16 7L17 7L17 6ZM20 6L20 7L21 7L21 6ZM26 6L26 7L27 7L27 6ZM35 6L35 7L36 7L36 6ZM44 6L44 7L45 7L45 6ZM11 8L11 9L10 9L10 10L11 10L11 9L12 9L12 8ZM23 8L23 9L22 9L22 10L19 10L19 11L18 11L18 12L19 12L19 13L20 13L20 11L21 11L21 13L23 13L23 12L22 12L22 10L23 10L23 9L24 9L24 8ZM33 8L33 9L34 9L34 8ZM52 8L52 9L53 9L53 8ZM16 9L16 11L15 11L15 12L13 12L13 13L14 13L14 14L11 14L11 13L10 13L10 14L9 14L9 13L8 13L8 11L6 11L6 12L7 12L7 13L6 13L6 14L5 14L5 16L4 16L4 15L3 15L3 16L2 16L2 17L5 17L5 19L6 19L6 20L7 20L7 21L6 21L6 22L5 22L5 20L4 20L4 21L1 21L1 25L3 25L3 26L1 26L1 27L2 27L2 29L3 29L3 30L2 30L2 31L3 31L3 33L2 33L2 34L1 34L1 35L3 35L3 37L5 37L5 38L9 38L9 39L10 39L10 38L11 38L11 37L12 37L12 38L14 38L14 40L16 40L16 39L17 39L17 37L16 37L16 39L15 39L15 38L14 38L14 37L15 37L15 35L16 35L16 36L18 36L18 35L19 35L19 34L21 34L21 35L20 35L20 36L21 36L21 37L22 37L22 38L20 38L20 37L19 37L19 38L20 38L20 40L21 40L21 41L25 41L25 43L24 43L24 42L23 42L23 45L22 45L22 46L24 46L24 44L25 44L25 43L26 43L26 44L29 44L29 45L30 45L30 43L28 43L28 41L27 41L27 42L26 42L26 41L25 41L25 38L24 38L24 37L23 37L23 36L24 36L24 35L23 35L23 36L22 36L22 34L23 34L23 32L24 32L24 34L25 34L25 33L26 33L26 34L27 34L27 35L28 35L28 34L27 34L27 31L28 31L28 32L29 32L29 30L28 30L28 29L26 29L26 31L24 31L24 28L23 28L23 27L24 27L24 26L23 26L23 25L24 25L24 24L27 24L27 22L25 22L25 23L24 23L24 24L22 24L22 25L21 25L21 24L18 24L18 22L17 22L17 20L14 20L14 21L15 21L15 23L14 23L14 22L12 22L12 20L13 20L13 19L12 19L12 18L13 18L13 17L12 17L12 15L13 15L13 16L14 16L14 19L15 19L15 17L16 17L16 18L17 18L17 19L18 19L18 18L19 18L19 16L20 16L20 15L23 15L23 14L17 14L17 13L16 13L16 14L17 14L17 15L19 15L19 16L18 16L18 18L17 18L17 16L16 16L16 15L15 15L15 16L14 16L14 14L15 14L15 12L16 12L16 11L17 11L17 10L18 10L18 9ZM40 11L40 12L42 12L42 11ZM25 12L25 13L26 13L26 12ZM33 12L33 14L34 14L34 15L32 15L32 16L31 16L31 18L32 18L32 20L35 20L35 22L38 22L38 21L36 21L36 19L37 19L37 18L36 18L36 19L35 19L35 17L34 17L34 16L37 16L37 17L38 17L38 15L40 15L40 13L38 13L38 15L37 15L37 14L34 14L34 12ZM6 14L6 15L7 15L7 16L5 16L5 17L7 17L7 18L6 18L6 19L7 19L7 20L8 20L8 21L7 21L7 22L6 22L6 23L7 23L7 24L5 24L5 22L4 22L4 27L3 27L3 29L5 29L5 30L6 30L6 31L4 31L4 30L3 30L3 31L4 31L4 33L3 33L3 35L4 35L4 34L6 34L6 35L7 35L7 34L6 34L6 33L7 33L7 32L8 32L8 36L5 36L5 37L8 37L8 36L9 36L9 38L10 38L10 35L11 35L11 36L12 36L12 37L14 37L14 35L15 35L15 34L14 34L14 35L13 35L13 34L12 34L12 35L11 35L11 33L12 33L12 32L10 32L10 29L13 29L13 27L14 27L14 30L11 30L11 31L15 31L15 30L17 30L17 28L18 28L18 24L17 24L17 26L15 26L15 25L13 25L13 23L12 23L12 22L10 22L10 20L9 20L9 18L10 18L10 19L11 19L11 20L12 20L12 19L11 19L11 18L10 18L10 17L11 17L11 14L10 14L10 15L9 15L9 14L8 14L8 15L7 15L7 14ZM27 14L27 15L29 15L29 14ZM30 14L30 15L31 15L31 14ZM8 15L8 16L7 16L7 17L8 17L8 16L9 16L9 17L10 17L10 16L9 16L9 15ZM21 16L21 17L20 17L20 19L19 19L19 20L18 20L18 21L19 21L19 20L20 20L20 22L21 22L21 23L22 23L22 22L21 22L21 20L20 20L20 19L21 19L21 17L22 17L22 18L23 18L23 17L24 17L24 16ZM26 16L26 17L29 17L29 19L30 19L30 20L31 20L31 19L30 19L30 17L29 17L29 16ZM39 16L39 18L38 18L38 20L39 20L39 19L40 19L40 16ZM41 16L41 17L43 17L43 16ZM46 16L46 17L47 17L47 16ZM7 18L7 19L8 19L8 18ZM41 18L41 19L42 19L42 18ZM22 19L22 20L23 20L23 19ZM25 19L25 20L28 20L28 19ZM49 19L49 20L48 20L48 21L50 21L50 19ZM52 19L52 21L53 21L53 19ZM8 21L8 22L9 22L9 21ZM2 22L2 24L3 24L3 22ZM16 22L16 23L17 23L17 22ZM28 22L28 24L29 24L29 26L31 26L31 25L30 25L30 24L31 24L31 22ZM32 22L32 23L33 23L33 22ZM8 23L8 24L9 24L9 25L10 25L10 24L11 24L11 25L12 25L12 26L13 26L13 25L12 25L12 23ZM29 23L29 24L30 24L30 23ZM32 24L32 25L33 25L33 24ZM41 24L41 25L43 25L43 24ZM5 25L5 28L8 28L8 25ZM19 25L19 30L18 30L18 31L19 31L19 30L20 30L20 28L21 28L21 30L22 30L22 32L21 32L21 31L20 31L20 32L21 32L21 34L22 34L22 32L23 32L23 29L22 29L22 27L23 27L23 26L20 26L20 25ZM25 25L25 28L28 28L28 25ZM45 25L45 28L48 28L48 25ZM6 26L6 27L7 27L7 26ZM10 26L10 27L9 27L9 28L10 28L10 27L11 27L11 26ZM14 26L14 27L15 27L15 26ZM26 26L26 27L27 27L27 26ZM46 26L46 27L47 27L47 26ZM16 27L16 28L15 28L15 29L16 29L16 28L17 28L17 27ZM49 28L49 29L48 29L48 30L50 30L50 31L51 31L51 29L50 29L50 28ZM6 29L6 30L8 30L8 31L9 31L9 29ZM42 29L42 30L43 30L43 29ZM44 29L44 33L43 33L43 36L41 36L41 35L42 35L42 34L40 34L40 38L38 38L38 39L37 39L37 38L36 38L36 39L35 39L35 40L33 40L33 41L38 41L38 42L40 42L40 44L45 44L45 42L44 42L44 43L41 43L41 40L43 40L43 41L42 41L42 42L43 42L43 41L45 41L45 40L46 40L46 43L47 43L47 40L46 40L46 39L45 39L45 38L46 38L46 37L45 37L45 36L47 36L47 35L48 35L48 34L47 34L47 33L46 33L46 35L45 35L45 36L44 36L44 33L45 33L45 31L46 31L46 32L47 32L47 30L45 30L45 29ZM6 31L6 32L7 32L7 31ZM16 31L16 35L17 35L17 34L19 34L19 33L17 33L17 31ZM32 31L32 32L33 32L33 31ZM34 31L34 32L35 32L35 31ZM9 32L9 33L10 33L10 32ZM14 32L14 33L15 33L15 32ZM48 32L48 33L50 33L50 32ZM38 33L38 34L35 34L35 35L36 35L36 36L37 36L37 37L39 37L39 33ZM9 34L9 35L10 35L10 34ZM43 37L43 39L44 39L44 40L45 40L45 39L44 39L44 37ZM22 38L22 39L23 39L23 40L24 40L24 39L23 39L23 38ZM32 38L32 39L31 39L31 40L32 40L32 39L33 39L33 38ZM6 39L6 40L5 40L5 41L4 41L4 42L5 42L5 41L6 41L6 42L7 42L7 41L8 41L8 39ZM11 39L11 40L10 40L10 41L11 41L11 42L12 42L12 41L11 41L11 40L12 40L12 39ZM36 39L36 40L37 40L37 39ZM38 39L38 41L40 41L40 39ZM6 40L6 41L7 41L7 40ZM2 42L2 43L3 43L3 42ZM32 42L32 43L33 43L33 42ZM35 42L35 43L34 43L34 45L33 45L33 46L34 46L34 47L35 47L35 48L36 48L36 46L35 46L35 44L36 44L36 45L38 45L38 47L37 47L37 49L36 49L36 51L37 51L37 49L38 49L38 48L39 48L39 47L40 47L40 46L39 46L39 43L38 43L38 44L37 44L37 42ZM20 43L20 44L18 44L18 45L20 45L20 46L21 46L21 44L22 44L22 43ZM52 43L52 44L53 44L53 43ZM25 45L25 48L28 48L28 45ZM45 45L45 48L48 48L48 45ZM49 45L49 48L51 48L51 46L50 46L50 45ZM18 46L18 48L19 48L19 46ZM26 46L26 47L27 47L27 46ZM46 46L46 47L47 47L47 46ZM9 47L9 48L10 48L10 47ZM20 47L20 49L21 49L21 50L24 50L24 51L26 51L26 50L24 50L24 48L23 48L23 47ZM12 48L12 49L13 49L13 48ZM22 48L22 49L23 49L23 48ZM8 49L8 53L9 53L9 51L11 51L11 50L9 50L9 49ZM34 49L34 50L33 50L33 51L34 51L34 50L35 50L35 49ZM51 50L51 53L52 53L52 50ZM39 51L39 52L40 52L40 51ZM42 51L42 52L44 52L44 53L45 53L45 52L44 52L44 51ZM11 52L11 53L12 53L12 52ZM0 0L0 7L7 7L7 0ZM1 1L1 6L6 6L6 1ZM2 2L2 5L5 5L5 2ZM46 0L46 7L53 7L53 0ZM47 1L47 6L52 6L52 1ZM48 2L48 5L51 5L51 2ZM0 46L0 53L7 53L7 46ZM1 47L1 52L6 52L6 47ZM2 48L2 51L5 51L5 48Z" fill="#000000"/></g></g></svg>
