<?xml version="1.0" encoding="UTF-8"?>
<svg xmlns="http://www.w3.org/2000/svg" version="1.1" width="356" height="356" viewBox="0 0 356 356"><rect x="0" y="0" width="356" height="356" fill="#ffffff"/><g transform="scale(6.717)"><g transform="translate(0,0)"><path fill-rule="evenodd" d="M9 0L9 1L8 1L8 2L9 2L9 3L8 3L8 4L9 4L9 5L8 5L8 7L9 7L9 8L6 8L6 9L5 9L5 8L0 8L0 13L1 13L1 14L0 14L0 18L1 18L1 19L2 19L2 20L0 20L0 25L2 25L2 24L4 24L4 25L3 25L3 26L4 26L4 27L2 27L2 26L0 26L0 27L1 27L1 28L0 28L0 31L1 31L1 32L2 32L2 33L3 33L3 35L2 35L2 34L1 34L1 33L0 33L0 34L1 34L1 35L2 35L2 36L3 36L3 37L4 37L4 36L6 36L6 37L9 37L9 38L10 38L10 37L9 37L9 36L8 36L8 35L10 35L10 36L11 36L11 39L13 39L13 40L14 40L14 39L13 39L13 37L14 37L14 36L13 36L13 37L12 37L12 35L11 35L11 34L10 34L10 33L9 33L9 29L10 29L10 31L11 31L11 30L13 30L13 31L14 31L14 32L12 32L12 34L13 34L13 33L16 33L16 34L15 34L15 35L16 35L16 36L15 36L15 37L21 37L21 39L22 39L22 37L21 37L21 36L23 36L23 37L24 37L24 36L25 36L25 38L24 38L24 39L23 39L23 42L24 42L24 41L26 41L26 40L27 40L27 39L26 39L26 36L25 36L25 35L26 35L26 32L25 32L25 33L23 33L23 29L25 29L25 30L24 30L24 31L26 31L26 29L27 29L27 30L28 30L28 29L30 29L30 30L29 30L29 32L27 32L27 35L29 35L29 36L30 36L30 37L27 37L27 38L28 38L28 39L29 39L29 42L28 42L28 43L31 43L31 44L27 44L27 42L26 42L26 44L24 44L24 47L23 47L23 45L22 45L22 47L21 47L21 48L22 48L22 49L21 49L21 51L23 51L23 53L25 53L25 52L26 52L26 51L29 51L29 50L31 50L31 49L32 49L32 46L31 46L31 45L32 45L32 42L33 42L33 45L38 45L38 43L35 43L35 42L33 42L33 41L34 41L34 40L35 40L35 41L36 41L36 42L38 42L38 41L37 41L37 40L35 40L35 39L38 39L38 37L39 37L39 36L42 36L42 35L43 35L43 36L45 36L45 34L46 34L46 33L44 33L44 35L43 35L43 32L42 32L42 31L43 31L43 28L42 28L42 27L44 27L44 30L47 30L47 31L44 31L44 32L47 32L47 36L48 36L48 35L50 35L50 34L52 34L52 32L53 32L53 31L51 31L51 32L50 32L50 27L51 27L51 26L52 26L52 25L53 25L53 23L51 23L51 24L50 24L50 22L52 22L52 20L53 20L53 19L51 19L51 20L47 20L47 18L49 18L49 19L50 19L50 17L51 17L51 18L52 18L52 17L53 17L53 15L51 15L51 16L50 16L50 17L49 17L49 16L48 16L48 15L49 15L49 14L50 14L50 13L49 13L49 12L50 12L50 10L51 10L51 9L52 9L52 8L51 8L51 9L50 9L50 8L49 8L49 10L47 10L47 12L48 12L48 13L47 13L47 14L48 14L48 15L44 15L44 13L41 13L41 14L42 14L42 15L44 15L44 17L43 17L43 16L41 16L41 15L40 15L40 14L38 14L38 13L39 13L39 12L40 12L40 10L36 10L36 9L37 9L37 5L38 5L38 3L41 3L41 1L42 1L42 2L43 2L43 3L42 3L42 4L41 4L41 5L40 5L40 7L39 7L39 6L38 6L38 9L39 9L39 8L41 8L41 9L42 9L42 10L41 10L41 11L42 11L42 12L43 12L43 11L46 11L46 10L44 10L44 8L45 8L45 9L46 9L46 8L45 8L45 6L44 6L44 7L43 7L43 3L44 3L44 4L45 4L45 3L44 3L44 1L43 1L43 0L39 0L39 1L40 1L40 2L36 2L36 3L35 3L35 1L38 1L38 0L35 0L35 1L34 1L34 3L35 3L35 4L36 4L36 5L34 5L34 4L33 4L33 5L34 5L34 7L33 7L33 6L32 6L32 8L31 8L31 5L32 5L32 4L31 4L31 3L33 3L33 1L32 1L32 0L28 0L28 1L29 1L29 2L27 2L27 3L24 3L24 2L26 2L26 1L27 1L27 0L26 0L26 1L25 1L25 0L23 0L23 2L21 2L21 3L18 3L18 2L20 2L20 1L19 1L19 0L16 0L16 1L15 1L15 2L14 2L14 1L12 1L12 0L11 0L11 1L10 1L10 0ZM9 1L9 2L10 2L10 3L9 3L9 4L10 4L10 5L9 5L9 7L10 7L10 5L11 5L11 7L12 7L12 6L13 6L13 7L14 7L14 8L11 8L11 9L12 9L12 10L11 10L11 12L12 12L12 13L10 13L10 16L9 16L9 15L8 15L8 16L7 16L7 15L5 15L5 16L7 16L7 17L5 17L5 19L4 19L4 21L3 21L3 20L2 20L2 21L1 21L1 22L4 22L4 21L5 21L5 22L7 22L7 21L8 21L8 23L9 23L9 25L10 25L10 26L9 26L9 28L11 28L11 26L12 26L12 27L13 27L13 29L15 29L15 31L18 31L18 29L15 29L15 28L14 28L14 27L16 27L16 28L17 28L17 26L18 26L18 25L21 25L21 24L22 24L22 26L21 26L21 27L22 27L22 28L21 28L21 29L19 29L19 32L20 32L20 33L19 33L19 34L20 34L20 35L17 35L17 36L21 36L21 33L22 33L22 34L23 34L23 35L25 35L25 34L23 34L23 33L22 33L22 32L21 32L21 31L22 31L22 29L23 29L23 28L24 28L24 25L23 25L23 23L24 23L24 22L25 22L25 23L26 23L26 24L28 24L28 23L29 23L29 25L31 25L31 24L32 24L32 26L30 26L30 27L31 27L31 28L32 28L32 30L30 30L30 31L31 31L31 32L29 32L29 33L31 33L31 34L35 34L35 35L36 35L36 34L37 34L37 33L36 33L36 32L37 32L37 31L38 31L38 30L39 30L39 29L42 29L42 28L41 28L41 27L42 27L42 26L40 26L40 25L41 25L41 24L43 24L43 25L44 25L44 22L45 22L45 24L46 24L46 23L47 23L47 24L48 24L48 23L49 23L49 21L44 21L44 20L43 20L43 19L42 19L42 18L40 18L40 17L41 17L41 16L39 16L39 15L38 15L38 14L37 14L37 13L38 13L38 12L39 12L39 11L38 11L38 12L37 12L37 13L36 13L36 15L37 15L37 16L39 16L39 17L38 17L38 19L39 19L39 20L38 20L38 22L37 22L37 21L36 21L36 22L37 22L37 24L38 24L38 26L35 26L35 25L33 25L33 24L34 24L34 23L33 23L33 24L32 24L32 23L29 23L29 22L27 22L27 23L26 23L26 22L25 22L25 20L22 20L22 19L25 19L25 18L26 18L26 21L27 21L27 20L29 20L29 19L30 19L30 18L26 18L26 17L28 17L28 16L27 16L27 15L30 15L30 14L29 14L29 13L28 13L28 14L27 14L27 11L30 11L30 12L31 12L31 11L30 11L30 10L29 10L29 9L30 9L30 8L29 8L29 9L28 9L28 10L27 10L27 9L26 9L26 10L27 10L27 11L26 11L26 13L24 13L24 12L22 12L22 11L21 11L21 12L22 12L22 13L20 13L20 12L19 12L19 13L15 13L15 12L12 12L12 11L13 11L13 9L14 9L14 11L16 11L16 12L17 12L17 11L20 11L20 10L18 10L18 9L22 9L22 10L23 10L23 11L24 11L24 10L23 10L23 9L24 9L24 8L22 8L22 6L23 6L23 7L24 7L24 5L22 5L22 6L21 6L21 4L23 4L23 3L21 3L21 4L20 4L20 6L19 6L19 4L16 4L16 2L15 2L15 3L13 3L13 2L12 2L12 3L13 3L13 4L16 4L16 5L18 5L18 6L17 6L17 7L16 7L16 6L15 6L15 5L12 5L12 4L10 4L10 3L11 3L11 2L10 2L10 1ZM31 1L31 2L32 2L32 1ZM29 2L29 3L30 3L30 2ZM27 3L27 4L28 4L28 3ZM25 5L25 8L28 8L28 5ZM29 5L29 7L30 7L30 5ZM14 6L14 7L15 7L15 8L16 8L16 7L15 7L15 6ZM18 6L18 7L19 7L19 6ZM20 6L20 8L21 8L21 6ZM26 6L26 7L27 7L27 6ZM35 6L35 7L34 7L34 8L32 8L32 9L33 9L33 10L34 10L34 12L33 12L33 11L32 11L32 13L31 13L31 16L29 16L29 17L31 17L31 19L32 19L32 17L33 17L33 18L35 18L35 20L30 20L30 21L32 21L32 22L35 22L35 20L36 20L36 17L35 17L35 16L32 16L32 15L35 15L35 13L34 13L34 12L35 12L35 11L36 11L36 10L35 10L35 9L34 9L34 8L36 8L36 6ZM41 6L41 7L42 7L42 6ZM17 8L17 9L18 9L18 8ZM47 8L47 9L48 9L48 8ZM3 9L3 10L5 10L5 9ZM6 9L6 10L8 10L8 9ZM9 9L9 11L10 11L10 9ZM15 9L15 10L16 10L16 9ZM42 10L42 11L43 11L43 10ZM1 11L1 13L2 13L2 14L3 14L3 12L4 12L4 13L5 13L5 12L4 12L4 11ZM6 11L6 12L8 12L8 13L6 13L6 14L9 14L9 12L8 12L8 11ZM48 11L48 12L49 12L49 11ZM52 11L52 12L51 12L51 14L53 14L53 13L52 13L52 12L53 12L53 11ZM45 12L45 13L46 13L46 12ZM13 13L13 15L12 15L12 16L13 16L13 17L11 17L11 16L10 16L10 17L11 17L11 18L12 18L12 19L10 19L10 18L8 18L8 17L7 17L7 18L6 18L6 19L5 19L5 21L7 21L7 20L9 20L9 19L10 19L10 21L9 21L9 22L10 22L10 23L11 23L11 24L10 24L10 25L11 25L11 24L12 24L12 25L13 25L13 26L14 26L14 25L13 25L13 24L14 24L14 23L13 23L13 24L12 24L12 23L11 23L11 22L10 22L10 21L11 21L11 20L12 20L12 19L13 19L13 20L14 20L14 18L13 18L13 17L16 17L16 18L15 18L15 19L16 19L16 20L15 20L15 21L12 21L12 22L15 22L15 24L17 24L17 25L18 25L18 24L17 24L17 23L18 23L18 22L19 22L19 23L20 23L20 24L21 24L21 23L23 23L23 22L22 22L22 21L21 21L21 23L20 23L20 21L19 21L19 20L17 20L17 18L18 18L18 19L20 19L20 18L19 18L19 17L20 17L20 16L21 16L21 17L22 17L22 18L21 18L21 19L22 19L22 18L25 18L25 16L26 16L26 15L27 15L27 14L25 14L25 15L23 15L23 13L22 13L22 14L21 14L21 15L20 15L20 13L19 13L19 14L18 14L18 15L16 15L16 16L15 16L15 13ZM32 13L32 14L33 14L33 13ZM48 13L48 14L49 14L49 13ZM1 15L1 16L3 16L3 18L2 18L2 19L3 19L3 18L4 18L4 16L3 16L3 15ZM13 15L13 16L14 16L14 15ZM19 15L19 16L20 16L20 15ZM16 16L16 17L18 17L18 16ZM22 16L22 17L23 17L23 16ZM31 16L31 17L32 17L32 16ZM45 16L45 17L44 17L44 18L47 18L47 17L48 17L48 16ZM51 16L51 17L52 17L52 16ZM7 18L7 19L6 19L6 20L7 20L7 19L8 19L8 18ZM39 18L39 19L40 19L40 20L39 20L39 21L40 21L40 20L42 20L42 19L40 19L40 18ZM15 21L15 22L17 22L17 21ZM41 21L41 22L39 22L39 23L38 23L38 24L39 24L39 25L40 25L40 24L41 24L41 22L44 22L44 21ZM4 23L4 24L5 24L5 23ZM6 23L6 24L7 24L7 23ZM39 23L39 24L40 24L40 23ZM49 24L49 27L50 27L50 26L51 26L51 25L50 25L50 24ZM5 25L5 28L8 28L8 25ZM15 25L15 26L16 26L16 25ZM25 25L25 28L28 28L28 25ZM45 25L45 28L48 28L48 25ZM6 26L6 27L7 27L7 26ZM19 26L19 27L18 27L18 28L19 28L19 27L20 27L20 26ZM22 26L22 27L23 27L23 26ZM26 26L26 27L27 27L27 26ZM32 26L32 27L33 27L33 29L35 29L35 30L36 30L36 31L34 31L34 30L32 30L32 31L33 31L33 33L35 33L35 34L36 34L36 33L35 33L35 32L36 32L36 31L37 31L37 30L38 30L38 29L39 29L39 27L40 27L40 26L38 26L38 27L37 27L37 28L36 28L36 27L33 27L33 26ZM46 26L46 27L47 27L47 26ZM1 28L1 31L2 31L2 32L3 32L3 33L4 33L4 34L5 34L5 35L6 35L6 36L7 36L7 35L6 35L6 34L7 34L7 33L6 33L6 32L8 32L8 30L7 30L7 29L6 29L6 30L7 30L7 31L5 31L5 30L4 30L4 32L3 32L3 30L2 30L2 28ZM37 28L37 29L38 29L38 28ZM51 28L51 30L53 30L53 28ZM41 30L41 31L42 31L42 30ZM39 31L39 32L38 32L38 34L39 34L39 35L41 35L41 32L40 32L40 31ZM47 31L47 32L48 32L48 33L49 33L49 34L50 34L50 33L49 33L49 31ZM16 32L16 33L18 33L18 32ZM31 32L31 33L32 33L32 32ZM8 33L8 34L9 34L9 33ZM37 35L37 37L36 37L36 38L37 38L37 37L38 37L38 35ZM51 35L51 36L49 36L49 37L47 37L47 38L48 38L48 39L47 39L47 40L48 40L48 41L47 41L47 42L49 42L49 40L50 40L50 38L51 38L51 36L52 36L52 37L53 37L53 36L52 36L52 35ZM32 36L32 39L31 39L31 40L30 40L30 41L31 41L31 42L32 42L32 41L33 41L33 40L32 40L32 39L33 39L33 38L35 38L35 37L33 37L33 36ZM0 37L0 38L1 38L1 37ZM41 37L41 38L39 38L39 39L41 39L41 42L40 42L40 43L41 43L41 44L42 44L42 45L39 45L39 46L37 46L37 47L36 47L36 46L35 46L35 47L36 47L36 48L34 48L34 46L33 46L33 49L35 49L35 50L36 50L36 52L35 52L35 51L34 51L34 50L32 50L32 51L34 51L34 52L35 52L35 53L40 53L40 52L41 52L41 53L44 53L44 49L45 49L45 50L46 50L46 51L48 51L48 53L51 53L51 52L52 52L52 51L53 51L53 50L52 50L52 49L53 49L53 48L52 48L52 49L51 49L51 48L50 48L50 47L51 47L51 46L53 46L53 43L51 43L51 42L52 42L52 41L53 41L53 39L51 39L51 42L50 42L50 43L48 43L48 44L47 44L47 43L46 43L46 42L43 42L43 38L44 38L44 41L46 41L46 39L45 39L45 38L46 38L46 37L45 37L45 38L44 38L44 37ZM49 37L49 38L50 38L50 37ZM4 38L4 39L2 39L2 40L1 40L1 39L0 39L0 40L1 40L1 41L0 41L0 43L1 43L1 44L3 44L3 45L4 45L4 44L3 44L3 43L8 43L8 44L6 44L6 45L8 45L8 47L9 47L9 48L8 48L8 53L9 53L9 52L11 52L11 53L12 53L12 52L11 52L11 50L13 50L13 51L16 51L16 52L15 52L15 53L20 53L20 52L19 52L19 51L20 51L20 50L19 50L19 49L20 49L20 48L19 48L19 47L20 47L20 44L23 44L23 43L21 43L21 41L22 41L22 40L21 40L21 41L18 41L18 40L17 40L17 39L18 39L18 38L16 38L16 40L17 40L17 41L18 41L18 42L20 42L20 43L19 43L19 44L16 44L16 43L15 43L15 42L16 42L16 41L15 41L15 42L14 42L14 41L12 41L12 40L11 40L11 41L10 41L10 40L8 40L8 38ZM41 38L41 39L42 39L42 38ZM4 39L4 40L5 40L5 39ZM6 39L6 40L7 40L7 39ZM19 39L19 40L20 40L20 39ZM24 39L24 40L26 40L26 39ZM2 40L2 43L3 43L3 42L4 42L4 41L3 41L3 40ZM31 40L31 41L32 41L32 40ZM5 41L5 42L9 42L9 41ZM11 41L11 42L12 42L12 43L13 43L13 44L11 44L11 43L9 43L9 44L10 44L10 45L9 45L9 47L13 47L13 46L12 46L12 45L13 45L13 44L14 44L14 43L13 43L13 42L12 42L12 41ZM41 42L41 43L42 43L42 42ZM44 43L44 44L43 44L43 45L44 45L44 44L46 44L46 43ZM50 43L50 45L49 45L49 47L50 47L50 45L51 45L51 43ZM10 45L10 46L11 46L11 45ZM14 45L14 46L17 46L17 47L18 47L18 45ZM25 45L25 48L28 48L28 45ZM45 45L45 48L48 48L48 45ZM26 46L26 47L27 47L27 46ZM29 46L29 47L31 47L31 46ZM40 46L40 48L39 48L39 47L38 47L38 48L39 48L39 49L38 49L38 50L37 50L37 52L40 52L40 51L38 51L38 50L39 50L39 49L40 49L40 50L41 50L41 47L42 47L42 46ZM46 46L46 47L47 47L47 46ZM43 47L43 49L44 49L44 47ZM9 48L9 51L10 51L10 48ZM14 48L14 50L16 50L16 49L18 49L18 48L16 48L16 49L15 49L15 48ZM23 48L23 49L22 49L22 50L23 50L23 51L26 51L26 50L27 50L27 49L26 49L26 50L23 50L23 49L24 49L24 48ZM29 48L29 49L28 49L28 50L29 50L29 49L31 49L31 48ZM47 49L47 50L49 50L49 49ZM50 49L50 51L49 51L49 52L51 52L51 51L52 51L52 50L51 50L51 49ZM17 50L17 51L19 51L19 50ZM42 50L42 51L43 51L43 50ZM31 52L31 53L32 53L32 52ZM45 52L45 53L47 53L47 52ZM0 0L0 7L7 7L7 0ZM1 1L1 6L6 6L6 1ZM2 2L2 5L5 5L5 2ZM46 0L46 7L53 7L53 0ZM47 1L47 6L52 6L52 1ZM48 2L48 5L51 5L51 2ZM0 46L0 53L7 53L7 46ZM1 47L1 52L6 52L6 47ZM2 48L2 51L5 51L5 48Z" fill="#000000"/></g></g></svg>
