<?xml version="1.0" encoding="UTF-8"?>
<svg xmlns="http://www.w3.org/2000/svg" version="1.1" width="356" height="356" viewBox="0 0 356 356"><rect x="0" y="0" width="356" height="356" fill="#ffffff"/><g transform="scale(6.717)"><g transform="translate(0,0)"><path fill-rule="evenodd" d="M8 0L8 2L10 2L10 3L9 3L9 4L8 4L8 9L7 9L7 8L5 8L5 9L7 9L7 10L6 10L6 11L5 11L5 10L4 10L4 9L3 9L3 8L0 8L0 16L1 16L1 17L0 17L0 18L1 18L1 19L0 19L0 20L2 20L2 21L3 21L3 22L2 22L2 23L4 23L4 24L3 24L3 25L4 25L4 26L2 26L2 27L4 27L4 28L3 28L3 30L1 30L1 31L0 31L0 33L1 33L1 34L0 34L0 35L1 35L1 34L2 34L2 37L0 37L0 38L1 38L1 39L0 39L0 40L1 40L1 41L0 41L0 43L1 43L1 44L3 44L3 45L4 45L4 44L3 44L3 43L7 43L7 44L6 44L6 45L7 45L7 44L8 44L8 46L9 46L9 47L8 47L8 48L9 48L9 47L11 47L11 46L9 46L9 44L10 44L10 45L11 45L11 44L12 44L12 43L13 43L13 45L14 45L14 46L13 46L13 48L15 48L15 49L12 49L12 48L10 48L10 49L9 49L9 50L8 50L8 53L10 53L10 52L11 52L11 53L12 53L12 52L11 52L11 49L12 49L12 50L14 50L14 51L13 51L13 52L14 52L14 53L16 53L16 52L18 52L18 53L19 53L19 52L18 52L18 49L19 49L19 48L20 48L20 49L21 49L21 48L20 48L20 47L21 47L21 46L20 46L20 45L21 45L21 43L22 43L22 45L23 45L23 47L22 47L22 48L23 48L23 50L22 50L22 53L23 53L23 52L24 52L24 53L27 53L27 51L28 51L28 50L30 50L30 51L29 51L29 52L28 52L28 53L31 53L31 52L30 52L30 51L32 51L32 53L33 53L33 52L34 52L34 53L35 53L35 51L38 51L38 52L36 52L36 53L38 53L38 52L39 52L39 53L41 53L41 52L42 52L42 53L44 53L44 52L43 52L43 51L41 51L41 50L42 50L42 47L43 47L43 48L44 48L44 49L48 49L48 51L49 51L49 52L46 52L46 51L47 51L47 50L44 50L44 51L45 51L45 53L49 53L49 52L50 52L50 51L49 51L49 48L50 48L50 46L51 46L51 45L52 45L52 44L53 44L53 42L52 42L52 44L51 44L51 45L50 45L50 43L51 43L51 42L50 42L50 41L51 41L51 40L52 40L52 41L53 41L53 38L52 38L52 39L51 39L51 36L50 36L50 34L51 34L51 33L49 33L49 32L50 32L50 31L51 31L51 32L52 32L52 31L53 31L53 29L52 29L52 27L53 27L53 26L52 26L52 27L51 27L51 28L50 28L50 27L49 27L49 25L50 25L50 23L51 23L51 24L52 24L52 25L53 25L53 22L52 22L52 21L53 21L53 18L52 18L52 20L51 20L51 21L49 21L49 20L48 20L48 17L49 17L49 18L50 18L50 16L49 16L49 15L51 15L51 17L52 17L52 15L53 15L53 10L52 10L52 9L53 9L53 8L51 8L51 9L50 9L50 10L49 10L49 8L45 8L45 6L44 6L44 7L43 7L43 3L44 3L44 4L45 4L45 3L44 3L44 1L43 1L43 0L42 0L42 2L41 2L41 4L40 4L40 3L38 3L38 2L40 2L40 1L41 1L41 0L40 0L40 1L39 1L39 0L38 0L38 1L37 1L37 0L36 0L36 3L34 3L34 2L35 2L35 0L34 0L34 1L33 1L33 0L32 0L32 2L31 2L31 0L30 0L30 2L29 2L29 3L28 3L28 4L27 4L27 0L26 0L26 4L24 4L24 8L23 8L23 6L22 6L22 7L21 7L21 6L20 6L20 5L23 5L23 4L22 4L22 1L23 1L23 2L25 2L25 0L24 0L24 1L23 1L23 0L18 0L18 1L16 1L16 2L18 2L18 1L19 1L19 4L20 4L20 5L18 5L18 3L15 3L15 2L14 2L14 3L15 3L15 5L16 5L16 7L17 7L17 6L18 6L18 8L19 8L19 12L18 12L18 10L16 10L16 11L17 11L17 12L18 12L18 14L16 14L16 12L15 12L15 10L14 10L14 9L15 9L15 8L14 8L14 7L15 7L15 6L14 6L14 7L13 7L13 5L12 5L12 4L13 4L13 2L11 2L11 1L12 1L12 0L10 0L10 1L9 1L9 0ZM13 0L13 1L15 1L15 0ZM20 1L20 2L21 2L21 1ZM30 2L30 3L29 3L29 8L30 8L30 10L31 10L31 12L30 12L30 14L29 14L29 15L28 15L28 13L29 13L29 12L28 12L28 10L29 10L29 9L28 9L28 10L27 10L27 9L24 9L24 10L26 10L26 13L27 13L27 15L26 15L26 14L25 14L25 15L24 15L24 12L25 12L25 11L24 11L24 12L23 12L23 13L22 13L22 10L23 10L23 9L22 9L22 8L21 8L21 10L20 10L20 11L21 11L21 12L20 12L20 14L19 14L19 15L18 15L18 16L19 16L19 17L18 17L18 18L19 18L19 20L21 20L21 21L20 21L20 22L19 22L19 21L18 21L18 19L17 19L17 18L16 18L16 19L17 19L17 20L16 20L16 23L14 23L14 24L15 24L15 25L14 25L14 26L15 26L15 28L16 28L16 30L13 30L13 32L12 32L12 33L13 33L13 34L12 34L12 35L11 35L11 34L10 34L10 33L9 33L9 32L10 32L10 30L11 30L11 31L12 31L12 28L14 28L14 27L12 27L12 26L9 26L9 28L10 28L10 29L9 29L9 31L8 31L8 29L5 29L5 33L2 33L2 32L1 32L1 33L2 33L2 34L4 34L4 35L3 35L3 38L4 38L4 37L5 37L5 39L4 39L4 40L3 40L3 41L4 41L4 42L5 42L5 41L6 41L6 42L8 42L8 41L6 41L6 40L8 40L8 39L9 39L9 40L10 40L10 41L9 41L9 42L10 42L10 41L11 41L11 42L12 42L12 41L13 41L13 40L12 40L12 38L15 38L15 39L14 39L14 40L15 40L15 41L14 41L14 45L15 45L15 44L16 44L16 47L15 47L15 46L14 46L14 47L15 47L15 48L16 48L16 47L17 47L17 46L19 46L19 47L18 47L18 48L19 48L19 47L20 47L20 46L19 46L19 45L20 45L20 44L19 44L19 45L18 45L18 43L19 43L19 40L18 40L18 39L19 39L19 38L23 38L23 37L22 37L22 36L25 36L25 37L26 37L26 38L25 38L25 39L24 39L24 40L23 40L23 39L22 39L22 40L23 40L23 41L22 41L22 42L23 42L23 41L24 41L24 42L25 42L25 41L26 41L26 40L27 40L27 39L26 39L26 38L27 38L27 37L26 37L26 35L28 35L28 36L30 36L30 38L32 38L32 39L29 39L29 38L28 38L28 41L27 41L27 42L28 42L28 44L29 44L29 43L32 43L32 44L30 44L30 46L29 46L29 49L30 49L30 50L32 50L32 51L33 51L33 49L32 49L32 48L34 48L34 50L36 50L36 48L37 48L37 49L38 49L38 51L40 51L40 50L39 50L39 49L40 49L40 47L39 47L39 46L40 46L40 44L42 44L42 46L44 46L44 45L43 45L43 44L42 44L42 43L40 43L40 44L38 44L38 43L39 43L39 42L40 42L40 41L39 41L39 39L37 39L37 38L36 38L36 36L37 36L37 35L38 35L38 36L39 36L39 37L38 37L38 38L39 38L39 37L40 37L40 39L41 39L41 40L42 40L42 42L43 42L43 43L44 43L44 44L45 44L45 43L46 43L46 42L47 42L47 41L48 41L48 42L49 42L49 41L48 41L48 40L49 40L49 39L50 39L50 40L51 40L51 39L50 39L50 36L48 36L48 35L49 35L49 33L48 33L48 35L46 35L46 34L44 34L44 33L40 33L40 32L41 32L41 29L42 29L42 30L43 30L43 29L42 29L42 27L43 27L43 28L44 28L44 27L43 27L43 25L44 25L44 24L46 24L46 23L44 23L44 22L45 22L45 21L46 21L46 22L47 22L47 24L49 24L49 23L50 23L50 22L49 22L49 23L48 23L48 22L47 22L47 21L48 21L48 20L47 20L47 21L46 21L46 20L45 20L45 19L44 19L44 20L43 20L43 19L42 19L42 20L41 20L41 21L40 21L40 23L42 23L42 24L41 24L41 25L42 25L42 27L41 27L41 26L40 26L40 25L39 25L39 23L36 23L36 22L37 22L37 21L36 21L36 20L37 20L37 19L38 19L38 18L39 18L39 19L40 19L40 16L43 16L43 17L42 17L42 18L43 18L43 17L44 17L44 18L45 18L45 17L46 17L46 19L47 19L47 17L46 17L46 15L40 15L40 16L39 16L39 14L40 14L40 12L41 12L41 13L42 13L42 14L43 14L43 13L42 13L42 12L41 12L41 11L43 11L43 12L44 12L44 10L45 10L45 9L44 9L44 8L43 8L43 7L42 7L42 4L41 4L41 7L40 7L40 4L39 4L39 5L38 5L38 3L36 3L36 5L35 5L35 7L34 7L34 3L33 3L33 2L32 2L32 4L33 4L33 9L34 9L34 10L35 10L35 9L36 9L36 8L38 8L38 6L39 6L39 9L38 9L38 10L37 10L37 12L38 12L38 15L37 15L37 14L36 14L36 12L35 12L35 13L34 13L34 12L33 12L33 13L32 13L32 11L33 11L33 10L31 10L31 9L32 9L32 5L30 5L30 3L31 3L31 2ZM42 2L42 3L43 3L43 2ZM9 4L9 7L10 7L10 6L11 6L11 8L9 8L9 9L8 9L8 11L9 11L9 9L12 9L12 10L11 10L11 11L10 11L10 13L13 13L13 12L14 12L14 10L13 10L13 7L12 7L12 5L10 5L10 4ZM25 5L25 8L28 8L28 5ZM36 5L36 7L37 7L37 6L38 6L38 5ZM19 6L19 8L20 8L20 6ZM26 6L26 7L27 7L27 6ZM30 6L30 7L31 7L31 6ZM41 7L41 8L40 8L40 9L39 9L39 10L38 10L38 12L40 12L40 11L41 11L41 10L42 10L42 9L43 9L43 10L44 10L44 9L43 9L43 8L42 8L42 7ZM16 8L16 9L17 9L17 8ZM41 8L41 9L40 9L40 10L39 10L39 11L40 11L40 10L41 10L41 9L42 9L42 8ZM46 9L46 10L47 10L47 13L46 13L46 11L45 11L45 13L44 13L44 14L45 14L45 13L46 13L46 14L47 14L47 15L48 15L48 9ZM2 10L2 12L1 12L1 13L4 13L4 14L3 14L3 15L2 15L2 14L1 14L1 15L2 15L2 17L1 17L1 18L2 18L2 17L4 17L4 19L3 19L3 21L4 21L4 22L5 22L5 21L4 21L4 19L5 19L5 20L7 20L7 21L6 21L6 22L7 22L7 23L5 23L5 24L10 24L10 25L11 25L11 24L13 24L13 23L12 23L12 21L13 21L13 20L12 20L12 19L14 19L14 20L15 20L15 19L14 19L14 18L15 18L15 16L14 16L14 15L16 15L16 14L12 14L12 15L11 15L11 17L12 17L12 15L13 15L13 18L12 18L12 19L9 19L9 21L10 21L10 20L11 20L11 23L8 23L8 20L7 20L7 19L8 19L8 18L9 18L9 17L10 17L10 16L8 16L8 14L9 14L9 15L10 15L10 14L9 14L9 12L8 12L8 13L6 13L6 14L5 14L5 11L3 11L3 10ZM50 10L50 14L51 14L51 15L52 15L52 14L51 14L51 11L52 11L52 10ZM6 11L6 12L7 12L7 11ZM12 11L12 12L13 12L13 11ZM27 12L27 13L28 13L28 12ZM21 13L21 14L20 14L20 17L21 17L21 18L20 18L20 19L23 19L23 20L22 20L22 22L20 22L20 24L19 24L19 23L18 23L18 24L19 24L19 26L18 26L18 27L17 27L17 26L16 26L16 27L17 27L17 28L18 28L18 29L19 29L19 28L21 28L21 30L16 30L16 32L15 32L15 31L14 31L14 32L15 32L15 34L13 34L13 35L15 35L15 36L14 36L14 37L15 37L15 38L16 38L16 36L17 36L17 35L16 35L16 34L18 34L18 38L19 38L19 34L18 34L18 33L19 33L19 32L18 32L18 31L21 31L21 30L23 30L23 31L22 31L22 32L24 32L24 33L23 33L23 34L20 34L20 35L21 35L21 36L22 36L22 35L24 35L24 34L25 34L25 35L26 35L26 34L25 34L25 32L26 32L26 33L27 33L27 32L28 32L28 31L29 31L29 33L28 33L28 35L30 35L30 31L29 31L29 28L30 28L30 29L31 29L31 31L32 31L32 30L33 30L33 31L34 31L34 32L32 32L32 33L33 33L33 35L32 35L32 38L33 38L33 36L34 36L34 32L35 32L35 34L36 34L36 35L37 35L37 34L38 34L38 35L40 35L40 37L41 37L41 39L42 39L42 36L43 36L43 39L44 39L44 40L43 40L43 42L46 42L46 40L48 40L48 39L49 39L49 38L48 38L48 36L47 36L47 38L46 38L46 37L45 37L45 36L46 36L46 35L44 35L44 34L43 34L43 35L41 35L41 34L40 34L40 33L39 33L39 30L40 30L40 29L41 29L41 28L40 28L40 26L38 26L38 25L37 25L37 24L36 24L36 23L35 23L35 22L34 22L34 21L35 21L35 19L37 19L37 18L38 18L38 17L39 17L39 16L38 16L38 17L37 17L37 16L36 16L36 15L35 15L35 14L34 14L34 13L33 13L33 14L32 14L32 18L31 18L31 19L30 19L30 20L29 20L29 21L28 21L28 19L29 19L29 18L30 18L30 17L31 17L31 16L30 16L30 15L29 15L29 16L28 16L28 15L27 15L27 16L26 16L26 15L25 15L25 16L24 16L24 15L22 15L22 13ZM6 14L6 15L7 15L7 14ZM33 14L33 17L34 17L34 19L33 19L33 18L32 18L32 19L31 19L31 20L30 20L30 22L31 22L31 23L30 23L30 24L31 24L31 25L30 25L30 26L31 26L31 25L32 25L32 27L31 27L31 29L32 29L32 28L33 28L33 27L34 27L34 28L35 28L35 27L34 27L34 26L35 26L35 25L36 25L36 27L38 27L38 26L37 26L37 25L36 25L36 24L34 24L34 26L33 26L33 25L32 25L32 23L34 23L34 22L32 22L32 20L33 20L33 21L34 21L34 19L35 19L35 18L37 18L37 17L36 17L36 16L35 16L35 17L34 17L34 14ZM3 15L3 16L4 16L4 17L5 17L5 19L7 19L7 18L8 18L8 17L7 17L7 16L6 16L6 17L5 17L5 15ZM21 15L21 16L22 16L22 15ZM23 16L23 17L24 17L24 18L23 18L23 19L24 19L24 20L23 20L23 22L22 22L22 24L23 24L23 23L24 23L24 24L25 24L25 23L26 23L26 24L28 24L28 23L26 23L26 22L25 22L25 23L24 23L24 21L25 21L25 19L26 19L26 21L27 21L27 19L28 19L28 17L24 17L24 16ZM29 16L29 17L30 17L30 16ZM44 16L44 17L45 17L45 16ZM6 17L6 18L7 18L7 17ZM42 20L42 21L41 21L41 22L42 22L42 21L43 21L43 20ZM0 21L0 24L1 24L1 25L0 25L0 29L2 29L2 28L1 28L1 25L2 25L2 24L1 24L1 21ZM17 21L17 22L18 22L18 21ZM38 21L38 22L39 22L39 21ZM51 22L51 23L52 23L52 22ZM16 23L16 25L17 25L17 23ZM43 23L43 24L42 24L42 25L43 25L43 24L44 24L44 23ZM5 25L5 28L8 28L8 25ZM21 25L21 26L20 26L20 27L21 27L21 26L23 26L23 27L22 27L22 28L23 28L23 27L24 27L24 25ZM25 25L25 28L28 28L28 25ZM45 25L45 28L48 28L48 25ZM6 26L6 27L7 27L7 26ZM26 26L26 27L27 27L27 26ZM46 26L46 27L47 27L47 26ZM10 27L10 28L12 28L12 27ZM38 28L38 30L39 30L39 29L40 29L40 28ZM25 29L25 31L24 31L24 32L25 32L25 31L26 31L26 32L27 32L27 31L28 31L28 29L27 29L27 30L26 30L26 29ZM34 29L34 31L36 31L36 30L37 30L37 29L36 29L36 30L35 30L35 29ZM44 29L44 31L42 31L42 32L44 32L44 31L45 31L45 33L46 33L46 32L48 32L48 30L49 30L49 31L50 31L50 30L51 30L51 31L52 31L52 30L51 30L51 29L50 29L50 30L49 30L49 29L48 29L48 30L47 30L47 31L46 31L46 29ZM6 30L6 31L7 31L7 30ZM3 31L3 32L4 32L4 31ZM37 31L37 32L38 32L38 31ZM6 32L6 33L7 33L7 34L5 34L5 35L7 35L7 36L5 36L5 37L7 37L7 36L8 36L8 37L9 37L9 38L10 38L10 36L11 36L11 38L12 38L12 37L13 37L13 36L11 36L11 35L9 35L9 34L8 34L8 32ZM20 32L20 33L21 33L21 32ZM36 33L36 34L37 34L37 33ZM38 33L38 34L39 34L39 33ZM52 34L52 35L53 35L53 34ZM43 35L43 36L44 36L44 35ZM44 37L44 38L45 38L45 37ZM6 38L6 39L7 39L7 38ZM35 38L35 39L34 39L34 40L33 40L33 39L32 39L32 43L34 43L34 41L35 41L35 42L36 42L36 46L37 46L37 48L39 48L39 47L38 47L38 44L37 44L37 43L38 43L38 40L36 40L36 41L35 41L35 39L36 39L36 38ZM1 39L1 40L2 40L2 39ZM10 39L10 40L11 40L11 39ZM15 39L15 40L16 40L16 41L17 41L17 39ZM20 39L20 40L21 40L21 39ZM25 39L25 40L26 40L26 39ZM4 40L4 41L5 41L5 40ZM1 41L1 42L2 42L2 43L3 43L3 42L2 42L2 41ZM36 41L36 42L37 42L37 41ZM16 42L16 43L18 43L18 42ZM20 42L20 43L21 43L21 42ZM25 43L25 44L26 44L26 43ZM47 43L47 44L48 44L48 43ZM32 44L32 46L30 46L30 47L31 47L31 48L30 48L30 49L31 49L31 48L32 48L32 46L33 46L33 47L35 47L35 48L36 48L36 47L35 47L35 46L34 46L34 45L35 45L35 44L34 44L34 45L33 45L33 44ZM25 45L25 48L28 48L28 45ZM45 45L45 48L48 48L48 45ZM49 45L49 46L50 46L50 45ZM26 46L26 47L27 47L27 46ZM46 46L46 47L47 47L47 46ZM52 46L52 47L51 47L51 48L52 48L52 47L53 47L53 46ZM24 49L24 50L23 50L23 51L24 51L24 52L26 52L26 51L27 51L27 50L28 50L28 49L26 49L26 51L25 51L25 49ZM50 49L50 50L51 50L51 49ZM9 50L9 51L10 51L10 50ZM16 50L16 51L17 51L17 50ZM20 50L20 51L21 51L21 50ZM14 51L14 52L15 52L15 51ZM20 52L20 53L21 53L21 52ZM52 52L52 53L53 53L53 52ZM0 0L0 7L7 7L7 0ZM1 1L1 6L6 6L6 1ZM2 2L2 5L5 5L5 2ZM46 0L46 7L53 7L53 0ZM47 1L47 6L52 6L52 1ZM48 2L48 5L51 5L51 2ZM0 46L0 53L7 53L7 46ZM1 47L1 52L6 52L6 47ZM2 48L2 51L5 51L5 48Z" fill="#000000"/></g></g></svg>
