<?xml version="1.0" encoding="UTF-8"?>
<svg xmlns="http://www.w3.org/2000/svg" version="1.1" width="356" height="356" viewBox="0 0 356 356"><rect x="0" y="0" width="356" height="356" fill="#ffffff"/><g transform="scale(6.717)"><g transform="translate(0,0)"><path fill-rule="evenodd" d="M10 0L10 1L12 1L12 2L11 2L11 3L10 3L10 2L9 2L9 1L8 1L8 2L9 2L9 3L8 3L8 4L9 4L9 5L8 5L8 7L9 7L9 6L10 6L10 7L11 7L11 8L10 8L10 9L9 9L9 8L6 8L6 9L5 9L5 8L0 8L0 9L3 9L3 10L1 10L1 11L2 11L2 12L0 12L0 16L1 16L1 17L2 17L2 18L1 18L1 19L0 19L0 21L1 21L1 22L0 22L0 25L2 25L2 26L0 26L0 28L2 28L2 26L4 26L4 29L3 29L3 31L2 31L2 29L0 29L0 31L1 31L1 32L0 32L0 35L1 35L1 37L0 37L0 38L1 38L1 39L2 39L2 40L1 40L1 41L2 41L2 40L3 40L3 39L2 39L2 38L1 38L1 37L2 37L2 34L1 34L1 33L3 33L3 35L4 35L4 37L3 37L3 38L4 38L4 37L5 37L5 40L4 40L4 41L5 41L5 42L3 42L3 43L2 43L2 42L0 42L0 43L1 43L1 44L3 44L3 45L4 45L4 44L3 44L3 43L7 43L7 42L8 42L8 41L7 41L7 40L9 40L9 41L10 41L10 42L9 42L9 44L6 44L6 45L8 45L8 47L9 47L9 46L10 46L10 47L14 47L14 48L12 48L12 50L16 50L16 49L14 49L14 48L17 48L17 49L18 49L18 50L20 50L20 51L17 51L17 52L16 52L16 51L14 51L14 52L15 52L15 53L20 53L20 52L21 52L21 51L22 51L22 52L23 52L23 53L25 53L25 52L26 52L26 51L29 51L29 53L30 53L30 51L29 51L29 50L31 50L31 49L32 49L32 47L33 47L33 49L35 49L35 48L36 48L36 49L37 49L37 52L36 52L36 51L34 51L34 50L32 50L32 51L31 51L31 53L32 53L32 51L33 51L33 52L34 52L34 53L35 53L35 52L36 52L36 53L38 53L38 49L37 49L37 48L38 48L38 45L39 45L39 46L41 46L41 47L42 47L42 46L43 46L43 44L44 44L44 47L43 47L43 48L41 48L41 49L42 49L42 50L41 50L41 51L42 51L42 52L44 52L44 50L45 50L45 51L46 51L46 50L47 50L47 51L48 51L48 53L50 53L50 51L49 51L49 50L50 50L50 49L51 49L51 50L52 50L52 51L51 51L51 52L52 52L52 51L53 51L53 50L52 50L52 47L51 47L51 46L52 46L52 45L53 45L53 43L52 43L52 44L51 44L51 45L50 45L50 47L49 47L49 44L50 44L50 42L52 42L52 41L53 41L53 39L51 39L51 40L52 40L52 41L47 41L47 42L49 42L49 43L47 43L47 44L46 44L46 43L45 43L45 42L46 42L46 41L45 41L45 42L43 42L43 40L42 40L42 41L41 41L41 43L39 43L39 44L38 44L38 43L37 43L37 42L38 42L38 41L39 41L39 40L41 40L41 38L42 38L42 39L43 39L43 36L42 36L42 35L44 35L44 36L45 36L45 38L44 38L44 40L46 40L46 39L45 39L45 38L46 38L46 35L44 35L44 33L43 33L43 31L42 31L42 32L41 32L41 30L44 30L44 32L45 32L45 29L46 29L46 30L47 30L47 31L46 31L46 33L47 33L47 36L48 36L48 35L49 35L49 36L50 36L50 34L52 34L52 33L51 33L51 32L50 32L50 29L53 29L53 28L50 28L50 27L49 27L49 24L50 24L50 26L52 26L52 25L51 25L51 24L53 24L53 23L51 23L51 24L50 24L50 22L53 22L53 21L52 21L52 20L53 20L53 19L51 19L51 18L52 18L52 17L53 17L53 16L52 16L52 15L51 15L51 16L50 16L50 19L47 19L47 18L49 18L49 16L48 16L48 15L49 15L49 14L50 14L50 13L52 13L52 12L53 12L53 11L52 11L52 12L50 12L50 10L51 10L51 9L52 9L52 8L51 8L51 9L50 9L50 8L49 8L49 9L50 9L50 10L47 10L47 11L46 11L46 10L44 10L44 12L42 12L42 11L43 11L43 9L46 9L46 8L43 8L43 3L44 3L44 4L45 4L45 3L44 3L44 1L43 1L43 0L42 0L42 1L41 1L41 0L40 0L40 1L41 1L41 2L43 2L43 3L41 3L41 4L42 4L42 8L41 8L41 9L39 9L39 11L38 11L38 7L39 7L39 6L40 6L40 7L41 7L41 6L40 6L40 4L39 4L39 5L38 5L38 3L39 3L39 1L37 1L37 0L35 0L35 1L34 1L34 2L33 2L33 1L32 1L32 0L28 0L28 1L27 1L27 3L29 3L29 2L28 2L28 1L32 1L32 2L33 2L33 4L35 4L35 5L33 5L33 6L32 6L32 5L31 5L31 4L32 4L32 3L31 3L31 2L30 2L30 3L31 3L31 4L25 4L25 3L26 3L26 2L25 2L25 1L26 1L26 0L23 0L23 2L22 2L22 3L21 3L21 1L22 1L22 0L18 0L18 1L17 1L17 3L16 3L16 2L15 2L15 3L16 3L16 4L13 4L13 5L12 5L12 4L11 4L11 3L14 3L14 2L13 2L13 1L14 1L14 0L13 0L13 1L12 1L12 0ZM15 0L15 1L16 1L16 0ZM19 1L19 2L18 2L18 3L19 3L19 2L20 2L20 1ZM35 1L35 3L38 3L38 2L37 2L37 1ZM23 2L23 3L22 3L22 4L20 4L20 6L19 6L19 8L20 8L20 9L19 9L19 10L17 10L17 11L19 11L19 13L15 13L15 12L16 12L16 11L15 11L15 10L16 10L16 9L18 9L18 8L17 8L17 7L18 7L18 5L19 5L19 4L16 4L16 5L17 5L17 7L16 7L16 6L15 6L15 7L16 7L16 9L12 9L12 8L11 8L11 10L10 10L10 11L11 11L11 10L13 10L13 11L12 11L12 12L13 12L13 13L12 13L12 14L11 14L11 13L10 13L10 12L9 12L9 13L8 13L8 11L6 11L6 10L8 10L8 9L6 9L6 10L5 10L5 9L4 9L4 11L3 11L3 12L2 12L2 13L1 13L1 14L3 14L3 15L5 15L5 16L4 16L4 17L3 17L3 18L2 18L2 19L1 19L1 20L2 20L2 19L3 19L3 22L1 22L1 23L2 23L2 25L4 25L4 24L7 24L7 23L8 23L8 24L9 24L9 25L10 25L10 28L9 28L9 29L10 29L10 33L9 33L9 32L7 32L7 31L9 31L9 30L8 30L8 29L6 29L6 30L5 30L5 31L3 31L3 32L5 32L5 33L6 33L6 34L7 34L7 33L9 33L9 34L8 34L8 36L7 36L7 35L6 35L6 36L7 36L7 37L6 37L6 38L8 38L8 39L9 39L9 40L11 40L11 39L13 39L13 40L12 40L12 42L16 42L16 41L18 41L18 40L16 40L16 38L17 38L17 39L18 39L18 38L19 38L19 39L20 39L20 41L19 41L19 42L17 42L17 44L20 44L20 47L19 47L19 46L18 46L18 45L13 45L13 46L14 46L14 47L15 47L15 46L18 46L18 47L17 47L17 48L18 48L18 49L21 49L21 50L22 50L22 51L26 51L26 50L27 50L27 49L26 49L26 50L25 50L25 49L24 49L24 48L23 48L23 46L22 46L22 45L24 45L24 44L26 44L26 42L25 42L25 41L27 41L27 42L28 42L28 43L27 43L27 44L30 44L30 45L31 45L31 47L30 47L30 46L29 46L29 47L30 47L30 48L31 48L31 47L32 47L32 45L33 45L33 46L35 46L35 47L34 47L34 48L35 48L35 47L36 47L36 48L37 48L37 47L36 47L36 46L35 46L35 45L33 45L33 42L35 42L35 43L34 43L34 44L35 44L35 43L36 43L36 41L35 41L35 40L36 40L36 39L38 39L38 40L37 40L37 41L38 41L38 40L39 40L39 37L40 37L40 38L41 38L41 37L42 37L42 36L41 36L41 35L40 35L40 34L41 34L41 32L38 32L38 31L40 31L40 30L39 30L39 29L44 29L44 27L43 27L43 26L44 26L44 24L45 24L45 22L46 22L46 23L47 23L47 24L48 24L48 23L49 23L49 22L47 22L47 20L44 20L44 19L45 19L45 18L47 18L47 17L48 17L48 16L44 16L44 19L43 19L43 20L42 20L42 21L44 21L44 22L43 22L43 23L41 23L41 22L40 22L40 21L41 21L41 19L42 19L42 18L41 18L41 17L43 17L43 15L39 15L39 14L41 14L41 12L40 12L40 11L39 11L39 12L40 12L40 13L38 13L38 11L37 11L37 13L38 13L38 15L37 15L37 14L35 14L35 13L34 13L34 12L36 12L36 10L37 10L37 9L36 9L36 10L35 10L35 9L34 9L34 8L36 8L36 6L37 6L37 7L38 7L38 5L36 5L36 6L35 6L35 7L34 7L34 6L33 6L33 7L34 7L34 8L32 8L32 6L31 6L31 5L29 5L29 9L26 9L26 14L25 14L25 13L24 13L24 14L25 14L25 15L26 15L26 16L23 16L23 15L21 15L21 13L23 13L23 10L22 10L22 9L23 9L23 8L24 8L24 5L23 5L23 8L20 8L20 6L21 6L21 7L22 7L22 4L23 4L23 3L25 3L25 2ZM25 5L25 8L28 8L28 5ZM11 6L11 7L12 7L12 6ZM13 6L13 8L14 8L14 6ZM26 6L26 7L27 7L27 6ZM30 6L30 8L31 8L31 9L29 9L29 11L27 11L27 13L29 13L29 16L28 16L28 15L27 15L27 14L26 14L26 15L27 15L27 16L26 16L26 17L29 17L29 18L31 18L31 17L32 17L32 19L31 19L31 21L29 21L29 24L28 24L28 23L27 23L27 24L26 24L26 23L25 23L25 22L24 22L24 23L23 23L23 22L22 22L22 21L21 21L21 23L20 23L20 21L19 21L19 20L22 20L22 19L23 19L23 20L25 20L25 21L26 21L26 22L28 22L28 20L25 20L25 18L24 18L24 19L23 19L23 18L22 18L22 17L18 17L18 16L17 16L17 15L18 15L18 14L17 14L17 15L16 15L16 16L17 16L17 17L18 17L18 19L19 19L19 20L16 20L16 19L15 19L15 21L13 21L13 22L11 22L11 19L12 19L12 20L13 20L13 19L14 19L14 17L13 17L13 16L14 16L14 15L12 15L12 18L11 18L11 16L10 16L10 17L9 17L9 18L6 18L6 17L8 17L8 14L6 14L6 13L7 13L7 12L6 12L6 13L5 13L5 11L4 11L4 13L5 13L5 15L7 15L7 16L5 16L5 18L3 18L3 19L4 19L4 20L6 20L6 21L4 21L4 23L7 23L7 22L6 22L6 21L7 21L7 20L6 20L6 19L8 19L8 21L9 21L9 24L11 24L11 23L12 23L12 24L13 24L13 25L11 25L11 26L12 26L12 27L11 27L11 28L10 28L10 29L11 29L11 30L12 30L12 31L11 31L11 32L12 32L12 31L13 31L13 32L14 32L14 31L13 31L13 30L15 30L15 29L18 29L18 30L17 30L17 31L15 31L15 32L17 32L17 33L18 33L18 34L17 34L17 35L19 35L19 36L16 36L16 35L14 35L14 36L15 36L15 37L13 37L13 36L12 36L12 35L13 35L13 34L14 34L14 33L12 33L12 34L10 34L10 35L9 35L9 36L8 36L8 37L10 37L10 38L9 38L9 39L11 39L11 38L13 38L13 39L14 39L14 40L13 40L13 41L16 41L16 40L15 40L15 37L21 37L21 38L22 38L22 39L21 39L21 40L22 40L22 41L21 41L21 45L22 45L22 43L23 43L23 44L24 44L24 43L23 43L23 42L22 42L22 41L24 41L24 40L25 40L25 39L24 39L24 40L23 40L23 37L26 37L26 40L27 40L27 41L28 41L28 40L27 40L27 39L29 39L29 40L30 40L30 39L29 39L29 38L31 38L31 39L32 39L32 40L31 40L31 41L29 41L29 42L31 42L31 45L32 45L32 42L33 42L33 41L34 41L34 40L35 40L35 39L34 39L34 38L33 38L33 37L34 37L34 36L33 36L33 37L32 37L32 36L31 36L31 37L29 37L29 36L28 36L28 37L26 37L26 36L27 36L27 35L29 35L29 34L30 34L30 35L36 35L36 36L35 36L35 37L37 37L37 38L38 38L38 37L39 37L39 36L40 36L40 35L38 35L38 33L37 33L37 32L36 32L36 31L38 31L38 29L37 29L37 28L39 28L39 27L38 27L38 24L37 24L37 22L38 22L38 23L39 23L39 22L38 22L38 21L39 21L39 20L40 20L40 19L39 19L39 20L38 20L38 21L37 21L37 20L36 20L36 19L38 19L38 17L39 17L39 18L40 18L40 17L39 17L39 16L38 16L38 17L37 17L37 15L35 15L35 14L34 14L34 15L33 15L33 13L32 13L32 12L30 12L30 11L33 11L33 12L34 12L34 10L33 10L33 9L32 9L32 8L31 8L31 6ZM44 6L44 7L45 7L45 6ZM47 8L47 9L48 9L48 8ZM19 10L19 11L20 11L20 10ZM24 10L24 11L25 11L25 10ZM47 11L47 12L46 12L46 13L43 13L43 14L44 14L44 15L45 15L45 14L48 14L48 13L47 13L47 12L49 12L49 11ZM20 12L20 13L19 13L19 15L20 15L20 16L21 16L21 15L20 15L20 13L21 13L21 12ZM13 13L13 14L15 14L15 13ZM31 13L31 16L32 16L32 17L33 17L33 18L35 18L35 19L36 19L36 17L35 17L35 16L32 16L32 13ZM10 14L10 15L11 15L11 14ZM1 15L1 16L2 16L2 15ZM15 17L15 18L16 18L16 17ZM9 18L9 21L10 21L10 19L11 19L11 18ZM19 18L19 19L20 19L20 18ZM26 18L26 19L27 19L27 18ZM32 19L32 21L31 21L31 22L32 22L32 23L31 23L31 24L32 24L32 26L30 26L30 24L29 24L29 26L30 26L30 27L32 27L32 26L33 26L33 28L31 28L31 29L32 29L32 30L31 30L31 32L32 32L32 33L31 33L31 34L35 34L35 33L36 33L36 32L35 32L35 33L33 33L33 31L32 31L32 30L34 30L34 31L35 31L35 29L33 29L33 28L34 28L34 27L37 27L37 26L35 26L35 25L33 25L33 24L34 24L34 23L35 23L35 20L33 20L33 19ZM50 19L50 20L49 20L49 21L50 21L50 20L51 20L51 19ZM15 21L15 22L17 22L17 23L18 23L18 22L17 22L17 21ZM33 22L33 23L32 23L32 24L33 24L33 23L34 23L34 22ZM13 23L13 24L14 24L14 23ZM19 23L19 24L20 24L20 25L19 25L19 26L20 26L20 27L18 27L18 28L22 28L22 29L19 29L19 30L18 30L18 31L17 31L17 32L18 32L18 33L21 33L21 32L22 32L22 35L21 35L21 37L23 37L23 36L24 36L24 34L25 34L25 33L23 33L23 32L26 32L26 34L27 34L27 33L28 33L28 34L29 34L29 33L28 33L28 32L30 32L30 30L29 30L29 29L30 29L30 28L29 28L29 29L24 29L24 27L23 27L23 28L22 28L22 27L21 27L21 26L22 26L22 25L24 25L24 24L22 24L22 25L21 25L21 24L20 24L20 23ZM43 23L43 24L42 24L42 25L41 25L41 26L43 26L43 24L44 24L44 23ZM16 24L16 25L13 25L13 26L14 26L14 28L11 28L11 29L12 29L12 30L13 30L13 29L15 29L15 28L16 28L16 27L15 27L15 26L16 26L16 25L18 25L18 24ZM5 25L5 28L8 28L8 25ZM25 25L25 28L28 28L28 25ZM39 25L39 26L40 26L40 25ZM45 25L45 28L48 28L48 25ZM6 26L6 27L7 27L7 26ZM26 26L26 27L27 27L27 26ZM46 26L46 27L47 27L47 26ZM42 27L42 28L43 28L43 27ZM49 28L49 29L50 29L50 28ZM22 29L22 30L21 30L21 31L23 31L23 30L24 30L24 29ZM36 29L36 30L37 30L37 29ZM6 30L6 31L5 31L5 32L6 32L6 33L7 33L7 32L6 32L6 31L7 31L7 30ZM28 30L28 31L26 31L26 32L28 32L28 31L29 31L29 30ZM47 31L47 32L49 32L49 31ZM52 31L52 32L53 32L53 31ZM15 33L15 34L16 34L16 33ZM39 33L39 34L40 34L40 33ZM49 33L49 34L50 34L50 33ZM19 34L19 35L20 35L20 34ZM10 35L10 37L12 37L12 36L11 36L11 35ZM22 35L22 36L23 36L23 35ZM25 35L25 36L26 36L26 35ZM37 35L37 37L38 37L38 35ZM51 35L51 36L52 36L52 37L53 37L53 36L52 36L52 35ZM28 37L28 38L29 38L29 37ZM47 37L47 38L48 38L48 39L47 39L47 40L50 40L50 38L51 38L51 37L50 37L50 38L49 38L49 37ZM32 38L32 39L33 39L33 38ZM6 39L6 40L5 40L5 41L6 41L6 42L7 42L7 41L6 41L6 40L7 40L7 39ZM32 40L32 41L31 41L31 42L32 42L32 41L33 41L33 40ZM10 42L10 43L11 43L11 42ZM19 42L19 43L20 43L20 42ZM13 43L13 44L14 44L14 43ZM15 43L15 44L16 44L16 43ZM42 43L42 44L43 44L43 43ZM44 43L44 44L45 44L45 43ZM10 44L10 46L11 46L11 45L12 45L12 44ZM39 44L39 45L41 45L41 46L42 46L42 45L41 45L41 44ZM25 45L25 48L28 48L28 45ZM45 45L45 48L48 48L48 45ZM21 46L21 47L22 47L22 46ZM26 46L26 47L27 47L27 46ZM46 46L46 47L47 47L47 46ZM50 47L50 48L51 48L51 47ZM8 48L8 53L9 53L9 49L10 49L10 50L11 50L11 49L10 49L10 48ZM21 48L21 49L22 49L22 48ZM43 48L43 49L44 49L44 48ZM23 49L23 50L24 50L24 49ZM28 49L28 50L29 50L29 49ZM47 49L47 50L49 50L49 49ZM39 50L39 52L40 52L40 50ZM42 50L42 51L43 51L43 50ZM10 51L10 53L11 53L11 52L12 52L12 53L13 53L13 52L12 52L12 51ZM0 0L0 7L7 7L7 0ZM1 1L1 6L6 6L6 1ZM2 2L2 5L5 5L5 2ZM46 0L46 7L53 7L53 0ZM47 1L47 6L52 6L52 1ZM48 2L48 5L51 5L51 2ZM0 46L0 53L7 53L7 46ZM1 47L1 52L6 52L6 47ZM2 48L2 51L5 51L5 48Z" fill="#000000"/></g></g></svg>
