<?xml version="1.0" encoding="UTF-8"?>
<svg xmlns="http://www.w3.org/2000/svg" version="1.1" width="356" height="356" viewBox="0 0 356 356"><rect x="0" y="0" width="356" height="356" fill="#ffffff"/><g transform="scale(6.717)"><g transform="translate(0,0)"><path fill-rule="evenodd" d="M11 0L11 2L9 2L9 1L8 1L8 2L9 2L9 3L8 3L8 4L9 4L9 5L8 5L8 7L9 7L9 5L10 5L10 3L11 3L11 4L13 4L13 5L15 5L15 6L14 6L14 7L13 7L13 6L12 6L12 5L11 5L11 6L10 6L10 7L11 7L11 6L12 6L12 7L13 7L13 8L12 8L12 9L13 9L13 10L9 10L9 9L11 9L11 8L6 8L6 9L7 9L7 10L6 10L6 11L7 11L7 12L6 12L6 13L7 13L7 14L5 14L5 11L3 11L3 10L2 10L2 9L4 9L4 10L5 10L5 8L0 8L0 9L1 9L1 10L0 10L0 14L1 14L1 13L2 13L2 12L3 12L3 13L4 13L4 14L3 14L3 15L0 15L0 16L1 16L1 17L0 17L0 18L2 18L2 19L4 19L4 21L5 21L5 22L6 22L6 23L7 23L7 22L8 22L8 23L9 23L9 24L5 24L5 23L4 23L4 22L0 22L0 23L1 23L1 24L0 24L0 27L2 27L2 28L1 28L1 29L0 29L0 30L1 30L1 32L0 32L0 35L1 35L1 36L0 36L0 38L1 38L1 39L2 39L2 40L3 40L3 41L2 41L2 42L0 42L0 43L1 43L1 44L3 44L3 45L4 45L4 44L3 44L3 43L7 43L7 44L6 44L6 45L8 45L8 47L9 47L9 45L11 45L11 47L10 47L10 48L11 48L11 47L13 47L13 48L12 48L12 49L9 49L9 48L8 48L8 53L11 53L11 52L10 52L10 51L12 51L12 49L13 49L13 50L15 50L15 51L16 51L16 52L15 52L15 53L20 53L20 52L19 52L19 51L20 51L20 50L19 50L19 49L20 49L20 48L19 48L19 47L20 47L20 44L23 44L23 45L24 45L24 47L23 47L23 46L22 46L22 47L21 47L21 48L22 48L22 49L21 49L21 50L22 50L22 49L23 49L23 50L24 50L24 52L23 52L23 53L27 53L27 52L28 52L28 51L27 51L27 50L29 50L29 53L30 53L30 52L31 52L31 53L32 53L32 51L33 51L33 52L35 52L35 53L37 53L37 52L39 52L39 51L40 51L40 52L41 52L41 53L43 53L43 51L44 51L44 52L45 52L45 53L47 53L47 52L45 52L45 51L48 51L48 53L51 53L51 52L52 52L52 51L53 51L53 50L52 50L52 49L53 49L53 47L51 47L51 46L53 46L53 43L51 43L51 42L52 42L52 41L53 41L53 39L51 39L51 42L50 42L50 43L48 43L48 42L49 42L49 40L50 40L50 38L53 38L53 36L52 36L52 35L51 35L51 36L49 36L49 37L47 37L47 36L45 36L45 35L43 35L43 34L46 34L46 33L45 33L45 32L46 32L46 31L45 31L45 30L47 30L47 31L49 31L49 32L47 32L47 35L50 35L50 34L52 34L52 33L53 33L53 31L52 31L52 32L50 32L50 29L49 29L49 28L50 28L50 27L49 27L49 24L50 24L50 26L52 26L52 25L53 25L53 23L51 23L51 24L50 24L50 22L51 22L51 21L52 21L52 20L53 20L53 19L51 19L51 20L50 20L50 17L51 17L51 18L52 18L52 17L53 17L53 15L51 15L51 16L50 16L50 17L49 17L49 16L48 16L48 14L50 14L50 11L51 11L51 10L50 10L50 8L49 8L49 10L47 10L47 12L46 12L46 13L47 13L47 15L46 15L46 14L44 14L44 12L45 12L45 11L46 11L46 10L44 10L44 8L45 8L45 9L46 9L46 8L45 8L45 6L44 6L44 8L43 8L43 3L44 3L44 4L45 4L45 3L44 3L44 1L43 1L43 0L42 0L42 1L41 1L41 2L39 2L39 1L38 1L38 0L35 0L35 1L34 1L34 2L35 2L35 1L37 1L37 3L35 3L35 4L37 4L37 5L38 5L38 3L41 3L41 4L39 4L39 6L38 6L38 7L37 7L37 6L36 6L36 8L34 8L34 7L35 7L35 5L33 5L33 4L34 4L34 3L33 3L33 1L32 1L32 0L28 0L28 1L27 1L27 0L26 0L26 1L25 1L25 0L23 0L23 2L22 2L22 3L23 3L23 5L24 5L24 8L23 8L23 6L22 6L22 4L21 4L21 3L18 3L18 2L20 2L20 1L19 1L19 0L16 0L16 1L15 1L15 2L16 2L16 4L13 4L13 3L14 3L14 2L12 2L12 0ZM21 0L21 1L22 1L22 0ZM24 1L24 3L28 3L28 4L29 4L29 1L28 1L28 2L27 2L27 1L26 1L26 2L25 2L25 1ZM31 1L31 2L30 2L30 3L32 3L32 4L31 4L31 8L30 8L30 5L29 5L29 9L26 9L26 10L25 10L25 11L26 11L26 13L25 13L25 14L26 14L26 20L25 20L25 21L23 21L23 20L24 20L24 19L25 19L25 18L24 18L24 17L25 17L25 16L22 16L22 17L21 17L21 16L20 16L20 15L21 15L21 14L22 14L22 13L24 13L24 12L22 12L22 13L20 13L20 12L19 12L19 13L15 13L15 11L16 11L16 12L17 12L17 11L20 11L20 10L18 10L18 9L22 9L22 10L21 10L21 11L24 11L24 9L23 9L23 8L22 8L22 6L21 6L21 4L20 4L20 6L19 6L19 4L16 4L16 5L18 5L18 6L17 6L17 7L16 7L16 6L15 6L15 7L14 7L14 8L13 8L13 9L14 9L14 11L10 11L10 13L9 13L9 10L8 10L8 15L5 15L5 14L4 14L4 15L3 15L3 16L2 16L2 17L3 17L3 16L4 16L4 17L5 17L5 18L4 18L4 19L6 19L6 20L5 20L5 21L6 21L6 22L7 22L7 21L8 21L8 22L10 22L10 24L11 24L11 25L12 25L12 26L9 26L9 30L7 30L7 29L4 29L4 23L3 23L3 24L1 24L1 26L3 26L3 28L2 28L2 29L1 29L1 30L2 30L2 29L3 29L3 33L4 33L4 32L5 32L5 31L6 31L6 32L7 32L7 33L5 33L5 34L7 34L7 35L5 35L5 36L4 36L4 37L5 37L5 36L7 36L7 35L8 35L8 34L7 34L7 33L9 33L9 35L11 35L11 36L9 36L9 37L10 37L10 38L13 38L13 39L12 39L12 40L13 40L13 41L12 41L12 42L11 42L11 40L7 40L7 39L9 39L9 38L7 38L7 37L6 37L6 38L4 38L4 39L3 39L3 40L4 40L4 41L3 41L3 42L2 42L2 43L3 43L3 42L5 42L5 40L7 40L7 41L6 41L6 42L7 42L7 43L8 43L8 44L10 44L10 42L11 42L11 43L14 43L14 44L13 44L13 45L12 45L12 44L11 44L11 45L12 45L12 46L13 46L13 47L14 47L14 48L15 48L15 46L17 46L17 47L18 47L18 45L15 45L15 43L16 43L16 44L19 44L19 43L20 43L20 42L18 42L18 41L21 41L21 42L23 42L23 43L24 43L24 44L25 44L25 43L24 43L24 42L27 42L27 43L26 43L26 44L29 44L29 43L28 43L28 41L29 41L29 40L30 40L30 41L31 41L31 42L30 42L30 45L31 45L31 44L32 44L32 45L33 45L33 46L32 46L32 49L31 49L31 47L30 47L30 46L29 46L29 49L31 49L31 51L32 51L32 50L34 50L34 51L35 51L35 52L36 52L36 50L37 50L37 51L38 51L38 50L40 50L40 49L43 49L43 50L44 50L44 51L45 51L45 49L44 49L44 46L43 46L43 47L42 47L42 48L41 48L41 47L39 47L39 48L38 48L38 46L41 46L41 45L42 45L42 44L41 44L41 43L42 43L42 42L41 42L41 40L39 40L39 41L38 41L38 39L40 39L40 37L41 37L41 35L40 35L40 34L41 34L41 32L39 32L39 31L42 31L42 32L43 32L43 33L44 33L44 27L43 27L43 31L42 31L42 30L41 30L41 29L42 29L42 26L41 26L41 25L43 25L43 24L44 24L44 23L45 23L45 24L46 24L46 23L47 23L47 24L48 24L48 23L47 23L47 22L48 22L48 21L46 21L46 19L45 19L45 18L47 18L47 20L48 20L48 19L49 19L49 18L47 18L47 17L48 17L48 16L45 16L45 15L42 15L42 14L41 14L41 11L42 11L42 10L41 10L41 11L39 11L39 9L41 9L41 7L42 7L42 6L41 6L41 7L40 7L40 6L39 6L39 7L38 7L38 8L37 8L37 9L36 9L36 10L35 10L35 9L34 9L34 8L32 8L32 4L33 4L33 3L32 3L32 1ZM11 2L11 3L12 3L12 2ZM41 2L41 3L43 3L43 2ZM41 4L41 5L42 5L42 4ZM25 5L25 8L28 8L28 5ZM18 6L18 7L19 7L19 6ZM20 6L20 8L21 8L21 6ZM26 6L26 7L27 7L27 6ZM33 6L33 7L34 7L34 6ZM15 7L15 8L16 8L16 7ZM39 7L39 8L40 8L40 7ZM17 8L17 9L18 9L18 8ZM31 8L31 9L30 9L30 10L29 10L29 11L27 11L27 13L28 13L28 12L29 12L29 14L31 14L31 15L30 15L30 17L28 17L28 18L27 18L27 19L28 19L28 18L29 18L29 19L30 19L30 18L31 18L31 17L32 17L32 19L34 19L34 21L36 21L36 22L38 22L38 21L40 21L40 20L41 20L41 21L42 21L42 22L41 22L41 23L42 23L42 22L43 22L43 23L44 23L44 22L43 22L43 21L45 21L45 20L42 20L42 18L43 18L43 19L44 19L44 17L40 17L40 18L39 18L39 19L40 19L40 20L38 20L38 21L37 21L37 18L38 18L38 17L37 17L37 16L38 16L38 15L39 15L39 14L40 14L40 13L39 13L39 14L37 14L37 13L38 13L38 12L39 12L39 11L38 11L38 9L37 9L37 10L36 10L36 11L34 11L34 10L33 10L33 9L32 9L32 8ZM47 8L47 9L48 9L48 8ZM51 8L51 9L52 9L52 8ZM15 9L15 10L16 10L16 9ZM30 10L30 12L31 12L31 10ZM32 11L32 13L33 13L33 14L32 14L32 15L31 15L31 16L32 16L32 17L33 17L33 18L35 18L35 20L36 20L36 17L35 17L35 16L32 16L32 15L33 15L33 14L34 14L34 15L35 15L35 12L34 12L34 11ZM36 11L36 12L38 12L38 11ZM48 11L48 12L49 12L49 11ZM52 11L52 12L51 12L51 14L52 14L52 12L53 12L53 11ZM11 12L11 13L10 13L10 14L12 14L12 16L11 16L11 15L8 15L8 17L9 17L9 18L10 18L10 20L9 20L9 19L8 19L8 20L9 20L9 21L11 21L11 19L13 19L13 20L12 20L12 21L13 21L13 22L15 22L15 24L17 24L17 25L18 25L18 26L17 26L17 28L16 28L16 27L14 27L14 28L15 28L15 29L13 29L13 27L12 27L12 28L11 28L11 27L10 27L10 29L13 29L13 30L9 30L9 31L8 31L8 32L9 32L9 31L10 31L10 34L11 34L11 35L12 35L12 36L13 36L13 38L14 38L14 36L13 36L13 33L16 33L16 34L15 34L15 35L16 35L16 36L15 36L15 37L21 37L21 36L17 36L17 35L20 35L20 34L19 34L19 33L20 33L20 32L19 32L19 29L21 29L21 26L22 26L22 24L21 24L21 23L23 23L23 24L24 24L24 26L23 26L23 28L24 28L24 29L25 29L25 31L26 31L26 32L23 32L23 30L22 30L22 31L21 31L21 32L22 32L22 33L21 33L21 34L22 34L22 33L23 33L23 34L24 34L24 33L25 33L25 35L26 35L26 32L27 32L27 30L26 30L26 29L28 29L28 30L29 30L29 31L30 31L30 30L31 30L31 29L32 29L32 27L33 27L33 26L32 26L32 24L33 24L33 25L35 25L35 26L37 26L37 28L35 28L35 29L37 29L37 30L35 30L35 31L34 31L34 30L33 30L33 33L35 33L35 34L31 34L31 33L32 33L32 32L29 32L29 34L30 34L30 37L28 37L28 36L27 36L27 38L28 38L28 39L26 39L26 38L25 38L25 39L26 39L26 40L23 40L23 41L26 41L26 40L28 40L28 39L29 39L29 38L30 38L30 39L32 39L32 40L31 40L31 41L32 41L32 42L31 42L31 43L32 43L32 42L33 42L33 44L34 44L34 43L35 43L35 42L33 42L33 41L34 41L34 40L35 40L35 41L37 41L37 42L36 42L36 44L35 44L35 48L34 48L34 47L33 47L33 49L35 49L35 48L36 48L36 49L37 49L37 50L38 50L38 48L36 48L36 45L37 45L37 46L38 46L38 45L39 45L39 44L40 44L40 43L41 43L41 42L39 42L39 44L38 44L38 43L37 43L37 42L38 42L38 41L37 41L37 40L35 40L35 39L38 39L38 37L39 37L39 35L38 35L38 37L37 37L37 34L38 34L38 31L39 31L39 30L40 30L40 29L39 29L39 27L38 27L38 25L39 25L39 26L40 26L40 25L39 25L39 23L40 23L40 22L39 22L39 23L34 23L34 24L33 24L33 21L32 21L32 20L31 20L31 21L29 21L29 20L26 20L26 22L24 22L24 23L23 23L23 21L21 21L21 23L20 23L20 21L19 21L19 20L17 20L17 18L18 18L18 19L20 19L20 18L19 18L19 17L20 17L20 16L19 16L19 15L20 15L20 13L19 13L19 14L18 14L18 15L16 15L16 16L15 16L15 13L13 13L13 12ZM42 12L42 13L43 13L43 12ZM36 14L36 15L37 15L37 14ZM13 15L13 16L14 16L14 15ZM27 15L27 16L29 16L29 15ZM41 15L41 16L42 16L42 15ZM6 16L6 17L7 17L7 16ZM10 16L10 17L11 17L11 16ZM16 16L16 17L13 17L13 18L14 18L14 20L13 20L13 21L15 21L15 22L17 22L17 21L15 21L15 20L16 20L16 19L15 19L15 18L16 18L16 17L18 17L18 16ZM22 17L22 18L23 18L23 19L24 19L24 18L23 18L23 17ZM6 18L6 19L7 19L7 18ZM40 18L40 19L41 19L41 18ZM0 19L0 21L2 21L2 20L1 20L1 19ZM21 19L21 20L22 20L22 19ZM6 20L6 21L7 21L7 20ZM28 21L28 22L26 22L26 24L28 24L28 23L30 23L30 22L29 22L29 21ZM31 21L31 24L32 24L32 21ZM11 22L11 24L12 24L12 22ZM18 22L18 23L17 23L17 24L18 24L18 25L21 25L21 24L20 24L20 23L19 23L19 22ZM13 23L13 24L14 24L14 23ZM29 24L29 25L30 25L30 24ZM37 24L37 25L38 25L38 24ZM5 25L5 28L8 28L8 25ZM13 25L13 26L14 26L14 25ZM15 25L15 26L16 26L16 25ZM25 25L25 28L28 28L28 25ZM45 25L45 28L48 28L48 25ZM6 26L6 27L7 27L7 26ZM19 26L19 27L18 27L18 28L19 28L19 27L20 27L20 26ZM26 26L26 27L27 27L27 26ZM31 26L31 27L29 27L29 28L31 28L31 27L32 27L32 26ZM46 26L46 27L47 27L47 26ZM33 28L33 29L34 29L34 28ZM37 28L37 29L38 29L38 30L37 30L37 31L36 31L36 32L35 32L35 33L36 33L36 34L35 34L35 35L33 35L33 36L31 36L31 37L32 37L32 38L33 38L33 39L34 39L34 38L35 38L35 36L36 36L36 34L37 34L37 33L36 33L36 32L37 32L37 31L38 31L38 30L39 30L39 29L38 29L38 28ZM51 28L51 29L52 29L52 30L53 30L53 28ZM15 29L15 31L18 31L18 29ZM29 29L29 30L30 30L30 29ZM6 30L6 31L7 31L7 30ZM11 31L11 32L12 32L12 33L11 33L11 34L12 34L12 33L13 33L13 32L14 32L14 31L13 31L13 32L12 32L12 31ZM1 32L1 33L2 33L2 32ZM16 32L16 33L18 33L18 32ZM27 33L27 35L28 35L28 33ZM39 33L39 34L40 34L40 33ZM3 34L3 35L4 35L4 34ZM42 35L42 36L43 36L43 37L44 37L44 38L45 38L45 42L44 42L44 39L43 39L43 40L42 40L42 41L43 41L43 42L44 42L44 43L45 43L45 44L46 44L46 43L47 43L47 40L46 40L46 39L48 39L48 38L47 38L47 37L44 37L44 36L43 36L43 35ZM24 36L24 37L23 37L23 38L24 38L24 37L26 37L26 36ZM51 36L51 37L52 37L52 36ZM1 37L1 38L3 38L3 37ZM33 37L33 38L34 38L34 37ZM36 37L36 38L37 38L37 37ZM49 37L49 38L50 38L50 37ZM6 38L6 39L7 39L7 38ZM16 38L16 40L17 40L17 41L18 41L18 40L17 40L17 39L18 39L18 38ZM21 38L21 39L22 39L22 38ZM13 39L13 40L14 40L14 39ZM19 39L19 40L20 40L20 39ZM21 40L21 41L22 41L22 40ZM32 40L32 41L33 41L33 40ZM13 41L13 42L14 42L14 43L15 43L15 42L16 42L16 41L15 41L15 42L14 42L14 41ZM8 42L8 43L9 43L9 42ZM45 42L45 43L46 43L46 42ZM50 43L50 45L49 45L49 47L50 47L50 48L51 48L51 47L50 47L50 45L51 45L51 43ZM37 44L37 45L38 45L38 44ZM43 44L43 45L44 45L44 44ZM14 45L14 46L15 46L15 45ZM25 45L25 48L28 48L28 45ZM45 45L45 48L48 48L48 45ZM26 46L26 47L27 47L27 46ZM46 46L46 47L47 47L47 46ZM16 48L16 49L15 49L15 50L16 50L16 49L18 49L18 48ZM23 48L23 49L24 49L24 50L27 50L27 49L24 49L24 48ZM47 49L47 50L49 50L49 49ZM50 49L50 52L51 52L51 51L52 51L52 50L51 50L51 49ZM9 50L9 51L10 51L10 50ZM17 50L17 51L19 51L19 50ZM41 50L41 51L42 51L42 50ZM13 51L13 52L14 52L14 51ZM26 51L26 52L27 52L27 51ZM0 0L0 7L7 7L7 0ZM1 1L1 6L6 6L6 1ZM2 2L2 5L5 5L5 2ZM46 0L46 7L53 7L53 0ZM47 1L47 6L52 6L52 1ZM48 2L48 5L51 5L51 2ZM0 46L0 53L7 53L7 46ZM1 47L1 52L6 52L6 47ZM2 48L2 51L5 51L5 48Z" fill="#000000"/></g></g></svg>
