<?xml version="1.0" encoding="UTF-8"?>
<svg xmlns="http://www.w3.org/2000/svg" version="1.1" width="356" height="356" viewBox="0 0 356 356"><rect x="0" y="0" width="356" height="356" fill="#ffffff"/><g transform="scale(6.717)"><g transform="translate(0,0)"><path fill-rule="evenodd" d="M9 0L9 1L8 1L8 2L9 2L9 1L10 1L10 2L11 2L11 1L10 1L10 0ZM16 0L16 1L15 1L15 2L14 2L14 1L12 1L12 2L14 2L14 3L15 3L15 2L16 2L16 4L13 4L13 5L11 5L11 4L12 4L12 3L10 3L10 4L9 4L9 3L8 3L8 4L9 4L9 5L8 5L8 7L9 7L9 5L11 5L11 6L10 6L10 8L6 8L6 9L5 9L5 8L0 8L0 9L2 9L2 10L1 10L1 12L0 12L0 13L1 13L1 12L2 12L2 14L3 14L3 12L5 12L5 11L7 11L7 12L6 12L6 13L7 13L7 14L6 14L6 15L5 15L5 16L4 16L4 15L3 15L3 16L2 16L2 15L1 15L1 14L0 14L0 15L1 15L1 18L0 18L0 19L1 19L1 20L3 20L3 18L2 18L2 17L3 17L3 16L4 16L4 17L5 17L5 18L4 18L4 23L0 23L0 25L1 25L1 26L0 26L0 28L1 28L1 27L2 27L2 28L3 28L3 29L2 29L2 31L3 31L3 34L2 34L2 35L1 35L1 33L2 33L2 32L1 32L1 33L0 33L0 35L1 35L1 36L2 36L2 37L4 37L4 39L1 39L1 40L0 40L0 41L1 41L1 40L5 40L5 41L3 41L3 43L2 43L2 42L0 42L0 43L1 43L1 44L3 44L3 45L4 45L4 44L3 44L3 43L8 43L8 44L9 44L9 45L8 45L8 47L9 47L9 48L8 48L8 53L9 53L9 51L10 51L10 50L9 50L9 49L10 49L10 47L13 47L13 49L12 49L12 50L13 50L13 51L12 51L12 52L11 52L11 53L13 53L13 51L16 51L16 52L14 52L14 53L19 53L19 51L20 51L20 50L19 50L19 49L20 49L20 47L19 47L19 46L20 46L20 45L21 45L21 46L22 46L22 47L21 47L21 48L22 48L22 49L21 49L21 50L22 50L22 49L23 49L23 48L24 48L24 49L25 49L25 51L27 51L27 52L28 52L28 51L27 51L27 50L28 50L28 49L29 49L29 50L31 50L31 49L32 49L32 46L33 46L33 49L37 49L37 50L38 50L38 48L34 48L34 46L33 46L33 45L34 45L34 44L35 44L35 47L36 47L36 45L38 45L38 44L40 44L40 43L41 43L41 45L40 45L40 46L37 46L37 47L40 47L40 46L42 46L42 48L41 48L41 49L40 49L40 50L39 50L39 51L40 51L40 52L37 52L37 51L36 51L36 50L35 50L35 51L34 51L34 50L32 50L32 51L29 51L29 53L30 53L30 52L31 52L31 53L32 53L32 51L34 51L34 52L33 52L33 53L40 53L40 52L41 52L41 53L44 53L44 52L43 52L43 51L44 51L44 49L45 49L45 51L48 51L48 53L49 53L49 52L50 52L50 53L51 53L51 52L52 52L52 51L53 51L53 50L52 50L52 49L53 49L53 47L51 47L51 45L53 45L53 43L51 43L51 45L50 45L50 47L49 47L49 44L50 44L50 43L49 43L49 42L50 42L50 41L49 41L49 40L50 40L50 38L52 38L52 37L53 37L53 36L52 36L52 35L51 35L51 36L52 36L52 37L50 37L50 34L52 34L52 33L51 33L51 32L53 32L53 31L51 31L51 32L50 32L50 29L49 29L49 28L50 28L50 27L49 27L49 24L50 24L50 26L52 26L52 25L53 25L53 23L52 23L52 24L50 24L50 22L51 22L51 21L52 21L52 20L53 20L53 19L51 19L51 18L52 18L52 17L53 17L53 16L50 16L50 17L51 17L51 18L49 18L49 16L48 16L48 15L46 15L46 14L45 14L45 15L43 15L43 14L44 14L44 13L42 13L42 12L43 12L43 11L44 11L44 12L45 12L45 13L46 13L46 12L47 12L47 13L49 13L49 14L50 14L50 13L51 13L51 14L53 14L53 13L52 13L52 12L53 12L53 11L52 11L52 12L50 12L50 11L51 11L51 9L52 9L52 8L51 8L51 9L50 9L50 8L49 8L49 9L50 9L50 11L49 11L49 10L47 10L47 11L46 11L46 10L45 10L45 11L44 11L44 10L43 10L43 9L46 9L46 8L45 8L45 6L44 6L44 7L43 7L43 3L44 3L44 4L45 4L45 3L44 3L44 1L43 1L43 0L40 0L40 1L39 1L39 3L40 3L40 2L43 2L43 3L41 3L41 4L42 4L42 8L41 8L41 5L40 5L40 7L39 7L39 5L38 5L38 4L37 4L37 3L38 3L38 0L35 0L35 1L34 1L34 2L33 2L33 1L32 1L32 0L28 0L28 1L32 1L32 2L27 2L27 3L25 3L25 4L21 4L21 3L22 3L22 2L23 2L23 3L24 3L24 2L23 2L23 1L25 1L25 2L26 2L26 0L23 0L23 1L22 1L22 2L21 2L21 3L18 3L18 2L20 2L20 1L19 1L19 0ZM35 1L35 2L34 2L34 3L31 3L31 4L32 4L32 5L31 5L31 8L32 8L32 9L33 9L33 10L34 10L34 13L33 13L33 11L31 11L31 10L30 10L30 13L31 13L31 15L30 15L30 14L29 14L29 12L28 12L28 13L26 13L26 12L27 12L27 11L29 11L29 9L28 9L28 10L27 10L27 9L25 9L25 10L27 10L27 11L26 11L26 12L25 12L25 13L24 13L24 12L22 12L22 11L21 11L21 13L20 13L20 12L19 12L19 13L15 13L15 11L16 11L16 12L17 12L17 11L20 11L20 10L18 10L18 9L22 9L22 10L23 10L23 11L24 11L24 8L22 8L22 6L23 6L23 7L24 7L24 5L22 5L22 6L21 6L21 4L20 4L20 6L19 6L19 4L16 4L16 5L18 5L18 6L17 6L17 7L16 7L16 6L15 6L15 5L13 5L13 7L14 7L14 8L13 8L13 9L14 9L14 10L13 10L13 11L12 11L12 12L11 12L11 14L12 14L12 17L10 17L10 19L11 19L11 20L13 20L13 21L15 21L15 22L12 22L12 21L10 21L10 22L9 22L9 20L7 20L7 19L9 19L9 16L10 16L10 15L9 15L9 14L10 14L10 10L8 10L8 11L9 11L9 13L8 13L8 14L7 14L7 15L6 15L6 16L5 16L5 17L6 17L6 18L5 18L5 21L6 21L6 22L5 22L5 23L4 23L4 24L2 24L2 25L3 25L3 27L4 27L4 24L7 24L7 23L9 23L9 26L13 26L13 27L12 27L12 28L13 28L13 29L12 29L12 30L10 30L10 31L9 31L9 30L7 30L7 29L6 29L6 30L7 30L7 31L6 31L6 32L4 32L4 33L5 33L5 34L3 34L3 36L4 36L4 37L5 37L5 39L6 39L6 40L9 40L9 41L10 41L10 42L8 42L8 43L9 43L9 44L10 44L10 45L11 45L11 46L12 46L12 44L13 44L13 45L15 45L15 46L17 46L17 47L18 47L18 45L15 45L15 43L16 43L16 44L19 44L19 43L20 43L20 42L18 42L18 41L21 41L21 43L25 43L25 40L26 40L26 41L27 41L27 42L26 42L26 44L29 44L29 43L30 43L30 44L31 44L31 42L32 42L32 45L33 45L33 44L34 44L34 43L33 43L33 42L35 42L35 43L37 43L37 42L39 42L39 41L41 41L41 42L42 42L42 43L43 43L43 44L42 44L42 45L44 45L44 43L43 43L43 42L46 42L46 43L45 43L45 44L46 44L46 43L48 43L48 44L49 44L49 43L48 43L48 42L47 42L47 41L48 41L48 40L47 40L47 39L48 39L48 38L43 38L43 39L46 39L46 40L47 40L47 41L44 41L44 40L43 40L43 42L42 42L42 38L41 38L41 36L39 36L39 35L41 35L41 34L42 34L42 36L43 36L43 37L45 37L45 36L44 36L44 35L43 35L43 34L44 34L44 31L45 31L45 33L46 33L46 34L45 34L45 35L46 35L46 37L49 37L49 38L50 38L50 37L49 37L49 35L48 35L48 36L47 36L47 33L48 33L48 32L49 32L49 31L47 31L47 30L46 30L46 29L45 29L45 30L43 30L43 32L42 32L42 30L41 30L41 32L39 32L39 29L42 29L42 28L43 28L43 29L44 29L44 27L43 27L43 26L41 26L41 27L40 27L40 25L41 25L41 24L42 24L42 23L43 23L43 24L44 24L44 22L46 22L46 23L47 23L47 24L48 24L48 23L47 23L47 22L48 22L48 21L44 21L44 20L46 20L46 19L44 19L44 20L43 20L43 19L41 19L41 18L40 18L40 19L41 19L41 20L39 20L39 19L38 19L38 18L39 18L39 17L43 17L43 15L38 15L38 16L39 16L39 17L38 17L38 18L37 18L37 19L38 19L38 20L37 20L37 21L36 21L36 22L35 22L35 21L33 21L33 20L31 20L31 22L32 22L32 21L33 21L33 22L35 22L35 23L37 23L37 24L40 24L40 25L38 25L38 27L37 27L37 26L35 26L35 25L33 25L33 24L34 24L34 23L33 23L33 24L32 24L32 23L31 23L31 24L32 24L32 26L30 26L30 27L31 27L31 28L29 28L29 29L28 29L28 31L25 31L25 29L24 29L24 28L22 28L22 26L23 26L23 25L24 25L24 24L23 24L23 23L24 23L24 22L23 22L23 21L25 21L25 22L26 22L26 24L27 24L27 22L28 22L28 23L30 23L30 22L28 22L28 20L29 20L29 21L30 21L30 20L29 20L29 19L32 19L32 17L33 17L33 18L35 18L35 20L36 20L36 17L35 17L35 16L32 16L32 15L35 15L35 11L36 11L36 10L37 10L37 12L39 12L39 13L37 13L37 14L36 14L36 15L37 15L37 14L40 14L40 13L41 13L41 8L39 8L39 7L38 7L38 5L37 5L37 7L38 7L38 8L37 8L37 9L36 9L36 10L35 10L35 9L34 9L34 8L36 8L36 6L35 6L35 7L34 7L34 5L36 5L36 4L35 4L35 3L36 3L36 2L37 2L37 1ZM27 3L27 4L30 4L30 3ZM33 4L33 5L32 5L32 8L34 8L34 7L33 7L33 5L34 5L34 4ZM25 5L25 8L28 8L28 5ZM29 5L29 8L30 8L30 5ZM11 6L11 10L12 10L12 6ZM14 6L14 7L15 7L15 8L16 8L16 7L15 7L15 6ZM18 6L18 7L19 7L19 6ZM20 6L20 8L21 8L21 6ZM26 6L26 7L27 7L27 6ZM17 8L17 9L18 9L18 8ZM38 8L38 9L37 9L37 10L38 10L38 9L39 9L39 8ZM42 8L42 9L43 9L43 8ZM47 8L47 9L48 9L48 8ZM3 9L3 10L2 10L2 12L3 12L3 11L4 11L4 9ZM6 9L6 10L7 10L7 9ZM15 9L15 10L16 10L16 9ZM39 10L39 12L40 12L40 10ZM13 11L13 12L12 12L12 14L13 14L13 15L14 15L14 16L13 16L13 17L12 17L12 18L13 18L13 20L14 20L14 18L13 18L13 17L16 17L16 18L15 18L15 19L16 19L16 20L15 20L15 21L17 21L17 22L15 22L15 24L17 24L17 25L18 25L18 26L17 26L17 28L16 28L16 27L14 27L14 28L15 28L15 29L13 29L13 30L12 30L12 31L14 31L14 32L13 32L13 33L12 33L12 32L11 32L11 31L10 31L10 32L11 32L11 33L10 33L10 34L9 34L9 32L8 32L8 33L7 33L7 32L6 32L6 33L7 33L7 34L5 34L5 36L6 36L6 37L7 37L7 38L6 38L6 39L7 39L7 38L9 38L9 40L10 40L10 41L12 41L12 42L13 42L13 44L14 44L14 41L13 41L13 40L14 40L14 39L12 39L12 38L14 38L14 36L12 36L12 38L11 38L11 39L10 39L10 37L7 37L7 36L9 36L9 35L10 35L10 36L11 36L11 34L13 34L13 33L16 33L16 34L15 34L15 35L16 35L16 36L15 36L15 37L21 37L21 36L17 36L17 35L20 35L20 34L19 34L19 33L20 33L20 32L19 32L19 29L21 29L21 30L22 30L22 31L21 31L21 32L22 32L22 33L21 33L21 34L22 34L22 33L23 33L23 32L24 32L24 33L26 33L26 32L24 32L24 31L23 31L23 30L22 30L22 29L21 29L21 26L22 26L22 24L21 24L21 23L23 23L23 22L22 22L22 21L21 21L21 23L20 23L20 21L19 21L19 20L17 20L17 18L18 18L18 19L20 19L20 18L19 18L19 17L20 17L20 16L21 16L21 17L22 17L22 18L23 18L23 17L26 17L26 13L25 13L25 15L23 15L23 13L22 13L22 14L21 14L21 15L20 15L20 13L19 13L19 14L18 14L18 15L16 15L16 16L15 16L15 13L13 13L13 12L14 12L14 11ZM47 11L47 12L49 12L49 13L50 13L50 12L49 12L49 11ZM31 12L31 13L32 13L32 14L33 14L33 13L32 13L32 12ZM4 13L4 14L5 14L5 13ZM7 15L7 16L6 16L6 17L7 17L7 18L6 18L6 19L7 19L7 18L8 18L8 17L7 17L7 16L9 16L9 15ZM19 15L19 16L20 16L20 15ZM27 15L27 17L28 17L28 18L27 18L27 19L28 19L28 18L31 18L31 17L32 17L32 16L31 16L31 17L28 17L28 16L29 16L29 15ZM16 16L16 17L18 17L18 16ZM22 16L22 17L23 17L23 16ZM44 16L44 18L47 18L47 20L48 20L48 19L49 19L49 18L47 18L47 17L48 17L48 16ZM25 18L25 19L22 19L22 20L26 20L26 22L27 22L27 20L26 20L26 18ZM50 19L50 20L51 20L51 19ZM6 20L6 21L7 21L7 22L6 22L6 23L7 23L7 22L8 22L8 21L7 21L7 20ZM41 20L41 21L39 21L39 23L40 23L40 24L41 24L41 23L42 23L42 22L44 22L44 21L43 21L43 20ZM0 21L0 22L1 22L1 21ZM2 21L2 22L3 22L3 21ZM37 21L37 23L38 23L38 21ZM11 22L11 23L12 23L12 22ZM18 22L18 23L17 23L17 24L18 24L18 25L21 25L21 24L20 24L20 23L19 23L19 22ZM40 22L40 23L41 23L41 22ZM13 23L13 24L14 24L14 23ZM10 24L10 25L12 25L12 24ZM29 24L29 25L30 25L30 24ZM5 25L5 28L8 28L8 25ZM13 25L13 26L14 26L14 25ZM15 25L15 26L16 26L16 25ZM25 25L25 28L28 28L28 25ZM45 25L45 28L48 28L48 25ZM6 26L6 27L7 27L7 26ZM19 26L19 27L18 27L18 28L19 28L19 27L20 27L20 26ZM26 26L26 27L27 27L27 26ZM32 26L32 27L33 27L33 26ZM46 26L46 27L47 27L47 26ZM10 27L10 28L9 28L9 29L11 29L11 27ZM34 27L34 28L35 28L35 29L36 29L36 30L35 30L35 31L34 31L34 30L32 30L32 28L31 28L31 29L29 29L29 30L32 30L32 31L33 31L33 33L35 33L35 34L31 34L31 33L32 33L32 32L31 32L31 31L30 31L30 32L29 32L29 34L30 34L30 35L32 35L32 36L31 36L31 37L30 37L30 36L28 36L28 37L27 37L27 38L28 38L28 39L26 39L26 36L27 36L27 35L26 35L26 34L24 34L24 35L23 35L23 37L25 37L25 38L24 38L24 39L23 39L23 42L24 42L24 40L25 40L25 39L26 39L26 40L28 40L28 39L29 39L29 40L30 40L30 39L32 39L32 40L31 40L31 41L28 41L28 42L31 42L31 41L32 41L32 42L33 42L33 41L34 41L34 40L35 40L35 42L36 42L36 41L37 41L37 40L38 40L38 39L37 39L37 38L38 38L38 37L39 37L39 36L38 36L38 35L39 35L39 34L37 34L37 33L39 33L39 32L38 32L38 31L37 31L37 32L36 32L36 30L38 30L38 29L39 29L39 28L40 28L40 27L38 27L38 29L37 29L37 28L35 28L35 27ZM51 28L51 30L53 30L53 28ZM0 29L0 31L1 31L1 29ZM3 29L3 31L5 31L5 30L4 30L4 29ZM15 29L15 31L18 31L18 29ZM26 29L26 30L27 30L27 29ZM16 32L16 33L18 33L18 32ZM27 32L27 34L28 34L28 32ZM35 32L35 33L36 33L36 32ZM40 33L40 34L41 34L41 33ZM42 33L42 34L43 34L43 33ZM7 34L7 35L6 35L6 36L7 36L7 35L8 35L8 34ZM33 35L33 36L32 36L32 37L31 37L31 38L32 38L32 39L33 39L33 38L36 38L36 37L33 37L33 36L37 36L37 35ZM28 37L28 38L29 38L29 39L30 39L30 38L29 38L29 37ZM32 37L32 38L33 38L33 37ZM16 38L16 40L17 40L17 41L18 41L18 40L17 40L17 39L18 39L18 38ZM20 38L20 40L21 40L21 41L22 41L22 40L21 40L21 39L22 39L22 38ZM40 38L40 39L41 39L41 38ZM35 39L35 40L36 40L36 39ZM52 39L52 40L53 40L53 39ZM32 40L32 41L33 41L33 40ZM5 41L5 42L7 42L7 41ZM15 41L15 42L16 42L16 41ZM51 41L51 42L52 42L52 41ZM10 43L10 44L12 44L12 43ZM6 44L6 45L7 45L7 44ZM21 44L21 45L22 45L22 46L23 46L23 47L24 47L24 46L23 46L23 45L24 45L24 44ZM25 45L25 48L28 48L28 45ZM45 45L45 48L48 48L48 45ZM13 46L13 47L14 47L14 46ZM26 46L26 47L27 47L27 46ZM29 46L29 48L30 48L30 49L31 49L31 47L30 47L30 46ZM43 46L43 48L44 48L44 46ZM46 46L46 47L47 47L47 46ZM50 47L50 48L51 48L51 47ZM16 48L16 49L15 49L15 50L16 50L16 49L18 49L18 48ZM13 49L13 50L14 50L14 49ZM26 49L26 50L27 50L27 49ZM41 49L41 50L40 50L40 51L41 51L41 50L42 50L42 51L43 51L43 50L42 50L42 49ZM47 49L47 50L49 50L49 51L50 51L50 52L51 52L51 51L52 51L52 50L51 50L51 51L50 51L50 50L49 50L49 49ZM17 50L17 51L19 51L19 50ZM35 51L35 52L36 52L36 51ZM20 52L20 53L21 53L21 52ZM23 52L23 53L25 53L25 52ZM0 0L0 7L7 7L7 0ZM1 1L1 6L6 6L6 1ZM2 2L2 5L5 5L5 2ZM46 0L46 7L53 7L53 0ZM47 1L47 6L52 6L52 1ZM48 2L48 5L51 5L51 2ZM0 46L0 53L7 53L7 46ZM1 47L1 52L6 52L6 47ZM2 48L2 51L5 51L5 48Z" fill="#000000"/></g></g></svg>
