<?xml version="1.0" encoding="UTF-8"?>
<svg xmlns="http://www.w3.org/2000/svg" version="1.1" width="356" height="356" viewBox="0 0 356 356"><rect x="0" y="0" width="356" height="356" fill="#ffffff"/><g transform="scale(6.717)"><g transform="translate(0,0)"><path fill-rule="evenodd" d="M8 0L8 2L9 2L9 3L10 3L10 7L9 7L9 4L8 4L8 9L7 9L7 8L5 8L5 10L4 10L4 9L3 9L3 8L0 8L0 9L2 9L2 10L0 10L0 13L1 13L1 14L0 14L0 15L1 15L1 16L2 16L2 17L0 17L0 18L1 18L1 20L0 20L0 21L2 21L2 22L0 22L0 23L2 23L2 22L4 22L4 23L5 23L5 24L3 24L3 25L2 25L2 24L0 24L0 26L1 26L1 25L2 25L2 27L1 27L1 28L0 28L0 32L2 32L2 33L3 33L3 31L4 31L4 33L7 33L7 34L4 34L4 35L3 35L3 36L6 36L6 37L4 37L4 38L3 38L3 37L2 37L2 34L1 34L1 33L0 33L0 34L1 34L1 37L0 37L0 39L2 39L2 40L0 40L0 43L1 43L1 44L3 44L3 45L4 45L4 44L3 44L3 43L7 43L7 42L6 42L6 41L8 41L8 43L9 43L9 44L10 44L10 43L11 43L11 42L12 42L12 44L11 44L11 45L10 45L10 46L9 46L9 45L8 45L8 44L6 44L6 45L8 45L8 46L9 46L9 47L8 47L8 48L9 48L9 49L10 49L10 50L8 50L8 53L9 53L9 52L10 52L10 53L11 53L11 52L13 52L13 53L14 53L14 51L15 51L15 53L16 53L16 52L18 52L18 53L19 53L19 52L18 52L18 49L19 49L19 48L18 48L18 47L20 47L20 49L21 49L21 47L20 47L20 45L19 45L19 44L21 44L21 43L20 43L20 42L22 42L22 43L23 43L23 44L22 44L22 45L24 45L24 46L23 46L23 47L22 47L22 48L23 48L23 49L25 49L25 51L24 51L24 53L26 53L26 49L29 49L29 50L28 50L28 51L27 51L27 52L28 52L28 53L29 53L29 52L30 52L30 53L31 53L31 52L32 52L32 53L33 53L33 52L34 52L34 53L35 53L35 50L34 50L34 48L32 48L32 47L35 47L35 49L37 49L37 50L36 50L36 51L37 51L37 52L36 52L36 53L37 53L37 52L38 52L38 53L41 53L41 52L42 52L42 51L40 51L40 50L39 50L39 52L38 52L38 49L39 49L39 47L40 47L40 49L41 49L41 50L42 50L42 44L43 44L43 49L45 49L45 50L44 50L44 51L45 51L45 52L44 52L44 53L45 53L45 52L46 52L46 53L49 53L49 52L50 52L50 51L51 51L51 50L50 50L50 51L49 51L49 48L50 48L50 46L52 46L52 47L51 47L51 49L52 49L52 47L53 47L53 46L52 46L52 44L53 44L53 42L52 42L52 44L50 44L50 43L51 43L51 42L50 42L50 41L51 41L51 40L50 40L50 39L51 39L51 36L50 36L50 35L47 35L47 34L48 34L48 33L49 33L49 34L51 34L51 33L52 33L52 32L53 32L53 29L52 29L52 27L53 27L53 26L52 26L52 27L51 27L51 28L50 28L50 27L49 27L49 25L50 25L50 26L51 26L51 25L52 25L52 24L53 24L53 22L52 22L52 24L51 24L51 25L50 25L50 23L51 23L51 21L53 21L53 18L52 18L52 20L51 20L51 21L50 21L50 18L51 18L51 17L50 17L50 16L49 16L49 15L51 15L51 16L52 16L52 15L53 15L53 14L52 14L52 13L53 13L53 10L52 10L52 9L53 9L53 8L51 8L51 10L52 10L52 11L51 11L51 12L50 12L50 11L49 11L49 10L50 10L50 9L49 9L49 8L45 8L45 6L44 6L44 7L43 7L43 3L44 3L44 4L45 4L45 3L44 3L44 1L43 1L43 0L38 0L38 1L37 1L37 0L36 0L36 2L35 2L35 0L34 0L34 1L33 1L33 0L32 0L32 2L31 2L31 0L30 0L30 2L29 2L29 3L28 3L28 1L29 1L29 0L27 0L27 2L26 2L26 4L25 4L25 3L24 3L24 7L23 7L23 6L22 6L22 7L21 7L21 6L20 6L20 5L22 5L22 2L25 2L25 0L24 0L24 1L23 1L23 0L18 0L18 1L16 1L16 2L18 2L18 1L19 1L19 4L20 4L20 5L18 5L18 3L15 3L15 5L16 5L16 7L17 7L17 6L18 6L18 8L19 8L19 12L18 12L18 10L16 10L16 11L17 11L17 12L18 12L18 14L16 14L16 12L14 12L14 9L15 9L15 8L14 8L14 7L15 7L15 6L14 6L14 7L13 7L13 5L11 5L11 4L12 4L12 3L13 3L13 2L14 2L14 1L15 1L15 0L13 0L13 1L12 1L12 0ZM10 1L10 2L11 2L11 3L12 3L12 2L11 2L11 1ZM20 1L20 2L22 2L22 1ZM39 1L39 2L38 2L38 3L36 3L36 4L37 4L37 5L36 5L36 6L35 6L35 7L34 7L34 6L33 6L33 9L34 9L34 10L35 10L35 9L36 9L36 8L39 8L39 9L38 9L38 10L37 10L37 11L36 11L36 12L35 12L35 11L34 11L34 12L33 12L33 10L31 10L31 9L32 9L32 5L33 5L33 3L34 3L34 4L35 4L35 3L34 3L34 2L32 2L32 5L30 5L30 4L31 4L31 2L30 2L30 3L29 3L29 5L30 5L30 6L29 6L29 7L30 7L30 8L29 8L29 9L30 9L30 10L31 10L31 11L32 11L32 12L30 12L30 11L28 11L28 9L26 9L26 10L25 10L25 9L24 9L24 8L23 8L23 9L22 9L22 8L21 8L21 10L20 10L20 11L22 11L22 10L23 10L23 9L24 9L24 10L25 10L25 11L24 11L24 12L23 12L23 14L22 14L22 15L21 15L21 16L22 16L22 15L24 15L24 16L23 16L23 21L22 21L22 19L20 19L20 18L21 18L21 17L20 17L20 14L21 14L21 13L22 13L22 12L20 12L20 14L19 14L19 15L18 15L18 16L19 16L19 17L18 17L18 18L19 18L19 20L21 20L21 21L20 21L20 22L19 22L19 21L18 21L18 19L17 19L17 18L16 18L16 19L17 19L17 20L16 20L16 23L14 23L14 24L15 24L15 25L14 25L14 26L15 26L15 28L16 28L16 30L13 30L13 29L12 29L12 28L11 28L11 27L9 27L9 29L5 29L5 31L6 31L6 32L7 32L7 31L8 31L8 30L9 30L9 31L11 31L11 30L13 30L13 31L12 31L12 32L8 32L8 33L9 33L9 34L8 34L8 35L9 35L9 36L7 36L7 35L6 35L6 36L7 36L7 37L6 37L6 38L7 38L7 39L5 39L5 38L4 38L4 39L5 39L5 40L7 40L7 39L8 39L8 41L9 41L9 43L10 43L10 41L11 41L11 40L12 40L12 41L13 41L13 40L12 40L12 38L13 38L13 37L14 37L14 38L15 38L15 39L14 39L14 40L15 40L15 41L14 41L14 42L15 42L15 43L14 43L14 44L12 44L12 45L11 45L11 46L10 46L10 47L9 47L9 48L10 48L10 49L11 49L11 47L12 47L12 49L13 49L13 50L14 50L14 49L15 49L15 48L16 48L16 47L17 47L17 46L19 46L19 45L18 45L18 43L19 43L19 40L20 40L20 39L21 39L21 38L22 38L22 36L23 36L23 34L24 34L24 33L25 33L25 36L24 36L24 37L23 37L23 38L24 38L24 39L22 39L22 40L23 40L23 41L22 41L22 42L24 42L24 44L26 44L26 43L25 43L25 42L24 42L24 41L26 41L26 40L27 40L27 44L29 44L29 41L30 41L30 43L31 43L31 44L30 44L30 47L29 47L29 49L30 49L30 50L29 50L29 51L28 51L28 52L29 52L29 51L31 51L31 50L32 50L32 52L33 52L33 49L32 49L32 48L31 48L31 49L30 49L30 47L32 47L32 46L31 46L31 45L32 45L32 44L33 44L33 45L34 45L34 46L35 46L35 47L39 47L39 45L40 45L40 46L41 46L41 45L40 45L40 44L42 44L42 43L40 43L40 44L39 44L39 43L38 43L38 44L37 44L37 45L36 45L36 43L35 43L35 42L36 42L36 39L37 39L37 40L38 40L38 39L37 39L37 38L36 38L36 36L37 36L37 35L35 35L35 32L34 32L34 31L35 31L35 30L36 30L36 31L37 31L37 30L36 30L36 27L38 27L38 26L39 26L39 27L40 27L40 28L38 28L38 30L39 30L39 31L38 31L38 32L37 32L37 33L38 33L38 36L39 36L39 37L38 37L38 38L40 38L40 40L39 40L39 41L38 41L38 42L40 42L40 40L41 40L41 41L42 41L42 42L43 42L43 44L44 44L44 41L45 41L45 40L46 40L46 42L47 42L47 39L46 39L46 38L47 38L47 35L46 35L46 34L45 34L45 36L46 36L46 37L45 37L45 40L44 40L44 41L43 41L43 40L42 40L42 39L43 39L43 38L44 38L44 37L42 37L42 35L43 35L43 36L44 36L44 33L46 33L46 30L45 30L45 29L44 29L44 27L43 27L43 29L42 29L42 30L41 30L41 29L40 29L40 28L42 28L42 26L43 26L43 25L44 25L44 22L45 22L45 24L46 24L46 22L47 22L47 24L49 24L49 23L50 23L50 22L49 22L49 21L48 21L48 20L49 20L49 17L48 17L48 20L47 20L47 21L46 21L46 20L45 20L45 17L46 17L46 19L47 19L47 17L46 17L46 15L44 15L44 14L45 14L45 13L44 13L44 14L43 14L43 13L42 13L42 14L41 14L41 13L40 13L40 12L41 12L41 11L39 11L39 10L40 10L40 8L41 8L41 9L42 9L42 12L44 12L44 10L45 10L45 9L44 9L44 8L43 8L43 7L42 7L42 6L41 6L41 7L40 7L40 6L39 6L39 5L38 5L38 3L39 3L39 2L40 2L40 5L41 5L41 2L40 2L40 1ZM42 2L42 3L43 3L43 2ZM27 3L27 4L28 4L28 3ZM25 5L25 8L28 8L28 5ZM37 5L37 6L36 6L36 7L37 7L37 6L38 6L38 7L39 7L39 8L40 8L40 7L39 7L39 6L38 6L38 5ZM11 6L11 9L13 9L13 8L12 8L12 6ZM19 6L19 8L20 8L20 6ZM26 6L26 7L27 7L27 6ZM30 6L30 7L31 7L31 6ZM41 7L41 8L42 8L42 7ZM16 8L16 9L17 9L17 8ZM30 8L30 9L31 9L31 8ZM6 9L6 10L7 10L7 9ZM9 9L9 11L8 11L8 12L9 12L9 11L11 11L11 12L12 12L12 13L11 13L11 14L10 14L10 13L6 13L6 14L7 14L7 15L6 15L6 16L4 16L4 15L3 15L3 14L2 14L2 16L3 16L3 17L2 17L2 19L3 19L3 17L4 17L4 19L5 19L5 20L4 20L4 21L5 21L5 23L6 23L6 24L7 24L7 23L6 23L6 22L7 22L7 21L6 21L6 20L9 20L9 21L8 21L8 22L9 22L9 21L10 21L10 18L9 18L9 15L11 15L11 16L10 16L10 17L11 17L11 16L12 16L12 17L13 17L13 18L12 18L12 19L11 19L11 22L12 22L12 23L13 23L13 20L12 20L12 19L14 19L14 20L15 20L15 19L14 19L14 18L15 18L15 16L14 16L14 15L16 15L16 14L13 14L13 11L12 11L12 10L10 10L10 9ZM43 9L43 10L44 10L44 9ZM46 9L46 10L47 10L47 12L46 12L46 11L45 11L45 12L46 12L46 14L48 14L48 9ZM3 10L3 11L4 11L4 10ZM1 11L1 12L2 12L2 13L3 13L3 12L2 12L2 11ZM6 11L6 12L7 12L7 11ZM25 11L25 12L26 12L26 14L24 14L24 15L25 15L25 17L24 17L24 18L25 18L25 17L29 17L29 18L28 18L28 19L27 19L27 20L26 20L26 19L25 19L25 22L27 22L27 24L26 24L26 23L25 23L25 24L24 24L24 21L23 21L23 24L22 24L22 21L21 21L21 22L20 22L20 24L19 24L19 23L18 23L18 24L19 24L19 26L18 26L18 27L17 27L17 26L16 26L16 27L17 27L17 28L18 28L18 29L19 29L19 28L22 28L22 29L23 29L23 31L22 31L22 32L23 32L23 33L24 33L24 32L25 32L25 29L29 29L29 27L30 27L30 29L31 29L31 30L32 30L32 29L33 29L33 31L34 31L34 29L35 29L35 28L34 28L34 27L36 27L36 25L37 25L37 26L38 26L38 25L37 25L37 24L36 24L36 22L34 22L34 21L35 21L35 20L36 20L36 21L37 21L37 23L39 23L39 24L40 24L40 25L39 25L39 26L40 26L40 27L41 27L41 26L42 26L42 25L43 25L43 24L42 24L42 20L41 20L41 18L42 18L42 17L43 17L43 18L44 18L44 17L45 17L45 16L44 16L44 15L43 15L43 14L42 14L42 15L41 15L41 16L40 16L40 15L38 15L38 17L37 17L37 16L36 16L36 14L37 14L37 12L38 12L38 13L39 13L39 12L38 12L38 11L37 11L37 12L36 12L36 14L34 14L34 13L35 13L35 12L34 12L34 13L33 13L33 12L32 12L32 13L31 13L31 14L30 14L30 12L28 12L28 13L27 13L27 12L26 12L26 11ZM28 13L28 14L27 14L27 15L26 15L26 16L27 16L27 15L28 15L28 14L29 14L29 13ZM50 13L50 14L51 14L51 15L52 15L52 14L51 14L51 13ZM8 14L8 15L9 15L9 14ZM11 14L11 15L13 15L13 14ZM31 14L31 15L30 15L30 20L29 20L29 19L28 19L28 20L27 20L27 21L30 21L30 22L31 22L31 25L30 25L30 27L31 27L31 29L32 29L32 28L33 28L33 27L34 27L34 26L35 26L35 25L36 25L36 24L34 24L34 26L33 26L33 25L32 25L32 23L34 23L34 22L32 22L32 20L33 20L33 21L34 21L34 20L33 20L33 18L32 18L32 14ZM33 15L33 17L34 17L34 19L35 19L35 18L37 18L37 19L36 19L36 20L37 20L37 19L38 19L38 20L39 20L39 21L38 21L38 22L39 22L39 23L40 23L40 16L39 16L39 17L38 17L38 18L37 18L37 17L36 17L36 16L35 16L35 17L34 17L34 15ZM6 16L6 17L7 17L7 16ZM43 16L43 17L44 17L44 16ZM6 18L6 19L8 19L8 18ZM31 18L31 20L32 20L32 18ZM38 18L38 19L39 19L39 18ZM2 20L2 21L3 21L3 20ZM17 21L17 22L18 22L18 21ZM45 21L45 22L46 22L46 21ZM48 22L48 23L49 23L49 22ZM9 23L9 24L11 24L11 23ZM16 23L16 25L17 25L17 23ZM12 24L12 27L13 27L13 28L14 28L14 27L13 27L13 24ZM3 25L3 27L2 27L2 28L1 28L1 31L3 31L3 29L2 29L2 28L3 28L3 27L4 27L4 25ZM5 25L5 28L8 28L8 25ZM9 25L9 26L11 26L11 25ZM21 25L21 26L20 26L20 27L21 27L21 26L23 26L23 25ZM25 25L25 28L28 28L28 25ZM31 25L31 27L32 27L32 25ZM45 25L45 28L48 28L48 25ZM6 26L6 27L7 27L7 26ZM26 26L26 27L27 27L27 26ZM46 26L46 27L47 27L47 26ZM10 28L10 29L9 29L9 30L10 30L10 29L11 29L11 28ZM48 29L48 30L47 30L47 33L48 33L48 30L49 30L49 31L50 31L50 32L49 32L49 33L51 33L51 31L52 31L52 30L51 30L51 29L50 29L50 30L49 30L49 29ZM6 30L6 31L7 31L7 30ZM16 30L16 32L15 32L15 31L14 31L14 32L15 32L15 34L13 34L13 32L12 32L12 33L10 33L10 34L9 34L9 35L12 35L12 37L11 37L11 36L10 36L10 37L11 37L11 38L10 38L10 39L9 39L9 40L10 40L10 39L11 39L11 38L12 38L12 37L13 37L13 35L15 35L15 36L14 36L14 37L15 37L15 38L16 38L16 36L17 36L17 35L16 35L16 34L18 34L18 38L19 38L19 39L18 39L18 40L19 40L19 39L20 39L20 38L19 38L19 34L18 34L18 33L19 33L19 32L18 32L18 31L21 31L21 30ZM26 30L26 31L27 31L27 32L26 32L26 33L27 33L27 32L28 32L28 34L26 34L26 35L27 35L27 36L26 36L26 37L27 37L27 36L28 36L28 37L29 37L29 40L28 40L28 39L27 39L27 38L26 38L26 39L24 39L24 40L26 40L26 39L27 39L27 40L28 40L28 41L29 41L29 40L30 40L30 41L31 41L31 40L30 40L30 39L32 39L32 43L33 43L33 44L34 44L34 45L35 45L35 46L36 46L36 45L35 45L35 43L34 43L34 41L35 41L35 39L36 39L36 38L35 38L35 39L34 39L34 37L35 37L35 35L34 35L34 32L32 32L32 33L33 33L33 35L32 35L32 38L30 38L30 37L29 37L29 36L28 36L28 34L29 34L29 35L30 35L30 33L31 33L31 31L30 31L30 33L29 33L29 32L28 32L28 31L29 31L29 30ZM40 30L40 33L41 33L41 35L42 35L42 31L44 31L44 32L43 32L43 33L44 33L44 32L45 32L45 31L44 31L44 30L42 30L42 31L41 31L41 30ZM50 30L50 31L51 31L51 30ZM23 31L23 32L24 32L24 31ZM20 32L20 33L21 33L21 32ZM38 32L38 33L39 33L39 32ZM12 34L12 35L13 35L13 34ZM20 34L20 35L22 35L22 34ZM39 34L39 35L40 35L40 34ZM52 34L52 35L53 35L53 34ZM33 35L33 36L34 36L34 35ZM40 36L40 38L41 38L41 39L42 39L42 37L41 37L41 36ZM48 36L48 38L49 38L49 39L48 39L48 40L49 40L49 39L50 39L50 36ZM1 37L1 38L2 38L2 39L3 39L3 38L2 38L2 37ZM24 37L24 38L25 38L25 37ZM52 37L52 39L53 39L53 37ZM32 38L32 39L33 39L33 40L34 40L34 39L33 39L33 38ZM15 39L15 40L16 40L16 41L17 41L17 39ZM2 40L2 41L1 41L1 42L2 42L2 43L3 43L3 42L4 42L4 41L3 41L3 40ZM52 40L52 41L53 41L53 40ZM48 41L48 42L49 42L49 41ZM16 42L16 43L18 43L18 42ZM47 43L47 44L48 44L48 43ZM14 44L14 45L13 45L13 46L12 46L12 47L16 47L16 44ZM38 44L38 45L39 45L39 44ZM49 44L49 46L50 46L50 44ZM25 45L25 48L28 48L28 45ZM45 45L45 48L48 48L48 45ZM26 46L26 47L27 47L27 46ZM46 46L46 47L47 47L47 46ZM47 49L47 50L46 50L46 52L49 52L49 51L48 51L48 49ZM10 50L10 52L11 52L11 51L12 51L12 50ZM16 50L16 51L17 51L17 50ZM20 50L20 51L21 51L21 52L20 52L20 53L21 53L21 52L22 52L22 53L23 53L23 52L22 52L22 50ZM52 52L52 53L53 53L53 52ZM0 0L0 7L7 7L7 0ZM1 1L1 6L6 6L6 1ZM2 2L2 5L5 5L5 2ZM46 0L46 7L53 7L53 0ZM47 1L47 6L52 6L52 1ZM48 2L48 5L51 5L51 2ZM0 46L0 53L7 53L7 46ZM1 47L1 52L6 52L6 47ZM2 48L2 51L5 51L5 48Z" fill="#000000"/></g></g></svg>
