<?xml version="1.0" encoding="UTF-8"?>
<svg xmlns="http://www.w3.org/2000/svg" version="1.1" width="356" height="356" viewBox="0 0 356 356"><rect x="0" y="0" width="356" height="356" fill="#ffffff"/><g transform="scale(6.717)"><g transform="translate(0,0)"><path fill-rule="evenodd" d="M8 0L8 1L10 1L10 2L8 2L8 5L9 5L9 6L8 6L8 7L9 7L9 6L10 6L10 7L11 7L11 6L12 6L12 8L13 8L13 9L11 9L11 8L10 8L10 10L12 10L12 11L9 11L9 14L5 14L5 12L6 12L6 13L8 13L8 12L6 12L6 11L8 11L8 9L9 9L9 8L8 8L8 9L7 9L7 8L6 8L6 9L7 9L7 10L6 10L6 11L4 11L4 12L0 12L0 16L1 16L1 18L0 18L0 20L2 20L2 21L0 21L0 24L1 24L1 25L0 25L0 26L2 26L2 27L3 27L3 28L4 28L4 29L3 29L3 30L2 30L2 29L1 29L1 28L0 28L0 29L1 29L1 30L2 30L2 31L1 31L1 32L0 32L0 33L1 33L1 32L2 32L2 31L5 31L5 33L4 33L4 32L3 32L3 34L0 34L0 35L1 35L1 36L0 36L0 37L2 37L2 35L4 35L4 34L5 34L5 33L7 33L7 32L6 32L6 31L7 31L7 30L8 30L8 33L11 33L11 34L9 34L9 35L8 35L8 34L6 34L6 35L5 35L5 36L4 36L4 39L3 39L3 38L0 38L0 39L1 39L1 41L2 41L2 42L0 42L0 43L1 43L1 44L3 44L3 45L4 45L4 44L3 44L3 43L7 43L7 42L8 42L8 46L9 46L9 44L10 44L10 43L9 43L9 42L10 42L10 41L11 41L11 40L12 40L12 41L13 41L13 40L14 40L14 41L16 41L16 42L17 42L17 41L16 41L16 40L17 40L17 39L20 39L20 43L17 43L17 45L18 45L18 46L16 46L16 47L17 47L17 48L18 48L18 49L20 49L20 50L21 50L21 49L20 49L20 48L18 48L18 46L20 46L20 47L23 47L23 48L22 48L22 49L23 49L23 48L24 48L24 50L25 50L25 49L26 49L26 51L27 51L27 53L28 53L28 51L29 51L29 53L30 53L30 52L31 52L31 53L34 53L34 52L37 52L37 53L40 53L40 52L41 52L41 53L45 53L45 52L44 52L44 51L43 51L43 50L45 50L45 49L46 49L46 50L47 50L47 51L48 51L48 52L46 52L46 53L48 53L48 52L50 52L50 51L51 51L51 53L52 53L52 50L51 50L51 49L53 49L53 47L52 47L52 46L53 46L53 45L50 45L50 46L51 46L51 48L49 48L49 44L51 44L51 42L50 42L50 41L52 41L52 42L53 42L53 40L50 40L50 39L47 39L47 38L44 38L44 37L43 37L43 33L44 33L44 36L46 36L46 37L47 37L47 36L49 36L49 37L51 37L51 39L53 39L53 38L52 38L52 37L53 37L53 35L52 35L52 33L51 33L51 31L50 31L50 30L48 30L48 29L51 29L51 28L50 28L50 27L53 27L53 26L51 26L51 25L53 25L53 24L52 24L52 21L53 21L53 19L52 19L52 21L51 21L51 19L50 19L50 18L51 18L51 17L52 17L52 18L53 18L53 16L51 16L51 17L49 17L49 19L50 19L50 21L49 21L49 23L51 23L51 24L50 24L50 26L49 26L49 24L46 24L46 23L45 23L45 22L43 22L43 20L42 20L42 19L43 19L43 18L42 18L42 17L45 17L45 19L44 19L44 21L47 21L47 22L48 22L48 19L47 19L47 18L48 18L48 15L50 15L50 14L51 14L51 15L53 15L53 13L52 13L52 10L51 10L51 8L48 8L48 9L49 9L49 11L46 11L46 12L48 12L48 13L49 13L49 14L46 14L46 13L44 13L44 12L45 12L45 11L42 11L42 10L44 10L44 9L43 9L43 8L42 8L42 9L41 9L41 6L42 6L42 7L43 7L43 3L44 3L44 4L45 4L45 3L44 3L44 1L43 1L43 0L42 0L42 2L43 2L43 3L41 3L41 4L42 4L42 5L41 5L41 6L40 6L40 4L39 4L39 1L40 1L40 2L41 2L41 0L39 0L39 1L38 1L38 0L35 0L35 1L33 1L33 2L28 2L28 1L32 1L32 0L28 0L28 1L27 1L27 0L23 0L23 1L24 1L24 2L23 2L23 3L24 3L24 7L23 7L23 5L22 5L22 4L21 4L21 3L22 3L22 0L21 0L21 1L19 1L19 0L16 0L16 2L15 2L15 1L13 1L13 0L12 0L12 3L11 3L11 5L10 5L10 4L9 4L9 3L10 3L10 2L11 2L11 1L10 1L10 0ZM17 1L17 2L16 2L16 3L15 3L15 2L13 2L13 4L12 4L12 6L13 6L13 7L14 7L14 6L15 6L15 8L14 8L14 10L13 10L13 11L12 11L12 13L14 13L14 14L13 14L13 15L12 15L12 16L14 16L14 19L15 19L15 17L16 17L16 18L17 18L17 19L18 19L18 18L19 18L19 16L20 16L20 15L23 15L23 14L17 14L17 13L16 13L16 14L17 14L17 15L19 15L19 16L18 16L18 18L17 18L17 16L16 16L16 15L15 15L15 16L14 16L14 14L15 14L15 12L16 12L16 11L17 11L17 10L18 10L18 9L16 9L16 11L14 11L14 10L15 10L15 8L17 8L17 7L18 7L18 6L17 6L17 4L16 4L16 3L17 3L17 2L19 2L19 1ZM20 2L20 3L21 3L21 2ZM25 2L25 3L28 3L28 2ZM35 2L35 3L36 3L36 2ZM29 3L29 7L30 7L30 8L29 8L29 9L28 9L28 11L26 11L26 9L25 9L25 10L24 10L24 12L23 12L23 11L22 11L22 10L23 10L23 9L22 9L22 10L19 10L19 11L18 11L18 12L19 12L19 13L20 13L20 11L21 11L21 13L24 13L24 15L26 15L26 16L27 16L27 17L28 17L28 15L27 15L27 13L29 13L29 15L31 15L31 16L29 16L29 17L30 17L30 18L27 18L27 20L25 20L25 19L26 19L26 18L24 18L24 21L23 21L23 22L24 22L24 24L22 24L22 25L21 25L21 24L18 24L18 22L17 22L17 20L14 20L14 21L15 21L15 23L14 23L14 22L13 22L13 20L12 20L12 22L10 22L10 21L11 21L11 12L10 12L10 15L9 15L9 16L10 16L10 17L9 17L9 19L8 19L8 20L7 20L7 19L6 19L6 20L5 20L5 21L4 21L4 20L3 20L3 19L4 19L4 16L5 16L5 15L4 15L4 16L3 16L3 17L2 17L2 18L1 18L1 19L2 19L2 20L3 20L3 21L2 21L2 22L1 22L1 23L2 23L2 24L3 24L3 23L4 23L4 24L5 24L5 23L6 23L6 24L8 24L8 22L7 22L7 21L9 21L9 22L10 22L10 23L9 23L9 25L11 25L11 24L10 24L10 23L12 23L12 24L13 24L13 25L15 25L15 26L14 26L14 27L13 27L13 28L11 28L11 27L10 27L10 26L9 26L9 29L10 29L10 30L9 30L9 31L10 31L10 32L11 32L11 33L13 33L13 35L12 35L12 34L11 34L11 36L10 36L10 35L9 35L9 36L8 36L8 37L6 37L6 36L7 36L7 35L6 35L6 36L5 36L5 39L4 39L4 40L7 40L7 41L4 41L4 42L7 42L7 41L9 41L9 40L7 40L7 39L6 39L6 38L9 38L9 39L10 39L10 40L11 40L11 39L10 39L10 38L11 38L11 37L13 37L13 35L14 35L14 37L15 37L15 35L16 35L16 36L18 36L18 35L19 35L19 34L21 34L21 35L20 35L20 36L21 36L21 37L22 37L22 38L21 38L21 41L25 41L25 42L26 42L26 43L27 43L27 44L29 44L29 45L30 45L30 43L31 43L31 46L30 46L30 47L31 47L31 48L32 48L32 49L30 49L30 48L29 48L29 50L30 50L30 51L31 51L31 52L32 52L32 51L31 51L31 50L32 50L32 49L33 49L33 48L34 48L34 47L35 47L35 46L37 46L37 45L38 45L38 47L39 47L39 48L37 48L37 47L36 47L36 48L37 48L37 49L36 49L36 51L37 51L37 52L38 52L38 51L40 51L40 50L43 50L43 49L44 49L44 48L43 48L43 49L42 49L42 47L43 47L43 46L41 46L41 45L40 45L40 46L41 46L41 47L39 47L39 44L43 44L43 42L44 42L44 44L45 44L45 41L44 41L44 38L43 38L43 37L41 37L41 36L39 36L39 35L40 35L40 33L38 33L38 34L35 34L35 33L37 33L37 32L36 32L36 30L38 30L38 31L39 31L39 32L40 32L40 31L41 31L41 35L42 35L42 33L43 33L43 32L44 32L44 33L45 33L45 32L46 32L46 31L47 31L47 29L45 29L45 31L43 31L43 32L42 32L42 30L43 30L43 29L44 29L44 26L43 26L43 23L42 23L42 21L39 21L39 20L37 20L37 19L36 19L36 18L38 18L38 19L41 19L41 18L39 18L39 17L38 17L38 16L34 16L34 17L35 17L35 20L34 20L34 21L33 21L33 19L32 19L32 18L31 18L31 16L32 16L32 14L31 14L31 13L29 13L29 12L28 12L28 11L29 11L29 9L30 9L30 8L31 8L31 9L33 9L33 10L32 10L32 11L31 11L31 10L30 10L30 11L31 11L31 12L32 12L32 13L34 13L34 14L33 14L33 15L34 15L34 14L35 14L35 15L36 15L36 14L37 14L37 15L38 15L38 13L39 13L39 15L41 15L41 16L40 16L40 17L41 17L41 16L43 16L43 15L42 15L42 14L43 14L43 12L42 12L42 11L41 11L41 9L38 9L38 10L37 10L37 7L38 7L38 6L39 6L39 8L40 8L40 6L39 6L39 5L38 5L38 6L37 6L37 7L36 7L36 5L35 5L35 4L34 4L34 3L32 3L32 4L30 4L30 3ZM37 3L37 4L38 4L38 3ZM13 4L13 6L14 6L14 4ZM19 5L19 8L20 8L20 9L21 9L21 7L22 7L22 5ZM25 5L25 8L28 8L28 5ZM31 5L31 6L30 6L30 7L31 7L31 6L32 6L32 7L33 7L33 6L34 6L34 7L35 7L35 11L34 11L34 13L38 13L38 12L39 12L39 10L38 10L38 11L36 11L36 7L35 7L35 6L34 6L34 5ZM16 6L16 7L17 7L17 6ZM20 6L20 7L21 7L21 6ZM26 6L26 7L27 7L27 6ZM44 6L44 7L45 7L45 6ZM0 8L0 9L3 9L3 10L5 10L5 9L4 9L4 8ZM33 8L33 9L34 9L34 8ZM45 8L45 9L46 9L46 8ZM52 8L52 9L53 9L53 8ZM13 11L13 12L14 12L14 11ZM35 11L35 12L36 12L36 11ZM40 11L40 12L41 12L41 11ZM49 11L49 13L51 13L51 14L52 14L52 13L51 13L51 11ZM25 12L25 13L26 13L26 12ZM40 13L40 14L41 14L41 13ZM2 14L2 15L1 15L1 16L2 16L2 15L3 15L3 14ZM44 14L44 16L45 16L45 15L46 15L46 14ZM6 15L6 16L7 16L7 17L6 17L6 18L7 18L7 17L8 17L8 16L7 16L7 15ZM21 16L21 17L20 17L20 19L19 19L19 20L18 20L18 21L19 21L19 20L20 20L20 22L21 22L21 23L22 23L22 22L21 22L21 20L20 20L20 19L21 19L21 17L22 17L22 19L23 19L23 16ZM24 16L24 17L25 17L25 16ZM46 16L46 17L47 17L47 16ZM2 18L2 19L3 19L3 18ZM30 18L30 19L31 19L31 18ZM28 19L28 20L27 20L27 21L26 21L26 22L25 22L25 24L24 24L24 25L23 25L23 26L20 26L20 25L19 25L19 30L18 30L18 31L19 31L19 30L20 30L20 28L22 28L22 27L23 27L23 26L24 26L24 28L23 28L23 29L24 29L24 31L23 31L23 30L22 30L22 29L21 29L21 30L22 30L22 32L21 32L21 31L20 31L20 32L21 32L21 34L22 34L22 32L24 32L24 33L23 33L23 35L24 35L24 36L23 36L23 38L22 38L22 39L23 39L23 40L24 40L24 39L23 39L23 38L25 38L25 37L26 37L26 39L25 39L25 41L26 41L26 42L27 42L27 40L26 40L26 39L27 39L27 37L26 37L26 36L28 36L28 37L30 37L30 34L31 34L31 35L32 35L32 36L31 36L31 39L32 39L32 40L30 40L30 39L29 39L29 40L28 40L28 43L29 43L29 42L30 42L30 41L31 41L31 43L32 43L32 42L33 42L33 43L38 43L38 42L37 42L37 41L36 41L36 42L35 42L35 41L33 41L33 40L35 40L35 39L36 39L36 40L37 40L37 39L36 39L36 37L37 37L37 38L39 38L39 39L38 39L38 41L40 41L40 40L41 40L41 43L42 43L42 41L43 41L43 39L42 39L42 40L41 40L41 39L40 39L40 37L37 37L37 36L35 36L35 34L34 34L34 35L32 35L32 34L31 34L31 33L30 33L30 32L31 32L31 31L30 31L30 29L29 29L29 24L28 24L28 22L29 22L29 23L30 23L30 24L31 24L31 27L35 27L35 29L33 29L33 28L31 28L31 30L32 30L32 32L33 32L33 31L34 31L34 32L35 32L35 30L36 30L36 27L37 27L37 29L40 29L40 30L42 30L42 29L40 29L40 27L37 27L37 26L39 26L39 24L40 24L40 23L41 23L41 22L40 22L40 23L39 23L39 22L38 22L38 21L36 21L36 20L35 20L35 22L38 22L38 23L37 23L37 24L36 24L36 23L35 23L35 24L34 24L34 22L33 22L33 21L32 21L32 22L31 22L31 21L28 21L28 20L29 20L29 19ZM6 20L6 21L7 21L7 20ZM9 20L9 21L10 21L10 20ZM3 21L3 22L2 22L2 23L3 23L3 22L4 22L4 21ZM6 22L6 23L7 23L7 22ZM12 22L12 23L13 23L13 22ZM16 22L16 23L17 23L17 22ZM30 22L30 23L31 23L31 22ZM32 22L32 23L33 23L33 22ZM26 23L26 24L27 24L27 23ZM38 23L38 24L37 24L37 25L34 25L34 26L35 26L35 27L36 27L36 26L37 26L37 25L38 25L38 24L39 24L39 23ZM17 24L17 26L15 26L15 27L14 27L14 30L12 30L12 29L11 29L11 32L12 32L12 31L15 31L15 30L17 30L17 28L18 28L18 24ZM32 24L32 25L33 25L33 24ZM2 25L2 26L3 26L3 27L4 27L4 25ZM5 25L5 28L8 28L8 25ZM25 25L25 28L28 28L28 25ZM45 25L45 28L48 28L48 25ZM6 26L6 27L7 27L7 26ZM26 26L26 27L27 27L27 26ZM46 26L46 27L47 27L47 26ZM16 27L16 28L15 28L15 29L16 29L16 28L17 28L17 27ZM42 27L42 28L43 28L43 27ZM52 28L52 29L53 29L53 28ZM5 29L5 30L7 30L7 29ZM25 29L25 30L26 30L26 31L25 31L25 33L24 33L24 34L25 34L25 35L26 35L26 34L28 34L28 35L29 35L29 34L28 34L28 32L30 32L30 31L29 31L29 30L28 30L28 32L26 32L26 31L27 31L27 30L26 30L26 29ZM16 31L16 35L17 35L17 34L19 34L19 33L17 33L17 31ZM52 31L52 32L53 32L53 31ZM14 32L14 33L15 33L15 32ZM47 32L47 33L46 33L46 35L48 35L48 34L47 34L47 33L49 33L49 34L50 34L50 32ZM14 34L14 35L15 35L15 34ZM50 35L50 36L51 36L51 37L52 37L52 35ZM9 36L9 38L10 38L10 36ZM32 36L32 38L34 38L34 39L35 39L35 37L34 37L34 36ZM16 37L16 39L15 39L15 38L14 38L14 40L16 40L16 39L17 39L17 37ZM19 37L19 38L20 38L20 37ZM2 39L2 40L3 40L3 39ZM18 40L18 41L19 41L19 40ZM46 40L46 41L47 41L47 40ZM48 40L48 42L49 42L49 43L50 43L50 42L49 42L49 41L50 41L50 40ZM2 42L2 43L3 43L3 42ZM12 42L12 44L11 44L11 45L13 45L13 46L11 46L11 47L9 47L9 49L8 49L8 53L10 53L10 52L9 52L9 50L11 50L11 47L12 47L12 51L13 51L13 53L14 53L14 51L15 51L15 50L17 50L17 49L16 49L16 48L14 48L14 47L13 47L13 46L15 46L15 42L14 42L14 45L13 45L13 42ZM21 42L21 43L20 43L20 44L18 44L18 45L20 45L20 46L21 46L21 45L20 45L20 44L22 44L22 43L23 43L23 46L24 46L24 44L25 44L25 43L24 43L24 42ZM39 42L39 43L40 43L40 42ZM46 42L46 43L47 43L47 44L48 44L48 43L47 43L47 42ZM52 43L52 44L53 44L53 43ZM6 44L6 45L7 45L7 44ZM33 44L33 45L32 45L32 46L33 46L33 45L34 45L34 44ZM35 44L35 45L36 45L36 44ZM25 45L25 48L28 48L28 45ZM45 45L45 48L48 48L48 45ZM26 46L26 47L27 47L27 46ZM46 46L46 47L47 47L47 46ZM13 48L13 51L14 51L14 48ZM27 49L27 50L28 50L28 49ZM34 49L34 50L33 50L33 52L34 52L34 50L35 50L35 49ZM37 49L37 50L40 50L40 49ZM49 49L49 50L48 50L48 51L49 51L49 50L50 50L50 49ZM18 50L18 51L16 51L16 53L17 53L17 52L19 52L19 50ZM22 50L22 51L23 51L23 50ZM41 51L41 52L43 52L43 51ZM21 52L21 53L22 53L22 52ZM0 0L0 7L7 7L7 0ZM1 1L1 6L6 6L6 1ZM2 2L2 5L5 5L5 2ZM46 0L46 7L53 7L53 0ZM47 1L47 6L52 6L52 1ZM48 2L48 5L51 5L51 2ZM0 46L0 53L7 53L7 46ZM1 47L1 52L6 52L6 47ZM2 48L2 51L5 51L5 48Z" fill="#000000"/></g></g></svg>
