<?xml version="1.0" encoding="UTF-8"?>
<svg xmlns="http://www.w3.org/2000/svg" version="1.1" width="356" height="356" viewBox="0 0 356 356"><rect x="0" y="0" width="356" height="356" fill="#ffffff"/><g transform="scale(6.717)"><g transform="translate(0,0)"><path fill-rule="evenodd" d="M8 0L8 2L9 2L9 1L10 1L10 3L9 3L9 4L8 4L8 10L5 10L5 9L7 9L7 8L5 8L5 9L4 9L4 10L3 10L3 8L0 8L0 10L3 10L3 11L2 11L2 13L1 13L1 16L0 16L0 22L1 22L1 21L2 21L2 20L4 20L4 21L3 21L3 22L2 22L2 24L4 24L4 25L0 25L0 28L1 28L1 29L2 29L2 30L0 30L0 31L2 31L2 30L3 30L3 31L4 31L4 32L6 32L6 33L5 33L5 34L3 34L3 35L4 35L4 36L5 36L5 37L7 37L7 36L5 36L5 34L6 34L6 35L7 35L7 34L8 34L8 37L9 37L9 38L8 38L8 39L7 39L7 38L6 38L6 39L7 39L7 40L5 40L5 38L4 38L4 39L3 39L3 40L5 40L5 41L4 41L4 42L3 42L3 43L2 43L2 42L1 42L1 41L2 41L2 38L3 38L3 37L2 37L2 35L0 35L0 37L2 37L2 38L1 38L1 39L0 39L0 40L1 40L1 41L0 41L0 43L1 43L1 44L3 44L3 45L4 45L4 44L3 44L3 43L8 43L8 42L10 42L10 44L12 44L12 45L13 45L13 46L11 46L11 47L12 47L12 48L11 48L11 50L10 50L10 52L11 52L11 53L14 53L14 52L11 52L11 51L13 51L13 50L14 50L14 49L15 49L15 53L16 53L16 52L18 52L18 53L19 53L19 52L18 52L18 49L19 49L19 48L20 48L20 49L21 49L21 48L20 48L20 47L21 47L21 46L22 46L22 45L24 45L24 46L23 46L23 47L22 47L22 48L23 48L23 50L22 50L22 51L21 51L21 50L20 50L20 51L21 51L21 52L20 52L20 53L21 53L21 52L22 52L22 53L23 53L23 52L24 52L24 53L26 53L26 51L25 51L25 50L26 50L26 49L29 49L29 51L30 51L30 52L28 52L28 53L30 53L30 52L31 52L31 51L32 51L32 53L34 53L34 52L36 52L36 53L37 53L37 52L36 52L36 51L37 51L37 50L38 50L38 53L39 53L39 51L40 51L40 53L42 53L42 52L41 52L41 50L42 50L42 49L43 49L43 50L44 50L44 52L43 52L43 53L44 53L44 52L45 52L45 53L49 53L49 52L50 52L50 51L51 51L51 50L50 50L50 49L49 49L49 48L50 48L50 46L52 46L52 47L51 47L51 48L53 48L53 46L52 46L52 44L53 44L53 42L52 42L52 44L50 44L50 43L51 43L51 42L50 42L50 41L51 41L51 40L52 40L52 41L53 41L53 38L52 38L52 39L51 39L51 36L50 36L50 35L51 35L51 33L52 33L52 31L53 31L53 29L52 29L52 27L53 27L53 26L52 26L52 27L51 27L51 25L53 25L53 22L52 22L52 21L53 21L53 18L52 18L52 20L51 20L51 21L50 21L50 19L51 19L51 17L52 17L52 15L53 15L53 10L52 10L52 9L53 9L53 8L51 8L51 9L50 9L50 10L49 10L49 8L45 8L45 6L44 6L44 8L45 8L45 10L44 10L44 11L42 11L42 12L40 12L40 13L39 13L39 12L38 12L38 13L39 13L39 15L38 15L38 16L40 16L40 17L41 17L41 18L42 18L42 19L43 19L43 20L42 20L42 21L43 21L43 20L46 20L46 21L45 21L45 22L44 22L44 23L43 23L43 26L44 26L44 28L40 28L40 27L42 27L42 25L41 25L41 19L40 19L40 18L39 18L39 19L40 19L40 27L39 27L39 26L38 26L38 25L39 25L39 24L38 24L38 23L39 23L39 22L38 22L38 21L39 21L39 20L36 20L36 21L35 21L35 19L38 19L38 17L37 17L37 16L36 16L36 15L35 15L35 14L34 14L34 13L35 13L35 12L36 12L36 14L37 14L37 11L38 11L38 8L40 8L40 10L39 10L39 11L41 11L41 10L42 10L42 8L41 8L41 6L42 6L42 7L43 7L43 3L44 3L44 4L45 4L45 3L44 3L44 1L43 1L43 0L41 0L41 1L40 1L40 0L38 0L38 1L37 1L37 0L36 0L36 3L35 3L35 4L34 4L34 2L35 2L35 0L34 0L34 1L33 1L33 0L32 0L32 2L31 2L31 3L30 3L30 1L31 1L31 0L30 0L30 1L29 1L29 2L28 2L28 1L27 1L27 0L26 0L26 4L24 4L24 1L25 1L25 0L24 0L24 1L23 1L23 2L22 2L22 1L21 1L21 0L18 0L18 1L16 1L16 2L18 2L18 1L19 1L19 4L20 4L20 5L18 5L18 3L15 3L15 0L11 0L11 1L10 1L10 0ZM13 1L13 2L11 2L11 3L10 3L10 5L11 5L11 4L12 4L12 6L11 6L11 7L10 7L10 6L9 6L9 9L10 9L10 8L11 8L11 7L12 7L12 9L11 9L11 11L12 11L12 13L11 13L11 12L10 12L10 11L9 11L9 10L8 10L8 11L6 11L6 12L8 12L8 14L7 14L7 13L5 13L5 12L4 12L4 11L3 11L3 13L2 13L2 15L3 15L3 18L2 18L2 19L6 19L6 20L5 20L5 21L4 21L4 23L6 23L6 24L8 24L8 23L9 23L9 25L10 25L10 26L9 26L9 27L10 27L10 29L3 29L3 28L2 28L2 29L3 29L3 30L5 30L5 31L6 31L6 32L7 32L7 31L6 31L6 30L10 30L10 29L11 29L11 27L10 27L10 26L11 26L11 25L10 25L10 23L12 23L12 26L13 26L13 20L12 20L12 19L10 19L10 20L9 20L9 16L7 16L7 15L8 15L8 14L9 14L9 15L10 15L10 17L11 17L11 18L13 18L13 19L14 19L14 20L15 20L15 19L14 19L14 18L15 18L15 16L14 16L14 15L16 15L16 14L18 14L18 12L19 12L19 8L20 8L20 6L21 6L21 7L22 7L22 8L21 8L21 10L20 10L20 11L21 11L21 12L20 12L20 14L19 14L19 15L18 15L18 16L19 16L19 17L18 17L18 18L19 18L19 20L21 20L21 21L20 21L20 22L19 22L19 21L18 21L18 19L17 19L17 18L16 18L16 19L17 19L17 20L16 20L16 23L14 23L14 24L15 24L15 25L14 25L14 26L15 26L15 28L16 28L16 30L12 30L12 31L13 31L13 34L15 34L15 32L16 32L16 30L21 30L21 31L18 31L18 32L19 32L19 33L18 33L18 34L16 34L16 35L17 35L17 36L16 36L16 38L15 38L15 37L14 37L14 36L15 36L15 35L12 35L12 34L11 34L11 36L10 36L10 34L9 34L9 33L8 33L8 34L9 34L9 36L10 36L10 38L9 38L9 39L8 39L8 40L9 40L9 39L10 39L10 42L11 42L11 41L12 41L12 42L13 42L13 39L12 39L12 38L11 38L11 36L12 36L12 37L13 37L13 38L15 38L15 39L14 39L14 40L15 40L15 41L14 41L14 44L13 44L13 43L12 43L12 44L13 44L13 45L14 45L14 46L15 46L15 44L16 44L16 47L15 47L15 48L16 48L16 47L17 47L17 46L19 46L19 47L18 47L18 48L19 48L19 47L20 47L20 46L21 46L21 45L22 45L22 44L23 44L23 43L22 43L22 42L23 42L23 41L24 41L24 39L25 39L25 41L26 41L26 44L27 44L27 42L29 42L29 43L28 43L28 44L29 44L29 45L30 45L30 51L31 51L31 50L32 50L32 51L33 51L33 52L34 52L34 51L33 51L33 49L32 49L32 48L34 48L34 50L35 50L35 51L36 51L36 50L37 50L37 49L36 49L36 48L37 48L37 47L38 47L38 48L39 48L39 49L38 49L38 50L39 50L39 49L40 49L40 50L41 50L41 49L42 49L42 48L43 48L43 49L44 49L44 50L46 50L46 52L49 52L49 51L50 51L50 50L49 50L49 51L48 51L48 49L47 49L47 50L46 50L46 49L44 49L44 48L43 48L43 47L42 47L42 46L43 46L43 45L42 45L42 46L41 46L41 45L40 45L40 44L41 44L41 43L42 43L42 44L43 44L43 43L44 43L44 42L45 42L45 44L46 44L46 41L47 41L47 39L46 39L46 38L47 38L47 37L46 37L46 36L47 36L47 35L48 35L48 34L49 34L49 35L50 35L50 34L49 34L49 33L51 33L51 31L50 31L50 30L51 30L51 29L50 29L50 30L49 30L49 29L48 29L48 30L47 30L47 29L46 29L46 30L43 30L43 29L42 29L42 30L41 30L41 31L40 31L40 30L39 30L39 29L40 29L40 28L39 28L39 29L38 29L38 27L37 27L37 25L38 25L38 24L37 24L37 23L38 23L38 22L37 22L37 21L36 21L36 24L34 24L34 26L33 26L33 25L32 25L32 23L33 23L33 22L32 22L32 20L33 20L33 21L34 21L34 22L35 22L35 21L34 21L34 20L33 20L33 18L32 18L32 14L33 14L33 13L34 13L34 12L35 12L35 11L34 11L34 12L33 12L33 10L31 10L31 9L32 9L32 6L33 6L33 9L34 9L34 10L35 10L35 9L36 9L36 8L38 8L38 6L39 6L39 7L40 7L40 6L39 6L39 5L38 5L38 3L36 3L36 5L35 5L35 7L34 7L34 6L33 6L33 2L32 2L32 5L30 5L30 3L28 3L28 2L27 2L27 4L29 4L29 9L28 9L28 10L27 10L27 9L22 9L22 8L23 8L23 7L24 7L24 4L23 4L23 3L22 3L22 2L21 2L21 1L20 1L20 2L21 2L21 3L22 3L22 4L21 4L21 5L20 5L20 6L19 6L19 8L18 8L18 6L17 6L17 7L16 7L16 5L15 5L15 3L13 3L13 2L14 2L14 1ZM38 1L38 2L39 2L39 4L40 4L40 5L42 5L42 4L41 4L41 2L40 2L40 1ZM42 2L42 3L43 3L43 2ZM12 3L12 4L13 4L13 3ZM22 5L22 7L23 7L23 5ZM25 5L25 8L28 8L28 5ZM36 5L36 7L37 7L37 6L38 6L38 5ZM12 6L12 7L13 7L13 10L12 10L12 11L13 11L13 13L12 13L12 16L13 16L13 14L16 14L16 12L15 12L15 10L14 10L14 9L15 9L15 8L14 8L14 7L15 7L15 6L14 6L14 7L13 7L13 6ZM26 6L26 7L27 7L27 6ZM30 6L30 7L31 7L31 6ZM16 8L16 9L17 9L17 8ZM30 8L30 9L29 9L29 10L28 10L28 12L26 12L26 10L24 10L24 11L23 11L23 10L22 10L22 11L23 11L23 12L22 12L22 13L23 13L23 12L24 12L24 11L25 11L25 12L26 12L26 14L25 14L25 13L24 13L24 14L23 14L23 15L22 15L22 14L20 14L20 17L21 17L21 18L20 18L20 19L21 19L21 20L22 20L22 21L24 21L24 23L23 23L23 24L22 24L22 22L20 22L20 24L19 24L19 23L18 23L18 24L19 24L19 26L18 26L18 27L17 27L17 26L16 26L16 27L17 27L17 28L18 28L18 29L19 29L19 28L22 28L22 29L23 29L23 28L24 28L24 30L23 30L23 31L22 31L22 32L23 32L23 34L22 34L22 35L21 35L21 34L20 34L20 35L21 35L21 36L22 36L22 38L19 38L19 34L18 34L18 38L19 38L19 39L18 39L18 40L19 40L19 43L18 43L18 42L16 42L16 43L18 43L18 45L19 45L19 46L20 46L20 45L21 45L21 43L20 43L20 42L22 42L22 41L23 41L23 40L22 40L22 39L24 39L24 38L25 38L25 39L27 39L27 40L26 40L26 41L27 41L27 40L28 40L28 41L29 41L29 42L30 42L30 43L29 43L29 44L30 44L30 45L31 45L31 42L30 42L30 41L31 41L31 40L30 40L30 39L32 39L32 46L31 46L31 48L32 48L32 46L34 46L34 47L35 47L35 48L36 48L36 46L38 46L38 45L37 45L37 42L36 42L36 41L40 41L40 42L41 42L41 41L44 41L44 40L46 40L46 39L44 39L44 40L41 40L41 39L39 39L39 40L36 40L36 41L35 41L35 39L36 39L36 38L37 38L37 39L38 39L38 36L39 36L39 35L41 35L41 33L44 33L44 34L43 34L43 35L42 35L42 36L40 36L40 37L39 37L39 38L40 38L40 37L41 37L41 38L42 38L42 39L43 39L43 38L45 38L45 33L46 33L46 35L47 35L47 34L48 34L48 32L50 32L50 31L49 31L49 30L48 30L48 32L47 32L47 30L46 30L46 31L44 31L44 32L42 32L42 31L43 31L43 30L42 30L42 31L41 31L41 32L40 32L40 33L39 33L39 32L38 32L38 31L37 31L37 30L38 30L38 29L37 29L37 27L36 27L36 25L37 25L37 24L36 24L36 25L35 25L35 26L34 26L34 27L33 27L33 28L32 28L32 25L31 25L31 26L30 26L30 24L31 24L31 23L32 23L32 22L31 22L31 23L30 23L30 20L32 20L32 18L30 18L30 17L31 17L31 16L30 16L30 15L29 15L29 14L30 14L30 13L31 13L31 10L30 10L30 9L31 9L31 8ZM46 9L46 10L47 10L47 13L46 13L46 14L47 14L47 15L48 15L48 9ZM13 10L13 11L14 11L14 10ZM16 10L16 11L17 11L17 12L18 12L18 10ZM29 10L29 11L30 11L30 10ZM50 10L50 14L51 14L51 15L49 15L49 16L50 16L50 17L48 17L48 20L47 20L47 21L46 21L46 23L44 23L44 24L46 24L46 23L47 23L47 24L49 24L49 23L50 23L50 25L51 25L51 23L52 23L52 22L51 22L51 23L50 23L50 22L48 22L48 20L49 20L49 18L50 18L50 17L51 17L51 15L52 15L52 14L51 14L51 11L52 11L52 10ZM0 11L0 12L1 12L1 11ZM8 11L8 12L9 12L9 11ZM44 11L44 12L42 12L42 14L43 14L43 13L44 13L44 14L45 14L45 13L44 13L44 12L45 12L45 11ZM29 12L29 13L30 13L30 12ZM32 12L32 13L33 13L33 12ZM9 13L9 14L10 14L10 15L11 15L11 13ZM40 13L40 16L43 16L43 17L42 17L42 18L43 18L43 17L44 17L44 19L45 19L45 17L46 17L46 19L47 19L47 17L46 17L46 15L44 15L44 16L43 16L43 15L41 15L41 13ZM4 14L4 16L5 16L5 14ZM6 14L6 15L7 15L7 14ZM24 14L24 16L25 16L25 14ZM21 15L21 16L22 16L22 15ZM26 15L26 16L27 16L27 15ZM33 15L33 17L34 17L34 19L35 19L35 18L37 18L37 17L36 17L36 16L35 16L35 17L34 17L34 15ZM6 16L6 17L7 17L7 16ZM28 16L28 17L30 17L30 16ZM44 16L44 17L45 17L45 16ZM4 17L4 18L5 18L5 17ZM23 17L23 18L22 18L22 19L23 19L23 18L24 18L24 21L25 21L25 19L26 19L26 20L27 20L27 17L26 17L26 18L25 18L25 17ZM6 18L6 19L7 19L7 20L6 20L6 21L5 21L5 22L6 22L6 23L7 23L7 22L6 22L6 21L8 21L8 22L10 22L10 21L9 21L9 20L8 20L8 18ZM28 19L28 21L27 21L27 22L26 22L26 23L24 23L24 24L27 24L27 23L28 23L28 24L30 24L30 23L28 23L28 21L29 21L29 20L30 20L30 19ZM17 21L17 22L18 22L18 21ZM47 22L47 23L48 23L48 22ZM16 23L16 25L17 25L17 23ZM5 25L5 28L8 28L8 25ZM21 25L21 26L20 26L20 27L22 27L22 28L23 28L23 26L24 26L24 25ZM25 25L25 28L28 28L28 25ZM45 25L45 28L48 28L48 25ZM2 26L2 27L3 27L3 26ZM6 26L6 27L7 27L7 26ZM26 26L26 27L27 27L27 26ZM46 26L46 27L47 27L47 26ZM13 27L13 28L14 28L14 27ZM29 27L29 29L28 29L28 30L27 30L27 31L26 31L26 30L24 30L24 31L26 31L26 32L25 32L25 33L26 33L26 32L27 32L27 33L28 33L28 34L27 34L27 35L28 35L28 38L27 38L27 37L26 37L26 35L24 35L24 36L23 36L23 35L22 35L22 36L23 36L23 38L24 38L24 36L25 36L25 37L26 37L26 38L27 38L27 39L28 39L28 40L29 40L29 41L30 41L30 40L29 40L29 37L30 37L30 38L31 38L31 37L30 37L30 35L33 35L33 37L34 37L34 38L33 38L33 40L34 40L34 39L35 39L35 38L36 38L36 36L38 36L38 35L39 35L39 33L38 33L38 32L37 32L37 33L36 33L36 34L35 34L35 32L34 32L34 30L35 30L35 31L36 31L36 27L34 27L34 28L35 28L35 29L34 29L34 30L33 30L33 29L32 29L32 28L31 28L31 27ZM50 27L50 28L51 28L51 27ZM29 29L29 30L28 30L28 31L27 31L27 32L28 32L28 31L29 31L29 32L30 32L30 33L29 33L29 34L28 34L28 35L30 35L30 33L31 33L31 32L30 32L30 31L29 31L29 30L30 30L30 29ZM32 30L32 31L33 31L33 30ZM8 31L8 32L10 32L10 33L12 33L12 32L10 32L10 31ZM14 31L14 32L15 32L15 31ZM0 32L0 33L1 33L1 34L2 34L2 33L3 33L3 32ZM20 32L20 33L21 33L21 32ZM32 32L32 33L33 33L33 35L34 35L34 32ZM46 32L46 33L47 33L47 32ZM6 33L6 34L7 34L7 33ZM36 34L36 35L37 35L37 34ZM52 34L52 35L53 35L53 34ZM43 35L43 36L42 36L42 38L43 38L43 36L44 36L44 35ZM34 36L34 37L35 37L35 36ZM48 36L48 38L49 38L49 39L48 39L48 40L49 40L49 39L50 39L50 40L51 40L51 39L50 39L50 36ZM10 38L10 39L11 39L11 40L12 40L12 39L11 39L11 38ZM15 39L15 40L16 40L16 41L17 41L17 39ZM20 39L20 40L21 40L21 39ZM6 41L6 42L8 42L8 41ZM34 41L34 43L33 43L33 44L34 44L34 46L36 46L36 42L35 42L35 41ZM48 41L48 42L47 42L47 43L48 43L48 44L49 44L49 46L50 46L50 44L49 44L49 41ZM34 43L34 44L35 44L35 43ZM38 43L38 44L39 44L39 43ZM6 44L6 45L8 45L8 46L10 46L10 45L8 45L8 44ZM19 44L19 45L20 45L20 44ZM25 45L25 48L28 48L28 45ZM39 45L39 47L40 47L40 45ZM45 45L45 48L48 48L48 45ZM26 46L26 47L27 47L27 46ZM46 46L46 47L47 47L47 46ZM8 47L8 48L10 48L10 47ZM13 47L13 48L12 48L12 49L13 49L13 48L14 48L14 47ZM40 48L40 49L41 49L41 48ZM35 49L35 50L36 50L36 49ZM8 50L8 53L9 53L9 50ZM16 50L16 51L17 51L17 50ZM23 50L23 51L22 51L22 52L23 52L23 51L24 51L24 52L25 52L25 51L24 51L24 50ZM52 52L52 53L53 53L53 52ZM0 0L0 7L7 7L7 0ZM1 1L1 6L6 6L6 1ZM2 2L2 5L5 5L5 2ZM46 0L46 7L53 7L53 0ZM47 1L47 6L52 6L52 1ZM48 2L48 5L51 5L51 2ZM0 46L0 53L7 53L7 46ZM1 47L1 52L6 52L6 47ZM2 48L2 51L5 51L5 48Z" fill="#000000"/></g></g></svg>
