<?xml version="1.0" encoding="UTF-8"?>
<svg xmlns="http://www.w3.org/2000/svg" version="1.1" width="356" height="356" viewBox="0 0 356 356"><rect x="0" y="0" width="356" height="356" fill="#ffffff"/><g transform="scale(6.717)"><g transform="translate(0,0)"><path fill-rule="evenodd" d="M8 0L8 2L9 2L9 4L8 4L8 9L9 9L9 10L6 10L6 9L7 9L7 8L5 8L5 9L3 9L3 8L0 8L0 10L1 10L1 13L2 13L2 14L3 14L3 15L4 15L4 17L2 17L2 15L1 15L1 14L0 14L0 16L1 16L1 18L0 18L0 20L1 20L1 21L2 21L2 22L4 22L4 23L5 23L5 22L6 22L6 23L7 23L7 24L4 24L4 26L3 26L3 23L0 23L0 25L1 25L1 24L2 24L2 26L0 26L0 27L1 27L1 28L0 28L0 30L1 30L1 32L0 32L0 33L1 33L1 34L0 34L0 35L1 35L1 36L2 36L2 37L5 37L5 38L6 38L6 39L7 39L7 40L5 40L5 39L4 39L4 41L5 41L5 42L3 42L3 43L2 43L2 39L3 39L3 38L2 38L2 39L0 39L0 41L1 41L1 42L0 42L0 43L1 43L1 44L3 44L3 45L4 45L4 44L3 44L3 43L7 43L7 42L6 42L6 41L7 41L7 40L8 40L8 42L9 42L9 41L10 41L10 45L9 45L9 44L6 44L6 45L8 45L8 46L9 46L9 47L8 47L8 48L10 48L10 52L9 52L9 50L8 50L8 53L12 53L12 52L11 52L11 50L12 50L12 51L13 51L13 53L16 53L16 52L18 52L18 53L20 53L20 52L18 52L18 49L19 49L19 48L20 48L20 49L21 49L21 48L20 48L20 47L21 47L21 46L22 46L22 45L23 45L23 47L22 47L22 48L23 48L23 51L22 51L22 50L20 50L20 51L22 51L22 53L23 53L23 51L24 51L24 50L25 50L25 52L24 52L24 53L27 53L27 52L26 52L26 49L27 49L27 51L28 51L28 49L29 49L29 48L30 48L30 49L31 49L31 48L32 48L32 49L33 49L33 51L32 51L32 50L31 50L31 51L29 51L29 52L28 52L28 53L29 53L29 52L30 52L30 53L31 53L31 52L32 52L32 53L34 53L34 52L35 52L35 50L36 50L36 49L37 49L37 52L36 52L36 53L37 53L37 52L38 52L38 51L39 51L39 53L41 53L41 51L42 51L42 52L43 52L43 53L44 53L44 52L43 52L43 50L44 50L44 51L45 51L45 52L46 52L46 53L49 53L49 52L46 52L46 51L45 51L45 50L44 50L44 49L48 49L48 51L49 51L49 50L50 50L50 49L49 49L49 48L50 48L50 46L52 46L52 47L51 47L51 48L52 48L52 47L53 47L53 45L52 45L52 44L53 44L53 42L52 42L52 44L51 44L51 45L50 45L50 43L51 43L51 42L50 42L50 41L52 41L52 40L53 40L53 38L52 38L52 40L50 40L50 39L51 39L51 36L50 36L50 35L51 35L51 33L53 33L53 32L52 32L52 31L53 31L53 29L52 29L52 27L53 27L53 26L52 26L52 27L51 27L51 25L52 25L52 23L53 23L53 22L52 22L52 23L51 23L51 21L53 21L53 18L52 18L52 20L51 20L51 21L49 21L49 20L50 20L50 19L51 19L51 18L50 18L50 16L49 16L49 15L51 15L51 14L52 14L52 16L53 16L53 14L52 14L52 13L53 13L53 10L52 10L52 9L53 9L53 8L51 8L51 10L50 10L50 9L49 9L49 8L45 8L45 6L44 6L44 7L43 7L43 3L44 3L44 4L45 4L45 3L44 3L44 1L43 1L43 0L42 0L42 2L41 2L41 0L38 0L38 1L40 1L40 2L38 2L38 3L39 3L39 4L38 4L38 5L39 5L39 6L38 6L38 7L37 7L37 6L36 6L36 5L35 5L35 4L36 4L36 3L37 3L37 0L36 0L36 3L35 3L35 0L34 0L34 1L33 1L33 0L32 0L32 2L33 2L33 4L32 4L32 3L31 3L31 2L30 2L30 3L29 3L29 4L27 4L27 2L28 2L28 1L27 1L27 0L26 0L26 1L25 1L25 0L24 0L24 1L23 1L23 2L24 2L24 1L25 1L25 3L23 3L23 5L22 5L22 3L21 3L21 2L20 2L20 1L21 1L21 0L18 0L18 1L16 1L16 2L18 2L18 1L19 1L19 4L20 4L20 5L18 5L18 3L15 3L15 2L14 2L14 1L15 1L15 0L10 0L10 1L9 1L9 0ZM30 0L30 1L31 1L31 0ZM26 1L26 2L27 2L27 1ZM10 2L10 3L11 3L11 4L9 4L9 5L11 5L11 7L12 7L12 8L10 8L10 6L9 6L9 8L10 8L10 9L13 9L13 7L14 7L14 8L15 8L15 9L14 9L14 10L10 10L10 12L9 12L9 13L11 13L11 14L12 14L12 15L10 15L10 14L7 14L7 13L8 13L8 12L7 12L7 11L5 11L5 10L3 10L3 11L2 11L2 12L3 12L3 13L4 13L4 11L5 11L5 14L4 14L4 15L5 15L5 14L7 14L7 15L6 15L6 16L5 16L5 17L6 17L6 18L5 18L5 19L4 19L4 18L1 18L1 19L4 19L4 20L5 20L5 21L6 21L6 22L8 22L8 23L9 23L9 22L8 22L8 21L6 21L6 20L7 20L7 19L8 19L8 20L9 20L9 21L10 21L10 22L11 22L11 23L12 23L12 26L11 26L11 25L10 25L10 24L9 24L9 26L10 26L10 27L9 27L9 28L10 28L10 27L11 27L11 29L9 29L9 30L8 30L8 29L5 29L5 31L4 31L4 29L3 29L3 26L2 26L2 28L1 28L1 29L3 29L3 31L2 31L2 32L3 32L3 31L4 31L4 33L2 33L2 36L4 36L4 34L5 34L5 36L7 36L7 35L6 35L6 34L10 34L10 35L8 35L8 36L9 36L9 37L8 37L8 38L7 38L7 37L6 37L6 38L7 38L7 39L8 39L8 38L9 38L9 37L10 37L10 39L11 39L11 40L10 40L10 41L12 41L12 40L13 40L13 38L15 38L15 39L14 39L14 40L15 40L15 41L14 41L14 42L12 42L12 43L11 43L11 44L12 44L12 45L11 45L11 46L10 46L10 48L13 48L13 47L15 47L15 48L14 48L14 49L12 49L12 50L14 50L14 49L15 49L15 48L16 48L16 47L17 47L17 46L19 46L19 45L20 45L20 46L21 46L21 45L22 45L22 42L24 42L24 43L25 43L25 44L26 44L26 42L24 42L24 41L25 41L25 40L27 40L27 41L28 41L28 40L29 40L29 35L30 35L30 36L31 36L31 37L30 37L30 38L31 38L31 39L30 39L30 42L31 42L31 43L32 43L32 44L31 44L31 45L30 45L30 44L29 44L29 42L27 42L27 44L29 44L29 45L30 45L30 48L31 48L31 46L32 46L32 48L34 48L34 50L35 50L35 49L36 49L36 48L37 48L37 49L38 49L38 50L40 50L40 48L41 48L41 49L42 49L42 50L43 50L43 49L42 49L42 48L43 48L43 46L44 46L44 45L43 45L43 44L44 44L44 42L45 42L45 43L46 43L46 42L45 42L45 41L44 41L44 42L43 42L43 41L42 41L42 40L44 40L44 39L45 39L45 40L46 40L46 41L47 41L47 39L46 39L46 37L47 37L47 36L46 36L46 34L47 34L47 35L48 35L48 34L49 34L49 35L50 35L50 34L49 34L49 33L51 33L51 31L52 31L52 30L51 30L51 29L50 29L50 30L49 30L49 29L48 29L48 30L47 30L47 31L46 31L46 30L45 30L45 29L44 29L44 30L43 30L43 29L42 29L42 27L43 27L43 28L44 28L44 27L43 27L43 25L44 25L44 24L43 24L43 20L44 20L44 23L45 23L45 24L46 24L46 23L45 23L45 17L46 17L46 19L47 19L47 20L46 20L46 22L48 22L48 23L47 23L47 24L49 24L49 23L50 23L50 25L49 25L49 27L50 27L50 28L51 28L51 27L50 27L50 25L51 25L51 23L50 23L50 22L48 22L48 20L49 20L49 19L50 19L50 18L49 18L49 17L48 17L48 19L47 19L47 17L46 17L46 15L45 15L45 17L44 17L44 14L45 14L45 13L46 13L46 14L48 14L48 9L46 9L46 10L47 10L47 13L46 13L46 12L45 12L45 11L44 11L44 10L45 10L45 8L43 8L43 7L42 7L42 4L41 4L41 3L40 3L40 4L39 4L39 5L41 5L41 7L40 7L40 6L39 6L39 8L38 8L38 10L37 10L37 11L36 11L36 12L35 12L35 11L34 11L34 12L35 12L35 13L34 13L34 14L36 14L36 16L35 16L35 17L34 17L34 15L33 15L33 17L34 17L34 19L35 19L35 18L37 18L37 17L38 17L38 19L36 19L36 20L35 20L35 21L34 21L34 20L33 20L33 18L32 18L32 14L31 14L31 13L32 13L32 12L33 12L33 10L31 10L31 9L32 9L32 6L33 6L33 9L34 9L34 10L35 10L35 9L36 9L36 8L37 8L37 7L36 7L36 6L35 6L35 7L34 7L34 6L33 6L33 5L32 5L32 4L31 4L31 5L30 5L30 4L29 4L29 7L30 7L30 6L31 6L31 9L30 9L30 8L29 8L29 9L27 9L27 11L26 11L26 12L25 12L25 11L24 11L24 12L23 12L23 9L22 9L22 8L23 8L23 7L24 7L24 5L23 5L23 7L22 7L22 5L20 5L20 6L19 6L19 8L18 8L18 6L17 6L17 7L16 7L16 5L15 5L15 3L14 3L14 2L12 2L12 3L11 3L11 2ZM42 2L42 3L43 3L43 2ZM34 3L34 4L35 4L35 3ZM12 4L12 7L13 7L13 4ZM25 5L25 8L28 8L28 5ZM31 5L31 6L32 6L32 5ZM14 6L14 7L15 7L15 6ZM20 6L20 8L19 8L19 12L18 12L18 10L16 10L16 11L17 11L17 12L18 12L18 14L16 14L16 12L15 12L15 10L14 10L14 11L13 11L13 13L12 13L12 14L16 14L16 15L14 15L14 16L15 16L15 18L14 18L14 19L13 19L13 18L11 18L11 19L13 19L13 20L12 20L12 21L13 21L13 26L12 26L12 28L13 28L13 30L12 30L12 32L13 32L13 30L16 30L16 32L15 32L15 31L14 31L14 32L15 32L15 34L11 34L11 32L9 32L9 33L10 33L10 34L11 34L11 35L10 35L10 36L12 36L12 38L11 38L11 39L12 39L12 38L13 38L13 36L12 36L12 35L15 35L15 36L14 36L14 37L15 37L15 38L16 38L16 36L17 36L17 35L16 35L16 34L18 34L18 38L19 38L19 39L18 39L18 40L19 40L19 43L18 43L18 42L16 42L16 43L18 43L18 45L19 45L19 44L21 44L21 43L20 43L20 42L22 42L22 41L23 41L23 40L24 40L24 39L25 39L25 38L26 38L26 37L27 37L27 36L28 36L28 35L29 35L29 34L30 34L30 35L31 35L31 36L32 36L32 37L31 37L31 38L32 38L32 43L33 43L33 44L32 44L32 46L33 46L33 47L35 47L35 46L34 46L34 45L35 45L35 43L36 43L36 46L38 46L38 45L39 45L39 43L41 43L41 42L40 42L40 41L41 41L41 40L42 40L42 36L43 36L43 39L44 39L44 38L45 38L45 37L46 37L46 36L45 36L45 32L46 32L46 33L47 33L47 34L48 34L48 32L50 32L50 31L51 31L51 30L50 30L50 31L49 31L49 30L48 30L48 32L46 32L46 31L45 31L45 30L44 30L44 32L43 32L43 33L44 33L44 34L42 34L42 32L41 32L41 31L43 31L43 30L42 30L42 29L41 29L41 28L40 28L40 27L39 27L39 26L38 26L38 25L41 25L41 27L42 27L42 25L43 25L43 24L42 24L42 19L44 19L44 17L43 17L43 14L44 14L44 13L45 13L45 12L44 12L44 11L41 11L41 10L42 10L42 9L43 9L43 8L40 8L40 11L41 11L41 12L40 12L40 14L39 14L39 16L40 16L40 17L39 17L39 19L38 19L38 20L36 20L36 21L37 21L37 24L36 24L36 22L35 22L35 23L32 23L32 25L31 25L31 24L30 24L30 23L31 23L31 22L34 22L34 21L33 21L33 20L32 20L32 21L31 21L31 20L30 20L30 19L29 19L29 18L30 18L30 17L31 17L31 14L30 14L30 12L32 12L32 11L30 11L30 9L29 9L29 10L28 10L28 12L26 12L26 13L24 13L24 15L22 15L22 14L20 14L20 12L21 12L21 11L22 11L22 10L21 10L21 8L22 8L22 7L21 7L21 6ZM26 6L26 7L27 7L27 6ZM16 8L16 9L17 9L17 8ZM1 9L1 10L2 10L2 9ZM24 9L24 10L26 10L26 9ZM20 10L20 11L21 11L21 10ZM51 10L51 11L50 11L50 12L49 12L49 13L50 13L50 14L51 14L51 13L50 13L50 12L51 12L51 11L52 11L52 10ZM11 11L11 12L12 12L12 11ZM6 12L6 13L7 13L7 12ZM22 12L22 13L23 13L23 12ZM28 12L28 13L29 13L29 12ZM36 12L36 14L37 14L37 15L38 15L38 12ZM41 12L41 13L42 13L42 14L43 14L43 13L42 13L42 12ZM26 13L26 14L25 14L25 15L24 15L24 16L25 16L25 15L26 15L26 16L27 16L27 17L26 17L26 18L27 18L27 19L26 19L26 20L25 20L25 17L24 17L24 21L22 21L22 20L23 20L23 18L22 18L22 20L21 20L21 19L20 19L20 18L21 18L21 17L20 17L20 14L19 14L19 15L18 15L18 16L19 16L19 17L18 17L18 18L19 18L19 20L21 20L21 21L20 21L20 22L19 22L19 21L18 21L18 19L17 19L17 18L16 18L16 19L17 19L17 20L16 20L16 23L14 23L14 24L15 24L15 25L14 25L14 26L15 26L15 28L16 28L16 30L21 30L21 31L18 31L18 32L19 32L19 33L18 33L18 34L19 34L19 38L20 38L20 39L19 39L19 40L20 40L20 39L21 39L21 38L24 38L24 37L26 37L26 36L27 36L27 35L28 35L28 33L29 33L29 32L30 32L30 34L31 34L31 35L33 35L33 33L32 33L32 32L34 32L34 39L33 39L33 40L34 40L34 39L35 39L35 41L34 41L34 43L35 43L35 42L36 42L36 43L37 43L37 45L38 45L38 43L39 43L39 41L40 41L40 40L41 40L41 38L39 38L39 37L40 37L40 36L41 36L41 35L42 35L42 34L41 34L41 35L40 35L40 30L41 30L41 29L40 29L40 28L38 28L38 30L37 30L37 29L36 29L36 28L34 28L34 26L35 26L35 25L36 25L36 27L37 27L37 25L38 25L38 24L39 24L39 23L38 23L38 24L37 24L37 25L36 25L36 24L34 24L34 26L33 26L33 25L32 25L32 27L30 27L30 26L31 26L31 25L30 25L30 26L29 26L29 29L25 29L25 30L24 30L24 28L23 28L23 29L22 29L22 28L19 28L19 29L18 29L18 28L17 28L17 27L18 27L18 26L19 26L19 24L20 24L20 22L22 22L22 24L23 24L23 25L21 25L21 26L20 26L20 27L24 27L24 24L25 24L25 23L26 23L26 24L28 24L28 22L29 22L29 20L28 20L28 16L29 16L29 17L30 17L30 15L28 15L28 14L27 14L27 13ZM26 14L26 15L27 15L27 16L28 16L28 15L27 15L27 14ZM40 14L40 16L42 16L42 15L41 15L41 14ZM7 15L7 16L6 16L6 17L7 17L7 18L6 18L6 19L7 19L7 18L8 18L8 19L9 19L9 20L10 20L10 19L9 19L9 18L10 18L10 15ZM21 15L21 16L22 16L22 15ZM8 16L8 18L9 18L9 16ZM11 16L11 17L13 17L13 16ZM36 16L36 17L37 17L37 16ZM42 17L42 18L41 18L41 19L42 19L42 18L43 18L43 17ZM31 18L31 19L32 19L32 18ZM14 19L14 20L15 20L15 19ZM2 20L2 21L3 21L3 20ZM26 20L26 21L24 21L24 22L28 22L28 21L27 21L27 20ZM38 20L38 22L39 22L39 21L40 21L40 22L41 22L41 21L40 21L40 20ZM17 21L17 22L18 22L18 21ZM30 21L30 22L31 22L31 21ZM16 23L16 25L17 25L17 23ZM18 23L18 24L19 24L19 23ZM5 25L5 28L8 28L8 25ZM25 25L25 28L28 28L28 25ZM45 25L45 28L48 28L48 25ZM6 26L6 27L7 27L7 26ZM16 26L16 27L17 27L17 26ZM26 26L26 27L27 27L27 26ZM46 26L46 27L47 27L47 26ZM13 27L13 28L14 28L14 27ZM30 28L30 29L31 29L31 31L32 31L32 29L33 29L33 30L34 30L34 32L35 32L35 35L37 35L37 36L36 36L36 37L35 37L35 38L36 38L36 37L37 37L37 39L36 39L36 41L37 41L37 43L38 43L38 40L40 40L40 39L39 39L39 38L38 38L38 37L39 37L39 36L40 36L40 35L39 35L39 34L38 34L38 33L39 33L39 30L38 30L38 32L37 32L37 31L36 31L36 29L35 29L35 30L34 30L34 28L32 28L32 29L31 29L31 28ZM21 29L21 30L22 30L22 29ZM6 30L6 31L5 31L5 34L6 34L6 33L7 33L7 32L8 32L8 31L7 31L7 30ZM9 30L9 31L10 31L10 30ZM23 30L23 31L22 31L22 32L23 32L23 33L24 33L24 34L22 34L22 37L24 37L24 36L25 36L25 35L24 35L24 34L25 34L25 31L24 31L24 30ZM26 30L26 31L27 31L27 32L26 32L26 35L27 35L27 33L28 33L28 31L29 31L29 30ZM6 31L6 32L7 32L7 31ZM20 32L20 33L21 33L21 32ZM20 34L20 35L21 35L21 34ZM52 34L52 35L53 35L53 34ZM38 35L38 36L39 36L39 35ZM43 35L43 36L44 36L44 35ZM48 36L48 38L49 38L49 39L48 39L48 40L49 40L49 39L50 39L50 36ZM32 37L32 38L33 38L33 37ZM15 39L15 40L16 40L16 41L17 41L17 39ZM22 39L22 40L23 40L23 39ZM27 39L27 40L28 40L28 39ZM48 41L48 42L49 42L49 41ZM12 43L12 44L14 44L14 45L15 45L15 47L16 47L16 44L15 44L15 43ZM42 43L42 44L40 44L40 45L41 45L41 46L39 46L39 48L38 48L38 49L39 49L39 48L40 48L40 47L42 47L42 44L43 44L43 43ZM47 43L47 44L49 44L49 43ZM23 44L23 45L24 45L24 44ZM12 45L12 46L11 46L11 47L13 47L13 45ZM25 45L25 48L28 48L28 45ZM45 45L45 48L48 48L48 45ZM49 45L49 46L50 46L50 45ZM26 46L26 47L27 47L27 46ZM46 46L46 47L47 47L47 46ZM18 47L18 48L19 48L19 47ZM16 50L16 51L17 51L17 50ZM14 51L14 52L15 52L15 51ZM52 52L52 53L53 53L53 52ZM0 0L0 7L7 7L7 0ZM1 1L1 6L6 6L6 1ZM2 2L2 5L5 5L5 2ZM46 0L46 7L53 7L53 0ZM47 1L47 6L52 6L52 1ZM48 2L48 5L51 5L51 2ZM0 46L0 53L7 53L7 46ZM1 47L1 52L6 52L6 47ZM2 48L2 51L5 51L5 48Z" fill="#000000"/></g></g></svg>
