<?xml version="1.0" encoding="UTF-8"?>
<svg xmlns="http://www.w3.org/2000/svg" version="1.1" width="356" height="356" viewBox="0 0 356 356"><rect x="0" y="0" width="356" height="356" fill="#ffffff"/><g transform="scale(6.717)"><g transform="translate(0,0)"><path fill-rule="evenodd" d="M8 0L8 1L9 1L9 0ZM10 0L10 3L9 3L9 2L8 2L8 5L9 5L9 6L8 6L8 7L9 7L9 8L8 8L8 9L7 9L7 8L6 8L6 9L5 9L5 10L4 10L4 8L0 8L0 9L1 9L1 10L0 10L0 13L1 13L1 14L0 14L0 18L1 18L1 19L0 19L0 21L1 21L1 20L3 20L3 21L4 21L4 22L6 22L6 23L7 23L7 22L8 22L8 24L5 24L5 23L4 23L4 24L3 24L3 23L2 23L2 22L1 22L1 23L2 23L2 24L0 24L0 25L1 25L1 26L0 26L0 32L1 32L1 33L0 33L0 34L2 34L2 35L3 35L3 34L6 34L6 35L7 35L7 36L4 36L4 37L3 37L3 36L2 36L2 37L3 37L3 38L4 38L4 39L5 39L5 40L6 40L6 41L5 41L5 42L4 42L4 40L2 40L2 41L1 41L1 40L0 40L0 41L1 41L1 42L0 42L0 43L1 43L1 44L3 44L3 45L4 45L4 44L3 44L3 43L7 43L7 44L6 44L6 45L8 45L8 46L9 46L9 45L8 45L8 41L9 41L9 44L11 44L11 43L12 43L12 42L13 42L13 44L12 44L12 45L10 45L10 46L12 46L12 47L11 47L11 48L10 48L10 47L9 47L9 48L10 48L10 49L8 49L8 53L10 53L10 52L9 52L9 51L11 51L11 53L13 53L13 52L12 52L12 51L11 51L11 50L10 50L10 49L13 49L13 50L14 50L14 52L15 52L15 50L17 50L17 49L16 49L16 48L14 48L14 47L15 47L15 46L14 46L14 45L15 45L15 44L14 44L14 42L13 42L13 40L14 40L14 41L16 41L16 42L17 42L17 41L16 41L16 40L17 40L17 39L19 39L19 40L18 40L18 41L19 41L19 40L20 40L20 43L17 43L17 45L18 45L18 46L16 46L16 47L17 47L17 48L18 48L18 49L20 49L20 50L21 50L21 49L20 49L20 48L18 48L18 46L19 46L19 47L23 47L23 48L22 48L22 49L23 49L23 50L22 50L22 51L21 51L21 52L19 52L19 50L18 50L18 51L16 51L16 53L17 53L17 52L19 52L19 53L22 53L22 52L25 52L25 51L26 51L26 52L27 52L27 53L28 53L28 51L27 51L27 49L30 49L30 48L31 48L31 49L32 49L32 50L30 50L30 51L29 51L29 52L30 52L30 51L31 51L31 52L32 52L32 53L34 53L34 52L35 52L35 51L36 51L36 52L37 52L37 53L40 53L40 52L41 52L41 53L43 53L43 52L41 52L41 51L43 51L43 50L41 50L41 49L39 49L39 48L41 48L41 46L43 46L43 47L42 47L42 48L44 48L44 50L45 50L45 49L47 49L47 50L46 50L46 51L48 51L48 52L46 52L46 53L48 53L48 52L49 52L49 53L50 53L50 51L48 51L48 50L50 50L50 49L51 49L51 48L49 48L49 45L50 45L50 46L51 46L51 47L52 47L52 45L50 45L50 44L51 44L51 42L50 42L50 41L52 41L52 42L53 42L53 41L52 41L52 39L53 39L53 38L52 38L52 37L53 37L53 35L52 35L52 33L51 33L51 32L52 32L52 31L50 31L50 30L48 30L48 29L49 29L49 28L50 28L50 29L51 29L51 30L52 30L52 29L53 29L53 28L52 28L52 29L51 29L51 28L50 28L50 27L49 27L49 24L46 24L46 23L45 23L45 22L43 22L43 21L42 21L42 20L43 20L43 19L44 19L44 21L45 21L45 20L47 20L47 21L48 21L48 22L49 22L49 23L52 23L52 24L50 24L50 25L53 25L53 23L52 23L52 21L53 21L53 19L52 19L52 21L51 21L51 18L49 18L49 20L50 20L50 21L48 21L48 19L47 19L47 18L48 18L48 15L47 15L47 14L49 14L49 15L50 15L50 14L51 14L51 17L52 17L52 18L53 18L53 14L52 14L52 10L50 10L50 9L51 9L51 8L48 8L48 9L49 9L49 10L50 10L50 11L51 11L51 12L50 12L50 13L49 13L49 11L48 11L48 12L46 12L46 13L43 13L43 14L46 14L46 15L45 15L45 16L44 16L44 15L41 15L41 17L40 17L40 16L39 16L39 12L38 12L38 13L37 13L37 11L36 11L36 7L37 7L37 10L38 10L38 11L39 11L39 10L40 10L40 12L41 12L41 11L42 11L42 12L45 12L45 10L44 10L44 9L41 9L41 8L44 8L44 7L45 7L45 6L44 6L44 7L43 7L43 3L44 3L44 4L45 4L45 3L44 3L44 1L43 1L43 0L40 0L40 1L39 1L39 2L40 2L40 3L41 3L41 4L37 4L37 3L35 3L35 4L37 4L37 5L35 5L35 6L34 6L34 5L33 5L33 4L32 4L32 3L34 3L34 2L37 2L37 1L38 1L38 0L35 0L35 1L33 1L33 2L32 2L32 3L31 3L31 1L32 1L32 0L28 0L28 1L29 1L29 2L30 2L30 3L29 3L29 4L27 4L27 3L26 3L26 2L27 2L27 1L26 1L26 0L21 0L21 1L19 1L19 0L16 0L16 2L15 2L15 1L13 1L13 2L15 2L15 3L16 3L16 4L17 4L17 6L16 6L16 7L17 7L17 8L15 8L15 6L14 6L14 4L13 4L13 3L11 3L11 2L12 2L12 0ZM17 1L17 2L16 2L16 3L17 3L17 2L19 2L19 1ZM21 1L21 2L20 2L20 3L21 3L21 5L19 5L19 8L20 8L20 9L21 9L21 7L22 7L22 8L23 8L23 7L24 7L24 5L23 5L23 3L22 3L22 2L23 2L23 1ZM40 1L40 2L41 2L41 3L43 3L43 2L41 2L41 1ZM10 3L10 4L9 4L9 5L11 5L11 3ZM24 3L24 4L25 4L25 3ZM12 4L12 5L13 5L13 4ZM29 4L29 7L30 7L30 8L31 8L31 9L33 9L33 10L32 10L32 11L31 11L31 10L30 10L30 11L31 11L31 12L29 12L29 13L28 13L28 12L27 12L27 11L26 11L26 10L28 10L28 11L29 11L29 9L24 9L24 12L23 12L23 11L21 11L21 10L19 10L19 11L18 11L18 12L19 12L19 13L20 13L20 11L21 11L21 14L17 14L17 13L16 13L16 14L17 14L17 15L19 15L19 16L18 16L18 18L17 18L17 16L16 16L16 15L15 15L15 16L14 16L14 14L15 14L15 12L16 12L16 11L17 11L17 10L18 10L18 9L16 9L16 11L15 11L15 12L13 12L13 11L14 11L14 10L15 10L15 8L14 8L14 10L13 10L13 9L12 9L12 8L11 8L11 7L12 7L12 6L11 6L11 7L10 7L10 6L9 6L9 7L10 7L10 8L9 8L9 10L8 10L8 11L10 11L10 13L6 13L6 12L7 12L7 11L6 11L6 10L7 10L7 9L6 9L6 10L5 10L5 11L6 11L6 12L4 12L4 14L1 14L1 15L2 15L2 16L5 16L5 17L1 17L1 18L4 18L4 21L5 21L5 20L7 20L7 21L6 21L6 22L7 22L7 21L9 21L9 23L10 23L10 24L11 24L11 25L12 25L12 26L13 26L13 25L15 25L15 26L14 26L14 27L13 27L13 30L12 30L12 29L10 29L10 28L11 28L11 26L10 26L10 25L9 25L9 26L10 26L10 27L9 27L9 34L8 34L8 32L7 32L7 31L6 31L6 32L4 32L4 31L5 31L5 29L4 29L4 31L3 31L3 28L4 28L4 27L3 27L3 28L2 28L2 27L1 27L1 28L2 28L2 29L1 29L1 30L2 30L2 31L1 31L1 32L2 32L2 33L3 33L3 32L4 32L4 33L6 33L6 34L8 34L8 35L9 35L9 34L10 34L10 35L14 35L14 37L13 37L13 36L12 36L12 37L13 37L13 38L12 38L12 40L13 40L13 38L14 38L14 40L16 40L16 39L17 39L17 37L16 37L16 39L15 39L15 38L14 38L14 37L15 37L15 35L16 35L16 36L18 36L18 35L19 35L19 34L21 34L21 32L22 32L22 36L21 36L21 35L20 35L20 36L21 36L21 38L20 38L20 37L19 37L19 38L20 38L20 40L21 40L21 41L24 41L24 40L25 40L25 39L24 39L24 38L23 38L23 39L22 39L22 37L23 37L23 34L24 34L24 37L25 37L25 38L26 38L26 37L27 37L27 36L26 36L26 37L25 37L25 35L27 35L27 33L28 33L28 32L29 32L29 33L30 33L30 31L31 31L31 34L28 34L28 35L29 35L29 36L28 36L28 38L27 38L27 39L26 39L26 40L27 40L27 42L26 42L26 41L25 41L25 42L21 42L21 43L20 43L20 44L18 44L18 45L20 45L20 46L21 46L21 44L23 44L23 43L24 43L24 44L27 44L27 42L28 42L28 44L30 44L30 45L31 45L31 48L32 48L32 49L33 49L33 48L34 48L34 47L36 47L36 46L37 46L37 47L38 47L38 48L39 48L39 47L40 47L40 46L39 46L39 45L38 45L38 46L37 46L37 44L45 44L45 43L41 43L41 42L40 42L40 41L42 41L42 42L43 42L43 41L45 41L45 40L46 40L46 41L47 41L47 39L50 39L50 40L48 40L48 42L46 42L46 43L50 43L50 42L49 42L49 41L50 41L50 40L51 40L51 37L52 37L52 35L51 35L51 34L49 34L49 35L50 35L50 36L51 36L51 37L49 37L49 36L46 36L46 35L47 35L47 33L46 33L46 35L45 35L45 34L44 34L44 33L43 33L43 34L44 34L44 35L45 35L45 36L40 36L40 35L41 35L41 33L42 33L42 32L41 32L41 31L42 31L42 30L43 30L43 29L42 29L42 27L43 27L43 28L44 28L44 27L43 27L43 24L45 24L45 23L42 23L42 21L38 21L38 20L39 20L39 18L40 18L40 19L41 19L41 20L42 20L42 19L41 19L41 18L40 18L40 17L39 17L39 16L38 16L38 17L37 17L37 16L34 16L34 17L35 17L35 20L32 20L32 18L31 18L31 16L32 16L32 15L34 15L34 14L35 14L35 15L36 15L36 14L35 14L35 13L34 13L34 14L32 14L32 13L33 13L33 12L34 12L34 11L35 11L35 12L36 12L36 11L35 11L35 7L36 7L36 6L35 6L35 7L34 7L34 6L33 6L33 7L32 7L32 6L31 6L31 4ZM41 4L41 5L40 5L40 6L39 6L39 5L37 5L37 7L38 7L38 10L39 10L39 8L41 8L41 7L42 7L42 6L41 6L41 5L42 5L42 4ZM25 5L25 8L28 8L28 5ZM13 6L13 7L14 7L14 6ZM17 6L17 7L18 7L18 6ZM20 6L20 7L21 7L21 6ZM22 6L22 7L23 7L23 6ZM26 6L26 7L27 7L27 6ZM30 6L30 7L31 7L31 6ZM38 6L38 7L39 7L39 6ZM40 6L40 7L41 7L41 6ZM33 8L33 9L34 9L34 8ZM45 8L45 9L46 9L46 8ZM52 8L52 9L53 9L53 8ZM2 9L2 11L4 11L4 10L3 10L3 9ZM22 9L22 10L23 10L23 9ZM10 10L10 11L12 11L12 10ZM1 12L1 13L3 13L3 12ZM11 12L11 13L10 13L10 15L8 15L8 16L6 16L6 17L9 17L9 16L11 16L11 17L10 17L10 18L9 18L9 19L8 19L8 20L9 20L9 21L10 21L10 22L12 22L12 21L13 21L13 22L14 22L14 23L15 23L15 21L14 21L14 20L17 20L17 22L16 22L16 23L17 23L17 22L18 22L18 24L17 24L17 26L15 26L15 27L14 27L14 30L13 30L13 31L12 31L12 30L10 30L10 31L12 31L12 32L10 32L10 33L12 33L12 34L13 34L13 31L15 31L15 30L17 30L17 28L18 28L18 24L21 24L21 25L22 25L22 24L23 24L23 27L22 27L22 26L20 26L20 25L19 25L19 30L18 30L18 31L19 31L19 30L20 30L20 28L21 28L21 29L22 29L22 32L23 32L23 29L22 29L22 28L24 28L24 30L25 30L25 31L24 31L24 32L25 32L25 31L27 31L27 32L28 32L28 31L27 31L27 30L29 30L29 31L30 31L30 30L29 30L29 28L31 28L31 31L32 31L32 32L33 32L33 31L34 31L34 32L35 32L35 30L36 30L36 27L37 27L37 29L38 29L38 28L39 28L39 30L40 30L40 27L38 27L38 26L40 26L40 23L41 23L41 24L42 24L42 23L41 23L41 22L38 22L38 21L36 21L36 20L35 20L35 21L36 21L36 22L35 22L35 24L34 24L34 22L33 22L33 21L32 21L32 22L31 22L31 18L30 18L30 16L31 16L31 14L30 14L30 15L29 15L29 14L27 14L27 12L26 12L26 13L25 13L25 12L24 12L24 14L27 14L27 16L26 16L26 15L20 15L20 16L19 16L19 18L18 18L18 19L17 19L17 18L16 18L16 17L15 17L15 19L14 19L14 16L13 16L13 19L12 19L12 15L13 15L13 14L14 14L14 13L13 13L13 12ZM31 12L31 13L32 13L32 12ZM5 13L5 15L7 15L7 14L6 14L6 13ZM11 13L11 15L12 15L12 14L13 14L13 13ZM22 13L22 14L23 14L23 13ZM40 13L40 14L41 14L41 13ZM46 13L46 14L47 14L47 13ZM28 15L28 16L29 16L29 15ZM21 16L21 17L20 17L20 19L19 19L19 20L18 20L18 21L19 21L19 20L20 20L20 22L21 22L21 23L22 23L22 22L23 22L23 24L27 24L27 23L24 23L24 22L23 22L23 21L24 21L24 20L25 20L25 17L26 17L26 19L28 19L28 20L27 20L27 21L30 21L30 20L29 20L29 19L30 19L30 18L29 18L29 17L26 17L26 16L24 16L24 17L23 17L23 16ZM42 16L42 18L44 18L44 19L45 19L45 17L43 17L43 16ZM46 16L46 17L47 17L47 16ZM21 17L21 18L22 18L22 19L20 19L20 20L21 20L21 22L22 22L22 21L23 21L23 20L22 20L22 19L23 19L23 18L22 18L22 17ZM5 18L5 19L7 19L7 18ZM10 18L10 19L9 19L9 20L11 20L11 18ZM36 18L36 19L38 19L38 18ZM28 22L28 24L29 24L29 27L31 27L31 28L33 28L33 29L32 29L32 30L33 30L33 29L35 29L35 27L36 27L36 26L37 26L37 25L34 25L34 26L35 26L35 27L31 27L31 24L30 24L30 23L31 23L31 22L30 22L30 23L29 23L29 22ZM32 22L32 23L33 23L33 22ZM36 22L36 24L38 24L38 25L39 25L39 23L38 23L38 22ZM12 23L12 25L13 25L13 23ZM2 24L2 25L3 25L3 24ZM32 24L32 25L33 25L33 24ZM5 25L5 28L8 28L8 25ZM25 25L25 28L28 28L28 25ZM45 25L45 28L48 28L48 25ZM6 26L6 27L7 27L7 26ZM26 26L26 27L27 27L27 26ZM41 26L41 27L42 27L42 26ZM46 26L46 27L47 27L47 26ZM51 26L51 27L53 27L53 26ZM16 27L16 28L15 28L15 29L16 29L16 28L17 28L17 27ZM6 29L6 30L8 30L8 29ZM41 29L41 30L42 30L42 29ZM44 29L44 30L45 30L45 31L43 31L43 32L45 32L45 31L47 31L47 29ZM37 30L37 31L36 31L36 32L37 32L37 35L40 35L40 34L38 34L38 32L39 32L39 33L41 33L41 32L40 32L40 31L38 31L38 30ZM2 31L2 32L3 32L3 31ZM16 31L16 35L17 35L17 34L19 34L19 33L17 33L17 31ZM20 31L20 32L21 32L21 31ZM6 32L6 33L7 33L7 32ZM14 32L14 33L15 33L15 32ZM48 32L48 33L50 33L50 32ZM25 33L25 34L26 34L26 33ZM35 33L35 34L34 34L34 37L33 37L33 38L31 38L31 39L29 39L29 40L28 40L28 41L29 41L29 42L30 42L30 41L31 41L31 43L30 43L30 44L31 44L31 43L32 43L32 44L33 44L33 43L34 43L34 45L36 45L36 44L37 44L37 41L33 41L33 40L35 40L35 39L34 39L34 37L35 37L35 38L36 38L36 39L38 39L38 38L39 38L39 39L40 39L40 38L41 38L41 37L39 37L39 36L35 36L35 35L36 35L36 33ZM14 34L14 35L15 35L15 34ZM31 34L31 36L29 36L29 37L32 37L32 36L33 36L33 35L32 35L32 34ZM0 35L0 37L1 37L1 35ZM7 36L7 37L5 37L5 39L6 39L6 40L7 40L7 41L6 41L6 42L7 42L7 41L8 41L8 40L7 40L7 39L8 39L8 38L7 38L7 37L8 37L8 36ZM10 36L10 38L11 38L11 36ZM45 36L45 37L46 37L46 36ZM43 37L43 40L42 40L42 41L43 41L43 40L45 40L45 39L47 39L47 38L45 38L45 39L44 39L44 37ZM0 38L0 39L1 39L1 38ZM6 38L6 39L7 39L7 38ZM9 39L9 40L11 40L11 39ZM23 39L23 40L24 40L24 39ZM31 39L31 40L32 40L32 39ZM29 40L29 41L30 41L30 40ZM39 40L39 41L40 41L40 40ZM10 41L10 43L11 43L11 41ZM2 42L2 43L3 43L3 42ZM25 42L25 43L26 43L26 42ZM32 42L32 43L33 43L33 42ZM35 42L35 44L36 44L36 42ZM52 43L52 44L53 44L53 43ZM12 45L12 46L13 46L13 45ZM22 45L22 46L24 46L24 45ZM25 45L25 48L28 48L28 45ZM32 45L32 47L34 47L34 46L33 46L33 45ZM43 45L43 46L44 46L44 45ZM45 45L45 48L48 48L48 45ZM26 46L26 47L27 47L27 46ZM46 46L46 47L47 47L47 46ZM29 47L29 48L30 48L30 47ZM13 48L13 49L14 49L14 48ZM23 48L23 49L24 49L24 50L23 50L23 51L24 51L24 50L25 50L25 49L24 49L24 48ZM35 48L35 49L34 49L34 50L33 50L33 51L34 51L34 50L35 50L35 49L36 49L36 50L37 50L37 49L36 49L36 48ZM52 48L52 49L53 49L53 48ZM38 50L38 51L40 51L40 50ZM51 50L51 53L52 53L52 50ZM44 52L44 53L45 53L45 52ZM0 0L0 7L7 7L7 0ZM1 1L1 6L6 6L6 1ZM2 2L2 5L5 5L5 2ZM46 0L46 7L53 7L53 0ZM47 1L47 6L52 6L52 1ZM48 2L48 5L51 5L51 2ZM0 46L0 53L7 53L7 46ZM1 47L1 52L6 52L6 47ZM2 48L2 51L5 51L5 48Z" fill="#000000"/></g></g></svg>
