<?xml version="1.0" encoding="UTF-8"?>
<svg xmlns="http://www.w3.org/2000/svg" version="1.1" width="356" height="356" viewBox="0 0 356 356"><rect x="0" y="0" width="356" height="356" fill="#ffffff"/><g transform="scale(6.717)"><g transform="translate(0,0)"><path fill-rule="evenodd" d="M8 0L8 1L10 1L10 2L8 2L8 5L12 5L12 7L13 7L13 12L14 12L14 11L16 11L16 12L15 12L15 14L14 14L14 13L12 13L12 14L14 14L14 16L12 16L12 15L11 15L11 16L10 16L10 15L9 15L9 16L8 16L8 15L7 15L7 14L8 14L8 13L9 13L9 14L10 14L10 13L11 13L11 11L12 11L12 8L11 8L11 6L10 6L10 8L8 8L8 9L7 9L7 8L6 8L6 9L7 9L7 10L4 10L4 13L3 13L3 12L2 12L2 11L1 11L1 10L3 10L3 9L4 9L4 8L0 8L0 11L1 11L1 12L0 12L0 15L1 15L1 16L2 16L2 14L4 14L4 15L3 15L3 17L4 17L4 18L5 18L5 16L6 16L6 17L7 17L7 16L8 16L8 17L9 17L9 16L10 16L10 17L11 17L11 16L12 16L12 17L13 17L13 21L12 21L12 18L10 18L10 19L11 19L11 20L9 20L9 21L8 21L8 20L5 20L5 19L4 19L4 20L3 20L3 19L2 19L2 21L1 21L1 20L0 20L0 21L1 21L1 22L0 22L0 23L5 23L5 24L4 24L4 25L3 25L3 24L2 24L2 25L0 25L0 26L1 26L1 27L2 27L2 30L1 30L1 29L0 29L0 30L1 30L1 31L3 31L3 32L2 32L2 33L0 33L0 34L2 34L2 35L4 35L4 36L2 36L2 37L1 37L1 38L2 38L2 39L0 39L0 41L1 41L1 40L2 40L2 42L0 42L0 43L1 43L1 44L3 44L3 45L4 45L4 44L3 44L3 43L7 43L7 44L6 44L6 45L7 45L7 44L8 44L8 43L7 43L7 42L3 42L3 39L7 39L7 40L6 40L6 41L8 41L8 38L9 38L9 36L6 36L6 35L7 35L7 34L8 34L8 33L7 33L7 32L8 32L8 31L7 31L7 30L8 30L8 29L9 29L9 30L10 30L10 32L9 32L9 33L10 33L10 34L11 34L11 31L12 31L12 29L10 29L10 28L11 28L11 27L9 27L9 24L10 24L10 22L11 22L11 25L12 25L12 26L13 26L13 27L12 27L12 28L13 28L13 27L14 27L14 30L13 30L13 31L15 31L15 30L17 30L17 28L18 28L18 24L21 24L21 25L22 25L22 24L23 24L23 26L22 26L22 27L21 27L21 26L20 26L20 25L19 25L19 30L18 30L18 31L19 31L19 30L20 30L20 28L21 28L21 29L22 29L22 32L21 32L21 31L20 31L20 32L21 32L21 34L19 34L19 33L17 33L17 31L16 31L16 35L15 35L15 34L14 34L14 35L13 35L13 34L12 34L12 35L13 35L13 37L12 37L12 39L11 39L11 36L10 36L10 39L9 39L9 40L10 40L10 41L9 41L9 43L10 43L10 41L11 41L11 44L9 44L9 45L8 45L8 46L9 46L9 49L8 49L8 53L12 53L12 51L13 51L13 50L12 50L12 49L14 49L14 52L15 52L15 50L17 50L17 49L16 49L16 48L15 48L15 49L14 49L14 48L13 48L13 46L14 46L14 47L15 47L15 46L14 46L14 45L15 45L15 44L13 44L13 46L12 46L12 43L15 43L15 42L12 42L12 40L14 40L14 41L16 41L16 42L17 42L17 41L16 41L16 40L17 40L17 39L20 39L20 43L17 43L17 45L18 45L18 46L16 46L16 47L17 47L17 48L18 48L18 49L20 49L20 50L21 50L21 51L22 51L22 52L19 52L19 50L18 50L18 51L16 51L16 53L17 53L17 52L19 52L19 53L22 53L22 52L23 52L23 50L24 50L24 52L26 52L26 51L27 51L27 53L28 53L28 52L29 52L29 53L30 53L30 52L31 52L31 53L34 53L34 52L35 52L35 51L36 51L36 52L37 52L37 51L38 51L38 53L39 53L39 51L38 51L38 50L39 50L39 48L38 48L38 45L36 45L36 43L35 43L35 41L33 41L33 40L35 40L35 39L36 39L36 38L37 38L37 40L38 40L38 41L39 41L39 42L37 42L37 43L40 43L40 41L39 41L39 40L38 40L38 38L39 38L39 39L40 39L40 40L41 40L41 42L42 42L42 43L43 43L43 45L41 45L41 44L39 44L39 45L40 45L40 46L43 46L43 47L44 47L44 50L45 50L45 51L48 51L48 52L47 52L47 53L48 53L48 52L49 52L49 53L50 53L50 52L49 52L49 51L48 51L48 50L49 50L49 49L51 49L51 48L52 48L52 49L53 49L53 47L52 47L52 45L50 45L50 44L51 44L51 43L50 43L50 42L51 42L51 41L52 41L52 42L53 42L53 41L52 41L52 39L53 39L53 38L51 38L51 40L50 40L50 39L47 39L47 38L44 38L44 40L47 40L47 41L43 41L43 39L40 39L40 38L41 38L41 37L43 37L43 35L42 35L42 34L43 34L43 33L44 33L44 34L45 34L45 35L44 35L44 37L45 37L45 35L46 35L46 36L49 36L49 35L46 35L46 34L51 34L51 35L52 35L52 37L53 37L53 35L52 35L52 33L51 33L51 31L50 31L50 30L48 30L48 29L49 29L49 28L50 28L50 29L51 29L51 28L50 28L50 26L51 26L51 27L53 27L53 26L51 26L51 25L53 25L53 24L50 24L50 26L49 26L49 24L45 24L45 22L44 22L44 21L48 21L48 22L49 22L49 23L52 23L52 21L53 21L53 19L52 19L52 21L51 21L51 19L50 19L50 18L51 18L51 17L52 17L52 18L53 18L53 16L51 16L51 17L49 17L49 19L50 19L50 21L48 21L48 20L47 20L47 18L48 18L48 15L50 15L50 14L51 14L51 15L53 15L53 14L51 14L51 13L52 13L52 10L51 10L51 13L49 13L49 11L50 11L50 9L51 9L51 8L48 8L48 9L49 9L49 11L48 11L48 12L47 12L47 14L46 14L46 13L43 13L43 15L42 15L42 14L41 14L41 15L39 15L39 14L40 14L40 13L38 13L38 12L41 12L41 11L40 11L40 10L39 10L39 11L38 11L38 9L37 9L37 11L38 11L38 12L35 12L35 14L34 14L34 13L33 13L33 14L29 14L29 13L32 13L32 12L31 12L31 11L32 11L32 10L33 10L33 9L34 9L34 8L33 8L33 9L29 9L29 4L27 4L27 3L26 3L26 4L24 4L24 3L25 3L25 2L23 2L23 4L21 4L21 3L20 3L20 2L21 2L21 1L19 1L19 0L16 0L16 2L15 2L15 1L13 1L13 0L11 0L11 1L10 1L10 0ZM23 0L23 1L25 1L25 0ZM26 0L26 2L28 2L28 3L29 3L29 2L28 2L28 1L27 1L27 0ZM29 0L29 1L32 1L32 0ZM35 0L35 1L33 1L33 2L32 2L32 3L31 3L31 2L30 2L30 3L31 3L31 5L34 5L34 4L36 4L36 5L35 5L35 6L34 6L34 7L35 7L35 11L36 11L36 7L37 7L37 6L38 6L38 7L39 7L39 6L38 6L38 5L39 5L39 4L37 4L37 3L36 3L36 2L38 2L38 1L37 1L37 0ZM40 0L40 1L41 1L41 0ZM42 0L42 2L43 2L43 3L42 3L42 5L41 5L41 4L40 4L40 5L41 5L41 6L40 6L40 7L41 7L41 6L42 6L42 7L43 7L43 8L39 8L39 9L41 9L41 10L42 10L42 11L43 11L43 10L44 10L44 11L45 11L45 12L46 12L46 11L45 11L45 10L44 10L44 7L45 7L45 6L44 6L44 7L43 7L43 3L44 3L44 4L45 4L45 3L44 3L44 1L43 1L43 0ZM12 1L12 2L13 2L13 1ZM17 1L17 2L16 2L16 3L13 3L13 4L12 4L12 3L9 3L9 4L12 4L12 5L13 5L13 4L14 4L14 6L13 6L13 7L14 7L14 6L15 6L15 8L14 8L14 10L15 10L15 8L17 8L17 7L18 7L18 6L17 6L17 4L16 4L16 3L17 3L17 2L19 2L19 1ZM39 2L39 3L41 3L41 2ZM32 3L32 4L33 4L33 3ZM19 5L19 8L20 8L20 9L21 9L21 7L22 7L22 5ZM23 5L23 9L22 9L22 10L19 10L19 11L18 11L18 12L19 12L19 13L20 13L20 11L21 11L21 13L22 13L22 14L17 14L17 13L16 13L16 14L17 14L17 15L19 15L19 16L18 16L18 18L17 18L17 16L16 16L16 15L15 15L15 16L14 16L14 19L15 19L15 17L16 17L16 18L17 18L17 19L18 19L18 18L19 18L19 16L20 16L20 15L26 15L26 16L27 16L27 17L28 17L28 16L29 16L29 17L30 17L30 18L26 18L26 19L28 19L28 23L29 23L29 21L30 21L30 20L29 20L29 19L31 19L31 21L32 21L32 22L30 22L30 24L29 24L29 27L30 27L30 26L31 26L31 25L30 25L30 24L31 24L31 23L33 23L33 22L35 22L35 21L33 21L33 20L34 20L34 19L32 19L32 18L31 18L31 16L32 16L32 15L31 15L31 16L29 16L29 15L28 15L28 16L27 16L27 14L28 14L28 13L29 13L29 12L28 12L28 11L29 11L29 10L28 10L28 11L27 11L27 10L26 10L26 9L24 9L24 5ZM25 5L25 8L28 8L28 5ZM36 5L36 6L35 6L35 7L36 7L36 6L37 6L37 5ZM8 6L8 7L9 7L9 6ZM16 6L16 7L17 7L17 6ZM20 6L20 7L21 7L21 6ZM26 6L26 7L27 7L27 6ZM30 6L30 7L31 7L31 6ZM32 6L32 7L33 7L33 6ZM10 8L10 10L11 10L11 8ZM45 8L45 9L46 9L46 8ZM52 8L52 9L53 9L53 8ZM8 9L8 10L7 10L7 11L5 11L5 14L7 14L7 13L8 13L8 12L7 12L7 11L9 11L9 12L10 12L10 11L9 11L9 9ZM16 9L16 11L17 11L17 10L18 10L18 9ZM23 9L23 11L22 11L22 12L23 12L23 13L24 13L24 14L26 14L26 12L24 12L24 9ZM30 10L30 11L31 11L31 10ZM1 12L1 13L2 13L2 12ZM6 12L6 13L7 13L7 12ZM35 14L35 15L36 15L36 14ZM37 14L37 15L38 15L38 16L34 16L34 17L35 17L35 20L36 20L36 22L37 22L37 23L36 23L36 24L37 24L37 25L34 25L34 26L35 26L35 30L34 30L34 31L33 31L33 32L32 32L32 30L33 30L33 29L34 29L34 28L33 28L33 27L32 27L32 28L33 28L33 29L31 29L31 28L29 28L29 30L28 30L28 29L25 29L25 30L26 30L26 31L25 31L25 33L24 33L24 32L22 32L22 36L21 36L21 35L20 35L20 36L21 36L21 37L22 37L22 38L21 38L21 41L23 41L23 42L22 42L22 43L20 43L20 44L18 44L18 45L20 45L20 46L18 46L18 48L19 48L19 47L21 47L21 48L20 48L20 49L21 49L21 50L23 50L23 49L24 49L24 50L25 50L25 49L24 49L24 48L23 48L23 47L21 47L21 46L24 46L24 45L20 45L20 44L22 44L22 43L25 43L25 44L27 44L27 43L28 43L28 44L30 44L30 45L31 45L31 46L30 46L30 47L29 47L29 51L31 51L31 50L32 50L32 49L33 49L33 48L34 48L34 47L35 47L35 48L37 48L37 49L34 49L34 50L33 50L33 51L32 51L32 52L34 52L34 50L37 50L37 49L38 49L38 48L37 48L37 47L36 47L36 46L35 46L35 45L34 45L34 43L33 43L33 42L32 42L32 43L31 43L31 40L32 40L32 39L33 39L33 37L34 37L34 39L35 39L35 38L36 38L36 37L35 37L35 36L34 36L34 34L35 34L35 33L36 33L36 36L39 36L39 37L41 37L41 36L39 36L39 35L41 35L41 33L43 33L43 32L44 32L44 33L47 33L47 32L45 32L45 31L47 31L47 29L46 29L46 30L45 30L45 29L44 29L44 26L43 26L43 25L42 25L42 23L41 23L41 22L39 22L39 20L40 20L40 19L39 19L39 18L41 18L41 16L42 16L42 20L41 20L41 21L42 21L42 20L43 20L43 21L44 21L44 20L45 20L45 17L43 17L43 16L44 16L44 15L46 15L46 14L44 14L44 15L43 15L43 16L42 16L42 15L41 15L41 16L40 16L40 17L38 17L38 16L39 16L39 15L38 15L38 14ZM47 14L47 15L48 15L48 14ZM4 15L4 16L5 16L5 15ZM6 15L6 16L7 16L7 15ZM21 16L21 17L20 17L20 19L19 19L19 20L18 20L18 21L19 21L19 20L20 20L20 22L21 22L21 23L22 23L22 22L23 22L23 24L27 24L27 22L26 22L26 21L27 21L27 20L25 20L25 16ZM46 16L46 17L47 17L47 16ZM0 17L0 19L1 19L1 17ZM21 17L21 19L20 19L20 20L21 20L21 21L23 21L23 22L24 22L24 23L25 23L25 21L23 21L23 20L21 20L21 19L23 19L23 18L24 18L24 17L23 17L23 18L22 18L22 17ZM6 18L6 19L9 19L9 18ZM36 18L36 19L38 19L38 18ZM43 18L43 19L44 19L44 18ZM4 20L4 21L3 21L3 22L5 22L5 23L6 23L6 24L7 24L7 23L6 23L6 22L7 22L7 21L5 21L5 20ZM14 20L14 21L15 21L15 23L14 23L14 22L12 22L12 25L15 25L15 26L14 26L14 27L15 27L15 26L17 26L17 24L18 24L18 22L17 22L17 20ZM37 20L37 22L38 22L38 23L39 23L39 24L38 24L38 27L37 27L37 26L36 26L36 27L37 27L37 28L39 28L39 29L40 29L40 30L42 30L42 31L43 31L43 30L44 30L44 29L43 29L43 30L42 30L42 26L41 26L41 25L40 25L40 27L39 27L39 24L41 24L41 23L39 23L39 22L38 22L38 20ZM9 21L9 22L8 22L8 23L9 23L9 22L10 22L10 21ZM16 22L16 23L17 23L17 22ZM46 22L46 23L47 23L47 22ZM34 23L34 24L35 24L35 23ZM43 23L43 24L44 24L44 23ZM32 24L32 25L33 25L33 24ZM5 25L5 28L8 28L8 25ZM25 25L25 28L28 28L28 25ZM45 25L45 28L48 28L48 25ZM2 26L2 27L3 27L3 28L4 28L4 27L3 27L3 26ZM6 26L6 27L7 27L7 26ZM23 26L23 28L22 28L22 29L23 29L23 28L24 28L24 26ZM26 26L26 27L27 27L27 26ZM46 26L46 27L47 27L47 26ZM16 27L16 28L15 28L15 29L16 29L16 28L17 28L17 27ZM40 27L40 29L41 29L41 27ZM52 28L52 29L53 29L53 28ZM3 29L3 30L4 30L4 32L3 32L3 33L4 33L4 35L5 35L5 34L7 34L7 33L4 33L4 32L5 32L5 29ZM6 29L6 30L7 30L7 29ZM36 29L36 32L37 32L37 35L38 35L38 32L39 32L39 34L40 34L40 33L41 33L41 32L40 32L40 31L38 31L38 32L37 32L37 29ZM23 30L23 31L24 31L24 30ZM27 30L27 31L26 31L26 32L27 32L27 33L26 33L26 34L23 34L23 36L25 36L25 37L23 37L23 38L22 38L22 39L23 39L23 38L24 38L24 39L27 39L27 38L28 38L28 36L29 36L29 37L30 37L30 36L29 36L29 34L31 34L31 35L32 35L32 36L31 36L31 38L32 38L32 36L33 36L33 35L32 35L32 34L31 34L31 33L30 33L30 30L29 30L29 32L28 32L28 30ZM6 31L6 32L7 32L7 31ZM34 31L34 32L35 32L35 31ZM52 31L52 32L53 32L53 31ZM14 32L14 33L15 33L15 32ZM48 32L48 33L50 33L50 32ZM17 34L17 35L16 35L16 36L18 36L18 35L19 35L19 34ZM27 34L27 35L26 35L26 37L25 37L25 38L26 38L26 37L27 37L27 35L28 35L28 34ZM0 35L0 36L1 36L1 35ZM14 35L14 37L13 37L13 38L14 38L14 40L16 40L16 39L17 39L17 37L16 37L16 39L15 39L15 38L14 38L14 37L15 37L15 35ZM50 36L50 37L51 37L51 36ZM2 37L2 38L4 38L4 37ZM6 37L6 38L8 38L8 37ZM19 37L19 38L20 38L20 37ZM29 39L29 42L28 42L28 41L27 41L27 40L25 40L25 41L24 41L24 42L25 42L25 43L26 43L26 41L27 41L27 42L28 42L28 43L30 43L30 44L31 44L31 43L30 43L30 40L31 40L31 39ZM18 40L18 41L19 41L19 40ZM48 40L48 42L50 42L50 40ZM42 41L42 42L43 42L43 41ZM2 42L2 43L3 43L3 42ZM44 42L44 44L45 44L45 42ZM46 42L46 43L47 43L47 44L49 44L49 43L47 43L47 42ZM52 43L52 44L53 44L53 43ZM25 45L25 48L28 48L28 45ZM43 45L43 46L44 46L44 45ZM45 45L45 48L48 48L48 45ZM49 45L49 48L51 48L51 46L50 46L50 45ZM11 46L11 47L10 47L10 48L11 48L11 49L9 49L9 50L11 50L11 51L9 51L9 52L11 52L11 51L12 51L12 50L11 50L11 49L12 49L12 46ZM26 46L26 47L27 47L27 46ZM31 46L31 47L30 47L30 48L31 48L31 49L32 49L32 48L31 48L31 47L33 47L33 46ZM46 46L46 47L47 47L47 46ZM41 47L41 48L42 48L42 47ZM22 48L22 49L23 49L23 48ZM27 49L27 51L28 51L28 49ZM40 49L40 52L41 52L41 51L43 51L43 53L46 53L46 52L44 52L44 51L43 51L43 50L42 50L42 49ZM45 49L45 50L47 50L47 49ZM51 50L51 53L52 53L52 50ZM0 0L0 7L7 7L7 0ZM1 1L1 6L6 6L6 1ZM2 2L2 5L5 5L5 2ZM46 0L46 7L53 7L53 0ZM47 1L47 6L52 6L52 1ZM48 2L48 5L51 5L51 2ZM0 46L0 53L7 53L7 46ZM1 47L1 52L6 52L6 47ZM2 48L2 51L5 51L5 48Z" fill="#000000"/></g></g></svg>
