<?xml version="1.0" encoding="UTF-8"?>
<svg xmlns="http://www.w3.org/2000/svg" version="1.1" width="356" height="356" viewBox="0 0 356 356"><rect x="0" y="0" width="356" height="356" fill="#ffffff"/><g transform="scale(6.717)"><g transform="translate(0,0)"><path fill-rule="evenodd" d="M8 0L8 2L9 2L9 1L10 1L10 3L9 3L9 4L8 4L8 9L7 9L7 8L5 8L5 9L4 9L4 10L3 10L3 11L2 11L2 12L1 12L1 10L0 10L0 12L1 12L1 14L0 14L0 16L2 16L2 17L3 17L3 16L5 16L5 17L4 17L4 20L2 20L2 19L3 19L3 18L1 18L1 21L0 21L0 22L1 22L1 21L3 21L3 23L2 23L2 25L3 25L3 26L4 26L4 28L3 28L3 27L2 27L2 28L3 28L3 29L2 29L2 31L3 31L3 32L2 32L2 34L3 34L3 35L1 35L1 36L0 36L0 37L1 37L1 38L2 38L2 37L3 37L3 39L1 39L1 41L0 41L0 43L1 43L1 44L3 44L3 45L4 45L4 44L3 44L3 43L8 43L8 44L6 44L6 45L8 45L8 46L10 46L10 48L9 48L9 47L8 47L8 48L9 48L9 50L8 50L8 53L10 53L10 52L11 52L11 53L16 53L16 52L15 52L15 51L14 51L14 52L13 52L13 48L14 48L14 47L16 47L16 49L17 49L17 47L16 47L16 44L17 44L17 43L18 43L18 45L19 45L19 47L18 47L18 48L19 48L19 52L18 52L18 50L16 50L16 51L17 51L17 52L18 52L18 53L20 53L20 52L21 52L21 51L20 51L20 50L22 50L22 51L24 51L24 53L26 53L26 51L28 51L28 53L29 53L29 52L30 52L30 53L31 53L31 51L32 51L32 50L31 50L31 51L30 51L30 48L29 48L29 47L31 47L31 48L32 48L32 49L33 49L33 51L34 51L34 52L32 52L32 53L34 53L34 52L35 52L35 51L36 51L36 53L38 53L38 52L40 52L40 53L42 53L42 52L43 52L43 53L46 53L46 51L47 51L47 49L48 49L48 51L49 51L49 52L47 52L47 53L50 53L50 50L51 50L51 49L53 49L53 48L51 48L51 49L50 49L50 50L49 50L49 48L50 48L50 46L51 46L51 45L52 45L52 44L53 44L53 42L52 42L52 43L51 43L51 40L50 40L50 39L52 39L52 40L53 40L53 37L51 37L51 36L50 36L50 35L51 35L51 33L53 33L53 30L52 30L52 27L53 27L53 26L52 26L52 27L51 27L51 30L50 30L50 23L51 23L51 24L52 24L52 25L53 25L53 24L52 24L52 23L53 23L53 18L52 18L52 20L50 20L50 18L51 18L51 17L50 17L50 16L49 16L49 15L51 15L51 16L52 16L52 17L53 17L53 14L52 14L52 15L51 15L51 14L50 14L50 13L49 13L49 12L50 12L50 10L52 10L52 11L51 11L51 13L53 13L53 10L52 10L52 9L53 9L53 8L51 8L51 9L49 9L49 8L44 8L44 7L45 7L45 6L44 6L44 7L43 7L43 3L44 3L44 4L45 4L45 3L44 3L44 1L43 1L43 0L40 0L40 1L39 1L39 0L38 0L38 2L37 2L37 0L36 0L36 3L35 3L35 0L34 0L34 1L33 1L33 0L32 0L32 2L30 2L30 7L29 7L29 4L26 4L26 3L29 3L29 2L28 2L28 1L29 1L29 0L26 0L26 1L25 1L25 0L24 0L24 1L23 1L23 0L21 0L21 1L20 1L20 2L21 2L21 3L19 3L19 4L20 4L20 5L19 5L19 6L18 6L18 7L17 7L17 5L18 5L18 3L17 3L17 2L18 2L18 1L19 1L19 0L14 0L14 1L15 1L15 2L14 2L14 3L15 3L15 5L13 5L13 2L12 2L12 1L11 1L11 0ZM30 0L30 1L31 1L31 0ZM16 1L16 2L17 2L17 1ZM24 1L24 2L22 2L22 4L21 4L21 5L20 5L20 6L19 6L19 7L18 7L18 8L19 8L19 9L18 9L18 12L16 12L16 14L15 14L15 15L14 15L14 16L15 16L15 17L14 17L14 18L15 18L15 20L16 20L16 23L15 23L15 22L12 22L12 21L13 21L13 18L12 18L12 21L11 21L11 22L10 22L10 23L9 23L9 24L10 24L10 23L13 23L13 24L12 24L12 25L13 25L13 27L12 27L12 26L11 26L11 25L10 25L10 26L9 26L9 29L10 29L10 28L11 28L11 32L13 32L13 30L12 30L12 29L13 29L13 27L14 27L14 28L15 28L15 27L14 27L14 26L15 26L15 24L16 24L16 23L17 23L17 21L18 21L18 22L19 22L19 23L18 23L18 24L19 24L19 25L18 25L18 26L16 26L16 27L18 27L18 26L19 26L19 29L18 29L18 28L16 28L16 30L15 30L15 31L14 31L14 32L15 32L15 33L14 33L14 34L15 34L15 36L16 36L16 38L13 38L13 39L12 39L12 40L11 40L11 39L9 39L9 38L7 38L7 37L9 37L9 36L10 36L10 37L11 37L11 38L12 38L12 37L13 37L13 36L14 36L14 35L12 35L12 34L13 34L13 33L12 33L12 34L11 34L11 33L10 33L10 34L9 34L9 35L8 35L8 33L5 33L5 32L3 32L3 34L4 34L4 33L5 33L5 34L7 34L7 35L6 35L6 36L7 36L7 37L6 37L6 38L7 38L7 39L5 39L5 35L4 35L4 39L3 39L3 40L2 40L2 41L3 41L3 40L4 40L4 41L6 41L6 42L7 42L7 41L8 41L8 43L9 43L9 45L10 45L10 46L11 46L11 44L12 44L12 45L13 45L13 46L12 46L12 48L13 48L13 47L14 47L14 44L13 44L13 43L15 43L15 40L14 40L14 39L17 39L17 38L18 38L18 34L19 34L19 32L21 32L21 31L19 31L19 30L21 30L21 27L22 27L22 28L24 28L24 27L23 27L23 26L24 26L24 24L25 24L25 23L26 23L26 24L27 24L27 23L28 23L28 24L30 24L30 28L31 28L31 25L32 25L32 27L33 27L33 29L32 29L32 31L31 31L31 32L30 32L30 34L31 34L31 35L29 35L29 31L30 31L30 30L31 30L31 29L30 29L30 30L29 30L29 29L25 29L25 30L26 30L26 31L24 31L24 32L23 32L23 30L22 30L22 32L23 32L23 33L21 33L21 34L20 34L20 35L21 35L21 36L19 36L19 38L20 38L20 39L18 39L18 40L19 40L19 41L18 41L18 43L19 43L19 45L20 45L20 46L21 46L21 44L23 44L23 43L20 43L20 42L23 42L23 40L22 40L22 39L23 39L23 38L24 38L24 37L25 37L25 39L24 39L24 40L25 40L25 41L26 41L26 42L25 42L25 43L24 43L24 44L25 44L25 43L26 43L26 42L27 42L27 43L28 43L28 44L29 44L29 45L30 45L30 46L31 46L31 47L32 47L32 48L34 48L34 50L35 50L35 47L37 47L37 45L38 45L38 46L39 46L39 43L41 43L41 42L40 42L40 41L38 41L38 40L39 40L39 39L38 39L38 38L41 38L41 37L40 37L40 36L42 36L42 34L43 34L43 35L44 35L44 34L45 34L45 33L46 33L46 34L47 34L47 36L48 36L48 38L49 38L49 39L48 39L48 42L49 42L49 43L50 43L50 45L49 45L49 46L50 46L50 45L51 45L51 43L50 43L50 41L49 41L49 39L50 39L50 36L48 36L48 34L49 34L49 35L50 35L50 34L49 34L49 33L51 33L51 32L52 32L52 30L51 30L51 31L50 31L50 30L49 30L49 29L48 29L48 30L47 30L47 32L44 32L44 31L45 31L45 29L44 29L44 27L42 27L42 26L43 26L43 25L44 25L44 24L46 24L46 23L44 23L44 24L43 24L43 23L42 23L42 22L43 22L43 20L45 20L45 19L44 19L44 18L45 18L45 17L46 17L46 19L47 19L47 21L46 21L46 22L48 22L48 23L47 23L47 24L49 24L49 23L50 23L50 22L48 22L48 19L49 19L49 18L50 18L50 17L48 17L48 19L47 19L47 17L46 17L46 15L49 15L49 13L48 13L48 12L49 12L49 11L48 11L48 9L46 9L46 10L47 10L47 11L48 11L48 12L46 12L46 11L45 11L45 12L43 12L43 13L42 13L42 11L41 11L41 9L40 9L40 6L39 6L39 7L38 7L38 3L40 3L40 4L41 4L41 3L40 3L40 2L38 2L38 3L36 3L36 4L35 4L35 3L34 3L34 2L33 2L33 3L32 3L32 4L31 4L31 5L32 5L32 6L31 6L31 8L30 8L30 10L29 10L29 9L27 9L27 11L26 11L26 10L25 10L25 9L24 9L24 8L23 8L23 7L24 7L24 3L26 3L26 2L25 2L25 1ZM41 1L41 2L42 2L42 3L43 3L43 2L42 2L42 1ZM11 3L11 4L9 4L9 5L10 5L10 6L9 6L9 7L10 7L10 8L9 8L9 9L8 9L8 10L7 10L7 9L6 9L6 10L7 10L7 11L6 11L6 12L5 12L5 10L4 10L4 14L3 14L3 12L2 12L2 14L3 14L3 15L2 15L2 16L3 16L3 15L4 15L4 14L5 14L5 16L7 16L7 17L5 17L5 18L7 18L7 17L8 17L8 16L9 16L9 15L8 15L8 11L9 11L9 12L10 12L10 11L11 11L11 13L10 13L10 15L11 15L11 17L10 17L10 18L11 18L11 17L12 17L12 16L13 16L13 12L15 12L15 11L13 11L13 10L15 10L15 8L17 8L17 7L16 7L16 5L15 5L15 8L14 8L14 6L13 6L13 5L12 5L12 6L11 6L11 4L12 4L12 3ZM22 4L22 5L21 5L21 6L20 6L20 9L21 9L21 8L22 8L22 10L20 10L20 11L22 11L22 14L20 14L20 12L18 12L18 14L20 14L20 16L19 16L19 15L18 15L18 16L19 16L19 18L16 18L16 19L18 19L18 21L19 21L19 22L20 22L20 25L21 25L21 26L20 26L20 27L21 27L21 26L23 26L23 24L24 24L24 23L25 23L25 20L26 20L26 19L27 19L27 21L26 21L26 22L27 22L27 21L28 21L28 23L29 23L29 22L30 22L30 23L32 23L32 25L33 25L33 26L34 26L34 29L33 29L33 30L34 30L34 32L32 32L32 33L33 33L33 36L32 36L32 37L33 37L33 38L32 38L32 43L30 43L30 44L32 44L32 46L33 46L33 47L34 47L34 44L32 44L32 43L34 43L34 41L35 41L35 38L36 38L36 37L37 37L37 38L38 38L38 36L39 36L39 35L41 35L41 34L42 34L42 31L41 31L41 32L40 32L40 33L39 33L39 32L37 32L37 30L38 30L38 31L39 31L39 30L42 30L42 29L43 29L43 31L44 31L44 29L43 29L43 28L42 28L42 27L41 27L41 28L40 28L40 29L39 29L39 28L38 28L38 27L37 27L37 28L36 28L36 29L35 29L35 27L36 27L36 25L37 25L37 24L36 24L36 21L37 21L37 18L38 18L38 21L39 21L39 20L40 20L40 21L41 21L41 22L40 22L40 23L39 23L39 24L38 24L38 25L40 25L40 26L42 26L42 25L43 25L43 24L42 24L42 23L41 23L41 22L42 22L42 20L40 20L40 19L41 19L41 18L40 18L40 17L41 17L41 16L40 16L40 14L41 14L41 11L40 11L40 9L39 9L39 8L38 8L38 7L37 7L37 5L35 5L35 4L34 4L34 5L33 5L33 6L32 6L32 9L31 9L31 10L30 10L30 11L29 11L29 10L28 10L28 12L29 12L29 13L27 13L27 12L26 12L26 11L25 11L25 12L26 12L26 14L25 14L25 13L24 13L24 9L23 9L23 8L22 8L22 7L23 7L23 4ZM25 5L25 8L28 8L28 5ZM34 5L34 6L33 6L33 9L34 9L34 10L35 10L35 9L36 9L36 8L37 8L37 7L36 7L36 6L35 6L35 5ZM10 6L10 7L11 7L11 6ZM12 6L12 7L13 7L13 6ZM21 6L21 7L22 7L22 6ZM26 6L26 7L27 7L27 6ZM34 6L34 7L35 7L35 6ZM41 6L41 8L42 8L42 6ZM0 8L0 9L3 9L3 8ZM12 8L12 9L10 9L10 10L11 10L11 11L12 11L12 9L13 9L13 8ZM38 9L38 10L37 10L37 11L34 11L34 12L33 12L33 10L31 10L31 13L30 13L30 14L31 14L31 15L30 15L30 16L31 16L31 17L30 17L30 18L29 18L29 15L28 15L28 14L26 14L26 18L25 18L25 17L24 17L24 16L25 16L25 15L24 15L24 14L22 14L22 16L21 16L21 18L20 18L20 19L21 19L21 18L22 18L22 20L21 20L21 21L20 21L20 22L22 22L22 23L21 23L21 24L22 24L22 23L24 23L24 22L23 22L23 21L24 21L24 20L25 20L25 19L26 19L26 18L27 18L27 19L28 19L28 21L29 21L29 19L30 19L30 18L32 18L32 19L31 19L31 20L30 20L30 22L31 22L31 21L32 21L32 22L33 22L33 23L34 23L34 22L35 22L35 21L36 21L36 20L35 20L35 21L34 21L34 19L35 19L35 18L37 18L37 17L38 17L38 18L39 18L39 17L40 17L40 16L39 16L39 17L38 17L38 14L40 14L40 11L39 11L39 9ZM42 9L42 10L43 10L43 11L44 11L44 10L45 10L45 9L44 9L44 10L43 10L43 9ZM16 10L16 11L17 11L17 10ZM22 10L22 11L23 11L23 10ZM37 11L37 12L36 12L36 13L35 13L35 12L34 12L34 13L33 13L33 12L32 12L32 14L34 14L34 13L35 13L35 14L36 14L36 15L34 15L34 17L33 17L33 15L32 15L32 18L33 18L33 19L34 19L34 17L35 17L35 16L36 16L36 17L37 17L37 16L36 16L36 15L37 15L37 14L38 14L38 13L39 13L39 11ZM6 12L6 13L7 13L7 12ZM37 12L37 13L38 13L38 12ZM45 12L45 14L44 14L44 15L46 15L46 12ZM11 13L11 14L12 14L12 13ZM47 13L47 14L48 14L48 13ZM6 14L6 15L7 15L7 14ZM16 14L16 15L15 15L15 16L16 16L16 17L17 17L17 14ZM23 15L23 16L22 16L22 17L23 17L23 20L22 20L22 21L23 21L23 20L24 20L24 19L25 19L25 18L24 18L24 17L23 17L23 16L24 16L24 15ZM27 15L27 16L28 16L28 15ZM42 15L42 17L43 17L43 18L44 18L44 17L45 17L45 16L43 16L43 15ZM8 18L8 19L6 19L6 20L7 20L7 21L6 21L6 22L7 22L7 23L6 23L6 24L7 24L7 23L8 23L8 22L9 22L9 20L8 20L8 19L9 19L9 18ZM28 18L28 19L29 19L29 18ZM32 20L32 21L33 21L33 22L34 22L34 21L33 21L33 20ZM4 21L4 22L5 22L5 21ZM7 21L7 22L8 22L8 21ZM44 21L44 22L45 22L45 21ZM51 22L51 23L52 23L52 22ZM0 23L0 25L1 25L1 23ZM14 23L14 24L15 24L15 23ZM34 24L34 26L35 26L35 25L36 25L36 24ZM41 24L41 25L42 25L42 24ZM5 25L5 28L8 28L8 25ZM25 25L25 28L28 28L28 25ZM45 25L45 28L48 28L48 25ZM0 26L0 27L1 27L1 26ZM6 26L6 27L7 27L7 26ZM26 26L26 27L27 27L27 26ZM46 26L46 27L47 27L47 26ZM41 28L41 29L42 29L42 28ZM3 29L3 30L4 30L4 31L5 31L5 29ZM6 29L6 30L7 30L7 29ZM34 29L34 30L35 30L35 31L36 31L36 30L35 30L35 29ZM38 29L38 30L39 30L39 29ZM16 30L16 33L17 33L17 30ZM27 30L27 31L26 31L26 34L27 34L27 35L25 35L25 36L26 36L26 37L27 37L27 38L28 38L28 39L27 39L27 40L26 40L26 41L27 41L27 42L28 42L28 43L29 43L29 40L28 40L28 39L30 39L30 40L31 40L31 39L30 39L30 36L28 36L28 30ZM48 30L48 33L47 33L47 34L48 34L48 33L49 33L49 32L50 32L50 31L49 31L49 30ZM0 31L0 32L1 32L1 31ZM6 31L6 32L7 32L7 31ZM8 31L8 32L9 32L9 31ZM18 31L18 32L19 32L19 31ZM34 32L34 36L35 36L35 37L34 37L34 38L33 38L33 40L34 40L34 38L35 38L35 37L36 37L36 36L38 36L38 35L39 35L39 33L37 33L37 35L36 35L36 36L35 36L35 32ZM43 32L43 33L44 33L44 32ZM23 33L23 34L21 34L21 35L22 35L22 36L21 36L21 38L23 38L23 36L24 36L24 33ZM10 34L10 36L11 36L11 37L12 37L12 36L11 36L11 34ZM16 34L16 35L17 35L17 34ZM52 34L52 35L53 35L53 34ZM28 37L28 38L29 38L29 37ZM42 37L42 38L43 38L43 39L42 39L42 40L41 40L41 41L42 41L42 43L44 43L44 41L45 41L45 43L46 43L46 44L48 44L48 43L46 43L46 41L45 41L45 40L44 40L44 39L46 39L46 38L47 38L47 37L46 37L46 38L43 38L43 37ZM4 39L4 40L5 40L5 39ZM20 39L20 41L21 41L21 39ZM36 39L36 42L35 42L35 43L37 43L37 44L36 44L36 45L37 45L37 44L38 44L38 43L37 43L37 39ZM6 40L6 41L7 41L7 40ZM8 40L8 41L10 41L10 40ZM12 40L12 41L11 41L11 43L13 43L13 42L12 42L12 41L13 41L13 40ZM27 40L27 41L28 41L28 40ZM43 40L43 41L44 41L44 40ZM2 42L2 43L3 43L3 42ZM9 42L9 43L10 43L10 42ZM16 42L16 43L17 43L17 42ZM41 44L41 45L40 45L40 46L41 46L41 45L42 45L42 47L43 47L43 46L44 46L44 45L42 45L42 44ZM25 45L25 48L28 48L28 45ZM45 45L45 48L48 48L48 45ZM23 46L23 47L22 47L22 48L24 48L24 46ZM26 46L26 47L27 47L27 46ZM46 46L46 47L47 47L47 46ZM52 46L52 47L53 47L53 46ZM20 47L20 48L21 48L21 47ZM38 47L38 51L37 51L37 52L38 52L38 51L39 51L39 50L40 50L40 52L42 52L42 51L43 51L43 52L44 52L44 49L43 49L43 48L41 48L41 47ZM10 48L10 50L9 50L9 51L11 51L11 52L12 52L12 51L11 51L11 48ZM40 48L40 49L41 49L41 50L42 50L42 49L41 49L41 48ZM14 49L14 50L15 50L15 49ZM22 49L22 50L23 50L23 49ZM24 49L24 51L25 51L25 49ZM26 49L26 50L28 50L28 51L29 51L29 49ZM45 49L45 50L46 50L46 49ZM22 52L22 53L23 53L23 52ZM52 52L52 53L53 53L53 52ZM0 0L0 7L7 7L7 0ZM1 1L1 6L6 6L6 1ZM2 2L2 5L5 5L5 2ZM46 0L46 7L53 7L53 0ZM47 1L47 6L52 6L52 1ZM48 2L48 5L51 5L51 2ZM0 46L0 53L7 53L7 46ZM1 47L1 52L6 52L6 47ZM2 48L2 51L5 51L5 48Z" fill="#000000"/></g></g></svg>
