<?xml version="1.0" encoding="UTF-8"?>
<svg xmlns="http://www.w3.org/2000/svg" version="1.1" width="356" height="356" viewBox="0 0 356 356"><rect x="0" y="0" width="356" height="356" fill="#ffffff"/><g transform="scale(6.717)"><g transform="translate(0,0)"><path fill-rule="evenodd" d="M9 0L9 1L8 1L8 2L9 2L9 1L10 1L10 0ZM12 0L12 1L11 1L11 2L10 2L10 3L8 3L8 4L9 4L9 5L8 5L8 7L9 7L9 6L10 6L10 7L11 7L11 6L10 6L10 5L13 5L13 6L12 6L12 7L13 7L13 6L14 6L14 8L12 8L12 10L11 10L11 9L10 9L10 10L6 10L6 11L4 11L4 10L5 10L5 8L0 8L0 10L1 10L1 12L2 12L2 10L3 10L3 11L4 11L4 12L5 12L5 13L7 13L7 12L6 12L6 11L8 11L8 12L9 12L9 13L10 13L10 12L9 12L9 11L13 11L13 9L16 9L16 10L15 10L15 11L16 11L16 12L15 12L15 13L13 13L13 12L12 12L12 13L11 13L11 14L10 14L10 15L9 15L9 17L8 17L8 14L5 14L5 16L6 16L6 17L7 17L7 18L6 18L6 19L4 19L4 18L5 18L5 17L4 17L4 18L2 18L2 17L3 17L3 16L4 16L4 13L2 13L2 14L0 14L0 16L1 16L1 15L2 15L2 17L0 17L0 20L1 20L1 21L0 21L0 23L1 23L1 24L2 24L2 25L0 25L0 26L1 26L1 27L0 27L0 29L1 29L1 28L2 28L2 30L1 30L1 31L0 31L0 32L2 32L2 34L0 34L0 36L1 36L1 37L3 37L3 38L1 38L1 42L0 42L0 43L1 43L1 44L3 44L3 45L4 45L4 44L3 44L3 43L7 43L7 42L8 42L8 44L6 44L6 45L8 45L8 47L9 47L9 44L10 44L10 45L11 45L11 46L12 46L12 45L11 45L11 44L13 44L13 42L12 42L12 43L10 43L10 41L11 41L11 40L10 40L10 41L9 41L9 40L8 40L8 41L7 41L7 40L6 40L6 39L7 39L7 38L9 38L9 39L10 39L10 38L12 38L12 41L16 41L16 42L14 42L14 44L15 44L15 45L13 45L13 46L15 46L15 48L14 48L14 47L13 47L13 49L12 49L12 50L11 50L11 49L10 49L10 48L11 48L11 47L10 47L10 48L8 48L8 53L9 53L9 50L11 50L11 51L12 51L12 52L10 52L10 53L12 53L12 52L13 52L13 49L14 49L14 53L20 53L20 52L21 52L21 49L22 49L22 48L21 48L21 49L18 49L18 48L17 48L17 47L18 47L18 46L19 46L19 47L20 47L20 44L17 44L17 42L19 42L19 43L20 43L20 42L19 42L19 41L20 41L20 39L19 39L19 38L18 38L18 39L17 39L17 38L16 38L16 40L15 40L15 37L21 37L21 38L22 38L22 39L21 39L21 40L22 40L22 41L21 41L21 42L22 42L22 41L23 41L23 42L25 42L25 43L24 43L24 45L23 45L23 48L24 48L24 49L23 49L23 50L22 50L22 51L23 51L23 53L26 53L26 52L25 52L25 50L26 50L26 49L27 49L27 50L28 50L28 51L27 51L27 52L29 52L29 53L32 53L32 52L29 52L29 50L31 50L31 49L32 49L32 47L33 47L33 49L37 49L37 50L35 50L35 51L37 51L37 52L34 52L34 53L37 53L37 52L38 52L38 53L39 53L39 52L40 52L40 50L41 50L41 52L42 52L42 53L44 53L44 52L45 52L45 51L48 51L48 53L50 53L50 51L51 51L51 52L52 52L52 51L53 51L53 50L52 50L52 47L51 47L51 46L52 46L52 45L53 45L53 43L52 43L52 44L50 44L50 43L51 43L51 42L52 42L52 41L53 41L53 39L51 39L51 40L52 40L52 41L47 41L47 40L50 40L50 38L52 38L52 37L53 37L53 36L52 36L52 35L51 35L51 36L52 36L52 37L50 37L50 38L49 38L49 37L45 37L45 36L47 36L47 35L44 35L44 34L45 34L45 33L47 33L47 34L48 34L48 35L49 35L49 36L50 36L50 35L49 35L49 34L52 34L52 33L51 33L51 32L50 32L50 29L51 29L51 30L52 30L52 29L53 29L53 28L50 28L50 27L49 27L49 26L50 26L50 25L51 25L51 26L52 26L52 25L51 25L51 24L53 24L53 23L51 23L51 24L50 24L50 22L53 22L53 21L52 21L52 20L53 20L53 19L51 19L51 20L50 20L50 19L49 19L49 20L47 20L47 18L50 18L50 17L51 17L51 18L52 18L52 17L53 17L53 15L52 15L52 16L50 16L50 17L49 17L49 16L48 16L48 15L47 15L47 14L46 14L46 15L45 15L45 16L48 16L48 17L47 17L47 18L44 18L44 17L43 17L43 16L44 16L44 15L42 15L42 16L41 16L41 14L44 14L44 13L45 13L45 12L46 12L46 10L45 10L45 11L44 11L44 9L46 9L46 8L45 8L45 6L44 6L44 9L42 9L42 8L41 8L41 6L40 6L40 7L39 7L39 6L38 6L38 7L37 7L37 6L36 6L36 5L38 5L38 3L40 3L40 2L43 2L43 3L41 3L41 4L42 4L42 7L43 7L43 3L44 3L44 4L45 4L45 3L44 3L44 1L43 1L43 0L40 0L40 1L38 1L38 0L35 0L35 1L34 1L34 2L33 2L33 1L32 1L32 0L28 0L28 1L32 1L32 3L31 3L31 4L30 4L30 3L28 3L28 2L27 2L27 1L26 1L26 0L23 0L23 1L24 1L24 2L23 2L23 3L24 3L24 4L21 4L21 0L18 0L18 1L17 1L17 3L16 3L16 2L15 2L15 3L16 3L16 4L13 4L13 3L14 3L14 2L13 2L13 1L14 1L14 0ZM15 0L15 1L16 1L16 0ZM19 1L19 2L18 2L18 3L19 3L19 2L20 2L20 1ZM35 1L35 3L37 3L37 2L38 2L38 1ZM11 2L11 4L12 4L12 2ZM26 2L26 4L27 4L27 2ZM32 3L32 4L31 4L31 5L30 5L30 6L29 6L29 9L26 9L26 10L27 10L27 11L26 11L26 12L25 12L25 14L24 14L24 13L23 13L23 12L24 12L24 11L25 11L25 10L24 10L24 8L20 8L20 6L21 6L21 7L22 7L22 6L21 6L21 4L20 4L20 6L19 6L19 8L20 8L20 9L19 9L19 10L17 10L17 11L19 11L19 13L15 13L15 14L13 14L13 13L12 13L12 14L11 14L11 15L12 15L12 14L13 14L13 15L14 15L14 16L13 16L13 17L14 17L14 18L12 18L12 17L11 17L11 20L10 20L10 22L7 22L7 21L9 21L9 19L8 19L8 18L7 18L7 19L6 19L6 20L7 20L7 21L4 21L4 20L3 20L3 21L1 21L1 23L2 23L2 22L3 22L3 24L4 24L4 22L7 22L7 23L6 23L6 24L8 24L8 23L10 23L10 24L9 24L9 25L12 25L12 24L14 24L14 23L12 23L12 21L11 21L11 20L12 20L12 19L14 19L14 20L13 20L13 21L15 21L15 22L17 22L17 23L18 23L18 22L17 22L17 21L15 21L15 19L16 19L16 20L19 20L19 21L20 21L20 23L19 23L19 24L20 24L20 25L19 25L19 26L20 26L20 27L18 27L18 28L22 28L22 29L19 29L19 30L18 30L18 29L15 29L15 28L16 28L16 27L15 27L15 26L16 26L16 25L18 25L18 24L16 24L16 25L13 25L13 26L12 26L12 29L15 29L15 30L10 30L10 29L8 29L8 30L7 30L7 29L6 29L6 30L5 30L5 31L4 31L4 26L3 26L3 25L2 25L2 26L3 26L3 31L2 31L2 32L4 32L4 34L3 34L3 35L1 35L1 36L3 36L3 35L4 35L4 36L9 36L9 38L10 38L10 37L12 37L12 38L13 38L13 37L15 37L15 36L14 36L14 35L16 35L16 36L19 36L19 35L20 35L20 34L19 34L19 35L17 35L17 34L18 34L18 33L21 33L21 32L22 32L22 35L21 35L21 37L23 37L23 39L24 39L24 38L25 38L25 39L26 39L26 38L27 38L27 37L28 37L28 39L27 39L27 40L24 40L24 41L27 41L27 40L30 40L30 41L29 41L29 42L30 42L30 43L28 43L28 42L26 42L26 43L25 43L25 44L32 44L32 45L33 45L33 47L34 47L34 48L35 48L35 47L38 47L38 48L37 48L37 49L38 49L38 51L39 51L39 49L41 49L41 50L42 50L42 51L43 51L43 52L44 52L44 51L45 51L45 50L49 50L49 51L50 51L50 49L45 49L45 50L44 50L44 49L43 49L43 50L42 50L42 48L44 48L44 47L42 47L42 48L39 48L39 47L40 47L40 46L41 46L41 44L40 44L40 43L42 43L42 44L43 44L43 46L44 46L44 44L48 44L48 43L50 43L50 42L47 42L47 41L46 41L46 40L47 40L47 39L48 39L48 38L45 38L45 37L44 37L44 36L42 36L42 37L43 37L43 40L42 40L42 38L41 38L41 35L39 35L39 34L40 34L40 33L41 33L41 34L42 34L42 35L43 35L43 34L44 34L44 31L46 31L46 32L49 32L49 31L47 31L47 30L44 30L44 27L43 27L43 26L44 26L44 24L46 24L46 23L47 23L47 24L48 24L48 23L49 23L49 22L47 22L47 21L44 21L44 19L43 19L43 18L42 18L42 20L43 20L43 21L44 21L44 22L43 22L43 23L41 23L41 19L38 19L38 18L41 18L41 16L39 16L39 14L41 14L41 12L40 12L40 11L41 11L41 8L37 8L37 9L36 9L36 10L35 10L35 9L34 9L34 8L36 8L36 6L35 6L35 4L33 4L33 3ZM16 4L16 5L17 5L17 7L16 7L16 6L15 6L15 7L16 7L16 9L18 9L18 8L17 8L17 7L18 7L18 5L19 5L19 4ZM23 5L23 7L24 7L24 5ZM25 5L25 8L28 8L28 5ZM31 5L31 6L30 6L30 8L31 8L31 9L29 9L29 10L30 10L30 11L33 11L33 13L37 13L37 14L36 14L36 15L35 15L35 14L32 14L32 12L30 12L30 13L29 13L29 12L28 12L28 13L27 13L27 12L26 12L26 14L25 14L25 15L22 15L22 14L23 14L23 13L22 13L22 11L21 11L21 12L20 12L20 13L19 13L19 15L20 15L20 16L21 16L21 15L22 15L22 16L24 16L24 17L25 17L25 18L23 18L23 19L22 19L22 17L18 17L18 16L17 16L17 15L18 15L18 14L17 14L17 15L16 15L16 16L17 16L17 17L18 17L18 19L19 19L19 20L26 20L26 21L27 21L27 22L22 22L22 21L21 21L21 23L20 23L20 24L21 24L21 25L22 25L22 27L24 27L24 29L22 29L22 30L21 30L21 31L23 31L23 33L24 33L24 31L25 31L25 33L26 33L26 36L25 36L25 34L24 34L24 37L25 37L25 38L26 38L26 36L27 36L27 35L29 35L29 36L28 36L28 37L29 37L29 39L30 39L30 38L31 38L31 39L32 39L32 40L31 40L31 41L30 41L30 42L31 42L31 43L32 43L32 42L33 42L33 43L35 43L35 45L36 45L36 46L38 46L38 45L40 45L40 44L38 44L38 43L40 43L40 42L43 42L43 44L44 44L44 43L45 43L45 42L44 42L44 41L45 41L45 39L44 39L44 41L42 41L42 40L41 40L41 39L40 39L40 38L39 38L39 40L38 40L38 41L39 41L39 40L41 40L41 41L40 41L40 42L33 42L33 41L34 41L34 40L35 40L35 41L37 41L37 39L38 39L38 37L39 37L39 35L38 35L38 37L37 37L37 34L38 34L38 33L40 33L40 32L41 32L41 33L42 33L42 34L43 34L43 33L42 33L42 32L43 32L43 31L44 31L44 30L43 30L43 27L42 27L42 28L41 28L41 29L39 29L39 28L40 28L40 27L41 27L41 26L43 26L43 24L44 24L44 23L43 23L43 24L41 24L41 26L39 26L39 27L38 27L38 29L37 29L37 27L36 27L36 28L35 28L35 27L34 27L34 28L35 28L35 29L36 29L36 30L34 30L34 31L33 31L33 33L35 33L35 34L31 34L31 33L32 33L32 32L31 32L31 31L32 31L32 29L29 29L29 27L31 27L31 28L33 28L33 26L32 26L32 24L33 24L33 25L35 25L35 26L38 26L38 23L39 23L39 24L40 24L40 23L39 23L39 22L40 22L40 21L39 21L39 22L38 22L38 20L36 20L36 19L37 19L37 18L38 18L38 17L39 17L39 16L38 16L38 13L40 13L40 12L38 12L38 11L40 11L40 10L36 10L36 12L35 12L35 11L34 11L34 10L33 10L33 9L32 9L32 8L34 8L34 7L35 7L35 6L34 6L34 7L33 7L33 6L32 6L32 5ZM26 6L26 7L27 7L27 6ZM31 6L31 8L32 8L32 6ZM6 8L6 9L9 9L9 8ZM47 8L47 9L48 9L48 8ZM49 8L49 10L47 10L47 13L49 13L49 14L50 14L50 11L51 11L51 9L52 9L52 8L51 8L51 9L50 9L50 8ZM1 9L1 10L2 10L2 9ZM19 10L19 11L20 11L20 10ZM23 10L23 11L24 11L24 10ZM42 11L42 12L43 12L43 13L44 13L44 12L43 12L43 11ZM52 11L52 12L51 12L51 14L52 14L52 12L53 12L53 11ZM20 13L20 15L21 15L21 14L22 14L22 13ZM26 14L26 15L25 15L25 16L27 16L27 17L26 17L26 20L27 20L27 21L29 21L29 20L28 20L28 19L29 19L29 17L31 17L31 19L30 19L30 20L32 20L32 21L31 21L31 22L27 22L27 23L26 23L26 24L29 24L29 25L31 25L31 24L32 24L32 23L33 23L33 24L34 24L34 23L36 23L36 22L35 22L35 21L36 21L36 20L35 20L35 21L33 21L33 19L32 19L32 17L33 17L33 18L35 18L35 19L36 19L36 17L35 17L35 16L32 16L32 15L31 15L31 16L29 16L29 15L30 15L30 14ZM6 15L6 16L7 16L7 15ZM27 15L27 16L28 16L28 17L27 17L27 18L28 18L28 17L29 17L29 16L28 16L28 15ZM31 16L31 17L32 17L32 16ZM37 16L37 17L38 17L38 16ZM9 17L9 18L10 18L10 17ZM15 17L15 18L16 18L16 17ZM1 18L1 19L2 19L2 18ZM19 18L19 19L20 19L20 18ZM49 20L49 21L50 21L50 20ZM3 21L3 22L4 22L4 21ZM10 22L10 23L11 23L11 22ZM31 22L31 23L29 23L29 24L31 24L31 23L32 23L32 22ZM33 22L33 23L34 23L34 22ZM22 24L22 25L24 25L24 24ZM49 24L49 25L50 25L50 24ZM5 25L5 28L8 28L8 25ZM25 25L25 28L28 28L28 25ZM45 25L45 28L48 28L48 25ZM6 26L6 27L7 27L7 26ZM9 26L9 28L11 28L11 27L10 27L10 26ZM13 26L13 28L14 28L14 26ZM26 26L26 27L27 27L27 26ZM31 26L31 27L32 27L32 26ZM46 26L46 27L47 27L47 26ZM49 28L49 29L50 29L50 28ZM24 29L24 30L23 30L23 31L24 31L24 30L25 30L25 29ZM26 29L26 30L27 30L27 31L26 31L26 33L30 33L30 32L29 32L29 31L28 31L28 30L29 30L29 29L28 29L28 30L27 30L27 29ZM38 29L38 32L37 32L37 31L36 31L36 32L35 32L35 33L36 33L36 32L37 32L37 33L38 33L38 32L40 32L40 31L39 31L39 29ZM6 30L6 31L7 31L7 32L5 32L5 34L4 34L4 35L8 35L8 34L6 34L6 33L7 33L7 32L8 32L8 33L9 33L9 36L11 36L11 35L10 35L10 34L14 34L14 33L12 33L12 32L14 32L14 31L11 31L11 32L10 32L10 31L9 31L9 30L8 30L8 31L7 31L7 30ZM17 30L17 31L15 31L15 32L17 32L17 33L18 33L18 32L17 32L17 31L18 31L18 30ZM42 30L42 31L41 31L41 32L42 32L42 31L43 31L43 30ZM8 31L8 32L9 32L9 33L10 33L10 32L9 32L9 31ZM52 31L52 32L53 32L53 31ZM15 33L15 34L16 34L16 33ZM29 34L29 35L30 35L30 34ZM12 35L12 36L13 36L13 35ZM22 35L22 36L23 36L23 35ZM31 35L31 36L32 36L32 37L33 37L33 38L32 38L32 39L35 39L35 40L36 40L36 39L37 39L37 37L33 37L33 35ZM35 35L35 36L36 36L36 35ZM5 37L5 38L7 38L7 37ZM13 39L13 40L14 40L14 39ZM3 40L3 41L2 41L2 43L3 43L3 42L5 42L5 40ZM16 40L16 41L18 41L18 40ZM32 40L32 41L31 41L31 42L32 42L32 41L33 41L33 40ZM6 41L6 42L7 42L7 41ZM15 43L15 44L16 44L16 43ZM21 43L21 44L22 44L22 43ZM15 45L15 46L18 46L18 45ZM21 45L21 47L22 47L22 45ZM25 45L25 48L28 48L28 45ZM45 45L45 48L48 48L48 45ZM49 45L49 47L50 47L50 48L51 48L51 47L50 47L50 45ZM26 46L26 47L27 47L27 46ZM34 46L34 47L35 47L35 46ZM46 46L46 47L47 47L47 46ZM29 47L29 48L30 48L30 49L31 49L31 48L30 48L30 47ZM15 48L15 49L16 49L16 50L15 50L15 51L16 51L16 52L17 52L17 51L20 51L20 50L18 50L18 49L17 49L17 48ZM28 49L28 50L29 50L29 49ZM32 50L32 51L34 51L34 50ZM43 50L43 51L44 51L44 50ZM51 50L51 51L52 51L52 50ZM0 0L0 7L7 7L7 0ZM1 1L1 6L6 6L6 1ZM2 2L2 5L5 5L5 2ZM46 0L46 7L53 7L53 0ZM47 1L47 6L52 6L52 1ZM48 2L48 5L51 5L51 2ZM0 46L0 53L7 53L7 46ZM1 47L1 52L6 52L6 47ZM2 48L2 51L5 51L5 48Z" fill="#000000"/></g></g></svg>
