<?xml version="1.0" encoding="UTF-8"?>
<svg xmlns="http://www.w3.org/2000/svg" version="1.1" width="356" height="356" viewBox="0 0 356 356"><rect x="0" y="0" width="356" height="356" fill="#ffffff"/><g transform="scale(6.717)"><g transform="translate(0,0)"><path fill-rule="evenodd" d="M8 0L8 2L9 2L9 3L10 3L10 2L11 2L11 4L10 4L10 5L11 5L11 4L12 4L12 3L14 3L14 1L15 1L15 0L12 0L12 1L13 1L13 2L11 2L11 0L10 0L10 1L9 1L9 0ZM18 0L18 1L16 1L16 2L18 2L18 1L19 1L19 4L20 4L20 5L18 5L18 3L15 3L15 5L16 5L16 7L17 7L17 6L18 6L18 8L19 8L19 12L18 12L18 10L16 10L16 11L17 11L17 12L18 12L18 14L16 14L16 12L14 12L14 11L15 11L15 10L14 10L14 9L15 9L15 8L14 8L14 7L15 7L15 6L14 6L14 7L13 7L13 5L12 5L12 7L11 7L11 6L10 6L10 7L9 7L9 4L8 4L8 9L7 9L7 8L5 8L5 9L3 9L3 8L0 8L0 13L2 13L2 12L3 12L3 13L4 13L4 14L5 14L5 15L2 15L2 14L0 14L0 16L2 16L2 17L3 17L3 19L0 19L0 20L1 20L1 21L0 21L0 22L1 22L1 21L7 21L7 22L4 22L4 23L9 23L9 24L3 24L3 25L2 25L2 24L0 24L0 27L1 27L1 28L0 28L0 29L1 29L1 31L0 31L0 34L2 34L2 35L1 35L1 36L2 36L2 37L4 37L4 38L2 38L2 39L4 39L4 40L1 40L1 39L0 39L0 43L1 43L1 44L3 44L3 45L4 45L4 44L3 44L3 43L8 43L8 44L6 44L6 45L8 45L8 46L9 46L9 45L8 45L8 44L9 44L9 43L8 43L8 42L10 42L10 43L11 43L11 45L10 45L10 47L11 47L11 46L12 46L12 47L13 47L13 48L14 48L14 50L13 50L13 49L12 49L12 48L10 48L10 49L9 49L9 50L8 50L8 53L10 53L10 52L11 52L11 51L12 51L12 50L13 50L13 51L14 51L14 52L15 52L15 53L16 53L16 52L18 52L18 53L19 53L19 52L18 52L18 49L19 49L19 48L18 48L18 47L20 47L20 49L21 49L21 47L20 47L20 45L19 45L19 44L21 44L21 43L20 43L20 42L22 42L22 43L24 43L24 42L26 42L26 41L27 41L27 42L28 42L28 37L27 37L27 36L28 36L28 35L29 35L29 38L30 38L30 39L32 39L32 43L30 43L30 41L31 41L31 40L30 40L30 41L29 41L29 43L30 43L30 45L29 45L29 44L28 44L28 43L27 43L27 44L26 44L26 43L25 43L25 44L22 44L22 45L21 45L21 46L22 46L22 45L24 45L24 46L23 46L23 47L22 47L22 48L23 48L23 50L20 50L20 51L23 51L23 52L22 52L22 53L23 53L23 52L24 52L24 53L26 53L26 52L28 52L28 53L29 53L29 52L30 52L30 51L29 51L29 50L30 50L30 49L31 49L31 48L32 48L32 49L33 49L33 51L32 51L32 50L31 50L31 51L32 51L32 53L34 53L34 52L35 52L35 51L37 51L37 50L38 50L38 52L36 52L36 53L39 53L39 52L40 52L40 53L41 53L41 51L40 51L40 50L38 50L38 49L39 49L39 48L40 48L40 49L41 49L41 50L42 50L42 49L43 49L43 48L42 48L42 49L41 49L41 48L40 48L40 46L41 46L41 47L42 47L42 45L44 45L44 49L46 49L46 50L47 50L47 49L48 49L48 51L49 51L49 52L46 52L46 51L45 51L45 50L44 50L44 51L45 51L45 52L44 52L44 53L45 53L45 52L46 52L46 53L50 53L50 50L49 50L49 48L50 48L50 46L52 46L52 47L51 47L51 48L53 48L53 46L52 46L52 44L53 44L53 42L52 42L52 44L50 44L50 43L51 43L51 42L50 42L50 41L51 41L51 40L50 40L50 39L51 39L51 36L50 36L50 34L51 34L51 33L50 33L50 34L48 34L48 33L47 33L47 30L48 30L48 32L50 32L50 31L51 31L51 30L50 30L50 29L52 29L52 31L53 31L53 29L52 29L52 27L53 27L53 26L52 26L52 27L51 27L51 26L50 26L50 23L51 23L51 25L52 25L52 24L53 24L53 22L52 22L52 23L51 23L51 21L53 21L53 18L52 18L52 20L51 20L51 21L49 21L49 20L48 20L48 17L49 17L49 18L50 18L50 19L51 19L51 18L50 18L50 16L49 16L49 15L51 15L51 16L53 16L53 14L52 14L52 15L51 15L51 14L50 14L50 13L53 13L53 10L52 10L52 9L53 9L53 8L51 8L51 10L52 10L52 11L51 11L51 12L50 12L50 11L49 11L49 10L50 10L50 9L49 9L49 8L45 8L45 6L44 6L44 7L43 7L43 3L44 3L44 4L45 4L45 3L44 3L44 1L43 1L43 0L40 0L40 1L39 1L39 0L38 0L38 3L37 3L37 4L38 4L38 5L39 5L39 6L38 6L38 7L39 7L39 8L40 8L40 10L39 10L39 11L37 11L37 10L38 10L38 9L37 9L37 8L36 8L36 9L35 9L35 10L34 10L34 9L33 9L33 6L34 6L34 7L35 7L35 5L36 5L36 7L37 7L37 5L36 5L36 2L37 2L37 0L36 0L36 2L35 2L35 0L34 0L34 1L33 1L33 0L32 0L32 2L33 2L33 4L32 4L32 3L31 3L31 4L30 4L30 5L31 5L31 4L32 4L32 5L33 5L33 6L32 6L32 9L31 9L31 8L30 8L30 9L29 9L29 3L30 3L30 2L31 2L31 0L30 0L30 2L29 2L29 3L28 3L28 1L29 1L29 0L28 0L28 1L27 1L27 0L26 0L26 1L25 1L25 0L24 0L24 1L23 1L23 0L22 0L22 1L21 1L21 0ZM20 1L20 2L21 2L21 3L22 3L22 4L23 4L23 5L20 5L20 6L19 6L19 8L20 8L20 6L21 6L21 7L22 7L22 6L23 6L23 7L24 7L24 4L25 4L25 3L26 3L26 2L27 2L27 1L26 1L26 2L25 2L25 1L24 1L24 4L23 4L23 3L22 3L22 2L23 2L23 1L22 1L22 2L21 2L21 1ZM40 1L40 2L41 2L41 1ZM34 2L34 3L35 3L35 2ZM42 2L42 3L43 3L43 2ZM27 3L27 4L28 4L28 3ZM40 3L40 4L39 4L39 5L40 5L40 4L41 4L41 7L40 7L40 6L39 6L39 7L40 7L40 8L41 8L41 7L42 7L42 4L41 4L41 3ZM25 5L25 8L28 8L28 5ZM26 6L26 7L27 7L27 6ZM30 6L30 7L31 7L31 6ZM10 7L10 8L9 8L9 9L8 9L8 11L9 11L9 10L12 10L12 9L11 9L11 7ZM16 8L16 9L17 9L17 8ZM21 8L21 10L20 10L20 11L21 11L21 12L20 12L20 14L19 14L19 15L18 15L18 16L19 16L19 17L18 17L18 18L19 18L19 20L21 20L21 21L20 21L20 22L19 22L19 21L18 21L18 19L17 19L17 18L16 18L16 19L17 19L17 20L16 20L16 23L14 23L14 24L15 24L15 25L14 25L14 26L15 26L15 28L16 28L16 30L13 30L13 34L15 34L15 32L16 32L16 30L21 30L21 31L18 31L18 32L19 32L19 33L18 33L18 34L16 34L16 35L17 35L17 36L16 36L16 38L15 38L15 37L14 37L14 36L15 36L15 35L13 35L13 36L12 36L12 33L11 33L11 31L12 31L12 29L13 29L13 28L14 28L14 27L13 27L13 26L11 26L11 25L10 25L10 24L11 24L11 23L12 23L12 22L11 22L11 21L12 21L12 20L11 20L11 19L14 19L14 20L15 20L15 19L14 19L14 18L15 18L15 16L14 16L14 15L16 15L16 14L13 14L13 15L12 15L12 16L13 16L13 18L10 18L10 16L9 16L9 18L10 18L10 20L9 20L9 21L8 21L8 20L7 20L7 19L6 19L6 18L7 18L7 17L6 17L6 16L7 16L7 15L8 15L8 14L7 14L7 13L6 13L6 12L7 12L7 11L6 11L6 12L5 12L5 11L4 11L4 10L3 10L3 9L1 9L1 11L2 11L2 10L3 10L3 12L4 12L4 13L6 13L6 14L7 14L7 15L6 15L6 16L3 16L3 17L4 17L4 18L5 18L5 19L3 19L3 20L7 20L7 21L8 21L8 22L9 22L9 23L10 23L10 24L9 24L9 25L10 25L10 26L9 26L9 30L8 30L8 29L6 29L6 30L7 30L7 31L6 31L6 32L5 32L5 31L4 31L4 33L2 33L2 32L3 32L3 30L2 30L2 32L1 32L1 33L2 33L2 34L4 34L4 33L6 33L6 34L7 34L7 35L6 35L6 36L5 36L5 35L2 35L2 36L5 36L5 37L6 37L6 38L5 38L5 39L6 39L6 40L7 40L7 39L6 39L6 38L9 38L9 39L8 39L8 40L9 40L9 39L10 39L10 40L11 40L11 42L12 42L12 40L11 40L11 38L15 38L15 39L14 39L14 40L15 40L15 41L14 41L14 42L13 42L13 43L14 43L14 42L15 42L15 44L14 44L14 45L13 45L13 44L12 44L12 46L13 46L13 47L14 47L14 48L16 48L16 47L17 47L17 46L19 46L19 45L18 45L18 43L19 43L19 40L20 40L20 39L21 39L21 38L22 38L22 36L23 36L23 32L22 32L22 31L23 31L23 30L24 30L24 31L25 31L25 32L24 32L24 33L26 33L26 34L24 34L24 35L25 35L25 36L24 36L24 37L23 37L23 38L24 38L24 39L22 39L22 40L23 40L23 41L22 41L22 42L24 42L24 41L26 41L26 38L27 38L27 37L26 37L26 36L27 36L27 35L28 35L28 33L26 33L26 32L27 32L27 31L28 31L28 32L30 32L30 31L31 31L31 33L30 33L30 35L31 35L31 37L30 37L30 38L32 38L32 39L33 39L33 40L34 40L34 39L35 39L35 41L34 41L34 43L32 43L32 44L31 44L31 45L30 45L30 46L29 46L29 47L30 47L30 46L31 46L31 47L32 47L32 48L34 48L34 50L35 50L35 49L36 49L36 50L37 50L37 49L36 49L36 47L37 47L37 48L38 48L38 47L39 47L39 46L40 46L40 44L41 44L41 43L42 43L42 44L43 44L43 43L44 43L44 41L45 41L45 40L46 40L46 42L47 42L47 44L48 44L48 42L49 42L49 41L48 41L48 40L49 40L49 39L50 39L50 36L48 36L48 34L47 34L47 35L46 35L46 34L45 34L45 36L46 36L46 37L45 37L45 40L44 40L44 37L43 37L43 36L44 36L44 35L43 35L43 36L42 36L42 38L43 38L43 39L42 39L42 42L41 42L41 43L40 43L40 39L41 39L41 37L40 37L40 35L42 35L42 34L43 34L43 33L42 33L42 32L44 32L44 33L46 33L46 30L47 30L47 29L45 29L45 30L43 30L43 29L42 29L42 30L43 30L43 31L41 31L41 29L40 29L40 28L41 28L41 27L42 27L42 28L44 28L44 27L42 27L42 26L43 26L43 25L44 25L44 22L45 22L45 23L46 23L46 22L48 22L48 23L47 23L47 24L49 24L49 23L50 23L50 22L48 22L48 20L45 20L45 19L44 19L44 18L45 18L45 17L46 17L46 19L47 19L47 17L46 17L46 15L45 15L45 13L46 13L46 14L48 14L48 15L49 15L49 14L48 14L48 9L46 9L46 10L47 10L47 12L46 12L46 11L45 11L45 13L44 13L44 15L43 15L43 16L42 16L42 15L41 15L41 13L40 13L40 12L42 12L42 14L43 14L43 12L44 12L44 10L45 10L45 8L44 8L44 10L43 10L43 9L42 9L42 10L43 10L43 12L42 12L42 11L41 11L41 10L40 10L40 11L39 11L39 12L38 12L38 15L37 15L37 14L36 14L36 11L34 11L34 12L33 12L33 10L31 10L31 9L30 9L30 10L31 10L31 13L30 13L30 12L28 12L28 10L29 10L29 9L26 9L26 10L27 10L27 11L26 11L26 12L25 12L25 11L24 11L24 10L25 10L25 9L22 9L22 8ZM5 9L5 10L7 10L7 9ZM13 10L13 11L14 11L14 10ZM21 10L21 11L22 11L22 13L24 13L24 14L23 14L23 15L22 15L22 14L20 14L20 17L21 17L21 18L20 18L20 19L21 19L21 20L22 20L22 21L21 21L21 22L20 22L20 24L19 24L19 23L18 23L18 24L19 24L19 26L18 26L18 27L17 27L17 26L16 26L16 27L17 27L17 28L18 28L18 29L19 29L19 28L22 28L22 30L23 30L23 29L24 29L24 30L25 30L25 31L26 31L26 29L29 29L29 30L28 30L28 31L30 31L30 29L31 29L31 27L32 27L32 25L33 25L33 26L34 26L34 27L33 27L33 28L32 28L32 29L33 29L33 30L34 30L34 32L32 32L32 33L33 33L33 35L32 35L32 38L33 38L33 39L34 39L34 36L33 36L33 35L34 35L34 32L35 32L35 35L37 35L37 36L36 36L36 38L35 38L35 39L36 39L36 41L35 41L35 42L36 42L36 41L37 41L37 42L38 42L38 45L37 45L37 43L34 43L34 45L33 45L33 44L32 44L32 45L31 45L31 46L32 46L32 45L33 45L33 46L34 46L34 47L35 47L35 46L36 46L36 45L37 45L37 46L38 46L38 45L39 45L39 42L38 42L38 40L39 40L39 38L40 38L40 37L39 37L39 36L38 36L38 35L39 35L39 34L40 34L40 33L41 33L41 34L42 34L42 33L41 33L41 31L39 31L39 30L40 30L40 29L39 29L39 27L41 27L41 26L42 26L42 25L43 25L43 24L42 24L42 25L41 25L41 23L40 23L40 25L41 25L41 26L39 26L39 27L36 27L36 25L37 25L37 24L36 24L36 21L37 21L37 23L39 23L39 22L40 22L40 21L41 21L41 20L42 20L42 21L43 21L43 22L44 22L44 21L43 21L43 18L44 18L44 17L45 17L45 15L44 15L44 17L43 17L43 18L42 18L42 16L40 16L40 14L39 14L39 15L38 15L38 17L37 17L37 16L36 16L36 14L34 14L34 13L35 13L35 12L34 12L34 13L33 13L33 12L32 12L32 13L33 13L33 14L32 14L32 18L31 18L31 20L30 20L30 17L31 17L31 14L30 14L30 13L29 13L29 14L28 14L28 12L26 12L26 14L25 14L25 13L24 13L24 11L22 11L22 10ZM10 11L10 12L11 12L11 13L9 13L9 12L8 12L8 13L9 13L9 14L10 14L10 15L11 15L11 14L12 14L12 11ZM49 12L49 13L50 13L50 12ZM24 14L24 16L23 16L23 18L22 18L22 19L23 19L23 18L24 18L24 22L23 22L23 21L22 21L22 24L23 24L23 23L24 23L24 24L25 24L25 23L24 23L24 22L26 22L26 24L27 24L27 23L28 23L28 22L29 22L29 19L28 19L28 17L29 17L29 16L30 16L30 14L29 14L29 15L28 15L28 14L27 14L27 15L26 15L26 16L25 16L25 14ZM21 15L21 16L22 16L22 15ZM33 15L33 17L34 17L34 19L35 19L35 18L37 18L37 17L36 17L36 16L35 16L35 17L34 17L34 15ZM24 16L24 18L25 18L25 16ZM26 16L26 17L28 17L28 16ZM39 16L39 17L38 17L38 19L36 19L36 20L34 20L34 22L35 22L35 21L36 21L36 20L38 20L38 19L42 19L42 18L39 18L39 17L40 17L40 16ZM0 17L0 18L1 18L1 17ZM5 17L5 18L6 18L6 17ZM26 18L26 19L25 19L25 20L26 20L26 22L27 22L27 21L28 21L28 19L27 19L27 18ZM32 18L32 20L31 20L31 21L30 21L30 23L31 23L31 25L30 25L30 27L29 27L29 28L30 28L30 27L31 27L31 25L32 25L32 23L33 23L33 21L32 21L32 20L33 20L33 18ZM26 19L26 20L27 20L27 19ZM39 20L39 21L38 21L38 22L39 22L39 21L40 21L40 20ZM17 21L17 22L18 22L18 21ZM31 21L31 22L32 22L32 21ZM45 21L45 22L46 22L46 21ZM2 22L2 23L3 23L3 22ZM10 22L10 23L11 23L11 22ZM16 23L16 25L17 25L17 23ZM34 24L34 26L35 26L35 25L36 25L36 24ZM38 24L38 25L39 25L39 24ZM1 25L1 27L2 27L2 28L1 28L1 29L2 29L2 28L3 28L3 27L2 27L2 25ZM3 25L3 26L4 26L4 25ZM5 25L5 28L8 28L8 25ZM21 25L21 26L20 26L20 27L22 27L22 28L24 28L24 27L22 27L22 26L24 26L24 25ZM25 25L25 28L28 28L28 25ZM45 25L45 28L48 28L48 25ZM6 26L6 27L7 27L7 26ZM10 26L10 28L11 28L11 26ZM26 26L26 27L27 27L27 26ZM46 26L46 27L47 27L47 26ZM34 27L34 28L35 28L35 29L34 29L34 30L36 30L36 31L37 31L37 32L39 32L39 33L38 33L38 34L39 34L39 33L40 33L40 32L39 32L39 31L37 31L37 30L36 30L36 27ZM50 27L50 28L49 28L49 29L48 29L48 30L49 30L49 31L50 31L50 30L49 30L49 29L50 29L50 28L51 28L51 27ZM37 28L37 29L38 29L38 30L39 30L39 29L38 29L38 28ZM10 29L10 30L11 30L11 29ZM31 30L31 31L32 31L32 30ZM7 31L7 32L6 32L6 33L7 33L7 34L8 34L8 35L7 35L7 36L6 36L6 37L7 37L7 36L8 36L8 35L9 35L9 36L11 36L11 35L9 35L9 34L10 34L10 31ZM14 31L14 32L15 32L15 31ZM44 31L44 32L45 32L45 31ZM7 32L7 33L8 33L8 32ZM20 32L20 33L21 33L21 32ZM52 32L52 33L53 33L53 32ZM18 34L18 38L19 38L19 39L18 39L18 40L19 40L19 39L20 39L20 38L19 38L19 34ZM20 34L20 35L21 35L21 36L22 36L22 35L21 35L21 34ZM26 34L26 35L27 35L27 34ZM52 34L52 35L53 35L53 34ZM47 36L47 38L46 38L46 40L48 40L48 39L49 39L49 38L48 38L48 36ZM0 37L0 38L1 38L1 37ZM24 37L24 38L25 38L25 37ZM38 37L38 38L37 38L37 39L38 39L38 38L39 38L39 37ZM52 37L52 39L53 39L53 37ZM15 39L15 40L16 40L16 41L17 41L17 39ZM24 39L24 40L25 40L25 39ZM4 40L4 41L3 41L3 42L2 42L2 43L3 43L3 42L5 42L5 40ZM43 40L43 41L44 41L44 40ZM52 40L52 41L53 41L53 40ZM6 41L6 42L7 42L7 41ZM47 41L47 42L48 42L48 41ZM16 42L16 43L18 43L18 42ZM42 42L42 43L43 43L43 42ZM15 44L15 45L14 45L14 47L16 47L16 44ZM25 45L25 48L28 48L28 45ZM34 45L34 46L35 46L35 45ZM45 45L45 48L48 48L48 45ZM49 45L49 46L50 46L50 45ZM26 46L26 47L27 47L27 46ZM46 46L46 47L47 47L47 46ZM8 47L8 48L9 48L9 47ZM29 48L29 49L30 49L30 48ZM25 49L25 51L24 51L24 52L26 52L26 51L28 51L28 52L29 52L29 51L28 51L28 50L27 50L27 49ZM9 50L9 51L11 51L11 50ZM14 50L14 51L15 51L15 50ZM16 50L16 51L17 51L17 50ZM33 51L33 52L34 52L34 51ZM42 51L42 52L43 52L43 51ZM20 52L20 53L21 53L21 52ZM52 52L52 53L53 53L53 52ZM0 0L0 7L7 7L7 0ZM1 1L1 6L6 6L6 1ZM2 2L2 5L5 5L5 2ZM46 0L46 7L53 7L53 0ZM47 1L47 6L52 6L52 1ZM48 2L48 5L51 5L51 2ZM0 46L0 53L7 53L7 46ZM1 47L1 52L6 52L6 47ZM2 48L2 51L5 51L5 48Z" fill="#000000"/></g></g></svg>
