<?xml version="1.0" encoding="UTF-8"?>
<svg xmlns="http://www.w3.org/2000/svg" version="1.1" width="356" height="356" viewBox="0 0 356 356"><rect x="0" y="0" width="356" height="356" fill="#ffffff"/><g transform="scale(6.717)"><g transform="translate(0,0)"><path fill-rule="evenodd" d="M8 0L8 1L9 1L9 2L8 2L8 5L9 5L9 6L8 6L8 7L9 7L9 6L10 6L10 9L11 9L11 8L13 8L13 10L14 10L14 11L16 11L16 12L15 12L15 14L14 14L14 13L13 13L13 14L12 14L12 15L11 15L11 13L12 13L12 10L9 10L9 8L8 8L8 13L7 13L7 12L6 12L6 11L7 11L7 10L6 10L6 9L7 9L7 8L6 8L6 9L4 9L4 8L0 8L0 9L1 9L1 10L2 10L2 11L4 11L4 12L1 12L1 11L0 11L0 13L5 13L5 12L6 12L6 13L7 13L7 14L4 14L4 15L3 15L3 16L4 16L4 18L3 18L3 19L4 19L4 20L3 20L3 22L1 22L1 19L2 19L2 16L1 16L1 15L0 15L0 16L1 16L1 18L0 18L0 24L1 24L1 23L3 23L3 24L2 24L2 25L1 25L1 28L2 28L2 29L3 29L3 28L4 28L4 30L3 30L3 31L1 31L1 32L0 32L0 34L1 34L1 32L2 32L2 33L4 33L4 34L5 34L5 33L7 33L7 34L6 34L6 35L7 35L7 36L6 36L6 37L5 37L5 38L4 38L4 37L2 37L2 36L4 36L4 35L3 35L3 34L2 34L2 36L1 36L1 37L0 37L0 40L2 40L2 38L3 38L3 39L5 39L5 40L6 40L6 41L4 41L4 42L3 42L3 41L0 41L0 43L1 43L1 44L3 44L3 45L4 45L4 44L3 44L3 43L7 43L7 44L6 44L6 45L8 45L8 46L9 46L9 47L10 47L10 48L9 48L9 49L8 49L8 53L10 53L10 51L9 51L9 50L10 50L10 48L12 48L12 49L14 49L14 50L13 50L13 51L14 51L14 52L12 52L12 53L15 53L15 50L17 50L17 49L16 49L16 48L13 48L13 47L15 47L15 44L14 44L14 42L13 42L13 40L14 40L14 41L16 41L16 42L17 42L17 41L16 41L16 40L17 40L17 39L20 39L20 43L17 43L17 45L18 45L18 46L16 46L16 47L17 47L17 48L18 48L18 49L20 49L20 50L21 50L21 49L20 49L20 48L18 48L18 46L20 46L20 47L23 47L23 48L22 48L22 49L23 49L23 48L24 48L24 49L26 49L26 51L24 51L24 50L22 50L22 51L23 51L23 52L26 52L26 53L28 53L28 51L27 51L27 49L28 49L28 50L29 50L29 52L30 52L30 53L33 53L33 52L34 52L34 53L35 53L35 50L34 50L34 49L36 49L36 50L37 50L37 51L36 51L36 52L37 52L37 51L38 51L38 52L39 52L39 53L40 53L40 52L42 52L42 53L43 53L43 50L45 50L45 49L47 49L47 50L46 50L46 51L48 51L48 52L47 52L47 53L48 53L48 52L49 52L49 53L50 53L50 52L49 52L49 51L48 51L48 50L49 50L49 49L51 49L51 48L52 48L52 49L53 49L53 48L52 48L52 45L50 45L50 44L51 44L51 41L52 41L52 42L53 42L53 41L52 41L52 39L53 39L53 35L52 35L52 33L51 33L51 31L50 31L50 30L48 30L48 29L51 29L51 28L50 28L50 27L53 27L53 26L51 26L51 25L53 25L53 23L52 23L52 21L53 21L53 19L52 19L52 21L51 21L51 19L50 19L50 18L51 18L51 17L52 17L52 18L53 18L53 13L52 13L52 10L51 10L51 8L48 8L48 9L50 9L50 10L51 10L51 13L49 13L49 11L46 11L46 13L43 13L43 12L42 12L42 11L43 11L43 8L44 8L44 9L46 9L46 8L44 8L44 7L45 7L45 6L44 6L44 7L43 7L43 3L44 3L44 4L45 4L45 3L44 3L44 1L43 1L43 0L42 0L42 2L43 2L43 3L41 3L41 2L40 2L40 3L41 3L41 4L40 4L40 5L39 5L39 4L37 4L37 3L35 3L35 2L37 2L37 1L38 1L38 0L35 0L35 1L33 1L33 2L30 2L30 4L32 4L32 3L35 3L35 6L34 6L34 5L31 5L31 6L30 6L30 5L29 5L29 2L28 2L28 1L32 1L32 0L28 0L28 1L27 1L27 2L28 2L28 4L27 4L27 3L26 3L26 4L24 4L24 3L25 3L25 0L23 0L23 1L24 1L24 2L21 2L21 1L22 1L22 0L21 0L21 1L19 1L19 0L16 0L16 2L15 2L15 1L11 1L11 2L10 2L10 1L9 1L9 0ZM40 0L40 1L41 1L41 0ZM17 1L17 2L16 2L16 3L14 3L14 2L12 2L12 4L11 4L11 3L10 3L10 2L9 2L9 3L10 3L10 6L11 6L11 7L12 7L12 6L13 6L13 7L14 7L14 6L15 6L15 8L14 8L14 10L15 10L15 8L17 8L17 7L18 7L18 6L17 6L17 4L16 4L16 3L17 3L17 2L19 2L19 1ZM20 2L20 3L21 3L21 4L22 4L22 5L19 5L19 8L20 8L20 9L21 9L21 7L22 7L22 5L23 5L23 7L24 7L24 5L23 5L23 3L21 3L21 2ZM13 4L13 6L14 6L14 4ZM36 4L36 6L35 6L35 7L34 7L34 6L33 6L33 7L32 7L32 6L31 6L31 7L30 7L30 6L29 6L29 7L30 7L30 8L31 8L31 9L33 9L33 10L32 10L32 11L31 11L31 10L29 10L29 9L28 9L28 11L26 11L26 10L27 10L27 9L26 9L26 10L25 10L25 9L22 9L22 11L21 11L21 10L19 10L19 11L18 11L18 12L19 12L19 13L20 13L20 11L21 11L21 14L17 14L17 13L16 13L16 14L17 14L17 15L19 15L19 16L18 16L18 18L17 18L17 16L16 16L16 15L15 15L15 16L14 16L14 14L13 14L13 16L14 16L14 19L15 19L15 17L16 17L16 18L17 18L17 19L18 19L18 18L19 18L19 16L20 16L20 15L23 15L23 14L22 14L22 13L23 13L23 10L24 10L24 12L25 12L25 14L24 14L24 15L26 15L26 16L27 16L27 15L26 15L26 14L28 14L28 13L26 13L26 12L29 12L29 15L28 15L28 18L27 18L27 17L26 17L26 18L27 18L27 19L28 19L28 24L31 24L31 23L33 23L33 22L34 22L34 24L35 24L35 21L33 21L33 20L32 20L32 18L31 18L31 16L32 16L32 15L34 15L34 14L37 14L37 13L38 13L38 12L39 12L39 13L41 13L41 15L42 15L42 19L41 19L41 16L40 16L40 17L39 17L39 15L38 15L38 17L37 17L37 16L34 16L34 17L35 17L35 19L36 19L36 21L37 21L37 20L39 20L39 18L40 18L40 19L41 19L41 21L38 21L38 22L37 22L37 23L36 23L36 24L37 24L37 25L34 25L34 26L35 26L35 27L32 27L32 28L35 28L35 30L34 30L34 31L33 31L33 32L32 32L32 30L33 30L33 29L31 29L31 28L30 28L30 27L31 27L31 25L29 25L29 26L30 26L30 27L29 27L29 29L28 29L28 33L30 33L30 32L29 32L29 30L30 30L30 31L31 31L31 34L27 34L27 30L26 30L26 29L25 29L25 30L24 30L24 29L23 29L23 28L24 28L24 26L23 26L23 25L24 25L24 24L25 24L25 23L24 23L24 22L26 22L26 21L27 21L27 20L26 20L26 21L25 21L25 16L21 16L21 17L20 17L20 19L19 19L19 20L18 20L18 21L19 21L19 20L20 20L20 22L21 22L21 23L22 23L22 22L21 22L21 20L24 20L24 22L23 22L23 24L22 24L22 25L21 25L21 24L18 24L18 22L17 22L17 20L14 20L14 21L15 21L15 23L14 23L14 22L13 22L13 19L9 19L9 18L10 18L10 17L8 17L8 16L10 16L10 15L9 15L9 14L10 14L10 13L11 13L11 12L10 12L10 11L9 11L9 13L8 13L8 16L7 16L7 15L6 15L6 16L7 16L7 17L5 17L5 18L7 18L7 17L8 17L8 19L9 19L9 20L11 20L11 26L9 26L9 29L10 29L10 31L5 31L5 30L8 30L8 29L5 29L5 30L4 30L4 32L10 32L10 31L11 31L11 30L12 30L12 32L11 32L11 33L12 33L12 32L13 32L13 34L12 34L12 35L11 35L11 34L9 34L9 33L8 33L8 34L9 34L9 35L8 35L8 36L7 36L7 37L6 37L6 38L7 38L7 39L6 39L6 40L7 40L7 39L10 39L10 38L9 38L9 37L8 37L8 36L9 36L9 35L11 35L11 36L10 36L10 37L11 37L11 39L12 39L12 40L11 40L11 41L12 41L12 40L13 40L13 39L12 39L12 38L14 38L14 40L16 40L16 39L17 39L17 37L16 37L16 39L15 39L15 38L14 38L14 37L15 37L15 35L16 35L16 36L18 36L18 35L19 35L19 34L21 34L21 35L20 35L20 36L21 36L21 37L24 37L24 36L25 36L25 35L26 35L26 34L27 34L27 35L29 35L29 37L27 37L27 36L26 36L26 37L27 37L27 38L25 38L25 39L24 39L24 38L23 38L23 39L22 39L22 38L21 38L21 41L24 41L24 42L22 42L22 43L20 43L20 44L18 44L18 45L20 45L20 46L22 46L22 45L20 45L20 44L23 44L23 46L24 46L24 44L25 44L25 43L24 43L24 42L25 42L25 41L24 41L24 40L26 40L26 39L27 39L27 41L28 41L28 40L29 40L29 41L30 41L30 43L31 43L31 40L32 40L32 39L31 39L31 38L34 38L34 39L35 39L35 40L33 40L33 41L35 41L35 43L33 43L33 42L32 42L32 43L33 43L33 44L30 44L30 45L33 45L33 46L34 46L34 47L31 47L31 46L29 46L29 50L30 50L30 51L31 51L31 50L32 50L32 49L33 49L33 48L34 48L34 47L36 47L36 48L37 48L37 49L41 49L41 50L39 50L39 52L40 52L40 51L42 51L42 50L43 50L43 49L44 49L44 45L43 45L43 47L41 47L41 48L39 48L39 47L40 47L40 46L41 46L41 45L42 45L42 44L41 44L41 39L42 39L42 38L43 38L43 40L42 40L42 42L43 42L43 41L44 41L44 44L46 44L46 43L47 43L47 44L49 44L49 43L50 43L50 42L49 42L49 41L50 41L50 40L51 40L51 38L52 38L52 35L51 35L51 34L50 34L50 32L48 32L48 33L49 33L49 34L46 34L46 33L45 33L45 31L46 31L46 32L47 32L47 29L45 29L45 31L44 31L44 26L43 26L43 25L41 25L41 24L49 24L49 26L50 26L50 24L51 24L51 23L49 23L49 22L48 22L48 21L50 21L50 19L49 19L49 18L50 18L50 17L51 17L51 14L50 14L50 15L49 15L49 13L48 13L48 12L47 12L47 13L46 13L46 14L45 14L45 15L44 15L44 14L43 14L43 13L42 13L42 12L40 12L40 11L41 11L41 9L40 9L40 8L38 8L38 11L37 11L37 7L38 7L38 6L39 6L39 7L40 7L40 6L41 6L41 7L42 7L42 8L43 8L43 7L42 7L42 5L40 5L40 6L39 6L39 5L37 5L37 4ZM11 5L11 6L12 6L12 5ZM25 5L25 8L28 8L28 5ZM16 6L16 7L17 7L17 6ZM20 6L20 7L21 7L21 6ZM26 6L26 7L27 7L27 6ZM36 6L36 7L35 7L35 11L34 11L34 12L35 12L35 13L37 13L37 12L36 12L36 7L37 7L37 6ZM33 8L33 9L34 9L34 8ZM52 8L52 9L53 9L53 8ZM2 9L2 10L4 10L4 11L6 11L6 10L4 10L4 9ZM16 9L16 11L17 11L17 10L18 10L18 9ZM44 10L44 11L45 11L45 10ZM30 11L30 12L31 12L31 14L32 14L32 12L31 12L31 11ZM33 13L33 14L34 14L34 13ZM42 14L42 15L43 15L43 14ZM46 14L46 15L45 15L45 19L44 19L44 18L43 18L43 19L42 19L42 20L44 20L44 21L48 21L48 20L47 20L47 18L48 18L48 14ZM4 15L4 16L5 16L5 15ZM29 15L29 16L31 16L31 15ZM11 16L11 17L12 17L12 16ZM46 16L46 17L47 17L47 16ZM21 17L21 18L22 18L22 19L24 19L24 17L23 17L23 18L22 18L22 17ZM29 18L29 19L30 19L30 18ZM36 18L36 19L38 19L38 18ZM5 19L5 21L6 21L6 22L7 22L7 23L5 23L5 22L4 22L4 23L5 23L5 24L9 24L9 25L10 25L10 23L9 23L9 21L6 21L6 20L7 20L7 19ZM20 19L20 20L21 20L21 19ZM29 21L29 23L30 23L30 22L31 22L31 21ZM32 21L32 22L33 22L33 21ZM41 21L41 23L45 23L45 22L43 22L43 21ZM12 22L12 24L13 24L13 22ZM16 22L16 23L17 23L17 22ZM38 22L38 23L39 23L39 24L38 24L38 25L37 25L37 26L36 26L36 27L37 27L37 29L36 29L36 32L38 32L38 33L37 33L37 34L38 34L38 35L39 35L39 36L40 36L40 33L41 33L41 35L42 35L42 36L41 36L41 37L40 37L40 38L39 38L39 37L37 37L37 36L35 36L35 39L36 39L36 37L37 37L37 40L38 40L38 38L39 38L39 42L37 42L37 45L36 45L36 43L35 43L35 46L36 46L36 47L37 47L37 48L38 48L38 47L37 47L37 46L38 46L38 45L41 45L41 44L39 44L39 43L40 43L40 38L41 38L41 37L43 37L43 38L44 38L44 40L45 40L45 41L46 41L46 40L50 40L50 39L47 39L47 35L46 35L46 34L45 34L45 33L44 33L44 32L43 32L43 30L42 30L42 28L41 28L41 30L39 30L39 31L37 31L37 29L40 29L40 27L41 27L41 25L40 25L40 23L39 23L39 22ZM26 23L26 24L27 24L27 23ZM17 24L17 26L15 26L15 25L13 25L13 27L12 27L12 28L10 28L10 29L13 29L13 27L14 27L14 30L13 30L13 31L15 31L15 30L17 30L17 28L18 28L18 24ZM32 24L32 25L33 25L33 24ZM2 25L2 26L3 26L3 25ZM5 25L5 28L8 28L8 25ZM19 25L19 30L18 30L18 31L19 31L19 30L20 30L20 28L21 28L21 26L20 26L20 25ZM25 25L25 28L28 28L28 25ZM45 25L45 28L48 28L48 25ZM6 26L6 27L7 27L7 26ZM14 26L14 27L15 27L15 26ZM22 26L22 27L23 27L23 26ZM26 26L26 27L27 27L27 26ZM38 26L38 27L40 27L40 26ZM46 26L46 27L47 27L47 26ZM16 27L16 28L15 28L15 29L16 29L16 28L17 28L17 27ZM52 28L52 29L53 29L53 28ZM0 29L0 30L1 30L1 29ZM21 29L21 30L22 30L22 32L21 32L21 31L20 31L20 32L21 32L21 34L22 34L22 32L23 32L23 30L22 30L22 29ZM25 30L25 31L24 31L24 33L23 33L23 35L22 35L22 36L24 36L24 34L25 34L25 32L26 32L26 30ZM16 31L16 35L17 35L17 34L19 34L19 33L17 33L17 31ZM34 31L34 32L35 32L35 31ZM39 31L39 32L40 32L40 31ZM41 31L41 33L42 33L42 31ZM14 32L14 33L15 33L15 32ZM35 33L35 34L34 34L34 35L36 35L36 33ZM38 33L38 34L39 34L39 33ZM43 33L43 34L42 34L42 35L45 35L45 34L44 34L44 33ZM14 34L14 35L12 35L12 37L14 37L14 35L15 35L15 34ZM31 34L31 36L30 36L30 37L32 37L32 36L33 36L33 35L32 35L32 34ZM48 35L48 36L49 36L49 35ZM43 36L43 37L44 37L44 38L46 38L46 37L45 37L45 36ZM50 36L50 37L51 37L51 36ZM7 37L7 38L8 38L8 37ZM19 37L19 38L20 38L20 37ZM29 38L29 39L30 39L30 40L31 40L31 39L30 39L30 38ZM45 39L45 40L46 40L46 39ZM8 40L8 43L9 43L9 46L10 46L10 45L11 45L11 46L12 46L12 45L13 45L13 46L14 46L14 45L13 45L13 43L11 43L11 42L10 42L10 40ZM18 40L18 41L19 41L19 40ZM6 41L6 42L7 42L7 41ZM47 41L47 42L48 42L48 43L49 43L49 42L48 42L48 41ZM2 42L2 43L3 43L3 42ZM9 42L9 43L10 43L10 42ZM26 42L26 43L28 43L28 44L29 44L29 43L28 43L28 42ZM52 43L52 44L53 44L53 43ZM11 44L11 45L12 45L12 44ZM25 45L25 48L28 48L28 45ZM45 45L45 48L48 48L48 45ZM49 45L49 48L51 48L51 46L50 46L50 45ZM26 46L26 47L27 47L27 46ZM46 46L46 47L47 47L47 46ZM30 47L30 48L31 48L31 49L32 49L32 48L31 48L31 47ZM11 50L11 51L12 51L12 50ZM18 50L18 51L16 51L16 53L17 53L17 52L19 52L19 50ZM33 50L33 51L32 51L32 52L33 52L33 51L34 51L34 50ZM51 50L51 53L52 53L52 50ZM44 51L44 52L45 52L45 53L46 53L46 52L45 52L45 51ZM21 52L21 53L22 53L22 52ZM0 0L0 7L7 7L7 0ZM1 1L1 6L6 6L6 1ZM2 2L2 5L5 5L5 2ZM46 0L46 7L53 7L53 0ZM47 1L47 6L52 6L52 1ZM48 2L48 5L51 5L51 2ZM0 46L0 53L7 53L7 46ZM1 47L1 52L6 52L6 47ZM2 48L2 51L5 51L5 48Z" fill="#000000"/></g></g></svg>
