<?xml version="1.0" encoding="UTF-8"?>
<svg xmlns="http://www.w3.org/2000/svg" version="1.1" width="356" height="356" viewBox="0 0 356 356"><rect x="0" y="0" width="356" height="356" fill="#ffffff"/><g transform="scale(6.717)"><g transform="translate(0,0)"><path fill-rule="evenodd" d="M8 0L8 1L9 1L9 2L8 2L8 5L9 5L9 6L8 6L8 7L9 7L9 8L8 8L8 9L7 9L7 8L6 8L6 9L4 9L4 8L0 8L0 9L1 9L1 10L0 10L0 11L3 11L3 14L2 14L2 12L0 12L0 15L2 15L2 16L4 16L4 17L3 17L3 18L4 18L4 17L5 17L5 18L6 18L6 19L5 19L5 20L6 20L6 21L7 21L7 22L5 22L5 21L3 21L3 20L1 20L1 18L2 18L2 17L1 17L1 16L0 16L0 17L1 17L1 18L0 18L0 20L1 20L1 22L2 22L2 21L3 21L3 23L2 23L2 25L0 25L0 26L1 26L1 27L0 27L0 28L2 28L2 25L4 25L4 26L3 26L3 27L4 27L4 28L3 28L3 29L2 29L2 30L4 30L4 29L9 29L9 30L5 30L5 31L4 31L4 32L3 32L3 33L2 33L2 32L1 32L1 33L0 33L0 34L1 34L1 35L2 35L2 34L3 34L3 33L7 33L7 34L4 34L4 36L2 36L2 37L1 37L1 36L0 36L0 39L1 39L1 40L0 40L0 41L2 41L2 42L0 42L0 43L1 43L1 44L3 44L3 45L4 45L4 44L3 44L3 43L7 43L7 44L6 44L6 45L8 45L8 46L10 46L10 48L9 48L9 49L8 49L8 53L9 53L9 49L10 49L10 51L11 51L11 52L10 52L10 53L11 53L11 52L12 52L12 50L11 50L11 49L10 49L10 48L11 48L11 46L12 46L12 49L13 49L13 50L14 50L14 49L15 49L15 50L17 50L17 49L16 49L16 48L15 48L15 47L14 47L14 46L15 46L15 44L14 44L14 43L15 43L15 42L14 42L14 43L13 43L13 41L12 41L12 40L11 40L11 41L10 41L10 40L9 40L9 39L8 39L8 37L9 37L9 38L10 38L10 36L8 36L8 35L7 35L7 34L8 34L8 33L10 33L10 35L11 35L11 34L12 34L12 36L11 36L11 37L12 37L12 36L13 36L13 37L14 37L14 38L13 38L13 40L14 40L14 41L16 41L16 42L17 42L17 41L16 41L16 40L17 40L17 39L19 39L19 40L18 40L18 41L19 41L19 40L20 40L20 43L17 43L17 45L18 45L18 46L16 46L16 47L17 47L17 48L18 48L18 49L20 49L20 50L21 50L21 52L19 52L19 50L18 50L18 51L16 51L16 53L17 53L17 52L19 52L19 53L22 53L22 52L25 52L25 53L28 53L28 52L29 52L29 53L30 53L30 52L31 52L31 53L33 53L33 52L34 52L34 53L35 53L35 51L36 51L36 52L37 52L37 51L38 51L38 52L39 52L39 53L40 53L40 52L42 52L42 53L43 53L43 52L44 52L44 51L43 51L43 50L41 50L41 49L38 49L38 48L39 48L39 47L37 47L37 46L38 46L38 44L37 44L37 46L36 46L36 48L35 48L35 47L34 47L34 46L33 46L33 47L34 47L34 48L33 48L33 49L32 49L32 48L31 48L31 49L32 49L32 50L31 50L31 51L30 51L30 50L29 50L29 48L30 48L30 46L31 46L31 47L32 47L32 45L31 45L31 43L32 43L32 44L33 44L33 43L34 43L34 45L36 45L36 44L35 44L35 42L37 42L37 43L39 43L39 42L40 42L40 43L41 43L41 44L39 44L39 46L40 46L40 48L44 48L44 50L45 50L45 49L47 49L47 51L48 51L48 52L46 52L46 53L48 53L48 52L49 52L49 53L50 53L50 51L48 51L48 50L51 50L51 53L52 53L52 50L51 50L51 48L52 48L52 49L53 49L53 48L52 48L52 46L51 46L51 45L50 45L50 46L51 46L51 48L49 48L49 44L51 44L51 43L50 43L50 42L51 42L51 41L52 41L52 42L53 42L53 41L52 41L52 40L53 40L53 38L51 38L51 39L52 39L52 40L50 40L50 39L47 39L47 38L45 38L45 39L44 39L44 38L41 38L41 37L40 37L40 35L41 35L41 36L43 36L43 35L44 35L44 37L47 37L47 36L49 36L49 35L52 35L52 37L53 37L53 35L52 35L52 33L53 33L53 31L52 31L52 32L51 32L51 31L50 31L50 30L48 30L48 29L51 29L51 28L50 28L50 27L53 27L53 26L51 26L51 25L53 25L53 23L52 23L52 21L53 21L53 19L52 19L52 21L51 21L51 19L50 19L50 18L49 18L49 19L50 19L50 21L48 21L48 20L47 20L47 18L48 18L48 15L50 15L50 14L51 14L51 15L53 15L53 14L51 14L51 13L52 13L52 10L50 10L50 9L51 9L51 8L48 8L48 9L49 9L49 10L50 10L50 11L51 11L51 13L49 13L49 11L48 11L48 12L47 12L47 14L46 14L46 11L45 11L45 10L43 10L43 8L42 8L42 7L43 7L43 3L44 3L44 4L45 4L45 3L44 3L44 1L43 1L43 0L39 0L39 2L38 2L38 3L35 3L35 2L37 2L37 1L38 1L38 0L35 0L35 1L33 1L33 2L32 2L32 3L31 3L31 2L30 2L30 1L32 1L32 0L27 0L27 1L25 1L25 0L22 0L22 1L19 1L19 0L16 0L16 2L15 2L15 1L14 1L14 3L16 3L16 4L17 4L17 6L16 6L16 7L17 7L17 8L15 8L15 6L14 6L14 4L13 4L13 5L12 5L12 7L11 7L11 6L10 6L10 5L11 5L11 4L12 4L12 3L13 3L13 0L10 0L10 1L9 1L9 0ZM10 1L10 3L11 3L11 1ZM17 1L17 2L16 2L16 3L17 3L17 2L19 2L19 1ZM22 1L22 2L20 2L20 3L21 3L21 4L22 4L22 5L19 5L19 8L20 8L20 9L21 9L21 7L22 7L22 8L23 8L23 7L24 7L24 3L22 3L22 2L25 2L25 3L27 3L27 4L29 4L29 8L30 8L30 9L33 9L33 10L32 10L32 13L31 13L31 12L29 12L29 9L25 9L25 10L24 10L24 12L26 12L26 13L25 13L25 14L24 14L24 15L25 15L25 14L26 14L26 16L21 16L21 17L20 17L20 19L19 19L19 20L18 20L18 21L19 21L19 20L20 20L20 22L21 22L21 23L22 23L22 22L24 22L24 24L22 24L22 25L21 25L21 24L18 24L18 22L17 22L17 20L14 20L14 21L15 21L15 23L14 23L14 22L12 22L12 24L11 24L11 22L10 22L10 27L9 27L9 28L10 28L10 27L12 27L12 28L11 28L11 29L12 29L12 30L11 30L11 31L10 31L10 32L11 32L11 33L12 33L12 32L13 32L13 35L14 35L14 37L15 37L15 35L16 35L16 36L18 36L18 35L19 35L19 34L21 34L21 32L22 32L22 35L20 35L20 36L21 36L21 37L22 37L22 38L20 38L20 37L19 37L19 38L20 38L20 40L21 40L21 41L25 41L25 42L22 42L22 43L20 43L20 44L18 44L18 45L20 45L20 46L22 46L22 45L21 45L21 44L22 44L22 43L25 43L25 42L26 42L26 43L27 43L27 42L28 42L28 44L29 44L29 45L30 45L30 44L29 44L29 38L30 38L30 40L32 40L32 39L31 39L31 38L33 38L33 37L34 37L34 39L35 39L35 40L33 40L33 41L37 41L37 42L39 42L39 39L38 39L38 41L37 41L37 40L36 40L36 39L37 39L37 37L38 37L38 36L37 36L37 37L36 37L36 39L35 39L35 36L36 36L36 35L39 35L39 32L40 32L40 31L42 31L42 32L41 32L41 33L42 33L42 32L44 32L44 34L45 34L45 32L46 32L46 31L47 31L47 29L45 29L45 30L44 30L44 31L42 31L42 30L43 30L43 29L44 29L44 26L43 26L43 25L44 25L44 23L43 23L43 24L42 24L42 22L41 22L41 21L40 21L40 20L39 20L39 21L38 21L38 22L37 22L37 23L36 23L36 24L37 24L37 23L38 23L38 24L39 24L39 23L40 23L40 25L39 25L39 26L41 26L41 27L39 27L39 28L37 28L37 27L38 27L38 25L34 25L34 26L35 26L35 27L32 27L32 28L35 28L35 29L37 29L37 32L36 32L36 31L35 31L35 30L33 30L33 29L31 29L31 28L29 28L29 29L30 29L30 33L31 33L31 34L30 34L30 35L29 35L29 36L30 36L30 35L31 35L31 34L32 34L32 35L33 35L33 36L32 36L32 37L28 37L28 38L27 38L27 39L26 39L26 40L25 40L25 38L24 38L24 37L25 37L25 36L26 36L26 37L27 37L27 36L26 36L26 35L25 35L25 33L26 33L26 34L27 34L27 35L28 35L28 34L27 34L27 32L26 32L26 31L27 31L27 30L28 30L28 32L29 32L29 30L28 30L28 29L25 29L25 30L26 30L26 31L24 31L24 28L23 28L23 27L22 27L22 26L24 26L24 24L27 24L27 22L25 22L25 21L27 21L27 20L28 20L28 24L29 24L29 23L30 23L30 24L31 24L31 23L33 23L33 22L34 22L34 24L35 24L35 20L33 20L33 19L32 19L32 18L31 18L31 16L32 16L32 15L31 15L31 14L33 14L33 15L34 15L34 14L37 14L37 16L34 16L34 17L35 17L35 19L36 19L36 21L37 21L37 20L38 20L38 18L40 18L40 19L41 19L41 15L38 15L38 13L40 13L40 14L42 14L42 15L44 15L44 16L45 16L45 15L44 15L44 14L43 14L43 13L42 13L42 12L43 12L43 10L41 10L41 11L42 11L42 12L40 12L40 10L39 10L39 8L40 8L40 6L41 6L41 7L42 7L42 5L41 5L41 3L43 3L43 2L39 2L39 3L38 3L38 4L40 4L40 6L39 6L39 5L37 5L37 7L36 7L36 5L35 5L35 3L34 3L34 2L33 2L33 3L32 3L32 4L33 4L33 5L32 5L32 6L31 6L31 4L30 4L30 2L29 2L29 1L28 1L28 2L25 2L25 1ZM28 2L28 3L29 3L29 2ZM25 5L25 8L28 8L28 5ZM33 5L33 6L32 6L32 7L33 7L33 6L34 6L34 7L35 7L35 11L33 11L33 12L35 12L35 13L38 13L38 11L39 11L39 10L38 10L38 8L39 8L39 6L38 6L38 7L37 7L37 11L36 11L36 7L35 7L35 6L34 6L34 5ZM9 6L9 7L10 7L10 6ZM13 6L13 7L12 7L12 8L11 8L11 9L12 9L12 8L13 8L13 7L14 7L14 6ZM17 6L17 7L18 7L18 6ZM20 6L20 7L21 7L21 6ZM22 6L22 7L23 7L23 6ZM26 6L26 7L27 7L27 6ZM30 6L30 8L31 8L31 6ZM44 6L44 7L45 7L45 6ZM14 8L14 10L13 10L13 11L14 11L14 12L11 12L11 11L12 11L12 10L10 10L10 9L8 9L8 10L7 10L7 9L6 9L6 10L7 10L7 11L6 11L6 12L7 12L7 13L5 13L5 10L4 10L4 9L3 9L3 10L4 10L4 13L5 13L5 16L7 16L7 17L6 17L6 18L7 18L7 19L6 19L6 20L7 20L7 21L8 21L8 20L7 20L7 19L9 19L9 20L10 20L10 21L11 21L11 20L13 20L13 19L10 19L10 18L13 18L13 16L14 16L14 19L15 19L15 17L16 17L16 18L17 18L17 19L18 19L18 18L19 18L19 16L20 16L20 15L23 15L23 14L17 14L17 13L16 13L16 14L17 14L17 15L19 15L19 16L18 16L18 18L17 18L17 16L16 16L16 15L15 15L15 16L14 16L14 14L15 14L15 12L16 12L16 11L17 11L17 10L18 10L18 9L16 9L16 11L14 11L14 10L15 10L15 8ZM33 8L33 9L34 9L34 8ZM41 8L41 9L42 9L42 8ZM44 8L44 9L46 9L46 8ZM52 8L52 9L53 9L53 8ZM22 9L22 10L19 10L19 11L18 11L18 12L19 12L19 13L20 13L20 11L23 11L23 9ZM9 10L9 13L7 13L7 14L6 14L6 15L7 15L7 14L9 14L9 16L8 16L8 17L10 17L10 16L11 16L11 17L12 17L12 16L13 16L13 14L14 14L14 13L13 13L13 14L12 14L12 13L10 13L10 10ZM25 10L25 11L27 11L27 12L28 12L28 10ZM30 10L30 11L31 11L31 10ZM44 11L44 13L45 13L45 11ZM22 12L22 13L23 13L23 12ZM27 13L27 15L28 15L28 16L26 16L26 17L27 17L27 18L26 18L26 19L25 19L25 20L24 20L24 21L25 21L25 20L27 20L27 18L29 18L29 19L28 19L28 20L29 20L29 22L31 22L31 20L29 20L29 19L31 19L31 18L30 18L30 16L31 16L31 15L30 15L30 14L29 14L29 13ZM33 13L33 14L34 14L34 13ZM3 14L3 15L4 15L4 14ZM47 14L47 15L48 15L48 14ZM28 16L28 17L29 17L29 16ZM37 16L37 17L40 17L40 16ZM46 16L46 17L47 17L47 16ZM51 16L51 17L52 17L52 18L53 18L53 16ZM21 17L21 18L22 18L22 17ZM24 17L24 18L25 18L25 17ZM42 17L42 18L43 18L43 20L42 20L42 21L44 21L44 22L46 22L46 23L45 23L45 24L49 24L49 26L50 26L50 24L52 24L52 23L48 23L48 22L47 22L47 21L44 21L44 20L46 20L46 19L44 19L44 18L45 18L45 17ZM36 18L36 19L37 19L37 18ZM20 19L20 20L21 20L21 21L23 21L23 20L22 20L22 19ZM32 21L32 22L33 22L33 21ZM4 22L4 24L5 24L5 22ZM8 22L8 23L9 23L9 22ZM16 22L16 23L17 23L17 22ZM38 22L38 23L39 23L39 22ZM40 22L40 23L41 23L41 22ZM6 23L6 24L7 24L7 23ZM17 24L17 26L15 26L15 25L11 25L11 26L12 26L12 27L14 27L14 30L12 30L12 31L11 31L11 32L12 32L12 31L15 31L15 30L17 30L17 28L18 28L18 24ZM32 24L32 25L33 25L33 24ZM5 25L5 28L8 28L8 25ZM19 25L19 30L18 30L18 31L19 31L19 30L20 30L20 28L21 28L21 30L22 30L22 32L23 32L23 33L24 33L24 32L23 32L23 29L22 29L22 28L21 28L21 26L20 26L20 25ZM25 25L25 28L28 28L28 25ZM30 25L30 26L31 26L31 25ZM45 25L45 28L48 28L48 25ZM6 26L6 27L7 27L7 26ZM14 26L14 27L15 27L15 26ZM26 26L26 27L27 27L27 26ZM36 26L36 27L35 27L35 28L36 28L36 27L37 27L37 26ZM42 26L42 27L41 27L41 28L42 28L42 29L41 29L41 30L42 30L42 29L43 29L43 26ZM46 26L46 27L47 27L47 26ZM16 27L16 28L15 28L15 29L16 29L16 28L17 28L17 27ZM39 28L39 29L40 29L40 28ZM52 28L52 29L53 29L53 28ZM0 30L0 31L1 31L1 30ZM31 30L31 31L32 31L32 32L33 32L33 30ZM38 30L38 32L39 32L39 31L40 31L40 30ZM6 31L6 32L7 32L7 33L8 33L8 31ZM16 31L16 35L17 35L17 34L19 34L19 33L17 33L17 31ZM20 31L20 32L21 32L21 31ZM34 31L34 32L35 32L35 31ZM14 32L14 33L15 33L15 32ZM47 32L47 33L46 33L46 35L47 35L47 33L48 33L48 32ZM49 32L49 34L50 34L50 32ZM35 33L35 34L34 34L34 36L35 36L35 34L38 34L38 33ZM14 34L14 35L15 35L15 34ZM23 34L23 37L24 37L24 34ZM42 34L42 35L43 35L43 34ZM5 35L5 36L4 36L4 37L2 37L2 38L1 38L1 39L4 39L4 42L7 42L7 43L8 43L8 42L10 42L10 43L11 43L11 44L12 44L12 46L13 46L13 45L14 45L14 44L13 44L13 43L11 43L11 42L12 42L12 41L11 41L11 42L10 42L10 41L6 41L6 40L7 40L7 39L4 39L4 37L6 37L6 38L7 38L7 37L6 37L6 36L7 36L7 35ZM50 36L50 37L51 37L51 36ZM16 37L16 39L15 39L15 38L14 38L14 40L16 40L16 39L17 39L17 37ZM39 37L39 38L40 38L40 39L41 39L41 38L40 38L40 37ZM22 38L22 39L23 39L23 40L24 40L24 39L23 39L23 38ZM45 39L45 40L46 40L46 41L47 41L47 40L46 40L46 39ZM26 40L26 42L27 42L27 40ZM40 40L40 41L41 41L41 40ZM43 40L43 41L42 41L42 42L41 42L41 43L42 43L42 42L44 42L44 43L43 43L43 44L45 44L45 43L49 43L49 42L50 42L50 40L48 40L48 42L44 42L44 40ZM30 41L30 42L31 42L31 41ZM2 42L2 43L3 43L3 42ZM32 42L32 43L33 43L33 42ZM52 43L52 44L53 44L53 43ZM8 44L8 45L10 45L10 44ZM23 44L23 46L24 46L24 44ZM41 44L41 45L42 45L42 44ZM25 45L25 48L28 48L28 45ZM45 45L45 48L48 48L48 45ZM18 46L18 48L20 48L20 49L21 49L21 50L23 50L23 51L26 51L26 52L27 52L27 51L28 51L28 49L27 49L27 51L26 51L26 49L25 49L25 50L24 50L24 48L23 48L23 47L19 47L19 46ZM26 46L26 47L27 47L27 46ZM43 46L43 47L44 47L44 46ZM46 46L46 47L47 47L47 46ZM22 48L22 49L23 49L23 48ZM34 49L34 50L33 50L33 51L34 51L34 50L35 50L35 49ZM36 49L36 51L37 51L37 49ZM13 51L13 53L14 53L14 52L15 52L15 51ZM31 51L31 52L32 52L32 51ZM39 51L39 52L40 52L40 51ZM0 0L0 7L7 7L7 0ZM1 1L1 6L6 6L6 1ZM2 2L2 5L5 5L5 2ZM46 0L46 7L53 7L53 0ZM47 1L47 6L52 6L52 1ZM48 2L48 5L51 5L51 2ZM0 46L0 53L7 53L7 46ZM1 47L1 52L6 52L6 47ZM2 48L2 51L5 51L5 48Z" fill="#000000"/></g></g></svg>
