<?xml version="1.0" encoding="UTF-8"?>
<svg xmlns="http://www.w3.org/2000/svg" version="1.1" width="356" height="356" viewBox="0 0 356 356"><rect x="0" y="0" width="356" height="356" fill="#ffffff"/><g transform="scale(6.717)"><g transform="translate(0,0)"><path fill-rule="evenodd" d="M9 0L9 1L8 1L8 2L10 2L10 3L8 3L8 4L9 4L9 5L8 5L8 7L9 7L9 8L6 8L6 9L8 9L8 10L6 10L6 11L4 11L4 9L5 9L5 8L0 8L0 9L3 9L3 10L2 10L2 11L1 11L1 12L3 12L3 13L5 13L5 15L4 15L4 14L3 14L3 15L2 15L2 13L0 13L0 15L2 15L2 17L1 17L1 16L0 16L0 17L1 17L1 18L0 18L0 19L1 19L1 18L2 18L2 17L3 17L3 20L2 20L2 21L1 21L1 20L0 20L0 23L1 23L1 22L3 22L3 23L4 23L4 22L3 22L3 21L9 21L9 19L8 19L8 20L4 20L4 17L3 17L3 15L4 15L4 16L5 16L5 15L7 15L7 16L6 16L6 17L5 17L5 19L7 19L7 18L6 18L6 17L7 17L7 16L8 16L8 15L9 15L9 17L8 17L8 18L9 18L9 17L11 17L11 18L10 18L10 20L12 20L12 19L13 19L13 20L14 20L14 18L13 18L13 17L16 17L16 18L15 18L15 19L16 19L16 20L15 20L15 21L13 21L13 22L15 22L15 24L17 24L17 25L18 25L18 26L17 26L17 28L16 28L16 27L14 27L14 28L15 28L15 29L13 29L13 26L14 26L14 25L13 25L13 24L14 24L14 23L13 23L13 24L12 24L12 22L11 22L11 21L10 21L10 22L11 22L11 23L10 23L10 24L9 24L9 22L8 22L8 23L7 23L7 22L6 22L6 23L5 23L5 24L4 24L4 25L3 25L3 24L2 24L2 25L1 25L1 24L0 24L0 27L1 27L1 26L4 26L4 28L3 28L3 29L2 29L2 28L1 28L1 29L2 29L2 31L1 31L1 33L0 33L0 34L3 34L3 36L4 36L4 37L3 37L3 38L2 38L2 35L1 35L1 37L0 37L0 38L1 38L1 40L0 40L0 41L3 41L3 43L2 43L2 42L0 42L0 43L1 43L1 44L3 44L3 45L4 45L4 44L3 44L3 43L7 43L7 42L5 42L5 40L6 40L6 41L7 41L7 40L8 40L8 39L9 39L9 40L10 40L10 39L9 39L9 38L10 38L10 37L8 37L8 39L7 39L7 38L6 38L6 37L7 37L7 36L8 36L8 35L7 35L7 34L8 34L8 33L7 33L7 32L9 32L9 34L10 34L10 33L11 33L11 35L10 35L10 36L11 36L11 35L13 35L13 33L16 33L16 34L15 34L15 35L16 35L16 36L15 36L15 37L21 37L21 36L22 36L22 35L23 35L23 38L24 38L24 37L26 37L26 38L25 38L25 39L24 39L24 40L23 40L23 42L24 42L24 41L25 41L25 43L26 43L26 42L27 42L27 43L29 43L29 42L30 42L30 43L32 43L32 44L24 44L24 45L22 45L22 44L21 44L21 43L22 43L22 42L21 42L21 41L22 41L22 40L21 40L21 41L18 41L18 40L17 40L17 39L18 39L18 38L16 38L16 40L17 40L17 41L18 41L18 42L20 42L20 43L19 43L19 44L16 44L16 43L15 43L15 45L18 45L18 47L17 47L17 46L14 46L14 44L13 44L13 43L12 43L12 40L14 40L14 39L12 39L12 38L11 38L11 41L8 41L8 43L9 43L9 45L8 45L8 47L9 47L9 46L10 46L10 50L9 50L9 48L8 48L8 53L9 53L9 52L10 52L10 53L11 53L11 51L12 51L12 50L13 50L13 49L14 49L14 52L12 52L12 53L20 53L20 52L19 52L19 51L20 51L20 50L19 50L19 49L20 49L20 44L21 44L21 45L22 45L22 47L21 47L21 48L22 48L22 49L21 49L21 52L22 52L22 49L23 49L23 50L26 50L26 51L27 51L27 52L28 52L28 51L29 51L29 50L31 50L31 49L32 49L32 46L31 46L31 45L32 45L32 44L33 44L33 45L34 45L34 43L35 43L35 45L37 45L37 46L38 46L38 47L39 47L39 48L38 48L38 49L37 49L37 47L36 47L36 48L34 48L34 47L33 47L33 49L35 49L35 51L34 51L34 50L32 50L32 51L33 51L33 53L37 53L37 51L38 51L38 52L42 52L42 53L45 53L45 52L43 52L43 51L44 51L44 50L43 50L43 49L41 49L41 50L39 50L39 51L38 51L38 49L39 49L39 48L40 48L40 47L41 47L41 46L44 46L44 47L43 47L43 48L44 48L44 49L45 49L45 50L46 50L46 51L48 51L48 53L49 53L49 52L50 52L50 53L51 53L51 52L52 52L52 51L53 51L53 50L52 50L52 49L53 49L53 47L51 47L51 46L53 46L53 43L51 43L51 42L52 42L52 41L53 41L53 39L51 39L51 41L50 41L50 43L49 43L49 40L50 40L50 38L53 38L53 36L52 36L52 35L51 35L51 36L50 36L50 34L52 34L52 33L53 33L53 32L52 32L52 31L51 31L51 32L50 32L50 29L49 29L49 28L50 28L50 27L51 27L51 26L52 26L52 25L53 25L53 24L50 24L50 22L52 22L52 20L53 20L53 19L51 19L51 20L49 20L49 19L50 19L50 17L51 17L51 18L52 18L52 17L53 17L53 15L52 15L52 17L51 17L51 16L50 16L50 17L49 17L49 16L48 16L48 15L49 15L49 14L50 14L50 13L49 13L49 12L50 12L50 11L49 11L49 10L50 10L50 8L49 8L49 10L47 10L47 12L48 12L48 13L47 13L47 15L45 15L45 14L44 14L44 13L42 13L42 12L43 12L43 11L41 11L41 13L39 13L39 14L38 14L38 11L37 11L37 10L38 10L38 9L39 9L39 12L40 12L40 10L44 10L44 12L46 12L46 10L44 10L44 9L39 9L39 8L38 8L38 7L39 7L39 6L38 6L38 4L39 4L39 3L41 3L41 4L42 4L42 7L41 7L41 5L40 5L40 7L41 7L41 8L45 8L45 9L46 9L46 8L45 8L45 6L44 6L44 7L43 7L43 3L44 3L44 4L45 4L45 3L44 3L44 1L43 1L43 0L40 0L40 1L41 1L41 2L38 2L38 0L35 0L35 1L34 1L34 3L35 3L35 5L34 5L34 7L33 7L33 5L32 5L32 4L31 4L31 3L33 3L33 1L32 1L32 0L28 0L28 1L32 1L32 2L30 2L30 4L27 4L27 3L29 3L29 2L27 2L27 3L25 3L25 4L23 4L23 5L24 5L24 7L23 7L23 6L22 6L22 5L21 5L21 6L20 6L20 4L21 4L21 3L22 3L22 2L23 2L23 3L24 3L24 1L25 1L25 2L26 2L26 0L23 0L23 1L22 1L22 2L21 2L21 3L18 3L18 2L20 2L20 1L19 1L19 0L16 0L16 1L15 1L15 2L12 2L12 1L13 1L13 0ZM35 1L35 3L36 3L36 2L37 2L37 4L36 4L36 5L37 5L37 4L38 4L38 2L37 2L37 1ZM11 2L11 3L10 3L10 5L9 5L9 7L10 7L10 8L11 8L11 9L12 9L12 10L10 10L10 9L9 9L9 10L8 10L8 11L6 11L6 12L8 12L8 14L10 14L10 12L11 12L11 14L12 14L12 12L13 12L13 13L15 13L15 16L16 16L16 17L18 17L18 16L16 16L16 15L18 15L18 14L19 14L19 13L20 13L20 15L19 15L19 16L20 16L20 17L19 17L19 18L20 18L20 19L18 19L18 18L17 18L17 20L19 20L19 21L20 21L20 23L19 23L19 22L18 22L18 23L17 23L17 24L18 24L18 25L21 25L21 24L22 24L22 27L21 27L21 29L19 29L19 32L20 32L20 33L19 33L19 34L20 34L20 35L17 35L17 36L21 36L21 35L22 35L22 34L23 34L23 35L25 35L25 36L26 36L26 37L30 37L30 36L32 36L32 37L31 37L31 38L33 38L33 39L34 39L34 38L36 38L36 37L35 37L35 36L36 36L36 34L37 34L37 35L38 35L38 36L37 36L37 37L38 37L38 38L37 38L37 39L35 39L35 40L34 40L34 41L33 41L33 40L32 40L32 39L31 39L31 40L32 40L32 41L31 41L31 42L32 42L32 43L33 43L33 42L35 42L35 43L37 43L37 45L38 45L38 46L39 46L39 45L40 45L40 46L41 46L41 45L44 45L44 44L43 44L43 43L40 43L40 42L41 42L41 41L42 41L42 40L40 40L40 37L43 37L43 38L41 38L41 39L43 39L43 38L44 38L44 36L43 36L43 35L44 35L44 34L45 34L45 35L46 35L46 36L45 36L45 37L46 37L46 36L47 36L47 37L49 37L49 38L50 38L50 37L49 37L49 34L45 34L45 32L44 32L44 31L46 31L46 32L49 32L49 31L47 31L47 29L44 29L44 27L43 27L43 26L44 26L44 25L43 25L43 24L42 24L42 23L43 23L43 22L44 22L44 23L45 23L45 24L46 24L46 23L45 23L45 22L48 22L48 21L47 21L47 20L48 20L48 19L49 19L49 18L47 18L47 17L48 17L48 16L45 16L45 15L43 15L43 16L44 16L44 18L42 18L42 20L43 20L43 19L44 19L44 20L45 20L45 21L43 21L43 22L42 22L42 21L41 21L41 20L40 20L40 18L39 18L39 17L42 17L42 16L39 16L39 17L38 17L38 18L37 18L37 21L38 21L38 23L39 23L39 22L40 22L40 24L38 24L38 26L35 26L35 25L33 25L33 24L34 24L34 23L37 23L37 22L35 22L35 21L34 21L34 19L32 19L32 17L33 17L33 18L35 18L35 20L36 20L36 17L35 17L35 16L32 16L32 15L33 15L33 14L34 14L34 15L35 15L35 12L36 12L36 10L37 10L37 9L38 9L38 8L37 8L37 9L36 9L36 10L35 10L35 9L34 9L34 8L36 8L36 6L35 6L35 7L34 7L34 8L32 8L32 5L31 5L31 8L30 8L30 5L29 5L29 9L26 9L26 10L25 10L25 11L26 11L26 14L25 14L25 13L23 13L23 12L22 12L22 13L20 13L20 12L19 12L19 13L15 13L15 12L14 12L14 11L16 11L16 12L17 12L17 11L20 11L20 10L18 10L18 9L22 9L22 10L21 10L21 11L24 11L24 9L23 9L23 8L22 8L22 6L21 6L21 8L20 8L20 6L19 6L19 4L16 4L16 2L15 2L15 3L13 3L13 4L11 4L11 3L12 3L12 2ZM41 2L41 3L43 3L43 2ZM13 4L13 5L15 5L15 6L14 6L14 7L13 7L13 6L12 6L12 5L11 5L11 6L10 6L10 7L11 7L11 8L14 8L14 7L15 7L15 8L16 8L16 7L17 7L17 6L18 6L18 7L19 7L19 6L18 6L18 5L16 5L16 4ZM25 5L25 8L28 8L28 5ZM11 6L11 7L12 7L12 6ZM15 6L15 7L16 7L16 6ZM26 6L26 7L27 7L27 6ZM37 6L37 7L38 7L38 6ZM17 8L17 9L18 9L18 8ZM31 8L31 9L29 9L29 11L27 11L27 14L28 14L28 12L30 12L30 11L33 11L33 12L35 12L35 11L34 11L34 10L33 10L33 9L32 9L32 8ZM47 8L47 9L48 9L48 8ZM51 8L51 9L52 9L52 8ZM13 9L13 11L14 11L14 9ZM15 9L15 10L16 10L16 9ZM9 10L9 11L10 11L10 10ZM48 11L48 12L49 12L49 11ZM52 11L52 12L51 12L51 13L52 13L52 12L53 12L53 11ZM31 12L31 13L29 13L29 14L30 14L30 15L28 15L28 16L27 16L27 17L28 17L28 18L27 18L27 19L28 19L28 18L29 18L29 20L26 20L26 19L23 19L23 20L26 20L26 21L25 21L25 22L26 22L26 23L23 23L23 22L24 22L24 21L21 21L21 23L20 23L20 24L21 24L21 23L23 23L23 24L24 24L24 26L23 26L23 27L24 27L24 29L27 29L27 30L24 30L24 31L23 31L23 29L21 29L21 30L22 30L22 31L21 31L21 32L22 32L22 33L21 33L21 34L22 34L22 33L23 33L23 34L24 34L24 33L25 33L25 35L26 35L26 31L27 31L27 30L32 30L32 31L33 31L33 33L35 33L35 34L31 34L31 33L32 33L32 32L31 32L31 31L29 31L29 32L28 32L28 33L27 33L27 34L28 34L28 33L29 33L29 34L31 34L31 35L32 35L32 36L34 36L34 35L35 35L35 34L36 34L36 33L37 33L37 34L38 34L38 33L37 33L37 32L36 32L36 30L38 30L38 29L39 29L39 30L40 30L40 29L39 29L39 27L40 27L40 25L39 25L39 27L38 27L38 29L37 29L37 28L36 28L36 27L35 27L35 31L34 31L34 30L32 30L32 27L33 27L33 26L32 26L32 24L33 24L33 23L34 23L34 22L33 22L33 21L32 21L32 19L30 19L30 18L31 18L31 17L32 17L32 16L31 16L31 15L32 15L32 14L31 14L31 13L32 13L32 12ZM6 13L6 14L7 14L7 13ZM22 13L22 14L21 14L21 15L20 15L20 16L21 16L21 17L22 17L22 18L23 18L23 17L25 17L25 18L26 18L26 17L25 17L25 16L26 16L26 15L25 15L25 14L23 14L23 13ZM36 14L36 15L37 15L37 14ZM40 14L40 15L42 15L42 14ZM11 15L11 16L14 16L14 15ZM22 16L22 17L23 17L23 16ZM30 16L30 17L29 17L29 18L30 18L30 17L31 17L31 16ZM44 18L44 19L45 19L45 20L47 20L47 18ZM21 19L21 20L22 20L22 19ZM38 19L38 20L39 20L39 21L40 21L40 20L39 20L39 19ZM29 20L29 21L30 21L30 20ZM15 21L15 22L17 22L17 21ZM31 21L31 24L32 24L32 21ZM27 22L27 23L26 23L26 24L27 24L27 23L30 23L30 22ZM41 22L41 23L42 23L42 22ZM6 23L6 24L7 24L7 23ZM47 23L47 24L48 24L48 23ZM10 24L10 25L9 25L9 26L10 26L10 28L11 28L11 29L12 29L12 30L13 30L13 29L12 29L12 28L11 28L11 26L13 26L13 25L11 25L11 24ZM29 24L29 26L30 26L30 27L29 27L29 29L31 29L31 28L30 28L30 27L32 27L32 26L30 26L30 24ZM49 24L49 27L50 27L50 26L51 26L51 25L50 25L50 24ZM5 25L5 28L8 28L8 25ZM10 25L10 26L11 26L11 25ZM15 25L15 26L16 26L16 25ZM25 25L25 28L28 28L28 25ZM41 25L41 26L43 26L43 25ZM45 25L45 28L48 28L48 25ZM6 26L6 27L7 27L7 26ZM19 26L19 27L18 27L18 28L19 28L19 27L20 27L20 26ZM26 26L26 27L27 27L27 26ZM46 26L46 27L47 27L47 26ZM41 27L41 30L42 30L42 32L41 32L41 31L40 31L40 32L41 32L41 33L40 33L40 34L39 34L39 35L40 35L40 34L41 34L41 36L42 36L42 35L43 35L43 34L44 34L44 33L43 33L43 31L44 31L44 30L43 30L43 27ZM33 28L33 29L34 29L34 28ZM51 28L51 30L53 30L53 28ZM4 29L4 31L5 31L5 30L7 30L7 29ZM8 29L8 31L9 31L9 32L11 32L11 33L13 33L13 32L14 32L14 31L13 31L13 32L11 32L11 31L10 31L10 30L9 30L9 29ZM15 29L15 31L18 31L18 29ZM2 31L2 33L3 33L3 34L4 34L4 36L5 36L5 37L4 37L4 40L3 40L3 41L4 41L4 40L5 40L5 37L6 37L6 36L7 36L7 35L5 35L5 34L7 34L7 33L6 33L6 32L7 32L7 31L6 31L6 32L3 32L3 31ZM38 31L38 32L39 32L39 31ZM16 32L16 33L18 33L18 32ZM35 32L35 33L36 33L36 32ZM51 32L51 33L52 33L52 32ZM29 35L29 36L30 36L30 35ZM12 36L12 37L14 37L14 36ZM51 36L51 37L52 37L52 36ZM33 37L33 38L34 38L34 37ZM21 38L21 39L22 39L22 38ZM26 38L26 40L25 40L25 41L27 41L27 42L29 42L29 40L30 40L30 39L28 39L28 38ZM38 38L38 39L37 39L37 40L35 40L35 41L36 41L36 42L37 42L37 43L38 43L38 44L40 44L40 43L39 43L39 42L40 42L40 40L39 40L39 38ZM46 38L46 39L44 39L44 40L43 40L43 42L44 42L44 43L48 43L48 44L49 44L49 43L48 43L48 42L44 42L44 40L46 40L46 39L48 39L48 38ZM6 39L6 40L7 40L7 39ZM19 39L19 40L20 40L20 39ZM27 39L27 40L28 40L28 39ZM38 40L38 41L37 41L37 42L39 42L39 40ZM13 41L13 42L14 42L14 41ZM15 41L15 42L16 42L16 41ZM32 41L32 42L33 42L33 41ZM9 42L9 43L10 43L10 46L11 46L11 45L12 45L12 46L13 46L13 45L12 45L12 43L10 43L10 42ZM50 43L50 45L49 45L49 47L50 47L50 48L51 48L51 49L50 49L50 50L49 50L49 49L46 49L46 50L49 50L49 51L50 51L50 52L51 52L51 51L52 51L52 50L51 50L51 49L52 49L52 48L51 48L51 47L50 47L50 45L51 45L51 43ZM6 44L6 45L7 45L7 44ZM25 45L25 48L28 48L28 45ZM29 45L29 46L30 46L30 47L29 47L29 49L28 49L28 50L29 50L29 49L30 49L30 48L31 48L31 46L30 46L30 45ZM45 45L45 48L48 48L48 45ZM23 46L23 47L24 47L24 46ZM26 46L26 47L27 47L27 46ZM46 46L46 47L47 47L47 46ZM11 47L11 48L12 48L12 47ZM14 47L14 49L15 49L15 50L16 50L16 49L18 49L18 48L16 48L16 49L15 49L15 47ZM23 48L23 49L24 49L24 48ZM11 49L11 50L10 50L10 51L11 51L11 50L12 50L12 49ZM26 49L26 50L27 50L27 49ZM17 50L17 51L19 51L19 50ZM41 50L41 51L42 51L42 50ZM50 50L50 51L51 51L51 50ZM15 51L15 52L16 52L16 51ZM23 51L23 53L25 53L25 51ZM30 51L30 52L31 52L31 53L32 53L32 52L31 52L31 51ZM0 0L0 7L7 7L7 0ZM1 1L1 6L6 6L6 1ZM2 2L2 5L5 5L5 2ZM46 0L46 7L53 7L53 0ZM47 1L47 6L52 6L52 1ZM48 2L48 5L51 5L51 2ZM0 46L0 53L7 53L7 46ZM1 47L1 52L6 52L6 47ZM2 48L2 51L5 51L5 48Z" fill="#000000"/></g></g></svg>
