<?xml version="1.0" encoding="UTF-8"?>
<svg xmlns="http://www.w3.org/2000/svg" version="1.1" width="356" height="356" viewBox="0 0 356 356"><rect x="0" y="0" width="356" height="356" fill="#ffffff"/><g transform="scale(6.717)"><g transform="translate(0,0)"><path fill-rule="evenodd" d="M8 0L8 2L9 2L9 4L8 4L8 9L7 9L7 8L5 8L5 9L3 9L3 8L0 8L0 10L2 10L2 11L4 11L4 12L6 12L6 13L7 13L7 14L6 14L6 15L8 15L8 16L6 16L6 17L7 17L7 18L6 18L6 19L5 19L5 20L6 20L6 21L5 21L5 22L1 22L1 23L0 23L0 24L1 24L1 25L0 25L0 27L1 27L1 28L0 28L0 32L1 32L1 33L0 33L0 34L1 34L1 33L2 33L2 34L6 34L6 35L5 35L5 36L3 36L3 35L2 35L2 36L3 36L3 39L2 39L2 40L1 40L1 38L0 38L0 43L1 43L1 44L3 44L3 45L4 45L4 44L3 44L3 43L8 43L8 44L9 44L9 45L8 45L8 46L9 46L9 47L8 47L8 48L10 48L10 49L9 49L9 50L8 50L8 53L9 53L9 50L10 50L10 53L16 53L16 52L18 52L18 53L19 53L19 52L18 52L18 49L19 49L19 48L18 48L18 47L19 47L19 46L20 46L20 47L21 47L21 46L20 46L20 45L21 45L21 43L20 43L20 42L22 42L22 45L23 45L23 47L22 47L22 48L23 48L23 51L25 51L25 49L28 49L28 50L27 50L27 51L26 51L26 52L24 52L24 53L27 53L27 52L28 52L28 53L29 53L29 52L30 52L30 51L31 51L31 52L32 52L32 53L34 53L34 52L36 52L36 53L37 53L37 52L36 52L36 51L35 51L35 50L34 50L34 48L32 48L32 47L33 47L33 46L34 46L34 47L36 47L36 50L37 50L37 51L39 51L39 52L38 52L38 53L39 53L39 52L40 52L40 53L41 53L41 52L42 52L42 53L43 53L43 52L42 52L42 51L43 51L43 50L42 50L42 48L40 48L40 49L39 49L39 47L40 47L40 46L41 46L41 47L43 47L43 48L44 48L44 49L45 49L45 50L44 50L44 51L45 51L45 53L49 53L49 52L50 52L50 51L51 51L51 50L50 50L50 49L49 49L49 48L50 48L50 46L52 46L52 48L51 48L51 49L52 49L52 48L53 48L53 46L52 46L52 44L53 44L53 42L52 42L52 44L50 44L50 42L51 42L51 40L50 40L50 39L51 39L51 38L52 38L52 39L53 39L53 38L52 38L52 37L50 37L50 34L51 34L51 33L53 33L53 32L52 32L52 31L53 31L53 29L52 29L52 27L53 27L53 26L52 26L52 27L51 27L51 28L50 28L50 26L49 26L49 25L50 25L50 23L51 23L51 24L52 24L52 25L53 25L53 22L52 22L52 23L51 23L51 21L53 21L53 18L52 18L52 20L51 20L51 21L49 21L49 20L48 20L48 17L49 17L49 18L50 18L50 19L51 19L51 17L50 17L50 16L49 16L49 15L51 15L51 16L53 16L53 14L52 14L52 15L51 15L51 14L50 14L50 13L53 13L53 10L52 10L52 9L53 9L53 8L51 8L51 10L50 10L50 9L49 9L49 8L45 8L45 6L44 6L44 7L43 7L43 3L44 3L44 4L45 4L45 3L44 3L44 1L43 1L43 0L42 0L42 1L40 1L40 0L38 0L38 1L37 1L37 0L36 0L36 2L35 2L35 0L34 0L34 1L33 1L33 0L32 0L32 2L33 2L33 3L34 3L34 7L35 7L35 6L36 6L36 7L37 7L37 6L36 6L36 5L37 5L37 4L38 4L38 5L39 5L39 6L38 6L38 7L39 7L39 6L40 6L40 10L38 10L38 8L36 8L36 9L35 9L35 10L34 10L34 9L33 9L33 6L32 6L32 9L31 9L31 10L33 10L33 11L34 11L34 12L32 12L32 13L33 13L33 14L32 14L32 18L30 18L30 17L31 17L31 14L30 14L30 13L31 13L31 11L30 11L30 9L29 9L29 8L30 8L30 7L31 7L31 6L30 6L30 7L29 7L29 4L27 4L27 3L28 3L28 1L29 1L29 3L30 3L30 1L31 1L31 0L30 0L30 1L29 1L29 0L28 0L28 1L27 1L27 2L26 2L26 0L24 0L24 2L23 2L23 1L22 1L22 0L18 0L18 1L16 1L16 2L18 2L18 1L19 1L19 4L20 4L20 5L18 5L18 3L15 3L15 2L14 2L14 3L15 3L15 5L16 5L16 7L17 7L17 6L18 6L18 8L19 8L19 12L18 12L18 10L16 10L16 11L17 11L17 12L18 12L18 14L16 14L16 12L14 12L14 11L15 11L15 10L14 10L14 9L15 9L15 8L14 8L14 7L15 7L15 6L14 6L14 7L13 7L13 4L12 4L12 5L11 5L11 6L10 6L10 7L9 7L9 4L10 4L10 2L12 2L12 1L15 1L15 0L10 0L10 1L9 1L9 0ZM20 1L20 2L22 2L22 5L20 5L20 6L19 6L19 8L20 8L20 6L21 6L21 7L22 7L22 8L21 8L21 10L20 10L20 11L21 11L21 10L23 10L23 11L24 11L24 12L23 12L23 13L24 13L24 12L25 12L25 11L24 11L24 10L27 10L27 11L26 11L26 13L25 13L25 14L26 14L26 16L27 16L27 17L25 17L25 15L24 15L24 14L22 14L22 15L21 15L21 16L22 16L22 15L24 15L24 17L25 17L25 18L24 18L24 24L25 24L25 23L26 23L26 24L28 24L28 22L29 22L29 24L30 24L30 27L29 27L29 28L30 28L30 31L28 31L28 32L27 32L27 33L26 33L26 31L27 31L27 29L26 29L26 31L25 31L25 32L24 32L24 31L23 31L23 30L24 30L24 27L23 27L23 30L22 30L22 28L19 28L19 29L18 29L18 28L17 28L17 27L18 27L18 26L19 26L19 24L20 24L20 22L22 22L22 24L23 24L23 22L22 22L22 19L20 19L20 18L21 18L21 17L20 17L20 14L21 14L21 13L22 13L22 12L20 12L20 14L19 14L19 15L18 15L18 16L19 16L19 17L18 17L18 18L19 18L19 20L21 20L21 21L20 21L20 22L19 22L19 21L18 21L18 19L17 19L17 18L16 18L16 19L17 19L17 20L16 20L16 23L14 23L14 24L15 24L15 25L14 25L14 26L15 26L15 28L16 28L16 30L12 30L12 29L13 29L13 28L14 28L14 27L13 27L13 28L12 28L12 29L11 29L11 31L10 31L10 33L9 33L9 29L10 29L10 28L9 28L9 29L4 29L4 28L3 28L3 27L2 27L2 26L1 26L1 27L2 27L2 28L1 28L1 29L2 29L2 30L1 30L1 32L3 32L3 33L4 33L4 32L7 32L7 31L8 31L8 33L6 33L6 34L10 34L10 35L6 35L6 36L5 36L5 38L4 38L4 39L3 39L3 40L2 40L2 41L3 41L3 42L2 42L2 43L3 43L3 42L7 42L7 41L5 41L5 40L8 40L8 39L9 39L9 38L8 38L8 36L10 36L10 37L11 37L11 38L12 38L12 39L10 39L10 40L9 40L9 41L8 41L8 42L9 42L9 41L10 41L10 40L11 40L11 42L12 42L12 44L11 44L11 43L9 43L9 44L11 44L11 45L9 45L9 46L11 46L11 47L12 47L12 48L11 48L11 49L12 49L12 51L14 51L14 52L15 52L15 51L14 51L14 50L15 50L15 48L16 48L16 47L17 47L17 46L19 46L19 45L20 45L20 44L19 44L19 45L18 45L18 43L19 43L19 40L18 40L18 39L19 39L19 38L21 38L21 37L22 37L22 38L24 38L24 37L25 37L25 38L26 38L26 40L25 40L25 39L24 39L24 40L23 40L23 39L22 39L22 40L23 40L23 41L22 41L22 42L23 42L23 41L24 41L24 44L23 44L23 45L24 45L24 44L25 44L25 43L26 43L26 44L27 44L27 42L28 42L28 44L30 44L30 46L31 46L31 47L32 47L32 46L33 46L33 45L32 45L32 44L34 44L34 46L36 46L36 47L37 47L37 48L38 48L38 47L39 47L39 46L40 46L40 44L42 44L42 46L43 46L43 47L44 47L44 45L43 45L43 44L44 44L44 41L45 41L45 44L46 44L46 41L47 41L47 39L46 39L46 36L47 36L47 35L49 35L49 33L51 33L51 31L52 31L52 30L51 30L51 29L50 29L50 30L49 30L49 29L48 29L48 30L47 30L47 31L46 31L46 29L45 29L45 30L44 30L44 31L42 31L42 30L43 30L43 29L42 29L42 30L41 30L41 31L42 31L42 32L44 32L44 31L46 31L46 33L45 33L45 35L46 35L46 36L44 36L44 35L43 35L43 36L42 36L42 35L41 35L41 36L42 36L42 40L41 40L41 37L40 37L40 38L39 38L39 37L38 37L38 39L36 39L36 38L37 38L37 37L36 37L36 36L37 36L37 35L36 35L36 34L37 34L37 33L38 33L38 36L39 36L39 33L40 33L40 32L39 32L39 31L38 31L38 30L40 30L40 28L42 28L42 27L43 27L43 28L44 28L44 25L42 25L42 27L40 27L40 26L41 26L41 25L40 25L40 19L41 19L41 21L42 21L42 22L41 22L41 24L44 24L44 22L45 22L45 21L46 21L46 23L45 23L45 24L46 24L46 23L47 23L47 24L49 24L49 23L50 23L50 22L49 22L49 21L48 21L48 20L47 20L47 21L46 21L46 20L45 20L45 19L44 19L44 20L43 20L43 19L42 19L42 18L43 18L43 17L42 17L42 18L41 18L41 17L40 17L40 16L41 16L41 15L42 15L42 16L44 16L44 15L42 15L42 14L43 14L43 13L42 13L42 14L40 14L40 12L41 12L41 10L40 10L40 11L38 11L38 12L37 12L37 11L36 11L36 12L34 12L34 14L36 14L36 16L35 16L35 17L34 17L34 15L33 15L33 17L34 17L34 19L35 19L35 18L37 18L37 19L36 19L36 20L34 20L34 22L31 22L31 21L32 21L32 20L33 20L33 18L32 18L32 20L31 20L31 19L30 19L30 18L29 18L29 17L30 17L30 16L29 16L29 17L28 17L28 16L27 16L27 15L28 15L28 14L29 14L29 13L30 13L30 12L29 12L29 13L28 13L28 12L27 12L27 11L28 11L28 10L29 10L29 9L28 9L28 10L27 10L27 9L24 9L24 10L23 10L23 9L22 9L22 8L24 8L24 3L25 3L25 2L24 2L24 3L23 3L23 2L22 2L22 1ZM38 1L38 2L37 2L37 3L36 3L36 4L37 4L37 3L38 3L38 2L39 2L39 1ZM42 2L42 3L43 3L43 2ZM31 3L31 4L30 4L30 5L31 5L31 4L32 4L32 5L33 5L33 4L32 4L32 3ZM40 3L40 4L39 4L39 5L41 5L41 7L42 7L42 5L41 5L41 3ZM22 5L22 7L23 7L23 5ZM25 5L25 8L28 8L28 5ZM11 6L11 7L10 7L10 8L9 8L9 9L8 9L8 10L9 10L9 11L6 11L6 12L7 12L7 13L8 13L8 15L9 15L9 13L8 13L8 12L9 12L9 11L10 11L10 8L11 8L11 9L12 9L12 12L11 12L11 13L10 13L10 14L12 14L12 15L10 15L10 16L12 16L12 17L9 17L9 16L8 16L8 18L9 18L9 20L8 20L8 19L6 19L6 20L7 20L7 21L6 21L6 22L7 22L7 21L8 21L8 24L10 24L10 25L11 25L11 26L10 26L10 27L12 27L12 25L11 25L11 24L10 24L10 22L9 22L9 21L10 21L10 19L11 19L11 22L13 22L13 21L12 21L12 20L13 20L13 19L14 19L14 20L15 20L15 19L14 19L14 18L15 18L15 16L14 16L14 15L16 15L16 14L12 14L12 13L13 13L13 11L14 11L14 10L13 10L13 8L11 8L11 7L12 7L12 6ZM26 6L26 7L27 7L27 6ZM16 8L16 9L17 9L17 8ZM41 8L41 9L42 9L42 12L43 12L43 11L44 11L44 10L45 10L45 8L44 8L44 10L43 10L43 9L42 9L42 8ZM5 9L5 10L7 10L7 9ZM46 9L46 10L47 10L47 11L45 11L45 13L44 13L44 14L45 14L45 13L46 13L46 14L47 14L47 15L48 15L48 14L49 14L49 13L48 13L48 14L47 14L47 11L48 11L48 9ZM51 10L51 11L50 11L50 12L51 12L51 11L52 11L52 10ZM0 11L0 12L1 12L1 15L0 15L0 16L2 16L2 17L0 17L0 18L1 18L1 20L0 20L0 21L2 21L2 20L3 20L3 19L4 19L4 18L5 18L5 17L3 17L3 15L4 15L4 16L5 16L5 15L4 15L4 13L3 13L3 14L2 14L2 12L1 12L1 11ZM36 12L36 14L37 14L37 12ZM38 12L38 13L39 13L39 12ZM27 13L27 14L28 14L28 13ZM39 14L39 16L38 16L38 15L37 15L37 16L36 16L36 17L37 17L37 18L38 18L38 19L37 19L37 20L36 20L36 21L35 21L35 22L34 22L34 23L32 23L32 25L31 25L31 27L32 27L32 25L33 25L33 26L34 26L34 27L33 27L33 28L32 28L32 29L31 29L31 30L32 30L32 31L33 31L33 30L34 30L34 32L32 32L32 33L33 33L33 35L30 35L30 33L29 33L29 32L28 32L28 33L29 33L29 34L28 34L28 35L27 35L27 34L26 34L26 33L24 33L24 32L23 32L23 31L22 31L22 32L23 32L23 33L24 33L24 34L23 34L23 35L22 35L22 34L20 34L20 35L21 35L21 36L22 36L22 37L24 37L24 34L26 34L26 35L25 35L25 36L26 36L26 37L27 37L27 38L30 38L30 39L32 39L32 43L34 43L34 44L35 44L35 43L34 43L34 41L35 41L35 39L34 39L34 40L33 40L33 38L34 38L34 37L35 37L35 36L36 36L36 35L34 35L34 32L35 32L35 34L36 34L36 33L37 33L37 32L38 32L38 33L39 33L39 32L38 32L38 31L37 31L37 30L38 30L38 28L40 28L40 27L39 27L39 26L38 26L38 23L39 23L39 22L38 22L38 21L39 21L39 20L38 20L38 19L40 19L40 18L38 18L38 17L39 17L39 16L40 16L40 14ZM12 15L12 16L13 16L13 15ZM45 15L45 17L44 17L44 18L45 18L45 17L46 17L46 19L47 19L47 17L46 17L46 15ZM2 17L2 18L3 18L3 17ZM12 17L12 19L13 19L13 17ZM27 17L27 18L26 18L26 19L25 19L25 22L26 22L26 23L27 23L27 22L28 22L28 21L26 21L26 19L27 19L27 20L28 20L28 19L29 19L29 20L30 20L30 19L29 19L29 18L28 18L28 17ZM27 18L27 19L28 19L28 18ZM37 20L37 21L36 21L36 24L34 24L34 26L35 26L35 25L36 25L36 27L34 27L34 28L33 28L33 29L34 29L34 30L36 30L36 27L37 27L37 28L38 28L38 27L37 27L37 25L36 25L36 24L37 24L37 23L38 23L38 22L37 22L37 21L38 21L38 20ZM42 20L42 21L43 21L43 22L44 22L44 21L43 21L43 20ZM17 21L17 22L18 22L18 21ZM29 21L29 22L30 22L30 24L31 24L31 22L30 22L30 21ZM48 22L48 23L49 23L49 22ZM1 23L1 24L2 24L2 25L3 25L3 26L4 26L4 24L2 24L2 23ZM6 23L6 24L7 24L7 23ZM12 23L12 24L13 24L13 23ZM16 23L16 25L17 25L17 23ZM18 23L18 24L19 24L19 23ZM5 25L5 28L8 28L8 25ZM21 25L21 26L20 26L20 27L21 27L21 26L23 26L23 25ZM25 25L25 28L28 28L28 25ZM45 25L45 28L48 28L48 25ZM6 26L6 27L7 27L7 26ZM16 26L16 27L17 27L17 26ZM26 26L26 27L27 27L27 26ZM46 26L46 27L47 27L47 26ZM3 29L3 32L4 32L4 29ZM28 29L28 30L29 30L29 29ZM5 30L5 31L7 31L7 30ZM16 30L16 32L15 32L15 31L14 31L14 32L15 32L15 34L12 34L12 35L15 35L15 36L14 36L14 37L13 37L13 39L12 39L12 40L13 40L13 44L12 44L12 45L11 45L11 46L12 46L12 47L13 47L13 50L14 50L14 48L15 48L15 47L16 47L16 44L14 44L14 43L15 43L15 42L14 42L14 41L15 41L15 40L16 40L16 41L17 41L17 39L15 39L15 38L16 38L16 36L17 36L17 35L16 35L16 34L18 34L18 38L19 38L19 34L18 34L18 33L19 33L19 32L18 32L18 31L21 31L21 30ZM48 30L48 32L47 32L47 33L46 33L46 35L47 35L47 34L48 34L48 33L49 33L49 32L50 32L50 31L51 31L51 30L50 30L50 31L49 31L49 30ZM11 31L11 32L12 32L12 33L13 33L13 31ZM30 31L30 32L31 32L31 31ZM20 32L20 33L21 33L21 32ZM10 33L10 34L11 34L11 33ZM42 33L42 34L44 34L44 33ZM52 34L52 35L53 35L53 34ZM10 35L10 36L11 36L11 35ZM28 35L28 36L27 36L27 37L30 37L30 38L31 38L31 37L32 37L32 38L33 38L33 37L34 37L34 35L33 35L33 37L32 37L32 36L30 36L30 35ZM6 36L6 37L7 37L7 36ZM43 36L43 37L44 37L44 38L43 38L43 39L44 39L44 40L43 40L43 41L44 41L44 40L45 40L45 41L46 41L46 39L44 39L44 38L45 38L45 37L44 37L44 36ZM48 36L48 38L49 38L49 39L48 39L48 40L49 40L49 39L50 39L50 37L49 37L49 36ZM14 37L14 38L15 38L15 37ZM5 38L5 39L4 39L4 40L3 40L3 41L4 41L4 40L5 40L5 39L7 39L7 38ZM14 39L14 40L15 40L15 39ZM20 39L20 40L21 40L21 39ZM38 39L38 40L36 40L36 41L37 41L37 43L39 43L39 42L40 42L40 41L41 41L41 42L42 42L42 44L43 44L43 42L42 42L42 41L41 41L41 40L40 40L40 41L39 41L39 39ZM26 40L26 41L25 41L25 42L27 42L27 40ZM28 40L28 42L29 42L29 43L30 43L30 44L31 44L31 43L30 43L30 41L31 41L31 40L30 40L30 41L29 41L29 40ZM52 40L52 41L53 41L53 40ZM38 41L38 42L39 42L39 41ZM48 41L48 42L50 42L50 41ZM16 42L16 43L18 43L18 42ZM47 43L47 44L48 44L48 43ZM6 44L6 45L7 45L7 44ZM13 44L13 45L14 45L14 44ZM36 44L36 46L37 46L37 44ZM25 45L25 48L28 48L28 45ZM45 45L45 48L48 48L48 45ZM49 45L49 46L50 46L50 45ZM13 46L13 47L14 47L14 46ZM26 46L26 47L27 47L27 46ZM46 46L46 47L47 47L47 46ZM29 47L29 49L30 49L30 50L32 50L32 52L34 52L34 51L33 51L33 49L32 49L32 48L30 48L30 47ZM20 48L20 49L21 49L21 48ZM38 49L38 50L39 50L39 49ZM40 49L40 50L41 50L41 51L42 51L42 50L41 50L41 49ZM46 49L46 50L45 50L45 51L46 51L46 52L49 52L49 51L50 51L50 50L49 50L49 51L48 51L48 49ZM16 50L16 51L17 51L17 50ZM20 50L20 51L21 51L21 50ZM28 50L28 52L29 52L29 50ZM46 50L46 51L47 51L47 50ZM20 52L20 53L21 53L21 52ZM22 52L22 53L23 53L23 52ZM52 52L52 53L53 53L53 52ZM0 0L0 7L7 7L7 0ZM1 1L1 6L6 6L6 1ZM2 2L2 5L5 5L5 2ZM46 0L46 7L53 7L53 0ZM47 1L47 6L52 6L52 1ZM48 2L48 5L51 5L51 2ZM0 46L0 53L7 53L7 46ZM1 47L1 52L6 52L6 47ZM2 48L2 51L5 51L5 48Z" fill="#000000"/></g></g></svg>
