<?xml version="1.0" encoding="UTF-8"?>
<svg xmlns="http://www.w3.org/2000/svg" version="1.1" width="356" height="356" viewBox="0 0 356 356"><rect x="0" y="0" width="356" height="356" fill="#ffffff"/><g transform="scale(6.717)"><g transform="translate(0,0)"><path fill-rule="evenodd" d="M8 0L8 2L9 2L9 4L8 4L8 9L7 9L7 8L5 8L5 9L4 9L4 10L3 10L3 8L0 8L0 9L1 9L1 10L2 10L2 11L4 11L4 12L3 12L3 13L2 13L2 12L1 12L1 11L0 11L0 12L1 12L1 13L2 13L2 15L1 15L1 14L0 14L0 15L1 15L1 16L0 16L0 19L1 19L1 20L2 20L2 21L0 21L0 22L2 22L2 21L3 21L3 20L5 20L5 22L6 22L6 23L7 23L7 24L4 24L4 22L3 22L3 23L0 23L0 24L3 24L3 25L2 25L2 26L3 26L3 27L2 27L2 28L1 28L1 27L0 27L0 28L1 28L1 29L3 29L3 27L4 27L4 32L3 32L3 33L4 33L4 34L2 34L2 31L1 31L1 32L0 32L0 33L1 33L1 34L0 34L0 35L1 35L1 34L2 34L2 35L3 35L3 36L2 36L2 37L1 37L1 36L0 36L0 40L3 40L3 41L4 41L4 42L3 42L3 43L2 43L2 41L0 41L0 43L1 43L1 44L3 44L3 45L4 45L4 44L3 44L3 43L8 43L8 44L9 44L9 45L8 45L8 46L13 46L13 47L10 47L10 48L9 48L9 47L8 47L8 48L9 48L9 49L10 49L10 50L11 50L11 51L10 51L10 52L9 52L9 50L8 50L8 53L11 53L11 51L13 51L13 49L14 49L14 52L15 52L15 53L16 53L16 52L18 52L18 53L19 53L19 52L18 52L18 49L19 49L19 48L18 48L18 47L19 47L19 46L20 46L20 47L21 47L21 46L23 46L23 47L22 47L22 48L23 48L23 50L22 50L22 51L23 51L23 50L24 50L24 49L25 49L25 51L24 51L24 53L25 53L25 51L26 51L26 52L27 52L27 51L28 51L28 50L30 50L30 51L29 51L29 52L28 52L28 53L31 53L31 52L32 52L32 53L33 53L33 52L32 52L32 50L30 50L30 49L31 49L31 48L32 48L32 49L33 49L33 51L34 51L34 53L35 53L35 51L38 51L38 49L39 49L39 48L40 48L40 49L41 49L41 50L42 50L42 48L43 48L43 46L42 46L42 45L44 45L44 49L46 49L46 50L44 50L44 51L43 51L43 52L42 52L42 51L40 51L40 50L39 50L39 52L38 52L38 53L41 53L41 52L42 52L42 53L43 53L43 52L44 52L44 53L45 53L45 52L46 52L46 53L50 53L50 49L49 49L49 48L50 48L50 46L52 46L52 48L53 48L53 45L52 45L52 44L53 44L53 42L52 42L52 44L50 44L50 43L48 43L48 41L49 41L49 42L50 42L50 41L52 41L52 40L53 40L53 37L52 37L52 40L50 40L50 39L51 39L51 36L50 36L50 35L49 35L49 34L51 34L51 33L49 33L49 32L50 32L50 31L51 31L51 30L50 30L50 29L52 29L52 31L53 31L53 29L52 29L52 27L53 27L53 26L52 26L52 27L51 27L51 28L50 28L50 27L49 27L49 26L50 26L50 23L51 23L51 22L52 22L52 23L53 23L53 22L52 22L52 21L53 21L53 18L52 18L52 20L51 20L51 21L49 21L49 20L50 20L50 19L51 19L51 18L50 18L50 16L49 16L49 15L51 15L51 17L52 17L52 15L53 15L53 10L52 10L52 9L53 9L53 8L51 8L51 9L50 9L50 10L49 10L49 8L45 8L45 6L44 6L44 7L43 7L43 3L44 3L44 4L45 4L45 3L44 3L44 1L43 1L43 0L40 0L40 1L39 1L39 0L38 0L38 2L37 2L37 0L36 0L36 3L35 3L35 4L34 4L34 2L35 2L35 0L34 0L34 1L33 1L33 0L32 0L32 2L31 2L31 4L30 4L30 5L29 5L29 2L28 2L28 1L27 1L27 2L26 2L26 0L24 0L24 1L23 1L23 0L22 0L22 1L23 1L23 2L20 2L20 1L21 1L21 0L18 0L18 1L16 1L16 2L18 2L18 1L19 1L19 4L20 4L20 5L18 5L18 3L15 3L15 2L14 2L14 1L15 1L15 0L12 0L12 2L11 2L11 3L12 3L12 4L10 4L10 2L9 2L9 1L10 1L10 0ZM30 0L30 1L31 1L31 0ZM24 1L24 3L26 3L26 2L25 2L25 1ZM12 2L12 3L13 3L13 5L12 5L12 6L11 6L11 7L10 7L10 4L9 4L9 8L11 8L11 7L12 7L12 9L8 9L8 10L7 10L7 9L5 9L5 10L7 10L7 11L5 11L5 12L4 12L4 14L3 14L3 15L2 15L2 16L1 16L1 19L5 19L5 18L4 18L4 17L6 17L6 18L7 18L7 19L6 19L6 20L7 20L7 19L8 19L8 18L9 18L9 19L10 19L10 22L9 22L9 21L8 21L8 22L9 22L9 23L8 23L8 24L9 24L9 23L11 23L11 21L12 21L12 20L11 20L11 19L10 19L10 18L11 18L11 17L12 17L12 18L13 18L13 19L14 19L14 20L15 20L15 19L14 19L14 18L15 18L15 16L14 16L14 15L16 15L16 14L18 14L18 12L19 12L19 8L20 8L20 6L21 6L21 7L22 7L22 6L23 6L23 7L24 7L24 5L23 5L23 3L21 3L21 5L20 5L20 6L19 6L19 8L18 8L18 6L17 6L17 7L16 7L16 5L15 5L15 3L13 3L13 2ZM32 2L32 5L30 5L30 6L29 6L29 7L30 7L30 6L31 6L31 9L30 9L30 8L29 8L29 9L28 9L28 10L27 10L27 9L25 9L25 10L27 10L27 11L26 11L26 12L28 12L28 13L27 13L27 15L26 15L26 13L25 13L25 15L24 15L24 13L22 13L22 12L23 12L23 11L24 11L24 12L25 12L25 11L24 11L24 9L22 9L22 8L21 8L21 10L20 10L20 11L21 11L21 10L23 10L23 11L22 11L22 12L20 12L20 14L19 14L19 15L18 15L18 16L19 16L19 17L18 17L18 18L19 18L19 20L21 20L21 21L20 21L20 22L19 22L19 21L18 21L18 19L17 19L17 18L16 18L16 19L17 19L17 20L16 20L16 23L14 23L14 24L15 24L15 25L14 25L14 26L15 26L15 28L16 28L16 30L13 30L13 28L14 28L14 27L13 27L13 25L11 25L11 24L10 24L10 26L12 26L12 27L13 27L13 28L11 28L11 29L10 29L10 27L9 27L9 29L5 29L5 30L7 30L7 31L6 31L6 32L7 32L7 33L5 33L5 35L6 35L6 36L7 36L7 35L6 35L6 34L8 34L8 36L9 36L9 40L10 40L10 41L11 41L11 39L12 39L12 40L13 40L13 39L12 39L12 38L11 38L11 37L10 37L10 35L13 35L13 38L15 38L15 39L14 39L14 40L15 40L15 41L14 41L14 42L13 42L13 41L12 41L12 43L13 43L13 44L14 44L14 42L15 42L15 44L16 44L16 47L15 47L15 46L14 46L14 47L13 47L13 48L12 48L12 49L13 49L13 48L16 48L16 47L17 47L17 46L19 46L19 45L20 45L20 46L21 46L21 45L20 45L20 44L19 44L19 45L18 45L18 43L19 43L19 40L18 40L18 39L19 39L19 38L24 38L24 35L26 35L26 34L27 34L27 35L28 35L28 36L27 36L27 37L26 37L26 36L25 36L25 42L24 42L24 43L23 43L23 44L26 44L26 43L27 43L27 42L26 42L26 38L28 38L28 44L29 44L29 45L30 45L30 46L29 46L29 48L30 48L30 46L31 46L31 47L32 47L32 48L34 48L34 50L35 50L35 49L36 49L36 47L37 47L37 49L38 49L38 47L39 47L39 46L41 46L41 45L40 45L40 44L41 44L41 43L42 43L42 44L44 44L44 43L46 43L46 42L47 42L47 41L46 41L46 38L47 38L47 37L46 37L46 36L47 36L47 35L48 35L48 34L49 34L49 33L48 33L48 34L47 34L47 33L46 33L46 32L45 32L45 34L44 34L44 33L42 33L42 31L41 31L41 35L40 35L40 34L39 34L39 33L40 33L40 30L41 30L41 29L40 29L40 28L43 28L43 29L42 29L42 30L45 30L45 31L46 31L46 30L47 30L47 32L48 32L48 30L49 30L49 31L50 31L50 30L49 30L49 29L48 29L48 30L47 30L47 29L46 29L46 30L45 30L45 29L44 29L44 24L45 24L45 20L44 20L44 19L42 19L42 18L43 18L43 17L44 17L44 18L45 18L45 17L46 17L46 19L47 19L47 20L46 20L46 22L47 22L47 24L49 24L49 23L50 23L50 22L49 22L49 21L48 21L48 20L49 20L49 19L50 19L50 18L49 18L49 17L48 17L48 19L47 19L47 17L46 17L46 15L44 15L44 14L45 14L45 13L44 13L44 14L43 14L43 12L46 12L46 11L44 11L44 10L45 10L45 8L43 8L43 7L42 7L42 5L41 5L41 8L42 8L42 10L43 10L43 11L42 11L42 12L41 12L41 11L40 11L40 12L39 12L39 9L40 9L40 4L41 4L41 2L38 2L38 3L36 3L36 4L37 4L37 5L36 5L36 6L35 6L35 7L34 7L34 6L33 6L33 2ZM42 2L42 3L43 3L43 2ZM38 3L38 5L37 5L37 6L36 6L36 7L37 7L37 8L36 8L36 9L35 9L35 10L34 10L34 9L33 9L33 6L32 6L32 9L31 9L31 10L33 10L33 11L37 11L37 9L39 9L39 6L38 6L38 5L39 5L39 4L40 4L40 3ZM25 5L25 8L28 8L28 5ZM12 6L12 7L13 7L13 9L12 9L12 11L11 11L11 10L10 10L10 11L11 11L11 12L10 12L10 13L11 13L11 15L10 15L10 14L9 14L9 13L8 13L8 14L9 14L9 15L10 15L10 16L6 16L6 17L9 17L9 18L10 18L10 16L11 16L11 15L12 15L12 17L13 17L13 14L16 14L16 12L13 12L13 11L14 11L14 9L15 9L15 8L14 8L14 7L15 7L15 6L14 6L14 7L13 7L13 6ZM26 6L26 7L27 7L27 6ZM37 6L37 7L38 7L38 6ZM16 8L16 9L17 9L17 8ZM29 9L29 10L28 10L28 12L29 12L29 13L28 13L28 16L26 16L26 15L25 15L25 22L26 22L26 23L25 23L25 24L24 24L24 30L23 30L23 31L22 31L22 32L23 32L23 33L24 33L24 34L23 34L23 35L24 35L24 34L25 34L25 32L26 32L26 33L27 33L27 34L28 34L28 35L30 35L30 33L31 33L31 31L29 31L29 30L28 30L28 29L29 29L29 27L30 27L30 29L31 29L31 30L32 30L32 31L33 31L33 30L34 30L34 32L32 32L32 33L33 33L33 35L31 35L31 36L28 36L28 38L29 38L29 39L31 39L31 38L32 38L32 45L33 45L33 46L32 46L32 47L33 47L33 46L34 46L34 47L35 47L35 46L34 46L34 45L33 45L33 43L34 43L34 44L35 44L35 43L36 43L36 46L37 46L37 44L38 44L38 45L39 45L39 43L41 43L41 42L42 42L42 43L43 43L43 42L46 42L46 41L45 41L45 39L44 39L44 38L45 38L45 37L44 37L44 34L43 34L43 35L41 35L41 36L40 36L40 35L39 35L39 34L38 34L38 33L39 33L39 32L38 32L38 31L39 31L39 30L38 30L38 28L39 28L39 26L42 26L42 27L43 27L43 26L42 26L42 25L41 25L41 22L40 22L40 21L41 21L41 20L42 20L42 21L43 21L43 20L42 20L42 19L41 19L41 18L42 18L42 16L44 16L44 17L45 17L45 16L44 16L44 15L43 15L43 14L42 14L42 13L41 13L41 12L40 12L40 14L39 14L39 15L40 15L40 17L39 17L39 16L38 16L38 15L37 15L37 16L36 16L36 15L35 15L35 14L34 14L34 13L35 13L35 12L34 12L34 13L33 13L33 12L32 12L32 11L30 11L30 9ZM46 9L46 10L47 10L47 13L46 13L46 14L48 14L48 15L49 15L49 14L48 14L48 9ZM8 10L8 11L9 11L9 10ZM16 10L16 11L17 11L17 12L18 12L18 10ZM50 10L50 12L49 12L49 13L50 13L50 14L51 14L51 15L52 15L52 14L51 14L51 13L50 13L50 12L51 12L51 11L52 11L52 10ZM29 11L29 12L30 12L30 14L29 14L29 16L28 16L28 17L27 17L27 18L26 18L26 21L27 21L27 23L26 23L26 24L28 24L28 21L30 21L30 22L29 22L29 23L30 23L30 24L29 24L29 25L30 25L30 26L31 26L31 25L32 25L32 28L31 28L31 29L32 29L32 30L33 30L33 29L34 29L34 30L35 30L35 31L37 31L37 29L36 29L36 30L35 30L35 27L34 27L34 26L35 26L35 25L36 25L36 27L38 27L38 26L39 26L39 25L40 25L40 24L38 24L38 26L37 26L37 25L36 25L36 24L37 24L37 23L36 23L36 24L34 24L34 26L33 26L33 25L32 25L32 23L34 23L34 22L37 22L37 21L38 21L38 22L39 22L39 21L40 21L40 20L39 20L39 19L40 19L40 18L39 18L39 17L38 17L38 18L39 18L39 19L38 19L38 20L37 20L37 19L35 19L35 18L37 18L37 17L36 17L36 16L35 16L35 17L34 17L34 14L33 14L33 13L32 13L32 12L30 12L30 11ZM5 12L5 13L7 13L7 12ZM11 12L11 13L12 13L12 14L13 14L13 13L12 13L12 12ZM36 12L36 14L37 14L37 12ZM38 12L38 13L39 13L39 12ZM21 13L21 14L20 14L20 17L21 17L21 18L20 18L20 19L21 19L21 20L22 20L22 22L20 22L20 24L19 24L19 23L18 23L18 24L19 24L19 26L18 26L18 27L17 27L17 26L16 26L16 27L17 27L17 28L18 28L18 29L19 29L19 28L21 28L21 27L22 27L22 29L23 29L23 26L21 26L21 25L23 25L23 24L22 24L22 22L23 22L23 21L24 21L24 18L23 18L23 17L24 17L24 15L22 15L22 13ZM31 13L31 14L30 14L30 16L31 16L31 14L32 14L32 13ZM4 14L4 15L7 15L7 14ZM40 14L40 15L42 15L42 14ZM21 15L21 16L22 16L22 15ZM32 15L32 18L31 18L31 19L32 19L32 22L30 22L30 23L32 23L32 22L34 22L34 21L35 21L35 19L34 19L34 17L33 17L33 15ZM3 16L3 17L4 17L4 16ZM28 17L28 20L30 20L30 19L29 19L29 17ZM32 18L32 19L33 19L33 21L34 21L34 19L33 19L33 18ZM36 20L36 21L37 21L37 20ZM38 20L38 21L39 21L39 20ZM6 21L6 22L7 22L7 21ZM17 21L17 22L18 22L18 21ZM48 22L48 23L49 23L49 22ZM12 23L12 24L13 24L13 23ZM16 23L16 25L17 25L17 23ZM43 23L43 24L44 24L44 23ZM30 24L30 25L31 25L31 24ZM3 25L3 26L4 26L4 25ZM5 25L5 28L8 28L8 25ZM25 25L25 28L28 28L28 25ZM45 25L45 28L48 28L48 25ZM6 26L6 27L7 27L7 26ZM20 26L20 27L21 27L21 26ZM26 26L26 27L27 27L27 26ZM46 26L46 27L47 27L47 26ZM33 27L33 28L32 28L32 29L33 29L33 28L34 28L34 27ZM9 29L9 30L8 30L8 31L7 31L7 32L9 32L9 33L11 33L11 32L12 32L12 33L13 33L13 30L12 30L12 29L11 29L11 30L10 30L10 29ZM25 29L25 30L24 30L24 31L26 31L26 32L27 32L27 29ZM11 30L11 31L12 31L12 30ZM16 30L16 32L15 32L15 31L14 31L14 32L15 32L15 34L13 34L13 35L15 35L15 36L14 36L14 37L15 37L15 38L16 38L16 36L17 36L17 35L16 35L16 34L18 34L18 38L19 38L19 34L18 34L18 33L19 33L19 32L18 32L18 31L21 31L21 30ZM9 31L9 32L10 32L10 31ZM28 31L28 32L29 32L29 33L30 33L30 32L29 32L29 31ZM20 32L20 33L21 33L21 32ZM34 32L34 39L33 39L33 40L34 40L34 39L35 39L35 41L34 41L34 43L35 43L35 41L36 41L36 40L38 40L38 42L36 42L36 43L39 43L39 42L40 42L40 40L44 40L44 39L41 39L41 38L39 38L39 37L40 37L40 36L39 36L39 35L38 35L38 34L37 34L37 33L38 33L38 32L37 32L37 33L36 33L36 34L35 34L35 32ZM52 32L52 33L53 33L53 32ZM20 34L20 35L22 35L22 34ZM36 34L36 35L37 35L37 36L36 36L36 37L35 37L35 38L36 38L36 37L37 37L37 39L38 39L38 40L40 40L40 39L39 39L39 38L38 38L38 37L39 37L39 36L38 36L38 35L37 35L37 34ZM46 34L46 35L47 35L47 34ZM52 34L52 35L53 35L53 34ZM3 36L3 37L4 37L4 38L3 38L3 40L5 40L5 41L6 41L6 42L8 42L8 43L9 43L9 44L10 44L10 45L11 45L11 43L10 43L10 42L9 42L9 41L6 41L6 40L7 40L7 39L8 39L8 38L7 38L7 37L6 37L6 38L5 38L5 36ZM22 36L22 37L23 37L23 36ZM42 36L42 38L44 38L44 37L43 37L43 36ZM48 36L48 38L49 38L49 39L48 39L48 40L49 40L49 39L50 39L50 37L49 37L49 36ZM30 37L30 38L31 38L31 37ZM1 38L1 39L2 39L2 38ZM6 38L6 39L7 39L7 38ZM10 38L10 39L11 39L11 38ZM15 39L15 40L16 40L16 41L17 41L17 39ZM20 39L20 40L21 40L21 39ZM22 39L22 40L23 40L23 41L22 41L22 42L23 42L23 41L24 41L24 40L23 40L23 39ZM29 41L29 44L30 44L30 45L31 45L31 42L30 42L30 41ZM42 41L42 42L43 42L43 41ZM16 42L16 43L18 43L18 42ZM20 42L20 43L21 43L21 44L22 44L22 43L21 43L21 42ZM47 43L47 44L48 44L48 43ZM6 44L6 45L7 45L7 44ZM49 44L49 46L50 46L50 44ZM23 45L23 46L24 46L24 45ZM25 45L25 48L28 48L28 45ZM45 45L45 48L48 48L48 45ZM26 46L26 47L27 47L27 46ZM46 46L46 47L47 47L47 46ZM40 47L40 48L42 48L42 47ZM10 48L10 49L11 49L11 48ZM20 48L20 49L21 49L21 48ZM26 49L26 51L27 51L27 50L28 50L28 49ZM47 49L47 51L46 51L46 52L49 52L49 51L48 51L48 49ZM16 50L16 51L17 51L17 50ZM20 50L20 51L21 51L21 50ZM30 51L30 52L31 52L31 51ZM20 52L20 53L21 53L21 52ZM22 52L22 53L23 53L23 52ZM36 52L36 53L37 53L37 52ZM52 52L52 53L53 53L53 52ZM0 0L0 7L7 7L7 0ZM1 1L1 6L6 6L6 1ZM2 2L2 5L5 5L5 2ZM46 0L46 7L53 7L53 0ZM47 1L47 6L52 6L52 1ZM48 2L48 5L51 5L51 2ZM0 46L0 53L7 53L7 46ZM1 47L1 52L6 52L6 47ZM2 48L2 51L5 51L5 48Z" fill="#000000"/></g></g></svg>
