<?xml version="1.0" encoding="UTF-8"?>
<svg xmlns="http://www.w3.org/2000/svg" version="1.1" width="356" height="356" viewBox="0 0 356 356"><rect x="0" y="0" width="356" height="356" fill="#ffffff"/><g transform="scale(6.717)"><g transform="translate(0,0)"><path fill-rule="evenodd" d="M8 0L8 1L10 1L10 2L8 2L8 5L9 5L9 4L10 4L10 5L13 5L13 6L12 6L12 7L11 7L11 6L10 6L10 8L8 8L8 9L7 9L7 8L6 8L6 9L4 9L4 8L0 8L0 9L1 9L1 10L0 10L0 11L1 11L1 13L0 13L0 14L1 14L1 13L2 13L2 14L3 14L3 15L2 15L2 18L1 18L1 16L0 16L0 18L1 18L1 19L2 19L2 20L4 20L4 21L2 21L2 23L1 23L1 24L0 24L0 26L1 26L1 28L2 28L2 26L1 26L1 24L2 24L2 23L3 23L3 25L4 25L4 28L3 28L3 30L2 30L2 29L0 29L0 31L1 31L1 30L2 30L2 33L1 33L1 32L0 32L0 33L1 33L1 34L0 34L0 35L1 35L1 36L0 36L0 39L1 39L1 40L2 40L2 41L0 41L0 43L1 43L1 44L3 44L3 45L4 45L4 44L3 44L3 43L7 43L7 42L6 42L6 41L8 41L8 42L11 42L11 41L12 41L12 44L11 44L11 43L8 43L8 46L9 46L9 47L10 47L10 48L9 48L9 49L8 49L8 53L10 53L10 52L11 52L11 53L15 53L15 51L13 51L13 50L14 50L14 49L15 49L15 50L17 50L17 49L16 49L16 48L15 48L15 45L12 45L12 44L13 44L13 43L14 43L14 44L15 44L15 42L13 42L13 41L12 41L12 40L14 40L14 41L16 41L16 42L17 42L17 41L16 41L16 40L17 40L17 39L20 39L20 43L17 43L17 45L18 45L18 46L16 46L16 47L17 47L17 48L18 48L18 49L20 49L20 50L21 50L21 51L23 51L23 52L25 52L25 53L28 53L28 52L25 52L25 51L27 51L27 49L28 49L28 51L29 51L29 53L30 53L30 52L31 52L31 53L34 53L34 52L37 52L37 53L38 53L38 52L39 52L39 53L40 53L40 52L41 52L41 51L43 51L43 50L42 50L42 49L41 49L41 50L40 50L40 49L37 49L37 46L38 46L38 45L39 45L39 46L40 46L40 47L39 47L39 48L41 48L41 46L44 46L44 50L45 50L45 49L46 49L46 51L48 51L48 52L47 52L47 53L48 53L48 52L49 52L49 53L50 53L50 52L49 52L49 51L48 51L48 50L49 50L49 49L53 49L53 47L52 47L52 46L51 46L51 45L50 45L50 46L51 46L51 48L49 48L49 44L51 44L51 41L52 41L52 42L53 42L53 41L52 41L52 39L53 39L53 35L52 35L52 33L53 33L53 31L50 31L50 30L48 30L48 29L51 29L51 30L52 30L52 29L53 29L53 28L52 28L52 29L51 29L51 28L50 28L50 27L49 27L49 24L46 24L46 22L43 22L43 20L42 20L42 18L41 18L41 17L42 17L42 16L43 16L43 14L44 14L44 15L45 15L45 16L44 16L44 17L45 17L45 18L44 18L44 19L45 19L45 20L44 20L44 21L46 21L46 20L47 20L47 21L48 21L48 20L47 20L47 18L48 18L48 15L47 15L47 14L46 14L46 13L47 13L47 12L48 12L48 13L49 13L49 15L50 15L50 14L51 14L51 15L53 15L53 13L52 13L52 10L51 10L51 8L48 8L48 9L49 9L49 11L46 11L46 13L43 13L43 12L42 12L42 11L44 11L44 12L45 12L45 10L44 10L44 9L41 9L41 8L44 8L44 7L45 7L45 6L44 6L44 7L43 7L43 3L44 3L44 4L45 4L45 3L44 3L44 1L43 1L43 0L42 0L42 2L43 2L43 3L41 3L41 5L42 5L42 7L41 7L41 6L40 6L40 4L38 4L38 3L39 3L39 2L40 2L40 0L39 0L39 1L38 1L38 0L35 0L35 1L33 1L33 2L32 2L32 3L31 3L31 6L30 6L30 7L29 7L29 4L30 4L30 2L31 2L31 1L32 1L32 0L28 0L28 1L29 1L29 2L28 2L28 3L26 3L26 2L27 2L27 0L22 0L22 3L24 3L24 7L23 7L23 6L22 6L22 7L21 7L21 6L20 6L20 7L21 7L21 9L20 9L20 8L19 8L19 5L22 5L22 4L21 4L21 3L20 3L20 2L21 2L21 1L19 1L19 0L16 0L16 2L15 2L15 1L12 1L12 0ZM17 1L17 2L16 2L16 3L14 3L14 2L10 2L10 3L11 3L11 4L12 4L12 3L13 3L13 4L14 4L14 6L13 6L13 7L12 7L12 8L10 8L10 9L9 9L9 10L8 10L8 11L6 11L6 12L5 12L5 11L4 11L4 10L3 10L3 9L2 9L2 10L3 10L3 11L2 11L2 13L3 13L3 14L4 14L4 15L3 15L3 16L4 16L4 15L5 15L5 17L3 17L3 19L4 19L4 18L5 18L5 17L6 17L6 18L7 18L7 19L5 19L5 20L7 20L7 21L6 21L6 22L5 22L5 23L4 23L4 22L3 22L3 23L4 23L4 24L9 24L9 26L10 26L10 24L9 24L9 23L8 23L8 22L7 22L7 21L8 21L8 20L7 20L7 19L8 19L8 18L7 18L7 17L6 17L6 16L7 16L7 15L5 15L5 14L4 14L4 13L6 13L6 14L7 14L7 13L6 13L6 12L10 12L10 13L8 13L8 14L9 14L9 15L10 15L10 16L9 16L9 19L11 19L11 20L12 20L12 19L13 19L13 16L14 16L14 19L15 19L15 17L16 17L16 18L17 18L17 19L18 19L18 18L19 18L19 16L20 16L20 15L23 15L23 14L17 14L17 13L16 13L16 14L17 14L17 15L19 15L19 16L18 16L18 18L17 18L17 16L16 16L16 15L15 15L15 16L14 16L14 14L15 14L15 12L16 12L16 11L17 11L17 10L18 10L18 9L16 9L16 11L15 11L15 8L17 8L17 7L18 7L18 6L17 6L17 4L16 4L16 3L17 3L17 2L19 2L19 1ZM37 1L37 2L36 2L36 3L38 3L38 1ZM28 3L28 4L29 4L29 3ZM32 3L32 6L31 6L31 7L30 7L30 8L29 8L29 9L28 9L28 12L27 12L27 9L26 9L26 10L24 10L24 15L25 15L25 13L29 13L29 14L30 14L30 15L28 15L28 16L27 16L27 14L26 14L26 16L27 16L27 19L29 19L29 20L28 20L28 21L27 21L27 22L26 22L26 19L25 19L25 17L23 17L23 16L21 16L21 17L20 17L20 19L19 19L19 20L18 20L18 21L19 21L19 20L20 20L20 22L21 22L21 23L22 23L22 22L23 22L23 23L24 23L24 24L22 24L22 25L21 25L21 24L18 24L18 22L17 22L17 20L14 20L14 21L15 21L15 23L14 23L14 22L13 22L13 23L12 23L12 22L11 22L11 21L10 21L10 20L9 20L9 21L10 21L10 22L11 22L11 24L13 24L13 25L11 25L11 28L10 28L10 27L9 27L9 28L10 28L10 29L11 29L11 30L10 30L10 31L9 31L9 30L8 30L8 29L5 29L5 30L8 30L8 31L9 31L9 34L7 34L7 33L8 33L8 32L7 32L7 31L6 31L6 32L5 32L5 31L3 31L3 34L4 34L4 32L5 32L5 33L6 33L6 34L5 34L5 35L6 35L6 36L7 36L7 37L6 37L6 38L7 38L7 39L3 39L3 40L5 40L5 41L4 41L4 42L5 42L5 41L6 41L6 40L7 40L7 39L8 39L8 40L9 40L9 39L10 39L10 38L9 38L9 35L10 35L10 37L11 37L11 38L13 38L13 37L12 37L12 35L10 35L10 34L11 34L11 33L10 33L10 32L11 32L11 31L13 31L13 35L14 35L14 37L15 37L15 35L16 35L16 36L18 36L18 35L19 35L19 34L21 34L21 32L22 32L22 35L23 35L23 32L25 32L25 34L24 34L24 36L21 36L21 35L20 35L20 36L21 36L21 37L22 37L22 38L21 38L21 41L24 41L24 42L21 42L21 43L20 43L20 44L18 44L18 45L20 45L20 46L18 46L18 48L19 48L19 47L21 47L21 48L20 48L20 49L21 49L21 50L23 50L23 51L24 51L24 50L25 50L25 49L24 49L24 48L23 48L23 47L21 47L21 46L22 46L22 44L23 44L23 43L24 43L24 44L27 44L27 43L28 43L28 44L29 44L29 45L30 45L30 44L29 44L29 42L28 42L28 41L30 41L30 42L31 42L31 40L32 40L32 38L31 38L31 37L33 37L33 38L34 38L34 39L35 39L35 40L33 40L33 41L35 41L35 43L33 43L33 42L32 42L32 43L31 43L31 46L29 46L29 47L30 47L30 48L29 48L29 50L30 50L30 51L31 51L31 52L34 52L34 50L35 50L35 51L36 51L36 48L35 48L35 49L34 49L34 50L33 50L33 51L31 51L31 50L32 50L32 49L33 49L33 48L34 48L34 47L35 47L35 43L36 43L36 41L37 41L37 42L39 42L39 43L40 43L40 44L45 44L45 43L41 43L41 42L40 42L40 41L42 41L42 42L44 42L44 40L43 40L43 38L47 38L47 39L46 39L46 41L48 41L48 42L49 42L49 43L48 43L48 44L49 44L49 43L50 43L50 42L49 42L49 41L50 41L50 40L51 40L51 38L52 38L52 35L49 35L49 34L50 34L50 32L49 32L49 34L48 34L48 33L46 33L46 35L45 35L45 32L46 32L46 31L47 31L47 30L45 30L45 29L44 29L44 30L45 30L45 31L43 31L43 32L44 32L44 35L43 35L43 36L39 36L39 38L37 38L37 39L36 39L36 38L35 38L35 37L34 37L34 36L35 36L35 35L34 35L34 34L35 34L35 33L36 33L36 36L37 36L37 37L38 37L38 36L37 36L37 35L39 35L39 32L36 32L36 31L38 31L38 30L39 30L39 31L40 31L40 32L41 32L41 33L40 33L40 34L41 34L41 33L42 33L42 32L41 32L41 31L42 31L42 30L43 30L43 29L42 29L42 30L40 30L40 29L41 29L41 28L42 28L42 27L43 27L43 28L44 28L44 25L43 25L43 24L45 24L45 23L42 23L42 21L41 21L41 22L40 22L40 21L38 21L38 22L37 22L37 23L36 23L36 24L37 24L37 25L34 25L34 26L35 26L35 27L31 27L31 28L29 28L29 29L30 29L30 31L31 31L31 32L29 32L29 30L28 30L28 32L27 32L27 29L25 29L25 31L24 31L24 29L23 29L23 28L24 28L24 27L23 27L23 25L24 25L24 24L27 24L27 22L28 22L28 24L29 24L29 27L30 27L30 26L31 26L31 22L32 22L32 23L34 23L34 24L35 24L35 20L36 20L36 21L37 21L37 20L39 20L39 19L40 19L40 18L39 18L39 17L37 17L37 16L34 16L34 17L35 17L35 20L34 20L34 19L32 19L32 18L31 18L31 17L30 17L30 18L28 18L28 16L32 16L32 15L31 15L31 14L33 14L33 13L34 13L34 14L35 14L35 15L36 15L36 14L35 14L35 12L38 12L38 13L41 13L41 15L38 15L38 14L37 14L37 15L38 15L38 16L40 16L40 17L41 17L41 16L42 16L42 14L43 14L43 13L42 13L42 12L40 12L40 11L42 11L42 10L40 10L40 11L37 11L37 8L38 8L38 6L39 6L39 8L41 8L41 7L40 7L40 6L39 6L39 5L37 5L37 4L36 4L36 6L35 6L35 4L34 4L34 5L33 5L33 3ZM25 5L25 8L28 8L28 5ZM8 6L8 7L9 7L9 6ZM14 6L14 7L13 7L13 8L12 8L12 9L11 9L11 13L12 13L12 14L11 14L11 15L12 15L12 16L10 16L10 18L11 18L11 17L12 17L12 16L13 16L13 15L12 15L12 14L14 14L14 13L12 13L12 12L13 12L13 11L12 11L12 10L14 10L14 8L15 8L15 6ZM16 6L16 7L17 7L17 6ZM26 6L26 7L27 7L27 6ZM32 6L32 7L33 7L33 6ZM34 6L34 7L35 7L35 11L36 11L36 7L37 7L37 6L36 6L36 7L35 7L35 6ZM22 7L22 8L23 8L23 9L22 9L22 10L19 10L19 11L18 11L18 12L19 12L19 13L20 13L20 11L22 11L22 10L23 10L23 9L24 9L24 8L23 8L23 7ZM30 8L30 9L29 9L29 13L32 13L32 12L34 12L34 11L32 11L32 10L33 10L33 9L34 9L34 8L33 8L33 9L31 9L31 8ZM45 8L45 9L46 9L46 8ZM52 8L52 9L53 9L53 8ZM6 9L6 10L7 10L7 9ZM38 9L38 10L39 10L39 9ZM9 10L9 11L10 11L10 10ZM3 11L3 13L4 13L4 11ZM49 11L49 13L51 13L51 14L52 14L52 13L51 13L51 11ZM21 12L21 13L23 13L23 12ZM45 14L45 15L46 15L46 14ZM46 16L46 17L47 17L47 16ZM52 16L52 18L53 18L53 16ZM21 17L21 19L20 19L20 20L21 20L21 22L22 22L22 21L24 21L24 23L25 23L25 21L24 21L24 18L23 18L23 19L22 19L22 17ZM50 17L50 19L49 19L49 23L52 23L52 22L51 22L51 17ZM30 18L30 19L31 19L31 20L29 20L29 22L31 22L31 20L32 20L32 19L31 19L31 18ZM36 18L36 19L38 19L38 18ZM21 19L21 20L22 20L22 19ZM52 19L52 21L53 21L53 19ZM0 20L0 22L1 22L1 20ZM32 21L32 22L33 22L33 21ZM6 22L6 23L7 23L7 22ZM16 22L16 23L17 23L17 22ZM38 22L38 23L40 23L40 24L41 24L41 23L40 23L40 22ZM47 22L47 23L48 23L48 22ZM17 24L17 26L15 26L15 25L13 25L13 26L12 26L12 27L14 27L14 30L13 30L13 28L12 28L12 30L13 30L13 31L15 31L15 30L17 30L17 28L18 28L18 24ZM32 24L32 25L33 25L33 24ZM50 24L50 25L53 25L53 24ZM5 25L5 28L8 28L8 25ZM19 25L19 30L18 30L18 31L19 31L19 30L20 30L20 28L21 28L21 29L22 29L22 32L23 32L23 29L22 29L22 28L21 28L21 27L22 27L22 26L20 26L20 25ZM25 25L25 28L28 28L28 25ZM37 25L37 26L36 26L36 27L35 27L35 28L36 28L36 27L37 27L37 28L39 28L39 29L40 29L40 28L41 28L41 27L42 27L42 26L41 26L41 25L40 25L40 27L37 27L37 26L39 26L39 25ZM45 25L45 28L48 28L48 25ZM6 26L6 27L7 27L7 26ZM14 26L14 27L15 27L15 26ZM26 26L26 27L27 27L27 26ZM46 26L46 27L47 27L47 26ZM51 26L51 27L53 27L53 26ZM16 27L16 28L15 28L15 29L16 29L16 28L17 28L17 27ZM31 28L31 31L32 31L32 32L33 32L33 31L34 31L34 32L35 32L35 30L36 30L36 29L33 29L33 28ZM32 29L32 31L33 31L33 29ZM16 31L16 35L17 35L17 34L19 34L19 33L17 33L17 31ZM20 31L20 32L21 32L21 31ZM6 32L6 33L7 33L7 32ZM14 32L14 33L15 33L15 32ZM26 33L26 34L25 34L25 35L26 35L26 36L25 36L25 37L24 37L24 41L26 41L26 43L27 43L27 41L28 41L28 40L25 40L25 39L28 39L28 38L29 38L29 40L31 40L31 39L30 39L30 38L29 38L29 37L31 37L31 35L32 35L32 36L33 36L33 35L32 35L32 34L31 34L31 33ZM37 33L37 34L38 34L38 33ZM1 34L1 35L2 35L2 34ZM6 34L6 35L7 35L7 36L8 36L8 35L7 35L7 34ZM14 34L14 35L15 35L15 34ZM28 34L28 35L29 35L29 36L30 36L30 35L29 35L29 34ZM46 35L46 36L47 36L47 35ZM48 35L48 36L49 36L49 35ZM3 36L3 37L2 37L2 38L4 38L4 36ZM26 36L26 37L25 37L25 38L26 38L26 37L27 37L27 38L28 38L28 37L27 37L27 36ZM44 36L44 37L45 37L45 36ZM50 36L50 37L51 37L51 36ZM16 37L16 39L15 39L15 38L14 38L14 40L16 40L16 39L17 39L17 37ZM19 37L19 38L20 38L20 37ZM40 37L40 38L41 38L41 39L38 39L38 41L40 41L40 40L41 40L41 39L42 39L42 38L41 38L41 37ZM8 38L8 39L9 39L9 38ZM22 38L22 39L23 39L23 38ZM47 39L47 40L50 40L50 39ZM10 40L10 41L11 41L11 40ZM18 40L18 41L19 41L19 40ZM42 40L42 41L43 41L43 40ZM2 42L2 43L3 43L3 42ZM46 42L46 43L47 43L47 42ZM21 43L21 44L20 44L20 45L21 45L21 44L22 44L22 43ZM32 43L32 44L33 44L33 45L34 45L34 44L33 44L33 43ZM52 43L52 44L53 44L53 43ZM6 44L6 45L7 45L7 44ZM10 44L10 45L9 45L9 46L10 46L10 47L11 47L11 46L12 46L12 47L14 47L14 46L12 46L12 45L11 45L11 44ZM36 44L36 45L37 45L37 44ZM25 45L25 48L28 48L28 45ZM45 45L45 48L48 48L48 45ZM26 46L26 47L27 47L27 46ZM31 46L31 47L33 47L33 46ZM46 46L46 47L47 47L47 46ZM11 48L11 49L12 49L12 50L11 50L11 52L12 52L12 50L13 50L13 49L14 49L14 48L13 48L13 49L12 49L12 48ZM22 48L22 49L23 49L23 48ZM31 48L31 49L32 49L32 48ZM9 49L9 51L10 51L10 49ZM18 50L18 51L16 51L16 53L17 53L17 52L19 52L19 53L22 53L22 52L19 52L19 50ZM38 50L38 51L37 51L37 52L38 52L38 51L39 51L39 52L40 52L40 51L39 51L39 50ZM51 50L51 53L52 53L52 50ZM43 52L43 53L46 53L46 52ZM0 0L0 7L7 7L7 0ZM1 1L1 6L6 6L6 1ZM2 2L2 5L5 5L5 2ZM46 0L46 7L53 7L53 0ZM47 1L47 6L52 6L52 1ZM48 2L48 5L51 5L51 2ZM0 46L0 53L7 53L7 46ZM1 47L1 52L6 52L6 47ZM2 48L2 51L5 51L5 48Z" fill="#000000"/></g></g></svg>
