<?xml version="1.0" encoding="UTF-8"?>
<svg xmlns="http://www.w3.org/2000/svg" version="1.1" width="356" height="356" viewBox="0 0 356 356"><rect x="0" y="0" width="356" height="356" fill="#ffffff"/><g transform="scale(6.717)"><g transform="translate(0,0)"><path fill-rule="evenodd" d="M9 0L9 1L8 1L8 2L9 2L9 1L12 1L12 0ZM16 0L16 1L15 1L15 2L14 2L14 1L13 1L13 2L14 2L14 3L15 3L15 2L16 2L16 4L13 4L13 5L15 5L15 6L14 6L14 7L13 7L13 6L12 6L12 7L11 7L11 6L10 6L10 7L9 7L9 5L8 5L8 7L9 7L9 8L6 8L6 9L5 9L5 8L0 8L0 9L1 9L1 10L0 10L0 12L1 12L1 11L4 11L4 12L2 12L2 13L4 13L4 14L3 14L3 15L2 15L2 16L3 16L3 15L4 15L4 16L5 16L5 17L2 17L2 22L3 22L3 23L1 23L1 24L0 24L0 25L1 25L1 24L2 24L2 27L1 27L1 29L0 29L0 31L1 31L1 33L3 33L3 34L2 34L2 35L1 35L1 34L0 34L0 36L2 36L2 35L5 35L5 34L6 34L6 35L7 35L7 34L6 34L6 33L9 33L9 32L10 32L10 31L11 31L11 32L12 32L12 34L13 34L13 33L16 33L16 34L15 34L15 35L16 35L16 36L15 36L15 37L21 37L21 36L24 36L24 35L22 35L22 33L26 33L26 34L25 34L25 35L26 35L26 34L27 34L27 35L28 35L28 34L29 34L29 35L30 35L30 36L29 36L29 38L28 38L28 37L27 37L27 38L25 38L25 39L29 39L29 38L30 38L30 39L31 39L31 38L32 38L32 40L29 40L29 41L28 41L28 40L27 40L27 41L28 41L28 43L27 43L27 44L26 44L26 43L23 43L23 42L21 42L21 41L22 41L22 40L21 40L21 39L22 39L22 38L24 38L24 37L22 37L22 38L20 38L20 40L21 40L21 41L18 41L18 40L17 40L17 39L18 39L18 38L16 38L16 40L17 40L17 41L18 41L18 42L20 42L20 43L19 43L19 44L16 44L16 43L14 43L14 41L13 41L13 40L14 40L14 39L13 39L13 40L12 40L12 38L14 38L14 36L13 36L13 35L12 35L12 37L11 37L11 33L10 33L10 35L9 35L9 34L8 34L8 35L9 35L9 38L11 38L11 40L9 40L9 39L8 39L8 37L7 37L7 36L6 36L6 37L7 37L7 38L6 38L6 39L5 39L5 42L3 42L3 41L4 41L4 39L3 39L3 37L4 37L4 36L3 36L3 37L1 37L1 38L2 38L2 39L3 39L3 40L2 40L2 42L1 42L1 40L0 40L0 43L1 43L1 44L3 44L3 45L4 45L4 44L3 44L3 43L7 43L7 42L6 42L6 41L8 41L8 44L9 44L9 45L8 45L8 47L9 47L9 45L10 45L10 46L11 46L11 47L10 47L10 49L9 49L9 48L8 48L8 53L10 53L10 51L9 51L9 50L13 50L13 51L14 51L14 53L20 53L20 52L19 52L19 51L20 51L20 50L19 50L19 49L20 49L20 48L22 48L22 49L21 49L21 50L22 50L22 49L23 49L23 50L25 50L25 51L22 51L22 52L23 52L23 53L25 53L25 52L26 52L26 51L27 51L27 52L29 52L29 50L31 50L31 49L32 49L32 47L33 47L33 49L35 49L35 51L34 51L34 50L32 50L32 52L31 52L31 53L32 53L32 52L33 52L33 51L34 51L34 52L35 52L35 53L37 53L37 52L38 52L38 49L39 49L39 52L41 52L41 51L40 51L40 50L42 50L42 51L44 51L44 53L47 53L47 52L45 52L45 51L48 51L48 53L51 53L51 52L52 52L52 51L53 51L53 50L52 50L52 49L53 49L53 47L51 47L51 45L53 45L53 43L51 43L51 42L52 42L52 41L51 41L51 42L50 42L50 41L49 41L49 40L50 40L50 38L53 38L53 36L52 36L52 35L51 35L51 34L52 34L52 33L51 33L51 32L52 32L52 31L51 31L51 32L50 32L50 29L49 29L49 28L50 28L50 27L51 27L51 26L52 26L52 25L53 25L53 23L52 23L52 24L50 24L50 22L52 22L52 20L53 20L53 19L51 19L51 18L52 18L52 17L53 17L53 15L52 15L52 17L51 17L51 16L50 16L50 19L47 19L47 18L49 18L49 16L48 16L48 15L45 15L45 16L48 16L48 17L47 17L47 18L45 18L45 20L42 20L42 18L43 18L43 19L44 19L44 16L43 16L43 17L42 17L42 18L41 18L41 17L39 17L39 16L37 16L37 15L41 15L41 14L42 14L42 15L44 15L44 13L43 13L43 9L46 9L46 8L45 8L45 6L44 6L44 7L43 7L43 3L44 3L44 4L45 4L45 3L44 3L44 1L43 1L43 0L41 0L41 1L40 1L40 2L39 2L39 1L38 1L38 0L35 0L35 1L34 1L34 2L33 2L33 1L32 1L32 0L28 0L28 1L32 1L32 3L30 3L30 4L29 4L29 2L27 2L27 3L26 3L26 2L25 2L25 0L21 0L21 3L18 3L18 2L20 2L20 1L19 1L19 0ZM26 0L26 1L27 1L27 0ZM35 1L35 2L37 2L37 4L35 4L35 3L32 3L32 4L31 4L31 8L32 8L32 9L33 9L33 10L34 10L34 11L32 11L32 13L31 13L31 10L27 10L27 9L26 9L26 10L25 10L25 9L24 9L24 8L23 8L23 7L24 7L24 5L23 5L23 4L26 4L26 3L25 3L25 2L23 2L23 3L21 3L21 4L20 4L20 6L19 6L19 4L16 4L16 5L18 5L18 6L17 6L17 7L16 7L16 6L15 6L15 7L14 7L14 8L13 8L13 7L12 7L12 8L11 8L11 9L8 9L8 10L7 10L7 9L6 9L6 10L4 10L4 9L3 9L3 10L4 10L4 11L5 11L5 12L4 12L4 13L6 13L6 14L8 14L8 15L9 15L9 16L8 16L8 17L6 17L6 18L7 18L7 19L6 19L6 20L7 20L7 21L5 21L5 20L3 20L3 21L5 21L5 22L4 22L4 23L3 23L3 24L10 24L10 25L12 25L12 26L10 26L10 28L9 28L9 29L8 29L8 31L6 31L6 32L5 32L5 30L4 30L4 29L3 29L3 27L2 27L2 29L3 29L3 30L1 30L1 31L3 31L3 33L4 33L4 32L5 32L5 33L6 33L6 32L8 32L8 31L9 31L9 30L10 30L10 29L11 29L11 31L12 31L12 32L14 32L14 31L12 31L12 29L11 29L11 27L12 27L12 28L13 28L13 29L15 29L15 31L18 31L18 29L15 29L15 28L14 28L14 27L16 27L16 28L17 28L17 26L18 26L18 25L21 25L21 24L22 24L22 26L21 26L21 28L22 28L22 29L19 29L19 32L20 32L20 33L19 33L19 34L20 34L20 35L17 35L17 36L21 36L21 33L22 33L22 32L21 32L21 31L22 31L22 29L23 29L23 31L24 31L24 30L25 30L25 29L23 29L23 25L24 25L24 24L23 24L23 23L21 23L21 22L23 22L23 18L22 18L22 17L25 17L25 16L22 16L22 17L21 17L21 16L20 16L20 15L21 15L21 14L22 14L22 13L23 13L23 15L24 15L24 14L25 14L25 15L26 15L26 17L27 17L27 16L28 16L28 17L31 17L31 20L32 20L32 22L33 22L33 24L32 24L32 23L31 23L31 24L29 24L29 25L31 25L31 24L32 24L32 26L31 26L31 28L32 28L32 31L31 31L31 30L30 30L30 29L29 29L29 30L27 30L27 29L26 29L26 31L25 31L25 32L26 32L26 33L27 33L27 34L28 34L28 33L31 33L31 34L35 34L35 36L31 36L31 37L32 37L32 38L33 38L33 39L34 39L34 38L35 38L35 36L36 36L36 34L37 34L37 35L38 35L38 36L37 36L37 37L36 37L36 38L37 38L37 39L35 39L35 40L34 40L34 41L33 41L33 40L32 40L32 41L31 41L31 42L29 42L29 43L28 43L28 44L29 44L29 43L30 43L30 44L31 44L31 42L32 42L32 45L31 45L31 46L29 46L29 47L30 47L30 48L29 48L29 49L31 49L31 47L32 47L32 45L33 45L33 46L34 46L34 48L37 48L37 49L38 49L38 48L39 48L39 49L44 49L44 51L45 51L45 50L46 50L46 49L44 49L44 47L43 47L43 48L42 48L42 46L41 46L41 45L43 45L43 46L44 46L44 44L42 44L42 43L41 43L41 40L42 40L42 41L43 41L43 42L44 42L44 43L47 43L47 44L48 44L48 43L49 43L49 42L48 42L48 43L47 43L47 42L45 42L45 41L48 41L48 40L45 40L45 41L44 41L44 40L43 40L43 38L42 38L42 37L44 37L44 39L48 39L48 38L47 38L47 37L49 37L49 38L50 38L50 37L52 37L52 36L51 36L51 35L50 35L50 36L49 36L49 35L48 35L48 36L47 36L47 33L46 33L46 31L47 31L47 32L49 32L49 31L47 31L47 29L45 29L45 30L44 30L44 31L42 31L42 30L41 30L41 31L40 31L40 32L39 32L39 29L42 29L42 28L41 28L41 27L42 27L42 26L41 26L41 27L40 27L40 28L38 28L38 27L37 27L37 26L39 26L39 25L42 25L42 24L39 24L39 23L40 23L40 22L39 22L39 21L41 21L41 22L42 22L42 23L43 23L43 24L46 24L46 23L45 23L45 22L48 22L48 21L43 21L43 22L42 22L42 21L41 21L41 20L39 20L39 19L40 19L40 18L39 18L39 17L38 17L38 18L37 18L37 20L38 20L38 23L37 23L37 21L33 21L33 20L34 20L34 19L32 19L32 17L33 17L33 18L35 18L35 20L36 20L36 17L35 17L35 16L32 16L32 15L33 15L33 14L34 14L34 15L35 15L35 14L36 14L36 15L37 15L37 14L39 14L39 13L40 13L40 14L41 14L41 13L42 13L42 12L41 12L41 11L42 11L42 10L40 10L40 9L42 9L42 4L41 4L41 3L43 3L43 2L42 2L42 1L41 1L41 3L39 3L39 4L38 4L38 1ZM10 2L10 3L8 3L8 4L11 4L11 3L12 3L12 2ZM27 3L27 4L28 4L28 3ZM21 4L21 6L20 6L20 8L21 8L21 6L22 6L22 7L23 7L23 5L22 5L22 4ZM32 4L32 8L34 8L34 9L35 9L35 10L36 10L36 11L35 11L35 12L34 12L34 13L35 13L35 12L36 12L36 13L38 13L38 12L40 12L40 10L39 10L39 11L38 11L38 12L36 12L36 11L37 11L37 10L38 10L38 9L37 9L37 8L38 8L38 7L39 7L39 8L41 8L41 5L40 5L40 7L39 7L39 6L38 6L38 7L37 7L37 5L38 5L38 4L37 4L37 5L36 5L36 8L34 8L34 7L35 7L35 5L34 5L34 7L33 7L33 4ZM25 5L25 8L28 8L28 5ZM29 5L29 7L30 7L30 5ZM18 6L18 7L19 7L19 6ZM26 6L26 7L27 7L27 6ZM15 7L15 8L16 8L16 7ZM12 8L12 9L11 9L11 11L10 11L10 10L8 10L8 11L7 11L7 10L6 10L6 11L7 11L7 12L6 12L6 13L8 13L8 14L9 14L9 15L10 15L10 16L9 16L9 17L11 17L11 20L10 20L10 18L8 18L8 21L7 21L7 22L5 22L5 23L7 23L7 22L8 22L8 23L10 23L10 24L12 24L12 23L13 23L13 24L14 24L14 23L13 23L13 22L15 22L15 24L17 24L17 25L18 25L18 24L17 24L17 23L18 23L18 22L19 22L19 23L20 23L20 24L21 24L21 23L20 23L20 21L19 21L19 20L17 20L17 18L18 18L18 19L20 19L20 18L19 18L19 17L20 17L20 16L19 16L19 15L20 15L20 13L22 13L22 12L21 12L21 11L23 11L23 12L24 12L24 13L25 13L25 12L26 12L26 11L27 11L27 13L26 13L26 14L28 14L28 13L29 13L29 14L30 14L30 15L28 15L28 16L30 16L30 15L32 15L32 14L31 14L31 13L30 13L30 11L27 11L27 10L26 10L26 11L25 11L25 10L24 10L24 9L23 9L23 10L22 10L22 9L18 9L18 8L17 8L17 9L18 9L18 10L20 10L20 11L17 11L17 12L16 12L16 11L15 11L15 13L12 13L12 9L13 9L13 11L14 11L14 9L13 9L13 8ZM47 8L47 9L48 9L48 8ZM49 8L49 10L47 10L47 11L46 11L46 10L44 10L44 11L45 11L45 12L47 12L47 14L50 14L50 13L49 13L49 12L50 12L50 11L49 11L49 10L50 10L50 8ZM51 8L51 9L52 9L52 8ZM15 9L15 10L16 10L16 9ZM36 9L36 10L37 10L37 9ZM8 11L8 13L9 13L9 12L10 12L10 13L11 13L11 14L10 14L10 15L12 15L12 16L11 16L11 17L12 17L12 18L14 18L14 20L13 20L13 19L12 19L12 20L11 20L11 21L12 21L12 20L13 20L13 21L15 21L15 22L17 22L17 21L15 21L15 20L16 20L16 19L15 19L15 18L16 18L16 17L18 17L18 16L16 16L16 15L18 15L18 14L19 14L19 13L20 13L20 12L19 12L19 13L15 13L15 16L16 16L16 17L12 17L12 16L14 16L14 15L13 15L13 14L12 14L12 13L11 13L11 12L10 12L10 11ZM48 11L48 12L49 12L49 11ZM52 11L52 12L51 12L51 14L52 14L52 12L53 12L53 11ZM0 14L0 15L1 15L1 14ZM4 14L4 15L5 15L5 14ZM6 15L6 16L7 16L7 15ZM0 16L0 17L1 17L1 16ZM31 16L31 17L32 17L32 16ZM0 18L0 19L1 19L1 18ZM3 18L3 19L5 19L5 18ZM21 18L21 19L22 19L22 18ZM24 18L24 19L25 19L25 18ZM27 18L27 19L26 19L26 20L25 20L25 22L26 22L26 24L28 24L28 23L30 23L30 22L28 22L28 21L27 21L27 20L29 20L29 21L30 21L30 20L29 20L29 19L30 19L30 18ZM38 18L38 19L39 19L39 18ZM50 19L50 20L49 20L49 21L50 21L50 20L51 20L51 19ZM9 20L9 21L10 21L10 20ZM0 21L0 22L1 22L1 21ZM26 21L26 22L27 22L27 23L28 23L28 22L27 22L27 21ZM10 22L10 23L12 23L12 22ZM43 22L43 23L44 23L44 22ZM34 23L34 24L33 24L33 25L35 25L35 26L37 26L37 23ZM47 23L47 24L48 24L48 23ZM38 24L38 25L39 25L39 24ZM49 24L49 26L50 26L50 24ZM3 25L3 26L4 26L4 25ZM5 25L5 28L8 28L8 25ZM13 25L13 26L12 26L12 27L13 27L13 26L14 26L14 25ZM15 25L15 26L16 26L16 25ZM25 25L25 28L28 28L28 25ZM45 25L45 28L48 28L48 25ZM6 26L6 27L7 27L7 26ZM19 26L19 27L18 27L18 28L19 28L19 27L20 27L20 26ZM26 26L26 27L27 27L27 26ZM29 26L29 28L30 28L30 26ZM32 26L32 27L33 27L33 26ZM43 26L43 29L44 29L44 26ZM46 26L46 27L47 27L47 26ZM35 27L35 28L34 28L34 29L35 29L35 31L34 31L34 30L33 30L33 33L35 33L35 34L36 34L36 33L37 33L37 34L38 34L38 35L39 35L39 36L42 36L42 35L41 35L41 34L43 34L43 35L44 35L44 37L45 37L45 36L46 36L46 35L44 35L44 33L43 33L43 32L42 32L42 31L41 31L41 33L39 33L39 34L38 34L38 33L37 33L37 32L36 32L36 31L38 31L38 28L36 28L36 27ZM51 28L51 30L53 30L53 28ZM6 29L6 30L7 30L7 29ZM29 30L29 32L31 32L31 33L32 33L32 32L31 32L31 31L30 31L30 30ZM45 30L45 31L44 31L44 32L45 32L45 31L46 31L46 30ZM16 32L16 33L18 33L18 32ZM35 32L35 33L36 33L36 32ZM25 36L25 37L26 37L26 36ZM33 37L33 38L34 38L34 37ZM37 37L37 38L38 38L38 39L40 39L40 40L41 40L41 39L42 39L42 38L41 38L41 37L39 37L39 38L38 38L38 37ZM6 39L6 40L7 40L7 39ZM51 39L51 40L52 40L52 39ZM8 40L8 41L9 41L9 40ZM11 40L11 41L10 41L10 42L9 42L9 44L10 44L10 42L11 42L11 45L13 45L13 43L12 43L12 42L13 42L13 41L12 41L12 40ZM23 40L23 41L26 41L26 40ZM35 40L35 42L33 42L33 41L32 41L32 42L33 42L33 44L34 44L34 45L35 45L35 47L36 47L36 45L39 45L39 46L37 46L37 47L41 47L41 46L40 46L40 45L39 45L39 44L37 44L37 43L40 43L40 42L37 42L37 41L39 41L39 40ZM15 41L15 42L16 42L16 41ZM2 42L2 43L3 43L3 42ZM36 42L36 43L34 43L34 44L36 44L36 43L37 43L37 42ZM22 43L22 44L21 44L21 45L20 45L20 46L19 46L19 48L20 48L20 46L21 46L21 47L22 47L22 46L23 46L23 47L24 47L24 44L23 44L23 43ZM50 43L50 45L49 45L49 47L50 47L50 48L51 48L51 47L50 47L50 45L51 45L51 43ZM6 44L6 45L7 45L7 44ZM14 44L14 45L15 45L15 46L14 46L14 47L12 47L12 49L14 49L14 51L15 51L15 52L16 52L16 51L15 51L15 50L16 50L16 49L18 49L18 48L16 48L16 49L15 49L15 48L14 48L14 47L15 47L15 46L17 46L17 47L18 47L18 45L15 45L15 44ZM25 45L25 48L28 48L28 45ZM45 45L45 48L48 48L48 45ZM26 46L26 47L27 47L27 46ZM46 46L46 47L47 47L47 46ZM23 48L23 49L24 49L24 48ZM26 49L26 50L27 50L27 51L28 51L28 49ZM47 49L47 50L50 50L50 51L49 51L49 52L51 52L51 51L52 51L52 50L51 50L51 49ZM17 50L17 51L19 51L19 50ZM11 51L11 52L12 52L12 53L13 53L13 52L12 52L12 51ZM35 51L35 52L36 52L36 51ZM0 0L0 7L7 7L7 0ZM1 1L1 6L6 6L6 1ZM2 2L2 5L5 5L5 2ZM46 0L46 7L53 7L53 0ZM47 1L47 6L52 6L52 1ZM48 2L48 5L51 5L51 2ZM0 46L0 53L7 53L7 46ZM1 47L1 52L6 52L6 47ZM2 48L2 51L5 51L5 48Z" fill="#000000"/></g></g></svg>
