<?xml version="1.0" encoding="UTF-8"?>
<svg xmlns="http://www.w3.org/2000/svg" version="1.1" width="356" height="356" viewBox="0 0 356 356"><rect x="0" y="0" width="356" height="356" fill="#ffffff"/><g transform="scale(6.717)"><g transform="translate(0,0)"><path fill-rule="evenodd" d="M8 0L8 1L9 1L9 0ZM10 0L10 3L9 3L9 2L8 2L8 5L9 5L9 6L8 6L8 7L9 7L9 8L8 8L8 9L7 9L7 8L6 8L6 9L5 9L5 10L4 10L4 8L0 8L0 9L1 9L1 10L2 10L2 9L3 9L3 11L0 11L0 13L2 13L2 14L3 14L3 16L2 16L2 17L1 17L1 18L0 18L0 20L1 20L1 21L0 21L0 23L1 23L1 25L0 25L0 26L1 26L1 25L2 25L2 26L3 26L3 27L1 27L1 28L0 28L0 30L1 30L1 32L2 32L2 31L3 31L3 32L4 32L4 34L3 34L3 33L0 33L0 34L1 34L1 35L0 35L0 36L1 36L1 35L3 35L3 36L2 36L2 38L1 38L1 37L0 37L0 38L1 38L1 39L0 39L0 40L1 40L1 42L0 42L0 43L1 43L1 44L3 44L3 45L4 45L4 44L3 44L3 43L7 43L7 44L6 44L6 45L7 45L7 44L9 44L9 45L8 45L8 46L11 46L11 48L10 48L10 49L11 49L11 48L12 48L12 49L14 49L14 48L15 48L15 50L14 50L14 51L15 51L15 50L17 50L17 49L16 49L16 48L15 48L15 46L13 46L13 47L12 47L12 46L11 46L11 44L12 44L12 42L13 42L13 44L14 44L14 45L15 45L15 44L14 44L14 43L15 43L15 42L13 42L13 40L14 40L14 41L16 41L16 42L17 42L17 41L16 41L16 40L17 40L17 39L19 39L19 40L18 40L18 41L19 41L19 40L20 40L20 43L17 43L17 45L18 45L18 46L16 46L16 47L17 47L17 48L18 48L18 49L20 49L20 50L21 50L21 51L22 51L22 52L19 52L19 50L18 50L18 51L16 51L16 53L17 53L17 52L19 52L19 53L22 53L22 52L23 52L23 50L21 50L21 49L20 49L20 47L23 47L23 48L22 48L22 49L23 49L23 48L24 48L24 51L25 51L25 52L26 52L26 51L27 51L27 50L28 50L28 51L31 51L31 52L29 52L29 53L31 53L31 52L32 52L32 53L33 53L33 50L34 50L34 53L35 53L35 50L39 50L39 51L40 51L40 52L41 52L41 51L40 51L40 49L38 49L38 46L36 46L36 47L37 47L37 48L35 48L35 47L34 47L34 48L33 48L33 49L32 49L32 48L31 48L31 49L32 49L32 50L29 50L29 49L30 49L30 48L29 48L29 46L30 46L30 47L31 47L31 45L30 45L30 44L33 44L33 45L32 45L32 47L33 47L33 45L34 45L34 44L33 44L33 43L36 43L36 44L35 44L35 45L36 45L36 44L37 44L37 43L40 43L40 42L42 42L42 41L39 41L39 39L40 39L40 40L41 40L41 39L40 39L40 37L39 37L39 36L41 36L41 37L43 37L43 33L44 33L44 38L42 38L42 40L43 40L43 39L44 39L44 40L45 40L45 38L46 38L46 41L47 41L47 43L46 43L46 44L45 44L45 41L44 41L44 42L43 42L43 43L42 43L42 44L39 44L39 45L41 45L41 46L44 46L44 47L43 47L43 48L42 48L42 47L40 47L40 46L39 46L39 48L42 48L42 49L43 49L43 48L44 48L44 50L45 50L45 51L43 51L43 52L45 52L45 51L46 51L46 50L45 50L45 49L47 49L47 51L48 51L48 52L46 52L46 53L48 53L48 52L49 52L49 53L50 53L50 51L48 51L48 50L49 50L49 49L53 49L53 47L52 47L52 46L53 46L53 45L50 45L50 44L51 44L51 42L48 42L48 40L50 40L50 41L52 41L52 42L53 42L53 40L50 40L50 39L47 39L47 37L45 37L45 35L46 35L46 36L49 36L49 35L52 35L52 37L53 37L53 35L52 35L52 31L50 31L50 30L48 30L48 29L49 29L49 28L50 28L50 29L51 29L51 30L52 30L52 29L53 29L53 28L52 28L52 29L51 29L51 28L50 28L50 27L53 27L53 26L49 26L49 24L45 24L45 23L44 23L44 22L43 22L43 21L42 21L42 20L41 20L41 19L39 19L39 20L37 20L37 21L36 21L36 20L35 20L35 17L34 17L34 16L37 16L37 15L38 15L38 17L40 17L40 16L39 16L39 10L41 10L41 11L40 11L40 12L41 12L41 13L42 13L42 10L44 10L44 9L46 9L46 8L43 8L43 3L44 3L44 4L45 4L45 3L44 3L44 1L43 1L43 0L42 0L42 2L43 2L43 3L41 3L41 2L40 2L40 1L41 1L41 0L40 0L40 1L38 1L38 0L35 0L35 1L33 1L33 2L32 2L32 3L33 3L33 4L31 4L31 5L34 5L34 4L35 4L35 6L34 6L34 7L35 7L35 13L37 13L37 14L36 14L36 15L35 15L35 14L34 14L34 13L33 13L33 15L32 15L32 16L30 16L30 15L31 15L31 14L32 14L32 10L33 10L33 9L34 9L34 8L33 8L33 9L30 9L30 8L31 8L31 6L30 6L30 5L29 5L29 2L30 2L30 1L32 1L32 0L29 0L29 2L28 2L28 1L27 1L27 0L22 0L22 1L19 1L19 0L16 0L16 2L15 2L15 1L13 1L13 0ZM11 1L11 5L10 5L10 6L9 6L9 7L10 7L10 6L11 6L11 9L12 9L12 10L10 10L10 9L8 9L8 10L9 10L9 12L10 12L10 11L11 11L11 15L12 15L12 16L10 16L10 13L8 13L8 12L7 12L7 11L6 11L6 10L7 10L7 9L6 9L6 10L5 10L5 13L6 13L6 14L7 14L7 15L5 15L5 14L4 14L4 16L3 16L3 17L2 17L2 18L3 18L3 20L2 20L2 22L1 22L1 23L2 23L2 25L3 25L3 24L8 24L8 23L9 23L9 28L10 28L10 29L6 29L6 30L5 30L5 31L4 31L4 29L3 29L3 31L4 31L4 32L7 32L7 33L6 33L6 34L4 34L4 35L6 35L6 36L7 36L7 37L5 37L5 36L3 36L3 38L2 38L2 39L1 39L1 40L2 40L2 41L3 41L3 42L2 42L2 43L3 43L3 42L5 42L5 41L6 41L6 42L7 42L7 43L10 43L10 44L11 44L11 43L10 43L10 42L11 42L11 41L10 41L10 40L11 40L11 39L12 39L12 38L11 38L11 37L12 37L12 36L13 36L13 35L14 35L14 37L15 37L15 35L16 35L16 36L18 36L18 35L19 35L19 34L21 34L21 35L20 35L20 36L21 36L21 37L22 37L22 38L20 38L20 37L19 37L19 38L20 38L20 40L21 40L21 41L24 41L24 40L26 40L26 39L27 39L27 38L28 38L28 41L27 41L27 42L26 42L26 41L25 41L25 42L22 42L22 44L23 44L23 46L24 46L24 44L26 44L26 43L27 43L27 44L30 44L30 43L28 43L28 41L29 41L29 39L31 39L31 40L32 40L32 39L33 39L33 38L34 38L34 39L35 39L35 40L33 40L33 41L37 41L37 42L39 42L39 41L37 41L37 40L38 40L38 39L39 39L39 38L37 38L37 39L36 39L36 38L35 38L35 36L37 36L37 37L38 37L38 36L37 36L37 34L38 34L38 35L42 35L42 32L43 32L43 31L42 31L42 30L44 30L44 33L47 33L47 32L46 32L46 31L47 31L47 29L42 29L42 27L43 27L43 28L44 28L44 26L43 26L43 24L42 24L42 25L41 25L41 23L42 23L42 21L40 21L40 20L39 20L39 21L38 21L38 22L36 22L36 21L33 21L33 20L34 20L34 19L33 19L33 20L32 20L32 18L31 18L31 17L30 17L30 19L31 19L31 21L32 21L32 23L34 23L34 24L35 24L35 23L36 23L36 24L38 24L38 22L39 22L39 23L40 23L40 25L39 25L39 26L38 26L38 27L39 27L39 28L37 28L37 27L36 27L36 26L37 26L37 25L34 25L34 26L35 26L35 27L36 27L36 30L33 30L33 29L30 29L30 27L31 27L31 28L34 28L34 29L35 29L35 28L34 28L34 27L31 27L31 25L30 25L30 24L31 24L31 23L29 23L29 21L30 21L30 20L28 20L28 19L29 19L29 18L27 18L27 17L25 17L25 16L21 16L21 17L20 17L20 19L19 19L19 20L18 20L18 21L19 21L19 20L20 20L20 22L21 22L21 23L22 23L22 22L23 22L23 23L24 23L24 24L22 24L22 25L21 25L21 24L18 24L18 22L17 22L17 20L14 20L14 21L15 21L15 23L14 23L14 22L13 22L13 20L12 20L12 19L11 19L11 18L8 18L8 16L10 16L10 17L13 17L13 16L14 16L14 19L15 19L15 17L16 17L16 18L17 18L17 19L18 19L18 18L19 18L19 16L20 16L20 15L25 15L25 14L26 14L26 16L27 16L27 14L28 14L28 13L29 13L29 15L28 15L28 17L29 17L29 15L30 15L30 14L31 14L31 12L30 12L30 11L29 11L29 9L28 9L28 11L27 11L27 9L26 9L26 11L25 11L25 9L24 9L24 12L23 12L23 9L22 9L22 10L19 10L19 11L18 11L18 12L19 12L19 13L20 13L20 11L21 11L21 14L17 14L17 13L16 13L16 14L17 14L17 15L19 15L19 16L18 16L18 18L17 18L17 16L16 16L16 15L15 15L15 16L14 16L14 14L15 14L15 12L16 12L16 11L17 11L17 10L18 10L18 9L16 9L16 11L15 11L15 12L13 12L13 13L14 13L14 14L13 14L13 15L12 15L12 10L13 10L13 11L14 11L14 10L15 10L15 8L17 8L17 7L18 7L18 6L17 6L17 4L16 4L16 3L17 3L17 2L19 2L19 1L17 1L17 2L16 2L16 3L15 3L15 2L14 2L14 3L13 3L13 2L12 2L12 1ZM22 1L22 2L20 2L20 3L21 3L21 4L22 4L22 5L19 5L19 8L20 8L20 9L21 9L21 7L22 7L22 8L24 8L24 3L22 3L22 2L23 2L23 1ZM37 1L37 2L36 2L36 3L39 3L39 4L40 4L40 6L39 6L39 5L37 5L37 4L36 4L36 6L35 6L35 7L36 7L36 12L37 12L37 13L38 13L38 12L37 12L37 11L38 11L38 10L39 10L39 9L38 9L38 10L37 10L37 7L38 7L38 8L39 8L39 7L40 7L40 8L41 8L41 9L42 9L42 8L41 8L41 7L42 7L42 6L41 6L41 3L39 3L39 2L38 2L38 1ZM26 2L26 3L28 3L28 2ZM33 2L33 3L35 3L35 2ZM12 4L12 5L11 5L11 6L12 6L12 9L13 9L13 10L14 10L14 8L15 8L15 6L14 6L14 4ZM12 5L12 6L13 6L13 7L14 7L14 6L13 6L13 5ZM25 5L25 8L28 8L28 5ZM16 6L16 7L17 7L17 6ZM20 6L20 7L21 7L21 6ZM22 6L22 7L23 7L23 6ZM26 6L26 7L27 7L27 6ZM29 6L29 8L30 8L30 6ZM32 6L32 7L33 7L33 6ZM36 6L36 7L37 7L37 6ZM38 6L38 7L39 7L39 6ZM40 6L40 7L41 7L41 6ZM44 6L44 7L45 7L45 6ZM48 8L48 9L50 9L50 10L51 10L51 13L49 13L49 11L48 11L48 12L46 12L46 13L44 13L44 11L43 11L43 15L42 15L42 16L41 16L41 18L42 18L42 19L43 19L43 20L44 20L44 21L48 21L48 19L47 19L47 18L48 18L48 14L49 14L49 15L50 15L50 14L51 14L51 15L53 15L53 13L52 13L52 10L51 10L51 8ZM52 8L52 9L53 9L53 8ZM28 11L28 12L29 12L29 11ZM33 11L33 12L34 12L34 11ZM6 12L6 13L7 13L7 14L8 14L8 15L7 15L7 16L6 16L6 17L7 17L7 16L8 16L8 15L9 15L9 14L8 14L8 13L7 13L7 12ZM24 12L24 14L25 14L25 13L26 13L26 14L27 14L27 13L26 13L26 12ZM46 13L46 14L44 14L44 15L43 15L43 16L45 16L45 15L46 15L46 14L47 14L47 13ZM51 13L51 14L52 14L52 13ZM0 14L0 15L1 15L1 14ZM40 14L40 15L41 15L41 14ZM4 16L4 18L5 18L5 19L4 19L4 20L5 20L5 19L7 19L7 20L6 20L6 21L7 21L7 22L6 22L6 23L7 23L7 22L10 22L10 24L11 24L11 25L12 25L12 22L10 22L10 21L12 21L12 20L10 20L10 21L9 21L9 19L8 19L8 18L5 18L5 16ZM46 16L46 17L47 17L47 16ZM52 16L52 18L53 18L53 16ZM21 17L21 19L20 19L20 20L21 20L21 22L22 22L22 21L23 21L23 22L24 22L24 23L28 23L28 22L27 22L27 21L26 21L26 20L27 20L27 19L26 19L26 18L25 18L25 20L24 20L24 21L23 21L23 20L22 20L22 19L23 19L23 18L24 18L24 17L23 17L23 18L22 18L22 17ZM42 17L42 18L43 18L43 19L44 19L44 18L45 18L45 17ZM36 18L36 19L37 19L37 18ZM50 18L50 19L49 19L49 22L46 22L46 23L51 23L51 24L50 24L50 25L53 25L53 23L52 23L52 22L51 22L51 18ZM52 19L52 21L53 21L53 19ZM7 20L7 21L8 21L8 20ZM3 21L3 22L2 22L2 23L3 23L3 22L4 22L4 23L5 23L5 21ZM25 21L25 22L26 22L26 21ZM16 22L16 23L17 23L17 22ZM34 22L34 23L35 23L35 22ZM17 24L17 26L15 26L15 25L13 25L13 27L14 27L14 30L12 30L12 29L13 29L13 28L12 28L12 27L11 27L11 26L10 26L10 28L11 28L11 29L10 29L10 31L11 31L11 32L12 32L12 31L15 31L15 30L17 30L17 28L18 28L18 24ZM24 24L24 28L23 28L23 29L24 29L24 31L26 31L26 32L28 32L28 33L27 33L27 35L25 35L25 37L24 37L24 34L23 34L23 37L24 37L24 39L25 39L25 37L26 37L26 36L27 36L27 37L28 37L28 36L29 36L29 35L28 35L28 33L29 33L29 34L31 34L31 35L32 35L32 36L33 36L33 35L32 35L32 34L31 34L31 31L30 31L30 30L29 30L29 24ZM32 24L32 25L33 25L33 24ZM5 25L5 28L8 28L8 25ZM19 25L19 30L18 30L18 31L19 31L19 30L20 30L20 28L21 28L21 27L22 27L22 26L20 26L20 25ZM25 25L25 28L28 28L28 25ZM45 25L45 28L48 28L48 25ZM6 26L6 27L7 27L7 26ZM14 26L14 27L15 27L15 26ZM26 26L26 27L27 27L27 26ZM40 26L40 27L42 27L42 26ZM46 26L46 27L47 27L47 26ZM16 27L16 28L15 28L15 29L16 29L16 28L17 28L17 27ZM39 28L39 29L40 29L40 30L42 30L42 29L40 29L40 28ZM1 29L1 30L2 30L2 29ZM21 29L21 30L22 30L22 32L21 32L21 31L20 31L20 32L21 32L21 34L22 34L22 32L23 32L23 33L24 33L24 32L23 32L23 30L22 30L22 29ZM25 29L25 30L26 30L26 31L28 31L28 32L29 32L29 33L30 33L30 31L29 31L29 30L26 30L26 29ZM6 30L6 31L9 31L9 30ZM11 30L11 31L12 31L12 30ZM37 30L37 31L36 31L36 32L39 32L39 34L40 34L40 33L41 33L41 31L39 31L39 30ZM16 31L16 35L17 35L17 34L19 34L19 33L17 33L17 31ZM32 31L32 32L33 32L33 31ZM34 31L34 32L35 32L35 31ZM14 32L14 33L15 33L15 32ZM49 32L49 33L50 33L50 32ZM7 33L7 34L6 34L6 35L7 35L7 34L8 34L8 37L7 37L7 38L5 38L5 37L4 37L4 38L3 38L3 39L2 39L2 40L3 40L3 41L4 41L4 40L3 40L3 39L8 39L8 40L9 40L9 39L10 39L10 38L9 38L9 35L12 35L12 33L11 33L11 34L10 34L10 33L9 33L9 34L8 34L8 33ZM35 33L35 34L34 34L34 35L36 35L36 33ZM14 34L14 35L15 35L15 34ZM46 34L46 35L49 35L49 34ZM30 36L30 37L31 37L31 38L33 38L33 37L31 37L31 36ZM16 37L16 39L15 39L15 38L14 38L14 40L16 40L16 39L17 39L17 37ZM22 38L22 39L23 39L23 38ZM51 38L51 39L53 39L53 38ZM6 40L6 41L7 41L7 42L9 42L9 41L7 41L7 40ZM30 41L30 42L31 42L31 41ZM25 42L25 43L26 43L26 42ZM32 42L32 43L33 43L33 42ZM20 43L20 44L18 44L18 45L20 45L20 46L22 46L22 45L21 45L21 43ZM52 43L52 44L53 44L53 43ZM42 44L42 45L43 45L43 44ZM25 45L25 48L28 48L28 45ZM45 45L45 48L48 48L48 45ZM49 45L49 48L51 48L51 46L50 46L50 45ZM18 46L18 48L19 48L19 46ZM26 46L26 47L27 47L27 46ZM46 46L46 47L47 47L47 46ZM8 49L8 53L10 53L10 52L12 52L12 53L13 53L13 51L9 51L9 49ZM34 49L34 50L35 50L35 49ZM51 50L51 53L52 53L52 50ZM36 51L36 52L37 52L37 53L39 53L39 52L37 52L37 51ZM14 52L14 53L15 53L15 52ZM27 52L27 53L28 53L28 52ZM0 0L0 7L7 7L7 0ZM1 1L1 6L6 6L6 1ZM2 2L2 5L5 5L5 2ZM46 0L46 7L53 7L53 0ZM47 1L47 6L52 6L52 1ZM48 2L48 5L51 5L51 2ZM0 46L0 53L7 53L7 46ZM1 47L1 52L6 52L6 47ZM2 48L2 51L5 51L5 48Z" fill="#000000"/></g></g></svg>
