<?xml version="1.0" encoding="UTF-8"?>
<svg xmlns="http://www.w3.org/2000/svg" version="1.1" width="356" height="356" viewBox="0 0 356 356"><rect x="0" y="0" width="356" height="356" fill="#ffffff"/><g transform="scale(6.717)"><g transform="translate(0,0)"><path fill-rule="evenodd" d="M8 0L8 4L10 4L10 2L11 2L11 3L13 3L13 2L14 2L14 1L16 1L16 2L18 2L18 3L19 3L19 4L20 4L20 8L19 8L19 6L18 6L18 5L16 5L16 7L15 7L15 5L13 5L13 4L11 4L11 5L8 5L8 7L9 7L9 6L10 6L10 7L11 7L11 6L12 6L12 7L13 7L13 8L12 8L12 9L10 9L10 10L9 10L9 9L8 9L8 10L6 10L6 9L7 9L7 8L4 8L4 9L3 9L3 11L1 11L1 10L2 10L2 8L0 8L0 9L1 9L1 10L0 10L0 11L1 11L1 12L2 12L2 14L1 14L1 13L0 13L0 14L1 14L1 15L2 15L2 14L5 14L5 15L4 15L4 16L3 16L3 17L2 17L2 18L3 18L3 19L5 19L5 18L6 18L6 19L7 19L7 18L6 18L6 17L7 17L7 16L8 16L8 15L7 15L7 14L8 14L8 13L9 13L9 17L8 17L8 18L9 18L9 19L8 19L8 20L6 20L6 21L7 21L7 22L6 22L6 23L7 23L7 24L5 24L5 23L4 23L4 25L3 25L3 26L4 26L4 28L3 28L3 29L1 29L1 30L0 30L0 31L1 31L1 32L0 32L0 39L1 39L1 40L0 40L0 43L1 43L1 44L3 44L3 45L4 45L4 44L3 44L3 43L7 43L7 44L6 44L6 45L8 45L8 46L10 46L10 48L9 48L9 47L8 47L8 49L9 49L9 51L8 51L8 53L10 53L10 52L9 52L9 51L11 51L11 49L10 49L10 48L12 48L12 47L13 47L13 49L12 49L12 50L13 50L13 49L15 49L15 50L14 50L14 51L13 51L13 52L12 52L12 53L14 53L14 51L16 51L16 50L17 50L17 51L20 51L20 50L21 50L21 49L23 49L23 50L22 50L22 51L23 51L23 53L25 53L25 52L27 52L27 53L28 53L28 51L27 51L27 49L29 49L29 51L31 51L31 50L32 50L32 51L33 51L33 52L32 52L32 53L33 53L33 52L34 52L34 53L37 53L37 52L38 52L38 53L39 53L39 51L41 51L41 50L43 50L43 51L44 51L44 52L41 52L41 53L44 53L44 52L45 52L45 53L46 53L46 52L48 52L48 53L49 53L49 52L50 52L50 49L49 49L49 48L50 48L50 47L51 47L51 46L52 46L52 47L53 47L53 46L52 46L52 45L53 45L53 44L52 44L52 43L53 43L53 42L52 42L52 43L51 43L51 41L52 41L52 40L53 40L53 34L52 34L52 35L51 35L51 34L50 34L50 33L49 33L49 32L50 32L50 30L51 30L51 31L53 31L53 26L52 26L52 29L51 29L51 28L50 28L50 26L51 26L51 25L50 25L50 22L49 22L49 19L51 19L51 20L52 20L52 19L53 19L53 18L52 18L52 19L51 19L51 17L53 17L53 16L51 16L51 17L50 17L50 16L49 16L49 15L48 15L48 13L50 13L50 14L51 14L51 13L50 13L50 11L48 11L48 13L47 13L47 14L46 14L46 12L47 12L47 10L46 10L46 9L44 9L44 8L45 8L45 6L44 6L44 8L43 8L43 3L44 3L44 4L45 4L45 3L44 3L44 1L43 1L43 0L40 0L40 4L38 4L38 5L37 5L37 4L36 4L36 5L34 5L34 4L35 4L35 3L36 3L36 2L35 2L35 1L37 1L37 0L35 0L35 1L34 1L34 0L32 0L32 1L31 1L31 0L26 0L26 2L27 2L27 3L25 3L25 0L23 0L23 2L24 2L24 3L22 3L22 1L21 1L21 0L11 0L11 1L9 1L9 0ZM38 0L38 2L37 2L37 3L38 3L38 2L39 2L39 0ZM12 1L12 2L13 2L13 1ZM19 1L19 3L21 3L21 4L22 4L22 5L21 5L21 8L22 8L22 9L19 9L19 8L18 8L18 9L17 9L17 8L16 8L16 9L15 9L15 10L14 10L14 9L12 9L12 10L13 10L13 11L14 11L14 12L15 12L15 13L13 13L13 14L15 14L15 16L14 16L14 15L13 15L13 17L18 17L18 16L19 16L19 17L20 17L20 15L21 15L21 14L20 14L20 13L21 13L21 12L22 12L22 13L23 13L23 14L22 14L22 16L21 16L21 17L23 17L23 19L22 19L22 18L20 18L20 19L19 19L19 18L18 18L18 19L19 19L19 20L21 20L21 19L22 19L22 21L21 21L21 22L20 22L20 21L19 21L19 22L20 22L20 23L19 23L19 24L18 24L18 25L17 25L17 23L18 23L18 22L17 22L17 21L16 21L16 20L17 20L17 18L16 18L16 19L15 19L15 18L14 18L14 20L15 20L15 21L12 21L12 20L11 20L11 19L12 19L12 16L11 16L11 18L10 18L10 17L9 17L9 18L10 18L10 20L8 20L8 23L9 23L9 21L10 21L10 22L13 22L13 23L10 23L10 24L9 24L9 28L10 28L10 29L11 29L11 30L10 30L10 31L9 31L9 29L3 29L3 30L1 30L1 31L3 31L3 33L2 33L2 32L1 32L1 33L2 33L2 34L3 34L3 36L1 36L1 37L2 37L2 38L1 38L1 39L2 39L2 40L1 40L1 42L2 42L2 43L3 43L3 42L2 42L2 41L3 41L3 40L4 40L4 39L5 39L5 38L4 38L4 34L5 34L5 37L6 37L6 38L7 38L7 39L6 39L6 40L5 40L5 41L4 41L4 42L7 42L7 43L8 43L8 44L9 44L9 45L10 45L10 46L11 46L11 47L12 47L12 46L13 46L13 47L15 47L15 46L13 46L13 45L10 45L10 44L9 44L9 43L10 43L10 41L11 41L11 42L14 42L14 44L15 44L15 45L16 45L16 48L15 48L15 49L18 49L18 48L19 48L19 49L20 49L20 48L21 48L21 47L22 47L22 48L23 48L23 49L24 49L24 47L23 47L23 44L24 44L24 43L22 43L22 42L25 42L25 44L26 44L26 43L27 43L27 44L28 44L28 43L29 43L29 45L32 45L32 43L33 43L33 44L34 44L34 46L32 46L32 48L31 48L31 49L32 49L32 48L33 48L33 49L34 49L34 50L35 50L35 49L34 49L34 48L33 48L33 47L34 47L34 46L35 46L35 48L37 48L37 47L38 47L38 45L39 45L39 44L38 44L38 43L39 43L39 42L38 42L38 41L39 41L39 39L40 39L40 41L42 41L42 40L41 40L41 39L45 39L45 42L44 42L44 41L43 41L43 42L44 42L44 43L41 43L41 44L40 44L40 45L41 45L41 44L42 44L42 45L43 45L43 46L41 46L41 47L40 47L40 49L39 49L39 48L38 48L38 49L37 49L37 50L36 50L36 52L37 52L37 51L38 51L38 49L39 49L39 50L41 50L41 49L42 49L42 48L43 48L43 47L44 47L44 45L43 45L43 44L44 44L44 43L46 43L46 44L49 44L49 45L50 45L50 46L49 46L49 47L50 47L50 46L51 46L51 45L52 45L52 44L51 44L51 43L50 43L50 44L49 44L49 43L48 43L48 42L47 42L47 43L46 43L46 40L49 40L49 38L48 38L48 39L45 39L45 38L46 38L46 37L49 37L49 36L46 36L46 34L45 34L45 36L44 36L44 35L43 35L43 34L44 34L44 33L43 33L43 32L44 32L44 31L45 31L45 32L46 32L46 33L47 33L47 32L46 32L46 30L47 30L47 31L49 31L49 30L50 30L50 28L49 28L49 30L47 30L47 29L46 29L46 30L45 30L45 29L43 29L43 30L42 30L42 31L40 31L40 30L41 30L41 28L40 28L40 27L42 27L42 28L44 28L44 27L43 27L43 26L41 26L41 24L42 24L42 25L44 25L44 24L47 24L47 23L48 23L48 24L49 24L49 22L48 22L48 21L47 21L47 17L48 17L48 15L46 15L46 19L43 19L43 18L44 18L44 12L46 12L46 11L45 11L45 10L44 10L44 9L43 9L43 8L41 8L41 7L42 7L42 6L41 6L41 7L40 7L40 6L39 6L39 5L38 5L38 6L37 6L37 7L36 7L36 6L35 6L35 7L36 7L36 8L38 8L38 9L36 9L36 12L37 12L37 13L34 13L34 12L35 12L35 11L34 11L34 12L33 12L33 13L34 13L34 14L35 14L35 15L34 15L34 19L32 19L32 18L33 18L33 17L32 17L32 15L33 15L33 14L32 14L32 15L31 15L31 14L29 14L29 15L28 15L28 13L32 13L32 11L31 11L31 10L33 10L33 9L32 9L32 5L33 5L33 4L34 4L34 3L35 3L35 2L34 2L34 3L31 3L31 1L28 1L28 2L29 2L29 3L30 3L30 4L31 4L31 7L30 7L30 6L29 6L29 7L30 7L30 9L31 9L31 10L29 10L29 9L28 9L28 10L26 10L26 9L25 9L25 10L24 10L24 11L23 11L23 9L24 9L24 8L23 8L23 7L24 7L24 5L23 5L23 4L22 4L22 3L21 3L21 2L20 2L20 1ZM32 1L32 2L33 2L33 1ZM41 1L41 2L42 2L42 3L41 3L41 4L40 4L40 5L42 5L42 3L43 3L43 2L42 2L42 1ZM24 3L24 4L25 4L25 3ZM27 3L27 4L28 4L28 3ZM12 5L12 6L13 6L13 7L14 7L14 8L15 8L15 7L14 7L14 6L13 6L13 5ZM25 5L25 8L28 8L28 5ZM17 6L17 7L18 7L18 6ZM22 6L22 7L23 7L23 6ZM26 6L26 7L27 7L27 6ZM33 6L33 7L34 7L34 6ZM38 6L38 8L39 8L39 9L38 9L38 10L37 10L37 11L39 11L39 13L37 13L37 14L36 14L36 15L39 15L39 16L38 16L38 18L37 18L37 16L35 16L35 17L36 17L36 18L35 18L35 20L32 20L32 19L31 19L31 18L32 18L32 17L31 17L31 15L29 15L29 16L28 16L28 17L27 17L27 16L26 16L26 15L27 15L27 13L28 13L28 12L27 12L27 13L26 13L26 10L25 10L25 14L23 14L23 15L25 15L25 17L24 17L24 19L25 19L25 20L23 20L23 21L22 21L22 22L21 22L21 23L20 23L20 24L19 24L19 25L18 25L18 26L19 26L19 25L21 25L21 23L22 23L22 24L23 24L23 23L24 23L24 22L25 22L25 20L26 20L26 21L27 21L27 20L26 20L26 19L25 19L25 17L26 17L26 18L28 18L28 23L27 23L27 22L26 22L26 23L25 23L25 24L24 24L24 27L23 27L23 26L22 26L22 28L21 28L21 26L20 26L20 27L18 27L18 28L17 28L17 26L16 26L16 27L14 27L14 28L13 28L13 27L12 27L12 26L13 26L13 25L14 25L14 26L15 26L15 25L16 25L16 21L15 21L15 24L14 24L14 23L13 23L13 24L12 24L12 26L11 26L11 28L13 28L13 29L12 29L12 30L11 30L11 32L10 32L10 34L8 34L8 33L7 33L7 32L6 32L6 31L7 31L7 30L6 30L6 31L5 31L5 30L4 30L4 31L5 31L5 32L6 32L6 33L5 33L5 34L6 34L6 35L7 35L7 36L6 36L6 37L7 37L7 38L8 38L8 39L7 39L7 40L6 40L6 41L7 41L7 42L8 42L8 41L9 41L9 40L8 40L8 39L10 39L10 37L11 37L11 36L12 36L12 37L13 37L13 38L11 38L11 41L14 41L14 42L15 42L15 41L16 41L16 40L14 40L14 39L13 39L13 38L16 38L16 37L19 37L19 38L18 38L18 39L17 39L17 41L18 41L18 42L16 42L16 43L15 43L15 44L16 44L16 45L18 45L18 46L17 46L17 47L18 47L18 46L19 46L19 44L21 44L21 45L20 45L20 46L21 46L21 45L22 45L22 43L21 43L21 42L22 42L22 41L21 41L21 39L22 39L22 40L23 40L23 41L25 41L25 42L27 42L27 43L28 43L28 41L29 41L29 43L30 43L30 44L31 44L31 43L32 43L32 41L33 41L33 43L34 43L34 44L35 44L35 45L38 45L38 44L37 44L37 43L34 43L34 41L33 41L33 40L34 40L34 39L33 39L33 38L32 38L32 41L29 41L29 40L30 40L30 38L31 38L31 37L37 37L37 36L38 36L38 38L44 38L44 36L43 36L43 35L42 35L42 36L41 36L41 35L40 35L40 36L39 36L39 35L38 35L38 34L40 34L40 31L39 31L39 29L40 29L40 28L39 28L39 25L40 25L40 24L41 24L41 22L40 22L40 21L38 21L38 20L36 20L36 18L37 18L37 19L38 19L38 18L40 18L40 19L41 19L41 18L43 18L43 17L40 17L40 16L43 16L43 15L42 15L42 14L43 14L43 13L42 13L42 12L41 12L41 11L42 11L42 10L43 10L43 11L44 11L44 10L43 10L43 9L41 9L41 11L39 11L39 10L40 10L40 8L39 8L39 6ZM47 8L47 9L48 9L48 8ZM49 8L49 9L50 9L50 10L52 10L52 11L53 11L53 10L52 10L52 9L53 9L53 8ZM18 9L18 10L16 10L16 11L15 11L15 12L16 12L16 13L15 13L15 14L16 14L16 15L18 15L18 14L16 14L16 13L20 13L20 12L21 12L21 11L22 11L22 12L23 12L23 11L22 11L22 10L20 10L20 11L19 11L19 9ZM34 9L34 10L35 10L35 9ZM4 10L4 11L3 11L3 12L4 12L4 11L5 11L5 12L7 12L7 13L6 13L6 14L7 14L7 13L8 13L8 12L7 12L7 11L5 11L5 10ZM8 10L8 11L9 11L9 10ZM28 10L28 11L29 11L29 12L31 12L31 11L29 11L29 10ZM11 11L11 12L12 12L12 11ZM17 11L17 12L19 12L19 11ZM40 12L40 14L39 14L39 15L40 15L40 14L41 14L41 12ZM10 13L10 14L12 14L12 13ZM19 14L19 15L20 15L20 14ZM52 14L52 15L53 15L53 14ZM6 15L6 16L7 16L7 15ZM4 16L4 17L3 17L3 18L5 18L5 16ZM29 16L29 17L28 17L28 18L29 18L29 17L30 17L30 16ZM49 17L49 18L50 18L50 17ZM0 18L0 20L2 20L2 19L1 19L1 18ZM29 19L29 21L30 21L30 20L31 20L31 23L28 23L28 24L29 24L29 25L30 25L30 24L31 24L31 26L30 26L30 29L32 29L32 30L31 30L31 31L30 31L30 30L29 30L29 29L28 29L28 30L27 30L27 29L23 29L23 28L22 28L22 29L21 29L21 28L19 28L19 29L21 29L21 30L18 30L18 29L16 29L16 28L15 28L15 29L13 29L13 30L15 30L15 31L16 31L16 32L14 32L14 31L12 31L12 33L11 33L11 34L12 34L12 35L13 35L13 37L14 37L14 36L15 36L15 37L16 37L16 36L17 36L17 35L19 35L19 37L21 37L21 35L22 35L22 34L23 34L23 33L21 33L21 34L20 34L20 35L19 35L19 34L16 34L16 35L15 35L15 34L12 34L12 33L18 33L18 32L19 32L19 33L20 33L20 32L21 32L21 31L22 31L22 32L25 32L25 33L24 33L24 35L23 35L23 36L22 36L22 38L23 38L23 37L24 37L24 38L25 38L25 37L26 37L26 34L27 34L27 36L28 36L28 37L31 37L31 36L28 36L28 34L29 34L29 35L31 35L31 34L29 34L29 33L32 33L32 32L33 32L33 33L34 33L34 35L35 35L35 36L37 36L37 34L38 34L38 33L39 33L39 32L38 32L38 27L37 27L37 30L36 30L36 31L35 31L35 28L36 28L36 27L35 27L35 28L34 28L34 26L35 26L35 25L34 25L34 24L37 24L37 26L38 26L38 23L39 23L39 24L40 24L40 23L39 23L39 22L38 22L38 21L37 21L37 22L38 22L38 23L34 23L34 22L36 22L36 21L34 21L34 22L33 22L33 25L34 25L34 26L33 26L33 27L32 27L32 20L31 20L31 19ZM3 20L3 22L4 22L4 20ZM10 20L10 21L11 21L11 20ZM41 20L41 21L42 21L42 23L43 23L43 24L44 24L44 22L45 22L45 23L47 23L47 22L46 22L46 20L45 20L45 21L44 21L44 22L43 22L43 20ZM1 21L1 22L0 22L0 23L1 23L1 22L2 22L2 21ZM22 22L22 23L23 23L23 22ZM52 22L52 23L51 23L51 24L53 24L53 22ZM2 23L2 24L0 24L0 27L1 27L1 28L2 28L2 27L1 27L1 25L2 25L2 24L3 24L3 23ZM26 23L26 24L27 24L27 23ZM5 25L5 28L8 28L8 25ZM25 25L25 28L28 28L28 25ZM45 25L45 28L48 28L48 25ZM49 25L49 26L50 26L50 25ZM6 26L6 27L7 27L7 26ZM26 26L26 27L27 27L27 26ZM46 26L46 27L47 27L47 26ZM31 27L31 28L32 28L32 29L33 29L33 32L34 32L34 33L35 33L35 34L37 34L37 33L38 33L38 32L37 32L37 31L36 31L36 33L35 33L35 32L34 32L34 29L33 29L33 28L32 28L32 27ZM15 29L15 30L16 30L16 31L18 31L18 30L16 30L16 29ZM23 30L23 31L24 31L24 30ZM25 30L25 32L26 32L26 33L25 33L25 34L26 34L26 33L28 33L28 32L29 32L29 30L28 30L28 32L26 32L26 30ZM8 31L8 32L9 32L9 31ZM41 32L41 34L43 34L43 33L42 33L42 32ZM52 32L52 33L53 33L53 32ZM3 33L3 34L4 34L4 33ZM6 33L6 34L7 34L7 33ZM49 34L49 35L50 35L50 36L51 36L51 35L50 35L50 34ZM9 35L9 37L8 37L8 36L7 36L7 37L8 37L8 38L9 38L9 37L10 37L10 36L11 36L11 35ZM24 35L24 37L25 37L25 35ZM40 36L40 37L41 37L41 36ZM42 36L42 37L43 37L43 36ZM45 36L45 37L46 37L46 36ZM50 37L50 40L51 40L51 39L52 39L52 37ZM19 38L19 40L18 40L18 41L19 41L19 43L20 43L20 42L21 42L21 41L19 41L19 40L20 40L20 38ZM27 38L27 39L24 39L24 40L25 40L25 41L26 41L26 40L27 40L27 39L29 39L29 38ZM35 38L35 42L37 42L37 41L38 41L38 40L36 40L36 39L37 39L37 38ZM49 41L49 42L50 42L50 41ZM30 42L30 43L31 43L31 42ZM50 44L50 45L51 45L51 44ZM25 45L25 48L28 48L28 45ZM45 45L45 48L48 48L48 45ZM26 46L26 47L27 47L27 46ZM30 46L30 47L31 47L31 46ZM36 46L36 47L37 47L37 46ZM46 46L46 47L47 47L47 46ZM19 47L19 48L20 48L20 47ZM29 48L29 49L30 49L30 48ZM51 48L51 49L53 49L53 48ZM25 49L25 51L24 51L24 52L25 52L25 51L26 51L26 49ZM43 49L43 50L44 50L44 51L45 51L45 52L46 52L46 51L48 51L48 52L49 52L49 49L46 49L46 51L45 51L45 50L44 50L44 49ZM34 51L34 52L35 52L35 51ZM51 51L51 53L52 53L52 52L53 52L53 51ZM16 52L16 53L20 53L20 52ZM21 52L21 53L22 53L22 52ZM30 52L30 53L31 53L31 52ZM0 0L0 7L7 7L7 0ZM1 1L1 6L6 6L6 1ZM2 2L2 5L5 5L5 2ZM46 0L46 7L53 7L53 0ZM47 1L47 6L52 6L52 1ZM48 2L48 5L51 5L51 2ZM0 46L0 53L7 53L7 46ZM1 47L1 52L6 52L6 47ZM2 48L2 51L5 51L5 48Z" fill="#000000"/></g></g></svg>
