<?xml version="1.0" encoding="UTF-8"?>
<svg xmlns="http://www.w3.org/2000/svg" version="1.1" width="356" height="356" viewBox="0 0 356 356"><rect x="0" y="0" width="356" height="356" fill="#ffffff"/><g transform="scale(6.717)"><g transform="translate(0,0)"><path fill-rule="evenodd" d="M8 0L8 2L9 2L9 4L8 4L8 10L6 10L6 9L7 9L7 8L5 8L5 9L4 9L4 10L6 10L6 11L7 11L7 12L5 12L5 11L4 11L4 12L2 12L2 13L0 13L0 14L1 14L1 15L0 15L0 18L2 18L2 19L3 19L3 23L2 23L2 20L1 20L1 19L0 19L0 21L1 21L1 23L2 23L2 24L0 24L0 25L3 25L3 23L5 23L5 22L4 22L4 20L6 20L6 21L7 21L7 20L6 20L6 19L8 19L8 20L9 20L9 21L11 21L11 22L6 22L6 23L7 23L7 24L4 24L4 26L3 26L3 28L4 28L4 29L1 29L1 31L0 31L0 32L4 32L4 33L5 33L5 32L6 32L6 33L7 33L7 34L6 34L6 35L7 35L7 36L5 36L5 34L4 34L4 35L2 35L2 34L1 34L1 33L0 33L0 34L1 34L1 35L0 35L0 36L1 36L1 37L3 37L3 39L4 39L4 40L5 40L5 41L4 41L4 42L3 42L3 43L2 43L2 42L0 42L0 43L1 43L1 44L3 44L3 45L4 45L4 44L3 44L3 43L7 43L7 42L6 42L6 41L7 41L7 40L6 40L6 39L7 39L7 38L8 38L8 39L9 39L9 38L10 38L10 39L13 39L13 44L12 44L12 43L11 43L11 42L9 42L9 41L10 41L10 40L8 40L8 44L9 44L9 45L8 45L8 46L9 46L9 47L8 47L8 48L9 48L9 50L8 50L8 53L9 53L9 52L10 52L10 53L12 53L12 52L11 52L11 51L12 51L12 50L13 50L13 51L14 51L14 50L15 50L15 52L14 52L14 53L16 53L16 52L18 52L18 53L19 53L19 52L18 52L18 49L19 49L19 48L18 48L18 47L19 47L19 46L20 46L20 47L21 47L21 46L22 46L22 45L24 45L24 46L23 46L23 47L22 47L22 48L23 48L23 50L22 50L22 51L21 51L21 50L20 50L20 51L21 51L21 52L20 52L20 53L21 53L21 52L22 52L22 53L23 53L23 52L24 52L24 53L25 53L25 52L24 52L24 51L25 51L25 50L26 50L26 49L29 49L29 50L30 50L30 49L31 49L31 48L32 48L32 49L33 49L33 51L32 51L32 50L31 50L31 51L32 51L32 53L33 53L33 52L34 52L34 53L35 53L35 51L36 51L36 50L38 50L38 51L37 51L37 52L36 52L36 53L39 53L39 52L38 52L38 51L39 51L39 50L38 50L38 47L35 47L35 46L37 46L37 44L36 44L36 45L35 45L35 46L34 46L34 44L33 44L33 43L34 43L34 41L35 41L35 39L34 39L34 40L33 40L33 39L32 39L32 38L30 38L30 36L28 36L28 35L30 35L30 33L31 33L31 31L30 31L30 32L28 32L28 31L29 31L29 28L30 28L30 29L31 29L31 27L32 27L32 25L33 25L33 26L34 26L34 27L36 27L36 30L34 30L34 28L32 28L32 29L33 29L33 31L34 31L34 32L32 32L32 33L33 33L33 35L32 35L32 37L33 37L33 35L34 35L34 37L35 37L35 36L36 36L36 37L37 37L37 38L36 38L36 42L35 42L35 43L38 43L38 44L39 44L39 42L38 42L38 36L40 36L40 38L41 38L41 39L40 39L40 41L41 41L41 42L40 42L40 43L41 43L41 44L40 44L40 45L39 45L39 46L40 46L40 45L41 45L41 47L40 47L40 53L44 53L44 52L46 52L46 53L49 53L49 52L46 52L46 51L47 51L47 50L46 50L46 49L48 49L48 51L49 51L49 48L50 48L50 46L51 46L51 45L52 45L52 48L51 48L51 49L50 49L50 50L51 50L51 49L52 49L52 48L53 48L53 45L52 45L52 44L53 44L53 42L52 42L52 44L51 44L51 45L50 45L50 42L51 42L51 41L52 41L52 40L53 40L53 37L52 37L52 40L50 40L50 39L51 39L51 37L50 37L50 39L49 39L49 38L48 38L48 36L50 36L50 35L51 35L51 33L52 33L52 32L51 32L51 33L49 33L49 32L50 32L50 31L51 31L51 30L50 30L50 29L52 29L52 31L53 31L53 29L52 29L52 27L53 27L53 26L52 26L52 27L51 27L51 26L50 26L50 27L49 27L49 25L50 25L50 23L51 23L51 25L52 25L52 23L53 23L53 22L52 22L52 21L53 21L53 18L52 18L52 20L51 20L51 21L49 21L49 20L48 20L48 21L47 21L47 19L48 19L48 17L49 17L49 18L50 18L50 19L51 19L51 17L52 17L52 15L53 15L53 10L52 10L52 9L53 9L53 8L51 8L51 9L50 9L50 10L49 10L49 8L45 8L45 6L44 6L44 7L43 7L43 3L44 3L44 4L45 4L45 3L44 3L44 1L43 1L43 0L42 0L42 1L41 1L41 0L38 0L38 3L39 3L39 4L38 4L38 5L37 5L37 6L36 6L36 5L35 5L35 4L36 4L36 3L37 3L37 0L36 0L36 2L35 2L35 0L34 0L34 1L33 1L33 0L32 0L32 2L34 2L34 3L33 3L33 4L32 4L32 9L31 9L31 8L30 8L30 7L31 7L31 6L30 6L30 7L29 7L29 4L30 4L30 5L31 5L31 4L30 4L30 3L31 3L31 2L30 2L30 1L31 1L31 0L30 0L30 1L29 1L29 0L24 0L24 1L23 1L23 0L22 0L22 1L23 1L23 2L20 2L20 1L21 1L21 0L18 0L18 1L16 1L16 2L18 2L18 1L19 1L19 4L20 4L20 5L18 5L18 3L15 3L15 2L14 2L14 1L15 1L15 0L13 0L13 3L15 3L15 5L16 5L16 7L17 7L17 6L18 6L18 8L19 8L19 12L18 12L18 10L16 10L16 11L17 11L17 12L18 12L18 14L16 14L16 12L15 12L15 10L14 10L14 9L15 9L15 8L14 8L14 7L15 7L15 6L14 6L14 7L13 7L13 6L12 6L12 5L13 5L13 4L12 4L12 3L10 3L10 2L12 2L12 0L11 0L11 1L10 1L10 0ZM26 1L26 2L27 2L27 1ZM28 1L28 4L29 4L29 3L30 3L30 2L29 2L29 1ZM39 1L39 2L41 2L41 1ZM23 2L23 3L22 3L22 4L21 4L21 5L20 5L20 6L19 6L19 8L20 8L20 6L21 6L21 7L22 7L22 6L23 6L23 7L24 7L24 5L22 5L22 4L23 4L23 3L25 3L25 2ZM42 2L42 3L43 3L43 2ZM34 3L34 4L35 4L35 3ZM40 3L40 5L38 5L38 6L37 6L37 7L36 7L36 6L35 6L35 7L34 7L34 6L33 6L33 9L34 9L34 10L35 10L35 9L36 9L36 8L37 8L37 7L38 7L38 6L39 6L39 7L40 7L40 5L41 5L41 3ZM10 4L10 5L9 5L9 9L10 9L10 5L12 5L12 4ZM25 5L25 8L28 8L28 5ZM11 6L11 9L12 9L12 10L9 10L9 11L8 11L8 13L9 13L9 15L8 15L8 16L7 16L7 15L6 15L6 16L4 16L4 13L3 13L3 14L2 14L2 16L1 16L1 17L3 17L3 16L4 16L4 18L3 18L3 19L4 19L4 18L5 18L5 19L6 19L6 18L7 18L7 17L8 17L8 19L9 19L9 20L11 20L11 21L13 21L13 20L11 20L11 19L12 19L12 18L13 18L13 19L14 19L14 20L15 20L15 19L14 19L14 18L15 18L15 16L14 16L14 15L16 15L16 14L12 14L12 13L13 13L13 12L12 12L12 13L11 13L11 12L10 12L10 11L12 11L12 10L13 10L13 11L14 11L14 10L13 10L13 8L12 8L12 6ZM26 6L26 7L27 7L27 6ZM41 6L41 7L42 7L42 8L41 8L41 9L40 9L40 10L41 10L41 9L42 9L42 10L43 10L43 9L44 9L44 11L42 11L42 12L44 12L44 11L45 11L45 9L44 9L44 8L43 8L43 7L42 7L42 6ZM0 8L0 12L1 12L1 10L2 10L2 11L3 11L3 8ZM16 8L16 9L17 9L17 8ZM21 8L21 10L20 10L20 11L21 11L21 12L20 12L20 14L19 14L19 15L18 15L18 16L19 16L19 17L18 17L18 18L19 18L19 20L21 20L21 21L20 21L20 22L19 22L19 21L18 21L18 19L17 19L17 18L16 18L16 19L17 19L17 20L16 20L16 23L14 23L14 24L15 24L15 25L14 25L14 26L15 26L15 28L16 28L16 30L13 30L13 31L12 31L12 30L11 30L11 31L12 31L12 32L13 32L13 34L11 34L11 33L10 33L10 34L11 34L11 35L13 35L13 37L14 37L14 38L15 38L15 39L14 39L14 40L15 40L15 41L14 41L14 42L15 42L15 43L14 43L14 44L13 44L13 46L12 46L12 45L11 45L11 44L10 44L10 43L9 43L9 44L10 44L10 45L9 45L9 46L10 46L10 47L9 47L9 48L11 48L11 49L10 49L10 51L11 51L11 49L12 49L12 48L14 48L14 49L15 49L15 48L16 48L16 47L17 47L17 46L19 46L19 45L20 45L20 46L21 46L21 45L22 45L22 44L23 44L23 43L21 43L21 42L20 42L20 43L21 43L21 45L20 45L20 44L19 44L19 45L18 45L18 43L19 43L19 40L18 40L18 39L19 39L19 38L21 38L21 37L22 37L22 36L23 36L23 34L24 34L24 33L25 33L25 34L29 34L29 33L26 33L26 31L27 31L27 30L25 30L25 31L24 31L24 32L22 32L22 31L23 31L23 30L24 30L24 28L23 28L23 27L22 27L22 28L19 28L19 29L18 29L18 28L17 28L17 27L18 27L18 26L19 26L19 24L20 24L20 22L22 22L22 24L23 24L23 23L24 23L24 24L27 24L27 23L28 23L28 22L29 22L29 21L30 21L30 22L31 22L31 23L30 23L30 26L29 26L29 27L30 27L30 26L31 26L31 25L32 25L32 23L36 23L36 24L34 24L34 26L35 26L35 25L36 25L36 27L37 27L37 25L38 25L38 27L40 27L40 28L39 28L39 29L38 29L38 28L37 28L37 29L38 29L38 30L36 30L36 31L40 31L40 32L39 32L39 33L38 33L38 32L37 32L37 33L38 33L38 34L40 34L40 36L41 36L41 37L42 37L42 38L43 38L43 37L42 37L42 36L41 36L41 34L40 34L40 32L41 32L41 33L42 33L42 35L44 35L44 34L45 34L45 36L44 36L44 37L45 37L45 38L44 38L44 39L45 39L45 38L47 38L47 37L46 37L46 36L47 36L47 35L48 35L48 34L49 34L49 35L50 35L50 34L49 34L49 33L48 33L48 30L49 30L49 31L50 31L50 30L49 30L49 29L48 29L48 30L47 30L47 33L46 33L46 29L44 29L44 26L43 26L43 25L44 25L44 24L46 24L46 23L44 23L44 22L45 22L45 21L46 21L46 22L47 22L47 24L49 24L49 23L50 23L50 22L49 22L49 23L48 23L48 22L47 22L47 21L46 21L46 20L45 20L45 17L46 17L46 19L47 19L47 17L46 17L46 15L44 15L44 16L42 16L42 15L43 15L43 13L42 13L42 15L41 15L41 13L40 13L40 12L41 12L41 11L40 11L40 12L39 12L39 11L38 11L38 10L39 10L39 9L38 9L38 10L37 10L37 11L36 11L36 12L35 12L35 11L33 11L33 10L31 10L31 9L28 9L28 10L27 10L27 11L26 11L26 12L25 12L25 11L24 11L24 13L23 13L23 14L22 14L22 15L21 15L21 16L22 16L22 15L23 15L23 14L24 14L24 16L23 16L23 19L22 19L22 18L21 18L21 17L20 17L20 14L21 14L21 13L22 13L22 11L21 11L21 10L25 10L25 9L22 9L22 8ZM42 8L42 9L43 9L43 8ZM46 9L46 10L47 10L47 13L46 13L46 14L48 14L48 15L49 15L49 16L50 16L50 17L51 17L51 15L52 15L52 13L50 13L50 14L51 14L51 15L49 15L49 14L48 14L48 9ZM28 10L28 11L27 11L27 12L26 12L26 13L27 13L27 12L28 12L28 13L29 13L29 14L28 14L28 15L27 15L27 14L25 14L25 13L24 13L24 14L25 14L25 18L26 18L26 17L27 17L27 16L28 16L28 17L29 17L29 18L28 18L28 19L27 19L27 20L30 20L30 19L31 19L31 20L32 20L32 21L31 21L31 22L33 22L33 21L34 21L34 20L36 20L36 21L37 21L37 24L36 24L36 25L37 25L37 24L38 24L38 25L39 25L39 23L40 23L40 27L41 27L41 26L42 26L42 28L43 28L43 26L42 26L42 25L43 25L43 24L42 24L42 21L43 21L43 20L44 20L44 17L45 17L45 16L44 16L44 17L43 17L43 19L40 19L40 18L38 18L38 17L37 17L37 16L38 16L38 15L37 15L37 16L36 16L36 14L37 14L37 12L38 12L38 13L39 13L39 12L38 12L38 11L37 11L37 12L36 12L36 14L34 14L34 13L35 13L35 12L32 12L32 11L29 11L29 10ZM50 10L50 12L51 12L51 11L52 11L52 10ZM29 12L29 13L30 13L30 14L29 14L29 16L30 16L30 18L32 18L32 20L33 20L33 18L32 18L32 14L31 14L31 13L32 13L32 12L31 12L31 13L30 13L30 12ZM5 13L5 14L7 14L7 13ZM44 13L44 14L45 14L45 13ZM10 14L10 15L9 15L9 16L8 16L8 17L12 17L12 16L11 16L11 14ZM30 14L30 15L31 15L31 14ZM39 14L39 15L40 15L40 17L41 17L41 18L42 18L42 16L41 16L41 15L40 15L40 14ZM26 15L26 16L27 16L27 15ZM33 15L33 17L34 17L34 19L35 19L35 18L37 18L37 17L36 17L36 16L35 16L35 17L34 17L34 15ZM6 16L6 17L5 17L5 18L6 18L6 17L7 17L7 16ZM9 18L9 19L10 19L10 18ZM20 18L20 19L21 19L21 20L22 20L22 22L24 22L24 23L26 23L26 22L27 22L27 21L26 21L26 19L25 19L25 20L24 20L24 19L23 19L23 20L22 20L22 19L21 19L21 18ZM36 19L36 20L37 20L37 21L38 21L38 22L40 22L40 23L41 23L41 22L40 22L40 19ZM23 20L23 21L24 21L24 22L25 22L25 21L24 21L24 20ZM38 20L38 21L39 21L39 20ZM17 21L17 22L18 22L18 21ZM11 22L11 23L10 23L10 24L9 24L9 26L10 26L10 25L11 25L11 24L12 24L12 28L11 28L11 27L10 27L10 28L9 28L9 29L10 29L10 28L11 28L11 29L13 29L13 28L14 28L14 27L13 27L13 24L12 24L12 22ZM51 22L51 23L52 23L52 22ZM16 23L16 25L17 25L17 23ZM18 23L18 24L19 24L19 23ZM5 25L5 28L8 28L8 25ZM21 25L21 26L20 26L20 27L21 27L21 26L23 26L23 25ZM25 25L25 28L28 28L28 25ZM45 25L45 28L48 28L48 25ZM6 26L6 27L7 27L7 26ZM16 26L16 27L17 27L17 26ZM26 26L26 27L27 27L27 26ZM46 26L46 27L47 27L47 26ZM0 27L0 28L1 28L1 27ZM50 27L50 28L51 28L51 27ZM22 28L22 30L23 30L23 28ZM40 28L40 29L41 29L41 30L40 30L40 31L43 31L43 30L44 30L44 32L42 32L42 33L43 33L43 34L44 34L44 33L45 33L45 30L44 30L44 29L43 29L43 30L42 30L42 29L41 29L41 28ZM4 29L4 30L5 30L5 31L4 31L4 32L5 32L5 31L6 31L6 32L7 32L7 33L8 33L8 32L7 32L7 31L10 31L10 30L8 30L8 29ZM2 30L2 31L3 31L3 30ZM6 30L6 31L7 31L7 30ZM16 30L16 32L15 32L15 31L14 31L14 32L15 32L15 34L13 34L13 35L15 35L15 36L14 36L14 37L15 37L15 38L16 38L16 36L17 36L17 35L16 35L16 34L18 34L18 38L19 38L19 34L18 34L18 33L19 33L19 32L18 32L18 31L21 31L21 30ZM20 32L20 33L21 33L21 32ZM34 32L34 35L35 35L35 32ZM47 33L47 34L46 34L46 35L47 35L47 34L48 34L48 33ZM8 34L8 36L9 36L9 34ZM20 34L20 35L21 35L21 36L22 36L22 35L21 35L21 34ZM52 34L52 35L53 35L53 34ZM1 35L1 36L2 36L2 35ZM25 35L25 38L24 38L24 39L22 39L22 40L23 40L23 41L22 41L22 42L24 42L24 44L25 44L25 42L26 42L26 44L27 44L27 43L28 43L28 44L30 44L30 46L32 46L32 48L34 48L34 50L36 50L36 49L35 49L35 47L33 47L33 46L32 46L32 39L30 39L30 38L29 38L29 37L28 37L28 38L27 38L27 37L26 37L26 35ZM36 35L36 36L38 36L38 35ZM4 36L4 37L5 37L5 39L6 39L6 38L7 38L7 37L5 37L5 36ZM10 36L10 38L11 38L11 37L12 37L12 36ZM0 38L0 39L1 39L1 41L2 41L2 39L1 39L1 38ZM15 39L15 40L16 40L16 41L17 41L17 39ZM20 39L20 40L21 40L21 39ZM24 39L24 42L25 42L25 39ZM26 39L26 41L27 41L27 42L28 42L28 43L29 43L29 42L28 42L28 41L31 41L31 40L30 40L30 39L29 39L29 40L28 40L28 41L27 41L27 39ZM48 39L48 40L49 40L49 39ZM11 40L11 41L12 41L12 40ZM44 40L44 41L42 41L42 42L41 42L41 43L42 43L42 44L44 44L44 43L45 43L45 44L46 44L46 41L47 41L47 40L46 40L46 41L45 41L45 40ZM48 41L48 43L47 43L47 44L49 44L49 42L50 42L50 41ZM16 42L16 43L18 43L18 42ZM42 42L42 43L43 43L43 42ZM30 43L30 44L31 44L31 43ZM6 44L6 45L7 45L7 44ZM15 44L15 45L14 45L14 47L16 47L16 44ZM25 45L25 48L28 48L28 45ZM42 45L42 47L41 47L41 48L42 48L42 50L41 50L41 51L42 51L42 50L43 50L43 52L44 52L44 50L45 50L45 49L44 49L44 50L43 50L43 48L42 48L42 47L43 47L43 45ZM45 45L45 48L48 48L48 45ZM49 45L49 46L50 46L50 45ZM26 46L26 47L27 47L27 46ZM46 46L46 47L47 47L47 46ZM11 47L11 48L12 48L12 47ZM29 47L29 48L31 48L31 47ZM20 48L20 49L21 49L21 48ZM16 50L16 51L17 51L17 50ZM23 50L23 51L24 51L24 50ZM27 50L27 52L28 52L28 53L31 53L31 52L30 52L30 51L29 51L29 52L28 52L28 50ZM52 52L52 53L53 53L53 52ZM0 0L0 7L7 7L7 0ZM1 1L1 6L6 6L6 1ZM2 2L2 5L5 5L5 2ZM46 0L46 7L53 7L53 0ZM47 1L47 6L52 6L52 1ZM48 2L48 5L51 5L51 2ZM0 46L0 53L7 53L7 46ZM1 47L1 52L6 52L6 47ZM2 48L2 51L5 51L5 48Z" fill="#000000"/></g></g></svg>
