<?xml version="1.0" encoding="UTF-8"?>
<svg xmlns="http://www.w3.org/2000/svg" version="1.1" width="356" height="356" viewBox="0 0 356 356"><rect x="0" y="0" width="356" height="356" fill="#ffffff"/><g transform="scale(6.717)"><g transform="translate(0,0)"><path fill-rule="evenodd" d="M8 0L8 2L9 2L9 3L10 3L10 4L11 4L11 2L10 2L10 1L11 1L11 0L10 0L10 1L9 1L9 0ZM13 0L13 1L14 1L14 3L15 3L15 5L16 5L16 7L17 7L17 6L18 6L18 8L19 8L19 12L18 12L18 10L16 10L16 11L17 11L17 12L18 12L18 14L16 14L16 12L14 12L14 11L15 11L15 10L14 10L14 9L15 9L15 8L14 8L14 7L15 7L15 6L14 6L14 7L13 7L13 6L12 6L12 7L13 7L13 10L12 10L12 11L13 11L13 12L11 12L11 10L10 10L10 9L9 9L9 6L10 6L10 7L11 7L11 6L10 6L10 5L9 5L9 4L8 4L8 10L6 10L6 11L5 11L5 12L4 12L4 10L5 10L5 9L7 9L7 8L5 8L5 9L4 9L4 10L3 10L3 8L0 8L0 9L2 9L2 10L0 10L0 11L1 11L1 13L0 13L0 14L1 14L1 13L2 13L2 14L3 14L3 15L2 15L2 16L1 16L1 17L2 17L2 16L4 16L4 17L3 17L3 19L2 19L2 20L3 20L3 19L4 19L4 21L1 21L1 18L0 18L0 21L1 21L1 22L0 22L0 24L1 24L1 25L0 25L0 26L1 26L1 27L0 27L0 28L1 28L1 30L2 30L2 28L3 28L3 27L4 27L4 29L8 29L8 30L4 30L4 31L8 31L8 32L5 32L5 34L3 34L3 33L2 33L2 34L1 34L1 32L0 32L0 34L1 34L1 35L0 35L0 36L1 36L1 37L0 37L0 40L1 40L1 37L2 37L2 39L3 39L3 40L4 40L4 41L5 41L5 40L6 40L6 41L7 41L7 40L8 40L8 42L3 42L3 43L2 43L2 41L1 41L1 42L0 42L0 43L1 43L1 44L3 44L3 45L4 45L4 44L3 44L3 43L7 43L7 44L6 44L6 45L8 45L8 46L12 46L12 47L10 47L10 48L9 48L9 47L8 47L8 48L9 48L9 49L12 49L12 48L13 48L13 47L14 47L14 46L12 46L12 45L15 45L15 47L16 47L16 48L14 48L14 49L13 49L13 50L11 50L11 51L10 51L10 50L8 50L8 53L10 53L10 52L11 52L11 53L14 53L14 52L15 52L15 53L16 53L16 52L18 52L18 53L19 53L19 52L18 52L18 49L19 49L19 48L20 48L20 49L21 49L21 48L20 48L20 47L21 47L21 46L20 46L20 45L21 45L21 43L22 43L22 41L23 41L23 44L22 44L22 45L23 45L23 47L22 47L22 48L23 48L23 49L28 49L28 50L29 50L29 52L28 52L28 53L31 53L31 52L30 52L30 51L32 51L32 50L30 50L30 49L31 49L31 48L32 48L32 49L33 49L33 51L34 51L34 52L32 52L32 53L34 53L34 52L36 52L36 53L38 53L38 52L39 52L39 51L38 51L38 48L39 48L39 47L40 47L40 49L41 49L41 50L40 50L40 53L42 53L42 52L43 52L43 53L44 53L44 52L43 52L43 51L41 51L41 50L42 50L42 47L43 47L43 46L42 46L42 44L43 44L43 45L44 45L44 48L43 48L43 49L46 49L46 50L44 50L44 51L45 51L45 53L46 53L46 50L47 50L47 49L48 49L48 51L49 51L49 50L50 50L50 49L49 49L49 48L50 48L50 46L52 46L52 47L51 47L51 48L53 48L53 46L52 46L52 44L53 44L53 42L52 42L52 44L51 44L51 45L50 45L50 43L51 43L51 42L50 42L50 41L51 41L51 40L50 40L50 39L51 39L51 37L52 37L52 39L53 39L53 34L52 34L52 35L51 35L51 33L52 33L52 32L53 32L53 26L52 26L52 25L53 25L53 22L52 22L52 21L53 21L53 18L52 18L52 16L53 16L53 14L52 14L52 16L51 16L51 18L52 18L52 19L51 19L51 21L49 21L49 20L50 20L50 19L49 19L49 20L48 20L48 21L49 21L49 22L48 22L48 23L49 23L49 24L47 24L47 22L46 22L46 21L45 21L45 23L44 23L44 19L45 19L45 20L47 20L47 19L48 19L48 17L50 17L50 16L49 16L49 14L48 14L48 13L50 13L50 11L51 11L51 12L52 12L52 13L53 13L53 12L52 12L52 11L53 11L53 10L52 10L52 11L51 11L51 10L50 10L50 9L49 9L49 8L45 8L45 6L44 6L44 7L43 7L43 3L44 3L44 4L45 4L45 3L44 3L44 1L43 1L43 0L42 0L42 2L41 2L41 1L40 1L40 0L38 0L38 1L39 1L39 2L38 2L38 3L37 3L37 0L36 0L36 2L35 2L35 0L34 0L34 1L33 1L33 0L32 0L32 2L31 2L31 4L30 4L30 1L31 1L31 0L30 0L30 1L29 1L29 0L24 0L24 2L25 2L25 4L24 4L24 7L23 7L23 6L22 6L22 7L21 7L21 6L20 6L20 5L21 5L21 4L22 4L22 5L23 5L23 4L22 4L22 1L23 1L23 0L22 0L22 1L21 1L21 0L18 0L18 1L16 1L16 2L18 2L18 1L19 1L19 4L20 4L20 5L18 5L18 3L15 3L15 0ZM20 1L20 2L21 2L21 1ZM26 1L26 2L27 2L27 1ZM28 1L28 2L29 2L29 1ZM12 2L12 3L13 3L13 2ZM32 2L32 5L33 5L33 9L34 9L34 10L35 10L35 9L36 9L36 8L38 8L38 10L37 10L37 12L38 12L38 15L37 15L37 14L36 14L36 11L35 11L35 13L34 13L34 12L33 12L33 10L31 10L31 9L32 9L32 6L31 6L31 5L30 5L30 4L29 4L29 3L28 3L28 4L29 4L29 8L30 8L30 10L29 10L29 9L28 9L28 10L27 10L27 9L24 9L24 8L23 8L23 9L22 9L22 8L21 8L21 10L20 10L20 11L21 11L21 10L23 10L23 9L24 9L24 10L26 10L26 12L25 12L25 11L24 11L24 13L23 13L23 14L22 14L22 15L21 15L21 16L22 16L22 15L24 15L24 16L23 16L23 18L24 18L24 22L22 22L22 20L23 20L23 19L20 19L20 18L21 18L21 17L20 17L20 14L21 14L21 12L20 12L20 14L19 14L19 15L18 15L18 16L19 16L19 17L18 17L18 18L19 18L19 20L21 20L21 21L20 21L20 22L19 22L19 21L18 21L18 19L17 19L17 18L16 18L16 19L17 19L17 20L16 20L16 23L14 23L14 24L15 24L15 25L14 25L14 26L15 26L15 28L16 28L16 30L12 30L12 29L13 29L13 28L14 28L14 27L13 27L13 28L12 28L12 26L13 26L13 23L12 23L12 22L13 22L13 19L14 19L14 20L15 20L15 19L14 19L14 18L15 18L15 16L14 16L14 15L16 15L16 14L13 14L13 13L12 13L12 14L10 14L10 12L9 12L9 11L10 11L10 10L9 10L9 11L8 11L8 12L7 12L7 11L6 11L6 12L7 12L7 13L6 13L6 14L5 14L5 13L3 13L3 14L5 14L5 15L6 15L6 16L9 16L9 17L8 17L8 18L9 18L9 17L10 17L10 20L11 20L11 15L13 15L13 16L12 16L12 17L13 17L13 19L12 19L12 21L6 21L6 20L9 20L9 19L6 19L6 18L7 18L7 17L4 17L4 18L5 18L5 21L6 21L6 22L2 22L2 23L1 23L1 24L3 24L3 26L2 26L2 25L1 25L1 26L2 26L2 27L1 27L1 28L2 28L2 27L3 27L3 26L4 26L4 24L7 24L7 23L9 23L9 22L10 22L10 25L11 25L11 26L9 26L9 28L10 28L10 29L9 29L9 30L12 30L12 31L13 31L13 32L12 32L12 33L11 33L11 31L10 31L10 33L11 33L11 34L10 34L10 35L9 35L9 34L8 34L8 33L6 33L6 34L5 34L5 37L6 37L6 38L4 38L4 40L5 40L5 39L6 39L6 40L7 40L7 39L6 39L6 38L7 38L7 37L6 37L6 36L8 36L8 35L9 35L9 36L12 36L12 33L13 33L13 34L15 34L15 32L16 32L16 30L21 30L21 31L18 31L18 32L19 32L19 33L18 33L18 34L16 34L16 35L17 35L17 36L16 36L16 38L15 38L15 37L14 37L14 36L15 36L15 35L13 35L13 37L11 37L11 38L9 38L9 37L8 37L8 38L9 38L9 39L10 39L10 40L9 40L9 42L8 42L8 44L9 44L9 45L10 45L10 44L9 44L9 42L10 42L10 40L12 40L12 41L13 41L13 40L12 40L12 39L13 39L13 38L15 38L15 39L14 39L14 40L15 40L15 41L14 41L14 43L15 43L15 44L16 44L16 47L17 47L17 46L19 46L19 47L18 47L18 48L19 48L19 47L20 47L20 46L19 46L19 45L20 45L20 44L19 44L19 45L18 45L18 43L19 43L19 40L18 40L18 39L19 39L19 38L22 38L22 36L23 36L23 38L24 38L24 37L25 37L25 38L26 38L26 39L24 39L24 40L23 40L23 39L22 39L22 40L23 40L23 41L24 41L24 40L27 40L27 42L29 42L29 41L30 41L30 42L31 42L31 43L32 43L32 44L31 44L31 45L30 45L30 43L28 43L28 44L29 44L29 45L30 45L30 46L29 46L29 47L30 47L30 48L29 48L29 49L30 49L30 48L31 48L31 47L32 47L32 48L34 48L34 50L35 50L35 49L36 49L36 48L38 48L38 47L39 47L39 45L40 45L40 44L42 44L42 43L40 43L40 42L41 42L41 41L40 41L40 39L41 39L41 38L40 38L40 36L41 36L41 37L42 37L42 39L44 39L44 38L43 38L43 37L42 37L42 35L43 35L43 36L44 36L44 35L45 35L45 39L46 39L46 42L45 42L45 43L46 43L46 42L47 42L47 39L46 39L46 38L47 38L47 35L50 35L50 36L48 36L48 38L49 38L49 39L48 39L48 40L49 40L49 39L50 39L50 36L51 36L51 35L50 35L50 34L49 34L49 33L51 33L51 31L52 31L52 30L51 30L51 29L50 29L50 30L49 30L49 29L48 29L48 30L47 30L47 33L48 33L48 34L47 34L47 35L46 35L46 34L45 34L45 33L46 33L46 29L45 29L45 33L44 33L44 34L43 34L43 32L44 32L44 31L43 31L43 32L42 32L42 30L43 30L43 28L44 28L44 27L42 27L42 26L43 26L43 25L44 25L44 24L43 24L43 21L42 21L42 20L43 20L43 19L42 19L42 20L41 20L41 21L40 21L40 22L39 22L39 21L38 21L38 20L37 20L37 19L38 19L38 18L39 18L39 19L40 19L40 18L41 18L41 17L42 17L42 18L43 18L43 17L42 17L42 16L44 16L44 18L45 18L45 17L46 17L46 19L47 19L47 17L46 17L46 15L45 15L45 13L44 13L44 15L42 15L42 16L41 16L41 15L40 15L40 16L39 16L39 17L38 17L38 15L39 15L39 13L40 13L40 12L41 12L41 11L42 11L42 12L46 12L46 11L45 11L45 9L44 9L44 8L43 8L43 7L42 7L42 6L41 6L41 7L42 7L42 8L41 8L41 11L40 11L40 10L39 10L39 9L40 9L40 5L41 5L41 3L40 3L40 5L38 5L38 4L37 4L37 3L36 3L36 4L35 4L35 5L36 5L36 4L37 4L37 5L38 5L38 6L37 6L37 7L36 7L36 6L35 6L35 7L34 7L34 2ZM42 2L42 3L43 3L43 2ZM25 5L25 8L28 8L28 5ZM19 6L19 8L20 8L20 6ZM26 6L26 7L27 7L27 6ZM30 6L30 8L31 8L31 6ZM38 6L38 7L39 7L39 6ZM16 8L16 9L17 9L17 8ZM51 8L51 9L53 9L53 8ZM43 9L43 11L44 11L44 9ZM46 9L46 10L47 10L47 11L48 11L48 9ZM13 10L13 11L14 11L14 10ZM28 10L28 11L29 11L29 12L28 12L28 15L27 15L27 14L26 14L26 13L27 13L27 12L26 12L26 13L24 13L24 15L25 15L25 16L24 16L24 17L25 17L25 16L26 16L26 18L25 18L25 21L26 21L26 23L25 23L25 24L24 24L24 25L23 25L23 24L22 24L22 22L20 22L20 24L19 24L19 23L18 23L18 24L19 24L19 26L18 26L18 27L17 27L17 26L16 26L16 27L17 27L17 28L18 28L18 29L19 29L19 28L22 28L22 29L23 29L23 28L22 28L22 27L24 27L24 30L23 30L23 31L22 31L22 32L23 32L23 36L24 36L24 34L25 34L25 35L26 35L26 37L27 37L27 38L28 38L28 37L27 37L27 36L28 36L28 35L29 35L29 34L30 34L30 35L31 35L31 36L32 36L32 37L31 37L31 38L30 38L30 36L29 36L29 38L30 38L30 39L31 39L31 38L32 38L32 43L34 43L34 44L32 44L32 45L31 45L31 46L30 46L30 47L31 47L31 46L32 46L32 47L33 47L33 46L34 46L34 47L35 47L35 48L36 48L36 46L38 46L38 45L39 45L39 44L38 44L38 45L37 45L37 42L38 42L38 41L39 41L39 42L40 42L40 41L39 41L39 40L38 40L38 39L39 39L39 38L38 38L38 36L39 36L39 35L40 35L40 34L41 34L41 35L42 35L42 32L40 32L40 31L41 31L41 30L42 30L42 29L41 29L41 28L42 28L42 27L41 27L41 28L40 28L40 29L41 29L41 30L40 30L40 31L39 31L39 32L38 32L38 28L39 28L39 27L40 27L40 26L42 26L42 25L43 25L43 24L42 24L42 23L39 23L39 22L38 22L38 21L37 21L37 20L36 20L36 19L37 19L37 18L38 18L38 17L37 17L37 16L36 16L36 14L34 14L34 13L33 13L33 12L32 12L32 14L30 14L30 13L31 13L31 10L30 10L30 11L29 11L29 10ZM38 10L38 12L40 12L40 11L39 11L39 10ZM2 11L2 12L3 12L3 11ZM22 11L22 12L23 12L23 11ZM8 12L8 14L6 14L6 15L9 15L9 16L10 16L10 15L9 15L9 12ZM29 12L29 13L30 13L30 12ZM47 12L47 13L46 13L46 14L47 14L47 15L48 15L48 14L47 14L47 13L48 13L48 12ZM42 13L42 14L43 14L43 13ZM29 14L29 15L30 15L30 16L28 16L28 17L27 17L27 18L26 18L26 20L28 20L28 21L27 21L27 23L26 23L26 24L28 24L28 21L29 21L29 20L28 20L28 18L29 18L29 19L30 19L30 20L31 20L31 18L32 18L32 19L33 19L33 18L32 18L32 15L30 15L30 14ZM50 14L50 15L51 15L51 14ZM26 15L26 16L27 16L27 15ZM33 15L33 17L34 17L34 19L35 19L35 18L37 18L37 17L36 17L36 16L35 16L35 17L34 17L34 15ZM44 15L44 16L45 16L45 15ZM30 16L30 17L29 17L29 18L30 18L30 17L31 17L31 16ZM40 16L40 17L39 17L39 18L40 18L40 17L41 17L41 16ZM33 20L33 21L32 21L32 22L31 22L31 21L30 21L30 23L29 23L29 24L30 24L30 23L31 23L31 25L30 25L30 26L29 26L29 27L30 27L30 28L29 28L29 31L28 31L28 29L27 29L27 30L26 30L26 29L25 29L25 30L24 30L24 31L25 31L25 34L26 34L26 35L28 35L28 34L29 34L29 33L30 33L30 34L31 34L31 35L33 35L33 36L34 36L34 39L33 39L33 40L34 40L34 39L35 39L35 41L34 41L34 43L35 43L35 44L34 44L34 46L36 46L36 42L37 42L37 41L36 41L36 40L37 40L37 39L38 39L38 38L37 38L37 37L36 37L36 36L38 36L38 35L39 35L39 34L40 34L40 32L39 32L39 33L38 33L38 32L37 32L37 33L36 33L36 34L35 34L35 32L34 32L34 31L33 31L33 30L32 30L32 28L33 28L33 27L34 27L34 28L35 28L35 29L34 29L34 30L35 30L35 31L36 31L36 30L37 30L37 29L36 29L36 28L35 28L35 27L34 27L34 26L35 26L35 25L36 25L36 27L38 27L38 26L40 26L40 24L39 24L39 23L36 23L36 22L35 22L35 21L36 21L36 20L35 20L35 21L34 21L34 20ZM17 21L17 22L18 22L18 21ZM33 21L33 22L34 22L34 23L32 23L32 25L31 25L31 26L30 26L30 27L32 27L32 25L33 25L33 26L34 26L34 24L36 24L36 25L37 25L37 26L38 26L38 25L37 25L37 24L36 24L36 23L35 23L35 22L34 22L34 21ZM41 21L41 22L42 22L42 21ZM6 22L6 23L7 23L7 22ZM49 22L49 23L50 23L50 25L49 25L49 27L50 27L50 28L52 28L52 26L51 26L51 27L50 27L50 25L52 25L52 24L51 24L51 23L52 23L52 22L51 22L51 23L50 23L50 22ZM16 23L16 25L17 25L17 23ZM45 23L45 24L46 24L46 23ZM41 24L41 25L42 25L42 24ZM5 25L5 28L8 28L8 25ZM21 25L21 26L20 26L20 27L22 27L22 26L23 26L23 25ZM25 25L25 28L28 28L28 25ZM45 25L45 28L48 28L48 25ZM6 26L6 27L7 27L7 26ZM26 26L26 27L27 27L27 26ZM46 26L46 27L47 27L47 26ZM35 29L35 30L36 30L36 29ZM25 30L25 31L26 31L26 30ZM31 30L31 31L32 31L32 30ZM48 30L48 33L49 33L49 32L50 32L50 31L51 31L51 30L50 30L50 31L49 31L49 30ZM14 31L14 32L15 32L15 31ZM27 31L27 32L26 32L26 34L28 34L28 33L29 33L29 32L28 32L28 31ZM20 32L20 33L21 33L21 32ZM27 32L27 33L28 33L28 32ZM32 32L32 33L33 33L33 35L34 35L34 36L36 36L36 35L37 35L37 34L36 34L36 35L34 35L34 32ZM2 34L2 35L1 35L1 36L3 36L3 34ZM6 34L6 35L8 35L8 34ZM18 34L18 38L19 38L19 34ZM20 34L20 35L22 35L22 34ZM32 37L32 38L33 38L33 37ZM35 37L35 38L36 38L36 37ZM11 38L11 39L12 39L12 38ZM15 39L15 40L16 40L16 41L17 41L17 39ZM20 39L20 40L21 40L21 39ZM28 40L28 41L29 41L29 40ZM52 40L52 41L53 41L53 40ZM35 41L35 42L36 42L36 41ZM42 41L42 42L43 42L43 43L44 43L44 42L43 42L43 41ZM48 41L48 42L49 42L49 41ZM16 42L16 43L18 43L18 42ZM20 42L20 43L21 43L21 42ZM25 42L25 43L24 43L24 44L25 44L25 43L26 43L26 44L27 44L27 43L26 43L26 42ZM11 43L11 44L12 44L12 43ZM48 43L48 44L49 44L49 43ZM25 45L25 48L28 48L28 45ZM45 45L45 48L48 48L48 45ZM49 45L49 46L50 46L50 45ZM26 46L26 47L27 47L27 46ZM40 46L40 47L41 47L41 46ZM46 46L46 47L47 47L47 46ZM14 50L14 51L15 51L15 50ZM16 50L16 51L17 51L17 50ZM20 50L20 51L21 51L21 52L20 52L20 53L21 53L21 52L22 52L22 53L23 53L23 51L24 51L24 53L25 53L25 50ZM9 51L9 52L10 52L10 51ZM36 51L36 52L38 52L38 51ZM47 52L47 53L49 53L49 52ZM52 52L52 53L53 53L53 52ZM0 0L0 7L7 7L7 0ZM1 1L1 6L6 6L6 1ZM2 2L2 5L5 5L5 2ZM46 0L46 7L53 7L53 0ZM47 1L47 6L52 6L52 1ZM48 2L48 5L51 5L51 2ZM0 46L0 53L7 53L7 46ZM1 47L1 52L6 52L6 47ZM2 48L2 51L5 51L5 48Z" fill="#000000"/></g></g></svg>
