<?xml version="1.0" encoding="UTF-8"?>
<svg xmlns="http://www.w3.org/2000/svg" version="1.1" width="356" height="356" viewBox="0 0 356 356"><rect x="0" y="0" width="356" height="356" fill="#ffffff"/><g transform="scale(6.717)"><g transform="translate(0,0)"><path fill-rule="evenodd" d="M8 0L8 2L11 2L11 4L13 4L13 3L12 3L12 2L14 2L14 3L15 3L15 5L16 5L16 7L17 7L17 6L18 6L18 8L19 8L19 12L18 12L18 10L16 10L16 11L17 11L17 12L18 12L18 14L16 14L16 12L13 12L13 14L16 14L16 15L14 15L14 16L15 16L15 18L14 18L14 19L13 19L13 18L12 18L12 17L13 17L13 15L12 15L12 16L10 16L10 15L11 15L11 14L10 14L10 15L9 15L9 14L8 14L8 13L10 13L10 12L9 12L9 11L7 11L7 10L4 10L4 9L3 9L3 8L0 8L0 9L1 9L1 10L0 10L0 11L1 11L1 12L0 12L0 14L1 14L1 16L0 16L0 19L1 19L1 17L3 17L3 16L4 16L4 17L5 17L5 19L7 19L7 20L4 20L4 18L3 18L3 19L2 19L2 21L3 21L3 22L4 22L4 29L2 29L2 28L1 28L1 26L2 26L2 24L1 24L1 26L0 26L0 30L1 30L1 31L0 31L0 32L1 32L1 31L2 31L2 34L1 34L1 33L0 33L0 35L3 35L3 33L5 33L5 37L4 37L4 36L3 36L3 37L2 37L2 39L3 39L3 38L4 38L4 39L7 39L7 38L8 38L8 37L7 37L7 36L9 36L9 35L10 35L10 37L9 37L9 38L10 38L10 41L7 41L7 40L6 40L6 41L7 41L7 42L5 42L5 40L0 40L0 41L2 41L2 42L0 42L0 43L1 43L1 44L3 44L3 45L4 45L4 44L3 44L3 43L8 43L8 44L6 44L6 45L8 45L8 46L11 46L11 47L10 47L10 48L9 48L9 47L8 47L8 48L9 48L9 50L8 50L8 53L9 53L9 51L13 51L13 52L11 52L11 53L16 53L16 52L18 52L18 53L19 53L19 52L18 52L18 49L19 49L19 48L20 48L20 49L21 49L21 48L20 48L20 47L21 47L21 46L23 46L23 47L22 47L22 48L23 48L23 50L22 50L22 51L21 51L21 50L20 50L20 51L21 51L21 52L20 52L20 53L21 53L21 52L22 52L22 53L23 53L23 52L24 52L24 53L26 53L26 52L27 52L27 51L28 51L28 50L29 50L29 52L28 52L28 53L29 53L29 52L30 52L30 51L32 51L32 53L33 53L33 51L34 51L34 53L35 53L35 51L36 51L36 50L38 50L38 52L39 52L39 51L40 51L40 53L42 53L42 52L41 52L41 50L42 50L42 51L43 51L43 53L44 53L44 51L45 51L45 53L46 53L46 51L45 51L45 50L47 50L47 49L48 49L48 51L49 51L49 52L47 52L47 53L49 53L49 52L50 52L50 51L51 51L51 50L50 50L50 49L49 49L49 48L50 48L50 46L51 46L51 45L52 45L52 44L53 44L53 42L52 42L52 44L50 44L50 43L49 43L49 42L50 42L50 41L51 41L51 40L50 40L50 39L51 39L51 36L50 36L50 35L51 35L51 33L49 33L49 32L50 32L50 31L51 31L51 32L52 32L52 31L53 31L53 29L52 29L52 27L53 27L53 26L52 26L52 27L51 27L51 28L50 28L50 26L51 26L51 25L53 25L53 22L52 22L52 21L53 21L53 18L52 18L52 20L51 20L51 21L49 21L49 20L50 20L50 19L49 19L49 20L48 20L48 17L50 17L50 16L49 16L49 15L51 15L51 17L52 17L52 15L53 15L53 14L52 14L52 13L53 13L53 10L52 10L52 9L53 9L53 8L51 8L51 10L50 10L50 9L49 9L49 8L45 8L45 6L44 6L44 7L43 7L43 3L44 3L44 4L45 4L45 3L44 3L44 1L43 1L43 0L40 0L40 1L41 1L41 4L40 4L40 3L38 3L38 2L37 2L37 0L36 0L36 3L35 3L35 0L34 0L34 1L33 1L33 0L32 0L32 2L34 2L34 3L33 3L33 4L32 4L32 3L30 3L30 1L31 1L31 0L30 0L30 1L29 1L29 3L30 3L30 5L29 5L29 4L28 4L28 0L26 0L26 1L25 1L25 0L24 0L24 1L23 1L23 0L22 0L22 1L21 1L21 0L18 0L18 1L16 1L16 2L18 2L18 1L19 1L19 4L20 4L20 5L18 5L18 3L15 3L15 2L14 2L14 1L15 1L15 0L13 0L13 1L12 1L12 2L11 2L11 1L9 1L9 0ZM38 0L38 1L39 1L39 0ZM20 1L20 2L21 2L21 1ZM22 1L22 5L20 5L20 6L19 6L19 8L20 8L20 6L21 6L21 7L22 7L22 6L23 6L23 7L24 7L24 4L25 4L25 3L26 3L26 2L27 2L27 1L26 1L26 2L25 2L25 1L24 1L24 2L23 2L23 1ZM42 2L42 3L43 3L43 2ZM23 3L23 4L24 4L24 3ZM34 3L34 4L33 4L33 5L32 5L32 4L31 4L31 5L30 5L30 6L29 6L29 7L30 7L30 8L29 8L29 9L27 9L27 10L26 10L26 12L25 12L25 11L24 11L24 12L23 12L23 9L24 9L24 8L23 8L23 9L22 9L22 8L21 8L21 10L20 10L20 11L21 11L21 12L20 12L20 14L19 14L19 15L18 15L18 16L19 16L19 17L18 17L18 18L19 18L19 20L21 20L21 21L20 21L20 22L19 22L19 21L18 21L18 19L17 19L17 18L16 18L16 19L17 19L17 20L16 20L16 23L14 23L14 24L15 24L15 25L14 25L14 26L15 26L15 28L16 28L16 30L13 30L13 29L12 29L12 27L11 27L11 26L10 26L10 27L9 27L9 28L11 28L11 32L12 32L12 31L13 31L13 33L12 33L12 34L11 34L11 33L10 33L10 34L11 34L11 35L12 35L12 39L11 39L11 42L10 42L10 43L9 43L9 42L8 42L8 43L9 43L9 44L10 44L10 45L11 45L11 46L12 46L12 47L11 47L11 48L12 48L12 49L13 49L13 46L12 46L12 43L11 43L11 42L13 42L13 45L14 45L14 47L15 47L15 48L14 48L14 50L15 50L15 48L16 48L16 47L17 47L17 46L19 46L19 47L18 47L18 48L19 48L19 47L20 47L20 46L21 46L21 45L22 45L22 42L23 42L23 41L24 41L24 40L23 40L23 39L22 39L22 40L23 40L23 41L22 41L22 42L20 42L20 43L21 43L21 45L20 45L20 44L19 44L19 45L18 45L18 43L19 43L19 40L18 40L18 39L19 39L19 38L24 38L24 39L25 39L25 43L24 43L24 44L25 44L25 43L26 43L26 44L27 44L27 43L28 43L28 44L29 44L29 45L30 45L30 46L31 46L31 47L32 47L32 48L31 48L31 49L30 49L30 50L32 50L32 51L33 51L33 49L32 49L32 48L34 48L34 50L36 50L36 48L37 48L37 45L36 45L36 44L34 44L34 43L36 43L36 42L35 42L35 41L36 41L36 39L37 39L37 44L38 44L38 48L39 48L39 49L38 49L38 50L39 50L39 49L40 49L40 50L41 50L41 49L40 49L40 48L42 48L42 50L43 50L43 51L44 51L44 50L45 50L45 49L44 49L44 50L43 50L43 48L44 48L44 47L43 47L43 48L42 48L42 46L43 46L43 45L42 45L42 44L41 44L41 41L42 41L42 42L43 42L43 44L44 44L44 43L45 43L45 44L46 44L46 37L47 37L47 36L48 36L48 38L49 38L49 39L48 39L48 40L47 40L47 41L48 41L48 42L47 42L47 44L48 44L48 42L49 42L49 41L48 41L48 40L49 40L49 39L50 39L50 37L49 37L49 36L48 36L48 35L50 35L50 34L49 34L49 33L48 33L48 35L46 35L46 34L45 34L45 33L46 33L46 32L48 32L48 30L49 30L49 31L50 31L50 30L51 30L51 29L50 29L50 30L49 30L49 29L48 29L48 30L47 30L47 31L46 31L46 30L45 30L45 33L44 33L44 34L45 34L45 35L46 35L46 37L42 37L42 35L43 35L43 32L44 32L44 31L43 31L43 32L42 32L42 30L44 30L44 29L43 29L43 28L44 28L44 24L43 24L43 21L42 21L42 20L43 20L43 19L44 19L44 23L45 23L45 24L46 24L46 22L47 22L47 24L49 24L49 23L50 23L50 25L49 25L49 26L50 26L50 25L51 25L51 24L52 24L52 22L51 22L51 23L50 23L50 22L49 22L49 23L48 23L48 22L47 22L47 21L48 21L48 20L47 20L47 21L46 21L46 20L45 20L45 19L44 19L44 18L45 18L45 17L46 17L46 19L47 19L47 17L46 17L46 15L45 15L45 13L46 13L46 14L47 14L47 13L48 13L48 14L49 14L49 13L48 13L48 12L47 12L47 11L48 11L48 9L46 9L46 10L47 10L47 11L46 11L46 12L45 12L45 13L44 13L44 15L42 15L42 16L41 16L41 18L40 18L40 14L39 14L39 13L40 13L40 12L42 12L42 14L43 14L43 12L42 12L42 11L40 11L40 10L41 10L41 9L42 9L42 10L43 10L43 11L44 11L44 10L45 10L45 9L44 9L44 10L43 10L43 7L42 7L42 4L41 4L41 7L42 7L42 8L41 8L41 9L39 9L39 8L38 8L38 6L39 6L39 7L40 7L40 4L39 4L39 5L38 5L38 3L36 3L36 5L35 5L35 7L34 7L34 6L33 6L33 5L34 5L34 4L35 4L35 3ZM8 4L8 9L9 9L9 5L10 5L10 11L11 11L11 13L12 13L12 11L11 11L11 10L12 10L12 9L11 9L11 5L10 5L10 4ZM12 5L12 8L13 8L13 11L14 11L14 9L15 9L15 8L14 8L14 7L15 7L15 6L14 6L14 7L13 7L13 5ZM25 5L25 8L28 8L28 5ZM26 6L26 7L27 7L27 6ZM30 6L30 7L31 7L31 6ZM32 6L32 9L31 9L31 10L30 10L30 9L29 9L29 10L28 10L28 12L26 12L26 14L23 14L23 12L22 12L22 14L20 14L20 17L21 17L21 18L20 18L20 19L21 19L21 18L23 18L23 17L24 17L24 15L25 15L25 17L26 17L26 19L27 19L27 17L28 17L28 20L27 20L27 21L25 21L25 20L24 20L24 21L23 21L23 19L22 19L22 21L21 21L21 22L20 22L20 24L19 24L19 23L18 23L18 24L19 24L19 26L18 26L18 27L17 27L17 26L16 26L16 27L17 27L17 28L18 28L18 29L19 29L19 28L22 28L22 30L23 30L23 31L22 31L22 32L23 32L23 33L24 33L24 34L23 34L23 35L22 35L22 34L20 34L20 35L22 35L22 37L23 37L23 35L24 35L24 38L25 38L25 35L24 35L24 34L25 34L25 31L26 31L26 33L27 33L27 32L28 32L28 35L27 35L27 34L26 34L26 35L27 35L27 36L26 36L26 37L28 37L28 38L27 38L27 39L26 39L26 43L27 43L27 42L28 42L28 38L29 38L29 40L30 40L30 39L31 39L31 38L32 38L32 43L34 43L34 41L35 41L35 39L36 39L36 38L37 38L37 39L38 39L38 41L39 41L39 42L40 42L40 41L41 41L41 40L42 40L42 41L44 41L44 39L42 39L42 37L41 37L41 36L40 36L40 37L39 37L39 36L38 36L38 35L37 35L37 32L38 32L38 31L39 31L39 30L38 30L38 28L39 28L39 26L38 26L38 25L39 25L39 24L38 24L38 23L39 23L39 22L40 22L40 23L41 23L41 22L40 22L40 21L41 21L41 20L42 20L42 19L38 19L38 17L39 17L39 16L38 16L38 15L37 15L37 16L36 16L36 15L35 15L35 14L34 14L34 13L36 13L36 14L38 14L38 13L39 13L39 12L40 12L40 11L39 11L39 10L38 10L38 8L36 8L36 9L35 9L35 10L34 10L34 9L33 9L33 6ZM36 6L36 7L37 7L37 6ZM5 8L5 9L7 9L7 8ZM16 8L16 9L17 9L17 8ZM1 10L1 11L2 11L2 12L3 12L3 13L1 13L1 14L2 14L2 16L3 16L3 15L5 15L5 17L6 17L6 18L7 18L7 19L9 19L9 18L10 18L10 19L11 19L11 17L8 17L8 16L7 16L7 15L8 15L8 14L7 14L7 13L8 13L8 12L7 12L7 11L4 11L4 12L3 12L3 10ZM29 10L29 12L28 12L28 14L27 14L27 15L26 15L26 16L28 16L28 17L29 17L29 16L30 16L30 14L31 14L31 17L30 17L30 20L31 20L31 21L30 21L30 23L29 23L29 24L30 24L30 23L31 23L31 25L30 25L30 26L29 26L29 28L30 28L30 27L31 27L31 29L30 29L30 31L28 31L28 30L29 30L29 29L25 29L25 30L27 30L27 31L28 31L28 32L29 32L29 33L30 33L30 34L29 34L29 35L28 35L28 36L30 36L30 38L31 38L31 36L30 36L30 34L31 34L31 35L33 35L33 36L34 36L34 35L35 35L35 37L34 37L34 39L33 39L33 40L34 40L34 39L35 39L35 38L36 38L36 36L37 36L37 35L35 35L35 32L34 32L34 31L35 31L35 29L36 29L36 31L38 31L38 30L37 30L37 29L36 29L36 28L34 28L34 26L35 26L35 25L36 25L36 27L37 27L37 25L38 25L38 24L37 24L37 22L36 22L36 20L38 20L38 19L35 19L35 18L37 18L37 17L38 17L38 16L37 16L37 17L36 17L36 16L35 16L35 17L34 17L34 14L33 14L33 17L34 17L34 19L33 19L33 18L32 18L32 14L31 14L31 13L32 13L32 12L34 12L34 11L33 11L33 10L31 10L31 11L32 11L32 12L31 12L31 13L30 13L30 10ZM37 10L37 13L38 13L38 10ZM51 10L51 11L50 11L50 14L51 14L51 15L52 15L52 14L51 14L51 11L52 11L52 10ZM4 12L4 13L3 13L3 14L4 14L4 13L5 13L5 14L6 14L6 15L7 15L7 14L6 14L6 13L7 13L7 12ZM29 13L29 14L28 14L28 15L29 15L29 14L30 14L30 13ZM22 14L22 15L21 15L21 16L22 16L22 15L23 15L23 14ZM44 15L44 16L42 16L42 17L43 17L43 18L44 18L44 17L45 17L45 15ZM6 16L6 17L7 17L7 16ZM31 18L31 20L32 20L32 21L31 21L31 22L32 22L32 21L33 21L33 23L32 23L32 25L31 25L31 27L32 27L32 25L33 25L33 26L34 26L34 24L36 24L36 25L37 25L37 24L36 24L36 22L35 22L35 23L34 23L34 20L35 20L35 19L34 19L34 20L32 20L32 18ZM14 19L14 20L15 20L15 19ZM7 20L7 21L5 21L5 22L7 22L7 23L6 23L6 24L8 24L8 22L7 22L7 21L8 21L8 20ZM10 20L10 21L9 21L9 23L11 23L11 24L9 24L9 25L13 25L13 22L11 22L11 20ZM12 20L12 21L13 21L13 20ZM28 20L28 22L27 22L27 23L26 23L26 22L25 22L25 21L24 21L24 22L23 22L23 21L22 21L22 24L25 24L25 23L26 23L26 24L28 24L28 22L29 22L29 20ZM39 20L39 21L38 21L38 22L39 22L39 21L40 21L40 20ZM0 21L0 23L1 23L1 21ZM17 21L17 22L18 22L18 21ZM45 21L45 22L46 22L46 21ZM16 23L16 25L17 25L17 23ZM40 24L40 26L42 26L42 27L43 27L43 26L42 26L42 25L43 25L43 24ZM5 25L5 28L8 28L8 25ZM21 25L21 26L20 26L20 27L22 27L22 28L23 28L23 30L24 30L24 26L23 26L23 25ZM25 25L25 28L28 28L28 25ZM45 25L45 28L48 28L48 25ZM6 26L6 27L7 27L7 26ZM22 26L22 27L23 27L23 26ZM26 26L26 27L27 27L27 26ZM46 26L46 27L47 27L47 26ZM13 27L13 28L14 28L14 27ZM32 28L32 29L33 29L33 30L32 30L32 31L34 31L34 28ZM40 28L40 29L41 29L41 30L40 30L40 31L41 31L41 30L42 30L42 29L41 29L41 28ZM4 29L4 32L5 32L5 33L6 33L6 34L8 34L8 35L9 35L9 32L8 32L8 31L10 31L10 30L8 30L8 31L5 31L5 30L7 30L7 29ZM2 30L2 31L3 31L3 30ZM16 30L16 32L15 32L15 31L14 31L14 32L15 32L15 34L12 34L12 35L15 35L15 36L14 36L14 37L15 37L15 38L13 38L13 42L14 42L14 41L15 41L15 40L16 40L16 41L17 41L17 39L15 39L15 38L16 38L16 36L17 36L17 35L16 35L16 34L18 34L18 38L19 38L19 34L18 34L18 33L19 33L19 32L18 32L18 31L21 31L21 30ZM23 31L23 32L24 32L24 31ZM6 32L6 33L7 33L7 32ZM20 32L20 33L21 33L21 32ZM32 32L32 33L33 33L33 35L34 35L34 32ZM40 32L40 34L39 34L39 35L40 35L40 34L41 34L41 35L42 35L42 32ZM52 34L52 35L53 35L53 34ZM6 35L6 36L7 36L7 35ZM6 37L6 38L7 38L7 37ZM32 37L32 38L33 38L33 37ZM38 37L38 38L39 38L39 39L41 39L41 37L40 37L40 38L39 38L39 37ZM52 38L52 39L53 39L53 38ZM14 39L14 40L15 40L15 39ZM20 39L20 40L21 40L21 39ZM39 40L39 41L40 41L40 40ZM52 40L52 41L53 41L53 40ZM29 41L29 44L31 44L31 43L30 43L30 41ZM2 42L2 43L3 43L3 42ZM16 42L16 43L18 43L18 42ZM14 43L14 45L15 45L15 47L16 47L16 44L15 44L15 43ZM38 43L38 44L39 44L39 43ZM32 44L32 45L31 45L31 46L32 46L32 45L33 45L33 46L34 46L34 47L35 47L35 46L36 46L36 45L35 45L35 46L34 46L34 45L33 45L33 44ZM40 44L40 45L39 45L39 47L40 47L40 45L41 45L41 46L42 46L42 45L41 45L41 44ZM49 44L49 46L50 46L50 44ZM19 45L19 46L20 46L20 45ZM23 45L23 46L24 46L24 45ZM25 45L25 48L28 48L28 45ZM45 45L45 48L48 48L48 45ZM26 46L26 47L27 47L27 46ZM46 46L46 47L47 47L47 46ZM52 46L52 47L51 47L51 48L52 48L52 47L53 47L53 46ZM10 49L10 50L11 50L11 49ZM24 49L24 50L23 50L23 51L22 51L22 52L23 52L23 51L24 51L24 52L26 52L26 51L27 51L27 50L28 50L28 49ZM16 50L16 51L17 51L17 50ZM24 50L24 51L25 51L25 50ZM49 50L49 51L50 51L50 50ZM36 52L36 53L37 53L37 52ZM52 52L52 53L53 53L53 52ZM0 0L0 7L7 7L7 0ZM1 1L1 6L6 6L6 1ZM2 2L2 5L5 5L5 2ZM46 0L46 7L53 7L53 0ZM47 1L47 6L52 6L52 1ZM48 2L48 5L51 5L51 2ZM0 46L0 53L7 53L7 46ZM1 47L1 52L6 52L6 47ZM2 48L2 51L5 51L5 48Z" fill="#000000"/></g></g></svg>
