<?xml version="1.0" encoding="UTF-8"?>
<svg xmlns="http://www.w3.org/2000/svg" version="1.1" width="356" height="356" viewBox="0 0 356 356"><rect x="0" y="0" width="356" height="356" fill="#ffffff"/><g transform="scale(6.717)"><g transform="translate(0,0)"><path fill-rule="evenodd" d="M8 0L8 2L10 2L10 5L9 5L9 4L8 4L8 9L10 9L10 10L9 10L9 11L8 11L8 10L6 10L6 9L7 9L7 8L5 8L5 12L4 12L4 11L3 11L3 10L4 10L4 9L3 9L3 8L0 8L0 9L3 9L3 10L2 10L2 11L0 11L0 12L2 12L2 14L4 14L4 13L8 13L8 14L5 14L5 15L4 15L4 16L2 16L2 15L0 15L0 16L2 16L2 17L4 17L4 16L5 16L5 15L8 15L8 16L9 16L9 19L8 19L8 17L7 17L7 16L6 16L6 17L7 17L7 18L6 18L6 19L7 19L7 20L6 20L6 21L5 21L5 19L4 19L4 18L3 18L3 19L2 19L2 18L0 18L0 21L1 21L1 20L2 20L2 21L3 21L3 23L2 23L2 22L1 22L1 23L0 23L0 24L3 24L3 23L4 23L4 22L6 22L6 23L5 23L5 24L4 24L4 26L3 26L3 27L1 27L1 25L0 25L0 30L2 30L2 29L1 29L1 28L3 28L3 29L4 29L4 33L3 33L3 31L1 31L1 32L0 32L0 37L2 37L2 36L3 36L3 38L2 38L2 39L3 39L3 38L4 38L4 41L7 41L7 40L10 40L10 39L12 39L12 38L10 38L10 39L9 39L9 38L6 38L6 39L7 39L7 40L5 40L5 38L4 38L4 35L3 35L3 34L4 34L4 33L5 33L5 36L6 36L6 37L7 37L7 36L8 36L8 34L9 34L9 35L10 35L10 34L11 34L11 36L10 36L10 37L11 37L11 36L13 36L13 35L15 35L15 36L14 36L14 37L13 37L13 40L12 40L12 41L10 41L10 43L8 43L8 44L6 44L6 45L8 45L8 46L9 46L9 47L8 47L8 48L9 48L9 49L10 49L10 51L11 51L11 52L10 52L10 53L11 53L11 52L12 52L12 51L13 51L13 49L14 49L14 52L13 52L13 53L14 53L14 52L15 52L15 53L16 53L16 52L18 52L18 53L19 53L19 52L18 52L18 49L19 49L19 48L18 48L18 47L19 47L19 46L20 46L20 47L21 47L21 46L23 46L23 47L22 47L22 48L23 48L23 52L22 52L22 53L23 53L23 52L24 52L24 53L27 53L27 51L28 51L28 53L31 53L31 52L32 52L32 53L33 53L33 52L34 52L34 53L35 53L35 50L36 50L36 51L37 51L37 50L38 50L38 52L39 52L39 53L41 53L41 52L42 52L42 53L44 53L44 52L46 52L46 53L50 53L50 49L49 49L49 48L50 48L50 46L52 46L52 48L51 48L51 49L52 49L52 48L53 48L53 46L52 46L52 44L53 44L53 42L52 42L52 44L50 44L50 43L51 43L51 40L50 40L50 39L51 39L51 37L50 37L50 34L51 34L51 33L52 33L52 32L51 32L51 33L50 33L50 34L48 34L48 32L50 32L50 31L51 31L51 30L50 30L50 29L52 29L52 31L53 31L53 29L52 29L52 27L53 27L53 26L52 26L52 27L51 27L51 28L50 28L50 27L49 27L49 25L50 25L50 26L51 26L51 25L50 25L50 23L51 23L51 24L52 24L52 23L53 23L53 22L52 22L52 23L51 23L51 21L53 21L53 18L52 18L52 20L51 20L51 21L50 21L50 18L49 18L49 19L48 19L48 17L50 17L50 16L49 16L49 15L51 15L51 14L52 14L52 16L53 16L53 14L52 14L52 13L53 13L53 10L52 10L52 9L53 9L53 8L51 8L51 10L50 10L50 9L49 9L49 8L45 8L45 6L44 6L44 7L43 7L43 3L44 3L44 4L45 4L45 3L44 3L44 1L43 1L43 0L41 0L41 2L39 2L39 0L36 0L36 3L35 3L35 0L34 0L34 1L33 1L33 0L32 0L32 2L33 2L33 4L32 4L32 5L33 5L33 6L32 6L32 9L31 9L31 10L30 10L30 8L29 8L29 6L30 6L30 7L31 7L31 6L30 6L30 5L31 5L31 4L30 4L30 3L31 3L31 2L30 2L30 1L31 1L31 0L30 0L30 1L29 1L29 2L28 2L28 1L27 1L27 2L26 2L26 1L25 1L25 0L24 0L24 1L23 1L23 0L18 0L18 1L16 1L16 2L18 2L18 1L19 1L19 4L20 4L20 5L18 5L18 3L15 3L15 5L16 5L16 7L17 7L17 6L18 6L18 8L19 8L19 12L18 12L18 10L16 10L16 11L17 11L17 12L18 12L18 14L16 14L16 12L15 12L15 10L14 10L14 9L15 9L15 8L14 8L14 7L15 7L15 6L14 6L14 7L13 7L13 4L11 4L11 3L14 3L14 2L11 2L11 0ZM12 0L12 1L15 1L15 0ZM20 1L20 2L21 2L21 1ZM22 1L22 2L23 2L23 3L22 3L22 4L23 4L23 5L20 5L20 6L19 6L19 8L20 8L20 6L21 6L21 7L22 7L22 6L23 6L23 7L24 7L24 4L25 4L25 3L26 3L26 2L23 2L23 1ZM27 2L27 3L28 3L28 4L29 4L29 5L30 5L30 4L29 4L29 3L30 3L30 2L29 2L29 3L28 3L28 2ZM37 2L37 3L36 3L36 4L35 4L35 3L34 3L34 4L35 4L35 5L36 5L36 6L35 6L35 7L34 7L34 6L33 6L33 9L34 9L34 10L35 10L35 9L36 9L36 8L37 8L37 9L38 9L38 11L39 11L39 13L38 13L38 12L37 12L37 11L36 11L36 12L35 12L35 11L34 11L34 12L35 12L35 13L34 13L34 14L36 14L36 16L35 16L35 17L34 17L34 15L33 15L33 17L34 17L34 19L35 19L35 18L37 18L37 17L38 17L38 19L36 19L36 20L35 20L35 21L34 21L34 20L33 20L33 18L32 18L32 14L33 14L33 13L32 13L32 12L33 12L33 10L31 10L31 11L32 11L32 12L30 12L30 11L28 11L28 10L29 10L29 9L26 9L26 12L25 12L25 11L24 11L24 13L23 13L23 14L22 14L22 15L21 15L21 16L22 16L22 15L24 15L24 16L23 16L23 19L22 19L22 18L21 18L21 17L20 17L20 14L21 14L21 13L22 13L22 11L21 11L21 10L23 10L23 9L22 9L22 8L21 8L21 10L20 10L20 11L21 11L21 12L20 12L20 14L19 14L19 15L18 15L18 16L19 16L19 17L18 17L18 18L19 18L19 20L21 20L21 21L20 21L20 22L19 22L19 21L18 21L18 19L17 19L17 18L16 18L16 19L17 19L17 20L16 20L16 23L14 23L14 24L15 24L15 25L14 25L14 26L15 26L15 28L16 28L16 30L13 30L13 28L14 28L14 27L13 27L13 21L12 21L12 23L11 23L11 20L10 20L10 19L9 19L9 20L10 20L10 21L8 21L8 20L7 20L7 21L6 21L6 22L7 22L7 23L6 23L6 24L7 24L7 23L8 23L8 24L9 24L9 25L10 25L10 24L12 24L12 26L9 26L9 27L10 27L10 28L9 28L9 29L10 29L10 28L11 28L11 30L9 30L9 31L8 31L8 33L9 33L9 34L10 34L10 33L9 33L9 32L10 32L10 31L11 31L11 33L13 33L13 34L15 34L15 32L16 32L16 30L21 30L21 31L18 31L18 32L19 32L19 33L18 33L18 34L16 34L16 35L17 35L17 36L16 36L16 38L15 38L15 37L14 37L14 38L15 38L15 39L14 39L14 40L15 40L15 41L14 41L14 42L13 42L13 44L16 44L16 47L13 47L13 46L15 46L15 45L13 45L13 46L12 46L12 45L9 45L9 44L8 44L8 45L9 45L9 46L10 46L10 47L11 47L11 48L16 48L16 47L17 47L17 46L19 46L19 45L20 45L20 46L21 46L21 45L22 45L22 44L23 44L23 43L22 43L22 44L21 44L21 45L20 45L20 44L19 44L19 45L18 45L18 43L19 43L19 40L18 40L18 39L19 39L19 38L21 38L21 37L22 37L22 38L23 38L23 37L22 37L22 36L24 36L24 35L23 35L23 34L24 34L24 33L25 33L25 34L26 34L26 35L25 35L25 38L24 38L24 39L22 39L22 40L23 40L23 41L22 41L22 42L24 42L24 43L26 43L26 42L27 42L27 43L28 43L28 44L30 44L30 46L29 46L29 49L30 49L30 50L32 50L32 52L33 52L33 49L32 49L32 48L34 48L34 50L35 50L35 49L36 49L36 50L37 50L37 49L38 49L38 50L39 50L39 49L40 49L40 47L39 47L39 45L40 45L40 46L41 46L41 49L42 49L42 52L44 52L44 50L45 50L45 51L46 51L46 52L49 52L49 51L48 51L48 49L46 49L46 50L45 50L45 49L42 49L42 46L43 46L43 48L44 48L44 46L43 46L43 44L44 44L44 41L45 41L45 44L46 44L46 41L48 41L48 42L47 42L47 44L48 44L48 42L49 42L49 43L50 43L50 42L49 42L49 41L48 41L48 40L49 40L49 39L50 39L50 37L49 37L49 36L48 36L48 34L47 34L47 35L46 35L46 33L47 33L47 32L48 32L48 30L49 30L49 31L50 31L50 30L49 30L49 29L50 29L50 28L49 28L49 29L48 29L48 30L47 30L47 29L42 29L42 28L44 28L44 25L43 25L43 24L44 24L44 22L45 22L45 23L47 23L47 24L49 24L49 23L50 23L50 22L48 22L48 19L47 19L47 17L46 17L46 15L45 15L45 13L44 13L44 14L43 14L43 13L42 13L42 15L41 15L41 14L40 14L40 16L39 16L39 17L38 17L38 15L39 15L39 13L40 13L40 12L41 12L41 11L39 11L39 9L40 9L40 8L41 8L41 7L42 7L42 10L43 10L43 11L42 11L42 12L43 12L43 11L44 11L44 12L46 12L46 11L45 11L45 9L44 9L44 8L43 8L43 7L42 7L42 5L41 5L41 3L40 3L40 5L41 5L41 7L40 7L40 6L39 6L39 5L38 5L38 4L37 4L37 3L38 3L38 2ZM42 2L42 3L43 3L43 2ZM23 3L23 4L24 4L24 3ZM10 5L10 6L9 6L9 8L11 8L11 9L12 9L12 10L10 10L10 11L12 11L12 13L13 13L13 11L14 11L14 10L13 10L13 9L12 9L12 8L13 8L13 7L12 7L12 6L11 6L11 5ZM25 5L25 8L28 8L28 5ZM10 6L10 7L11 7L11 6ZM26 6L26 7L27 7L27 6ZM36 6L36 7L37 7L37 6ZM38 6L38 9L39 9L39 8L40 8L40 7L39 7L39 6ZM16 8L16 9L17 9L17 8ZM24 9L24 10L25 10L25 9ZM43 9L43 10L44 10L44 9ZM46 9L46 10L47 10L47 13L46 13L46 14L47 14L47 15L48 15L48 14L49 14L49 13L48 13L48 9ZM12 10L12 11L13 11L13 10ZM51 10L51 11L50 11L50 12L51 12L51 11L52 11L52 10ZM6 11L6 12L7 12L7 11ZM8 12L8 13L9 13L9 14L8 14L8 15L9 15L9 16L10 16L10 15L12 15L12 18L13 18L13 19L14 19L14 20L15 20L15 19L14 19L14 18L15 18L15 16L14 16L14 15L16 15L16 14L13 14L13 15L12 15L12 14L11 14L11 13L10 13L10 12ZM26 12L26 14L24 14L24 15L25 15L25 17L26 17L26 19L25 19L25 20L24 20L24 21L25 21L25 22L26 22L26 23L25 23L25 24L24 24L24 28L23 28L23 27L22 27L22 29L24 29L24 30L23 30L23 31L22 31L22 32L24 32L24 31L25 31L25 32L26 32L26 34L27 34L27 32L28 32L28 31L29 31L29 32L30 32L30 31L29 31L29 30L30 30L30 29L31 29L31 31L32 31L32 29L33 29L33 30L34 30L34 32L32 32L32 33L33 33L33 35L31 35L31 34L30 34L30 33L29 33L29 34L28 34L28 35L26 35L26 38L27 38L27 37L28 37L28 38L30 38L30 39L29 39L29 41L31 41L31 39L32 39L32 43L30 43L30 44L32 44L32 45L31 45L31 46L30 46L30 47L31 47L31 48L32 48L32 47L35 47L35 46L36 46L36 45L37 45L37 47L38 47L38 48L39 48L39 47L38 47L38 44L37 44L37 43L38 43L38 41L41 41L41 39L42 39L42 40L43 40L43 41L44 41L44 40L45 40L45 41L46 41L46 39L47 39L47 40L48 40L48 39L49 39L49 38L48 38L48 36L47 36L47 37L46 37L46 35L45 35L45 33L46 33L46 31L47 31L47 30L46 30L46 31L44 31L44 32L42 32L42 31L43 31L43 30L42 30L42 29L41 29L41 28L40 28L40 27L39 27L39 26L38 26L38 25L41 25L41 27L42 27L42 25L41 25L41 23L40 23L40 22L41 22L41 19L42 19L42 20L45 20L45 22L46 22L46 20L47 20L47 19L46 19L46 17L45 17L45 16L44 16L44 15L42 15L42 16L40 16L40 17L41 17L41 18L39 18L39 19L40 19L40 22L38 22L38 21L37 21L37 20L36 20L36 21L35 21L35 23L32 23L32 25L31 25L31 24L30 24L30 23L31 23L31 22L30 22L30 21L31 21L31 20L32 20L32 22L33 22L33 20L32 20L32 18L31 18L31 19L29 19L29 18L28 18L28 17L29 17L29 16L30 16L30 17L31 17L31 16L30 16L30 12L28 12L28 13L29 13L29 14L28 14L28 17L27 17L27 16L26 16L26 14L27 14L27 12ZM36 12L36 14L37 14L37 12ZM0 13L0 14L1 14L1 13ZM50 13L50 14L51 14L51 13ZM36 16L36 17L37 17L37 16ZM42 16L42 18L43 18L43 19L45 19L45 17L44 17L44 16ZM10 17L10 18L11 18L11 17ZM43 17L43 18L44 18L44 17ZM20 18L20 19L21 19L21 18ZM27 18L27 19L26 19L26 21L28 21L28 22L27 22L27 23L26 23L26 24L27 24L27 23L28 23L28 24L29 24L29 23L30 23L30 22L29 22L29 21L30 21L30 20L29 20L29 19L28 19L28 18ZM27 19L27 20L28 20L28 19ZM3 20L3 21L4 21L4 20ZM22 20L22 21L23 21L23 20ZM7 21L7 22L8 22L8 21ZM17 21L17 22L18 22L18 21ZM36 21L36 24L34 24L34 26L33 26L33 25L32 25L32 27L31 27L31 25L30 25L30 26L29 26L29 29L27 29L27 30L25 30L25 31L26 31L26 32L27 32L27 30L29 30L29 29L30 29L30 28L31 28L31 29L32 29L32 28L34 28L34 30L35 30L35 29L36 29L36 28L35 28L35 27L34 27L34 26L35 26L35 25L36 25L36 27L37 27L37 29L38 29L38 31L37 31L37 30L36 30L36 31L37 31L37 32L38 32L38 31L39 31L39 33L38 33L38 35L39 35L39 37L38 37L38 36L37 36L37 37L38 37L38 38L36 38L36 34L37 34L37 33L36 33L36 34L35 34L35 32L34 32L34 35L33 35L33 36L34 36L34 39L33 39L33 37L32 37L32 36L31 36L31 35L30 35L30 36L29 36L29 35L28 35L28 36L29 36L29 37L30 37L30 38L31 38L31 37L32 37L32 39L33 39L33 40L34 40L34 39L35 39L35 41L34 41L34 43L32 43L32 44L33 44L33 45L34 45L34 46L35 46L35 45L36 45L36 40L37 40L37 39L38 39L38 38L39 38L39 39L41 39L41 38L39 38L39 37L40 37L40 36L42 36L42 38L44 38L44 37L45 37L45 39L46 39L46 37L45 37L45 36L44 36L44 37L43 37L43 36L42 36L42 35L43 35L43 33L42 33L42 32L41 32L41 33L40 33L40 30L41 30L41 31L42 31L42 30L41 30L41 29L40 29L40 28L39 28L39 29L38 29L38 26L37 26L37 25L38 25L38 24L39 24L39 23L38 23L38 22L37 22L37 21ZM43 21L43 22L44 22L44 21ZM20 22L20 24L19 24L19 23L18 23L18 24L19 24L19 26L18 26L18 27L17 27L17 26L16 26L16 27L17 27L17 28L18 28L18 29L19 29L19 28L21 28L21 27L20 27L20 26L21 26L21 25L23 25L23 24L22 24L22 22ZM28 22L28 23L29 23L29 22ZM47 22L47 23L48 23L48 22ZM16 23L16 25L17 25L17 23ZM37 23L37 24L36 24L36 25L37 25L37 24L38 24L38 23ZM42 23L42 24L43 24L43 23ZM5 25L5 28L8 28L8 25ZM25 25L25 28L28 28L28 25ZM45 25L45 28L48 28L48 25ZM6 26L6 27L7 27L7 26ZM26 26L26 27L27 27L27 26ZM46 26L46 27L47 27L47 26ZM3 27L3 28L4 28L4 27ZM11 27L11 28L13 28L13 27ZM6 29L6 30L8 30L8 29ZM11 30L11 31L12 31L12 30ZM5 31L5 33L6 33L6 34L7 34L7 33L6 33L6 32L7 32L7 31ZM14 31L14 32L15 32L15 31ZM20 32L20 33L21 33L21 32ZM44 32L44 33L45 33L45 32ZM2 33L2 34L1 34L1 36L2 36L2 34L3 34L3 33ZM41 33L41 34L39 34L39 35L42 35L42 33ZM18 34L18 38L19 38L19 34ZM20 34L20 35L22 35L22 34ZM52 34L52 35L53 35L53 34ZM6 35L6 36L7 36L7 35ZM34 35L34 36L35 36L35 35ZM52 37L52 39L53 39L53 37ZM35 38L35 39L36 39L36 38ZM15 39L15 40L16 40L16 41L17 41L17 39ZM20 39L20 40L21 40L21 39ZM43 39L43 40L44 40L44 39ZM0 40L0 43L1 43L1 44L3 44L3 45L4 45L4 44L3 44L3 43L7 43L7 42L3 42L3 43L2 43L2 42L1 42L1 41L3 41L3 40ZM26 40L26 41L27 41L27 40ZM52 40L52 41L53 41L53 40ZM8 41L8 42L9 42L9 41ZM24 41L24 42L25 42L25 41ZM11 42L11 43L10 43L10 44L12 44L12 42ZM14 42L14 43L15 43L15 42ZM16 42L16 43L18 43L18 42ZM20 42L20 43L21 43L21 42ZM40 42L40 43L41 43L41 44L40 44L40 45L41 45L41 46L42 46L42 45L41 45L41 44L42 44L42 43L41 43L41 42ZM34 43L34 44L35 44L35 43ZM25 45L25 48L28 48L28 45ZM45 45L45 48L48 48L48 45ZM49 45L49 46L50 46L50 45ZM26 46L26 47L27 47L27 46ZM31 46L31 47L32 47L32 46ZM46 46L46 47L47 47L47 46ZM20 48L20 49L21 49L21 48ZM36 48L36 49L37 49L37 48ZM24 49L24 50L25 50L25 51L24 51L24 52L25 52L25 51L27 51L27 50L28 50L28 49ZM8 50L8 53L9 53L9 50ZM16 50L16 51L17 51L17 50ZM20 50L20 51L22 51L22 50ZM40 50L40 51L41 51L41 50ZM46 50L46 51L47 51L47 50ZM30 51L30 52L31 52L31 51ZM20 52L20 53L21 53L21 52ZM36 52L36 53L37 53L37 52ZM52 52L52 53L53 53L53 52ZM0 0L0 7L7 7L7 0ZM1 1L1 6L6 6L6 1ZM2 2L2 5L5 5L5 2ZM46 0L46 7L53 7L53 0ZM47 1L47 6L52 6L52 1ZM48 2L48 5L51 5L51 2ZM0 46L0 53L7 53L7 46ZM1 47L1 52L6 52L6 47ZM2 48L2 51L5 51L5 48Z" fill="#000000"/></g></g></svg>
