<?xml version="1.0" encoding="UTF-8"?>
<svg xmlns="http://www.w3.org/2000/svg" version="1.1" width="356" height="356" viewBox="0 0 356 356"><rect x="0" y="0" width="356" height="356" fill="#ffffff"/><g transform="scale(6.717)"><g transform="translate(0,0)"><path fill-rule="evenodd" d="M8 0L8 2L10 2L10 4L8 4L8 10L6 10L6 9L7 9L7 8L5 8L5 10L4 10L4 11L3 11L3 12L2 12L2 11L1 11L1 10L3 10L3 8L0 8L0 9L1 9L1 10L0 10L0 11L1 11L1 13L0 13L0 16L1 16L1 15L2 15L2 16L3 16L3 15L4 15L4 17L3 17L3 18L2 18L2 17L1 17L1 18L0 18L0 20L1 20L1 21L2 21L2 22L3 22L3 21L4 21L4 20L3 20L3 21L2 21L2 20L1 20L1 18L2 18L2 19L4 19L4 18L5 18L5 17L8 17L8 16L5 16L5 15L4 15L4 14L5 14L5 13L4 13L4 11L5 11L5 12L6 12L6 13L7 13L7 14L6 14L6 15L7 15L7 14L8 14L8 11L10 11L10 12L9 12L9 14L10 14L10 16L11 16L11 12L12 12L12 13L13 13L13 16L12 16L12 17L9 17L9 20L10 20L10 18L13 18L13 19L14 19L14 20L11 20L11 21L10 21L10 22L6 22L6 23L5 23L5 22L4 22L4 23L2 23L2 25L1 25L1 24L0 24L0 25L1 25L1 26L0 26L0 29L1 29L1 30L2 30L2 31L1 31L1 36L3 36L3 37L2 37L2 39L1 39L1 38L0 38L0 39L1 39L1 40L0 40L0 41L1 41L1 40L2 40L2 41L3 41L3 43L2 43L2 42L0 42L0 43L1 43L1 44L3 44L3 45L4 45L4 44L3 44L3 43L7 43L7 44L6 44L6 45L8 45L8 46L9 46L9 45L11 45L11 46L10 46L10 47L8 47L8 48L10 48L10 47L11 47L11 50L10 50L10 49L9 49L9 50L8 50L8 53L9 53L9 51L10 51L10 53L13 53L13 52L11 52L11 51L13 51L13 50L12 50L12 49L14 49L14 48L15 48L15 47L16 47L16 49L17 49L17 47L16 47L16 44L17 44L17 43L18 43L18 45L19 45L19 46L20 46L20 47L18 47L18 48L19 48L19 52L18 52L18 50L16 50L16 51L17 51L17 52L18 52L18 53L19 53L19 52L20 52L20 53L21 53L21 52L22 52L22 53L23 53L23 52L22 52L22 51L20 51L20 50L22 50L22 49L23 49L23 50L24 50L24 49L25 49L25 51L24 51L24 53L26 53L26 52L25 52L25 51L27 51L27 53L29 53L29 52L30 52L30 51L28 51L28 50L26 50L26 49L29 49L29 50L30 50L30 49L29 49L29 48L30 48L30 45L31 45L31 46L32 46L32 47L31 47L31 48L32 48L32 49L33 49L33 52L32 52L32 50L31 50L31 52L32 52L32 53L33 53L33 52L34 52L34 53L35 53L35 50L34 50L34 48L32 48L32 47L34 47L34 44L35 44L35 43L36 43L36 45L37 45L37 46L36 46L36 47L38 47L38 48L36 48L36 49L37 49L37 50L36 50L36 51L37 51L37 52L36 52L36 53L37 53L37 52L38 52L38 53L39 53L39 51L41 51L41 50L42 50L42 53L44 53L44 51L45 51L45 53L46 53L46 51L45 51L45 50L46 50L46 49L48 49L48 51L49 51L49 52L47 52L47 53L51 53L51 52L50 52L50 51L51 51L51 50L50 50L50 49L49 49L49 48L50 48L50 46L51 46L51 45L52 45L52 47L53 47L53 45L52 45L52 43L53 43L53 42L52 42L52 43L51 43L51 40L52 40L52 41L53 41L53 37L51 37L51 36L50 36L50 35L49 35L49 36L50 36L50 39L49 39L49 38L48 38L48 35L47 35L47 34L48 34L48 33L49 33L49 34L50 34L50 33L49 33L49 32L50 32L50 31L51 31L51 33L53 33L53 32L52 32L52 31L53 31L53 30L52 30L52 31L51 31L51 30L50 30L50 29L52 29L52 27L53 27L53 26L52 26L52 27L51 27L51 25L50 25L50 23L51 23L51 21L53 21L53 18L52 18L52 20L50 20L50 18L51 18L51 17L50 17L50 16L49 16L49 15L51 15L51 16L52 16L52 17L53 17L53 14L52 14L52 13L53 13L53 10L52 10L52 9L53 9L53 8L51 8L51 9L50 9L50 11L49 11L49 8L44 8L44 7L45 7L45 6L44 6L44 7L43 7L43 3L44 3L44 4L45 4L45 3L44 3L44 1L43 1L43 0L40 0L40 1L39 1L39 0L38 0L38 7L37 7L37 6L36 6L36 2L37 2L37 0L36 0L36 2L35 2L35 0L34 0L34 1L33 1L33 0L32 0L32 2L31 2L31 0L30 0L30 2L31 2L31 4L30 4L30 3L29 3L29 4L25 4L25 1L26 1L26 0L24 0L24 1L23 1L23 0L21 0L21 1L20 1L20 2L21 2L21 1L22 1L22 2L23 2L23 3L24 3L24 7L23 7L23 4L22 4L22 3L19 3L19 4L20 4L20 5L19 5L19 6L18 6L18 7L17 7L17 5L18 5L18 3L17 3L17 2L18 2L18 1L19 1L19 0L14 0L14 1L15 1L15 5L13 5L13 6L12 6L12 4L11 4L11 2L10 2L10 1L11 1L11 0ZM12 0L12 2L13 2L13 3L14 3L14 2L13 2L13 0ZM27 0L27 2L26 2L26 3L28 3L28 1L29 1L29 0ZM16 1L16 2L17 2L17 1ZM40 1L40 2L39 2L39 3L40 3L40 5L39 5L39 9L37 9L37 11L35 11L35 13L34 13L34 12L33 12L33 13L34 13L34 14L33 14L33 17L34 17L34 20L35 20L35 21L34 21L34 22L32 22L32 19L33 19L33 18L32 18L32 15L30 15L30 14L31 14L31 13L30 13L30 14L29 14L29 13L28 13L28 14L27 14L27 15L26 15L26 14L25 14L25 15L24 15L24 14L23 14L23 13L22 13L22 11L24 11L24 13L26 13L26 12L27 12L27 11L28 11L28 12L29 12L29 11L28 11L28 10L26 10L26 9L24 9L24 8L23 8L23 9L24 9L24 10L22 10L22 11L20 11L20 10L21 10L21 9L20 9L20 6L21 6L21 8L22 8L22 4L21 4L21 5L20 5L20 6L19 6L19 7L18 7L18 8L19 8L19 9L18 9L18 12L16 12L16 14L15 14L15 15L14 15L14 16L15 16L15 17L14 17L14 18L15 18L15 20L16 20L16 23L15 23L15 22L13 22L13 21L11 21L11 22L10 22L10 23L13 23L13 24L10 24L10 25L9 25L9 26L11 26L11 25L13 25L13 26L12 26L12 27L11 27L11 28L12 28L12 27L13 27L13 30L12 30L12 31L11 31L11 30L10 30L10 28L9 28L9 31L8 31L8 29L6 29L6 30L5 30L5 29L4 29L4 30L5 30L5 32L9 32L9 34L8 34L8 33L5 33L5 35L6 35L6 36L5 36L5 37L6 37L6 38L3 38L3 39L2 39L2 40L3 40L3 41L4 41L4 40L5 40L5 42L7 42L7 43L8 43L8 45L9 45L9 43L10 43L10 44L13 44L13 45L14 45L14 46L13 46L13 47L15 47L15 43L14 43L14 44L13 44L13 43L10 43L10 42L9 42L9 41L8 41L8 42L7 42L7 41L6 41L6 40L7 40L7 39L8 39L8 40L10 40L10 39L11 39L11 40L13 40L13 41L12 41L12 42L15 42L15 40L14 40L14 39L17 39L17 38L18 38L18 34L19 34L19 32L21 32L21 31L19 31L19 30L22 30L22 28L23 28L23 29L24 29L24 28L23 28L23 27L24 27L24 26L23 26L23 24L22 24L22 23L24 23L24 24L25 24L25 23L24 23L24 20L25 20L25 21L26 21L26 22L27 22L27 23L26 23L26 24L27 24L27 23L28 23L28 22L29 22L29 23L30 23L30 24L29 24L29 25L30 25L30 26L29 26L29 29L25 29L25 30L24 30L24 31L22 31L22 32L23 32L23 33L22 33L22 34L20 34L20 35L22 35L22 36L19 36L19 38L21 38L21 39L20 39L20 40L19 40L19 39L18 39L18 40L19 40L19 41L18 41L18 43L19 43L19 45L20 45L20 46L22 46L22 43L23 43L23 44L27 44L27 43L28 43L28 44L29 44L29 43L30 43L30 44L31 44L31 45L32 45L32 46L33 46L33 45L32 45L32 44L31 44L31 43L32 43L32 39L33 39L33 40L34 40L34 38L36 38L36 39L35 39L35 41L34 41L34 43L33 43L33 44L34 44L34 43L35 43L35 42L36 42L36 43L37 43L37 44L38 44L38 42L39 42L39 40L38 40L38 42L37 42L37 41L36 41L36 39L39 39L39 38L40 38L40 39L41 39L41 38L40 38L40 36L41 36L41 35L42 35L42 36L43 36L43 35L42 35L42 34L43 34L43 31L44 31L44 30L45 30L45 31L46 31L46 32L47 32L47 33L46 33L46 34L45 34L45 33L44 33L44 36L45 36L45 35L46 35L46 34L47 34L47 33L48 33L48 30L49 30L49 31L50 31L50 30L49 30L49 29L50 29L50 28L51 28L51 27L50 27L50 26L49 26L49 27L50 27L50 28L49 28L49 29L48 29L48 30L47 30L47 31L46 31L46 29L44 29L44 26L43 26L43 25L42 25L42 24L44 24L44 23L45 23L45 24L46 24L46 22L47 22L47 24L49 24L49 23L50 23L50 22L49 22L49 21L48 21L48 22L47 22L47 17L46 17L46 15L47 15L47 14L49 14L49 13L50 13L50 14L51 14L51 15L52 15L52 14L51 14L51 11L52 11L52 10L51 10L51 11L50 11L50 12L49 12L49 11L48 11L48 9L46 9L46 10L47 10L47 11L48 11L48 12L47 12L47 13L46 13L46 11L45 11L45 9L44 9L44 8L43 8L43 7L42 7L42 6L41 6L41 3L40 3L40 2L42 2L42 3L43 3L43 2L42 2L42 1ZM34 2L34 3L32 3L32 5L30 5L30 4L29 4L29 7L30 7L30 8L31 8L31 9L30 9L30 10L31 10L31 11L30 11L30 12L31 12L31 11L33 11L33 10L31 10L31 9L32 9L32 6L33 6L33 9L34 9L34 10L35 10L35 9L36 9L36 8L37 8L37 7L36 7L36 6L35 6L35 5L34 5L34 4L35 4L35 2ZM9 5L9 8L11 8L11 9L10 9L10 11L14 11L14 12L15 12L15 11L14 11L14 10L15 10L15 8L17 8L17 7L16 7L16 5L15 5L15 8L14 8L14 6L13 6L13 10L12 10L12 8L11 8L11 7L12 7L12 6L11 6L11 7L10 7L10 5ZM25 5L25 8L28 8L28 5ZM26 6L26 7L27 7L27 6ZM30 6L30 7L31 7L31 6ZM34 6L34 7L35 7L35 6ZM40 6L40 7L41 7L41 8L40 8L40 9L41 9L41 10L40 10L40 11L38 11L38 12L39 12L39 14L38 14L38 13L37 13L37 12L36 12L36 13L37 13L37 14L36 14L36 15L35 15L35 14L34 14L34 17L35 17L35 16L36 16L36 17L37 17L37 18L35 18L35 19L37 19L37 18L38 18L38 21L37 21L37 20L36 20L36 21L35 21L35 22L34 22L34 23L32 23L32 22L31 22L31 23L32 23L32 25L31 25L31 27L30 27L30 29L29 29L29 30L28 30L28 31L27 31L27 30L26 30L26 31L25 31L25 32L24 32L24 34L23 34L23 35L25 35L25 36L26 36L26 37L24 37L24 38L23 38L23 39L22 39L22 40L23 40L23 41L24 41L24 42L23 42L23 43L24 43L24 42L25 42L25 43L26 43L26 42L28 42L28 43L29 43L29 42L30 42L30 43L31 43L31 42L30 42L30 40L31 40L31 39L32 39L32 38L30 38L30 36L32 36L32 37L33 37L33 38L34 38L34 37L35 37L35 35L36 35L36 37L37 37L37 38L38 38L38 37L39 37L39 35L41 35L41 34L42 34L42 31L43 31L43 30L42 30L42 29L41 29L41 28L43 28L43 26L42 26L42 25L41 25L41 23L44 23L44 21L45 21L45 22L46 22L46 20L45 20L45 19L46 19L46 17L45 17L45 15L44 15L44 13L45 13L45 12L43 12L43 15L42 15L42 11L41 11L41 10L42 10L42 9L41 9L41 8L42 8L42 7L41 7L41 6ZM43 9L43 10L44 10L44 9ZM16 10L16 11L17 11L17 10ZM24 10L24 11L25 11L25 12L26 12L26 11L25 11L25 10ZM6 11L6 12L7 12L7 11ZM18 12L18 14L20 14L20 16L19 16L19 15L18 15L18 16L19 16L19 18L16 18L16 19L18 19L18 21L17 21L17 23L16 23L16 24L15 24L15 23L14 23L14 24L15 24L15 26L13 26L13 27L15 27L15 28L14 28L14 29L15 29L15 30L13 30L13 34L12 34L12 35L11 35L11 34L9 34L9 35L7 35L7 34L6 34L6 35L7 35L7 36L6 36L6 37L7 37L7 38L6 38L6 39L7 39L7 38L8 38L8 39L10 39L10 38L11 38L11 39L13 39L13 38L14 38L14 37L15 37L15 38L16 38L16 36L14 36L14 35L13 35L13 34L14 34L14 33L15 33L15 32L14 32L14 31L15 31L15 30L16 30L16 33L17 33L17 30L16 30L16 28L18 28L18 29L19 29L19 26L18 26L18 25L19 25L19 24L18 24L18 23L19 23L19 22L20 22L20 25L21 25L21 22L22 22L22 21L23 21L23 20L24 20L24 19L25 19L25 20L26 20L26 21L27 21L27 20L26 20L26 19L25 19L25 18L24 18L24 17L23 17L23 16L24 16L24 15L23 15L23 16L22 16L22 14L20 14L20 12ZM48 12L48 13L49 13L49 12ZM2 13L2 14L3 14L3 13ZM40 13L40 16L39 16L39 15L38 15L38 14L37 14L37 15L36 15L36 16L37 16L37 17L38 17L38 18L39 18L39 19L40 19L40 20L39 20L39 21L38 21L38 22L35 22L35 23L36 23L36 24L34 24L34 26L33 26L33 25L32 25L32 27L33 27L33 29L32 29L32 28L31 28L31 29L30 29L30 30L31 30L31 29L32 29L32 31L31 31L31 33L30 33L30 31L28 31L28 32L27 32L27 31L26 31L26 32L25 32L25 34L26 34L26 36L27 36L27 37L28 37L28 38L25 38L25 39L24 39L24 41L25 41L25 40L26 40L26 39L28 39L28 40L27 40L27 41L28 41L28 42L29 42L29 41L28 41L28 40L29 40L29 39L28 39L28 38L29 38L29 37L28 37L28 36L29 36L29 35L28 35L28 32L29 32L29 33L30 33L30 34L31 34L31 35L32 35L32 36L34 36L34 35L35 35L35 32L34 32L34 31L35 31L35 29L36 29L36 31L37 31L37 33L38 33L38 34L41 34L41 33L39 33L39 31L37 31L37 29L36 29L36 28L38 28L38 30L39 30L39 28L38 28L38 27L39 27L39 21L40 21L40 20L41 20L41 21L42 21L42 22L43 22L43 21L42 21L42 20L41 20L41 19L43 19L43 17L44 17L44 18L45 18L45 17L44 17L44 16L43 16L43 17L40 17L40 16L42 16L42 15L41 15L41 13ZM16 14L16 15L15 15L15 16L16 16L16 17L17 17L17 14ZM28 14L28 15L29 15L29 16L30 16L30 17L29 17L29 18L28 18L28 16L26 16L26 15L25 15L25 17L27 17L27 18L28 18L28 19L30 19L30 21L29 21L29 20L28 20L28 21L29 21L29 22L30 22L30 21L31 21L31 19L32 19L32 18L31 18L31 19L30 19L30 17L31 17L31 16L30 16L30 15L29 15L29 14ZM37 15L37 16L38 16L38 17L39 17L39 16L38 16L38 15ZM21 17L21 18L20 18L20 19L21 19L21 21L20 21L20 22L21 22L21 21L22 21L22 19L23 19L23 17ZM48 17L48 19L49 19L49 18L50 18L50 17ZM6 18L6 19L5 19L5 20L6 20L6 21L7 21L7 20L6 20L6 19L7 19L7 18ZM40 18L40 19L41 19L41 18ZM18 21L18 22L19 22L19 21ZM48 22L48 23L49 23L49 22ZM52 22L52 24L53 24L53 22ZM6 23L6 24L7 24L7 23ZM3 24L3 25L2 25L2 26L1 26L1 27L2 27L2 28L1 28L1 29L2 29L2 28L3 28L3 27L2 27L2 26L3 26L3 25L4 25L4 24ZM36 24L36 25L35 25L35 26L34 26L34 29L33 29L33 30L34 30L34 29L35 29L35 27L36 27L36 25L38 25L38 24ZM5 25L5 28L8 28L8 25ZM25 25L25 28L28 28L28 25ZM40 25L40 27L42 27L42 26L41 26L41 25ZM45 25L45 28L48 28L48 25ZM6 26L6 27L7 27L7 26ZM16 26L16 27L18 27L18 26ZM20 26L20 27L21 27L21 28L22 28L22 27L23 27L23 26L22 26L22 27L21 27L21 26ZM26 26L26 27L27 27L27 26ZM46 26L46 27L47 27L47 26ZM40 29L40 31L41 31L41 29ZM6 30L6 31L7 31L7 30ZM2 31L2 32L3 32L3 33L2 33L2 35L3 35L3 36L4 36L4 35L3 35L3 33L4 33L4 31ZM9 31L9 32L11 32L11 31ZM18 31L18 32L19 32L19 31ZM26 32L26 33L27 33L27 32ZM32 32L32 33L33 33L33 35L34 35L34 32ZM16 34L16 35L17 35L17 34ZM52 34L52 35L53 35L53 34ZM27 35L27 36L28 36L28 35ZM7 36L7 37L8 37L8 36ZM11 36L11 38L12 38L12 36ZM13 36L13 37L14 37L14 36ZM22 36L22 37L23 37L23 36ZM37 36L37 37L38 37L38 36ZM46 36L46 37L44 37L44 39L43 39L43 37L42 37L42 42L41 42L41 43L43 43L43 40L44 40L44 39L46 39L46 42L45 42L45 41L44 41L44 44L45 44L45 43L46 43L46 44L47 44L47 43L48 43L48 42L49 42L49 46L50 46L50 45L51 45L51 43L50 43L50 41L48 41L48 40L49 40L49 39L48 39L48 40L47 40L47 39L46 39L46 37L47 37L47 36ZM9 37L9 38L10 38L10 37ZM50 39L50 40L51 40L51 39ZM20 40L20 41L21 41L21 40ZM47 41L47 42L46 42L46 43L47 43L47 42L48 42L48 41ZM16 42L16 43L17 43L17 42ZM20 42L20 43L22 43L22 42ZM39 43L39 45L38 45L38 46L39 46L39 47L40 47L40 48L38 48L38 50L37 50L37 51L38 51L38 50L40 50L40 48L44 48L44 47L43 47L43 45L42 45L42 47L41 47L41 45L40 45L40 43ZM20 44L20 45L21 45L21 44ZM25 45L25 48L28 48L28 45ZM39 45L39 46L40 46L40 45ZM45 45L45 48L48 48L48 45ZM11 46L11 47L12 47L12 46ZM23 46L23 47L22 47L22 48L24 48L24 46ZM26 46L26 47L27 47L27 46ZM46 46L46 47L47 47L47 46ZM20 47L20 48L21 48L21 47ZM52 48L52 49L53 49L53 48ZM42 49L42 50L43 50L43 49ZM14 51L14 52L15 52L15 53L16 53L16 52L15 52L15 51ZM40 52L40 53L41 53L41 52ZM52 52L52 53L53 53L53 52ZM0 0L0 7L7 7L7 0ZM1 1L1 6L6 6L6 1ZM2 2L2 5L5 5L5 2ZM46 0L46 7L53 7L53 0ZM47 1L47 6L52 6L52 1ZM48 2L48 5L51 5L51 2ZM0 46L0 53L7 53L7 46ZM1 47L1 52L6 52L6 47ZM2 48L2 51L5 51L5 48Z" fill="#000000"/></g></g></svg>
