<?xml version="1.0" encoding="UTF-8"?>
<svg xmlns="http://www.w3.org/2000/svg" version="1.1" width="356" height="356" viewBox="0 0 356 356"><rect x="0" y="0" width="356" height="356" fill="#ffffff"/><g transform="scale(6.717)"><g transform="translate(0,0)"><path fill-rule="evenodd" d="M10 0L10 1L8 1L8 2L9 2L9 3L8 3L8 4L9 4L9 3L14 3L14 2L12 2L12 0ZM16 0L16 1L15 1L15 2L16 2L16 4L13 4L13 5L12 5L12 7L13 7L13 8L11 8L11 6L10 6L10 5L8 5L8 7L9 7L9 6L10 6L10 8L6 8L6 9L5 9L5 8L0 8L0 9L1 9L1 11L0 11L0 13L1 13L1 16L0 16L0 17L1 17L1 18L0 18L0 20L1 20L1 21L0 21L0 22L1 22L1 21L2 21L2 23L3 23L3 22L4 22L4 25L3 25L3 24L0 24L0 27L1 27L1 25L3 25L3 26L2 26L2 27L3 27L3 28L2 28L2 30L1 30L1 31L0 31L0 33L2 33L2 35L3 35L3 36L4 36L4 37L5 37L5 39L7 39L7 38L6 38L6 37L8 37L8 39L9 39L9 37L10 37L10 38L11 38L11 39L12 39L12 40L9 40L9 42L10 42L10 41L11 41L11 43L12 43L12 45L11 45L11 49L10 49L10 50L11 50L11 51L9 51L9 48L8 48L8 53L9 53L9 52L10 52L10 53L13 53L13 51L14 51L14 53L20 53L20 52L19 52L19 51L20 51L20 50L19 50L19 49L20 49L20 44L21 44L21 43L22 43L22 42L21 42L21 41L22 41L22 40L21 40L21 41L18 41L18 40L17 40L17 39L18 39L18 38L16 38L16 40L17 40L17 41L18 41L18 42L20 42L20 43L19 43L19 44L16 44L16 43L15 43L15 44L14 44L14 43L12 43L12 40L14 40L14 39L13 39L13 38L11 38L11 37L14 37L14 36L12 36L12 35L13 35L13 33L16 33L16 34L15 34L15 35L16 35L16 36L15 36L15 37L22 37L22 38L21 38L21 39L22 39L22 38L23 38L23 37L24 37L24 36L25 36L25 37L26 37L26 36L27 36L27 35L28 35L28 34L30 34L30 35L29 35L29 36L30 36L30 37L28 37L28 39L29 39L29 41L27 41L27 43L29 43L29 44L26 44L26 42L25 42L25 44L24 44L24 43L23 43L23 44L24 44L24 47L23 47L23 46L22 46L22 45L21 45L21 46L22 46L22 47L21 47L21 48L22 48L22 49L21 49L21 50L22 50L22 49L23 49L23 48L24 48L24 50L25 50L25 51L23 51L23 53L26 53L26 51L27 51L27 52L28 52L28 51L29 51L29 50L31 50L31 49L32 49L32 47L29 47L29 46L31 46L31 45L32 45L32 46L33 46L33 49L37 49L37 50L38 50L38 49L39 49L39 50L41 50L41 51L38 51L38 52L37 52L37 51L36 51L36 50L35 50L35 51L34 51L34 50L32 50L32 51L31 51L31 52L33 52L33 51L34 51L34 52L35 52L35 53L38 53L38 52L41 52L41 51L42 51L42 50L43 50L43 52L45 52L45 53L47 53L47 52L45 52L45 51L44 51L44 49L45 49L45 50L46 50L46 49L49 49L49 50L47 50L47 51L48 51L48 53L51 53L51 52L52 52L52 51L53 51L53 50L52 50L52 49L53 49L53 48L52 48L52 49L51 49L51 48L50 48L50 47L51 47L51 45L53 45L53 43L51 43L51 45L50 45L50 42L52 42L52 41L49 41L49 40L50 40L50 38L52 38L52 37L53 37L53 36L52 36L52 35L51 35L51 34L52 34L52 33L53 33L53 32L50 32L50 26L52 26L52 25L51 25L51 24L50 24L50 22L52 22L52 20L53 20L53 19L51 19L51 18L52 18L52 17L53 17L53 16L52 16L52 17L51 17L51 16L50 16L50 17L51 17L51 18L50 18L50 19L48 19L48 20L47 20L47 18L49 18L49 16L48 16L48 14L47 14L47 15L43 15L43 17L39 17L39 16L38 16L38 17L37 17L37 15L41 15L41 16L42 16L42 15L41 15L41 14L44 14L44 13L41 13L41 14L37 14L37 13L38 13L38 12L39 12L39 11L40 11L40 10L42 10L42 11L43 11L43 12L44 12L44 11L45 11L45 12L47 12L47 13L49 13L49 14L50 14L50 11L51 11L51 9L52 9L52 8L51 8L51 9L50 9L50 8L49 8L49 9L50 9L50 11L49 11L49 10L47 10L47 11L46 11L46 10L44 10L44 9L43 9L43 8L45 8L45 9L46 9L46 8L45 8L45 6L44 6L44 7L43 7L43 3L44 3L44 4L45 4L45 3L44 3L44 1L43 1L43 0L40 0L40 1L42 1L42 2L43 2L43 3L41 3L41 2L39 2L39 1L38 1L38 0L35 0L35 1L34 1L34 2L33 2L33 1L32 1L32 0L29 0L29 1L32 1L32 2L31 2L31 4L28 4L28 2L27 2L27 3L24 3L24 2L26 2L26 1L25 1L25 0L23 0L23 3L24 3L24 4L23 4L23 5L24 5L24 8L23 8L23 6L22 6L22 4L21 4L21 3L22 3L22 2L21 2L21 3L18 3L18 2L20 2L20 1L19 1L19 0ZM10 1L10 2L11 2L11 1ZM35 1L35 3L32 3L32 4L34 4L34 5L32 5L32 6L31 6L31 8L30 8L30 5L29 5L29 9L27 9L27 10L26 10L26 9L25 9L25 10L26 10L26 13L25 13L25 15L26 15L26 17L25 17L25 18L24 18L24 17L23 17L23 16L22 16L22 17L21 17L21 16L20 16L20 15L21 15L21 14L22 14L22 13L24 13L24 12L23 12L23 11L24 11L24 9L23 9L23 8L22 8L22 6L21 6L21 4L20 4L20 6L19 6L19 4L16 4L16 5L18 5L18 6L17 6L17 7L16 7L16 6L15 6L15 5L13 5L13 7L14 7L14 8L13 8L13 9L11 9L11 8L10 8L10 9L11 9L11 10L10 10L10 11L9 11L9 9L8 9L8 11L5 11L5 10L4 10L4 9L2 9L2 11L1 11L1 13L2 13L2 15L3 15L3 16L1 16L1 17L3 17L3 16L5 16L5 17L6 17L6 18L8 18L8 19L13 19L13 18L14 18L14 20L12 20L12 21L11 21L11 20L8 20L8 21L6 21L6 22L8 22L8 23L10 23L10 24L9 24L9 25L10 25L10 24L12 24L12 25L11 25L11 26L13 26L13 28L11 28L11 27L10 27L10 26L9 26L9 28L11 28L11 29L10 29L10 30L11 30L11 29L12 29L12 31L11 31L11 32L9 32L9 33L10 33L10 35L9 35L9 34L7 34L7 33L8 33L8 32L7 32L7 31L6 31L6 30L8 30L8 31L9 31L9 30L8 30L8 29L6 29L6 30L4 30L4 29L3 29L3 30L4 30L4 31L3 31L3 32L2 32L2 31L1 31L1 32L2 32L2 33L3 33L3 32L4 32L4 36L5 36L5 37L6 37L6 36L8 36L8 37L9 37L9 36L11 36L11 35L12 35L12 32L14 32L14 31L13 31L13 29L15 29L15 31L18 31L18 29L15 29L15 28L14 28L14 27L16 27L16 28L17 28L17 26L18 26L18 25L21 25L21 24L22 24L22 26L21 26L21 28L22 28L22 29L19 29L19 32L20 32L20 33L19 33L19 34L20 34L20 35L17 35L17 36L21 36L21 33L22 33L22 35L23 35L23 36L22 36L22 37L23 37L23 36L24 36L24 35L25 35L25 34L26 34L26 35L27 35L27 34L26 34L26 33L27 33L27 32L28 32L28 33L29 33L29 30L30 30L30 32L32 32L32 33L31 33L31 34L35 34L35 33L36 33L36 32L37 32L37 33L38 33L38 34L37 34L37 37L35 37L35 36L36 36L36 35L33 35L33 36L31 36L31 37L32 37L32 38L33 38L33 39L34 39L34 38L35 38L35 40L34 40L34 41L33 41L33 40L32 40L32 39L30 39L30 38L29 38L29 39L30 39L30 40L32 40L32 41L31 41L31 42L32 42L32 43L30 43L30 44L29 44L29 45L31 45L31 44L32 44L32 45L33 45L33 46L34 46L34 48L36 48L36 47L38 47L38 48L39 48L39 49L44 49L44 46L43 46L43 48L41 48L41 47L42 47L42 46L41 46L41 45L42 45L42 44L41 44L41 41L42 41L42 40L39 40L39 41L38 41L38 40L37 40L37 41L35 41L35 40L36 40L36 39L40 39L40 38L39 38L39 37L43 37L43 42L46 42L46 43L45 43L45 44L46 44L46 43L47 43L47 44L49 44L49 42L47 42L47 41L46 41L46 39L48 39L48 38L46 38L46 37L49 37L49 38L50 38L50 36L51 36L51 37L52 37L52 36L51 36L51 35L50 35L50 33L49 33L49 35L47 35L47 34L46 34L46 33L47 33L47 32L49 32L49 31L47 31L47 30L44 30L44 27L43 27L43 28L42 28L42 27L40 27L40 28L39 28L39 29L38 29L38 28L37 28L37 26L41 26L41 22L42 22L42 24L43 24L43 26L44 26L44 24L45 24L45 23L44 23L44 22L46 22L46 23L47 23L47 24L48 24L48 23L47 23L47 21L44 21L44 20L45 20L45 19L43 19L43 20L42 20L42 21L41 21L41 20L39 20L39 19L42 19L42 18L39 18L39 17L38 17L38 19L37 19L37 21L38 21L38 22L35 22L35 21L33 21L33 19L32 19L32 17L33 17L33 18L35 18L35 20L36 20L36 17L35 17L35 16L32 16L32 15L35 15L35 13L33 13L33 12L32 12L32 11L31 11L31 10L29 10L29 9L31 9L31 8L32 8L32 9L33 9L33 10L34 10L34 12L36 12L36 10L37 10L37 9L38 9L38 11L37 11L37 12L38 12L38 11L39 11L39 10L40 10L40 9L41 9L41 7L42 7L42 6L41 6L41 7L40 7L40 6L39 6L39 4L41 4L41 3L38 3L38 5L37 5L37 7L38 7L38 8L37 8L37 9L36 9L36 10L35 10L35 9L34 9L34 8L36 8L36 6L35 6L35 7L34 7L34 5L36 5L36 4L35 4L35 3L36 3L36 2L37 2L37 1ZM25 5L25 8L28 8L28 5ZM14 6L14 7L15 7L15 8L16 8L16 7L15 7L15 6ZM18 6L18 7L19 7L19 6ZM20 6L20 8L21 8L21 6ZM26 6L26 7L27 7L27 6ZM32 6L32 8L34 8L34 7L33 7L33 6ZM38 6L38 7L39 7L39 6ZM17 8L17 9L18 9L18 10L20 10L20 11L17 11L17 12L16 12L16 11L15 11L15 13L12 13L12 12L8 12L8 14L10 14L10 15L8 15L8 16L6 16L6 15L7 15L7 14L5 14L5 13L7 13L7 12L3 12L3 11L4 11L4 10L3 10L3 11L2 11L2 12L3 12L3 13L4 13L4 14L3 14L3 15L5 15L5 16L6 16L6 17L9 17L9 16L10 16L10 17L12 17L12 18L13 18L13 17L16 17L16 18L15 18L15 19L16 19L16 20L15 20L15 21L12 21L12 23L13 23L13 24L14 24L14 23L13 23L13 22L15 22L15 24L17 24L17 25L18 25L18 24L17 24L17 23L18 23L18 22L19 22L19 23L20 23L20 24L21 24L21 23L24 23L24 27L23 27L23 26L22 26L22 27L23 27L23 28L24 28L24 29L25 29L25 30L24 30L24 31L25 31L25 30L26 30L26 32L25 32L25 33L23 33L23 29L22 29L22 31L21 31L21 32L22 32L22 33L23 33L23 34L25 34L25 33L26 33L26 32L27 32L27 31L28 31L28 30L29 30L29 29L30 29L30 30L31 30L31 29L32 29L32 30L33 30L33 33L35 33L35 32L36 32L36 31L34 31L34 30L33 30L33 29L32 29L32 27L33 27L33 26L32 26L32 24L33 24L33 25L35 25L35 26L37 26L37 25L38 25L38 24L37 24L37 23L35 23L35 22L33 22L33 21L32 21L32 19L31 19L31 17L32 17L32 16L31 16L31 17L29 17L29 18L30 18L30 19L29 19L29 20L28 20L28 22L27 22L27 20L26 20L26 19L27 19L27 18L28 18L28 16L29 16L29 15L27 15L27 14L26 14L26 15L27 15L27 17L26 17L26 19L24 19L24 18L23 18L23 17L22 17L22 18L21 18L21 20L22 20L22 18L23 18L23 19L24 19L24 20L23 20L23 22L22 22L22 21L21 21L21 23L20 23L20 21L19 21L19 20L17 20L17 18L18 18L18 19L20 19L20 18L19 18L19 17L20 17L20 16L19 16L19 15L20 15L20 13L22 13L22 12L21 12L21 11L23 11L23 10L22 10L22 9L18 9L18 8ZM47 8L47 9L48 9L48 8ZM6 9L6 10L7 10L7 9ZM13 9L13 10L12 10L12 11L13 11L13 10L14 10L14 9ZM15 9L15 10L16 10L16 9ZM27 11L27 12L28 12L28 11ZM29 11L29 13L28 13L28 14L30 14L30 15L32 15L32 14L31 14L31 13L32 13L32 12L31 12L31 13L30 13L30 11ZM47 11L47 12L49 12L49 11ZM52 11L52 12L51 12L51 13L52 13L52 14L53 14L53 13L52 13L52 12L53 12L53 11ZM19 12L19 13L15 13L15 16L16 16L16 17L18 17L18 16L16 16L16 15L18 15L18 14L19 14L19 13L20 13L20 12ZM10 13L10 14L11 14L11 13ZM12 14L12 17L13 17L13 16L14 16L14 15L13 15L13 14ZM36 14L36 15L37 15L37 14ZM44 16L44 18L47 18L47 17L48 17L48 16ZM1 18L1 20L2 20L2 21L3 21L3 20L4 20L4 21L5 21L5 20L7 20L7 19L5 19L5 20L4 20L4 19L3 19L3 18ZM2 19L2 20L3 20L3 19ZM50 19L50 20L49 20L49 21L48 21L48 22L49 22L49 21L50 21L50 20L51 20L51 19ZM29 20L29 21L30 21L30 20ZM38 20L38 21L39 21L39 23L40 23L40 22L41 22L41 21L39 21L39 20ZM8 21L8 22L9 22L9 21ZM15 21L15 22L17 22L17 21ZM24 21L24 23L25 23L25 22L26 22L26 24L27 24L27 22L26 22L26 21ZM31 21L31 24L30 24L30 23L29 23L29 22L28 22L28 23L29 23L29 25L31 25L31 24L32 24L32 21ZM42 21L42 22L44 22L44 21ZM10 22L10 23L11 23L11 22ZM5 23L5 24L7 24L7 23ZM33 23L33 24L34 24L34 23ZM43 23L43 24L44 24L44 23ZM49 24L49 25L50 25L50 24ZM5 25L5 28L8 28L8 25ZM13 25L13 26L14 26L14 25ZM15 25L15 26L16 26L16 25ZM25 25L25 28L28 28L28 25ZM45 25L45 28L48 28L48 25ZM3 26L3 27L4 27L4 26ZM6 26L6 27L7 27L7 26ZM19 26L19 27L18 27L18 28L19 28L19 27L20 27L20 26ZM26 26L26 27L27 27L27 26ZM29 26L29 28L31 28L31 27L32 27L32 26L31 26L31 27L30 27L30 26ZM46 26L46 27L47 27L47 26ZM34 27L34 28L35 28L35 30L37 30L37 31L39 31L39 30L40 30L40 29L39 29L39 30L37 30L37 28L36 28L36 27ZM51 28L51 29L52 29L52 30L51 30L51 31L52 31L52 30L53 30L53 28ZM26 29L26 30L28 30L28 29ZM41 29L41 30L42 30L42 31L40 31L40 32L39 32L39 33L40 33L40 32L43 32L43 29ZM4 31L4 32L5 32L5 36L6 36L6 35L7 35L7 34L6 34L6 33L7 33L7 32L6 32L6 31ZM44 31L44 32L47 32L47 31ZM16 32L16 33L18 33L18 32ZM41 33L41 34L39 34L39 35L41 35L41 36L42 36L42 35L43 35L43 36L44 36L44 41L45 41L45 39L46 39L46 38L45 38L45 37L46 37L46 35L43 35L43 33ZM44 33L44 34L45 34L45 33ZM0 34L0 35L1 35L1 34ZM41 34L41 35L42 35L42 34ZM8 35L8 36L9 36L9 35ZM49 35L49 36L50 36L50 35ZM0 36L0 37L1 37L1 38L0 38L0 40L1 40L1 41L0 41L0 43L1 43L1 44L3 44L3 45L4 45L4 44L3 44L3 43L8 43L8 44L6 44L6 45L8 45L8 47L9 47L9 46L10 46L10 43L8 43L8 41L7 41L7 40L6 40L6 41L7 41L7 42L5 42L5 41L4 41L4 40L3 40L3 39L4 39L4 38L3 38L3 39L1 39L1 38L2 38L2 37L1 37L1 36ZM38 36L38 37L37 37L37 38L38 38L38 37L39 37L39 36ZM33 37L33 38L34 38L34 37ZM26 38L26 39L27 39L27 38ZM41 38L41 39L42 39L42 38ZM19 39L19 40L20 40L20 39ZM23 39L23 42L24 42L24 41L26 41L26 40L24 40L24 39ZM52 39L52 40L53 40L53 39ZM2 40L2 41L3 41L3 42L2 42L2 43L3 43L3 42L4 42L4 41L3 41L3 40ZM13 41L13 42L14 42L14 41ZM15 41L15 42L16 42L16 41ZM32 41L32 42L33 42L33 43L37 43L37 44L35 44L35 47L36 47L36 46L38 46L38 47L39 47L39 46L38 46L38 45L39 45L39 44L40 44L40 42L38 42L38 41L37 41L37 42L33 42L33 41ZM43 43L43 45L44 45L44 43ZM13 44L13 48L12 48L12 51L11 51L11 52L12 52L12 51L13 51L13 49L14 49L14 50L16 50L16 49L18 49L18 48L16 48L16 49L14 49L14 47L15 47L15 46L17 46L17 47L18 47L18 45L15 45L15 46L14 46L14 44ZM33 44L33 45L34 45L34 44ZM37 44L37 45L38 45L38 44ZM25 45L25 48L28 48L28 45ZM45 45L45 48L48 48L48 45ZM49 45L49 47L50 47L50 45ZM26 46L26 47L27 47L27 46ZM40 46L40 47L41 47L41 46ZM46 46L46 47L47 47L47 46ZM29 48L29 49L28 49L28 50L27 50L27 49L26 49L26 50L27 50L27 51L28 51L28 50L29 50L29 49L31 49L31 48ZM50 49L50 52L51 52L51 51L52 51L52 50L51 50L51 49ZM17 50L17 51L19 51L19 50ZM15 51L15 52L16 52L16 51ZM21 51L21 52L22 52L22 51ZM35 51L35 52L36 52L36 51ZM0 0L0 7L7 7L7 0ZM1 1L1 6L6 6L6 1ZM2 2L2 5L5 5L5 2ZM46 0L46 7L53 7L53 0ZM47 1L47 6L52 6L52 1ZM48 2L48 5L51 5L51 2ZM0 46L0 53L7 53L7 46ZM1 47L1 52L6 52L6 47ZM2 48L2 51L5 51L5 48Z" fill="#000000"/></g></g></svg>
