<?xml version="1.0" encoding="UTF-8"?>
<svg xmlns="http://www.w3.org/2000/svg" version="1.1" width="356" height="356" viewBox="0 0 356 356"><rect x="0" y="0" width="356" height="356" fill="#ffffff"/><g transform="scale(6.717)"><g transform="translate(0,0)"><path fill-rule="evenodd" d="M8 0L8 4L9 4L9 2L10 2L10 0ZM11 0L11 1L13 1L13 3L12 3L12 2L11 2L11 3L10 3L10 4L11 4L11 6L10 6L10 7L9 7L9 5L8 5L8 7L9 7L9 9L8 9L8 10L10 10L10 11L7 11L7 10L6 10L6 11L5 11L5 10L4 10L4 9L7 9L7 8L4 8L4 9L2 9L2 8L0 8L0 9L2 9L2 10L0 10L0 13L2 13L2 14L3 14L3 13L4 13L4 16L3 16L3 18L4 18L4 19L3 19L3 20L2 20L2 18L1 18L1 17L2 17L2 15L1 15L1 14L0 14L0 16L1 16L1 17L0 17L0 18L1 18L1 19L0 19L0 21L3 21L3 22L5 22L5 23L4 23L4 29L3 29L3 28L1 28L1 27L2 27L2 26L3 26L3 23L2 23L2 22L0 22L0 23L2 23L2 24L1 24L1 27L0 27L0 28L1 28L1 30L0 30L0 31L1 31L1 32L0 32L0 33L1 33L1 35L0 35L0 37L1 37L1 38L3 38L3 39L2 39L2 40L0 40L0 43L1 43L1 44L3 44L3 45L4 45L4 44L3 44L3 43L7 43L7 44L6 44L6 45L8 45L8 46L10 46L10 48L9 48L9 47L8 47L8 49L9 49L9 51L8 51L8 53L9 53L9 52L10 52L10 50L12 50L12 51L11 51L11 52L12 52L12 53L13 53L13 52L12 52L12 51L16 51L16 50L17 50L17 51L20 51L20 50L21 50L21 51L22 51L22 52L20 52L20 53L22 53L22 52L23 52L23 53L25 53L25 52L23 52L23 51L25 51L25 49L26 49L26 51L27 51L27 53L28 53L28 51L31 51L31 52L30 52L30 53L31 53L31 52L32 52L32 53L37 53L37 52L38 52L38 53L40 53L40 50L42 50L42 51L44 51L44 52L43 52L43 53L45 53L45 51L46 51L46 52L48 52L48 53L49 53L49 52L50 52L50 49L49 49L49 48L50 48L50 47L51 47L51 46L52 46L52 49L53 49L53 46L52 46L52 45L53 45L53 44L52 44L52 43L53 43L53 42L52 42L52 43L51 43L51 41L52 41L52 40L53 40L53 38L52 38L52 39L51 39L51 40L50 40L50 37L47 37L47 36L49 36L49 35L50 35L50 33L47 33L47 34L46 34L46 41L44 41L44 40L45 40L45 39L42 39L42 40L43 40L43 41L41 41L41 43L39 43L39 42L40 42L40 40L41 40L41 39L40 39L40 40L39 40L39 39L38 39L38 38L44 38L44 36L45 36L45 33L46 33L46 32L50 32L50 30L51 30L51 31L52 31L52 33L53 33L53 26L52 26L52 29L51 29L51 28L50 28L50 27L51 27L51 25L52 25L52 24L53 24L53 22L52 22L52 23L51 23L51 25L50 25L50 22L46 22L46 20L45 20L45 19L46 19L46 15L47 15L47 14L48 14L48 13L49 13L49 12L50 12L50 14L52 14L52 16L51 16L51 17L53 17L53 13L51 13L51 12L50 12L50 11L51 11L51 10L52 10L52 11L53 11L53 10L52 10L52 9L53 9L53 8L49 8L49 10L50 10L50 11L48 11L48 13L47 13L47 14L46 14L46 12L47 12L47 10L46 10L46 9L40 9L40 8L42 8L42 7L43 7L43 8L45 8L45 6L44 6L44 7L43 7L43 3L44 3L44 4L45 4L45 3L44 3L44 1L43 1L43 0L38 0L38 2L37 2L37 3L38 3L38 2L40 2L40 5L39 5L39 4L38 4L38 5L37 5L37 6L36 6L36 7L35 7L35 5L34 5L34 4L35 4L35 3L34 3L34 2L35 2L35 1L37 1L37 0L35 0L35 1L34 1L34 0L32 0L32 1L31 1L31 0L23 0L23 1L21 1L21 0ZM15 1L15 3L13 3L13 4L12 4L12 3L11 3L11 4L12 4L12 5L15 5L15 7L14 7L14 6L13 6L13 7L12 7L12 6L11 6L11 8L10 8L10 10L11 10L11 11L12 11L12 12L10 12L10 13L11 13L11 14L8 14L8 12L7 12L7 11L6 11L6 12L4 12L4 13L5 13L5 15L6 15L6 16L4 16L4 18L5 18L5 20L7 20L7 19L6 19L6 18L8 18L8 19L9 19L9 18L8 18L8 17L12 17L12 18L13 18L13 17L18 17L18 16L19 16L19 17L20 17L20 15L21 15L21 14L20 14L20 13L21 13L21 12L20 12L20 13L16 13L16 12L15 12L15 11L16 11L16 10L18 10L18 9L19 9L19 11L17 11L17 12L19 12L19 11L20 11L20 10L22 10L22 13L23 13L23 14L22 14L22 16L21 16L21 17L23 17L23 18L22 18L22 21L21 21L21 22L20 22L20 21L19 21L19 22L20 22L20 23L19 23L19 24L18 24L18 25L17 25L17 23L18 23L18 22L17 22L17 21L16 21L16 20L17 20L17 18L16 18L16 19L15 19L15 18L14 18L14 20L15 20L15 21L13 21L13 22L12 22L12 21L11 21L11 20L13 20L13 19L11 19L11 18L10 18L10 19L11 19L11 20L10 20L10 21L9 21L9 22L8 22L8 21L6 21L6 22L8 22L8 23L6 23L6 24L8 24L8 23L9 23L9 27L10 27L10 25L11 25L11 26L12 26L12 28L14 28L14 27L16 27L16 26L17 26L17 28L18 28L18 27L20 27L20 26L23 26L23 28L22 28L22 27L21 27L21 28L19 28L19 29L21 29L21 28L22 28L22 30L18 30L18 29L16 29L16 28L15 28L15 29L13 29L13 30L12 30L12 32L13 32L13 33L18 33L18 32L19 32L19 33L20 33L20 32L21 32L21 31L22 31L22 32L25 32L25 33L24 33L24 34L26 34L26 35L23 35L23 33L21 33L21 34L20 34L20 35L19 35L19 34L16 34L16 35L15 35L15 34L13 34L13 35L11 35L11 34L10 34L10 36L9 36L9 37L8 37L8 36L7 36L7 35L9 35L9 34L8 34L8 32L7 32L7 31L9 31L9 30L11 30L11 28L10 28L10 29L9 29L9 30L8 30L8 29L6 29L6 30L7 30L7 31L5 31L5 29L4 29L4 32L3 32L3 29L2 29L2 30L1 30L1 31L2 31L2 32L1 32L1 33L2 33L2 34L3 34L3 35L5 35L5 37L4 37L4 36L2 36L2 37L3 37L3 38L5 38L5 39L6 39L6 40L5 40L5 41L3 41L3 40L4 40L4 39L3 39L3 40L2 40L2 41L1 41L1 42L2 42L2 43L3 43L3 42L5 42L5 41L6 41L6 42L7 42L7 41L8 41L8 42L11 42L11 43L12 43L12 44L11 44L11 45L10 45L10 43L9 43L9 45L10 45L10 46L11 46L11 47L12 47L12 48L13 48L13 49L12 49L12 50L13 50L13 49L18 49L18 48L19 48L19 49L20 49L20 48L21 48L21 47L22 47L22 48L23 48L23 49L21 49L21 50L23 50L23 49L24 49L24 47L23 47L23 46L24 46L24 45L23 45L23 43L22 43L22 42L23 42L23 40L22 40L22 39L21 39L21 38L23 38L23 36L25 36L25 37L24 37L24 38L25 38L25 41L24 41L24 42L26 42L26 43L24 43L24 44L26 44L26 43L29 43L29 41L32 41L32 44L29 44L29 45L32 45L32 44L33 44L33 41L34 41L34 43L35 43L35 44L34 44L34 46L35 46L35 47L36 47L36 48L37 48L37 47L36 47L36 46L35 46L35 44L37 44L37 45L38 45L38 44L39 44L39 43L37 43L37 42L38 42L38 41L39 41L39 40L38 40L38 39L37 39L37 38L38 38L38 37L39 37L39 36L38 36L38 35L40 35L40 34L38 34L38 33L36 33L36 31L34 31L34 32L33 32L33 31L30 31L30 30L29 30L29 29L27 29L27 30L29 30L29 31L30 31L30 32L31 32L31 33L32 33L32 32L33 32L33 33L34 33L34 35L33 35L33 36L34 36L34 37L32 37L32 35L31 35L31 34L29 34L29 32L28 32L28 31L27 31L27 32L28 32L28 33L27 33L27 34L26 34L26 32L25 32L25 31L26 31L26 29L23 29L23 28L24 28L24 26L23 26L23 24L22 24L22 23L24 23L24 24L25 24L25 23L24 23L24 22L22 22L22 21L23 21L23 19L24 19L24 20L25 20L25 19L24 19L24 16L25 16L25 15L23 15L23 14L24 14L24 13L25 13L25 10L24 10L24 11L23 11L23 9L24 9L24 8L23 8L23 7L24 7L24 5L23 5L23 4L22 4L22 3L24 3L24 2L25 2L25 3L27 3L27 4L29 4L29 3L30 3L30 4L31 4L31 7L30 7L30 6L29 6L29 7L30 7L30 9L27 9L27 11L26 11L26 12L27 12L27 11L28 11L28 10L29 10L29 11L30 11L30 9L31 9L31 10L33 10L33 9L32 9L32 6L33 6L33 7L34 7L34 6L33 6L33 5L32 5L32 4L34 4L34 3L31 3L31 2L29 2L29 1L27 1L27 2L26 2L26 1L24 1L24 2L22 2L22 3L21 3L21 2L20 2L20 1L19 1L19 3L18 3L18 2L16 2L16 1ZM32 1L32 2L33 2L33 1ZM40 1L40 2L41 2L41 1ZM27 2L27 3L28 3L28 2ZM42 2L42 3L41 3L41 5L42 5L42 3L43 3L43 2ZM19 3L19 4L20 4L20 8L19 8L19 6L18 6L18 5L16 5L16 7L15 7L15 8L14 8L14 7L13 7L13 9L12 9L12 8L11 8L11 9L12 9L12 11L14 11L14 10L15 10L15 9L16 9L16 8L17 8L17 9L18 9L18 8L19 8L19 9L22 9L22 8L21 8L21 5L22 5L22 4L21 4L21 3ZM25 5L25 8L28 8L28 5ZM38 5L38 6L37 6L37 7L36 7L36 8L38 8L38 9L36 9L36 11L37 11L37 10L38 10L38 9L39 9L39 10L40 10L40 9L39 9L39 8L38 8L38 6L39 6L39 7L40 7L40 6L39 6L39 5ZM17 6L17 7L18 7L18 6ZM22 6L22 7L23 7L23 6ZM26 6L26 7L27 7L27 6ZM41 6L41 7L42 7L42 6ZM47 8L47 9L48 9L48 8ZM13 9L13 10L14 10L14 9ZM34 9L34 10L35 10L35 9ZM50 9L50 10L51 10L51 9ZM2 10L2 11L1 11L1 12L2 12L2 11L4 11L4 10ZM41 10L41 12L40 12L40 17L39 17L39 18L38 18L38 17L37 17L37 18L36 18L36 17L35 17L35 16L38 16L38 13L35 13L35 11L34 11L34 12L33 12L33 11L31 11L31 12L28 12L28 13L27 13L27 15L26 15L26 16L27 16L27 15L28 15L28 14L29 14L29 13L31 13L31 14L32 14L32 15L30 15L30 16L28 16L28 18L27 18L27 17L25 17L25 18L26 18L26 21L25 21L25 22L26 22L26 24L27 24L27 23L28 23L28 24L29 24L29 25L31 25L31 26L29 26L29 27L32 27L32 28L30 28L30 29L32 29L32 28L33 28L33 29L34 29L34 30L37 30L37 32L38 32L38 29L39 29L39 31L40 31L40 33L41 33L41 31L40 31L40 30L41 30L41 29L42 29L42 27L41 27L41 28L40 28L40 26L41 26L41 24L40 24L40 25L39 25L39 26L38 26L38 24L39 24L39 22L40 22L40 23L41 23L41 22L40 22L40 21L43 21L43 23L42 23L42 25L44 25L44 23L45 23L45 24L47 24L47 23L46 23L46 22L44 22L44 21L45 21L45 20L44 20L44 19L45 19L45 18L44 18L44 13L43 13L43 14L42 14L42 16L43 16L43 18L44 18L44 19L42 19L42 17L41 17L41 13L42 13L42 12L45 12L45 11L44 11L44 10ZM38 11L38 12L39 12L39 11ZM6 12L6 13L7 13L7 12ZM12 12L12 13L15 13L15 14L12 14L12 15L14 15L14 16L15 16L15 14L16 14L16 15L18 15L18 14L16 14L16 13L15 13L15 12ZM32 12L32 13L33 13L33 15L32 15L32 17L31 17L31 16L30 16L30 17L29 17L29 18L28 18L28 20L27 20L27 21L29 21L29 22L28 22L28 23L29 23L29 24L30 24L30 23L31 23L31 21L29 21L29 20L32 20L32 27L33 27L33 26L34 26L34 28L35 28L35 29L38 29L38 28L39 28L39 29L40 29L40 28L39 28L39 27L38 27L38 28L37 28L37 24L38 24L38 22L39 22L39 21L40 21L40 19L38 19L38 18L37 18L37 19L38 19L38 20L39 20L39 21L38 21L38 22L34 22L34 20L32 20L32 19L34 19L34 15L35 15L35 14L34 14L34 13L33 13L33 12ZM6 14L6 15L7 15L7 16L6 16L6 17L7 17L7 16L9 16L9 15L7 15L7 14ZM19 14L19 15L20 15L20 14ZM36 14L36 15L37 15L37 14ZM48 15L48 17L47 17L47 21L49 21L49 19L50 19L50 16L49 16L49 15ZM12 16L12 17L13 17L13 16ZM32 17L32 18L29 18L29 19L32 19L32 18L33 18L33 17ZM40 17L40 18L41 18L41 17ZM18 18L18 19L19 19L19 20L21 20L21 18L20 18L20 19L19 19L19 18ZM35 18L35 21L37 21L37 20L36 20L36 18ZM52 18L52 19L51 19L51 20L52 20L52 19L53 19L53 18ZM3 20L3 21L4 21L4 20ZM43 20L43 21L44 21L44 20ZM10 21L10 22L9 22L9 23L11 23L11 21ZM15 21L15 24L14 24L14 23L13 23L13 25L14 25L14 26L15 26L15 25L16 25L16 21ZM21 22L21 23L20 23L20 24L19 24L19 25L18 25L18 26L19 26L19 25L21 25L21 23L22 23L22 22ZM33 22L33 25L34 25L34 26L35 26L35 25L34 25L34 24L37 24L37 23L34 23L34 22ZM48 23L48 24L49 24L49 23ZM11 24L11 25L12 25L12 24ZM5 25L5 28L8 28L8 25ZM25 25L25 28L28 28L28 25ZM45 25L45 28L48 28L48 25ZM6 26L6 27L7 27L7 26ZM26 26L26 27L27 27L27 26ZM46 26L46 27L47 27L47 26ZM49 26L49 27L50 27L50 26ZM43 27L43 28L44 28L44 27ZM49 28L49 30L47 30L47 29L46 29L46 30L44 30L44 29L43 29L43 30L42 30L42 33L43 33L43 34L44 34L44 33L43 33L43 31L46 31L46 30L47 30L47 31L49 31L49 30L50 30L50 28ZM15 29L15 30L13 30L13 31L14 31L14 32L16 32L16 31L18 31L18 30L16 30L16 29ZM15 30L15 31L16 31L16 30ZM23 30L23 31L24 31L24 30ZM10 31L10 32L9 32L9 33L10 33L10 32L11 32L11 31ZM2 32L2 33L3 33L3 32ZM4 32L4 33L5 33L5 35L7 35L7 34L6 34L6 33L7 33L7 32ZM34 32L34 33L35 33L35 35L36 35L36 33L35 33L35 32ZM21 34L21 37L19 37L19 35L17 35L17 36L16 36L16 37L15 37L15 36L14 36L14 38L16 38L16 37L19 37L19 38L18 38L18 39L17 39L17 41L18 41L18 42L16 42L16 43L15 43L15 41L16 41L16 40L14 40L14 39L13 39L13 40L12 40L12 41L11 41L11 40L10 40L10 38L11 38L11 39L12 39L12 37L13 37L13 36L12 36L12 37L11 37L11 36L10 36L10 38L6 38L6 37L7 37L7 36L6 36L6 37L5 37L5 38L6 38L6 39L7 39L7 40L6 40L6 41L7 41L7 40L8 40L8 41L11 41L11 42L13 42L13 41L14 41L14 43L13 43L13 44L12 44L12 46L14 46L14 45L13 45L13 44L14 44L14 43L15 43L15 44L16 44L16 45L15 45L15 47L13 47L13 48L16 48L16 45L18 45L18 46L17 46L17 47L18 47L18 46L19 46L19 48L20 48L20 46L21 46L21 45L22 45L22 46L23 46L23 45L22 45L22 43L21 43L21 42L22 42L22 41L21 41L21 40L20 40L20 39L19 39L19 38L21 38L21 37L22 37L22 36L23 36L23 35L22 35L22 34ZM27 34L27 35L28 35L28 36L26 36L26 41L27 41L27 42L28 42L28 41L29 41L29 40L30 40L30 39L27 39L27 37L29 37L29 38L32 38L32 37L30 37L30 36L29 36L29 35L28 35L28 34ZM37 34L37 35L38 35L38 34ZM47 34L47 35L49 35L49 34ZM52 34L52 35L51 35L51 37L53 37L53 34ZM41 35L41 36L40 36L40 37L43 37L43 36L44 36L44 35L43 35L43 36L42 36L42 35ZM35 36L35 37L36 37L36 38L37 38L37 37L38 37L38 36ZM48 38L48 39L47 39L47 40L49 40L49 38ZM8 39L8 40L9 40L9 39ZM32 39L32 41L33 41L33 40L34 40L34 39ZM35 39L35 42L36 42L36 41L38 41L38 40L37 40L37 39ZM18 40L18 41L19 41L19 43L20 43L20 42L21 42L21 41L19 41L19 40ZM46 41L46 42L47 42L47 43L45 43L45 42L44 42L44 43L41 43L41 44L40 44L40 47L41 47L41 48L40 48L40 49L39 49L39 47L38 47L38 49L34 49L34 48L33 48L33 46L32 46L32 48L31 48L31 49L32 49L32 48L33 48L33 49L34 49L34 50L38 50L38 52L39 52L39 50L40 50L40 49L41 49L41 48L42 48L42 49L43 49L43 50L44 50L44 51L45 51L45 50L47 50L47 51L48 51L48 52L49 52L49 49L45 49L45 50L44 50L44 48L43 48L43 46L44 46L44 45L43 45L43 46L41 46L41 45L42 45L42 44L44 44L44 43L45 43L45 44L47 44L47 43L50 43L50 44L51 44L51 45L50 45L50 46L49 46L49 47L50 47L50 46L51 46L51 45L52 45L52 44L51 44L51 43L50 43L50 42L47 42L47 41ZM30 42L30 43L31 43L31 42ZM19 44L19 46L20 46L20 44ZM25 45L25 48L28 48L28 45ZM45 45L45 48L48 48L48 45ZM26 46L26 47L27 47L27 46ZM29 46L29 47L31 47L31 46ZM46 46L46 47L47 47L47 46ZM29 48L29 49L30 49L30 48ZM38 49L38 50L39 50L39 49ZM27 50L27 51L28 51L28 50ZM31 50L31 51L32 51L32 52L35 52L35 51L32 51L32 50ZM36 51L36 52L37 52L37 51ZM51 51L51 53L52 53L52 52L53 52L53 51ZM14 52L14 53L15 53L15 52ZM16 52L16 53L19 53L19 52ZM0 0L0 7L7 7L7 0ZM1 1L1 6L6 6L6 1ZM2 2L2 5L5 5L5 2ZM46 0L46 7L53 7L53 0ZM47 1L47 6L52 6L52 1ZM48 2L48 5L51 5L51 2ZM0 46L0 53L7 53L7 46ZM1 47L1 52L6 52L6 47ZM2 48L2 51L5 51L5 48Z" fill="#000000"/></g></g></svg>
