<?xml version="1.0" encoding="UTF-8"?>
<svg xmlns="http://www.w3.org/2000/svg" version="1.1" width="356" height="356" viewBox="0 0 356 356"><rect x="0" y="0" width="356" height="356" fill="#ffffff"/><g transform="scale(6.717)"><g transform="translate(0,0)"><path fill-rule="evenodd" d="M8 0L8 2L9 2L9 4L8 4L8 11L7 11L7 10L6 10L6 9L7 9L7 8L5 8L5 9L3 9L3 8L0 8L0 14L1 14L1 15L3 15L3 16L4 16L4 15L3 15L3 14L2 14L2 13L1 13L1 10L4 10L4 11L3 11L3 12L4 12L4 14L5 14L5 16L6 16L6 17L7 17L7 18L6 18L6 19L5 19L5 18L4 18L4 17L1 17L1 16L0 16L0 17L1 17L1 18L0 18L0 21L1 21L1 18L2 18L2 22L3 22L3 23L4 23L4 24L3 24L3 25L2 25L2 26L1 26L1 27L2 27L2 28L1 28L1 29L0 29L0 33L1 33L1 35L2 35L2 36L0 36L0 38L1 38L1 37L2 37L2 39L3 39L3 40L0 40L0 43L1 43L1 44L3 44L3 45L4 45L4 44L3 44L3 43L7 43L7 42L6 42L6 41L8 41L8 46L9 46L9 45L10 45L10 43L11 43L11 42L12 42L12 45L11 45L11 46L12 46L12 47L11 47L11 48L10 48L10 47L8 47L8 48L9 48L9 50L8 50L8 53L9 53L9 52L10 52L10 53L12 53L12 51L11 51L11 52L10 52L10 50L11 50L11 48L12 48L12 47L14 47L14 49L12 49L12 50L13 50L13 51L14 51L14 52L13 52L13 53L14 53L14 52L15 52L15 53L16 53L16 52L15 52L15 51L14 51L14 50L15 50L15 47L16 47L16 49L17 49L17 47L16 47L16 44L17 44L17 43L18 43L18 45L19 45L19 47L18 47L18 48L19 48L19 52L18 52L18 50L16 50L16 51L17 51L17 52L18 52L18 53L20 53L20 52L21 52L21 51L20 51L20 50L22 50L22 53L23 53L23 50L22 50L22 49L24 49L24 51L25 51L25 50L26 50L26 51L27 51L27 52L28 52L28 53L29 53L29 52L30 52L30 53L31 53L31 52L32 52L32 53L37 53L37 52L38 52L38 53L39 53L39 52L38 52L38 51L39 51L39 50L38 50L38 49L39 49L39 48L40 48L40 53L44 53L44 51L45 51L45 52L46 52L46 53L51 53L51 52L50 52L50 50L51 50L51 49L53 49L53 48L51 48L51 49L50 49L50 50L49 50L49 48L50 48L50 46L52 46L52 47L53 47L53 46L52 46L52 44L53 44L53 42L52 42L52 43L51 43L51 45L50 45L50 46L49 46L49 44L50 44L50 42L51 42L51 41L52 41L52 40L53 40L53 38L52 38L52 40L50 40L50 39L51 39L51 36L50 36L50 35L51 35L51 33L49 33L49 32L50 32L50 31L51 31L51 30L52 30L52 31L53 31L53 30L52 30L52 27L53 27L53 26L52 26L52 27L51 27L51 30L50 30L50 26L49 26L49 25L50 25L50 23L51 23L51 24L52 24L52 25L53 25L53 24L52 24L52 23L53 23L53 18L52 18L52 20L50 20L50 18L51 18L51 17L53 17L53 16L51 16L51 17L50 17L50 16L49 16L49 15L51 15L51 14L50 14L50 10L52 10L52 11L51 11L51 13L53 13L53 10L52 10L52 9L53 9L53 8L51 8L51 9L49 9L49 8L45 8L45 6L44 6L44 7L43 7L43 3L44 3L44 4L45 4L45 3L44 3L44 1L43 1L43 0L41 0L41 1L40 1L40 0L38 0L38 1L37 1L37 0L36 0L36 2L35 2L35 0L34 0L34 1L33 1L33 0L32 0L32 2L31 2L31 3L30 3L30 7L31 7L31 6L32 6L32 9L31 9L31 10L30 10L30 9L29 9L29 4L28 4L28 3L27 3L27 2L26 2L26 3L27 3L27 4L25 4L25 2L24 2L24 1L25 1L25 0L24 0L24 1L23 1L23 0L22 0L22 2L23 2L23 3L24 3L24 9L23 9L23 8L22 8L22 7L23 7L23 4L22 4L22 3L19 3L19 4L20 4L20 5L19 5L19 6L18 6L18 7L17 7L17 5L18 5L18 3L17 3L17 2L18 2L18 1L19 1L19 0L14 0L14 1L15 1L15 2L14 2L14 3L15 3L15 5L13 5L13 6L12 6L12 5L11 5L11 4L10 4L10 1L11 1L11 3L12 3L12 4L13 4L13 3L12 3L12 2L13 2L13 1L11 1L11 0ZM26 0L26 1L27 1L27 0ZM30 0L30 1L29 1L29 2L30 2L30 1L31 1L31 0ZM16 1L16 2L17 2L17 1ZM20 1L20 2L21 2L21 1ZM38 1L38 2L37 2L37 3L36 3L36 5L34 5L34 4L33 4L33 3L34 3L34 2L33 2L33 3L32 3L32 4L33 4L33 5L32 5L32 6L33 6L33 9L34 9L34 10L35 10L35 9L36 9L36 8L38 8L38 10L39 10L39 11L40 11L40 10L41 10L41 11L42 11L42 10L43 10L43 9L44 9L44 11L43 11L43 12L42 12L42 14L43 14L43 12L44 12L44 15L42 15L42 17L40 17L40 16L41 16L41 15L40 15L40 14L41 14L41 13L40 13L40 12L38 12L38 11L36 11L36 12L35 12L35 11L34 11L34 15L33 15L33 13L32 13L32 12L33 12L33 10L31 10L31 11L32 11L32 12L30 12L30 11L29 11L29 12L28 12L28 10L29 10L29 9L24 9L24 10L23 10L23 9L22 9L22 8L21 8L21 9L20 9L20 6L21 6L21 7L22 7L22 5L20 5L20 6L19 6L19 7L18 7L18 8L19 8L19 9L18 9L18 12L16 12L16 14L15 14L15 15L14 15L14 16L15 16L15 17L14 17L14 18L15 18L15 19L12 19L12 18L13 18L13 16L12 16L12 15L10 15L10 14L13 14L13 12L15 12L15 11L13 11L13 10L15 10L15 8L17 8L17 7L16 7L16 5L15 5L15 8L14 8L14 6L13 6L13 7L12 7L12 6L11 6L11 5L10 5L10 4L9 4L9 5L10 5L10 6L9 6L9 9L10 9L10 6L11 6L11 8L13 8L13 9L11 9L11 10L9 10L9 11L8 11L8 12L9 12L9 13L6 13L6 12L7 12L7 11L6 11L6 10L5 10L5 11L4 11L4 12L5 12L5 14L7 14L7 15L6 15L6 16L7 16L7 17L8 17L8 15L10 15L10 16L12 16L12 18L11 18L11 19L10 19L10 18L7 18L7 19L6 19L6 20L7 20L7 21L5 21L5 20L4 20L4 18L3 18L3 20L4 20L4 23L5 23L5 24L7 24L7 23L5 23L5 22L8 22L8 23L9 23L9 24L10 24L10 25L9 25L9 27L10 27L10 26L11 26L11 27L12 27L12 28L11 28L11 29L10 29L10 28L9 28L9 29L8 29L8 30L7 30L7 29L6 29L6 30L7 30L7 31L4 31L4 29L3 29L3 28L4 28L4 26L3 26L3 28L2 28L2 29L1 29L1 30L3 30L3 31L4 31L4 32L3 32L3 33L5 33L5 32L8 32L8 30L9 30L9 31L10 31L10 30L11 30L11 29L12 29L12 30L13 30L13 27L14 27L14 28L15 28L15 27L14 27L14 26L15 26L15 24L16 24L16 23L17 23L17 21L18 21L18 22L19 22L19 23L18 23L18 24L19 24L19 25L18 25L18 26L16 26L16 27L18 27L18 26L19 26L19 29L18 29L18 28L16 28L16 30L15 30L15 31L14 31L14 32L15 32L15 33L14 33L14 34L15 34L15 36L16 36L16 38L13 38L13 39L11 39L11 38L12 38L12 37L13 37L13 36L14 36L14 35L13 35L13 34L11 34L11 32L9 32L9 33L8 33L8 34L7 34L7 33L6 33L6 34L7 34L7 35L6 35L6 36L7 36L7 35L10 35L10 39L11 39L11 40L13 40L13 45L12 45L12 46L13 46L13 45L14 45L14 46L15 46L15 45L14 45L14 44L15 44L15 43L14 43L14 42L15 42L15 40L14 40L14 39L17 39L17 38L18 38L18 34L19 34L19 32L21 32L21 31L19 31L19 30L21 30L21 29L22 29L22 32L23 32L23 33L21 33L21 34L20 34L20 35L22 35L22 34L23 34L23 33L24 33L24 32L23 32L23 29L22 29L22 28L23 28L23 27L22 27L22 28L21 28L21 27L20 27L20 26L21 26L21 25L20 25L20 22L21 22L21 21L22 21L22 23L21 23L21 24L22 24L22 23L23 23L23 22L24 22L24 21L25 21L25 23L24 23L24 24L25 24L25 23L26 23L26 24L27 24L27 23L26 23L26 22L27 22L27 21L26 21L26 20L28 20L28 21L29 21L29 20L28 20L28 18L29 18L29 19L31 19L31 18L32 18L32 20L30 20L30 22L29 22L29 24L31 24L31 25L30 25L30 26L29 26L29 27L30 27L30 28L29 28L29 29L26 29L26 30L25 30L25 31L26 31L26 32L25 32L25 33L26 33L26 36L25 36L25 37L26 37L26 39L25 39L25 38L24 38L24 37L23 37L23 38L21 38L21 37L22 37L22 36L19 36L19 38L20 38L20 39L18 39L18 40L19 40L19 41L18 41L18 43L19 43L19 45L20 45L20 46L21 46L21 45L22 45L22 46L23 46L23 47L22 47L22 48L23 48L23 47L24 47L24 44L23 44L23 42L24 42L24 43L25 43L25 44L27 44L27 43L26 43L26 42L24 42L24 39L25 39L25 40L26 40L26 39L28 39L28 40L29 40L29 41L28 41L28 42L29 42L29 41L30 41L30 43L32 43L32 44L31 44L31 45L30 45L30 44L29 44L29 43L28 43L28 44L29 44L29 45L30 45L30 46L32 46L32 48L31 48L31 49L30 49L30 47L29 47L29 49L28 49L28 52L29 52L29 51L31 51L31 50L32 50L32 52L33 52L33 49L32 49L32 48L34 48L34 50L36 50L36 48L37 48L37 49L38 49L38 48L39 48L39 47L40 47L40 48L41 48L41 49L42 49L42 50L41 50L41 51L42 51L42 52L43 52L43 51L44 51L44 50L43 50L43 49L42 49L42 48L43 48L43 47L44 47L44 45L42 45L42 43L43 43L43 44L44 44L44 42L45 42L45 43L46 43L46 44L47 44L47 43L48 43L48 44L49 44L49 43L48 43L48 42L49 42L49 39L50 39L50 37L49 37L49 36L48 36L48 34L49 34L49 33L48 33L48 30L49 30L49 31L50 31L50 30L49 30L49 29L48 29L48 30L47 30L47 29L46 29L46 30L45 30L45 29L44 29L44 27L42 27L42 26L43 26L43 25L44 25L44 24L45 24L45 23L44 23L44 24L43 24L43 23L42 23L42 22L43 22L43 21L44 21L44 22L45 22L45 21L46 21L46 22L48 22L48 23L47 23L47 24L49 24L49 23L50 23L50 22L48 22L48 19L49 19L49 18L50 18L50 17L48 17L48 19L47 19L47 17L46 17L46 15L47 15L47 14L48 14L48 15L49 15L49 14L48 14L48 12L49 12L49 11L48 11L48 9L46 9L46 10L47 10L47 12L46 12L46 11L45 11L45 9L44 9L44 8L43 8L43 7L42 7L42 5L41 5L41 7L42 7L42 8L41 8L41 9L40 9L40 4L41 4L41 3L40 3L40 4L39 4L39 7L38 7L38 3L39 3L39 2L40 2L40 1ZM42 2L42 3L43 3L43 2ZM25 5L25 8L28 8L28 5ZM33 5L33 6L34 6L34 7L35 7L35 6L34 6L34 5ZM36 5L36 7L37 7L37 5ZM26 6L26 7L27 7L27 6ZM21 9L21 10L20 10L20 11L21 11L21 12L22 12L22 13L21 13L21 14L20 14L20 12L18 12L18 14L20 14L20 16L19 16L19 15L18 15L18 16L19 16L19 18L16 18L16 19L18 19L18 21L19 21L19 22L20 22L20 21L21 21L21 19L22 19L22 18L21 18L21 16L22 16L22 17L24 17L24 15L25 15L25 14L26 14L26 15L27 15L27 17L29 17L29 18L30 18L30 17L31 17L31 16L30 16L30 15L32 15L32 18L33 18L33 19L34 19L34 20L32 20L32 21L31 21L31 22L30 22L30 23L32 23L32 25L31 25L31 27L32 27L32 30L30 30L30 29L29 29L29 31L33 31L33 30L34 30L34 29L35 29L35 28L36 28L36 29L37 29L37 30L36 30L36 31L34 31L34 32L32 32L32 33L33 33L33 35L34 35L34 36L32 36L32 35L31 35L31 34L30 34L30 33L31 33L31 32L30 32L30 33L29 33L29 32L28 32L28 31L27 31L27 30L26 30L26 31L27 31L27 32L26 32L26 33L27 33L27 36L26 36L26 37L28 37L28 39L29 39L29 40L30 40L30 41L31 41L31 39L30 39L30 35L31 35L31 36L32 36L32 37L33 37L33 38L32 38L32 43L33 43L33 44L32 44L32 46L33 46L33 47L34 47L34 45L35 45L35 47L39 47L39 46L38 46L38 44L39 44L39 43L40 43L40 45L41 45L41 46L40 46L40 47L41 47L41 48L42 48L42 47L43 47L43 46L42 46L42 45L41 45L41 43L40 43L40 42L41 42L41 39L40 39L40 37L41 37L41 38L42 38L42 40L43 40L43 41L45 41L45 42L46 42L46 43L47 43L47 42L48 42L48 41L47 41L47 40L48 40L48 39L49 39L49 38L48 38L48 36L46 36L46 35L47 35L47 34L48 34L48 33L46 33L46 35L45 35L45 32L46 32L46 31L47 31L47 30L46 30L46 31L44 31L44 32L42 32L42 31L41 31L41 32L40 32L40 33L41 33L41 34L39 34L39 35L38 35L38 37L37 37L37 36L36 36L36 38L38 38L38 37L39 37L39 40L38 40L38 39L37 39L37 40L36 40L36 43L37 43L37 40L38 40L38 41L40 41L40 42L39 42L39 43L38 43L38 44L36 44L36 45L35 45L35 44L34 44L34 41L35 41L35 39L34 39L34 36L35 36L35 35L34 35L34 32L35 32L35 34L36 34L36 35L37 35L37 34L36 34L36 33L37 33L37 32L38 32L38 33L39 33L39 30L38 30L38 29L40 29L40 30L41 30L41 27L39 27L39 28L38 28L38 24L40 24L40 26L42 26L42 23L41 23L41 22L42 22L42 21L41 21L41 20L42 20L42 19L41 19L41 20L40 20L40 17L39 17L39 16L40 16L40 15L38 15L38 12L36 12L36 13L37 13L37 16L36 16L36 14L35 14L35 15L34 15L34 17L33 17L33 15L32 15L32 13L31 13L31 14L30 14L30 13L28 13L28 15L27 15L27 14L26 14L26 11L27 11L27 10L26 10L26 11L25 11L25 12L24 12L24 13L25 13L25 14L24 14L24 15L23 15L23 12L22 12L22 9ZM41 9L41 10L42 10L42 9ZM11 10L11 11L12 11L12 10ZM16 10L16 11L17 11L17 10ZM9 11L9 12L10 12L10 13L9 13L9 14L10 14L10 13L12 13L12 12L10 12L10 11ZM45 12L45 15L44 15L44 16L43 16L43 20L44 20L44 21L45 21L45 20L44 20L44 19L46 19L46 20L47 20L47 19L46 19L46 17L45 17L45 18L44 18L44 16L45 16L45 15L46 15L46 12ZM39 13L39 14L40 14L40 13ZM16 14L16 15L15 15L15 16L16 16L16 17L17 17L17 14ZM52 14L52 15L53 15L53 14ZM29 16L29 17L30 17L30 16ZM35 16L35 17L34 17L34 19L35 19L35 20L34 20L34 22L32 22L32 23L34 23L34 22L36 22L36 24L34 24L34 26L33 26L33 25L32 25L32 27L33 27L33 29L34 29L34 26L35 26L35 25L36 25L36 28L37 28L37 25L36 25L36 24L37 24L37 23L39 23L39 22L40 22L40 20L39 20L39 19L38 19L38 20L37 20L37 22L36 22L36 19L35 19L35 18L37 18L37 17L36 17L36 16ZM38 17L38 18L39 18L39 17ZM20 18L20 19L21 19L21 18ZM24 18L24 19L23 19L23 20L22 20L22 21L24 21L24 19L25 19L25 20L26 20L26 19L25 19L25 18ZM8 19L8 22L9 22L9 20L10 20L10 19ZM11 19L11 20L12 20L12 19ZM13 20L13 22L12 22L12 21L11 21L11 23L10 23L10 24L11 24L11 23L12 23L12 25L11 25L11 26L12 26L12 27L13 27L13 26L12 26L12 25L13 25L13 22L15 22L15 23L14 23L14 24L15 24L15 23L16 23L16 20ZM49 20L49 21L50 21L50 20ZM0 22L0 25L1 25L1 22ZM5 25L5 28L8 28L8 25ZM23 25L23 26L24 26L24 25ZM25 25L25 28L28 28L28 25ZM45 25L45 28L48 28L48 25ZM6 26L6 27L7 27L7 26ZM26 26L26 27L27 27L27 26ZM46 26L46 27L47 27L47 26ZM42 28L42 29L43 29L43 28ZM16 30L16 33L17 33L17 30ZM37 30L37 31L38 31L38 30ZM1 31L1 32L2 32L2 31ZM12 31L12 33L13 33L13 31ZM18 31L18 32L19 32L19 31ZM27 32L27 33L28 33L28 36L29 36L29 33L28 33L28 32ZM41 32L41 33L42 33L42 35L39 35L39 37L40 37L40 36L44 36L44 34L43 34L43 33L42 33L42 32ZM52 32L52 33L53 33L53 32ZM9 33L9 34L10 34L10 33ZM3 34L3 35L4 35L4 34ZM16 34L16 35L17 35L17 34ZM52 34L52 35L53 35L53 34ZM12 35L12 36L13 36L13 35ZM2 36L2 37L3 37L3 39L4 39L4 38L5 38L5 39L6 39L6 40L7 40L7 39L6 39L6 38L7 38L7 37L5 37L5 36ZM8 36L8 39L9 39L9 36ZM42 37L42 38L43 38L43 37ZM45 37L45 41L46 41L46 37ZM23 38L23 39L22 39L22 40L23 40L23 39L24 39L24 38ZM20 39L20 41L21 41L21 39ZM33 39L33 40L34 40L34 39ZM43 39L43 40L44 40L44 39ZM3 40L3 41L5 41L5 40ZM1 41L1 42L2 42L2 43L3 43L3 42L2 42L2 41ZM9 41L9 42L11 42L11 41ZM16 42L16 43L17 43L17 42ZM20 42L20 43L22 43L22 42ZM6 44L6 45L7 45L7 44ZM22 44L22 45L23 45L23 44ZM25 45L25 48L28 48L28 45ZM36 45L36 46L37 46L37 45ZM45 45L45 48L48 48L48 45ZM26 46L26 47L27 47L27 46ZM41 46L41 47L42 47L42 46ZM46 46L46 47L47 47L47 46ZM20 47L20 48L21 48L21 47ZM26 49L26 50L27 50L27 49ZM47 49L47 50L45 50L45 51L46 51L46 52L49 52L49 51L48 51L48 49ZM37 50L37 51L38 51L38 50ZM24 52L24 53L25 53L25 52ZM52 52L52 53L53 53L53 52ZM0 0L0 7L7 7L7 0ZM1 1L1 6L6 6L6 1ZM2 2L2 5L5 5L5 2ZM46 0L46 7L53 7L53 0ZM47 1L47 6L52 6L52 1ZM48 2L48 5L51 5L51 2ZM0 46L0 53L7 53L7 46ZM1 47L1 52L6 52L6 47ZM2 48L2 51L5 51L5 48Z" fill="#000000"/></g></g></svg>
