<?xml version="1.0" encoding="UTF-8"?>
<svg xmlns="http://www.w3.org/2000/svg" version="1.1" width="356" height="356" viewBox="0 0 356 356"><rect x="0" y="0" width="356" height="356" fill="#ffffff"/><g transform="scale(6.717)"><g transform="translate(0,0)"><path fill-rule="evenodd" d="M8 0L8 2L9 2L9 4L8 4L8 9L7 9L7 8L5 8L5 9L4 9L4 10L5 10L5 12L4 12L4 14L3 14L3 15L1 15L1 14L2 14L2 13L3 13L3 10L2 10L2 11L1 11L1 9L3 9L3 8L0 8L0 12L1 12L1 13L0 13L0 16L5 16L5 15L7 15L7 14L6 14L6 13L7 13L7 12L10 12L10 10L11 10L11 12L12 12L12 11L13 11L13 13L12 13L12 14L16 14L16 15L14 15L14 16L15 16L15 18L14 18L14 19L12 19L12 20L13 20L13 22L12 22L12 21L11 21L11 19L10 19L10 17L11 17L11 18L12 18L12 17L13 17L13 15L11 15L11 14L10 14L10 13L9 13L9 16L8 16L8 19L9 19L9 21L8 21L8 20L4 20L4 19L7 19L7 18L4 18L4 17L3 17L3 18L0 18L0 22L1 22L1 21L3 21L3 20L4 20L4 21L8 21L8 23L9 23L9 21L11 21L11 23L10 23L10 24L6 24L6 23L7 23L7 22L5 22L5 24L4 24L4 23L3 23L3 22L2 22L2 23L0 23L0 26L2 26L2 23L3 23L3 24L4 24L4 26L3 26L3 27L2 27L2 28L3 28L3 29L1 29L1 28L0 28L0 33L1 33L1 31L2 31L2 32L3 32L3 33L2 33L2 35L1 35L1 34L0 34L0 35L1 35L1 36L2 36L2 37L0 37L0 38L2 38L2 39L0 39L0 41L2 41L2 42L0 42L0 43L1 43L1 44L3 44L3 45L4 45L4 44L3 44L3 43L7 43L7 44L6 44L6 45L7 45L7 44L9 44L9 45L8 45L8 46L9 46L9 45L10 45L10 44L9 44L9 43L8 43L8 42L9 42L9 41L10 41L10 39L11 39L11 38L12 38L12 37L13 37L13 36L12 36L12 37L11 37L11 35L10 35L10 34L12 34L12 35L15 35L15 36L14 36L14 37L15 37L15 38L13 38L13 40L12 40L12 41L13 41L13 43L12 43L12 42L10 42L10 43L11 43L11 44L13 44L13 45L11 45L11 46L10 46L10 47L8 47L8 48L9 48L9 49L10 49L10 50L8 50L8 53L9 53L9 52L11 52L11 53L13 53L13 52L14 52L14 53L16 53L16 52L18 52L18 53L19 53L19 52L18 52L18 49L19 49L19 48L18 48L18 47L20 47L20 49L21 49L21 47L20 47L20 45L19 45L19 44L21 44L21 43L22 43L22 45L21 45L21 46L23 46L23 47L22 47L22 48L23 48L23 49L28 49L28 51L29 51L29 52L28 52L28 53L29 53L29 52L30 52L30 51L31 51L31 52L32 52L32 53L34 53L34 52L35 52L35 51L37 51L37 50L38 50L38 51L39 51L39 52L40 52L40 53L41 53L41 52L42 52L42 53L44 53L44 52L42 52L42 47L44 47L44 48L43 48L43 50L44 50L44 51L45 51L45 53L46 53L46 51L47 51L47 49L48 49L48 51L49 51L49 52L47 52L47 53L50 53L50 50L49 50L49 48L50 48L50 46L51 46L51 45L52 45L52 44L53 44L53 42L52 42L52 44L50 44L50 43L51 43L51 42L50 42L50 41L51 41L51 40L50 40L50 39L51 39L51 36L50 36L50 35L49 35L49 34L51 34L51 33L49 33L49 34L48 34L48 36L46 36L46 35L47 35L47 34L46 34L46 35L45 35L45 33L44 33L44 32L46 32L46 33L47 33L47 30L48 30L48 32L50 32L50 31L51 31L51 32L52 32L52 33L53 33L53 29L52 29L52 27L53 27L53 26L52 26L52 27L51 27L51 28L50 28L50 27L49 27L49 26L50 26L50 23L51 23L51 21L53 21L53 18L52 18L52 20L51 20L51 21L49 21L49 20L50 20L50 19L51 19L51 17L50 17L50 16L49 16L49 15L51 15L51 16L52 16L52 15L53 15L53 10L52 10L52 9L53 9L53 8L51 8L51 9L49 9L49 8L45 8L45 6L44 6L44 7L43 7L43 3L44 3L44 4L45 4L45 3L44 3L44 1L43 1L43 0L42 0L42 1L41 1L41 0L38 0L38 1L37 1L37 0L36 0L36 3L35 3L35 0L34 0L34 1L33 1L33 0L32 0L32 2L31 2L31 3L30 3L30 2L29 2L29 3L27 3L27 2L28 2L28 1L27 1L27 0L26 0L26 1L25 1L25 0L24 0L24 1L23 1L23 0L18 0L18 1L16 1L16 2L18 2L18 1L19 1L19 4L20 4L20 5L18 5L18 3L15 3L15 5L16 5L16 7L17 7L17 6L18 6L18 8L19 8L19 12L18 12L18 10L16 10L16 11L17 11L17 12L18 12L18 14L16 14L16 12L14 12L14 11L15 11L15 10L14 10L14 9L15 9L15 8L14 8L14 7L15 7L15 6L14 6L14 7L13 7L13 5L9 5L9 4L11 4L11 3L12 3L12 2L14 2L14 1L15 1L15 0L13 0L13 1L11 1L11 0ZM30 0L30 1L31 1L31 0ZM20 1L20 2L22 2L22 4L21 4L21 5L20 5L20 6L19 6L19 8L20 8L20 6L21 6L21 7L22 7L22 6L23 6L23 7L24 7L24 3L25 3L25 1L24 1L24 2L22 2L22 1ZM26 1L26 2L27 2L27 1ZM38 1L38 2L37 2L37 3L36 3L36 5L35 5L35 7L34 7L34 3L33 3L33 2L32 2L32 6L31 6L31 5L30 5L30 3L29 3L29 7L30 7L30 6L31 6L31 8L29 8L29 9L26 9L26 10L25 10L25 9L24 9L24 10L25 10L25 11L24 11L24 12L25 12L25 13L24 13L24 16L23 16L23 21L22 21L22 18L21 18L21 17L20 17L20 14L21 14L21 12L22 12L22 11L23 11L23 9L22 9L22 8L21 8L21 10L20 10L20 11L21 11L21 12L20 12L20 14L19 14L19 15L18 15L18 16L19 16L19 17L18 17L18 18L19 18L19 20L21 20L21 21L20 21L20 22L19 22L19 21L18 21L18 19L17 19L17 18L16 18L16 19L17 19L17 20L16 20L16 23L14 23L14 24L15 24L15 25L14 25L14 26L15 26L15 28L16 28L16 30L13 30L13 34L15 34L15 32L16 32L16 30L21 30L21 31L18 31L18 32L19 32L19 33L18 33L18 34L16 34L16 35L17 35L17 36L16 36L16 38L15 38L15 39L14 39L14 40L15 40L15 41L14 41L14 42L15 42L15 44L14 44L14 45L15 45L15 44L16 44L16 47L14 47L14 48L13 48L13 46L11 46L11 47L12 47L12 48L10 48L10 49L12 49L12 50L10 50L10 51L12 51L12 50L13 50L13 49L15 49L15 48L16 48L16 47L17 47L17 46L19 46L19 45L18 45L18 43L19 43L19 40L20 40L20 39L21 39L21 38L24 38L24 37L22 37L22 36L25 36L25 37L26 37L26 38L25 38L25 40L23 40L23 39L22 39L22 40L23 40L23 41L22 41L22 43L23 43L23 41L24 41L24 42L25 42L25 41L26 41L26 42L27 42L27 43L26 43L26 44L27 44L27 43L28 43L28 44L29 44L29 45L30 45L30 46L29 46L29 47L30 47L30 48L29 48L29 49L30 49L30 50L32 50L32 51L33 51L33 49L32 49L32 48L34 48L34 50L35 50L35 47L37 47L37 49L38 49L38 50L39 50L39 51L41 51L41 50L39 50L39 49L40 49L40 48L41 48L41 47L42 47L42 46L43 46L43 43L44 43L44 42L45 42L45 43L46 43L46 42L47 42L47 41L48 41L48 43L47 43L47 44L48 44L48 43L49 43L49 41L48 41L48 40L49 40L49 39L50 39L50 36L48 36L48 38L49 38L49 39L48 39L48 40L47 40L47 41L46 41L46 38L47 38L47 37L46 37L46 36L45 36L45 41L44 41L44 42L43 42L43 41L42 41L42 40L44 40L44 38L43 38L43 37L42 37L42 36L41 36L41 38L40 38L40 34L39 34L39 33L40 33L40 32L41 32L41 35L43 35L43 33L42 33L42 32L41 32L41 30L40 30L40 28L41 28L41 29L42 29L42 30L44 30L44 29L42 29L42 27L40 27L40 24L42 24L42 23L44 23L44 24L43 24L43 25L42 25L42 26L43 26L43 25L44 25L44 24L46 24L46 22L48 22L48 20L49 20L49 19L50 19L50 17L48 17L48 19L47 19L47 17L46 17L46 14L47 14L47 15L49 15L49 14L48 14L48 9L46 9L46 10L47 10L47 13L46 13L46 14L45 14L45 13L44 13L44 14L43 14L43 11L45 11L45 9L44 9L44 10L43 10L43 7L42 7L42 5L41 5L41 7L40 7L40 6L39 6L39 5L40 5L40 4L41 4L41 3L40 3L40 4L39 4L39 3L38 3L38 2L39 2L39 1ZM40 1L40 2L41 2L41 1ZM10 2L10 3L11 3L11 2ZM42 2L42 3L43 3L43 2ZM22 4L22 5L23 5L23 4ZM38 4L38 5L36 5L36 7L37 7L37 6L38 6L38 8L36 8L36 9L35 9L35 10L34 10L34 9L33 9L33 6L32 6L32 9L31 9L31 10L30 10L30 9L29 9L29 10L28 10L28 11L29 11L29 12L28 12L28 15L29 15L29 16L26 16L26 15L27 15L27 14L26 14L26 13L27 13L27 12L26 12L26 11L25 11L25 12L26 12L26 13L25 13L25 16L26 16L26 17L24 17L24 18L25 18L25 21L24 21L24 22L23 22L23 24L22 24L22 21L21 21L21 22L20 22L20 24L19 24L19 23L18 23L18 24L19 24L19 26L18 26L18 27L17 27L17 26L16 26L16 27L17 27L17 28L18 28L18 29L19 29L19 28L21 28L21 27L20 27L20 26L21 26L21 25L24 25L24 28L22 28L22 29L21 29L21 30L22 30L22 29L23 29L23 31L22 31L22 32L23 32L23 35L26 35L26 37L27 37L27 38L28 38L28 37L29 37L29 40L28 40L28 39L26 39L26 41L27 41L27 42L28 42L28 41L29 41L29 42L30 42L30 43L29 43L29 44L30 44L30 45L31 45L31 42L30 42L30 41L31 41L31 38L30 38L30 37L31 37L31 34L30 34L30 33L28 33L28 31L30 31L30 29L31 29L31 30L32 30L32 29L33 29L33 30L34 30L34 32L32 32L32 33L33 33L33 35L32 35L32 38L33 38L33 39L32 39L32 43L33 43L33 44L32 44L32 46L30 46L30 47L31 47L31 48L32 48L32 46L33 46L33 47L35 47L35 46L36 46L36 45L37 45L37 44L38 44L38 43L37 43L37 42L38 42L38 40L40 40L40 42L41 42L41 43L43 43L43 42L42 42L42 41L41 41L41 40L40 40L40 39L38 39L38 37L39 37L39 36L38 36L38 35L39 35L39 34L38 34L38 31L40 31L40 30L38 30L38 29L39 29L39 28L40 28L40 27L39 27L39 26L38 26L38 25L37 25L37 24L39 24L39 23L42 23L42 20L43 20L43 18L44 18L44 19L46 19L46 20L45 20L45 22L44 22L44 23L45 23L45 22L46 22L46 20L47 20L47 19L46 19L46 17L45 17L45 16L44 16L44 15L45 15L45 14L44 14L44 15L43 15L43 14L42 14L42 13L41 13L41 12L42 12L42 11L43 11L43 10L42 10L42 9L41 9L41 8L42 8L42 7L41 7L41 8L40 8L40 7L39 7L39 6L38 6L38 5L39 5L39 4ZM25 5L25 8L28 8L28 5ZM9 6L9 7L10 7L10 9L8 9L8 11L9 11L9 10L10 10L10 9L11 9L11 10L12 10L12 8L11 8L11 7L12 7L12 6L11 6L11 7L10 7L10 6ZM26 6L26 7L27 7L27 6ZM16 8L16 9L17 9L17 8ZM38 8L38 10L39 10L39 11L38 11L38 15L37 15L37 13L36 13L36 11L35 11L35 13L34 13L34 14L35 14L35 15L36 15L36 16L35 16L35 17L34 17L34 15L33 15L33 17L34 17L34 19L35 19L35 20L33 20L33 18L32 18L32 14L31 14L31 13L32 13L32 12L34 12L34 11L33 11L33 10L31 10L31 11L32 11L32 12L31 12L31 13L30 13L30 12L29 12L29 13L30 13L30 14L29 14L29 15L30 15L30 16L29 16L29 17L26 17L26 18L27 18L27 19L26 19L26 21L25 21L25 23L24 23L24 24L25 24L25 23L26 23L26 24L27 24L27 23L26 23L26 21L29 21L29 20L30 20L30 23L28 23L28 24L30 24L30 25L29 25L29 28L30 28L30 27L31 27L31 29L32 29L32 28L33 28L33 27L34 27L34 28L35 28L35 27L34 27L34 26L35 26L35 25L36 25L36 27L38 27L38 26L37 26L37 25L36 25L36 24L37 24L37 23L36 23L36 24L34 24L34 26L33 26L33 25L32 25L32 23L34 23L34 22L37 22L37 21L36 21L36 20L37 20L37 19L35 19L35 18L37 18L37 17L36 17L36 16L38 16L38 18L40 18L40 19L39 19L39 21L38 21L38 22L40 22L40 19L41 19L41 20L42 20L42 18L43 18L43 16L42 16L42 14L40 14L40 12L41 12L41 10L40 10L40 8ZM5 9L5 10L7 10L7 9ZM13 10L13 11L14 11L14 10ZM21 10L21 11L22 11L22 10ZM49 10L49 11L50 11L50 12L49 12L49 13L50 13L50 14L51 14L51 15L52 15L52 13L50 13L50 12L51 12L51 11L52 11L52 10L51 10L51 11L50 11L50 10ZM6 11L6 12L5 12L5 13L6 13L6 12L7 12L7 11ZM35 13L35 14L36 14L36 13ZM22 14L22 15L21 15L21 16L22 16L22 15L23 15L23 14ZM39 14L39 15L38 15L38 16L39 16L39 15L40 15L40 14ZM6 16L6 17L7 17L7 16ZM9 16L9 17L10 17L10 16ZM40 16L40 17L41 17L41 18L42 18L42 16ZM29 17L29 18L28 18L28 19L27 19L27 20L28 20L28 19L29 19L29 18L30 18L30 20L31 20L31 19L32 19L32 18L30 18L30 17ZM44 17L44 18L45 18L45 17ZM20 18L20 19L21 19L21 18ZM14 19L14 20L15 20L15 19ZM32 20L32 22L34 22L34 21L33 21L33 20ZM17 21L17 22L18 22L18 21ZM49 22L49 23L47 23L47 24L49 24L49 23L50 23L50 22ZM52 22L52 23L53 23L53 22ZM11 23L11 24L10 24L10 25L9 25L9 26L10 26L10 25L11 25L11 26L12 26L12 29L13 29L13 28L14 28L14 27L13 27L13 23ZM16 23L16 25L17 25L17 23ZM51 24L51 25L52 25L52 24ZM5 25L5 28L8 28L8 25ZM25 25L25 28L28 28L28 25ZM31 25L31 27L32 27L32 25ZM45 25L45 28L48 28L48 25ZM6 26L6 27L7 27L7 26ZM22 26L22 27L23 27L23 26ZM26 26L26 27L27 27L27 26ZM46 26L46 27L47 27L47 26ZM3 27L3 28L4 28L4 27ZM9 27L9 28L11 28L11 27ZM43 27L43 28L44 28L44 27ZM37 28L37 29L36 29L36 31L37 31L37 29L38 29L38 28ZM4 29L4 31L3 31L3 30L2 30L2 31L3 31L3 32L4 32L4 31L5 31L5 32L7 32L7 31L8 31L8 32L10 32L10 33L12 33L12 30L11 30L11 29ZM27 29L27 30L26 30L26 31L25 31L25 32L24 32L24 31L23 31L23 32L24 32L24 33L25 33L25 34L26 34L26 35L28 35L28 36L27 36L27 37L28 37L28 36L29 36L29 37L30 37L30 35L28 35L28 33L26 33L26 31L27 31L27 30L28 30L28 29ZM34 29L34 30L35 30L35 29ZM46 29L46 30L45 30L45 31L46 31L46 30L47 30L47 29ZM48 29L48 30L49 30L49 31L50 31L50 30L51 30L51 31L52 31L52 30L51 30L51 29L50 29L50 30L49 30L49 29ZM6 30L6 31L7 31L7 30ZM8 30L8 31L11 31L11 30ZM14 31L14 32L15 32L15 31ZM43 31L43 32L44 32L44 31ZM20 32L20 33L21 33L21 32ZM34 32L34 35L33 35L33 36L34 36L34 39L33 39L33 40L34 40L34 39L35 39L35 41L34 41L34 43L35 43L35 45L34 45L34 46L35 46L35 45L36 45L36 43L35 43L35 41L36 41L36 42L37 42L37 41L36 41L36 40L38 40L38 39L37 39L37 37L36 37L36 36L37 36L37 35L38 35L38 34L37 34L37 33L36 33L36 34L35 34L35 32ZM4 33L4 35L3 35L3 38L4 38L4 36L7 36L7 35L6 35L6 34L7 34L7 33L6 33L6 34L5 34L5 33ZM18 34L18 38L19 38L19 39L18 39L18 40L19 40L19 39L20 39L20 38L19 38L19 34ZM20 34L20 35L22 35L22 34ZM36 34L36 35L34 35L34 36L36 36L36 35L37 35L37 34ZM52 34L52 35L53 35L53 34ZM8 35L8 36L9 36L9 37L6 37L6 38L7 38L7 39L4 39L4 40L7 40L7 39L8 39L8 40L9 40L9 39L10 39L10 38L9 38L9 37L10 37L10 35ZM35 37L35 38L36 38L36 37ZM52 37L52 39L53 39L53 37ZM15 39L15 40L16 40L16 41L17 41L17 39ZM27 40L27 41L28 41L28 40ZM29 40L29 41L30 41L30 40ZM52 40L52 41L53 41L53 40ZM6 41L6 42L7 42L7 41ZM45 41L45 42L46 42L46 41ZM2 42L2 43L3 43L3 42ZM16 42L16 43L18 43L18 42ZM20 42L20 43L21 43L21 42ZM24 43L24 44L23 44L23 46L24 46L24 44L25 44L25 43ZM40 44L40 45L39 45L39 47L38 47L38 49L39 49L39 47L40 47L40 45L41 45L41 46L42 46L42 44ZM49 44L49 46L50 46L50 44ZM25 45L25 48L28 48L28 45ZM45 45L45 48L48 48L48 45ZM26 46L26 47L27 47L27 46ZM46 46L46 47L47 47L47 46ZM52 46L52 47L51 47L51 48L52 48L52 47L53 47L53 46ZM44 49L44 50L45 50L45 51L46 51L46 49ZM16 50L16 51L17 51L17 50ZM20 50L20 51L21 51L21 52L20 52L20 53L21 53L21 52L22 52L22 53L23 53L23 52L24 52L24 53L25 53L25 52L24 52L24 51L25 51L25 50L24 50L24 51L23 51L23 50ZM22 51L22 52L23 52L23 51ZM26 52L26 53L27 53L27 52ZM36 52L36 53L38 53L38 52ZM52 52L52 53L53 53L53 52ZM0 0L0 7L7 7L7 0ZM1 1L1 6L6 6L6 1ZM2 2L2 5L5 5L5 2ZM46 0L46 7L53 7L53 0ZM47 1L47 6L52 6L52 1ZM48 2L48 5L51 5L51 2ZM0 46L0 53L7 53L7 46ZM1 47L1 52L6 52L6 47ZM2 48L2 51L5 51L5 48Z" fill="#000000"/></g></g></svg>
