<?xml version="1.0" encoding="UTF-8"?>
<svg xmlns="http://www.w3.org/2000/svg" version="1.1" width="356" height="356" viewBox="0 0 356 356"><rect x="0" y="0" width="356" height="356" fill="#ffffff"/><g transform="scale(6.717)"><g transform="translate(0,0)"><path fill-rule="evenodd" d="M8 0L8 4L9 4L9 5L8 5L8 7L9 7L9 9L11 9L11 11L10 11L10 10L9 10L9 11L8 11L8 10L5 10L5 12L6 12L6 13L7 13L7 14L5 14L5 13L4 13L4 9L7 9L7 8L4 8L4 9L2 9L2 8L0 8L0 11L2 11L2 12L3 12L3 14L2 14L2 13L1 13L1 12L0 12L0 15L1 15L1 16L0 16L0 17L1 17L1 16L2 16L2 15L3 15L3 16L4 16L4 15L3 15L3 14L5 14L5 17L4 17L4 18L5 18L5 17L9 17L9 18L10 18L10 19L8 19L8 18L6 18L6 19L7 19L7 20L5 20L5 19L2 19L2 18L0 18L0 22L1 22L1 23L0 23L0 26L1 26L1 27L2 27L2 28L3 28L3 26L2 26L2 24L4 24L4 29L3 29L3 30L2 30L2 31L1 31L1 28L0 28L0 34L1 34L1 35L0 35L0 37L1 37L1 35L3 35L3 36L4 36L4 37L2 37L2 38L3 38L3 40L4 40L4 39L8 39L8 40L5 40L5 41L4 41L4 42L3 42L3 41L2 41L2 39L0 39L0 40L1 40L1 41L0 41L0 43L1 43L1 44L3 44L3 45L4 45L4 44L3 44L3 43L7 43L7 44L6 44L6 45L7 45L7 44L8 44L8 46L9 46L9 47L8 47L8 49L10 49L10 50L9 50L9 51L8 51L8 53L9 53L9 51L10 51L10 50L11 50L11 48L12 48L12 49L14 49L14 50L12 50L12 51L11 51L11 52L13 52L13 51L14 51L14 50L15 50L15 51L16 51L16 50L17 50L17 51L20 51L20 50L21 50L21 52L20 52L20 53L22 53L22 52L23 52L23 53L28 53L28 52L29 52L29 53L30 53L30 52L29 52L29 50L32 50L32 51L31 51L31 52L32 52L32 53L33 53L33 52L34 52L34 53L40 53L40 51L42 51L42 50L43 50L43 53L44 53L44 50L45 50L45 51L46 51L46 53L47 53L47 52L48 52L48 53L50 53L50 51L51 51L51 53L52 53L52 52L53 52L53 51L51 51L51 50L50 50L50 49L49 49L49 48L50 48L50 47L51 47L51 46L50 46L50 45L51 45L51 44L52 44L52 45L53 45L53 44L52 44L52 43L53 43L53 42L52 42L52 43L51 43L51 44L50 44L50 43L48 43L48 44L46 44L46 43L47 43L47 42L49 42L49 41L50 41L50 42L51 42L51 41L52 41L52 40L53 40L53 38L52 38L52 39L51 39L51 40L50 40L50 37L53 37L53 34L52 34L52 35L51 35L51 36L50 36L50 34L49 34L49 32L50 32L50 30L52 30L52 32L51 32L51 33L53 33L53 26L52 26L52 29L51 29L51 28L50 28L50 22L49 22L49 24L48 24L48 23L47 23L47 22L48 22L48 21L49 21L49 20L50 20L50 18L49 18L49 17L50 17L50 16L49 16L49 15L48 15L48 17L47 17L47 19L49 19L49 20L45 20L45 19L46 19L46 15L47 15L47 14L46 14L46 12L44 12L44 11L47 11L47 13L50 13L50 14L52 14L52 15L51 15L51 17L53 17L53 16L52 16L52 15L53 15L53 14L52 14L52 13L51 13L51 12L50 12L50 11L51 11L51 10L52 10L52 11L53 11L53 10L52 10L52 9L53 9L53 8L49 8L49 9L50 9L50 10L49 10L49 11L47 11L47 10L46 10L46 9L45 9L45 6L44 6L44 7L43 7L43 3L44 3L44 4L45 4L45 3L44 3L44 1L43 1L43 0L42 0L42 1L41 1L41 0L40 0L40 1L39 1L39 0L38 0L38 2L37 2L37 4L38 4L38 8L36 8L36 7L37 7L37 6L36 6L36 7L35 7L35 5L34 5L34 3L36 3L36 2L35 2L35 1L37 1L37 0L35 0L35 1L34 1L34 0L32 0L32 1L31 1L31 0L28 0L28 1L26 1L26 0L23 0L23 1L22 1L22 2L21 2L21 0L13 0L13 1L14 1L14 2L15 2L15 1L16 1L16 2L18 2L18 3L19 3L19 4L20 4L20 8L19 8L19 6L18 6L18 5L16 5L16 7L15 7L15 5L13 5L13 4L11 4L11 6L10 6L10 7L9 7L9 5L10 5L10 3L9 3L9 0ZM10 0L10 1L11 1L11 0ZM19 1L19 3L21 3L21 4L22 4L22 5L21 5L21 8L22 8L22 9L19 9L19 8L18 8L18 9L17 9L17 8L16 8L16 9L15 9L15 10L14 10L14 9L12 9L12 6L13 6L13 7L14 7L14 8L15 8L15 7L14 7L14 6L13 6L13 5L12 5L12 6L11 6L11 7L10 7L10 8L11 8L11 9L12 9L12 11L11 11L11 12L12 12L12 13L9 13L9 14L8 14L8 15L10 15L10 16L9 16L9 17L10 17L10 18L11 18L11 19L10 19L10 20L7 20L7 21L6 21L6 22L5 22L5 23L4 23L4 24L7 24L7 23L6 23L6 22L8 22L8 24L9 24L9 26L10 26L10 23L9 23L9 21L10 21L10 20L12 20L12 21L13 21L13 23L14 23L14 24L15 24L15 21L16 21L16 25L15 25L15 26L14 26L14 25L12 25L12 24L11 24L11 27L9 27L9 28L10 28L10 29L11 29L11 27L12 27L12 29L13 29L13 30L15 30L15 31L16 31L16 32L14 32L14 31L12 31L12 30L11 30L11 31L10 31L10 33L9 33L9 32L7 32L7 31L9 31L9 29L6 29L6 30L7 30L7 31L6 31L6 32L7 32L7 33L5 33L5 34L4 34L4 32L3 32L3 35L4 35L4 36L5 36L5 38L9 38L9 37L10 37L10 38L11 38L11 40L10 40L10 39L9 39L9 40L10 40L10 42L9 42L9 41L6 41L6 42L7 42L7 43L9 43L9 44L10 44L10 42L12 42L12 43L14 43L14 46L15 46L15 45L16 45L16 48L15 48L15 49L18 49L18 48L19 48L19 49L20 49L20 48L21 48L21 47L22 47L22 48L23 48L23 49L21 49L21 50L22 50L22 51L23 51L23 52L26 52L26 51L25 51L25 50L26 50L26 49L24 49L24 47L23 47L23 46L24 46L24 43L26 43L26 44L27 44L27 43L29 43L29 44L30 44L30 43L29 43L29 42L27 42L27 43L26 43L26 42L25 42L25 41L26 41L26 40L28 40L28 41L29 41L29 40L28 40L28 39L29 39L29 37L30 37L30 36L28 36L28 34L29 34L29 35L31 35L31 34L29 34L29 33L30 33L30 32L31 32L31 33L32 33L32 32L33 32L33 33L34 33L34 35L33 35L33 36L34 36L34 38L33 38L33 37L31 37L31 38L30 38L30 39L31 39L31 41L32 41L32 43L31 43L31 45L32 45L32 43L33 43L33 44L34 44L34 43L35 43L35 42L36 42L36 44L37 44L37 45L34 45L34 46L32 46L32 48L30 48L30 49L32 49L32 48L33 48L33 49L34 49L34 50L35 50L35 51L34 51L34 52L37 52L37 50L38 50L38 52L39 52L39 51L40 51L40 50L41 50L41 49L42 49L42 48L40 48L40 47L41 47L41 46L40 46L40 47L39 47L39 48L40 48L40 49L39 49L39 50L38 50L38 47L37 47L37 49L36 49L36 47L35 47L35 49L34 49L34 48L33 48L33 47L34 47L34 46L37 46L37 45L38 45L38 44L39 44L39 43L40 43L40 42L41 42L41 41L42 41L42 40L40 40L40 42L38 42L38 41L39 41L39 39L41 39L41 36L40 36L40 38L38 38L38 37L39 37L39 34L40 34L40 35L43 35L43 36L44 36L44 37L43 37L43 40L44 40L44 42L45 42L45 43L46 43L46 41L45 41L45 40L49 40L49 38L48 38L48 39L45 39L45 38L47 38L47 37L49 37L49 36L46 36L46 37L45 37L45 36L44 36L44 34L45 34L45 35L46 35L46 34L45 34L45 32L44 32L44 29L43 29L43 30L41 30L41 28L42 28L42 27L43 27L43 28L44 28L44 27L43 27L43 26L41 26L41 24L42 24L42 25L44 25L44 24L45 24L45 23L44 23L44 21L45 21L45 20L44 20L44 19L45 19L45 18L44 18L44 16L43 16L43 15L45 15L45 14L44 14L44 13L43 13L43 11L42 11L42 10L39 10L39 11L38 11L38 13L37 13L37 15L34 15L34 19L32 19L32 18L33 18L33 17L32 17L32 15L33 15L33 14L32 14L32 15L31 15L31 14L30 14L30 15L28 15L28 14L27 14L27 13L28 13L28 12L30 12L30 11L28 11L28 10L29 10L29 9L25 9L25 10L23 10L23 7L24 7L24 5L23 5L23 4L24 4L24 3L23 3L23 2L26 2L26 3L27 3L27 2L26 2L26 1L23 1L23 2L22 2L22 3L21 3L21 2L20 2L20 1ZM28 1L28 2L29 2L29 1ZM32 1L32 2L33 2L33 3L32 3L32 4L31 4L31 3L30 3L30 4L31 4L31 10L33 10L33 9L32 9L32 4L33 4L33 3L34 3L34 2L33 2L33 1ZM40 1L40 2L41 2L41 1ZM12 2L12 3L13 3L13 2ZM38 2L38 3L39 3L39 7L40 7L40 3L39 3L39 2ZM42 2L42 3L41 3L41 7L42 7L42 3L43 3L43 2ZM22 3L22 4L23 4L23 3ZM28 3L28 4L29 4L29 3ZM25 5L25 8L28 8L28 5ZM29 5L29 7L30 7L30 5ZM33 5L33 7L34 7L34 5ZM17 6L17 7L18 7L18 6ZM22 6L22 7L23 7L23 6ZM26 6L26 7L27 7L27 6ZM38 8L38 9L36 9L36 11L37 11L37 10L38 10L38 9L39 9L39 8ZM40 8L40 9L42 9L42 8ZM43 8L43 10L44 10L44 8ZM47 8L47 9L48 9L48 8ZM1 9L1 10L2 10L2 9ZM18 9L18 10L16 10L16 11L15 11L15 12L14 12L14 11L12 11L12 12L13 12L13 13L12 13L12 14L13 14L13 15L14 15L14 16L15 16L15 14L16 14L16 15L18 15L18 14L16 14L16 13L20 13L20 14L19 14L19 15L20 15L20 17L19 17L19 16L18 16L18 17L13 17L13 18L12 18L12 20L13 20L13 21L15 21L15 20L14 20L14 18L15 18L15 19L16 19L16 18L17 18L17 20L16 20L16 21L17 21L17 22L18 22L18 23L17 23L17 25L18 25L18 26L19 26L19 25L21 25L21 23L22 23L22 24L23 24L23 23L22 23L22 19L25 19L25 21L24 21L24 23L25 23L25 24L24 24L24 25L23 25L23 26L24 26L24 27L22 27L22 26L20 26L20 27L18 27L18 28L17 28L17 26L16 26L16 27L14 27L14 28L13 28L13 29L15 29L15 30L16 30L16 31L18 31L18 30L22 30L22 28L23 28L23 29L25 29L25 32L24 32L24 33L27 33L27 34L26 34L26 38L28 38L28 36L27 36L27 34L28 34L28 33L29 33L29 32L30 32L30 31L31 31L31 28L32 28L32 29L33 29L33 32L34 32L34 33L35 33L35 34L37 34L37 36L35 36L35 38L36 38L36 37L37 37L37 36L38 36L38 34L39 34L39 33L40 33L40 32L41 32L41 30L40 30L40 31L39 31L39 32L38 32L38 30L39 30L39 29L40 29L40 28L41 28L41 26L40 26L40 25L38 25L38 24L34 24L34 25L33 25L33 23L38 23L38 22L39 22L39 23L40 23L40 21L39 21L39 19L41 19L41 20L43 20L43 21L41 21L41 23L43 23L43 21L44 21L44 20L43 20L43 19L42 19L42 18L43 18L43 16L42 16L42 14L43 14L43 13L42 13L42 12L41 12L41 11L40 11L40 12L39 12L39 13L38 13L38 15L39 15L39 16L35 16L35 17L36 17L36 18L35 18L35 19L36 19L36 18L37 18L37 17L38 17L38 19L37 19L37 20L32 20L32 19L31 19L31 20L32 20L32 21L30 21L30 20L29 20L29 19L30 19L30 18L32 18L32 17L29 17L29 16L28 16L28 24L26 24L26 22L25 22L25 21L26 21L26 19L27 19L27 18L26 18L26 17L27 17L27 16L26 16L26 13L27 13L27 12L28 12L28 11L27 11L27 10L25 10L25 12L24 12L24 13L20 13L20 12L22 12L22 11L23 11L23 10L22 10L22 11L21 11L21 10L20 10L20 11L19 11L19 9ZM34 9L34 10L35 10L35 9ZM6 11L6 12L7 12L7 13L8 13L8 11ZM17 11L17 12L19 12L19 11ZM26 11L26 12L25 12L25 13L24 13L24 14L22 14L22 16L21 16L21 17L23 17L23 18L24 18L24 17L25 17L25 13L26 13L26 12L27 12L27 11ZM31 11L31 13L32 13L32 12L34 12L34 14L35 14L35 11ZM15 12L15 13L13 13L13 14L15 14L15 13L16 13L16 12ZM40 12L40 13L39 13L39 14L41 14L41 12ZM20 14L20 15L21 15L21 14ZM6 15L6 16L7 16L7 15ZM30 15L30 16L31 16L31 15ZM10 16L10 17L12 17L12 16ZM23 16L23 17L24 17L24 16ZM40 16L40 17L39 17L39 18L40 18L40 17L42 17L42 16ZM18 18L18 19L19 19L19 20L21 20L21 19L22 19L22 18L20 18L20 19L19 19L19 18ZM25 18L25 19L26 19L26 18ZM52 18L52 19L51 19L51 20L52 20L52 19L53 19L53 18ZM1 20L1 21L2 21L2 23L3 23L3 21L5 21L5 20L3 20L3 21L2 21L2 20ZM37 20L37 22L38 22L38 20ZM19 21L19 22L20 22L20 23L19 23L19 24L18 24L18 25L19 25L19 24L20 24L20 23L21 23L21 22L20 22L20 21ZM32 21L32 22L30 22L30 23L29 23L29 25L31 25L31 27L30 27L30 26L29 26L29 28L31 28L31 27L32 27L32 28L33 28L33 29L34 29L34 30L35 30L35 28L36 28L36 27L35 27L35 28L34 28L34 26L35 26L35 25L34 25L34 26L33 26L33 27L32 27L32 22L33 22L33 21ZM34 21L34 22L36 22L36 21ZM46 21L46 22L47 22L47 21ZM11 22L11 23L12 23L12 22ZM52 22L52 25L53 25L53 22ZM46 23L46 24L47 24L47 23ZM5 25L5 28L8 28L8 25ZM25 25L25 28L28 28L28 25ZM37 25L37 26L38 26L38 27L37 27L37 28L38 28L38 29L37 29L37 30L36 30L36 31L34 31L34 32L35 32L35 33L36 33L36 31L37 31L37 30L38 30L38 29L39 29L39 28L40 28L40 26L38 26L38 25ZM45 25L45 28L48 28L48 25ZM6 26L6 27L7 27L7 26ZM12 26L12 27L13 27L13 26ZM26 26L26 27L27 27L27 26ZM46 26L46 27L47 27L47 26ZM21 27L21 28L19 28L19 29L21 29L21 28L22 28L22 27ZM38 27L38 28L39 28L39 27ZM15 28L15 29L16 29L16 30L18 30L18 29L16 29L16 28ZM26 29L26 30L27 30L27 31L26 31L26 32L28 32L28 30L29 30L29 31L30 31L30 30L29 30L29 29ZM45 29L45 31L46 31L46 33L48 33L48 32L47 32L47 31L49 31L49 30L50 30L50 29L49 29L49 30L47 30L47 31L46 31L46 29ZM3 30L3 31L4 31L4 30ZM23 30L23 31L24 31L24 30ZM21 31L21 32L20 32L20 33L19 33L19 32L18 32L18 33L13 33L13 32L12 32L12 34L11 34L11 33L10 33L10 35L13 35L13 34L15 34L15 35L16 35L16 34L19 34L19 35L17 35L17 36L16 36L16 37L15 37L15 36L14 36L14 37L13 37L13 36L10 36L10 37L13 37L13 38L12 38L12 40L11 40L11 41L14 41L14 43L15 43L15 44L16 44L16 45L18 45L18 46L17 46L17 47L18 47L18 46L19 46L19 47L20 47L20 46L23 46L23 45L22 45L22 44L23 44L23 43L24 43L24 41L25 41L25 40L26 40L26 39L24 39L24 38L25 38L25 37L24 37L24 36L23 36L23 35L25 35L25 34L22 34L22 36L21 36L21 37L19 37L19 35L20 35L20 34L21 34L21 33L23 33L23 32L22 32L22 31ZM1 32L1 34L2 34L2 32ZM37 32L37 34L38 34L38 32ZM42 32L42 33L41 33L41 34L43 34L43 33L44 33L44 32ZM7 33L7 34L5 34L5 35L7 35L7 36L6 36L6 37L7 37L7 36L8 36L8 37L9 37L9 36L8 36L8 35L9 35L9 33ZM7 34L7 35L8 35L8 34ZM22 36L22 37L21 37L21 38L19 38L19 37L16 37L16 38L13 38L13 39L14 39L14 40L16 40L16 41L15 41L15 43L16 43L16 42L18 42L18 41L19 41L19 43L20 43L20 42L21 42L21 44L22 44L22 43L23 43L23 40L24 40L24 39L23 39L23 40L22 40L22 39L21 39L21 38L23 38L23 36ZM18 38L18 39L17 39L17 41L18 41L18 40L19 40L19 41L21 41L21 42L22 42L22 41L21 41L21 40L20 40L20 39L19 39L19 38ZM32 38L32 41L33 41L33 43L34 43L34 41L33 41L33 40L34 40L34 39L33 39L33 38ZM37 38L37 39L38 39L38 38ZM35 39L35 41L36 41L36 42L37 42L37 41L38 41L38 40L36 40L36 39ZM44 39L44 40L45 40L45 39ZM1 41L1 42L2 42L2 43L3 43L3 42L2 42L2 41ZM41 43L41 44L40 44L40 45L41 45L41 44L42 44L42 43ZM43 43L43 44L44 44L44 43ZM11 44L11 45L9 45L9 46L11 46L11 45L13 45L13 44ZM19 44L19 46L20 46L20 44ZM25 45L25 48L28 48L28 45ZM45 45L45 48L48 48L48 45ZM12 46L12 47L13 47L13 46ZM26 46L26 47L27 47L27 46ZM29 46L29 47L31 47L31 46ZM42 46L42 47L44 47L44 46ZM46 46L46 47L47 47L47 46ZM49 46L49 47L50 47L50 46ZM52 46L52 47L53 47L53 46ZM9 47L9 48L11 48L11 47ZM51 48L51 49L53 49L53 48ZM23 49L23 50L24 50L24 49ZM27 49L27 51L28 51L28 49ZM45 49L45 50L46 50L46 51L48 51L48 52L49 52L49 51L50 51L50 50L49 50L49 49ZM32 51L32 52L33 52L33 51ZM14 52L14 53L15 53L15 52ZM16 52L16 53L19 53L19 52ZM0 0L0 7L7 7L7 0ZM1 1L1 6L6 6L6 1ZM2 2L2 5L5 5L5 2ZM46 0L46 7L53 7L53 0ZM47 1L47 6L52 6L52 1ZM48 2L48 5L51 5L51 2ZM0 46L0 53L7 53L7 46ZM1 47L1 52L6 52L6 47ZM2 48L2 51L5 51L5 48Z" fill="#000000"/></g></g></svg>
