<?xml version="1.0" encoding="UTF-8"?>
<svg xmlns="http://www.w3.org/2000/svg" version="1.1" width="356" height="356" viewBox="0 0 356 356"><rect x="0" y="0" width="356" height="356" fill="#ffffff"/><g transform="scale(6.717)"><g transform="translate(0,0)"><path fill-rule="evenodd" d="M8 0L8 2L10 2L10 4L8 4L8 9L9 9L9 10L11 10L11 12L10 12L10 14L9 14L9 13L8 13L8 12L9 12L9 11L7 11L7 10L6 10L6 11L7 11L7 12L5 12L5 9L7 9L7 8L5 8L5 9L4 9L4 10L2 10L2 9L3 9L3 8L0 8L0 9L1 9L1 10L0 10L0 11L1 11L1 12L0 12L0 13L1 13L1 16L0 16L0 18L1 18L1 16L2 16L2 15L4 15L4 16L5 16L5 17L7 17L7 18L5 18L5 21L4 21L4 17L3 17L3 21L2 21L2 22L1 22L1 23L2 23L2 24L0 24L0 25L1 25L1 26L0 26L0 27L1 27L1 28L2 28L2 27L1 27L1 26L3 26L3 22L4 22L4 27L3 27L3 28L4 28L4 29L3 29L3 30L2 30L2 33L1 33L1 31L0 31L0 33L1 33L1 34L0 34L0 35L1 35L1 36L2 36L2 35L3 35L3 36L5 36L5 38L6 38L6 39L7 39L7 40L6 40L6 41L7 41L7 42L4 42L4 40L5 40L5 39L4 39L4 40L0 40L0 43L1 43L1 44L3 44L3 45L4 45L4 44L3 44L3 43L7 43L7 44L6 44L6 45L7 45L7 44L8 44L8 46L9 46L9 47L8 47L8 48L10 48L10 47L12 47L12 48L11 48L11 49L9 49L9 50L8 50L8 53L11 53L11 52L12 52L12 53L14 53L14 50L11 50L11 49L13 49L13 47L12 47L12 46L10 46L10 43L12 43L12 44L13 44L13 45L14 45L14 46L15 46L15 47L16 47L16 48L15 48L15 53L16 53L16 52L18 52L18 53L19 53L19 52L18 52L18 49L19 49L19 48L18 48L18 47L20 47L20 49L21 49L21 47L20 47L20 45L19 45L19 44L22 44L22 45L21 45L21 46L23 46L23 47L22 47L22 48L23 48L23 50L22 50L22 53L23 53L23 51L24 51L24 53L25 53L25 52L26 52L26 49L27 49L27 52L28 52L28 53L31 53L31 52L32 52L32 53L33 53L33 52L34 52L34 53L35 53L35 50L36 50L36 51L37 51L37 52L36 52L36 53L39 53L39 50L38 50L38 49L39 49L39 48L40 48L40 49L41 49L41 51L40 51L40 53L42 53L42 52L44 52L44 51L45 51L45 53L46 53L46 50L44 50L44 51L43 51L43 50L42 50L42 47L43 47L43 49L48 49L48 51L49 51L49 52L47 52L47 53L50 53L50 50L49 50L49 48L50 48L50 46L52 46L52 48L53 48L53 46L52 46L52 44L53 44L53 42L52 42L52 44L50 44L50 43L51 43L51 42L50 42L50 41L51 41L51 40L50 40L50 39L51 39L51 38L52 38L52 39L53 39L53 38L52 38L52 37L51 37L51 36L50 36L50 34L51 34L51 33L53 33L53 29L52 29L52 27L53 27L53 26L52 26L52 27L51 27L51 26L50 26L50 23L51 23L51 25L52 25L52 24L53 24L53 22L52 22L52 21L53 21L53 18L52 18L52 20L51 20L51 21L49 21L49 20L48 20L48 17L49 17L49 18L50 18L50 19L51 19L51 18L50 18L50 16L49 16L49 15L51 15L51 17L52 17L52 15L53 15L53 14L52 14L52 13L53 13L53 10L52 10L52 9L53 9L53 8L51 8L51 10L52 10L52 11L51 11L51 12L50 12L50 11L49 11L49 10L50 10L50 9L49 9L49 8L45 8L45 6L44 6L44 8L43 8L43 10L44 10L44 11L43 11L43 12L42 12L42 9L41 9L41 8L42 8L42 7L43 7L43 3L44 3L44 4L45 4L45 3L44 3L44 1L43 1L43 0L41 0L41 1L40 1L40 0L38 0L38 1L37 1L37 0L36 0L36 2L35 2L35 0L34 0L34 1L33 1L33 0L32 0L32 2L35 2L35 4L34 4L34 3L33 3L33 4L32 4L32 5L33 5L33 6L32 6L32 9L31 9L31 10L30 10L30 8L31 8L31 6L30 6L30 5L31 5L31 4L30 4L30 3L31 3L31 2L30 2L30 3L29 3L29 2L28 2L28 0L26 0L26 4L24 4L24 7L23 7L23 4L22 4L22 3L23 3L23 2L24 2L24 1L25 1L25 0L24 0L24 1L23 1L23 2L22 2L22 0L18 0L18 1L16 1L16 2L18 2L18 1L19 1L19 4L20 4L20 5L18 5L18 3L15 3L15 0L13 0L13 1L14 1L14 3L15 3L15 5L16 5L16 7L17 7L17 6L18 6L18 8L19 8L19 12L18 12L18 10L16 10L16 11L17 11L17 12L18 12L18 14L16 14L16 12L13 12L13 11L15 11L15 10L14 10L14 9L15 9L15 8L14 8L14 7L15 7L15 6L14 6L14 7L13 7L13 6L12 6L12 4L11 4L11 3L12 3L12 0L11 0L11 2L10 2L10 0ZM30 0L30 1L31 1L31 0ZM20 1L20 2L21 2L21 1ZM38 1L38 2L37 2L37 3L36 3L36 4L37 4L37 5L36 5L36 6L35 6L35 7L34 7L34 6L33 6L33 9L34 9L34 10L35 10L35 9L36 9L36 8L38 8L38 9L37 9L37 11L36 11L36 12L35 12L35 11L34 11L34 12L35 12L35 13L34 13L34 14L35 14L35 15L36 15L36 16L35 16L35 17L34 17L34 15L33 15L33 17L34 17L34 19L35 19L35 20L34 20L34 22L32 22L32 21L30 21L30 22L31 22L31 23L29 23L29 29L25 29L25 31L24 31L24 32L22 32L22 31L23 31L23 30L24 30L24 29L23 29L23 30L22 30L22 28L24 28L24 24L25 24L25 23L26 23L26 24L28 24L28 23L26 23L26 22L25 22L25 21L24 21L24 20L25 20L25 19L26 19L26 21L29 21L29 19L28 19L28 18L29 18L29 17L28 17L28 18L27 18L27 17L25 17L25 15L26 15L26 16L28 16L28 12L27 12L27 11L28 11L28 10L29 10L29 9L27 9L27 10L26 10L26 9L24 9L24 10L25 10L25 11L24 11L24 12L23 12L23 14L22 14L22 11L21 11L21 10L23 10L23 9L22 9L22 8L23 8L23 7L22 7L22 4L21 4L21 5L20 5L20 6L19 6L19 8L20 8L20 6L21 6L21 7L22 7L22 8L21 8L21 10L20 10L20 11L21 11L21 12L20 12L20 14L19 14L19 15L18 15L18 16L19 16L19 17L18 17L18 18L19 18L19 20L21 20L21 21L20 21L20 22L19 22L19 21L18 21L18 19L17 19L17 18L16 18L16 19L17 19L17 20L16 20L16 23L14 23L14 24L15 24L15 25L14 25L14 26L15 26L15 28L16 28L16 30L13 30L13 32L11 32L11 31L12 31L12 29L13 29L13 28L14 28L14 27L12 27L12 26L11 26L11 24L12 24L12 23L13 23L13 22L12 22L12 21L13 21L13 20L12 20L12 17L13 17L13 19L14 19L14 20L15 20L15 19L14 19L14 18L15 18L15 16L14 16L14 15L16 15L16 14L13 14L13 12L12 12L12 14L13 14L13 15L12 15L12 17L9 17L9 15L6 15L6 14L7 14L7 13L4 13L4 15L6 15L6 16L8 16L8 18L11 18L11 20L9 20L9 23L8 23L8 24L9 24L9 25L10 25L10 27L9 27L9 28L10 28L10 30L9 30L9 31L8 31L8 29L5 29L5 30L4 30L4 31L5 31L5 32L7 32L7 33L5 33L5 34L7 34L7 35L6 35L6 36L8 36L8 34L9 34L9 35L10 35L10 34L9 34L9 33L10 33L10 32L11 32L11 34L12 34L12 35L11 35L11 38L10 38L10 37L8 37L8 38L9 38L9 39L8 39L8 40L7 40L7 41L9 41L9 39L10 39L10 41L11 41L11 40L12 40L12 42L13 42L13 44L16 44L16 47L17 47L17 46L19 46L19 45L18 45L18 43L19 43L19 40L20 40L20 39L21 39L21 38L22 38L22 36L23 36L23 34L24 34L24 33L25 33L25 35L24 35L24 36L25 36L25 40L23 40L23 39L22 39L22 40L23 40L23 41L22 41L22 42L20 42L20 43L22 43L22 42L23 42L23 41L24 41L24 42L25 42L25 44L27 44L27 43L28 43L28 44L29 44L29 45L30 45L30 46L31 46L31 47L29 47L29 48L31 48L31 49L30 49L30 52L31 52L31 50L32 50L32 52L33 52L33 49L32 49L32 48L34 48L34 50L35 50L35 49L36 49L36 50L37 50L37 51L38 51L38 50L37 50L37 49L38 49L38 48L39 48L39 45L40 45L40 44L42 44L42 46L40 46L40 48L41 48L41 47L42 47L42 46L43 46L43 44L44 44L44 42L43 42L43 40L44 40L44 41L45 41L45 44L46 44L46 40L44 40L44 39L45 39L45 38L47 38L47 35L49 35L49 34L50 34L50 33L51 33L51 32L52 32L52 29L50 29L50 28L51 28L51 27L50 27L50 26L49 26L49 27L50 27L50 28L49 28L49 29L48 29L48 30L47 30L47 33L46 33L46 32L45 32L45 35L46 35L46 37L42 37L42 36L41 36L41 35L42 35L42 34L44 34L44 33L43 33L43 32L44 32L44 30L43 30L43 29L42 29L42 28L41 28L41 27L42 27L42 26L43 26L43 28L44 28L44 26L43 26L43 23L44 23L44 22L45 22L45 20L44 20L44 19L45 19L45 17L46 17L46 19L47 19L47 17L46 17L46 15L45 15L45 13L44 13L44 12L46 12L46 14L47 14L47 15L48 15L48 14L49 14L49 13L50 13L50 14L51 14L51 15L52 15L52 14L51 14L51 13L50 13L50 12L49 12L49 13L48 13L48 14L47 14L47 11L48 11L48 9L46 9L46 10L47 10L47 11L44 11L44 12L43 12L43 13L42 13L42 15L41 15L41 13L40 13L40 12L41 12L41 11L39 11L39 10L40 10L40 8L38 8L38 6L39 6L39 7L40 7L40 6L39 6L39 5L38 5L38 4L37 4L37 3L38 3L38 2L39 2L39 3L40 3L40 5L41 5L41 3L40 3L40 1ZM42 2L42 3L43 3L43 2ZM29 4L29 5L30 5L30 4ZM9 5L9 8L10 8L10 9L11 9L11 10L13 10L13 9L12 9L12 6L11 6L11 5ZM25 5L25 8L28 8L28 5ZM37 5L37 6L36 6L36 7L37 7L37 6L38 6L38 5ZM10 6L10 8L11 8L11 6ZM26 6L26 7L27 7L27 6ZM29 6L29 7L30 7L30 6ZM41 6L41 7L42 7L42 6ZM16 8L16 9L17 9L17 8ZM44 9L44 10L45 10L45 9ZM31 10L31 11L32 11L32 12L31 12L31 13L30 13L30 11L29 11L29 13L30 13L30 14L29 14L29 16L30 16L30 14L32 14L32 12L33 12L33 10ZM3 11L3 12L4 12L4 11ZM25 11L25 12L24 12L24 13L25 13L25 12L26 12L26 14L27 14L27 12L26 12L26 11ZM37 11L37 12L36 12L36 14L37 14L37 15L38 15L38 11ZM1 12L1 13L2 13L2 14L3 14L3 13L2 13L2 12ZM43 13L43 15L42 15L42 16L41 16L41 15L40 15L40 17L41 17L41 18L42 18L42 19L40 19L40 18L38 18L38 17L37 17L37 16L36 16L36 17L37 17L37 18L35 18L35 19L37 19L37 18L38 18L38 20L36 20L36 21L35 21L35 22L34 22L34 23L32 23L32 25L31 25L31 27L32 27L32 25L33 25L33 26L34 26L34 27L33 27L33 28L32 28L32 29L31 29L31 28L30 28L30 29L29 29L29 30L27 30L27 32L26 32L26 31L25 31L25 32L26 32L26 35L27 35L27 36L26 36L26 38L27 38L27 37L28 37L28 34L27 34L27 32L28 32L28 33L29 33L29 36L30 36L30 35L31 35L31 38L30 38L30 37L29 37L29 40L28 40L28 42L29 42L29 40L30 40L30 41L31 41L31 38L32 38L32 43L34 43L34 44L32 44L32 45L31 45L31 46L32 46L32 47L31 47L31 48L32 48L32 47L35 47L35 48L36 48L36 49L37 49L37 48L38 48L38 44L39 44L39 43L38 43L38 44L37 44L37 42L36 42L36 41L37 41L37 40L38 40L38 41L39 41L39 40L38 40L38 39L39 39L39 38L41 38L41 36L40 36L40 37L39 37L39 38L38 38L38 36L39 36L39 34L38 34L38 32L37 32L37 31L38 31L38 28L40 28L40 29L39 29L39 30L40 30L40 31L39 31L39 32L40 32L40 35L41 35L41 34L42 34L42 31L43 31L43 30L42 30L42 29L41 29L41 28L40 28L40 27L41 27L41 26L42 26L42 25L41 25L41 24L42 24L42 21L43 21L43 22L44 22L44 21L43 21L43 19L44 19L44 16L45 16L45 15L44 15L44 13ZM10 14L10 16L11 16L11 14ZM20 14L20 17L21 17L21 18L20 18L20 19L21 19L21 20L22 20L22 21L21 21L21 22L20 22L20 24L19 24L19 23L18 23L18 24L19 24L19 26L18 26L18 27L17 27L17 26L16 26L16 27L17 27L17 28L18 28L18 29L19 29L19 28L22 28L22 27L23 27L23 26L22 26L22 27L20 27L20 26L21 26L21 25L23 25L23 24L24 24L24 23L23 23L23 24L22 24L22 21L23 21L23 20L22 20L22 19L23 19L23 17L24 17L24 18L25 18L25 17L24 17L24 15L25 15L25 14L24 14L24 15L22 15L22 14ZM21 15L21 16L22 16L22 15ZM31 15L31 17L30 17L30 20L31 20L31 18L32 18L32 19L33 19L33 18L32 18L32 15ZM43 15L43 16L44 16L44 15ZM42 17L42 18L43 18L43 17ZM26 18L26 19L27 19L27 20L28 20L28 19L27 19L27 18ZM0 19L0 21L1 21L1 20L2 20L2 19ZM6 19L6 20L7 20L7 21L6 21L6 22L5 22L5 23L6 23L6 24L7 24L7 23L6 23L6 22L8 22L8 19ZM39 19L39 21L38 21L38 22L37 22L37 21L36 21L36 24L34 24L34 26L35 26L35 25L36 25L36 27L37 27L37 28L38 28L38 27L40 27L40 24L39 24L39 23L38 23L38 22L40 22L40 19ZM46 20L46 22L47 22L47 24L49 24L49 23L50 23L50 22L49 22L49 23L48 23L48 22L47 22L47 21L48 21L48 20ZM10 21L10 23L9 23L9 24L10 24L10 23L11 23L11 21ZM17 21L17 22L18 22L18 21ZM51 22L51 23L52 23L52 22ZM16 23L16 25L17 25L17 23ZM37 23L37 24L36 24L36 25L37 25L37 24L38 24L38 25L39 25L39 24L38 24L38 23ZM45 23L45 24L46 24L46 23ZM5 25L5 28L8 28L8 25ZM25 25L25 28L28 28L28 25ZM45 25L45 28L48 28L48 25ZM6 26L6 27L7 27L7 26ZM26 26L26 27L27 27L27 26ZM46 26L46 27L47 27L47 26ZM10 27L10 28L11 28L11 29L12 29L12 27ZM34 27L34 28L35 28L35 29L34 29L34 30L35 30L35 29L36 29L36 28L35 28L35 27ZM30 29L30 30L29 30L29 31L28 31L28 32L31 32L31 33L30 33L30 34L31 34L31 35L33 35L33 33L32 33L32 32L34 32L34 35L35 35L35 37L34 37L34 36L33 36L33 37L32 37L32 38L33 38L33 40L34 40L34 39L35 39L35 41L34 41L34 43L36 43L36 42L35 42L35 41L36 41L36 40L37 40L37 38L36 38L36 34L37 34L37 33L36 33L36 34L35 34L35 32L34 32L34 31L31 31L31 29ZM32 29L32 30L33 30L33 29ZM49 29L49 30L48 30L48 33L47 33L47 34L46 34L46 35L47 35L47 34L48 34L48 33L49 33L49 32L50 32L50 31L51 31L51 30L50 30L50 29ZM5 30L5 31L7 31L7 32L8 32L8 31L7 31L7 30ZM10 30L10 31L11 31L11 30ZM16 30L16 32L15 32L15 31L14 31L14 32L15 32L15 34L13 34L13 33L12 33L12 34L13 34L13 35L15 35L15 36L14 36L14 37L15 37L15 38L13 38L13 37L12 37L12 38L11 38L11 39L12 39L12 40L13 40L13 42L14 42L14 43L15 43L15 42L14 42L14 41L15 41L15 40L16 40L16 41L17 41L17 39L15 39L15 38L16 38L16 36L17 36L17 35L16 35L16 34L18 34L18 38L19 38L19 39L18 39L18 40L19 40L19 39L20 39L20 38L19 38L19 34L18 34L18 33L19 33L19 32L18 32L18 31L21 31L21 30ZM36 30L36 31L37 31L37 30ZM45 30L45 31L46 31L46 30ZM49 30L49 31L50 31L50 30ZM40 31L40 32L41 32L41 31ZM3 32L3 35L4 35L4 32ZM20 32L20 33L21 33L21 32ZM1 34L1 35L2 35L2 34ZM20 34L20 35L21 35L21 34ZM52 34L52 35L53 35L53 34ZM37 35L37 36L38 36L38 35ZM43 35L43 36L44 36L44 35ZM48 36L48 38L49 38L49 39L48 39L48 40L49 40L49 39L50 39L50 36ZM1 37L1 38L0 38L0 39L2 39L2 37ZM6 37L6 38L7 38L7 37ZM33 37L33 38L34 38L34 37ZM12 38L12 39L13 39L13 38ZM35 38L35 39L36 39L36 38ZM14 39L14 40L15 40L15 39ZM41 39L41 40L40 40L40 41L41 41L41 42L40 42L40 43L41 43L41 42L42 42L42 43L43 43L43 42L42 42L42 39ZM26 40L26 41L27 41L27 40ZM52 40L52 41L53 41L53 40ZM1 41L1 42L2 42L2 43L3 43L3 41ZM48 41L48 43L47 43L47 44L48 44L48 43L49 43L49 41ZM7 42L7 43L8 43L8 44L9 44L9 43L10 43L10 42L9 42L9 43L8 43L8 42ZM16 42L16 43L18 43L18 42ZM26 42L26 43L27 43L27 42ZM23 43L23 44L24 44L24 43ZM29 43L29 44L31 44L31 43ZM35 44L35 45L34 45L34 46L35 46L35 47L36 47L36 48L37 48L37 45L36 45L36 44ZM23 45L23 46L24 46L24 45ZM25 45L25 48L28 48L28 45ZM35 45L35 46L36 46L36 45ZM45 45L45 48L48 48L48 45ZM49 45L49 46L50 46L50 45ZM26 46L26 47L27 47L27 46ZM46 46L46 47L47 47L47 46ZM24 49L24 51L25 51L25 49ZM9 50L9 52L10 52L10 51L11 51L11 50ZM16 50L16 51L17 51L17 50ZM20 50L20 51L21 51L21 50ZM28 51L28 52L29 52L29 51ZM41 51L41 52L42 52L42 51ZM20 52L20 53L21 53L21 52ZM52 52L52 53L53 53L53 52ZM0 0L0 7L7 7L7 0ZM1 1L1 6L6 6L6 1ZM2 2L2 5L5 5L5 2ZM46 0L46 7L53 7L53 0ZM47 1L47 6L52 6L52 1ZM48 2L48 5L51 5L51 2ZM0 46L0 53L7 53L7 46ZM1 47L1 52L6 52L6 47ZM2 48L2 51L5 51L5 48Z" fill="#000000"/></g></g></svg>
