<?xml version="1.0" encoding="UTF-8"?>
<svg xmlns="http://www.w3.org/2000/svg" version="1.1" width="356" height="356" viewBox="0 0 356 356"><rect x="0" y="0" width="356" height="356" fill="#ffffff"/><g transform="scale(6.717)"><g transform="translate(0,0)"><path fill-rule="evenodd" d="M9 0L9 1L8 1L8 2L9 2L9 3L8 3L8 4L12 4L12 5L10 5L10 7L9 7L9 5L8 5L8 7L9 7L9 8L6 8L6 9L7 9L7 10L5 10L5 8L0 8L0 9L2 9L2 10L0 10L0 11L2 11L2 10L3 10L3 13L2 13L2 12L0 12L0 14L1 14L1 16L0 16L0 17L2 17L2 18L3 18L3 19L4 19L4 20L3 20L3 21L4 21L4 20L5 20L5 23L4 23L4 22L3 22L3 25L2 25L2 24L1 24L1 23L2 23L2 20L1 20L1 19L0 19L0 22L1 22L1 23L0 23L0 24L1 24L1 25L0 25L0 26L1 26L1 27L0 27L0 28L1 28L1 29L2 29L2 30L3 30L3 29L5 29L5 30L6 30L6 31L3 31L3 32L2 32L2 31L1 31L1 30L0 30L0 31L1 31L1 32L2 32L2 33L3 33L3 34L1 34L1 36L0 36L0 41L1 41L1 42L0 42L0 43L1 43L1 44L3 44L3 45L4 45L4 44L3 44L3 43L8 43L8 42L5 42L5 41L7 41L7 40L5 40L5 41L4 41L4 42L3 42L3 39L2 39L2 40L1 40L1 36L2 36L2 38L3 38L3 35L4 35L4 39L5 39L5 37L7 37L7 36L6 36L6 35L7 35L7 34L6 34L6 33L7 33L7 32L8 32L8 31L7 31L7 30L8 30L8 29L9 29L9 32L10 32L10 29L11 29L11 28L13 28L13 26L14 26L14 25L13 25L13 24L14 24L14 23L12 23L12 22L11 22L11 20L10 20L10 21L9 21L9 20L8 20L8 19L9 19L9 18L10 18L10 17L9 17L9 15L12 15L12 16L11 16L11 19L12 19L12 21L13 21L13 22L15 22L15 24L17 24L17 25L18 25L18 26L17 26L17 28L16 28L16 27L14 27L14 28L15 28L15 29L13 29L13 30L11 30L11 32L12 32L12 33L16 33L16 34L15 34L15 35L16 35L16 36L15 36L15 37L21 37L21 36L17 36L17 35L20 35L20 34L19 34L19 33L20 33L20 32L19 32L19 29L21 29L21 30L22 30L22 31L21 31L21 32L22 32L22 33L21 33L21 35L22 35L22 36L23 36L23 37L22 37L22 38L21 38L21 39L22 39L22 38L23 38L23 37L24 37L24 36L25 36L25 38L24 38L24 39L23 39L23 42L24 42L24 41L25 41L25 42L26 42L26 43L22 43L22 44L21 44L21 41L22 41L22 40L21 40L21 41L18 41L18 40L17 40L17 39L18 39L18 38L16 38L16 40L17 40L17 41L18 41L18 42L20 42L20 43L19 43L19 44L16 44L16 43L14 43L14 44L15 44L15 45L14 45L14 46L13 46L13 48L12 48L12 46L11 46L11 45L13 45L13 43L12 43L12 42L11 42L11 43L12 43L12 44L10 44L10 46L9 46L9 44L6 44L6 45L8 45L8 47L11 47L11 48L10 48L10 49L14 49L14 48L15 48L15 49L16 49L16 50L13 50L13 51L11 51L11 50L10 50L10 52L9 52L9 48L8 48L8 53L13 53L13 52L14 52L14 53L20 53L20 52L19 52L19 51L20 51L20 50L19 50L19 49L20 49L20 48L19 48L19 47L20 47L20 44L21 44L21 45L22 45L22 47L21 47L21 48L22 48L22 49L21 49L21 50L22 50L22 49L23 49L23 50L24 50L24 51L27 51L27 52L23 52L23 53L27 53L27 52L28 52L28 51L29 51L29 52L30 52L30 53L32 53L32 52L35 52L35 53L37 53L37 51L38 51L38 49L39 49L39 51L40 51L40 52L38 52L38 53L40 53L40 52L41 52L41 53L43 53L43 51L44 51L44 53L45 53L45 51L48 51L48 53L49 53L49 52L50 52L50 53L51 53L51 52L52 52L52 51L53 51L53 50L52 50L52 49L53 49L53 48L50 48L50 47L51 47L51 45L53 45L53 43L51 43L51 44L50 44L50 43L49 43L49 44L47 44L47 43L46 43L46 44L45 44L45 43L44 43L44 42L45 42L45 41L42 41L42 40L41 40L41 42L42 42L42 43L41 43L41 44L42 44L42 45L41 45L41 47L39 47L39 46L40 46L40 45L39 45L39 46L37 46L37 45L38 45L38 44L40 44L40 42L38 42L38 41L39 41L39 40L40 40L40 39L41 39L41 38L42 38L42 39L43 39L43 37L42 37L42 35L41 35L41 37L39 37L39 35L38 35L38 33L39 33L39 32L36 32L36 30L35 30L35 31L34 31L34 30L33 30L33 29L32 29L32 28L29 28L29 27L30 27L30 26L32 26L32 27L33 27L33 26L32 26L32 24L33 24L33 25L35 25L35 26L37 26L37 27L38 27L38 28L34 28L34 29L37 29L37 30L38 30L38 31L39 31L39 30L40 30L40 29L39 29L39 30L38 30L38 28L39 28L39 27L40 27L40 26L41 26L41 27L42 27L42 29L41 29L41 30L42 30L42 32L41 32L41 33L40 33L40 34L43 34L43 31L44 31L44 32L45 32L45 31L46 31L46 33L47 33L47 34L49 34L49 37L47 37L47 36L46 36L46 35L45 35L45 33L44 33L44 38L45 38L45 37L47 37L47 38L48 38L48 39L47 39L47 42L50 42L50 41L49 41L49 40L50 40L50 38L51 38L51 37L50 37L50 35L51 35L51 36L52 36L52 37L53 37L53 36L52 36L52 35L51 35L51 34L52 34L52 32L50 32L50 29L49 29L49 28L50 28L50 27L51 27L51 26L52 26L52 25L51 25L51 24L52 24L52 23L51 23L51 24L50 24L50 22L51 22L51 21L52 21L52 20L53 20L53 19L51 19L51 20L47 20L47 18L49 18L49 19L50 19L50 18L49 18L49 16L48 16L48 15L45 15L45 14L44 14L44 9L46 9L46 8L45 8L45 6L44 6L44 9L43 9L43 8L42 8L42 7L43 7L43 3L44 3L44 4L45 4L45 3L44 3L44 1L43 1L43 0L42 0L42 1L41 1L41 2L38 2L38 4L37 4L37 2L35 2L35 1L38 1L38 0L35 0L35 1L34 1L34 2L33 2L33 1L32 1L32 0L29 0L29 2L27 2L27 0L26 0L26 2L25 2L25 3L24 3L24 4L23 4L23 5L24 5L24 8L23 8L23 6L22 6L22 5L21 5L21 6L20 6L20 4L21 4L21 3L22 3L22 2L23 2L23 1L25 1L25 0L23 0L23 1L22 1L22 0L21 0L21 3L18 3L18 2L20 2L20 1L19 1L19 0L16 0L16 1L15 1L15 2L11 2L11 1L12 1L12 0L11 0L11 1L10 1L10 0ZM9 1L9 2L10 2L10 1ZM31 1L31 2L32 2L32 1ZM15 2L15 3L12 3L12 4L16 4L16 5L18 5L18 6L17 6L17 7L16 7L16 6L15 6L15 5L12 5L12 6L11 6L11 7L10 7L10 8L9 8L9 9L8 9L8 10L7 10L7 11L4 11L4 12L7 12L7 13L5 13L5 15L6 15L6 16L7 16L7 17L6 17L6 18L4 18L4 16L3 16L3 18L4 18L4 19L6 19L6 20L7 20L7 21L6 21L6 22L7 22L7 21L8 21L8 22L9 22L9 23L11 23L11 26L9 26L9 28L10 28L10 27L12 27L12 23L11 23L11 22L9 22L9 21L8 21L8 20L7 20L7 19L6 19L6 18L9 18L9 17L8 17L8 15L6 15L6 14L8 14L8 10L9 10L9 12L10 12L10 13L9 13L9 14L11 14L11 12L13 12L13 13L12 13L12 15L13 15L13 16L12 16L12 19L13 19L13 18L14 18L14 20L13 20L13 21L15 21L15 22L17 22L17 21L15 21L15 20L16 20L16 19L15 19L15 18L16 18L16 17L18 17L18 16L16 16L16 15L18 15L18 14L19 14L19 13L20 13L20 15L19 15L19 16L20 16L20 17L19 17L19 18L20 18L20 19L18 19L18 18L17 18L17 20L19 20L19 21L20 21L20 23L19 23L19 22L18 22L18 23L17 23L17 24L18 24L18 25L21 25L21 24L22 24L22 26L21 26L21 29L23 29L23 33L22 33L22 34L23 34L23 35L25 35L25 36L26 36L26 38L27 38L27 39L25 39L25 40L26 40L26 42L27 42L27 43L26 43L26 44L29 44L29 45L31 45L31 47L30 47L30 46L29 46L29 47L30 47L30 48L31 48L31 47L32 47L32 49L31 49L31 50L29 50L29 49L28 49L28 50L29 50L29 51L32 51L32 50L34 50L34 51L35 51L35 50L36 50L36 49L33 49L33 47L34 47L34 48L36 48L36 47L37 47L37 49L38 49L38 47L37 47L37 46L35 46L35 44L34 44L34 45L33 45L33 44L32 44L32 43L33 43L33 42L35 42L35 40L36 40L36 39L38 39L38 40L37 40L37 41L38 41L38 40L39 40L39 39L40 39L40 38L39 38L39 37L38 37L38 35L37 35L37 37L35 37L35 36L36 36L36 35L35 35L35 36L32 36L32 37L33 37L33 38L31 38L31 40L32 40L32 41L31 41L31 42L27 42L27 41L30 41L30 40L29 40L29 39L28 39L28 38L27 38L27 36L29 36L29 35L27 35L27 34L26 34L26 33L27 33L27 32L29 32L29 33L31 33L31 34L35 34L35 33L36 33L36 32L35 32L35 33L33 33L33 31L32 31L32 29L31 29L31 30L30 30L30 31L29 31L29 29L28 29L28 30L25 30L25 29L23 29L23 28L24 28L24 23L25 23L25 24L28 24L28 23L30 23L30 22L29 22L29 21L30 21L30 20L29 20L29 21L27 21L27 22L26 22L26 23L25 23L25 22L24 22L24 21L25 21L25 20L27 20L27 19L29 19L29 18L27 18L27 17L29 17L29 15L30 15L30 16L32 16L32 17L31 17L31 18L30 18L30 19L31 19L31 20L32 20L32 21L33 21L33 24L34 24L34 23L37 23L37 21L35 21L35 20L33 20L33 19L32 19L32 17L33 17L33 18L35 18L35 19L36 19L36 17L35 17L35 16L32 16L32 15L38 15L38 14L41 14L41 11L42 11L42 10L41 10L41 11L40 11L40 10L39 10L39 9L41 9L41 7L42 7L42 6L41 6L41 7L40 7L40 5L39 5L39 4L41 4L41 5L42 5L42 4L41 4L41 3L43 3L43 2L41 2L41 3L39 3L39 4L38 4L38 5L37 5L37 4L33 4L33 3L32 3L32 5L31 5L31 8L30 8L30 9L31 9L31 8L32 8L32 9L33 9L33 10L34 10L34 11L35 11L35 12L34 12L34 13L33 13L33 11L32 11L32 13L31 13L31 10L29 10L29 9L25 9L25 10L26 10L26 12L25 12L25 13L24 13L24 12L21 12L21 13L20 13L20 12L19 12L19 13L15 13L15 12L13 12L13 11L11 11L11 10L12 10L12 9L14 9L14 11L16 11L16 12L17 12L17 11L20 11L20 10L18 10L18 9L22 9L22 10L24 10L24 9L23 9L23 8L22 8L22 6L21 6L21 8L20 8L20 6L19 6L19 4L16 4L16 2ZM26 2L26 3L25 3L25 4L26 4L26 3L27 3L27 2ZM34 2L34 3L35 3L35 2ZM28 3L28 4L29 4L29 3ZM30 3L30 4L31 4L31 3ZM25 5L25 8L28 8L28 5ZM33 5L33 6L32 6L32 8L34 8L34 9L35 9L35 10L36 10L36 11L37 11L37 12L35 12L35 13L37 13L37 14L38 14L38 13L37 13L37 12L38 12L38 11L39 11L39 12L40 12L40 11L39 11L39 10L38 10L38 9L39 9L39 5L38 5L38 7L37 7L37 6L36 6L36 8L34 8L34 7L35 7L35 5ZM12 6L12 7L11 7L11 8L12 8L12 7L13 7L13 8L14 8L14 7L15 7L15 8L16 8L16 7L15 7L15 6L14 6L14 7L13 7L13 6ZM18 6L18 7L19 7L19 6ZM26 6L26 7L27 7L27 6ZM29 6L29 7L30 7L30 6ZM33 6L33 7L34 7L34 6ZM17 8L17 9L18 9L18 8ZM37 8L37 9L36 9L36 10L37 10L37 11L38 11L38 10L37 10L37 9L38 9L38 8ZM47 8L47 9L48 9L48 8ZM49 8L49 10L47 10L47 11L46 11L46 10L45 10L45 12L47 12L47 14L48 14L48 13L49 13L49 14L50 14L50 11L51 11L51 10L50 10L50 8ZM51 8L51 9L52 9L52 8ZM3 9L3 10L4 10L4 9ZM9 9L9 10L10 10L10 9ZM15 9L15 10L16 10L16 9ZM48 11L48 12L49 12L49 11ZM52 11L52 12L51 12L51 13L52 13L52 12L53 12L53 11ZM26 12L26 15L25 15L25 14L23 14L23 13L22 13L22 14L21 14L21 15L20 15L20 16L21 16L21 17L22 17L22 18L21 18L21 20L25 20L25 19L26 19L26 18L25 18L25 16L26 16L26 15L27 15L27 16L28 16L28 15L27 15L27 12ZM28 12L28 13L29 13L29 14L30 14L30 15L32 15L32 14L31 14L31 13L29 13L29 12ZM42 12L42 13L43 13L43 12ZM3 13L3 14L2 14L2 15L4 15L4 13ZM13 13L13 15L14 15L14 16L13 16L13 17L16 17L16 16L15 16L15 13ZM40 15L40 16L39 16L39 17L38 17L38 18L37 18L37 20L38 20L38 19L39 19L39 21L38 21L38 23L39 23L39 24L40 24L40 25L41 25L41 24L42 24L42 25L43 25L43 26L44 26L44 25L43 25L43 24L46 24L46 23L44 23L44 22L48 22L48 21L44 21L44 20L45 20L45 19L42 19L42 18L41 18L41 17L44 17L44 18L47 18L47 17L48 17L48 16L45 16L45 17L44 17L44 15ZM51 15L51 16L50 16L50 17L51 17L51 18L52 18L52 17L53 17L53 15ZM22 16L22 17L23 17L23 18L22 18L22 19L25 19L25 18L24 18L24 17L23 17L23 16ZM39 17L39 18L40 18L40 17ZM40 19L40 20L41 20L41 21L42 21L42 22L41 22L41 23L40 23L40 22L39 22L39 23L40 23L40 24L41 24L41 23L42 23L42 22L44 22L44 21L43 21L43 20L41 20L41 19ZM21 22L21 23L20 23L20 24L21 24L21 23L24 23L24 22ZM5 23L5 24L8 24L8 23ZM31 23L31 24L32 24L32 23ZM47 23L47 24L48 24L48 23ZM29 24L29 26L30 26L30 24ZM37 24L37 26L39 26L39 25L38 25L38 24ZM49 24L49 27L50 27L50 26L51 26L51 25L50 25L50 24ZM1 25L1 26L2 26L2 27L1 27L1 28L3 28L3 27L4 27L4 26L2 26L2 25ZM5 25L5 28L8 28L8 25ZM15 25L15 26L16 26L16 25ZM25 25L25 28L28 28L28 25ZM45 25L45 28L48 28L48 25ZM6 26L6 27L7 27L7 26ZM19 26L19 27L18 27L18 28L19 28L19 27L20 27L20 26ZM26 26L26 27L27 27L27 26ZM46 26L46 27L47 27L47 26ZM43 27L43 29L44 29L44 30L46 30L46 31L47 31L47 32L49 32L49 31L47 31L47 29L44 29L44 27ZM51 28L51 29L52 29L52 30L51 30L51 31L52 31L52 30L53 30L53 28ZM6 29L6 30L7 30L7 29ZM15 29L15 31L18 31L18 29ZM24 30L24 31L25 31L25 30ZM6 31L6 32L7 32L7 31ZM13 31L13 32L14 32L14 31ZM30 31L30 32L31 32L31 33L32 33L32 32L31 32L31 31ZM16 32L16 33L18 33L18 32ZM25 32L25 33L23 33L23 34L25 34L25 33L26 33L26 32ZM9 33L9 36L8 36L8 37L9 37L9 39L8 39L8 40L9 40L9 43L10 43L10 40L12 40L12 41L13 41L13 42L14 42L14 41L13 41L13 40L14 40L14 39L13 39L13 40L12 40L12 38L11 38L11 39L10 39L10 37L11 37L11 35L12 35L12 36L13 36L13 38L14 38L14 36L13 36L13 34L11 34L11 33ZM5 34L5 35L6 35L6 34ZM10 34L10 35L11 35L11 34ZM26 35L26 36L27 36L27 35ZM9 36L9 37L10 37L10 36ZM30 36L30 37L31 37L31 36ZM37 37L37 38L38 38L38 37ZM49 37L49 38L50 38L50 37ZM6 38L6 39L7 39L7 38ZM34 38L34 39L32 39L32 40L33 40L33 41L32 41L32 42L31 42L31 43L32 43L32 42L33 42L33 41L34 41L34 40L35 40L35 38ZM9 39L9 40L10 40L10 39ZM19 39L19 40L20 40L20 39ZM44 39L44 40L46 40L46 39ZM51 39L51 40L52 40L52 39ZM15 41L15 42L16 42L16 41ZM51 41L51 42L52 42L52 41ZM2 42L2 43L3 43L3 42ZM37 42L37 43L36 43L36 44L37 44L37 43L38 43L38 42ZM43 43L43 47L41 47L41 48L39 48L39 49L43 49L43 50L44 50L44 51L45 51L45 50L46 50L46 49L44 49L44 48L43 48L43 47L44 47L44 43ZM22 44L22 45L24 45L24 44ZM31 44L31 45L32 45L32 47L33 47L33 45L32 45L32 44ZM49 44L49 47L50 47L50 44ZM15 45L15 46L14 46L14 47L15 47L15 46L17 46L17 47L18 47L18 45ZM25 45L25 48L28 48L28 45ZM45 45L45 48L48 48L48 45ZM23 46L23 47L24 47L24 46ZM26 46L26 47L27 47L27 46ZM46 46L46 47L47 47L47 46ZM16 48L16 49L18 49L18 48ZM23 48L23 49L24 49L24 50L27 50L27 49L24 49L24 48ZM47 49L47 50L49 50L49 51L50 51L50 52L51 52L51 51L52 51L52 50L51 50L51 49L50 49L50 50L49 50L49 49ZM17 50L17 51L19 51L19 50ZM40 50L40 51L41 51L41 52L42 52L42 50ZM15 51L15 52L16 52L16 51ZM21 51L21 52L22 52L22 51ZM0 0L0 7L7 7L7 0ZM1 1L1 6L6 6L6 1ZM2 2L2 5L5 5L5 2ZM46 0L46 7L53 7L53 0ZM47 1L47 6L52 6L52 1ZM48 2L48 5L51 5L51 2ZM0 46L0 53L7 53L7 46ZM1 47L1 52L6 52L6 47ZM2 48L2 51L5 51L5 48Z" fill="#000000"/></g></g></svg>
