<?xml version="1.0" encoding="UTF-8"?>
<svg xmlns="http://www.w3.org/2000/svg" version="1.1" width="356" height="356" viewBox="0 0 356 356"><rect x="0" y="0" width="356" height="356" fill="#ffffff"/><g transform="scale(6.717)"><g transform="translate(0,0)"><path fill-rule="evenodd" d="M8 0L8 1L9 1L9 2L8 2L8 5L9 5L9 2L10 2L10 3L12 3L12 4L11 4L11 5L10 5L10 7L11 7L11 5L12 5L12 8L13 8L13 9L12 9L12 10L11 10L11 11L9 11L9 8L8 8L8 9L7 9L7 8L6 8L6 9L7 9L7 10L6 10L6 11L7 11L7 12L6 12L6 13L5 13L5 12L4 12L4 13L3 13L3 14L2 14L2 17L1 17L1 14L0 14L0 17L1 17L1 18L0 18L0 20L1 20L1 22L0 22L0 27L2 27L2 26L3 26L3 27L4 27L4 32L2 32L2 31L3 31L3 28L2 28L2 29L1 29L1 28L0 28L0 31L1 31L1 33L0 33L0 36L2 36L2 35L1 35L1 33L4 33L4 34L3 34L3 35L5 35L5 36L3 36L3 37L0 37L0 39L1 39L1 41L2 41L2 42L0 42L0 43L1 43L1 44L3 44L3 45L4 45L4 44L3 44L3 43L7 43L7 42L8 42L8 41L9 41L9 43L8 43L8 44L6 44L6 45L8 45L8 46L10 46L10 47L9 47L9 49L8 49L8 53L9 53L9 51L10 51L10 53L11 53L11 51L10 51L10 48L11 48L11 50L12 50L12 51L15 51L15 50L17 50L17 49L16 49L16 48L15 48L15 45L14 45L14 44L13 44L13 43L12 43L12 41L11 41L11 40L10 40L10 41L9 41L9 39L10 39L10 38L11 38L11 39L12 39L12 40L14 40L14 41L16 41L16 42L17 42L17 41L16 41L16 40L17 40L17 39L19 39L19 40L18 40L18 41L19 41L19 40L20 40L20 43L17 43L17 45L18 45L18 46L16 46L16 47L17 47L17 48L18 48L18 49L20 49L20 50L21 50L21 49L20 49L20 48L18 48L18 46L19 46L19 47L23 47L23 48L22 48L22 49L23 49L23 48L24 48L24 49L25 49L25 50L24 50L24 51L23 51L23 52L26 52L26 53L28 53L28 52L27 52L27 51L29 51L29 53L30 53L30 52L31 52L31 53L33 53L33 52L34 52L34 53L35 53L35 52L37 52L37 51L38 51L38 53L39 53L39 51L38 51L38 50L39 50L39 49L38 49L38 48L42 48L42 47L43 47L43 49L44 49L44 50L45 50L45 51L43 51L43 50L41 50L41 49L40 49L40 52L41 52L41 51L42 51L42 53L43 53L43 52L45 52L45 51L48 51L48 52L47 52L47 53L48 53L48 52L50 52L50 51L51 51L51 53L52 53L52 50L51 50L51 48L49 48L49 44L51 44L51 42L49 42L49 43L46 43L46 44L45 44L45 39L44 39L44 38L46 38L46 41L47 41L47 42L48 42L48 41L47 41L47 40L50 40L50 41L51 41L51 40L53 40L53 38L52 38L52 37L53 37L53 35L52 35L52 33L53 33L53 32L52 32L52 31L50 31L50 30L48 30L48 29L49 29L49 28L50 28L50 29L51 29L51 30L52 30L52 29L53 29L53 28L52 28L52 29L51 29L51 28L50 28L50 27L49 27L49 26L51 26L51 27L53 27L53 26L51 26L51 24L52 24L52 21L53 21L53 19L52 19L52 21L51 21L51 19L50 19L50 18L51 18L51 17L52 17L52 18L53 18L53 16L51 16L51 17L49 17L49 19L50 19L50 21L49 21L49 22L47 22L47 23L51 23L51 24L50 24L50 25L49 25L49 24L46 24L46 22L44 22L44 21L46 21L46 20L47 20L47 21L48 21L48 19L47 19L47 18L48 18L48 15L47 15L47 14L46 14L46 12L45 12L45 11L44 11L44 10L43 10L43 8L44 8L44 9L46 9L46 8L44 8L44 7L45 7L45 6L44 6L44 7L43 7L43 3L44 3L44 4L45 4L45 3L44 3L44 1L43 1L43 0L40 0L40 1L38 1L38 0L35 0L35 1L33 1L33 2L31 2L31 1L32 1L32 0L28 0L28 1L29 1L29 2L27 2L27 3L25 3L25 2L26 2L26 0L21 0L21 1L19 1L19 0L16 0L16 2L15 2L15 1L14 1L14 2L10 2L10 0ZM12 0L12 1L13 1L13 0ZM17 1L17 2L16 2L16 3L13 3L13 4L12 4L12 5L13 5L13 4L14 4L14 6L13 6L13 7L14 7L14 6L15 6L15 8L14 8L14 10L15 10L15 8L17 8L17 7L18 7L18 6L17 6L17 4L16 4L16 3L17 3L17 2L19 2L19 1ZM22 1L22 2L23 2L23 3L21 3L21 2L20 2L20 3L21 3L21 4L23 4L23 5L19 5L19 8L20 8L20 9L21 9L21 7L22 7L22 8L24 8L24 4L23 4L23 3L24 3L24 2L25 2L25 1ZM37 1L37 2L33 2L33 3L32 3L32 4L31 4L31 3L30 3L30 2L29 2L29 3L30 3L30 4L29 4L29 8L30 8L30 9L33 9L33 10L32 10L32 13L33 13L33 12L35 12L35 7L36 7L36 11L37 11L37 12L39 12L39 15L38 15L38 13L37 13L37 15L38 15L38 16L34 16L34 17L35 17L35 19L36 19L36 21L33 21L33 20L34 20L34 19L32 19L32 18L31 18L31 17L30 17L30 18L31 18L31 19L29 19L29 17L28 17L28 16L29 16L29 15L28 15L28 16L27 16L27 14L30 14L30 16L32 16L32 14L31 14L31 13L27 13L27 12L29 12L29 10L28 10L28 11L25 11L25 10L24 10L24 9L22 9L22 10L19 10L19 11L18 11L18 12L19 12L19 13L20 13L20 11L21 11L21 13L23 13L23 12L22 12L22 10L23 10L23 11L24 11L24 12L26 12L26 13L25 13L25 14L24 14L24 15L26 15L26 16L24 16L24 17L23 17L23 16L21 16L21 17L20 17L20 19L19 19L19 20L18 20L18 21L19 21L19 20L20 20L20 22L21 22L21 23L22 23L22 22L24 22L24 24L22 24L22 25L21 25L21 24L18 24L18 22L17 22L17 20L14 20L14 21L15 21L15 23L14 23L14 22L13 22L13 19L12 19L12 18L9 18L9 19L8 19L8 17L11 17L11 15L13 15L13 16L12 16L12 17L13 17L13 16L14 16L14 19L15 19L15 17L16 17L16 18L17 18L17 19L18 19L18 18L19 18L19 16L20 16L20 15L23 15L23 14L17 14L17 13L16 13L16 14L17 14L17 15L19 15L19 16L18 16L18 18L17 18L17 16L16 16L16 15L15 15L15 16L14 16L14 14L15 14L15 12L16 12L16 11L17 11L17 10L18 10L18 9L16 9L16 11L13 11L13 10L12 10L12 11L11 11L11 12L10 12L10 13L9 13L9 12L8 12L8 13L6 13L6 14L5 14L5 13L4 13L4 16L3 16L3 17L2 17L2 19L1 19L1 20L2 20L2 23L1 23L1 26L2 26L2 23L3 23L3 21L4 21L4 19L5 19L5 20L7 20L7 21L5 21L5 22L4 22L4 24L7 24L7 23L6 23L6 22L7 22L7 21L8 21L8 20L9 20L9 19L10 19L10 21L9 21L9 22L10 22L10 21L12 21L12 22L11 22L11 23L13 23L13 25L15 25L15 26L14 26L14 27L12 27L12 26L11 26L11 25L12 25L12 24L9 24L9 26L11 26L11 27L12 27L12 28L13 28L13 30L14 30L14 27L15 27L15 26L17 26L17 24L18 24L18 28L17 28L17 27L16 27L16 28L15 28L15 29L16 29L16 28L17 28L17 30L15 30L15 31L11 31L11 32L12 32L12 33L11 33L11 34L10 34L10 30L9 30L9 29L11 29L11 28L9 28L9 29L5 29L5 30L9 30L9 31L5 31L5 35L6 35L6 36L7 36L7 37L5 37L5 38L4 38L4 37L3 37L3 38L4 38L4 39L6 39L6 40L5 40L5 42L7 42L7 41L8 41L8 40L7 40L7 39L6 39L6 38L7 38L7 37L8 37L8 39L9 39L9 38L10 38L10 37L11 37L11 38L14 38L14 40L16 40L16 39L17 39L17 37L16 37L16 39L15 39L15 38L14 38L14 37L15 37L15 35L16 35L16 36L18 36L18 35L19 35L19 34L21 34L21 35L20 35L20 36L21 36L21 38L20 38L20 37L19 37L19 38L20 38L20 40L21 40L21 41L23 41L23 43L24 43L24 40L23 40L23 39L25 39L25 40L26 40L26 39L27 39L27 42L26 42L26 43L28 43L28 44L29 44L29 45L30 45L30 43L31 43L31 45L33 45L33 46L34 46L34 47L31 47L31 46L30 46L30 47L29 47L29 51L31 51L31 52L33 52L33 51L34 51L34 50L36 50L36 49L34 49L34 50L33 50L33 51L31 51L31 50L32 50L32 49L33 49L33 48L34 48L34 47L35 47L35 48L38 48L38 47L41 47L41 46L40 46L40 45L38 45L38 46L37 46L37 47L35 47L35 45L34 45L34 44L36 44L36 45L37 45L37 44L38 44L38 42L39 42L39 44L41 44L41 45L43 45L43 43L41 43L41 40L40 40L40 41L39 41L39 38L38 38L38 40L36 40L36 39L37 39L37 37L41 37L41 38L40 38L40 39L43 39L43 37L45 37L45 36L46 36L46 38L47 38L47 39L50 39L50 40L51 40L51 37L52 37L52 35L51 35L51 34L47 34L47 33L48 33L48 32L47 32L47 30L45 30L45 31L41 31L41 29L42 29L42 30L43 30L43 29L44 29L44 25L41 25L41 23L42 23L42 21L44 21L44 20L43 20L43 19L42 19L42 18L45 18L45 17L44 17L44 15L43 15L43 13L45 13L45 12L43 12L43 10L42 10L42 12L39 12L39 11L37 11L37 8L41 8L41 9L38 9L38 10L41 10L41 9L42 9L42 8L43 8L43 7L42 7L42 6L41 6L41 5L40 5L40 4L41 4L41 3L43 3L43 2L42 2L42 1L40 1L40 2L38 2L38 1ZM40 2L40 3L41 3L41 2ZM27 3L27 4L28 4L28 3ZM33 3L33 5L32 5L32 7L33 7L33 5L34 5L34 4L35 4L35 5L36 5L36 7L37 7L37 6L38 6L38 7L39 7L39 4L37 4L37 3ZM25 5L25 8L28 8L28 5ZM8 6L8 7L9 7L9 6ZM16 6L16 7L17 7L17 6ZM20 6L20 7L21 7L21 6ZM22 6L22 7L23 7L23 6ZM26 6L26 7L27 7L27 6ZM30 6L30 7L31 7L31 6ZM34 6L34 7L35 7L35 6ZM40 6L40 7L41 7L41 8L42 8L42 7L41 7L41 6ZM0 8L0 9L3 9L3 11L4 11L4 10L5 10L5 9L4 9L4 8ZM10 8L10 9L11 9L11 8ZM33 8L33 9L34 9L34 8ZM48 8L48 9L49 9L49 10L50 10L50 11L51 11L51 13L50 13L50 12L49 12L49 11L47 11L47 13L49 13L49 15L50 15L50 14L51 14L51 15L53 15L53 14L51 14L51 13L52 13L52 10L50 10L50 9L51 9L51 8ZM52 8L52 9L53 9L53 8ZM26 9L26 10L27 10L27 9ZM1 10L1 11L2 11L2 10ZM1 12L1 13L2 13L2 12ZM11 12L11 13L10 13L10 14L11 14L11 13L13 13L13 14L14 14L14 13L13 13L13 12ZM42 12L42 13L43 13L43 12ZM8 13L8 14L9 14L9 13ZM34 13L34 14L35 14L35 13ZM6 14L6 15L5 15L5 16L6 16L6 17L3 17L3 18L6 18L6 19L7 19L7 20L8 20L8 19L7 19L7 18L6 18L6 17L7 17L7 16L6 16L6 15L7 15L7 14ZM41 14L41 15L42 15L42 14ZM45 14L45 15L46 15L46 14ZM39 15L39 16L38 16L38 17L40 17L40 18L38 18L38 20L37 20L37 21L36 21L36 22L34 22L34 23L31 23L31 26L30 26L30 27L29 27L29 24L30 24L30 23L28 23L28 20L29 20L29 22L32 22L32 21L31 21L31 20L29 20L29 19L28 19L28 20L27 20L27 18L28 18L28 17L27 17L27 16L26 16L26 17L24 17L24 18L23 18L23 19L24 19L24 18L26 18L26 19L25 19L25 20L27 20L27 21L24 21L24 20L21 20L21 19L20 19L20 20L21 20L21 21L24 21L24 22L25 22L25 24L24 24L24 25L23 25L23 26L20 26L20 25L19 25L19 30L18 30L18 31L19 31L19 30L20 30L20 28L21 28L21 29L22 29L22 32L21 32L21 31L20 31L20 32L21 32L21 34L22 34L22 36L25 36L25 37L23 37L23 38L22 38L22 39L23 39L23 38L25 38L25 39L26 39L26 38L28 38L28 37L26 37L26 36L30 36L30 37L31 37L31 39L30 39L30 41L31 41L31 43L32 43L32 44L33 44L33 43L37 43L37 41L36 41L36 42L35 42L35 41L33 41L33 40L35 40L35 39L36 39L36 37L37 37L37 36L36 36L36 35L35 35L35 34L38 34L38 35L39 35L39 34L40 34L40 36L41 36L41 34L43 34L43 35L42 35L42 36L43 36L43 35L44 35L44 36L45 36L45 35L46 35L46 36L47 36L47 35L46 35L46 33L47 33L47 32L46 32L46 31L45 31L45 34L44 34L44 32L43 32L43 33L42 33L42 32L41 32L41 31L40 31L40 32L37 32L37 30L36 30L36 29L34 29L34 28L36 28L36 27L37 27L37 29L39 29L39 30L40 30L40 27L39 27L39 24L38 24L38 23L40 23L40 22L41 22L41 21L42 21L42 20L41 20L41 18L42 18L42 17L43 17L43 16L41 16L41 17L40 17L40 15ZM46 16L46 17L47 17L47 16ZM21 17L21 18L22 18L22 17ZM26 17L26 18L27 18L27 17ZM36 18L36 19L37 19L37 18ZM11 19L11 20L12 20L12 19ZM39 19L39 20L40 20L40 19ZM38 21L38 22L37 22L37 23L36 23L36 24L37 24L37 25L34 25L34 26L35 26L35 27L36 27L36 26L37 26L37 27L38 27L38 26L37 26L37 25L38 25L38 24L37 24L37 23L38 23L38 22L39 22L39 21ZM16 22L16 23L17 23L17 22ZM26 23L26 24L28 24L28 23ZM34 23L34 24L35 24L35 23ZM43 23L43 24L45 24L45 23ZM32 24L32 25L33 25L33 24ZM3 25L3 26L4 26L4 25ZM5 25L5 28L8 28L8 25ZM25 25L25 28L28 28L28 25ZM45 25L45 28L48 28L48 25ZM6 26L6 27L7 27L7 26ZM23 26L23 27L21 27L21 28L22 28L22 29L23 29L23 32L22 32L22 34L23 34L23 33L24 33L24 34L25 34L25 35L26 35L26 34L27 34L27 35L28 35L28 34L27 34L27 33L28 33L28 32L29 32L29 33L31 33L31 34L32 34L32 35L31 35L31 37L33 37L33 38L34 38L34 39L35 39L35 36L34 36L34 34L35 34L35 33L37 33L37 32L36 32L36 30L33 30L33 29L30 29L30 30L28 30L28 32L26 32L26 31L27 31L27 30L26 30L26 29L25 29L25 30L24 30L24 28L23 28L23 27L24 27L24 26ZM26 26L26 27L27 27L27 26ZM42 26L42 27L41 27L41 28L43 28L43 26ZM46 26L46 27L47 27L47 26ZM32 27L32 28L34 28L34 27ZM25 30L25 31L24 31L24 33L25 33L25 31L26 31L26 30ZM31 30L31 31L29 31L29 32L31 32L31 31L32 31L32 32L33 32L33 31L32 31L32 30ZM16 31L16 35L17 35L17 34L19 34L19 33L17 33L17 31ZM34 31L34 32L35 32L35 31ZM6 32L6 33L8 33L8 32ZM14 32L14 33L15 33L15 32ZM49 32L49 33L50 33L50 32ZM38 33L38 34L39 34L39 33ZM6 34L6 35L8 35L8 34ZM9 34L9 35L10 35L10 34ZM12 34L12 36L11 36L11 37L12 37L12 36L13 36L13 37L14 37L14 35L15 35L15 34L14 34L14 35L13 35L13 34ZM32 35L32 36L33 36L33 35ZM48 35L48 36L49 36L49 35ZM8 36L8 37L9 37L9 36ZM2 39L2 40L3 40L3 41L4 41L4 40L3 40L3 39ZM31 39L31 40L32 40L32 39ZM6 40L6 41L7 41L7 40ZM28 40L28 43L30 43L30 42L29 42L29 40ZM42 40L42 42L44 42L44 40ZM10 41L10 42L11 42L11 41ZM52 41L52 42L53 42L53 41ZM2 42L2 43L3 43L3 42ZM14 42L14 43L15 43L15 42ZM21 42L21 43L20 43L20 44L18 44L18 45L20 45L20 46L23 46L23 45L24 45L24 44L23 44L23 45L21 45L21 44L22 44L22 42ZM32 42L32 43L33 43L33 42ZM10 43L10 44L9 44L9 45L11 45L11 43ZM52 43L52 44L53 44L53 43ZM12 45L12 46L14 46L14 45ZM25 45L25 48L28 48L28 45ZM45 45L45 48L48 48L48 45ZM50 45L50 46L51 46L51 45ZM52 45L52 46L53 46L53 45ZM26 46L26 47L27 47L27 46ZM46 46L46 47L47 47L47 46ZM13 47L13 48L14 48L14 49L12 49L12 50L14 50L14 49L15 49L15 48L14 48L14 47ZM31 48L31 49L32 49L32 48ZM52 48L52 49L53 49L53 48ZM27 49L27 50L28 50L28 49ZM46 49L46 50L47 50L47 49ZM49 49L49 50L48 50L48 51L49 51L49 50L50 50L50 49ZM18 50L18 51L16 51L16 53L17 53L17 52L19 52L19 53L22 53L22 52L19 52L19 50ZM25 50L25 51L26 51L26 50ZM13 52L13 53L14 53L14 52ZM0 0L0 7L7 7L7 0ZM1 1L1 6L6 6L6 1ZM2 2L2 5L5 5L5 2ZM46 0L46 7L53 7L53 0ZM47 1L47 6L52 6L52 1ZM48 2L48 5L51 5L51 2ZM0 46L0 53L7 53L7 46ZM1 47L1 52L6 52L6 47ZM2 48L2 51L5 51L5 48Z" fill="#000000"/></g></g></svg>
