<?xml version="1.0" encoding="UTF-8"?>
<svg xmlns="http://www.w3.org/2000/svg" version="1.1" width="356" height="356" viewBox="0 0 356 356"><rect x="0" y="0" width="356" height="356" fill="#ffffff"/><g transform="scale(6.717)"><g transform="translate(0,0)"><path fill-rule="evenodd" d="M8 0L8 2L9 2L9 1L12 1L12 2L11 2L11 4L10 4L10 3L9 3L9 4L8 4L8 9L7 9L7 8L5 8L5 9L3 9L3 8L0 8L0 10L1 10L1 13L0 13L0 14L1 14L1 15L2 15L2 17L1 17L1 18L2 18L2 17L3 17L3 15L2 15L2 14L4 14L4 19L3 19L3 20L4 20L4 19L5 19L5 14L4 14L4 13L5 13L5 12L6 12L6 13L7 13L7 14L6 14L6 15L8 15L8 16L6 16L6 17L10 17L10 18L9 18L9 19L10 19L10 20L11 20L11 23L12 23L12 24L11 24L11 25L9 25L9 23L10 23L10 22L9 22L9 20L6 20L6 21L8 21L8 22L5 22L5 21L2 21L2 20L1 20L1 19L0 19L0 21L2 21L2 22L4 22L4 23L2 23L2 24L3 24L3 25L2 25L2 27L3 27L3 28L0 28L0 29L1 29L1 31L0 31L0 34L1 34L1 35L0 35L0 36L1 36L1 38L2 38L2 39L1 39L1 40L2 40L2 39L4 39L4 38L2 38L2 37L3 37L3 35L2 35L2 34L4 34L4 33L7 33L7 32L6 32L6 31L7 31L7 30L8 30L8 29L9 29L9 26L12 26L12 25L13 25L13 27L12 27L12 28L11 28L11 27L10 27L10 28L11 28L11 29L10 29L10 30L9 30L9 31L10 31L10 32L9 32L9 33L8 33L8 34L6 34L6 35L7 35L7 36L6 36L6 37L7 37L7 38L6 38L6 39L5 39L5 41L7 41L7 42L3 42L3 41L2 41L2 42L1 42L1 41L0 41L0 43L1 43L1 44L3 44L3 45L4 45L4 44L3 44L3 43L7 43L7 44L6 44L6 45L8 45L8 46L9 46L9 45L10 45L10 46L11 46L11 47L8 47L8 48L10 48L10 50L8 50L8 53L9 53L9 51L11 51L11 48L12 48L12 49L13 49L13 50L12 50L12 52L13 52L13 53L14 53L14 52L13 52L13 50L14 50L14 51L15 51L15 53L16 53L16 52L18 52L18 53L20 53L20 52L18 52L18 49L19 49L19 48L20 48L20 49L21 49L21 48L20 48L20 47L21 47L21 46L23 46L23 47L22 47L22 48L23 48L23 49L25 49L25 50L26 50L26 49L28 49L28 50L27 50L27 51L26 51L26 53L27 53L27 51L28 51L28 50L30 50L30 51L29 51L29 52L28 52L28 53L31 53L31 52L30 52L30 51L32 51L32 53L34 53L34 52L35 52L35 51L37 51L37 50L38 50L38 52L36 52L36 53L38 53L38 52L40 52L40 53L41 53L41 52L42 52L42 53L44 53L44 51L45 51L45 52L46 52L46 53L49 53L49 52L46 52L46 51L47 51L47 50L46 50L46 51L45 51L45 50L44 50L44 49L48 49L48 51L49 51L49 50L50 50L50 51L51 51L51 50L50 50L50 49L49 49L49 48L50 48L50 46L51 46L51 45L52 45L52 44L53 44L53 42L52 42L52 44L50 44L50 42L49 42L49 44L47 44L47 42L48 42L48 41L51 41L51 40L50 40L50 39L51 39L51 37L50 37L50 39L49 39L49 38L48 38L48 36L49 36L49 35L48 35L48 33L49 33L49 32L50 32L50 31L51 31L51 32L52 32L52 31L53 31L53 29L52 29L52 27L53 27L53 26L52 26L52 27L51 27L51 26L50 26L50 23L51 23L51 24L52 24L52 25L53 25L53 24L52 24L52 23L53 23L53 22L52 22L52 21L53 21L53 18L52 18L52 20L51 20L51 21L49 21L49 20L48 20L48 21L49 21L49 22L48 22L48 23L49 23L49 24L47 24L47 23L46 23L46 20L47 20L47 19L48 19L48 17L50 17L50 18L51 18L51 17L52 17L52 16L53 16L53 10L52 10L52 9L53 9L53 8L51 8L51 9L50 9L50 10L49 10L49 8L45 8L45 6L44 6L44 7L43 7L43 3L44 3L44 4L45 4L45 3L44 3L44 1L43 1L43 0L42 0L42 2L41 2L41 0L40 0L40 2L41 2L41 3L42 3L42 5L40 5L40 3L38 3L38 2L39 2L39 0L38 0L38 1L37 1L37 0L36 0L36 2L35 2L35 0L34 0L34 1L33 1L33 0L32 0L32 2L33 2L33 4L34 4L34 5L33 5L33 6L32 6L32 9L31 9L31 6L30 6L30 7L29 7L29 3L30 3L30 2L29 2L29 3L27 3L27 0L26 0L26 4L25 4L25 3L23 3L23 4L24 4L24 7L23 7L23 5L22 5L22 2L23 2L23 1L22 1L22 2L20 2L20 1L21 1L21 0L18 0L18 1L16 1L16 2L18 2L18 1L19 1L19 4L20 4L20 5L18 5L18 3L15 3L15 5L16 5L16 7L17 7L17 6L18 6L18 8L19 8L19 12L18 12L18 10L16 10L16 11L17 11L17 12L18 12L18 14L16 14L16 12L14 12L14 11L15 11L15 10L14 10L14 9L15 9L15 8L14 8L14 7L15 7L15 6L14 6L14 7L13 7L13 5L12 5L12 7L13 7L13 10L14 10L14 11L12 11L12 12L11 12L11 11L10 11L10 10L12 10L12 8L11 8L11 4L12 4L12 2L14 2L14 1L15 1L15 0ZM24 0L24 2L25 2L25 0ZM30 0L30 1L31 1L31 0ZM34 2L34 3L35 3L35 2ZM36 2L36 4L37 4L37 5L36 5L36 6L35 6L35 7L34 7L34 6L33 6L33 9L34 9L34 10L35 10L35 9L36 9L36 8L37 8L37 7L38 7L38 8L39 8L39 9L38 9L38 10L37 10L37 11L36 11L36 12L35 12L35 13L34 13L34 14L35 14L35 15L36 15L36 16L35 16L35 17L34 17L34 15L33 15L33 17L34 17L34 19L35 19L35 21L34 21L34 20L33 20L33 18L32 18L32 14L33 14L33 13L32 13L32 11L33 11L33 12L34 12L34 11L33 11L33 10L31 10L31 9L30 9L30 8L29 8L29 9L24 9L24 8L23 8L23 7L22 7L22 5L20 5L20 6L19 6L19 8L20 8L20 6L21 6L21 7L22 7L22 8L21 8L21 10L20 10L20 11L21 11L21 12L20 12L20 14L19 14L19 15L18 15L18 16L19 16L19 17L18 17L18 18L19 18L19 20L21 20L21 21L20 21L20 22L19 22L19 21L18 21L18 19L17 19L17 18L16 18L16 19L17 19L17 20L16 20L16 23L14 23L14 24L15 24L15 25L14 25L14 26L15 26L15 28L16 28L16 30L13 30L13 29L12 29L12 30L11 30L11 32L12 32L12 34L11 34L11 33L10 33L10 35L11 35L11 36L10 36L10 37L11 37L11 36L12 36L12 38L11 38L11 40L13 40L13 38L15 38L15 39L14 39L14 40L15 40L15 41L14 41L14 43L13 43L13 44L14 44L14 45L15 45L15 44L16 44L16 47L15 47L15 46L13 46L13 45L12 45L12 48L13 48L13 47L15 47L15 48L14 48L14 49L15 49L15 48L16 48L16 47L17 47L17 46L19 46L19 45L20 45L20 46L21 46L21 45L22 45L22 43L23 43L23 46L24 46L24 43L23 43L23 41L24 41L24 42L25 42L25 41L26 41L26 44L27 44L27 43L28 43L28 44L29 44L29 45L30 45L30 46L31 46L31 47L30 47L30 48L29 48L29 49L30 49L30 50L32 50L32 51L33 51L33 49L32 49L32 48L34 48L34 50L35 50L35 49L36 49L36 48L38 48L38 50L41 50L41 51L44 51L44 50L43 50L43 47L44 47L44 45L43 45L43 43L44 43L44 42L45 42L45 43L46 43L46 42L47 42L47 41L48 41L48 40L49 40L49 39L48 39L48 40L47 40L47 41L46 41L46 42L45 42L45 41L44 41L44 42L43 42L43 40L44 40L44 39L45 39L45 38L46 38L46 37L45 37L45 35L46 35L46 36L48 36L48 35L46 35L46 34L47 34L47 32L48 32L48 30L49 30L49 31L50 31L50 30L51 30L51 29L50 29L50 28L51 28L51 27L50 27L50 26L49 26L49 27L50 27L50 28L49 28L49 29L48 29L48 30L47 30L47 31L46 31L46 29L44 29L44 26L43 26L43 25L44 25L44 24L46 24L46 23L44 23L44 24L43 24L43 20L44 20L44 22L45 22L45 20L46 20L46 19L47 19L47 17L46 17L46 14L47 14L47 15L49 15L49 16L50 16L50 17L51 17L51 16L52 16L52 13L51 13L51 11L52 11L52 10L50 10L50 14L51 14L51 15L49 15L49 14L48 14L48 9L46 9L46 10L47 10L47 12L46 12L46 11L44 11L44 10L45 10L45 8L43 8L43 7L42 7L42 6L41 6L41 8L43 8L43 9L42 9L42 11L41 11L41 9L40 9L40 8L39 8L39 7L40 7L40 6L39 6L39 7L38 7L38 3L37 3L37 2ZM42 2L42 3L43 3L43 2ZM31 3L31 4L30 4L30 5L31 5L31 4L32 4L32 3ZM9 4L9 5L10 5L10 4ZM25 5L25 8L28 8L28 5ZM9 6L9 8L10 8L10 9L11 9L11 8L10 8L10 6ZM26 6L26 7L27 7L27 6ZM36 6L36 7L37 7L37 6ZM16 8L16 9L17 9L17 8ZM22 8L22 9L23 9L23 8ZM6 9L6 10L4 10L4 12L3 12L3 13L4 13L4 12L5 12L5 11L6 11L6 12L7 12L7 11L6 11L6 10L7 10L7 9ZM29 9L29 10L28 10L28 11L27 11L27 12L28 12L28 15L30 15L30 16L29 16L29 18L28 18L28 16L26 16L26 14L27 14L27 13L26 13L26 10L23 10L23 12L22 12L22 13L21 13L21 14L20 14L20 17L21 17L21 18L20 18L20 19L22 19L22 18L23 18L23 16L24 16L24 18L25 18L25 20L24 20L24 21L23 21L23 20L22 20L22 21L21 21L21 22L20 22L20 24L19 24L19 23L18 23L18 24L19 24L19 26L18 26L18 27L17 27L17 26L16 26L16 27L17 27L17 28L18 28L18 29L19 29L19 28L21 28L21 30L16 30L16 32L15 32L15 31L14 31L14 32L15 32L15 34L13 34L13 35L12 35L12 36L13 36L13 35L15 35L15 36L14 36L14 37L15 37L15 38L16 38L16 36L17 36L17 35L16 35L16 34L18 34L18 38L19 38L19 39L18 39L18 40L19 40L19 43L18 43L18 42L16 42L16 43L18 43L18 45L19 45L19 44L21 44L21 43L22 43L22 41L23 41L23 40L25 40L25 39L24 39L24 38L25 38L25 37L24 37L24 34L25 34L25 35L26 35L26 37L27 37L27 38L26 38L26 41L28 41L28 37L29 37L29 40L30 40L30 39L31 39L31 38L32 38L32 43L33 43L33 44L32 44L32 45L31 45L31 42L30 42L30 41L29 41L29 42L28 42L28 43L29 43L29 44L30 44L30 45L31 45L31 46L32 46L32 45L33 45L33 47L35 47L35 48L36 48L36 47L35 47L35 46L34 46L34 45L33 45L33 44L34 44L34 41L35 41L35 42L36 42L36 43L35 43L35 45L36 45L36 46L37 46L37 47L38 47L38 44L37 44L37 42L38 42L38 41L37 41L37 39L39 39L39 38L38 38L38 37L39 37L39 36L38 36L38 35L37 35L37 34L38 34L38 33L37 33L37 30L38 30L38 31L40 31L40 33L39 33L39 34L40 34L40 33L41 33L41 35L40 35L40 38L42 38L42 39L43 39L43 38L44 38L44 34L46 34L46 33L45 33L45 30L42 30L42 28L43 28L43 27L42 27L42 20L43 20L43 19L44 19L44 17L45 17L45 19L46 19L46 17L45 17L45 15L44 15L44 13L45 13L45 14L46 14L46 12L43 12L43 14L42 14L42 12L40 12L40 13L41 13L41 14L39 14L39 16L40 16L40 19L39 19L39 18L38 18L38 15L37 15L37 16L36 16L36 17L37 17L37 18L35 18L35 19L39 19L39 22L38 22L38 21L37 21L37 20L36 20L36 21L35 21L35 23L32 23L32 22L34 22L34 21L33 21L33 20L32 20L32 22L31 22L31 23L30 23L30 20L31 20L31 19L32 19L32 18L31 18L31 19L30 19L30 16L31 16L31 15L30 15L30 12L31 12L31 11L30 11L30 9ZM39 9L39 10L38 10L38 11L40 11L40 9ZM2 10L2 11L3 11L3 10ZM21 10L21 11L22 11L22 10ZM8 11L8 13L9 13L9 16L10 16L10 17L11 17L11 20L13 20L13 19L14 19L14 20L15 20L15 19L14 19L14 18L15 18L15 16L14 16L14 15L16 15L16 14L12 14L12 13L9 13L9 11ZM24 11L24 12L23 12L23 13L22 13L22 15L21 15L21 16L22 16L22 15L24 15L24 16L25 16L25 15L24 15L24 14L26 14L26 13L24 13L24 12L25 12L25 11ZM36 12L36 13L35 13L35 14L36 14L36 13L37 13L37 12ZM1 13L1 14L2 14L2 13ZM23 13L23 14L24 14L24 13ZM11 14L11 15L12 15L12 14ZM40 15L40 16L41 16L41 17L42 17L42 18L41 18L41 20L42 20L42 19L43 19L43 17L44 17L44 15L43 15L43 16L42 16L42 15ZM25 17L25 18L26 18L26 20L27 20L27 19L28 19L28 21L27 21L27 22L26 22L26 24L28 24L28 22L29 22L29 20L30 20L30 19L28 19L28 18L27 18L27 17ZM6 18L6 19L7 19L7 18ZM12 18L12 19L13 19L13 18ZM12 21L12 22L13 22L13 21ZM17 21L17 22L18 22L18 21ZM22 21L22 24L23 24L23 23L24 23L24 24L25 24L25 23L24 23L24 22L23 22L23 21ZM8 22L8 23L9 23L9 22ZM36 22L36 24L34 24L34 26L33 26L33 25L32 25L32 23L31 23L31 25L30 25L30 26L31 26L31 25L32 25L32 28L30 28L30 27L29 27L29 29L27 29L27 31L26 31L26 30L25 30L25 31L26 31L26 32L25 32L25 33L26 33L26 35L27 35L27 34L28 34L28 36L31 36L31 35L33 35L33 33L32 33L32 32L34 32L34 35L35 35L35 32L34 32L34 31L31 31L31 29L32 29L32 30L33 30L33 29L32 29L32 28L34 28L34 30L36 30L36 27L38 27L38 26L39 26L39 28L38 28L38 30L40 30L40 31L41 31L41 32L42 32L42 34L44 34L44 33L43 33L43 31L42 31L42 30L40 30L40 26L41 26L41 25L40 25L40 24L41 24L41 23L40 23L40 22L39 22L39 25L38 25L38 24L37 24L37 22ZM49 22L49 23L50 23L50 22ZM51 22L51 23L52 23L52 22ZM4 23L4 24L7 24L7 23ZM16 23L16 25L17 25L17 23ZM36 24L36 25L35 25L35 26L34 26L34 28L35 28L35 27L36 27L36 25L37 25L37 26L38 26L38 25L37 25L37 24ZM0 25L0 27L1 27L1 25ZM3 25L3 27L4 27L4 25ZM5 25L5 28L8 28L8 25ZM21 25L21 26L20 26L20 27L21 27L21 26L22 26L22 28L24 28L24 27L23 27L23 25ZM25 25L25 28L28 28L28 25ZM45 25L45 28L48 28L48 25ZM6 26L6 27L7 27L7 26ZM26 26L26 27L27 27L27 26ZM46 26L46 27L47 27L47 26ZM13 27L13 28L14 28L14 27ZM41 27L41 28L42 28L42 27ZM3 28L3 30L2 30L2 32L5 32L5 31L6 31L6 30L7 30L7 29L6 29L6 30L5 30L5 31L3 31L3 30L4 30L4 28ZM23 29L23 30L21 30L21 31L18 31L18 32L19 32L19 33L18 33L18 34L19 34L19 38L20 38L20 39L19 39L19 40L20 40L20 39L21 39L21 38L24 38L24 37L22 37L22 35L20 35L20 34L24 34L24 33L23 33L23 32L24 32L24 31L23 31L23 30L24 30L24 29ZM49 29L49 30L50 30L50 29ZM12 30L12 32L13 32L13 30ZM28 30L28 31L27 31L27 32L26 32L26 33L27 33L27 32L28 32L28 34L30 34L30 35L31 35L31 34L30 34L30 31L29 31L29 30ZM22 31L22 32L23 32L23 31ZM28 31L28 32L29 32L29 31ZM20 32L20 33L21 33L21 32ZM50 33L50 35L51 35L51 33ZM52 34L52 35L53 35L53 34ZM1 35L1 36L2 36L2 35ZM4 35L4 37L5 37L5 35ZM36 35L36 36L35 36L35 37L34 37L34 36L33 36L33 37L32 37L32 38L33 38L33 40L34 40L34 39L35 39L35 41L36 41L36 39L35 39L35 38L36 38L36 36L37 36L37 35ZM41 35L41 37L42 37L42 38L43 38L43 37L42 37L42 35ZM7 36L7 37L9 37L9 36ZM30 37L30 38L31 38L31 37ZM33 37L33 38L34 38L34 37ZM7 38L7 39L6 39L6 40L7 40L7 41L8 41L8 42L7 42L7 43L8 43L8 45L9 45L9 43L11 43L11 44L10 44L10 45L11 45L11 44L12 44L12 42L13 42L13 41L12 41L12 42L10 42L10 38L9 38L9 39L8 39L8 38ZM52 38L52 39L53 39L53 38ZM7 39L7 40L8 40L8 39ZM15 39L15 40L16 40L16 41L17 41L17 39ZM22 39L22 40L23 40L23 39ZM40 39L40 41L39 41L39 42L40 42L40 43L41 43L41 44L40 44L40 46L39 46L39 47L40 47L40 49L41 49L41 47L43 47L43 46L42 46L42 45L41 45L41 44L42 44L42 43L41 43L41 42L42 42L42 41L41 41L41 39ZM52 40L52 41L53 41L53 40ZM40 41L40 42L41 42L41 41ZM2 42L2 43L3 43L3 42ZM8 42L8 43L9 43L9 42ZM20 42L20 43L21 43L21 42ZM14 43L14 44L15 44L15 43ZM25 45L25 48L28 48L28 45ZM45 45L45 48L48 48L48 45ZM49 45L49 46L50 46L50 45ZM26 46L26 47L27 47L27 46ZM40 46L40 47L41 47L41 46ZM46 46L46 47L47 47L47 46ZM52 46L52 48L53 48L53 46ZM18 47L18 48L19 48L19 47ZM31 47L31 48L30 48L30 49L31 49L31 48L32 48L32 47ZM16 50L16 51L17 51L17 50ZM20 50L20 51L21 51L21 52L22 52L22 53L23 53L23 52L22 52L22 51L24 51L24 50ZM24 52L24 53L25 53L25 52ZM52 52L52 53L53 53L53 52ZM0 0L0 7L7 7L7 0ZM1 1L1 6L6 6L6 1ZM2 2L2 5L5 5L5 2ZM46 0L46 7L53 7L53 0ZM47 1L47 6L52 6L52 1ZM48 2L48 5L51 5L51 2ZM0 46L0 53L7 53L7 46ZM1 47L1 52L6 52L6 47ZM2 48L2 51L5 51L5 48Z" fill="#000000"/></g></g></svg>
