<?xml version="1.0" encoding="UTF-8"?>
<svg xmlns="http://www.w3.org/2000/svg" version="1.1" width="356" height="356" viewBox="0 0 356 356"><rect x="0" y="0" width="356" height="356" fill="#ffffff"/><g transform="scale(6.717)"><g transform="translate(0,0)"><path fill-rule="evenodd" d="M8 0L8 1L9 1L9 2L8 2L8 5L9 5L9 4L10 4L10 5L11 5L11 6L10 6L10 7L9 7L9 6L8 6L8 7L9 7L9 8L8 8L8 10L10 10L10 7L11 7L11 9L12 9L12 7L13 7L13 11L12 11L12 12L11 12L11 11L8 11L8 12L6 12L6 11L7 11L7 10L6 10L6 11L5 11L5 10L4 10L4 11L5 11L5 12L4 12L4 13L5 13L5 15L7 15L7 14L6 14L6 13L8 13L8 14L9 14L9 13L8 13L8 12L11 12L11 13L12 13L12 12L15 12L15 14L14 14L14 13L13 13L13 14L12 14L12 15L13 15L13 14L14 14L14 16L10 16L10 15L9 15L9 16L10 16L10 17L9 17L9 18L8 18L8 20L4 20L4 21L5 21L5 22L6 22L6 23L7 23L7 22L6 22L6 21L8 21L8 22L9 22L9 23L8 23L8 24L5 24L5 23L4 23L4 22L3 22L3 21L2 21L2 22L1 22L1 20L3 20L3 19L7 19L7 18L5 18L5 17L8 17L8 16L5 16L5 17L4 17L4 14L3 14L3 12L2 12L2 14L1 14L1 15L2 15L2 14L3 14L3 17L4 17L4 18L3 18L3 19L2 19L2 17L1 17L1 16L0 16L0 18L1 18L1 19L0 19L0 27L2 27L2 28L1 28L1 29L2 29L2 28L3 28L3 27L2 27L2 26L3 26L3 25L1 25L1 23L2 23L2 24L4 24L4 29L3 29L3 30L4 30L4 29L7 29L7 30L6 30L6 31L5 31L5 32L6 32L6 33L7 33L7 34L5 34L5 35L8 35L8 36L6 36L6 37L8 37L8 38L9 38L9 39L8 39L8 41L7 41L7 40L6 40L6 39L7 39L7 38L5 38L5 39L4 39L4 35L2 35L2 34L1 34L1 35L2 35L2 36L1 36L1 38L0 38L0 40L1 40L1 39L2 39L2 42L1 42L1 41L0 41L0 43L1 43L1 44L3 44L3 45L4 45L4 44L3 44L3 43L8 43L8 41L10 41L10 42L9 42L9 43L10 43L10 44L6 44L6 45L8 45L8 46L9 46L9 48L10 48L10 50L11 50L11 53L12 53L12 52L13 52L13 53L14 53L14 52L13 52L13 51L15 51L15 50L17 50L17 49L16 49L16 48L15 48L15 49L13 49L13 51L12 51L12 50L11 50L11 49L12 49L12 48L14 48L14 47L15 47L15 46L14 46L14 45L15 45L15 43L10 43L10 42L13 42L13 40L14 40L14 41L16 41L16 42L17 42L17 41L16 41L16 40L17 40L17 39L20 39L20 43L17 43L17 45L18 45L18 46L16 46L16 47L17 47L17 48L18 48L18 49L20 49L20 50L21 50L21 51L23 51L23 52L25 52L25 53L28 53L28 52L29 52L29 53L30 53L30 52L31 52L31 53L33 53L33 50L34 50L34 53L35 53L35 50L37 50L37 51L36 51L36 52L38 52L38 53L40 53L40 52L41 52L41 51L40 51L40 52L38 52L38 51L39 51L39 50L41 50L41 49L37 49L37 48L38 48L38 46L36 46L36 47L34 47L34 48L33 48L33 49L32 49L32 48L31 48L31 47L32 47L32 45L31 45L31 43L32 43L32 44L33 44L33 43L35 43L35 45L36 45L36 44L38 44L38 43L39 43L39 45L41 45L41 46L40 46L40 47L41 47L41 46L44 46L44 47L42 47L42 49L44 49L44 50L45 50L45 51L48 51L48 52L47 52L47 53L48 53L48 52L50 52L50 51L51 51L51 53L52 53L52 50L50 50L50 49L51 49L51 48L52 48L52 49L53 49L53 47L52 47L52 45L50 45L50 44L51 44L51 42L49 42L49 43L48 43L48 41L47 41L47 40L50 40L50 41L52 41L52 42L53 42L53 41L52 41L52 39L53 39L53 35L52 35L52 33L51 33L51 32L53 32L53 31L50 31L50 30L48 30L48 29L51 29L51 30L52 30L52 29L53 29L53 28L52 28L52 29L51 29L51 28L50 28L50 27L49 27L49 24L46 24L46 23L52 23L52 21L53 21L53 19L52 19L52 21L51 21L51 19L50 19L50 17L49 17L49 19L50 19L50 21L49 21L49 22L45 22L45 23L43 23L43 22L44 22L44 21L48 21L48 20L47 20L47 18L48 18L48 15L47 15L47 14L49 14L49 15L50 15L50 14L51 14L51 15L52 15L52 16L51 16L51 17L52 17L52 18L53 18L53 14L51 14L51 13L52 13L52 10L50 10L50 9L51 9L51 8L48 8L48 9L49 9L49 10L50 10L50 11L51 11L51 13L49 13L49 11L48 11L48 12L47 12L47 14L46 14L46 13L44 13L44 11L45 11L45 12L46 12L46 11L45 11L45 10L43 10L43 8L42 8L42 7L43 7L43 3L44 3L44 4L45 4L45 3L44 3L44 1L43 1L43 0L42 0L42 2L43 2L43 3L42 3L42 5L41 5L41 6L40 6L40 4L39 4L39 2L37 2L37 1L38 1L38 0L35 0L35 1L33 1L33 2L32 2L32 3L31 3L31 2L30 2L30 1L32 1L32 0L29 0L29 2L30 2L30 3L29 3L29 4L28 4L28 3L25 3L25 2L28 2L28 1L27 1L27 0L26 0L26 1L25 1L25 0L21 0L21 1L19 1L19 0L16 0L16 2L15 2L15 1L13 1L13 0L11 0L11 1L10 1L10 0ZM40 0L40 2L41 2L41 0ZM17 1L17 2L16 2L16 3L14 3L14 2L11 2L11 5L12 5L12 6L11 6L11 7L12 7L12 6L13 6L13 7L14 7L14 6L15 6L15 8L14 8L14 10L15 10L15 8L17 8L17 7L18 7L18 6L17 6L17 4L16 4L16 3L17 3L17 2L19 2L19 1ZM21 1L21 2L20 2L20 3L21 3L21 4L22 4L22 5L19 5L19 8L20 8L20 9L21 9L21 7L22 7L22 8L23 8L23 7L24 7L24 4L23 4L23 3L24 3L24 2L25 2L25 1L23 1L23 3L22 3L22 1ZM9 2L9 3L10 3L10 2ZM33 2L33 3L32 3L32 4L33 4L33 3L34 3L34 2ZM36 2L36 3L37 3L37 4L38 4L38 3L37 3L37 2ZM12 3L12 4L13 4L13 6L14 6L14 4L13 4L13 3ZM29 4L29 7L30 7L30 6L31 6L31 9L33 9L33 10L32 10L32 13L31 13L31 12L29 12L29 11L30 11L30 10L29 10L29 9L28 9L28 12L27 12L27 9L26 9L26 11L25 11L25 10L23 10L23 9L22 9L22 10L19 10L19 11L18 11L18 12L19 12L19 13L20 13L20 11L21 11L21 14L17 14L17 13L16 13L16 14L17 14L17 15L19 15L19 16L18 16L18 18L17 18L17 16L16 16L16 15L15 15L15 16L14 16L14 19L15 19L15 17L16 17L16 18L17 18L17 19L18 19L18 18L19 18L19 16L20 16L20 15L23 15L23 14L22 14L22 13L23 13L23 11L24 11L24 12L26 12L26 13L27 13L27 14L31 14L31 15L28 15L28 16L29 16L29 18L27 18L27 17L25 17L25 18L24 18L24 16L21 16L21 17L20 17L20 19L19 19L19 20L18 20L18 21L19 21L19 20L20 20L20 22L21 22L21 23L22 23L22 22L23 22L23 21L21 21L21 20L20 20L20 19L22 19L22 20L23 20L23 19L22 19L22 18L24 18L24 24L22 24L22 25L21 25L21 24L18 24L18 22L17 22L17 20L14 20L14 21L15 21L15 23L14 23L14 22L13 22L13 25L15 25L15 26L14 26L14 27L12 27L12 24L11 24L11 20L12 20L12 21L13 21L13 20L12 20L12 18L13 18L13 17L12 17L12 18L9 18L9 19L10 19L10 20L9 20L9 22L10 22L10 23L9 23L9 24L10 24L10 25L9 25L9 31L8 31L8 35L9 35L9 36L10 36L10 34L11 34L11 33L12 33L12 31L13 31L13 34L12 34L12 35L14 35L14 37L13 37L13 38L14 38L14 40L16 40L16 39L17 39L17 37L16 37L16 39L15 39L15 38L14 38L14 37L15 37L15 35L16 35L16 36L18 36L18 35L19 35L19 34L21 34L21 32L22 32L22 34L25 34L25 35L28 35L28 34L29 34L29 36L30 36L30 37L28 37L28 40L29 40L29 41L30 41L30 42L31 42L31 41L30 41L30 39L31 39L31 40L32 40L32 38L31 38L31 37L33 37L33 38L34 38L34 39L35 39L35 40L33 40L33 41L37 41L37 39L36 39L36 38L35 38L35 36L36 36L36 35L37 35L37 36L39 36L39 38L38 38L38 40L40 40L40 41L42 41L42 42L39 42L39 41L38 41L38 42L39 42L39 43L40 43L40 44L43 44L43 41L45 41L45 40L46 40L46 39L45 39L45 40L41 40L41 39L43 39L43 37L45 37L45 38L46 38L46 37L45 37L45 36L46 36L46 35L47 35L47 39L50 39L50 40L51 40L51 38L52 38L52 35L51 35L51 34L50 34L50 32L49 32L49 34L46 34L46 35L45 35L45 36L40 36L40 34L41 34L41 35L43 35L43 34L41 34L41 33L40 33L40 34L39 34L39 33L38 33L38 34L37 34L37 32L41 32L41 31L42 31L42 32L44 32L44 34L45 34L45 33L48 33L48 32L47 32L47 29L44 29L44 26L43 26L43 25L44 25L44 24L43 24L43 23L41 23L41 24L38 24L38 25L39 25L39 28L40 28L40 30L39 30L39 29L37 29L37 27L36 27L36 26L37 26L37 25L34 25L34 26L35 26L35 27L31 27L31 25L29 25L29 30L28 30L28 29L27 29L27 30L28 30L28 34L26 34L26 33L27 33L27 32L26 32L26 31L25 31L25 32L22 32L22 30L23 30L23 31L24 31L24 29L23 29L23 27L21 27L21 28L20 28L20 30L19 30L19 25L20 25L20 26L24 26L24 24L30 24L30 23L31 23L31 22L30 22L30 23L29 23L29 22L28 22L28 23L25 23L25 22L26 22L26 21L25 21L25 19L26 19L26 18L27 18L27 19L28 19L28 21L30 21L30 20L29 20L29 18L30 18L30 19L32 19L32 18L31 18L31 16L32 16L32 15L34 15L34 14L37 14L37 13L38 13L38 12L39 12L39 15L37 15L37 16L34 16L34 17L35 17L35 19L36 19L36 21L37 21L37 19L36 19L36 18L38 18L38 22L36 22L36 24L37 24L37 23L38 23L38 22L39 22L39 23L40 23L40 22L41 22L41 21L42 21L42 20L44 20L44 19L45 19L45 17L43 17L43 16L44 16L44 15L46 15L46 14L44 14L44 15L43 15L43 11L41 11L41 10L40 10L40 9L39 9L39 8L40 8L40 6L39 6L39 5L37 5L37 7L36 7L36 5L35 5L35 4L34 4L34 5L33 5L33 7L32 7L32 5L31 5L31 4ZM25 5L25 8L28 8L28 5ZM16 6L16 7L17 7L17 6ZM20 6L20 7L21 7L21 6ZM22 6L22 7L23 7L23 6ZM26 6L26 7L27 7L27 6ZM34 6L34 7L35 7L35 11L36 11L36 12L35 12L35 13L37 13L37 11L38 11L38 7L39 7L39 6L38 6L38 7L37 7L37 11L36 11L36 7L35 7L35 6ZM41 6L41 7L42 7L42 6ZM44 6L44 7L45 7L45 6ZM0 8L0 11L1 11L1 10L3 10L3 9L4 9L4 8ZM6 8L6 9L7 9L7 8ZM33 8L33 9L34 9L34 8ZM44 8L44 9L46 9L46 8ZM52 8L52 9L53 9L53 8ZM16 9L16 11L15 11L15 12L16 12L16 11L17 11L17 10L18 10L18 9ZM40 11L40 12L41 12L41 11ZM24 13L24 15L26 15L26 16L27 16L27 15L26 15L26 14L25 14L25 13ZM32 13L32 14L34 14L34 13ZM40 13L40 15L42 15L42 14L41 14L41 13ZM37 16L37 17L38 17L38 16ZM39 16L39 17L40 17L40 16ZM41 16L41 19L40 19L40 18L39 18L39 20L40 20L40 21L41 21L41 19L42 19L42 16ZM46 16L46 17L47 17L47 16ZM21 17L21 18L22 18L22 17ZM43 18L43 19L44 19L44 18ZM31 20L31 21L33 21L33 22L32 22L32 23L34 23L34 24L35 24L35 20L34 20L34 21L33 21L33 20ZM16 22L16 23L17 23L17 22ZM17 24L17 26L15 26L15 27L14 27L14 30L13 30L13 29L12 29L12 28L10 28L10 30L13 30L13 31L15 31L15 30L17 30L17 28L18 28L18 24ZM32 24L32 25L33 25L33 24ZM41 24L41 25L40 25L40 27L41 27L41 28L42 28L42 26L41 26L41 25L43 25L43 24ZM50 24L50 26L51 26L51 27L53 27L53 26L51 26L51 25L53 25L53 24ZM5 25L5 28L8 28L8 25ZM10 25L10 27L11 27L11 25ZM25 25L25 28L28 28L28 25ZM45 25L45 28L48 28L48 25ZM6 26L6 27L7 27L7 26ZM26 26L26 27L27 27L27 26ZM46 26L46 27L47 27L47 26ZM16 27L16 28L15 28L15 29L16 29L16 28L17 28L17 27ZM35 27L35 28L31 28L31 29L33 29L33 31L32 31L32 30L31 30L31 31L32 31L32 32L33 32L33 31L34 31L34 32L35 32L35 31L36 31L36 32L37 32L37 31L38 31L38 30L37 30L37 29L36 29L36 27ZM21 28L21 29L22 29L22 28ZM25 29L25 30L26 30L26 29ZM41 29L41 30L42 30L42 31L44 31L44 30L42 30L42 29ZM18 30L18 31L19 31L19 30ZM29 30L29 31L30 31L30 30ZM34 30L34 31L35 31L35 30ZM0 31L0 33L3 33L3 32L4 32L4 31L3 31L3 32L1 32L1 31ZM6 31L6 32L7 32L7 31ZM9 31L9 34L10 34L10 32L11 32L11 31ZM16 31L16 35L17 35L17 34L19 34L19 33L17 33L17 31ZM20 31L20 32L21 32L21 31ZM14 32L14 33L15 33L15 32ZM29 32L29 34L31 34L31 35L32 35L32 36L35 36L35 35L36 35L36 33L35 33L35 34L34 34L34 35L32 35L32 34L31 34L31 32ZM14 34L14 35L15 35L15 34ZM38 34L38 35L39 35L39 34ZM20 35L20 36L21 36L21 37L22 37L22 38L21 38L21 41L23 41L23 42L22 42L22 43L20 43L20 44L18 44L18 45L20 45L20 46L18 46L18 48L19 48L19 47L21 47L21 48L20 48L20 49L21 49L21 50L23 50L23 51L26 51L26 49L25 49L25 50L24 50L24 48L23 48L23 47L21 47L21 46L22 46L22 43L23 43L23 46L24 46L24 44L25 44L25 43L26 43L26 42L27 42L27 43L28 43L28 44L29 44L29 45L30 45L30 43L29 43L29 42L28 42L28 41L26 41L26 42L25 42L25 43L24 43L24 41L25 41L25 40L27 40L27 38L26 38L26 37L27 37L27 36L26 36L26 37L25 37L25 39L24 39L24 38L23 38L23 37L24 37L24 35L23 35L23 36L22 36L22 35ZM48 35L48 36L49 36L49 37L50 37L50 36L49 36L49 35ZM11 37L11 38L10 38L10 39L9 39L9 40L10 40L10 39L11 39L11 41L12 41L12 40L13 40L13 39L11 39L11 38L12 38L12 37ZM19 37L19 38L20 38L20 37ZM40 37L40 38L41 38L41 37ZM22 38L22 39L23 39L23 40L24 40L24 39L23 39L23 38ZM3 39L3 42L2 42L2 43L3 43L3 42L5 42L5 40L4 40L4 39ZM18 40L18 41L19 41L19 40ZM6 41L6 42L7 42L7 41ZM32 42L32 43L33 43L33 42ZM35 42L35 43L36 43L36 42ZM46 42L46 43L47 43L47 42ZM52 43L52 44L53 44L53 43ZM11 44L11 45L10 45L10 46L11 46L11 48L12 48L12 47L13 47L13 46L12 46L12 45L13 45L13 44ZM20 44L20 45L21 45L21 44ZM25 45L25 48L28 48L28 45ZM45 45L45 48L48 48L48 45ZM49 45L49 48L51 48L51 46L50 46L50 45ZM26 46L26 47L27 47L27 46ZM29 46L29 49L27 49L27 51L30 51L30 50L32 50L32 49L30 49L30 47L31 47L31 46ZM46 46L46 47L47 47L47 46ZM22 48L22 49L23 49L23 48ZM35 48L35 49L34 49L34 50L35 50L35 49L36 49L36 48ZM8 49L8 53L9 53L9 49ZM45 49L45 50L46 50L46 49ZM18 50L18 51L16 51L16 53L17 53L17 52L19 52L19 53L22 53L22 52L19 52L19 50ZM48 50L48 51L49 51L49 50ZM31 51L31 52L32 52L32 51ZM42 51L42 52L43 52L43 53L46 53L46 52L43 52L43 51ZM0 0L0 7L7 7L7 0ZM1 1L1 6L6 6L6 1ZM2 2L2 5L5 5L5 2ZM46 0L46 7L53 7L53 0ZM47 1L47 6L52 6L52 1ZM48 2L48 5L51 5L51 2ZM0 46L0 53L7 53L7 46ZM1 47L1 52L6 52L6 47ZM2 48L2 51L5 51L5 48Z" fill="#000000"/></g></g></svg>
