<?xml version="1.0" encoding="UTF-8"?>
<svg xmlns="http://www.w3.org/2000/svg" version="1.1" width="356" height="356" viewBox="0 0 356 356"><rect x="0" y="0" width="356" height="356" fill="#ffffff"/><g transform="scale(6.717)"><g transform="translate(0,0)"><path fill-rule="evenodd" d="M8 0L8 2L9 2L9 4L8 4L8 9L7 9L7 8L5 8L5 9L4 9L4 10L6 10L6 11L7 11L7 12L6 12L6 13L5 13L5 15L4 15L4 12L3 12L3 11L0 11L0 12L3 12L3 13L2 13L2 14L3 14L3 15L2 15L2 16L3 16L3 18L1 18L1 17L0 17L0 20L1 20L1 21L0 21L0 22L2 22L2 23L3 23L3 25L2 25L2 24L0 24L0 28L1 28L1 29L0 29L0 30L1 30L1 32L2 32L2 31L3 31L3 32L4 32L4 34L3 34L3 33L1 33L1 34L2 34L2 35L1 35L1 36L0 36L0 37L2 37L2 35L3 35L3 37L4 37L4 39L3 39L3 38L1 38L1 39L2 39L2 42L1 42L1 40L0 40L0 43L1 43L1 44L3 44L3 45L4 45L4 44L3 44L3 43L7 43L7 42L8 42L8 43L9 43L9 45L8 45L8 46L9 46L9 47L8 47L8 48L9 48L9 50L8 50L8 53L10 53L10 52L9 52L9 51L10 51L10 50L11 50L11 48L10 48L10 46L11 46L11 47L12 47L12 46L11 46L11 45L10 45L10 44L12 44L12 45L13 45L13 44L12 44L12 43L14 43L14 44L15 44L15 45L14 45L14 47L13 47L13 49L12 49L12 50L13 50L13 52L12 52L12 51L11 51L11 52L12 52L12 53L14 53L14 51L15 51L15 53L16 53L16 52L18 52L18 53L19 53L19 52L18 52L18 49L19 49L19 48L18 48L18 47L19 47L19 46L20 46L20 47L21 47L21 46L22 46L22 45L23 45L23 47L22 47L22 48L23 48L23 50L20 50L20 51L21 51L21 52L20 52L20 53L21 53L21 52L22 52L22 53L23 53L23 52L24 52L24 53L25 53L25 52L24 52L24 51L25 51L25 50L26 50L26 49L28 49L28 50L27 50L27 51L26 51L26 53L27 53L27 51L28 51L28 50L30 50L30 51L29 51L29 52L28 52L28 53L31 53L31 52L32 52L32 53L34 53L34 52L35 52L35 50L34 50L34 48L32 48L32 47L35 47L35 46L36 46L36 45L37 45L37 42L38 42L38 40L40 40L40 41L39 41L39 43L38 43L38 44L39 44L39 43L40 43L40 41L41 41L41 40L42 40L42 41L44 41L44 40L45 40L45 39L38 39L38 36L40 36L40 37L39 37L39 38L40 38L40 37L41 37L41 35L42 35L42 37L43 37L43 38L44 38L44 35L42 35L42 32L43 32L43 34L44 34L44 33L45 33L45 34L46 34L46 35L45 35L45 37L46 37L46 35L47 35L47 38L46 38L46 39L47 39L47 40L46 40L46 44L45 44L45 42L44 42L44 43L43 43L43 45L44 45L44 47L43 47L43 46L42 46L42 44L40 44L40 46L39 46L39 48L40 48L40 49L41 49L41 50L40 50L40 51L39 51L39 50L38 50L38 49L37 49L37 48L36 48L36 50L37 50L37 52L36 52L36 53L39 53L39 52L40 52L40 53L41 53L41 52L42 52L42 53L44 53L44 51L45 51L45 53L49 53L49 52L46 52L46 51L47 51L47 49L48 49L48 51L49 51L49 50L50 50L50 51L51 51L51 49L49 49L49 48L50 48L50 46L51 46L51 48L52 48L52 47L53 47L53 45L52 45L52 44L53 44L53 42L52 42L52 44L50 44L50 42L51 42L51 41L53 41L53 38L52 38L52 37L50 37L50 39L49 39L49 38L48 38L48 36L50 36L50 34L51 34L51 33L49 33L49 32L50 32L50 31L51 31L51 32L52 32L52 33L53 33L53 32L52 32L52 31L53 31L53 29L52 29L52 27L53 27L53 26L52 26L52 27L51 27L51 26L50 26L50 23L51 23L51 25L53 25L53 22L52 22L52 23L51 23L51 21L53 21L53 18L52 18L52 20L51 20L51 21L49 21L49 20L48 20L48 21L47 21L47 22L46 22L46 21L45 21L45 22L44 22L44 20L47 20L47 19L48 19L48 17L49 17L49 18L50 18L50 16L49 16L49 15L51 15L51 16L53 16L53 14L52 14L52 15L51 15L51 14L50 14L50 11L51 11L51 13L53 13L53 10L52 10L52 9L53 9L53 8L51 8L51 10L50 10L50 9L49 9L49 8L45 8L45 6L44 6L44 7L43 7L43 3L44 3L44 4L45 4L45 3L44 3L44 1L43 1L43 0L42 0L42 2L41 2L41 1L40 1L40 2L41 2L41 5L40 5L40 3L38 3L38 2L39 2L39 0L38 0L38 2L37 2L37 0L36 0L36 3L35 3L35 0L34 0L34 1L33 1L33 0L32 0L32 2L31 2L31 4L30 4L30 5L31 5L31 6L30 6L30 8L29 8L29 4L28 4L28 3L30 3L30 1L31 1L31 0L30 0L30 1L29 1L29 2L28 2L28 3L27 3L27 2L26 2L26 0L24 0L24 1L23 1L23 4L24 4L24 7L23 7L23 5L22 5L22 0L18 0L18 1L16 1L16 2L18 2L18 1L19 1L19 4L20 4L20 5L18 5L18 3L15 3L15 2L14 2L14 3L15 3L15 5L16 5L16 7L17 7L17 6L18 6L18 8L19 8L19 12L18 12L18 10L16 10L16 11L17 11L17 12L18 12L18 14L16 14L16 12L14 12L14 9L15 9L15 8L14 8L14 7L15 7L15 6L14 6L14 7L13 7L13 5L9 5L9 4L10 4L10 3L11 3L11 4L12 4L12 3L13 3L13 1L15 1L15 0L13 0L13 1L12 1L12 2L11 2L11 1L10 1L10 0ZM20 1L20 2L21 2L21 1ZM24 1L24 4L25 4L25 1ZM32 2L32 6L31 6L31 8L30 8L30 9L22 9L22 8L23 8L23 7L22 7L22 5L20 5L20 6L19 6L19 8L20 8L20 6L21 6L21 7L22 7L22 8L21 8L21 10L20 10L20 11L21 11L21 12L20 12L20 14L19 14L19 15L18 15L18 16L19 16L19 17L18 17L18 18L19 18L19 20L21 20L21 21L20 21L20 22L19 22L19 21L18 21L18 19L17 19L17 18L16 18L16 19L17 19L17 20L16 20L16 23L14 23L14 24L15 24L15 25L14 25L14 26L15 26L15 28L16 28L16 30L13 30L13 28L14 28L14 27L12 27L12 28L11 28L11 25L12 25L12 26L13 26L13 25L12 25L12 24L13 24L13 23L12 23L12 24L10 24L10 29L9 29L9 31L11 31L11 34L10 34L10 33L9 33L9 35L8 35L8 30L7 30L7 29L6 29L6 30L7 30L7 31L5 31L5 32L7 32L7 33L6 33L6 34L5 34L5 35L4 35L4 36L7 36L7 37L5 37L5 38L7 38L7 39L5 39L5 40L3 40L3 41L5 41L5 42L7 42L7 41L8 41L8 42L9 42L9 40L10 40L10 43L12 43L12 42L13 42L13 38L15 38L15 39L14 39L14 40L15 40L15 41L14 41L14 42L15 42L15 44L16 44L16 47L15 47L15 48L16 48L16 47L17 47L17 46L19 46L19 45L20 45L20 46L21 46L21 45L22 45L22 42L24 42L24 40L25 40L25 41L26 41L26 40L27 40L27 41L28 41L28 40L30 40L30 42L31 42L31 44L29 44L29 42L28 42L28 44L29 44L29 45L30 45L30 46L29 46L29 47L30 47L30 50L32 50L32 52L33 52L33 49L32 49L32 48L31 48L31 47L32 47L32 46L31 46L31 45L32 45L32 44L34 44L34 46L35 46L35 45L36 45L36 40L38 40L38 39L37 39L37 38L36 38L36 34L37 34L37 36L38 36L38 34L40 34L40 35L41 35L41 34L40 34L40 31L41 31L41 32L42 32L42 30L44 30L44 26L43 26L43 25L44 25L44 23L43 23L43 20L44 20L44 19L45 19L45 17L46 17L46 19L47 19L47 17L46 17L46 15L45 15L45 13L46 13L46 14L47 14L47 15L48 15L48 9L46 9L46 10L47 10L47 12L46 12L46 11L45 11L45 9L44 9L44 11L42 11L42 12L45 12L45 13L44 13L44 15L43 15L43 16L42 16L42 18L41 18L41 17L40 17L40 16L41 16L41 15L42 15L42 14L43 14L43 13L42 13L42 14L41 14L41 13L40 13L40 12L41 12L41 11L39 11L39 12L38 12L38 11L34 11L34 12L33 12L33 10L31 10L31 9L32 9L32 6L33 6L33 9L34 9L34 10L35 10L35 9L36 9L36 8L37 8L37 7L38 7L38 8L39 8L39 9L38 9L38 10L39 10L39 9L40 9L40 6L39 6L39 5L38 5L38 3L36 3L36 4L37 4L37 5L36 5L36 6L35 6L35 7L34 7L34 6L33 6L33 3L34 3L34 4L35 4L35 3L34 3L34 2ZM42 2L42 3L43 3L43 2ZM25 5L25 8L28 8L28 5ZM41 5L41 8L42 8L42 5ZM9 6L9 7L10 7L10 6ZM11 6L11 7L12 7L12 6ZM26 6L26 7L27 7L27 6ZM36 6L36 7L37 7L37 6ZM38 6L38 7L39 7L39 6ZM0 8L0 9L1 9L1 10L2 10L2 9L3 9L3 8ZM11 8L11 9L12 9L12 10L9 10L9 12L8 12L8 13L9 13L9 14L7 14L7 13L6 13L6 14L7 14L7 15L5 15L5 16L7 16L7 17L6 17L6 18L5 18L5 19L1 19L1 20L2 20L2 21L3 21L3 20L5 20L5 22L4 22L4 24L5 24L5 23L6 23L6 24L7 24L7 23L8 23L8 24L9 24L9 22L8 22L8 21L6 21L6 20L9 20L9 21L11 21L11 22L10 22L10 23L11 23L11 22L12 22L12 21L13 21L13 20L11 20L11 19L10 19L10 17L11 17L11 18L12 18L12 19L14 19L14 20L15 20L15 19L14 19L14 18L15 18L15 16L14 16L14 15L16 15L16 14L13 14L13 12L11 12L11 13L9 13L9 12L10 12L10 11L13 11L13 8ZM16 8L16 9L17 9L17 8ZM6 9L6 10L7 10L7 11L8 11L8 10L7 10L7 9ZM42 9L42 10L43 10L43 9ZM24 10L24 11L23 11L23 12L21 12L21 14L20 14L20 17L21 17L21 18L20 18L20 19L23 19L23 20L22 20L22 22L20 22L20 24L19 24L19 23L18 23L18 24L19 24L19 26L18 26L18 27L17 27L17 26L16 26L16 27L17 27L17 28L18 28L18 29L19 29L19 28L22 28L22 29L21 29L21 30L16 30L16 32L15 32L15 31L14 31L14 32L15 32L15 34L13 34L13 30L12 30L12 29L11 29L11 30L12 30L12 34L13 34L13 35L15 35L15 36L14 36L14 37L15 37L15 38L16 38L16 36L17 36L17 35L16 35L16 34L18 34L18 38L19 38L19 39L18 39L18 40L19 40L19 43L18 43L18 42L16 42L16 43L18 43L18 45L19 45L19 44L20 44L20 45L21 45L21 43L20 43L20 42L22 42L22 41L23 41L23 40L22 40L22 39L24 39L24 38L25 38L25 36L24 36L24 37L23 37L23 35L25 35L25 32L26 32L26 35L27 35L27 36L26 36L26 37L27 37L27 36L28 36L28 37L29 37L29 39L31 39L31 38L32 38L32 43L34 43L34 44L35 44L35 43L34 43L34 41L35 41L35 39L36 39L36 38L35 38L35 39L34 39L34 36L35 36L35 35L34 35L34 32L35 32L35 34L36 34L36 33L37 33L37 34L38 34L38 33L39 33L39 32L38 32L38 31L37 31L37 30L38 30L38 28L40 28L40 30L39 30L39 31L40 31L40 30L42 30L42 29L43 29L43 26L42 26L42 25L43 25L43 23L42 23L42 20L41 20L41 18L40 18L40 17L39 17L39 18L38 18L38 17L37 17L37 16L38 16L38 12L36 12L36 14L34 14L34 13L35 13L35 12L34 12L34 13L33 13L33 12L32 12L32 13L33 13L33 14L32 14L32 18L31 18L31 19L29 19L29 18L28 18L28 19L27 19L27 18L26 18L26 17L27 17L27 16L26 16L26 15L27 15L27 14L26 14L26 15L25 15L25 16L24 16L24 14L25 14L25 13L26 13L26 10ZM28 10L28 11L29 11L29 12L28 12L28 13L29 13L29 14L28 14L28 17L30 17L30 16L29 16L29 15L30 15L30 12L31 12L31 11L29 11L29 10ZM51 10L51 11L52 11L52 10ZM24 11L24 13L23 13L23 14L22 14L22 15L21 15L21 16L22 16L22 15L23 15L23 14L24 14L24 13L25 13L25 11ZM0 13L0 14L1 14L1 13ZM9 14L9 17L10 17L10 15L11 15L11 17L13 17L13 14L12 14L12 15L11 15L11 14ZM33 14L33 17L34 17L34 19L33 19L33 18L32 18L32 19L31 19L31 21L30 21L30 20L27 20L27 19L26 19L26 21L28 21L28 22L26 22L26 24L27 24L27 23L28 23L28 24L29 24L29 25L30 25L30 26L29 26L29 29L30 29L30 30L29 30L29 31L28 31L28 32L30 32L30 35L28 35L28 36L29 36L29 37L30 37L30 38L31 38L31 37L32 37L32 38L33 38L33 37L32 37L32 36L31 36L31 37L30 37L30 35L33 35L33 36L34 36L34 35L33 35L33 33L32 33L32 32L34 32L34 30L35 30L35 31L36 31L36 30L35 30L35 29L34 29L34 30L32 30L32 28L33 28L33 27L34 27L34 28L35 28L35 27L34 27L34 26L35 26L35 25L36 25L36 27L38 27L38 26L39 26L39 27L40 27L40 28L41 28L41 27L42 27L42 26L41 26L41 25L40 25L40 24L39 24L39 25L38 25L38 23L36 23L36 24L34 24L34 26L33 26L33 25L32 25L32 23L34 23L34 22L36 22L36 20L37 20L37 19L38 19L38 18L37 18L37 17L36 17L36 16L37 16L37 14L36 14L36 16L35 16L35 17L34 17L34 14ZM39 14L39 16L40 16L40 15L41 15L41 14ZM44 15L44 16L43 16L43 18L42 18L42 19L44 19L44 16L45 16L45 15ZM23 16L23 18L24 18L24 21L23 21L23 22L22 22L22 24L23 24L23 23L24 23L24 24L25 24L25 23L24 23L24 21L25 21L25 17L24 17L24 16ZM7 17L7 18L6 18L6 19L5 19L5 20L6 20L6 19L9 19L9 18L8 18L8 17ZM35 18L35 19L34 19L34 20L32 20L32 22L34 22L34 20L36 20L36 19L37 19L37 18ZM17 21L17 22L18 22L18 21ZM29 21L29 22L28 22L28 23L29 23L29 24L30 24L30 25L31 25L31 27L30 27L30 29L31 29L31 27L32 27L32 25L31 25L31 24L30 24L30 23L31 23L31 22L30 22L30 21ZM38 21L38 22L39 22L39 23L40 23L40 22L41 22L41 21L40 21L40 22L39 22L39 21ZM6 22L6 23L7 23L7 22ZM47 22L47 24L49 24L49 23L50 23L50 22L49 22L49 23L48 23L48 22ZM16 23L16 25L17 25L17 23ZM41 23L41 24L42 24L42 23ZM45 23L45 24L46 24L46 23ZM36 24L36 25L37 25L37 26L38 26L38 25L37 25L37 24ZM1 25L1 27L3 27L3 28L4 28L4 26L2 26L2 25ZM5 25L5 28L8 28L8 25ZM21 25L21 26L20 26L20 27L21 27L21 26L23 26L23 25ZM25 25L25 28L28 28L28 25ZM45 25L45 28L48 28L48 25ZM6 26L6 27L7 27L7 26ZM26 26L26 27L27 27L27 26ZM46 26L46 27L47 27L47 26ZM22 27L22 28L23 28L23 29L22 29L22 30L21 30L21 31L18 31L18 32L19 32L19 33L18 33L18 34L19 34L19 38L21 38L21 37L22 37L22 38L23 38L23 37L22 37L22 34L24 34L24 31L26 31L26 32L27 32L27 29L25 29L25 30L24 30L24 27ZM50 27L50 28L51 28L51 27ZM1 29L1 30L3 30L3 29ZM48 29L48 30L47 30L47 32L48 32L48 30L49 30L49 31L50 31L50 30L51 30L51 29L50 29L50 30L49 30L49 29ZM23 30L23 31L22 31L22 32L23 32L23 31L24 31L24 30ZM31 30L31 31L32 31L32 30ZM45 30L45 31L46 31L46 30ZM20 32L20 33L21 33L21 32ZM37 32L37 33L38 33L38 32ZM45 32L45 33L46 33L46 32ZM28 33L28 34L29 34L29 33ZM48 33L48 34L47 34L47 35L48 35L48 34L49 34L49 33ZM6 34L6 35L7 35L7 34ZM20 34L20 35L21 35L21 34ZM52 34L52 35L53 35L53 34ZM10 35L10 36L11 36L11 37L10 37L10 38L8 38L8 39L7 39L7 40L6 40L6 41L7 41L7 40L9 40L9 39L10 39L10 38L12 38L12 35ZM8 36L8 37L9 37L9 36ZM26 38L26 39L27 39L27 38ZM51 38L51 39L50 39L50 40L52 40L52 38ZM11 39L11 40L12 40L12 39ZM15 39L15 40L16 40L16 41L17 41L17 39ZM20 39L20 40L21 40L21 39ZM33 39L33 40L34 40L34 39ZM48 39L48 40L49 40L49 39ZM11 41L11 42L12 42L12 41ZM48 41L48 42L47 42L47 44L49 44L49 43L48 43L48 42L50 42L50 41ZM2 42L2 43L3 43L3 42ZM26 42L26 44L27 44L27 42ZM24 43L24 44L23 44L23 45L24 45L24 44L25 44L25 43ZM6 44L6 45L7 45L7 44ZM25 45L25 48L28 48L28 45ZM45 45L45 48L48 48L48 45ZM49 45L49 46L50 46L50 45ZM26 46L26 47L27 47L27 46ZM30 46L30 47L31 47L31 46ZM40 46L40 48L41 48L41 49L42 49L42 50L41 50L41 51L42 51L42 52L43 52L43 51L44 51L44 50L45 50L45 51L46 51L46 49L44 49L44 48L43 48L43 47L42 47L42 46ZM46 46L46 47L47 47L47 46ZM41 47L41 48L42 48L42 49L43 49L43 50L44 50L44 49L43 49L43 48L42 48L42 47ZM20 48L20 49L21 49L21 48ZM13 49L13 50L15 50L15 49ZM16 50L16 51L17 51L17 50ZM23 50L23 51L22 51L22 52L23 52L23 51L24 51L24 50ZM30 51L30 52L31 52L31 51ZM38 51L38 52L39 52L39 51ZM52 52L52 53L53 53L53 52ZM0 0L0 7L7 7L7 0ZM1 1L1 6L6 6L6 1ZM2 2L2 5L5 5L5 2ZM46 0L46 7L53 7L53 0ZM47 1L47 6L52 6L52 1ZM48 2L48 5L51 5L51 2ZM0 46L0 53L7 53L7 46ZM1 47L1 52L6 52L6 47ZM2 48L2 51L5 51L5 48Z" fill="#000000"/></g></g></svg>
