<?xml version="1.0" encoding="UTF-8"?>
<svg xmlns="http://www.w3.org/2000/svg" version="1.1" width="356" height="356" viewBox="0 0 356 356"><rect x="0" y="0" width="356" height="356" fill="#ffffff"/><g transform="scale(6.717)"><g transform="translate(0,0)"><path fill-rule="evenodd" d="M8 0L8 2L9 2L9 3L11 3L11 4L12 4L12 5L10 5L10 9L9 9L9 4L8 4L8 9L9 9L9 13L8 13L8 10L6 10L6 9L7 9L7 8L5 8L5 10L4 10L4 9L3 9L3 8L0 8L0 9L2 9L2 10L0 10L0 11L1 11L1 14L2 14L2 16L3 16L3 17L1 17L1 16L0 16L0 20L1 20L1 21L0 21L0 28L4 28L4 29L10 29L10 30L8 30L8 31L7 31L7 30L2 30L2 29L1 29L1 30L0 30L0 32L1 32L1 33L2 33L2 36L1 36L1 35L0 35L0 37L1 37L1 38L0 38L0 40L3 40L3 41L0 41L0 43L1 43L1 44L3 44L3 45L4 45L4 44L3 44L3 43L8 43L8 36L6 36L6 35L7 35L7 34L6 34L6 33L7 33L7 32L8 32L8 33L9 33L9 34L8 34L8 35L9 35L9 36L10 36L10 33L13 33L13 31L12 31L12 32L11 32L11 28L12 28L12 29L13 29L13 30L16 30L16 32L15 32L15 31L14 31L14 32L15 32L15 34L11 34L11 37L12 37L12 38L13 38L13 42L12 42L12 43L13 43L13 42L14 42L14 43L15 43L15 42L14 42L14 41L15 41L15 40L16 40L16 41L17 41L17 39L15 39L15 38L16 38L16 36L17 36L17 35L16 35L16 34L18 34L18 38L19 38L19 39L18 39L18 40L19 40L19 43L18 43L18 42L16 42L16 43L18 43L18 45L19 45L19 46L17 46L17 47L16 47L16 44L15 44L15 46L13 46L13 45L14 45L14 44L12 44L12 45L11 45L11 44L10 44L10 43L9 43L9 45L8 45L8 44L6 44L6 45L8 45L8 46L9 46L9 47L8 47L8 48L9 48L9 50L8 50L8 53L10 53L10 52L9 52L9 50L10 50L10 51L11 51L11 50L12 50L12 51L13 51L13 50L15 50L15 52L12 52L12 53L16 53L16 52L18 52L18 53L20 53L20 52L18 52L18 49L19 49L19 48L20 48L20 49L21 49L21 48L20 48L20 47L21 47L21 46L23 46L23 47L22 47L22 48L23 48L23 51L22 51L22 50L20 50L20 51L22 51L22 53L23 53L23 52L24 52L24 53L25 53L25 52L24 52L24 49L25 49L25 50L26 50L26 49L28 49L28 50L29 50L29 51L30 51L30 52L28 52L28 51L26 51L26 53L27 53L27 52L28 52L28 53L30 53L30 52L31 52L31 51L32 51L32 53L33 53L33 52L34 52L34 53L35 53L35 52L36 52L36 53L39 53L39 52L38 52L38 51L40 51L40 53L44 53L44 51L45 51L45 53L46 53L46 51L47 51L47 49L48 49L48 51L49 51L49 50L50 50L50 51L51 51L51 50L50 50L50 49L49 49L49 48L50 48L50 46L52 46L52 47L51 47L51 49L52 49L52 47L53 47L53 45L52 45L52 44L53 44L53 42L52 42L52 44L50 44L50 42L51 42L51 41L52 41L52 40L53 40L53 37L52 37L52 40L50 40L50 39L51 39L51 37L50 37L50 34L51 34L51 33L50 33L50 34L48 34L48 33L46 33L46 32L47 32L47 30L48 30L48 32L50 32L50 31L51 31L51 32L52 32L52 33L53 33L53 29L52 29L52 27L53 27L53 26L52 26L52 27L51 27L51 25L53 25L53 22L52 22L52 23L51 23L51 21L53 21L53 18L52 18L52 20L51 20L51 21L50 21L50 18L49 18L49 20L48 20L48 17L50 17L50 16L49 16L49 15L51 15L51 14L52 14L52 16L53 16L53 10L52 10L52 9L53 9L53 8L51 8L51 9L50 9L50 10L49 10L49 8L45 8L45 6L44 6L44 9L43 9L43 8L42 8L42 7L43 7L43 3L44 3L44 4L45 4L45 3L44 3L44 1L43 1L43 0L42 0L42 2L41 2L41 4L40 4L40 2L39 2L39 1L41 1L41 0L36 0L36 2L35 2L35 0L34 0L34 1L33 1L33 0L32 0L32 2L35 2L35 4L34 4L34 3L33 3L33 4L34 4L34 5L32 5L32 9L31 9L31 10L33 10L33 11L32 11L32 13L33 13L33 14L32 14L32 18L31 18L31 20L32 20L32 21L31 21L31 22L30 22L30 21L28 21L28 20L30 20L30 16L31 16L31 14L30 14L30 13L29 13L29 14L28 14L28 15L27 15L27 12L28 12L28 11L29 11L29 12L31 12L31 11L30 11L30 8L29 8L29 4L30 4L30 5L31 5L31 4L30 4L30 3L31 3L31 2L30 2L30 1L31 1L31 0L30 0L30 1L29 1L29 2L30 2L30 3L29 3L29 4L28 4L28 0L27 0L27 2L26 2L26 0L24 0L24 1L23 1L23 0L22 0L22 2L20 2L20 1L21 1L21 0L18 0L18 1L16 1L16 2L18 2L18 1L19 1L19 4L20 4L20 5L18 5L18 3L15 3L15 5L16 5L16 7L17 7L17 6L18 6L18 8L19 8L19 12L18 12L18 10L16 10L16 11L17 11L17 12L18 12L18 14L16 14L16 12L15 12L15 10L14 10L14 9L15 9L15 8L14 8L14 7L15 7L15 6L14 6L14 7L13 7L13 6L12 6L12 5L13 5L13 1L15 1L15 0L10 0L10 1L9 1L9 0ZM10 1L10 2L11 2L11 1ZM24 1L24 2L23 2L23 3L22 3L22 4L21 4L21 5L20 5L20 6L19 6L19 8L20 8L20 6L21 6L21 7L22 7L22 6L23 6L23 7L24 7L24 4L25 4L25 3L26 3L26 2L25 2L25 1ZM38 2L38 3L36 3L36 4L37 4L37 5L36 5L36 6L35 6L35 7L34 7L34 6L33 6L33 9L34 9L34 10L35 10L35 9L36 9L36 8L37 8L37 9L38 9L38 11L39 11L39 13L38 13L38 15L39 15L39 14L40 14L40 16L39 16L39 17L38 17L38 16L37 16L37 13L36 13L36 12L37 12L37 11L35 11L35 13L34 13L34 11L33 11L33 13L34 13L34 14L33 14L33 17L34 17L34 19L33 19L33 18L32 18L32 20L33 20L33 21L32 21L32 23L31 23L31 25L30 25L30 26L29 26L29 27L30 27L30 28L29 28L29 29L27 29L27 31L26 31L26 32L25 32L25 34L26 34L26 35L25 35L25 37L26 37L26 38L24 38L24 39L22 39L22 40L23 40L23 41L22 41L22 42L20 42L20 43L22 43L22 42L23 42L23 41L24 41L24 39L25 39L25 41L26 41L26 40L27 40L27 42L26 42L26 44L27 44L27 42L29 42L29 41L28 41L28 40L29 40L29 36L30 36L30 34L31 34L31 37L30 37L30 38L31 38L31 39L30 39L30 40L31 40L31 41L30 41L30 42L31 42L31 45L30 45L30 44L29 44L29 43L28 43L28 44L29 44L29 45L30 45L30 50L32 50L32 51L33 51L33 49L32 49L32 48L34 48L34 50L35 50L35 51L36 51L36 52L37 52L37 49L38 49L38 50L39 50L39 49L40 49L40 50L41 50L41 52L42 52L42 51L44 51L44 50L45 50L45 49L42 49L42 50L41 50L41 49L40 49L40 47L41 47L41 46L40 46L40 47L39 47L39 45L40 45L40 44L42 44L42 48L43 48L43 44L42 44L42 43L44 43L44 42L43 42L43 40L44 40L44 41L45 41L45 40L46 40L46 41L48 41L48 42L47 42L47 44L49 44L49 43L48 43L48 42L50 42L50 41L48 41L48 40L49 40L49 39L50 39L50 37L49 37L49 36L48 36L48 34L47 34L47 36L48 36L48 38L49 38L49 39L48 39L48 40L46 40L46 38L47 38L47 37L45 37L45 36L46 36L46 33L45 33L45 34L44 34L44 33L42 33L42 32L44 32L44 31L42 31L42 32L41 32L41 31L40 31L40 30L41 30L41 29L40 29L40 28L42 28L42 26L43 26L43 25L44 25L44 24L45 24L45 23L47 23L47 24L49 24L49 23L50 23L50 25L49 25L49 27L50 27L50 28L49 28L49 29L48 29L48 30L49 30L49 31L50 31L50 30L51 30L51 29L50 29L50 28L51 28L51 27L50 27L50 25L51 25L51 23L50 23L50 22L48 22L48 20L46 20L46 22L45 22L45 17L46 17L46 19L47 19L47 17L46 17L46 15L45 15L45 17L44 17L44 14L45 14L45 13L44 13L44 12L46 12L46 14L47 14L47 13L48 13L48 15L49 15L49 13L50 13L50 14L51 14L51 13L50 13L50 12L51 12L51 11L52 11L52 10L50 10L50 12L49 12L49 13L48 13L48 12L46 12L46 11L44 11L44 12L43 12L43 11L42 11L42 10L43 10L43 9L42 9L42 8L41 8L41 9L42 9L42 10L41 10L41 11L40 11L40 9L38 9L38 8L39 8L39 7L40 7L40 6L39 6L39 7L38 7L38 3L39 3L39 2ZM42 2L42 3L43 3L43 2ZM23 3L23 4L22 4L22 5L23 5L23 4L24 4L24 3ZM39 4L39 5L40 5L40 4ZM25 5L25 8L28 8L28 5ZM41 5L41 7L42 7L42 5ZM11 6L11 7L12 7L12 6ZM26 6L26 7L27 7L27 6ZM30 6L30 7L31 7L31 6ZM36 6L36 7L37 7L37 8L38 8L38 7L37 7L37 6ZM12 8L12 10L13 10L13 8ZM16 8L16 9L17 9L17 8ZM21 8L21 10L20 10L20 11L22 11L22 12L23 12L23 14L22 14L22 15L21 15L21 16L22 16L22 15L23 15L23 14L24 14L24 13L25 13L25 15L24 15L24 21L22 21L22 20L23 20L23 19L22 19L22 18L21 18L21 17L20 17L20 14L21 14L21 12L20 12L20 14L19 14L19 15L18 15L18 16L19 16L19 17L18 17L18 18L19 18L19 20L21 20L21 21L20 21L20 22L19 22L19 21L18 21L18 19L17 19L17 18L16 18L16 19L17 19L17 20L16 20L16 23L14 23L14 24L15 24L15 25L14 25L14 26L15 26L15 28L16 28L16 30L21 30L21 31L18 31L18 32L19 32L19 33L18 33L18 34L19 34L19 38L20 38L20 39L19 39L19 40L20 40L20 39L21 39L21 37L22 37L22 36L23 36L23 37L24 37L24 36L23 36L23 35L20 35L20 34L24 34L24 31L25 31L25 30L26 30L26 29L25 29L25 30L24 30L24 29L23 29L23 30L21 30L21 28L19 28L19 29L18 29L18 28L17 28L17 27L18 27L18 26L19 26L19 24L20 24L20 22L21 22L21 21L22 21L22 24L23 24L23 22L24 22L24 21L27 21L27 20L28 20L28 17L27 17L27 18L26 18L26 19L25 19L25 15L26 15L26 16L27 16L27 15L26 15L26 13L25 13L25 11L26 11L26 12L27 12L27 11L28 11L28 10L29 10L29 9L28 9L28 10L26 10L26 9L25 9L25 11L24 11L24 12L23 12L23 11L22 11L22 10L23 10L23 9L24 9L24 8L23 8L23 9L22 9L22 8ZM10 9L10 10L11 10L11 9ZM44 9L44 10L45 10L45 9ZM46 9L46 10L47 10L47 11L48 11L48 9ZM3 10L3 12L2 12L2 13L3 13L3 16L4 16L4 17L3 17L3 18L7 18L7 19L6 19L6 20L4 20L4 22L1 22L1 24L2 24L2 25L1 25L1 27L2 27L2 25L3 25L3 24L5 24L5 21L6 21L6 22L7 22L7 23L6 23L6 24L8 24L8 23L9 23L9 21L10 21L10 24L12 24L12 27L13 27L13 28L14 28L14 27L13 27L13 24L12 24L12 23L11 23L11 22L13 22L13 20L12 20L12 21L11 21L11 20L8 20L8 21L6 21L6 20L7 20L7 19L9 19L9 18L7 18L7 17L5 17L5 16L4 16L4 13L3 13L3 12L4 12L4 10ZM5 11L5 15L6 15L6 16L8 16L8 15L6 15L6 14L8 14L8 13L6 13L6 12L7 12L7 11ZM10 11L10 12L13 12L13 11ZM41 11L41 12L40 12L40 14L41 14L41 15L43 15L43 14L44 14L44 13L43 13L43 14L42 14L42 13L41 13L41 12L42 12L42 11ZM9 13L9 16L11 16L11 17L10 17L10 19L11 19L11 18L12 18L12 17L13 17L13 19L14 19L14 20L15 20L15 19L14 19L14 18L15 18L15 16L14 16L14 15L16 15L16 14L13 14L13 16L12 16L12 15L11 15L11 14L12 14L12 13ZM35 13L35 14L34 14L34 17L35 17L35 16L36 16L36 17L37 17L37 18L35 18L35 19L34 19L34 21L33 21L33 22L34 22L34 23L32 23L32 25L31 25L31 26L30 26L30 27L31 27L31 28L30 28L30 29L29 29L29 30L28 30L28 31L27 31L27 32L26 32L26 34L27 34L27 35L26 35L26 37L28 37L28 34L27 34L27 33L28 33L28 31L29 31L29 30L30 30L30 29L31 29L31 30L32 30L32 29L33 29L33 30L34 30L34 32L32 32L32 33L33 33L33 35L32 35L32 37L33 37L33 35L34 35L34 32L35 32L35 36L34 36L34 37L35 37L35 38L36 38L36 42L35 42L35 44L33 44L33 43L34 43L34 41L35 41L35 39L34 39L34 40L33 40L33 38L32 38L32 46L31 46L31 48L32 48L32 46L33 46L33 47L35 47L35 50L36 50L36 49L37 49L37 48L38 48L38 49L39 49L39 48L38 48L38 47L36 47L36 45L37 45L37 44L38 44L38 43L37 43L37 40L38 40L38 41L39 41L39 43L42 43L42 39L38 39L38 37L39 37L39 38L42 38L42 36L43 36L43 38L44 38L44 36L45 36L45 35L44 35L44 34L42 34L42 33L41 33L41 32L40 32L40 33L39 33L39 34L38 34L38 33L37 33L37 32L38 32L38 31L39 31L39 30L38 30L38 28L39 28L39 26L38 26L38 25L39 25L39 24L40 24L40 26L42 26L42 19L41 19L41 18L42 18L42 17L43 17L43 19L44 19L44 17L43 17L43 16L42 16L42 17L41 17L41 16L40 16L40 17L41 17L41 18L40 18L40 23L39 23L39 22L38 22L38 21L39 21L39 19L38 19L38 17L37 17L37 16L36 16L36 15L35 15L35 14L36 14L36 13ZM29 15L29 16L30 16L30 15ZM20 18L20 19L21 19L21 20L22 20L22 19L21 19L21 18ZM2 19L2 20L3 20L3 19ZM35 19L35 21L34 21L34 22L36 22L36 24L34 24L34 26L33 26L33 25L32 25L32 28L31 28L31 29L32 29L32 28L33 28L33 29L34 29L34 30L36 30L36 27L37 27L37 28L38 28L38 27L37 27L37 25L36 25L36 24L37 24L37 23L38 23L38 24L39 24L39 23L38 23L38 22L37 22L37 21L36 21L36 20L37 20L37 19ZM43 20L43 23L44 23L44 20ZM17 21L17 22L18 22L18 21ZM25 22L25 23L24 23L24 24L25 24L25 23L26 23L26 24L28 24L28 23L26 23L26 22ZM47 22L47 23L48 23L48 22ZM2 23L2 24L3 24L3 23ZM16 23L16 25L17 25L17 23ZM18 23L18 24L19 24L19 23ZM5 25L5 28L8 28L8 25ZM21 25L21 26L20 26L20 27L22 27L22 28L23 28L23 27L22 27L22 26L23 26L23 25ZM25 25L25 28L28 28L28 25ZM35 25L35 26L34 26L34 27L33 27L33 28L34 28L34 27L36 27L36 25ZM45 25L45 28L48 28L48 25ZM6 26L6 27L7 27L7 26ZM10 26L10 27L9 27L9 28L11 28L11 26ZM16 26L16 27L17 27L17 26ZM26 26L26 27L27 27L27 26ZM46 26L46 27L47 27L47 26ZM43 27L43 28L44 28L44 27ZM42 29L42 30L45 30L45 31L46 31L46 30L47 30L47 29L46 29L46 30L45 30L45 29ZM49 29L49 30L50 30L50 29ZM23 30L23 31L22 31L22 32L23 32L23 31L24 31L24 30ZM1 31L1 32L4 32L4 34L5 34L5 35L6 35L6 34L5 34L5 33L6 33L6 32L7 32L7 31L5 31L5 32L4 32L4 31ZM20 32L20 33L21 33L21 32ZM29 32L29 34L30 34L30 33L31 33L31 32ZM40 33L40 34L41 34L41 35L40 35L40 36L39 36L39 35L38 35L38 36L39 36L39 37L40 37L40 36L41 36L41 35L42 35L42 34L41 34L41 33ZM52 34L52 35L53 35L53 34ZM3 35L3 37L2 37L2 39L3 39L3 40L5 40L5 42L7 42L7 41L6 41L6 40L7 40L7 39L6 39L6 38L7 38L7 37L6 37L6 36L4 36L4 35ZM13 35L13 36L12 36L12 37L14 37L14 38L15 38L15 37L14 37L14 36L15 36L15 35ZM36 35L36 36L35 36L35 37L36 37L36 36L37 36L37 35ZM4 37L4 39L5 39L5 37ZM26 38L26 39L27 39L27 38ZM11 39L11 40L10 40L10 41L12 41L12 39ZM14 39L14 40L15 40L15 39ZM44 39L44 40L45 40L45 39ZM40 41L40 42L41 42L41 41ZM2 42L2 43L3 43L3 42ZM24 42L24 43L25 43L25 42ZM45 42L45 43L46 43L46 42ZM36 43L36 44L35 44L35 45L34 45L34 46L35 46L35 45L36 45L36 44L37 44L37 43ZM19 44L19 45L20 45L20 46L21 46L21 45L22 45L22 44ZM9 45L9 46L10 46L10 47L9 47L9 48L10 48L10 47L11 47L11 48L12 48L12 50L13 50L13 48L14 48L14 49L15 49L15 48L16 48L16 47L13 47L13 46L11 46L11 45ZM23 45L23 46L24 46L24 45ZM25 45L25 48L28 48L28 45ZM45 45L45 48L48 48L48 45ZM49 45L49 46L50 46L50 45ZM26 46L26 47L27 47L27 46ZM46 46L46 47L47 47L47 46ZM18 47L18 48L19 48L19 47ZM10 49L10 50L11 50L11 49ZM16 50L16 51L17 51L17 50ZM47 52L47 53L49 53L49 52ZM52 52L52 53L53 53L53 52ZM0 0L0 7L7 7L7 0ZM1 1L1 6L6 6L6 1ZM2 2L2 5L5 5L5 2ZM46 0L46 7L53 7L53 0ZM47 1L47 6L52 6L52 1ZM48 2L48 5L51 5L51 2ZM0 46L0 53L7 53L7 46ZM1 47L1 52L6 52L6 47ZM2 48L2 51L5 51L5 48Z" fill="#000000"/></g></g></svg>
