<?xml version="1.0" encoding="UTF-8"?>
<svg xmlns="http://www.w3.org/2000/svg" version="1.1" width="356" height="356" viewBox="0 0 356 356"><rect x="0" y="0" width="356" height="356" fill="#ffffff"/><g transform="scale(6.717)"><g transform="translate(0,0)"><path fill-rule="evenodd" d="M8 0L8 2L10 2L10 3L9 3L9 4L8 4L8 9L7 9L7 8L5 8L5 9L4 9L4 10L1 10L1 9L3 9L3 8L0 8L0 10L1 10L1 11L0 11L0 12L1 12L1 14L3 14L3 13L4 13L4 14L5 14L5 15L7 15L7 14L5 14L5 13L4 13L4 12L6 12L6 13L8 13L8 14L10 14L10 13L11 13L11 12L12 12L12 14L11 14L11 15L9 15L9 17L11 17L11 15L12 15L12 16L13 16L13 15L12 15L12 14L16 14L16 15L14 15L14 16L15 16L15 18L14 18L14 19L13 19L13 17L12 17L12 19L11 19L11 18L10 18L10 19L9 19L9 18L8 18L8 17L7 17L7 16L5 16L5 17L7 17L7 18L6 18L6 19L7 19L7 20L5 20L5 18L1 18L1 17L4 17L4 15L1 15L1 17L0 17L0 18L1 18L1 19L2 19L2 20L1 20L1 21L0 21L0 26L1 26L1 23L2 23L2 24L4 24L4 25L2 25L2 26L4 26L4 29L3 29L3 28L2 28L2 27L0 27L0 28L1 28L1 29L0 29L0 39L1 39L1 41L0 41L0 43L1 43L1 44L3 44L3 45L4 45L4 44L3 44L3 43L7 43L7 44L6 44L6 45L7 45L7 44L9 44L9 45L8 45L8 46L9 46L9 45L10 45L10 47L8 47L8 48L10 48L10 49L9 49L9 50L8 50L8 53L9 53L9 50L10 50L10 49L11 49L11 45L12 45L12 44L11 44L11 43L12 43L12 40L11 40L11 39L12 39L12 37L10 37L10 36L8 36L8 34L9 34L9 35L10 35L10 34L12 34L12 33L11 33L11 32L10 32L10 31L12 31L12 32L13 32L13 31L12 31L12 30L16 30L16 32L15 32L15 31L14 31L14 32L15 32L15 34L13 34L13 35L15 35L15 36L14 36L14 37L15 37L15 38L13 38L13 43L14 43L14 45L13 45L13 47L12 47L12 50L11 50L11 51L10 51L10 52L12 52L12 53L13 53L13 52L14 52L14 51L13 51L13 52L12 52L12 50L15 50L15 53L16 53L16 52L18 52L18 53L19 53L19 52L18 52L18 49L19 49L19 48L18 48L18 47L20 47L20 49L21 49L21 47L20 47L20 45L19 45L19 44L21 44L21 43L20 43L20 42L22 42L22 45L21 45L21 46L22 46L22 45L24 45L24 46L23 46L23 47L22 47L22 48L23 48L23 49L24 49L24 50L23 50L23 52L22 52L22 50L20 50L20 51L21 51L21 52L20 52L20 53L21 53L21 52L22 52L22 53L23 53L23 52L24 52L24 53L26 53L26 52L24 52L24 50L26 50L26 49L31 49L31 48L32 48L32 49L33 49L33 52L32 52L32 50L31 50L31 52L30 52L30 51L29 51L29 50L28 50L28 53L31 53L31 52L32 52L32 53L34 53L34 52L36 52L36 53L37 53L37 52L38 52L38 53L39 53L39 51L40 51L40 53L42 53L42 52L43 52L43 53L45 53L45 52L46 52L46 53L49 53L49 52L50 52L50 51L51 51L51 50L50 50L50 49L49 49L49 48L50 48L50 46L52 46L52 47L51 47L51 48L52 48L52 47L53 47L53 46L52 46L52 44L53 44L53 42L52 42L52 44L50 44L50 43L48 43L48 41L49 41L49 42L50 42L50 41L51 41L51 40L50 40L50 39L51 39L51 36L50 36L50 34L51 34L51 33L49 33L49 35L48 35L48 33L47 33L47 32L46 32L46 31L47 31L47 30L48 30L48 32L50 32L50 31L51 31L51 30L50 30L50 29L52 29L52 31L53 31L53 29L52 29L52 27L53 27L53 26L52 26L52 27L51 27L51 28L50 28L50 27L49 27L49 25L50 25L50 23L51 23L51 25L52 25L52 23L53 23L53 22L52 22L52 21L53 21L53 18L52 18L52 20L51 20L51 21L49 21L49 19L48 19L48 17L49 17L49 18L50 18L50 19L51 19L51 18L50 18L50 16L49 16L49 15L51 15L51 14L52 14L52 16L51 16L51 17L52 17L52 16L53 16L53 14L52 14L52 13L53 13L53 10L52 10L52 9L53 9L53 8L51 8L51 10L50 10L50 9L49 9L49 8L45 8L45 6L44 6L44 7L43 7L43 3L44 3L44 4L45 4L45 3L44 3L44 1L43 1L43 0L42 0L42 1L41 1L41 0L38 0L38 1L39 1L39 3L38 3L38 2L37 2L37 0L36 0L36 3L35 3L35 4L34 4L34 2L35 2L35 0L34 0L34 1L33 1L33 0L32 0L32 2L33 2L33 4L32 4L32 9L31 9L31 10L30 10L30 8L29 8L29 4L28 4L28 3L30 3L30 5L31 5L31 2L30 2L30 1L31 1L31 0L30 0L30 1L29 1L29 0L28 0L28 1L27 1L27 2L26 2L26 0L24 0L24 2L25 2L25 3L24 3L24 7L23 7L23 5L22 5L22 3L23 3L23 1L22 1L22 0L18 0L18 1L16 1L16 2L18 2L18 1L19 1L19 4L20 4L20 5L18 5L18 3L15 3L15 2L14 2L14 3L15 3L15 5L16 5L16 7L17 7L17 6L18 6L18 8L19 8L19 12L18 12L18 10L16 10L16 11L17 11L17 12L18 12L18 14L16 14L16 12L15 12L15 10L14 10L14 9L15 9L15 8L14 8L14 7L15 7L15 6L14 6L14 7L13 7L13 6L12 6L12 7L11 7L11 6L10 6L10 5L12 5L12 2L13 2L13 1L15 1L15 0L12 0L12 1L11 1L11 2L10 2L10 1L9 1L9 0ZM20 1L20 2L21 2L21 1ZM28 1L28 2L29 2L29 1ZM40 1L40 4L39 4L39 5L38 5L38 3L36 3L36 4L35 4L35 5L36 5L36 4L37 4L37 7L36 7L36 6L35 6L35 7L34 7L34 6L33 6L33 9L34 9L34 10L35 10L35 9L36 9L36 8L37 8L37 7L38 7L38 10L37 10L37 13L36 13L36 11L33 11L33 10L31 10L31 12L30 12L30 14L32 14L32 12L33 12L33 13L34 13L34 14L35 14L35 15L36 15L36 16L35 16L35 17L34 17L34 15L33 15L33 17L34 17L34 19L35 19L35 20L34 20L34 22L35 22L35 23L36 23L36 24L34 24L34 26L33 26L33 25L32 25L32 23L33 23L33 22L32 22L32 21L30 21L30 22L29 22L29 23L30 23L30 24L29 24L29 25L30 25L30 26L29 26L29 27L30 27L30 31L28 31L28 33L26 33L26 32L27 32L27 31L26 31L26 30L29 30L29 29L26 29L26 30L24 30L24 28L23 28L23 30L22 30L22 27L21 27L21 26L23 26L23 25L21 25L21 26L20 26L20 27L21 27L21 28L19 28L19 29L18 29L18 28L17 28L17 27L18 27L18 26L19 26L19 24L20 24L20 22L21 22L21 21L22 21L22 24L23 24L23 23L24 23L24 24L25 24L25 23L26 23L26 24L28 24L28 21L29 21L29 19L28 19L28 18L29 18L29 15L28 15L28 14L27 14L27 13L28 13L28 12L27 12L27 11L28 11L28 10L29 10L29 11L30 11L30 10L29 10L29 9L28 9L28 10L27 10L27 9L26 9L26 10L27 10L27 11L26 11L26 12L25 12L25 11L24 11L24 13L22 13L22 12L23 12L23 9L22 9L22 8L23 8L23 7L22 7L22 5L20 5L20 6L19 6L19 8L20 8L20 6L21 6L21 7L22 7L22 8L21 8L21 10L20 10L20 11L21 11L21 12L20 12L20 14L19 14L19 15L18 15L18 16L19 16L19 17L18 17L18 18L19 18L19 20L21 20L21 21L20 21L20 22L19 22L19 21L18 21L18 19L17 19L17 18L16 18L16 19L17 19L17 20L16 20L16 23L14 23L14 24L15 24L15 25L14 25L14 26L15 26L15 28L16 28L16 30L21 30L21 31L18 31L18 32L19 32L19 33L18 33L18 34L16 34L16 35L17 35L17 36L16 36L16 38L15 38L15 39L14 39L14 40L15 40L15 41L14 41L14 43L15 43L15 44L16 44L16 47L15 47L15 46L14 46L14 47L13 47L13 48L16 48L16 47L17 47L17 46L19 46L19 45L18 45L18 43L19 43L19 40L20 40L20 39L21 39L21 38L24 38L24 39L22 39L22 40L23 40L23 41L22 41L22 42L23 42L23 41L24 41L24 39L26 39L26 40L27 40L27 41L28 41L28 42L26 42L26 44L29 44L29 45L30 45L30 46L29 46L29 48L31 48L31 47L32 47L32 48L34 48L34 50L35 50L35 51L36 51L36 52L37 52L37 49L36 49L36 48L39 48L39 49L38 49L38 50L39 50L39 49L40 49L40 50L41 50L41 52L42 52L42 51L44 51L44 52L45 52L45 51L46 51L46 52L49 52L49 51L50 51L50 50L49 50L49 51L48 51L48 49L40 49L40 47L41 47L41 48L43 48L43 47L44 47L44 46L43 46L43 44L44 44L44 43L45 43L45 42L44 42L44 41L46 41L46 42L47 42L47 41L46 41L46 40L47 40L47 39L46 39L46 37L45 37L45 35L46 35L46 36L47 36L47 35L46 35L46 34L45 34L45 33L46 33L46 32L45 32L45 33L44 33L44 37L43 37L43 36L42 36L42 35L43 35L43 33L42 33L42 32L44 32L44 31L42 31L42 30L44 30L44 26L43 26L43 20L44 20L44 23L45 23L45 24L46 24L46 23L45 23L45 21L46 21L46 22L48 22L48 23L47 23L47 24L49 24L49 23L50 23L50 22L48 22L48 19L47 19L47 17L46 17L46 15L45 15L45 16L44 16L44 18L43 18L43 17L42 17L42 16L43 16L43 15L41 15L41 13L40 13L40 12L41 12L41 11L42 11L42 12L47 12L47 11L48 11L48 9L46 9L46 10L47 10L47 11L45 11L45 9L44 9L44 8L43 8L43 7L42 7L42 6L41 6L41 7L40 7L40 6L39 6L39 5L40 5L40 4L41 4L41 1ZM42 2L42 3L43 3L43 2ZM10 3L10 4L9 4L9 5L10 5L10 4L11 4L11 3ZM25 5L25 8L28 8L28 5ZM9 6L9 8L10 8L10 9L8 9L8 10L7 10L7 9L6 9L6 10L5 10L5 11L6 11L6 12L7 12L7 11L8 11L8 10L10 10L10 11L9 11L9 12L8 12L8 13L10 13L10 12L11 12L11 10L12 10L12 9L13 9L13 8L12 8L12 9L11 9L11 8L10 8L10 6ZM26 6L26 7L27 7L27 6ZM30 6L30 7L31 7L31 6ZM38 6L38 7L39 7L39 8L40 8L40 9L39 9L39 10L41 10L41 8L42 8L42 9L43 9L43 10L44 10L44 9L43 9L43 8L42 8L42 7L41 7L41 8L40 8L40 7L39 7L39 6ZM16 8L16 9L17 9L17 8ZM6 10L6 11L7 11L7 10ZM21 10L21 11L22 11L22 10ZM51 10L51 11L50 11L50 12L49 12L49 13L50 13L50 14L51 14L51 13L50 13L50 12L51 12L51 11L52 11L52 10ZM13 11L13 12L14 12L14 11ZM2 12L2 13L3 13L3 12ZM26 12L26 13L27 13L27 12ZM38 12L38 13L37 13L37 14L38 14L38 13L39 13L39 15L40 15L40 13L39 13L39 12ZM35 13L35 14L36 14L36 13ZM42 13L42 14L43 14L43 13ZM44 13L44 14L45 14L45 13ZM46 13L46 14L47 14L47 13ZM20 14L20 17L21 17L21 18L20 18L20 19L21 19L21 20L22 20L22 21L23 21L23 22L24 22L24 21L25 21L25 22L27 22L27 20L28 20L28 19L27 19L27 20L26 20L26 19L25 19L25 20L24 20L24 21L23 21L23 19L21 19L21 18L23 18L23 16L24 16L24 18L25 18L25 17L27 17L27 16L28 16L28 15L27 15L27 14L23 14L23 15L22 15L22 14ZM48 14L48 15L49 15L49 14ZM21 15L21 16L22 16L22 15ZM24 15L24 16L25 16L25 15ZM26 15L26 16L27 16L27 15ZM30 15L30 20L31 20L31 18L32 18L32 19L33 19L33 18L32 18L32 15ZM36 16L36 17L37 17L37 18L35 18L35 19L37 19L37 20L36 20L36 21L35 21L35 22L36 22L36 23L37 23L37 22L38 22L38 23L40 23L40 25L41 25L41 26L40 26L40 27L39 27L39 26L38 26L38 25L37 25L37 24L36 24L36 25L35 25L35 26L34 26L34 27L33 27L33 28L32 28L32 30L31 30L31 31L30 31L30 32L29 32L29 33L28 33L28 35L27 35L27 34L26 34L26 35L27 35L27 36L26 36L26 37L24 37L24 38L26 38L26 39L27 39L27 40L28 40L28 39L27 39L27 38L28 38L28 37L29 37L29 41L31 41L31 40L30 40L30 39L32 39L32 43L29 43L29 44L32 44L32 45L31 45L31 46L30 46L30 47L31 47L31 46L32 46L32 47L35 47L35 48L36 48L36 45L37 45L37 47L38 47L38 44L39 44L39 43L38 43L38 44L37 44L37 42L38 42L38 41L39 41L39 40L38 40L38 41L37 41L37 39L39 39L39 38L40 38L40 37L41 37L41 39L40 39L40 41L41 41L41 42L40 42L40 43L41 43L41 44L40 44L40 45L41 45L41 47L43 47L43 46L42 46L42 45L41 45L41 44L42 44L42 43L41 43L41 42L42 42L42 41L44 41L44 38L45 38L45 37L44 37L44 38L42 38L42 36L41 36L41 35L42 35L42 33L41 33L41 32L42 32L42 31L40 31L40 30L42 30L42 29L41 29L41 28L40 28L40 27L41 27L41 26L42 26L42 28L43 28L43 26L42 26L42 25L41 25L41 23L42 23L42 20L43 20L43 18L42 18L42 17L41 17L41 16L40 16L40 17L39 17L39 16L38 16L38 17L37 17L37 16ZM38 17L38 18L37 18L37 19L38 19L38 20L37 20L37 21L36 21L36 22L37 22L37 21L38 21L38 22L39 22L39 21L40 21L40 22L41 22L41 21L40 21L40 20L39 20L39 19L38 19L38 18L39 18L39 17ZM40 17L40 19L41 19L41 17ZM45 17L45 18L44 18L44 20L46 20L46 21L47 21L47 19L46 19L46 17ZM3 19L3 20L4 20L4 19ZM8 19L8 20L7 20L7 21L6 21L6 22L4 22L4 21L2 21L2 23L6 23L6 24L7 24L7 23L10 23L10 24L9 24L9 27L10 27L10 28L9 28L9 31L8 31L8 30L7 30L7 29L5 29L5 31L4 31L4 30L3 30L3 29L2 29L2 30L1 30L1 33L2 33L2 34L4 34L4 33L2 33L2 32L5 32L5 35L6 35L6 36L5 36L5 37L6 37L6 38L4 38L4 35L3 35L3 39L2 39L2 43L3 43L3 40L5 40L5 41L6 41L6 42L7 42L7 41L6 41L6 40L8 40L8 39L11 39L11 38L10 38L10 37L6 37L6 36L7 36L7 35L6 35L6 34L7 34L7 33L6 33L6 32L7 32L7 31L8 31L8 33L9 33L9 31L10 31L10 30L11 30L11 29L12 29L12 28L14 28L14 27L12 27L12 28L11 28L11 27L10 27L10 26L11 26L11 25L12 25L12 26L13 26L13 25L12 25L12 23L13 23L13 21L12 21L12 20L13 20L13 19L12 19L12 20L9 20L9 19ZM14 19L14 20L15 20L15 19ZM25 20L25 21L26 21L26 20ZM7 21L7 22L6 22L6 23L7 23L7 22L8 22L8 21ZM10 21L10 22L11 22L11 23L12 23L12 22L11 22L11 21ZM17 21L17 22L18 22L18 21ZM30 22L30 23L31 23L31 22ZM51 22L51 23L52 23L52 22ZM16 23L16 25L17 25L17 23ZM18 23L18 24L19 24L19 23ZM10 24L10 25L11 25L11 24ZM5 25L5 28L8 28L8 25ZM25 25L25 28L28 28L28 25ZM31 25L31 27L32 27L32 25ZM36 25L36 27L37 27L37 28L38 28L38 30L37 30L37 29L36 29L36 30L35 30L35 27L34 27L34 28L33 28L33 29L34 29L34 30L35 30L35 31L36 31L36 30L37 30L37 31L38 31L38 32L37 32L37 35L35 35L35 32L34 32L34 31L31 31L31 32L30 32L30 34L29 34L29 35L28 35L28 36L29 36L29 35L30 35L30 34L31 34L31 35L33 35L33 33L32 33L32 32L34 32L34 35L35 35L35 37L34 37L34 36L33 36L33 37L32 37L32 39L33 39L33 40L34 40L34 39L35 39L35 41L34 41L34 43L32 43L32 44L34 44L34 43L35 43L35 45L34 45L34 46L35 46L35 45L36 45L36 42L35 42L35 41L36 41L36 39L37 39L37 38L36 38L36 36L37 36L37 37L38 37L38 38L39 38L39 37L40 37L40 36L39 36L39 35L41 35L41 34L40 34L40 31L38 31L38 30L40 30L40 28L38 28L38 26L37 26L37 25ZM45 25L45 28L48 28L48 25ZM6 26L6 27L7 27L7 26ZM16 26L16 27L17 27L17 26ZM26 26L26 27L27 27L27 26ZM46 26L46 27L47 27L47 26ZM10 28L10 29L11 29L11 28ZM48 29L48 30L49 30L49 31L50 31L50 30L49 30L49 29ZM2 30L2 31L3 31L3 30ZM6 30L6 31L7 31L7 30ZM23 30L23 31L22 31L22 32L23 32L23 33L24 33L24 34L23 34L23 36L22 36L22 37L23 37L23 36L24 36L24 35L25 35L25 32L26 32L26 31L24 31L24 30ZM45 30L45 31L46 31L46 30ZM20 32L20 33L21 33L21 32ZM38 32L38 33L39 33L39 32ZM18 34L18 38L19 38L19 39L18 39L18 40L19 40L19 39L20 39L20 38L19 38L19 34ZM20 34L20 35L21 35L21 34ZM52 34L52 35L53 35L53 34ZM37 35L37 36L38 36L38 35ZM48 36L48 38L49 38L49 39L48 39L48 40L49 40L49 39L50 39L50 36ZM1 37L1 38L2 38L2 37ZM26 37L26 38L27 38L27 37ZM30 37L30 38L31 38L31 37ZM33 37L33 38L34 38L34 37ZM52 37L52 39L53 39L53 37ZM6 38L6 39L5 39L5 40L6 40L6 39L7 39L7 38ZM35 38L35 39L36 39L36 38ZM15 39L15 40L16 40L16 41L17 41L17 39ZM45 39L45 40L46 40L46 39ZM9 40L9 41L8 41L8 42L9 42L9 44L10 44L10 41L11 41L11 40ZM52 40L52 41L53 41L53 40ZM16 42L16 43L18 43L18 42ZM24 42L24 44L25 44L25 42ZM47 43L47 44L48 44L48 43ZM25 45L25 48L28 48L28 45ZM45 45L45 48L48 48L48 45ZM49 45L49 46L50 46L50 45ZM26 46L26 47L27 47L27 46ZM46 46L46 47L47 47L47 46ZM35 49L35 50L36 50L36 49ZM16 50L16 51L17 51L17 50ZM44 50L44 51L45 51L45 50ZM46 50L46 51L47 51L47 50ZM52 52L52 53L53 53L53 52ZM0 0L0 7L7 7L7 0ZM1 1L1 6L6 6L6 1ZM2 2L2 5L5 5L5 2ZM46 0L46 7L53 7L53 0ZM47 1L47 6L52 6L52 1ZM48 2L48 5L51 5L51 2ZM0 46L0 53L7 53L7 46ZM1 47L1 52L6 52L6 47ZM2 48L2 51L5 51L5 48Z" fill="#000000"/></g></g></svg>
