<?xml version="1.0" encoding="UTF-8"?>
<svg xmlns="http://www.w3.org/2000/svg" version="1.1" width="356" height="356" viewBox="0 0 356 356"><rect x="0" y="0" width="356" height="356" fill="#ffffff"/><g transform="scale(6.717)"><g transform="translate(0,0)"><path fill-rule="evenodd" d="M8 0L8 4L9 4L9 5L8 5L8 7L9 7L9 8L10 8L10 9L7 9L7 8L4 8L4 9L7 9L7 10L4 10L4 13L3 13L3 12L2 12L2 13L3 13L3 14L2 14L2 15L1 15L1 16L0 16L0 19L1 19L1 21L0 21L0 22L1 22L1 23L3 23L3 24L4 24L4 25L2 25L2 24L0 24L0 27L1 27L1 28L3 28L3 31L2 31L2 30L1 30L1 29L0 29L0 33L1 33L1 34L0 34L0 35L2 35L2 36L5 36L5 37L3 37L3 38L2 38L2 39L3 39L3 40L4 40L4 42L3 42L3 43L2 43L2 40L1 40L1 42L0 42L0 43L1 43L1 44L3 44L3 45L4 45L4 44L3 44L3 43L8 43L8 41L9 41L9 43L10 43L10 44L11 44L11 46L10 46L10 45L8 45L8 44L6 44L6 45L8 45L8 46L10 46L10 48L9 48L9 47L8 47L8 49L9 49L9 51L8 51L8 53L15 53L15 52L16 52L16 53L19 53L19 52L20 52L20 53L22 53L22 51L21 51L21 50L22 50L22 49L21 49L21 48L19 48L19 47L20 47L20 46L21 46L21 47L22 47L22 48L23 48L23 47L24 47L24 49L26 49L26 50L23 50L23 51L26 51L26 53L28 53L28 51L29 51L29 52L30 52L30 53L31 53L31 51L30 51L30 50L32 50L32 51L34 51L34 52L35 52L35 53L38 53L38 52L39 52L39 53L40 53L40 52L41 52L41 53L43 53L43 52L44 52L44 50L43 50L43 49L49 49L49 48L50 48L50 47L51 47L51 49L50 49L50 50L49 50L49 52L48 52L48 51L47 51L47 50L46 50L46 53L47 53L47 52L48 52L48 53L52 53L52 52L53 52L53 51L51 51L51 49L52 49L52 48L53 48L53 46L52 46L52 45L53 45L53 42L52 42L52 45L51 45L51 46L50 46L50 45L49 45L49 44L50 44L50 43L51 43L51 42L50 42L50 41L52 41L52 40L53 40L53 34L52 34L52 35L51 35L51 39L52 39L52 40L50 40L50 35L48 35L48 36L49 36L49 37L47 37L47 36L46 36L46 37L47 37L47 38L46 38L46 39L48 39L48 38L49 38L49 41L47 41L47 42L46 42L46 43L44 43L44 42L45 42L45 38L44 38L44 36L45 36L45 35L47 35L47 34L49 34L49 32L50 32L50 30L51 30L51 28L50 28L50 27L51 27L51 26L49 26L49 25L50 25L50 22L47 22L47 24L46 24L46 21L45 21L45 20L44 20L44 19L43 19L43 20L42 20L42 21L40 21L40 20L41 20L41 19L40 19L40 16L41 16L41 15L38 15L38 14L41 14L41 13L42 13L42 16L43 16L43 15L44 15L44 18L45 18L45 19L46 19L46 20L47 20L47 21L51 21L51 20L52 20L52 19L53 19L53 18L52 18L52 19L51 19L51 18L50 18L50 16L49 16L49 14L46 14L46 11L47 11L47 10L46 10L46 9L44 9L44 8L45 8L45 6L44 6L44 8L43 8L43 3L44 3L44 4L45 4L45 3L44 3L44 1L43 1L43 0L41 0L41 1L42 1L42 2L40 2L40 0L35 0L35 1L34 1L34 0L32 0L32 1L31 1L31 0L28 0L28 1L27 1L27 0L23 0L23 2L22 2L22 1L21 1L21 2L20 2L20 1L19 1L19 0L18 0L18 1L17 1L17 2L16 2L16 1L15 1L15 0L14 0L14 3L17 3L17 2L18 2L18 3L19 3L19 4L20 4L20 9L19 9L19 8L18 8L18 9L13 9L13 0L12 0L12 1L11 1L11 0L10 0L10 1L9 1L9 0ZM10 1L10 3L12 3L12 2L11 2L11 1ZM25 1L25 2L26 2L26 3L23 3L23 4L28 4L28 3L30 3L30 2L29 2L29 1L28 1L28 3L27 3L27 1ZM32 1L32 2L31 2L31 3L32 3L32 4L31 4L31 5L30 5L30 4L29 4L29 5L30 5L30 6L29 6L29 8L31 8L31 10L30 10L30 12L28 12L28 11L27 11L27 9L24 9L24 10L25 10L25 11L23 11L23 10L22 10L22 11L23 11L23 12L22 12L22 13L21 13L21 10L20 10L20 11L17 11L17 10L16 10L16 11L15 11L15 10L14 10L14 12L15 12L15 13L13 13L13 14L11 14L11 15L14 15L14 16L16 16L16 17L15 17L15 18L14 18L14 17L13 17L13 18L12 18L12 16L11 16L11 18L10 18L10 15L9 15L9 18L7 18L7 17L6 17L6 16L7 16L7 15L5 15L5 18L4 18L4 17L3 17L3 16L4 16L4 15L3 15L3 16L2 16L2 17L1 17L1 19L2 19L2 21L3 21L3 23L5 23L5 22L4 22L4 20L5 20L5 21L6 21L6 22L8 22L8 23L6 23L6 24L8 24L8 23L9 23L9 24L10 24L10 25L9 25L9 28L10 28L10 27L12 27L12 26L13 26L13 28L12 28L12 29L9 29L9 30L10 30L10 31L9 31L9 32L12 32L12 31L14 31L14 32L15 32L15 31L16 31L16 33L15 33L15 35L14 35L14 36L13 36L13 35L12 35L12 34L14 34L14 33L12 33L12 34L11 34L11 33L10 33L10 35L9 35L9 33L8 33L8 35L6 35L6 34L7 34L7 33L6 33L6 32L8 32L8 30L7 30L7 29L6 29L6 30L5 30L5 29L4 29L4 30L5 30L5 31L6 31L6 32L4 32L4 31L3 31L3 32L2 32L2 31L1 31L1 33L4 33L4 34L2 34L2 35L5 35L5 36L9 36L9 37L10 37L10 38L9 38L9 39L13 39L13 41L18 41L18 40L19 40L19 41L20 41L20 40L21 40L21 39L22 39L22 40L23 40L23 41L21 41L21 42L20 42L20 43L19 43L19 46L20 46L20 44L21 44L21 42L22 42L22 43L23 43L23 41L25 41L25 43L24 43L24 44L22 44L22 45L21 45L21 46L23 46L23 45L24 45L24 44L25 44L25 43L26 43L26 44L28 44L28 43L29 43L29 45L30 45L30 44L31 44L31 45L32 45L32 46L33 46L33 45L34 45L34 46L35 46L35 49L34 49L34 48L33 48L33 47L32 47L32 48L31 48L31 47L29 47L29 48L30 48L30 49L32 49L32 48L33 48L33 49L34 49L34 50L35 50L35 51L36 51L36 52L37 52L37 50L38 50L38 51L39 51L39 52L40 52L40 51L41 51L41 49L42 49L42 48L44 48L44 47L42 47L42 45L43 45L43 46L44 46L44 45L43 45L43 44L44 44L44 43L41 43L41 38L40 38L40 37L42 37L42 36L43 36L43 35L45 35L45 34L43 34L43 35L42 35L42 32L43 32L43 30L41 30L41 29L43 29L43 28L44 28L44 27L43 27L43 26L41 26L41 22L40 22L40 21L39 21L39 22L40 22L40 23L36 23L36 22L37 22L37 21L38 21L38 17L39 17L39 16L37 16L37 14L38 14L38 13L36 13L36 14L35 14L35 12L38 12L38 11L41 11L41 10L38 10L38 6L39 6L39 7L40 7L40 6L41 6L41 7L42 7L42 6L41 6L41 5L42 5L42 3L43 3L43 2L42 2L42 3L41 3L41 5L40 5L40 6L39 6L39 5L38 5L38 4L40 4L40 3L39 3L39 1L35 1L35 2L33 2L33 1ZM21 2L21 4L22 4L22 2ZM35 2L35 3L34 3L34 4L32 4L32 5L31 5L31 6L30 6L30 7L31 7L31 6L32 6L32 9L33 9L33 10L31 10L31 12L32 12L32 14L31 14L31 13L29 13L29 14L28 14L28 13L27 13L27 14L28 14L28 15L27 15L27 16L26 16L26 14L25 14L25 16L26 16L26 18L28 18L28 19L27 19L27 21L26 21L26 19L25 19L25 21L24 21L24 20L23 20L23 23L25 23L25 24L24 24L24 26L23 26L23 27L22 27L22 26L21 26L21 25L23 25L23 24L22 24L22 23L20 23L20 22L22 22L22 20L21 20L21 19L22 19L22 18L20 18L20 19L18 19L18 18L19 18L19 17L21 17L21 15L22 15L22 16L23 16L23 17L24 17L24 16L23 16L23 15L24 15L24 13L26 13L26 11L25 11L25 12L23 12L23 15L22 15L22 14L21 14L21 13L20 13L20 12L16 12L16 13L15 13L15 14L16 14L16 15L17 15L17 17L18 17L18 18L16 18L16 19L14 19L14 20L13 20L13 19L10 19L10 18L9 18L9 19L8 19L8 20L6 20L6 19L7 19L7 18L5 18L5 20L6 20L6 21L9 21L9 20L11 20L11 21L10 21L10 22L9 22L9 23L11 23L11 22L13 22L13 23L12 23L12 25L13 25L13 26L15 26L15 27L16 27L16 26L19 26L19 27L18 27L18 28L16 28L16 29L15 29L15 28L14 28L14 29L13 29L13 30L16 30L16 31L17 31L17 33L18 33L18 34L19 34L19 33L21 33L21 34L20 34L20 35L17 35L17 34L16 34L16 35L15 35L15 36L14 36L14 38L13 38L13 39L14 39L14 40L15 40L15 38L16 38L16 37L19 37L19 38L23 38L23 39L24 39L24 40L26 40L26 41L27 41L27 40L26 40L26 39L28 39L28 40L29 40L29 38L31 38L31 39L30 39L30 40L31 40L31 39L32 39L32 41L28 41L28 42L31 42L31 43L32 43L32 45L33 45L33 44L34 44L34 45L36 45L36 46L37 46L37 45L38 45L38 46L39 46L39 47L40 47L40 48L39 48L39 49L38 49L38 50L39 50L39 51L40 51L40 48L41 48L41 47L40 47L40 44L39 44L39 43L40 43L40 38L39 38L39 37L40 37L40 36L41 36L41 35L40 35L40 34L41 34L41 33L40 33L40 32L41 32L41 30L40 30L40 28L39 28L39 29L38 29L38 28L36 28L36 27L38 27L38 26L40 26L40 24L38 24L38 26L37 26L37 24L34 24L34 25L33 25L33 23L32 23L32 22L34 22L34 23L35 23L35 22L36 22L36 21L37 21L37 20L36 20L36 18L37 18L37 16L35 16L35 17L36 17L36 18L35 18L35 19L34 19L34 15L35 15L35 14L34 14L34 12L33 12L33 11L36 11L36 9L37 9L37 8L36 8L36 7L37 7L37 5L36 5L36 7L35 7L35 6L34 6L34 7L33 7L33 6L32 6L32 5L34 5L34 4L35 4L35 3L37 3L37 4L38 4L38 2ZM9 5L9 7L10 7L10 6L11 6L11 8L12 8L12 5ZM16 5L16 7L15 7L15 6L14 6L14 8L17 8L17 5ZM18 5L18 7L19 7L19 5ZM21 5L21 7L22 7L22 8L21 8L21 9L23 9L23 7L24 7L24 5L23 5L23 7L22 7L22 5ZM25 5L25 8L28 8L28 5ZM26 6L26 7L27 7L27 6ZM0 8L0 9L2 9L2 11L3 11L3 9L2 9L2 8ZM40 8L40 9L43 9L43 10L42 10L42 11L43 11L43 14L44 14L44 15L46 15L46 19L47 19L47 17L48 17L48 15L46 15L46 14L44 14L44 13L45 13L45 12L44 12L44 9L43 9L43 8ZM47 8L47 9L48 9L48 8ZM49 8L49 12L47 12L47 13L49 13L49 12L50 12L50 10L52 10L52 11L53 11L53 10L52 10L52 9L53 9L53 8ZM10 9L10 10L12 10L12 12L13 12L13 9ZM34 9L34 10L35 10L35 9ZM0 10L0 11L1 11L1 10ZM6 11L6 12L5 12L5 13L6 13L6 14L7 14L7 13L9 13L9 14L10 14L10 13L11 13L11 11L10 11L10 13L9 13L9 11ZM6 12L6 13L7 13L7 12ZM40 12L40 13L41 13L41 12ZM0 13L0 14L1 14L1 13ZM16 13L16 14L17 14L17 15L18 15L18 14L20 14L20 15L19 15L19 16L18 16L18 17L19 17L19 16L20 16L20 15L21 15L21 14L20 14L20 13ZM50 13L50 14L51 14L51 13ZM29 14L29 15L28 15L28 16L27 16L27 17L28 17L28 18L29 18L29 19L30 19L30 18L29 18L29 17L32 17L32 18L31 18L31 21L32 21L32 20L34 20L34 19L32 19L32 18L33 18L33 17L32 17L32 15L33 15L33 14L32 14L32 15L31 15L31 14ZM52 14L52 15L51 15L51 16L52 16L52 17L53 17L53 16L52 16L52 15L53 15L53 14ZM28 16L28 17L29 17L29 16ZM2 17L2 18L3 18L3 17ZM41 17L41 18L43 18L43 17ZM23 18L23 19L24 19L24 18ZM49 18L49 19L50 19L50 20L51 20L51 19L50 19L50 18ZM15 20L15 21L13 21L13 22L15 22L15 21L16 21L16 24L14 24L14 23L13 23L13 25L18 25L18 24L19 24L19 25L20 25L20 23L19 23L19 22L20 22L20 21L19 21L19 22L18 22L18 23L17 23L17 21L16 21L16 20ZM28 20L28 21L29 21L29 23L28 23L28 22L26 22L26 21L25 21L25 23L26 23L26 24L27 24L27 23L28 23L28 24L29 24L29 27L30 27L30 28L29 28L29 29L31 29L31 30L30 30L30 31L29 31L29 33L30 33L30 32L31 32L31 33L32 33L32 32L33 32L33 33L34 33L34 35L31 35L31 34L30 34L30 35L29 35L29 36L28 36L28 35L27 35L27 33L24 33L24 34L26 34L26 36L25 36L25 35L23 35L23 36L22 36L22 34L23 34L23 32L22 32L22 31L21 31L21 30L19 30L19 32L18 32L18 33L19 33L19 32L21 32L21 33L22 33L22 34L21 34L21 36L19 36L19 37L21 37L21 36L22 36L22 37L23 37L23 38L25 38L25 39L26 39L26 38L29 38L29 36L30 36L30 35L31 35L31 37L32 37L32 36L33 36L33 37L34 37L34 38L33 38L33 39L34 39L34 40L33 40L33 41L32 41L32 43L33 43L33 41L34 41L34 44L37 44L37 43L39 43L39 42L38 42L38 41L37 41L37 42L36 42L36 43L35 43L35 39L34 39L34 38L35 38L35 37L36 37L36 35L37 35L37 34L38 34L38 33L39 33L39 31L40 31L40 30L38 30L38 29L36 29L36 31L35 31L35 29L34 29L34 28L35 28L35 27L34 27L34 26L35 26L35 25L34 25L34 26L33 26L33 27L32 27L32 23L30 23L30 21L29 21L29 20ZM43 20L43 22L42 22L42 24L43 24L43 22L44 22L44 24L45 24L45 22L44 22L44 20ZM34 21L34 22L35 22L35 21ZM52 21L52 24L51 24L51 25L53 25L53 21ZM29 23L29 24L30 24L30 27L31 27L31 28L32 28L32 29L33 29L33 30L31 30L31 31L33 31L33 32L34 32L34 33L35 33L35 34L37 34L37 32L38 32L38 31L36 31L36 33L35 33L35 32L34 32L34 29L33 29L33 28L34 28L34 27L33 27L33 28L32 28L32 27L31 27L31 24L30 24L30 23ZM48 23L48 24L49 24L49 23ZM1 25L1 27L2 27L2 25ZM5 25L5 28L8 28L8 25ZM10 25L10 26L11 26L11 25ZM25 25L25 28L28 28L28 25ZM45 25L45 28L48 28L48 25ZM6 26L6 27L7 27L7 26ZM20 26L20 27L19 27L19 29L21 29L21 28L22 28L22 30L23 30L23 28L24 28L24 27L23 27L23 28L22 28L22 27L21 27L21 26ZM26 26L26 27L27 27L27 26ZM46 26L46 27L47 27L47 26ZM52 26L52 29L53 29L53 26ZM3 27L3 28L4 28L4 27ZM42 27L42 28L43 28L43 27ZM16 29L16 30L17 30L17 31L18 31L18 29ZM24 29L24 30L25 30L25 31L24 31L24 32L25 32L25 31L26 31L26 32L28 32L28 31L26 31L26 30L25 30L25 29ZM45 29L45 31L44 31L44 33L45 33L45 31L46 31L46 33L48 33L48 32L47 32L47 31L49 31L49 30L50 30L50 29L49 29L49 30L47 30L47 31L46 31L46 29ZM6 30L6 31L7 31L7 30ZM11 30L11 31L12 31L12 30ZM52 30L52 31L51 31L51 32L52 32L52 31L53 31L53 30ZM50 33L50 34L51 34L51 33ZM10 35L10 36L11 36L11 35ZM38 35L38 37L37 37L37 39L36 39L36 40L37 40L37 39L38 39L38 40L39 40L39 39L38 39L38 37L39 37L39 36L40 36L40 35ZM12 36L12 37L13 37L13 36ZM15 36L15 37L16 37L16 36ZM24 36L24 37L25 37L25 36ZM26 36L26 37L27 37L27 36ZM0 37L0 39L1 39L1 37ZM6 37L6 38L5 38L5 39L4 39L4 40L5 40L5 39L6 39L6 40L8 40L8 38L7 38L7 37ZM6 38L6 39L7 39L7 38ZM17 38L17 39L18 39L18 38ZM43 38L43 39L42 39L42 40L44 40L44 38ZM19 39L19 40L20 40L20 39ZM10 40L10 43L11 43L11 41L12 41L12 40ZM6 41L6 42L7 42L7 41ZM43 41L43 42L44 42L44 41ZM14 42L14 44L15 44L15 45L13 45L13 44L12 44L12 47L11 47L11 48L10 48L10 49L11 49L11 50L10 50L10 51L9 51L9 52L12 52L12 51L13 51L13 52L15 52L15 51L16 51L16 50L18 50L18 49L19 49L19 51L17 51L17 52L19 52L19 51L20 51L20 50L21 50L21 49L19 49L19 48L18 48L18 49L17 49L17 47L18 47L18 45L16 45L16 44L17 44L17 42L16 42L16 43L15 43L15 42ZM26 42L26 43L27 43L27 42ZM47 43L47 44L48 44L48 43ZM41 44L41 45L42 45L42 44ZM15 45L15 47L14 47L14 46L13 46L13 49L12 49L12 48L11 48L11 49L12 49L12 50L11 50L11 51L12 51L12 50L13 50L13 49L16 49L16 45ZM25 45L25 48L28 48L28 45ZM45 45L45 48L48 48L48 45ZM26 46L26 47L27 47L27 46ZM46 46L46 47L47 47L47 46ZM49 46L49 47L50 47L50 46ZM51 46L51 47L52 47L52 46ZM36 47L36 49L37 49L37 48L38 48L38 47ZM27 49L27 50L26 50L26 51L28 51L28 49ZM42 51L42 52L43 52L43 51ZM50 51L50 52L51 52L51 51ZM23 52L23 53L25 53L25 52ZM32 52L32 53L33 53L33 52ZM0 0L0 7L7 7L7 0ZM1 1L1 6L6 6L6 1ZM2 2L2 5L5 5L5 2ZM46 0L46 7L53 7L53 0ZM47 1L47 6L52 6L52 1ZM48 2L48 5L51 5L51 2ZM0 46L0 53L7 53L7 46ZM1 47L1 52L6 52L6 47ZM2 48L2 51L5 51L5 48Z" fill="#000000"/></g></g></svg>
