<?xml version="1.0" encoding="UTF-8"?>
<svg xmlns="http://www.w3.org/2000/svg" version="1.1" width="356" height="356" viewBox="0 0 356 356"><rect x="0" y="0" width="356" height="356" fill="#ffffff"/><g transform="scale(6.717)"><g transform="translate(0,0)"><path fill-rule="evenodd" d="M9 0L9 1L8 1L8 2L10 2L10 1L11 1L11 2L12 2L12 4L13 4L13 5L12 5L12 7L11 7L11 5L10 5L10 4L11 4L11 3L10 3L10 4L9 4L9 3L8 3L8 4L9 4L9 5L8 5L8 7L9 7L9 8L6 8L6 9L5 9L5 8L0 8L0 10L2 10L2 11L3 11L3 10L2 10L2 9L5 9L5 11L4 11L4 12L3 12L3 14L4 14L4 13L5 13L5 15L9 15L9 17L8 17L8 16L6 16L6 17L5 17L5 16L4 16L4 15L1 15L1 13L2 13L2 12L1 12L1 11L0 11L0 17L1 17L1 19L3 19L3 20L2 20L2 21L1 21L1 20L0 20L0 21L1 21L1 22L0 22L0 23L2 23L2 22L3 22L3 21L8 21L8 22L4 22L4 23L3 23L3 26L1 26L1 24L0 24L0 26L1 26L1 27L0 27L0 28L1 28L1 27L2 27L2 29L0 29L0 31L1 31L1 32L0 32L0 37L1 37L1 32L2 32L2 33L3 33L3 34L4 34L4 37L5 37L5 33L7 33L7 34L6 34L6 35L8 35L8 36L6 36L6 37L7 37L7 38L5 38L5 39L4 39L4 40L5 40L5 39L7 39L7 38L8 38L8 40L6 40L6 41L3 41L3 40L2 40L2 39L1 39L1 42L0 42L0 43L1 43L1 44L3 44L3 45L4 45L4 44L3 44L3 43L7 43L7 44L6 44L6 45L8 45L8 47L9 47L9 48L8 48L8 53L10 53L10 52L9 52L9 51L10 51L10 50L9 50L9 48L11 48L11 49L12 49L12 48L13 48L13 49L14 49L14 51L13 51L13 50L11 50L11 52L13 52L13 53L14 53L14 52L15 52L15 53L19 53L19 51L20 51L20 50L19 50L19 49L20 49L20 47L19 47L19 46L20 46L20 45L21 45L21 44L23 44L23 45L22 45L22 47L21 47L21 48L22 48L22 49L21 49L21 52L20 52L20 53L21 53L21 52L22 52L22 51L23 51L23 53L26 53L26 52L28 52L28 51L27 51L27 50L29 50L29 53L32 53L32 52L35 52L35 53L37 53L37 50L38 50L38 51L39 51L39 50L41 50L41 51L40 51L40 52L41 52L41 53L43 53L43 52L41 52L41 51L44 51L44 50L43 50L43 49L45 49L45 51L48 51L48 53L49 53L49 52L50 52L50 53L51 53L51 52L52 52L52 51L53 51L53 50L52 50L52 49L53 49L53 48L52 48L52 49L51 49L51 48L50 48L50 47L52 47L52 46L53 46L53 43L51 43L51 42L52 42L52 40L53 40L53 39L51 39L51 41L50 41L50 43L49 43L49 40L50 40L50 38L51 38L51 36L52 36L52 37L53 37L53 36L52 36L52 35L51 35L51 34L52 34L52 33L51 33L51 32L53 32L53 31L51 31L51 32L50 32L50 27L51 27L51 26L52 26L52 25L53 25L53 24L52 24L52 23L51 23L51 24L50 24L50 22L52 22L52 20L53 20L53 19L51 19L51 20L50 20L50 19L47 19L47 18L49 18L49 16L48 16L48 15L46 15L46 14L45 14L45 15L42 15L42 16L41 16L41 17L39 17L39 19L40 19L40 20L39 20L39 21L40 21L40 20L41 20L41 19L42 19L42 18L43 18L43 19L44 19L44 17L43 17L43 16L48 16L48 17L47 17L47 18L45 18L45 19L46 19L46 20L47 20L47 21L48 21L48 22L46 22L46 24L45 24L45 22L44 22L44 21L45 21L45 20L44 20L44 21L43 21L43 20L42 20L42 21L41 21L41 22L40 22L40 23L38 23L38 21L37 21L37 20L38 20L38 17L37 17L37 16L38 16L38 15L39 15L39 14L40 14L40 13L39 13L39 14L37 14L37 15L36 15L36 13L38 13L38 12L39 12L39 11L38 11L38 12L37 12L37 10L38 10L38 9L39 9L39 10L42 10L42 11L43 11L43 13L41 13L41 14L44 14L44 12L45 12L45 13L47 13L47 14L50 14L50 13L51 13L51 14L53 14L53 13L52 13L52 12L53 12L53 11L52 11L52 12L50 12L50 11L51 11L51 9L52 9L52 8L51 8L51 9L50 9L50 8L49 8L49 9L50 9L50 11L49 11L49 10L47 10L47 12L46 12L46 10L45 10L45 11L44 11L44 8L45 8L45 9L46 9L46 8L45 8L45 6L44 6L44 8L43 8L43 3L44 3L44 4L45 4L45 3L44 3L44 1L43 1L43 0L42 0L42 1L40 1L40 0L39 0L39 2L40 2L40 3L38 3L38 4L37 4L37 2L36 2L36 3L35 3L35 4L36 4L36 5L34 5L34 4L32 4L32 3L33 3L33 1L32 1L32 0L29 0L29 2L27 2L27 1L26 1L26 0L23 0L23 2L22 2L22 3L23 3L23 4L21 4L21 3L18 3L18 2L20 2L20 1L19 1L19 0L16 0L16 1L15 1L15 2L16 2L16 4L13 4L13 3L14 3L14 2L13 2L13 1L11 1L11 0ZM35 0L35 1L34 1L34 2L35 2L35 1L38 1L38 0ZM25 1L25 2L24 2L24 3L25 3L25 4L26 4L26 3L27 3L27 4L30 4L30 3L32 3L32 1L31 1L31 2L30 2L30 3L27 3L27 2L26 2L26 1ZM25 2L25 3L26 3L26 2ZM41 2L41 3L40 3L40 4L38 4L38 5L37 5L37 9L36 9L36 10L35 10L35 9L34 9L34 8L36 8L36 6L35 6L35 7L34 7L34 5L32 5L32 4L31 4L31 5L32 5L32 6L31 6L31 8L30 8L30 9L31 9L31 8L32 8L32 9L33 9L33 10L34 10L34 12L33 12L33 11L32 11L32 13L31 13L31 11L30 11L30 12L29 12L29 13L27 13L27 11L29 11L29 9L24 9L24 10L23 10L23 8L24 8L24 5L22 5L22 6L21 6L21 4L20 4L20 6L19 6L19 4L16 4L16 5L18 5L18 6L17 6L17 7L16 7L16 6L15 6L15 5L13 5L13 7L12 7L12 9L11 9L11 8L9 8L9 9L8 9L8 10L7 10L7 9L6 9L6 10L7 10L7 11L6 11L6 12L5 12L5 13L6 13L6 14L7 14L7 13L9 13L9 14L10 14L10 15L13 15L13 16L14 16L14 15L13 15L13 13L15 13L15 16L16 16L16 17L13 17L13 18L14 18L14 20L13 20L13 19L12 19L12 16L10 16L10 17L9 17L9 18L7 18L7 17L6 17L6 18L7 18L7 19L6 19L6 20L9 20L9 21L10 21L10 19L11 19L11 20L13 20L13 21L11 21L11 22L12 22L12 24L13 24L13 25L12 25L12 27L10 27L10 26L11 26L11 25L10 25L10 24L9 24L9 25L10 25L10 26L9 26L9 27L10 27L10 29L8 29L8 30L7 30L7 29L6 29L6 30L5 30L5 29L3 29L3 30L4 30L4 31L2 31L2 30L1 30L1 31L2 31L2 32L4 32L4 33L5 33L5 32L7 32L7 33L8 33L8 34L12 34L12 31L11 31L11 30L12 30L12 29L15 29L15 31L18 31L18 29L15 29L15 28L14 28L14 27L16 27L16 28L17 28L17 26L18 26L18 25L21 25L21 24L22 24L22 26L21 26L21 27L22 27L22 29L19 29L19 32L20 32L20 33L19 33L19 34L20 34L20 35L17 35L17 36L21 36L21 37L15 37L15 36L16 36L16 35L15 35L15 34L16 34L16 33L18 33L18 32L16 32L16 33L13 33L13 35L12 35L12 36L10 36L10 38L9 38L9 36L8 36L8 38L9 38L9 39L10 39L10 41L8 41L8 42L7 42L7 41L6 41L6 42L7 42L7 43L8 43L8 44L9 44L9 47L11 47L11 48L12 48L12 47L13 47L13 48L14 48L14 47L15 47L15 46L17 46L17 47L18 47L18 45L15 45L15 46L14 46L14 45L12 45L12 47L11 47L11 44L14 44L14 42L15 42L15 43L16 43L16 44L19 44L19 43L20 43L20 42L18 42L18 41L21 41L21 43L23 43L23 44L24 44L24 43L25 43L25 41L24 41L24 42L23 42L23 39L24 39L24 38L25 38L25 39L26 39L26 41L27 41L27 40L29 40L29 41L31 41L31 42L32 42L32 43L30 43L30 42L29 42L29 43L28 43L28 42L26 42L26 44L32 44L32 45L31 45L31 46L29 46L29 47L32 47L32 49L31 49L31 51L30 51L30 52L31 52L31 51L32 51L32 50L34 50L34 51L35 51L35 52L36 52L36 50L37 50L37 49L38 49L38 50L39 50L39 49L43 49L43 48L41 48L41 47L42 47L42 46L40 46L40 45L41 45L41 43L42 43L42 42L41 42L41 43L40 43L40 44L38 44L38 43L39 43L39 41L38 41L38 40L40 40L40 41L41 41L41 40L40 40L40 38L41 38L41 32L42 32L42 33L44 33L44 31L45 31L45 32L46 32L46 31L47 31L47 32L49 32L49 31L47 31L47 29L44 29L44 27L42 27L42 28L41 28L41 27L40 27L40 26L39 26L39 25L42 25L42 24L44 24L44 22L41 22L41 23L40 23L40 24L38 24L38 23L37 23L37 22L35 22L35 21L33 21L33 20L34 20L34 19L33 19L33 20L32 20L32 17L33 17L33 18L35 18L35 20L36 20L36 17L35 17L35 16L32 16L32 13L33 13L33 14L34 14L34 15L35 15L35 12L36 12L36 10L37 10L37 9L38 9L38 6L39 6L39 7L40 7L40 8L39 8L39 9L42 9L42 8L41 8L41 7L42 7L42 6L41 6L41 7L40 7L40 6L39 6L39 5L41 5L41 3L43 3L43 2ZM9 5L9 7L10 7L10 5ZM25 5L25 8L28 8L28 5ZM29 5L29 7L30 7L30 5ZM14 6L14 7L13 7L13 8L14 8L14 7L15 7L15 8L16 8L16 7L15 7L15 6ZM18 6L18 7L19 7L19 6ZM20 6L20 8L21 8L21 6ZM22 6L22 8L23 8L23 6ZM26 6L26 7L27 7L27 6ZM32 6L32 8L34 8L34 7L33 7L33 6ZM17 8L17 9L18 9L18 10L20 10L20 11L17 11L17 12L16 12L16 11L15 11L15 10L16 10L16 9L15 9L15 10L14 10L14 9L12 9L12 10L14 10L14 11L15 11L15 13L19 13L19 14L18 14L18 15L16 15L16 16L18 16L18 17L16 17L16 18L15 18L15 19L16 19L16 20L15 20L15 21L13 21L13 22L15 22L15 24L17 24L17 25L18 25L18 24L17 24L17 23L18 23L18 22L19 22L19 23L20 23L20 24L21 24L21 23L23 23L23 24L24 24L24 28L23 28L23 29L22 29L22 31L21 31L21 32L22 32L22 33L21 33L21 36L23 36L23 38L24 38L24 37L25 37L25 38L26 38L26 36L23 36L23 35L22 35L22 33L23 33L23 34L24 34L24 32L25 32L25 35L26 35L26 31L25 31L25 30L26 30L26 29L29 29L29 30L31 30L31 29L32 29L32 28L31 28L31 29L29 29L29 27L30 27L30 26L32 26L32 27L33 27L33 29L35 29L35 30L32 30L32 31L33 31L33 33L35 33L35 34L31 34L31 33L32 33L32 32L31 32L31 31L30 31L30 32L29 32L29 33L28 33L28 32L27 32L27 34L29 34L29 35L32 35L32 36L30 36L30 37L29 37L29 38L28 38L28 37L27 37L27 39L29 39L29 40L31 40L31 41L32 41L32 42L33 42L33 43L32 43L32 44L34 44L34 43L37 43L37 42L38 42L38 41L37 41L37 40L38 40L38 39L36 39L36 40L35 40L35 38L34 38L34 37L37 37L37 38L38 38L38 37L37 37L37 36L38 36L38 33L39 33L39 35L40 35L40 33L39 33L39 32L40 32L40 31L39 31L39 32L36 32L36 30L37 30L37 31L38 31L38 29L39 29L39 28L40 28L40 27L39 27L39 26L37 26L37 25L38 25L38 24L37 24L37 23L35 23L35 22L34 22L34 24L33 24L33 21L32 21L32 20L30 20L30 19L31 19L31 17L32 17L32 16L31 16L31 15L27 15L27 17L26 17L26 18L25 18L25 17L24 17L24 16L26 16L26 14L27 14L27 13L26 13L26 14L24 14L24 13L25 13L25 12L26 12L26 10L24 10L24 11L23 11L23 14L22 14L22 13L21 13L21 12L22 12L22 11L21 11L21 10L22 10L22 9L18 9L18 8ZM47 8L47 9L48 9L48 8ZM9 9L9 11L11 11L11 12L10 12L10 13L11 13L11 14L12 14L12 13L11 13L11 12L13 12L13 11L11 11L11 9ZM48 11L48 12L47 12L47 13L48 13L48 12L49 12L49 13L50 13L50 12L49 12L49 11ZM6 12L6 13L7 13L7 12ZM19 12L19 13L20 13L20 15L19 15L19 16L20 16L20 17L19 17L19 18L20 18L20 19L18 19L18 18L17 18L17 20L19 20L19 21L20 21L20 23L21 23L21 21L22 21L22 22L23 22L23 21L25 21L25 20L27 20L27 19L29 19L29 18L27 18L27 19L25 19L25 18L24 18L24 17L23 17L23 16L22 16L22 17L21 17L21 16L20 16L20 15L21 15L21 13L20 13L20 12ZM29 13L29 14L31 14L31 13ZM23 14L23 15L24 15L24 14ZM2 16L2 17L3 17L3 19L5 19L5 17L4 17L4 16ZM29 16L29 17L31 17L31 16ZM50 16L50 18L52 18L52 17L53 17L53 16L52 16L52 17L51 17L51 16ZM10 17L10 18L11 18L11 17ZM22 17L22 18L21 18L21 20L22 20L22 19L23 19L23 20L25 20L25 19L23 19L23 17ZM40 18L40 19L41 19L41 18ZM49 20L49 21L50 21L50 20ZM15 21L15 22L17 22L17 21ZM27 21L27 23L26 23L26 22L25 22L25 23L26 23L26 24L27 24L27 23L29 23L29 24L32 24L32 26L33 26L33 27L36 27L36 28L37 28L37 29L38 29L38 27L37 27L37 26L35 26L35 25L33 25L33 24L32 24L32 23L30 23L30 22L28 22L28 21ZM31 21L31 22L32 22L32 21ZM9 22L9 23L10 23L10 22ZM6 23L6 24L8 24L8 23ZM13 23L13 24L14 24L14 23ZM47 23L47 24L48 24L48 23ZM49 24L49 27L50 27L50 24ZM51 24L51 25L52 25L52 24ZM5 25L5 28L8 28L8 25ZM13 25L13 26L14 26L14 25ZM15 25L15 26L16 26L16 25ZM25 25L25 28L28 28L28 25ZM29 25L29 26L30 26L30 25ZM43 25L43 26L44 26L44 25ZM45 25L45 28L48 28L48 25ZM6 26L6 27L7 27L7 26ZM19 26L19 27L18 27L18 28L19 28L19 27L20 27L20 26ZM22 26L22 27L23 27L23 26ZM26 26L26 27L27 27L27 26ZM46 26L46 27L47 27L47 26ZM3 27L3 28L4 28L4 27ZM12 27L12 28L11 28L11 29L10 29L10 30L11 30L11 29L12 29L12 28L13 28L13 27ZM42 28L42 29L40 29L40 30L42 30L42 32L43 32L43 30L44 30L44 29L43 29L43 28ZM51 28L51 30L53 30L53 28ZM23 29L23 31L24 31L24 30L25 30L25 29ZM6 30L6 31L7 31L7 32L8 32L8 33L9 33L9 32L11 32L11 31L9 31L9 30L8 30L8 31L7 31L7 30ZM8 31L8 32L9 32L9 31ZM13 31L13 32L14 32L14 31ZM30 32L30 33L31 33L31 32ZM35 32L35 33L36 33L36 32ZM49 33L49 35L47 35L47 34L45 34L45 35L46 35L46 36L47 36L47 37L46 37L46 38L45 38L45 37L44 37L44 34L43 34L43 35L42 35L42 36L43 36L43 37L44 37L44 38L43 38L43 40L42 40L42 41L43 41L43 42L44 42L44 38L45 38L45 40L46 40L46 41L45 41L45 42L46 42L46 43L44 43L44 44L42 44L42 45L43 45L43 47L44 47L44 44L46 44L46 43L47 43L47 44L49 44L49 47L50 47L50 45L51 45L51 46L52 46L52 45L51 45L51 43L50 43L50 44L49 44L49 43L48 43L48 42L47 42L47 39L48 39L48 38L47 38L47 37L49 37L49 38L50 38L50 36L51 36L51 35L50 35L50 33ZM2 35L2 37L3 37L3 35ZM34 35L34 36L32 36L32 37L31 37L31 38L33 38L33 39L34 39L34 38L33 38L33 37L34 37L34 36L36 36L36 35ZM49 35L49 36L50 36L50 35ZM12 36L12 39L11 39L11 42L8 42L8 43L10 43L10 44L11 44L11 43L13 43L13 42L14 42L14 41L13 41L13 42L12 42L12 39L13 39L13 40L14 40L14 39L13 39L13 37L14 37L14 36ZM21 37L21 38L20 38L20 40L21 40L21 41L22 41L22 40L21 40L21 39L22 39L22 37ZM16 38L16 40L17 40L17 41L18 41L18 40L17 40L17 39L18 39L18 38ZM31 39L31 40L32 40L32 41L33 41L33 42L37 42L37 41L35 41L35 40L34 40L34 41L33 41L33 40L32 40L32 39ZM15 41L15 42L16 42L16 41ZM2 42L2 43L3 43L3 42ZM35 44L35 47L36 47L36 48L34 48L34 47L33 47L33 45L32 45L32 47L33 47L33 49L37 49L37 48L38 48L38 49L39 49L39 46L37 46L37 45L38 45L38 44ZM25 45L25 48L28 48L28 45ZM45 45L45 48L48 48L48 45ZM23 46L23 47L24 47L24 46ZM26 46L26 47L27 47L27 46ZM36 46L36 47L37 47L37 46ZM46 46L46 47L47 47L47 46ZM16 48L16 49L15 49L15 50L16 50L16 49L18 49L18 48ZM23 48L23 49L22 49L22 50L23 50L23 51L24 51L24 48ZM25 49L25 50L27 50L27 49ZM46 49L46 50L49 50L49 51L50 51L50 52L51 52L51 51L52 51L52 50L51 50L51 51L50 51L50 50L49 50L49 49ZM17 50L17 51L19 51L19 50ZM15 51L15 52L16 52L16 51ZM25 51L25 52L26 52L26 51ZM45 52L45 53L46 53L46 52ZM0 0L0 7L7 7L7 0ZM1 1L1 6L6 6L6 1ZM2 2L2 5L5 5L5 2ZM46 0L46 7L53 7L53 0ZM47 1L47 6L52 6L52 1ZM48 2L48 5L51 5L51 2ZM0 46L0 53L7 53L7 46ZM1 47L1 52L6 52L6 47ZM2 48L2 51L5 51L5 48Z" fill="#000000"/></g></g></svg>
