<?xml version="1.0" encoding="UTF-8"?>
<svg xmlns="http://www.w3.org/2000/svg" version="1.1" width="356" height="356" viewBox="0 0 356 356"><rect x="0" y="0" width="356" height="356" fill="#ffffff"/><g transform="scale(6.717)"><g transform="translate(0,0)"><path fill-rule="evenodd" d="M9 0L9 1L8 1L8 3L10 3L10 4L11 4L11 3L10 3L10 0ZM11 0L11 2L12 2L12 3L13 3L13 4L14 4L14 3L16 3L16 4L17 4L17 3L16 3L16 0L14 0L14 1L13 1L13 2L12 2L12 0ZM17 0L17 1L19 1L19 2L20 2L20 1L21 1L21 0L20 0L20 1L19 1L19 0ZM23 0L23 1L22 1L22 2L21 2L21 3L20 3L20 8L21 8L21 9L20 9L20 10L19 10L19 11L20 11L20 10L22 10L22 11L21 11L21 13L25 13L25 14L24 14L24 15L25 15L25 14L27 14L27 16L23 16L23 15L20 15L20 13L19 13L19 12L18 12L18 11L17 11L17 13L16 13L16 14L15 14L15 12L16 12L16 9L17 9L17 10L18 10L18 9L17 9L17 8L19 8L19 5L13 5L13 6L12 6L12 7L13 7L13 8L14 8L14 7L15 7L15 10L13 10L13 9L11 9L11 11L12 11L12 10L13 10L13 12L12 12L12 13L10 13L10 12L8 12L8 11L7 11L7 10L8 10L8 8L9 8L9 10L10 10L10 8L11 8L11 6L10 6L10 8L9 8L9 4L8 4L8 8L6 8L6 9L4 9L4 8L3 8L3 10L6 10L6 11L7 11L7 12L6 12L6 13L7 13L7 14L6 14L6 15L7 15L7 14L9 14L9 13L10 13L10 14L13 14L13 15L11 15L11 16L10 16L10 19L13 19L13 20L11 20L11 21L13 21L13 20L14 20L14 19L15 19L15 17L13 17L13 18L11 18L11 16L15 16L15 15L16 15L16 16L17 16L17 15L19 15L19 16L18 16L18 17L16 17L16 18L18 18L18 19L17 19L17 20L18 20L18 21L19 21L19 19L22 19L22 20L21 20L21 22L20 22L20 23L18 23L18 22L16 22L16 23L15 23L15 21L14 21L14 22L13 22L13 23L14 23L14 25L13 25L13 26L14 26L14 25L15 25L15 27L10 27L10 28L9 28L9 25L11 25L11 26L12 26L12 22L11 22L11 23L8 23L8 22L10 22L10 21L9 21L9 19L7 19L7 18L9 18L9 16L8 16L8 17L7 17L7 16L6 16L6 17L7 17L7 18L6 18L6 19L7 19L7 20L6 20L6 21L7 21L7 20L8 20L8 22L4 22L4 23L3 23L3 24L2 24L2 25L3 25L3 24L4 24L4 27L3 27L3 26L1 26L1 25L0 25L0 26L1 26L1 27L0 27L0 29L1 29L1 30L0 30L0 32L1 32L1 31L2 31L2 32L3 32L3 33L0 33L0 34L2 34L2 35L0 35L0 37L1 37L1 39L0 39L0 40L1 40L1 39L4 39L4 40L3 40L3 41L2 41L2 42L0 42L0 43L1 43L1 44L3 44L3 45L4 45L4 44L3 44L3 43L7 43L7 42L3 42L3 41L4 41L4 40L6 40L6 41L7 41L7 40L8 40L8 44L10 44L10 45L11 45L11 44L12 44L12 42L13 42L13 41L14 41L14 45L13 45L13 46L10 46L10 47L11 47L11 48L9 48L9 49L8 49L8 50L9 50L9 51L8 51L8 53L14 53L14 52L15 52L15 49L14 49L14 48L16 48L16 49L17 49L17 48L18 48L18 49L21 49L21 51L24 51L24 49L25 49L25 52L23 52L23 53L25 53L25 52L26 52L26 51L27 51L27 53L28 53L28 52L29 52L29 51L31 51L31 52L30 52L30 53L31 53L31 52L32 52L32 53L33 53L33 52L32 52L32 51L33 51L33 50L32 50L32 51L31 51L31 50L29 50L29 51L27 51L27 50L28 50L28 49L30 49L30 47L31 47L31 46L32 46L32 48L31 48L31 49L33 49L33 48L34 48L34 47L33 47L33 46L32 46L32 44L31 44L31 43L33 43L33 45L35 45L35 44L36 44L36 45L37 45L37 44L38 44L38 45L39 45L39 46L40 46L40 45L43 45L43 44L44 44L44 47L43 47L43 46L41 46L41 48L39 48L39 47L38 47L38 46L37 46L37 47L36 47L36 46L35 46L35 48L36 48L36 49L34 49L34 53L38 53L38 52L39 52L39 51L38 51L38 48L39 48L39 49L40 49L40 50L41 50L41 51L40 51L40 52L41 52L41 53L46 53L46 52L45 52L45 51L47 51L47 52L48 52L48 53L50 53L50 52L48 52L48 51L49 51L49 49L50 49L50 48L51 48L51 50L50 50L50 51L51 51L51 53L52 53L52 50L53 50L53 49L52 49L52 48L53 48L53 47L52 47L52 46L51 46L51 45L49 45L49 44L50 44L50 43L51 43L51 44L52 44L52 43L53 43L53 42L52 42L52 39L53 39L53 37L52 37L52 33L51 33L51 32L50 32L50 31L52 31L52 32L53 32L53 28L52 28L52 30L51 30L51 28L50 28L50 30L48 30L48 29L49 29L49 26L50 26L50 25L49 25L49 24L47 24L47 23L49 23L49 22L48 22L48 21L50 21L50 24L51 24L51 23L52 23L52 21L53 21L53 20L52 20L52 19L53 19L53 18L52 18L52 17L53 17L53 11L52 11L52 10L49 10L49 8L46 8L46 9L47 9L47 11L46 11L46 14L45 14L45 16L44 16L44 18L45 18L45 17L46 17L46 16L47 16L47 14L48 14L48 17L47 17L47 18L48 18L48 17L50 17L50 18L49 18L49 19L47 19L47 20L48 20L48 21L47 21L47 23L46 23L46 22L44 22L44 21L45 21L45 20L46 20L46 19L45 19L45 20L44 20L44 19L43 19L43 18L42 18L42 17L43 17L43 16L42 16L42 17L41 17L41 20L39 20L39 18L40 18L40 16L41 16L41 15L44 15L44 13L45 13L45 10L44 10L44 9L45 9L45 6L44 6L44 7L43 7L43 3L44 3L44 4L45 4L45 3L44 3L44 1L43 1L43 0L40 0L40 1L39 1L39 0L27 0L27 1L26 1L26 2L25 2L25 0ZM14 1L14 2L15 2L15 1ZM27 1L27 2L26 2L26 3L27 3L27 4L29 4L29 2L32 2L32 1L29 1L29 2L28 2L28 1ZM33 1L33 2L34 2L34 3L32 3L32 4L31 4L31 5L29 5L29 7L30 7L30 8L29 8L29 9L26 9L26 10L25 10L25 9L24 9L24 5L23 5L23 9L22 9L22 10L23 10L23 11L22 11L22 12L23 12L23 11L24 11L24 12L25 12L25 13L27 13L27 12L28 12L28 11L29 11L29 10L31 10L31 11L36 11L36 12L38 12L38 14L43 14L43 13L44 13L44 12L43 12L43 11L44 11L44 10L43 10L43 9L41 9L41 10L39 10L39 8L40 8L40 5L41 5L41 7L42 7L42 8L43 8L43 7L42 7L42 3L43 3L43 2L42 2L42 1L40 1L40 2L38 2L38 1L37 1L37 2L38 2L38 4L37 4L37 3L35 3L35 1ZM23 2L23 3L21 3L21 5L22 5L22 4L25 4L25 2ZM40 2L40 3L42 3L42 2ZM32 4L32 5L31 5L31 6L30 6L30 7L31 7L31 6L32 6L32 8L30 8L30 9L32 9L32 10L33 10L33 9L34 9L34 8L36 8L36 11L37 11L37 8L36 8L36 7L37 7L37 6L38 6L38 8L39 8L39 6L38 6L38 5L40 5L40 4L38 4L38 5L37 5L37 6L36 6L36 4L35 4L35 5L34 5L34 4ZM25 5L25 8L28 8L28 5ZM32 5L32 6L33 6L33 7L34 7L34 5ZM13 6L13 7L14 7L14 6ZM15 6L15 7L16 7L16 6ZM17 6L17 7L18 7L18 6ZM21 6L21 8L22 8L22 6ZM26 6L26 7L27 7L27 6ZM35 6L35 7L36 7L36 6ZM0 8L0 10L1 10L1 11L2 11L2 13L3 13L3 14L1 14L1 15L0 15L0 17L1 17L1 18L0 18L0 20L1 20L1 21L0 21L0 24L1 24L1 23L2 23L2 22L3 22L3 21L4 21L4 18L5 18L5 17L4 17L4 16L5 16L5 15L4 15L4 14L5 14L5 13L3 13L3 12L4 12L4 11L2 11L2 10L1 10L1 9L2 9L2 8ZM32 8L32 9L33 9L33 8ZM50 8L50 9L52 9L52 8ZM6 9L6 10L7 10L7 9ZM24 10L24 11L25 11L25 10ZM26 10L26 12L27 12L27 11L28 11L28 10ZM38 11L38 12L39 12L39 13L42 13L42 11L41 11L41 12L40 12L40 11ZM47 11L47 12L48 12L48 11ZM49 11L49 12L50 12L50 11ZM51 11L51 13L50 13L50 14L49 14L49 13L48 13L48 14L49 14L49 15L50 15L50 17L51 17L51 16L52 16L52 15L51 15L51 14L52 14L52 11ZM0 12L0 13L1 13L1 12ZM13 12L13 13L14 13L14 12ZM29 12L29 14L31 14L31 15L28 15L28 16L27 16L27 18L26 18L26 20L25 20L25 17L24 17L24 20L23 20L23 21L22 21L22 22L21 22L21 23L20 23L20 24L18 24L18 23L17 23L17 24L18 24L18 26L17 26L17 27L16 27L16 28L15 28L15 29L13 29L13 28L11 28L11 29L6 29L6 30L5 30L5 29L4 29L4 30L5 30L5 31L4 31L4 33L3 33L3 35L5 35L5 37L4 37L4 36L2 36L2 38L3 38L3 37L4 37L4 38L5 38L5 39L6 39L6 40L7 40L7 39L8 39L8 40L9 40L9 41L10 41L10 43L11 43L11 41L10 41L10 39L11 39L11 38L12 38L12 39L13 39L13 40L12 40L12 41L13 41L13 40L16 40L16 42L17 42L17 43L21 43L21 44L20 44L20 45L18 45L18 44L15 44L15 45L14 45L14 47L16 47L16 46L17 46L17 47L18 47L18 48L20 48L20 46L22 46L22 44L23 44L23 43L25 43L25 42L27 42L27 44L28 44L28 42L29 42L29 43L30 43L30 42L31 42L31 41L32 41L32 42L33 42L33 43L34 43L34 44L35 44L35 43L36 43L36 44L37 44L37 43L36 43L36 42L35 42L35 40L33 40L33 41L32 41L32 40L31 40L31 39L36 39L36 38L37 38L37 37L36 37L36 38L34 38L34 37L35 37L35 36L38 36L38 39L37 39L37 40L39 40L39 41L42 41L42 42L38 42L38 41L37 41L37 42L38 42L38 44L39 44L39 43L41 43L41 44L43 44L43 42L44 42L44 43L45 43L45 44L47 44L47 43L46 43L46 42L47 42L47 41L48 41L48 43L50 43L50 41L48 41L48 40L51 40L51 38L50 38L50 37L49 37L49 36L50 36L50 35L51 35L51 34L50 34L50 35L49 35L49 33L48 33L48 32L47 32L47 31L46 31L46 32L47 32L47 34L46 34L46 33L45 33L45 34L46 34L46 35L44 35L44 34L43 34L43 33L44 33L44 31L45 31L45 30L47 30L47 29L45 29L45 30L44 30L44 31L43 31L43 32L42 32L42 33L41 33L41 34L40 34L40 33L39 33L39 32L38 32L38 33L37 33L37 34L38 34L38 35L36 35L36 33L35 33L35 32L36 32L36 29L35 29L35 28L34 28L34 27L32 27L32 26L34 26L34 25L35 25L35 26L36 26L36 27L37 27L37 30L38 30L38 26L39 26L39 25L38 25L38 26L37 26L37 25L35 25L35 24L34 24L34 22L35 22L35 21L36 21L36 24L37 24L37 22L39 22L39 23L38 23L38 24L39 24L39 23L40 23L40 22L42 22L42 23L41 23L41 24L42 24L42 25L41 25L41 26L40 26L40 27L39 27L39 28L40 28L40 29L42 29L42 30L39 30L39 31L40 31L40 32L41 32L41 31L42 31L42 30L43 30L43 28L41 28L41 27L42 27L42 26L43 26L43 27L44 27L44 26L43 26L43 23L44 23L44 22L43 22L43 21L42 21L42 20L41 20L41 21L39 21L39 20L38 20L38 19L36 19L36 18L38 18L38 17L35 17L35 16L37 16L37 14L36 14L36 13L35 13L35 12L33 12L33 14L34 14L34 13L35 13L35 16L34 16L34 17L32 17L32 16L31 16L31 15L32 15L32 13L31 13L31 12ZM1 15L1 16L2 16L2 15ZM3 15L3 16L4 16L4 15ZM38 15L38 16L39 16L39 15ZM19 16L19 17L18 17L18 18L19 18L19 17L20 17L20 16ZM21 16L21 18L22 18L22 17L23 17L23 16ZM3 17L3 18L4 18L4 17ZM29 17L29 18L27 18L27 19L28 19L28 20L26 20L26 24L24 24L24 21L25 21L25 20L24 20L24 21L23 21L23 22L22 22L22 23L23 23L23 24L22 24L22 25L21 25L21 24L20 24L20 25L19 25L19 26L18 26L18 28L16 28L16 29L19 29L19 30L18 30L18 31L19 31L19 30L20 30L20 31L21 31L21 34L20 34L20 32L16 32L16 31L17 31L17 30L15 30L15 31L14 31L14 30L13 30L13 31L14 31L14 32L13 32L13 33L12 33L12 31L11 31L11 30L12 30L12 29L11 29L11 30L10 30L10 31L7 31L7 30L6 30L6 31L5 31L5 33L4 33L4 34L5 34L5 35L7 35L7 36L6 36L6 37L5 37L5 38L6 38L6 39L7 39L7 38L8 38L8 37L10 37L10 38L9 38L9 39L10 39L10 38L11 38L11 37L12 37L12 38L13 38L13 37L15 37L15 34L14 34L14 33L15 33L15 32L16 32L16 36L17 36L17 37L16 37L16 38L15 38L15 39L16 39L16 40L17 40L17 41L18 41L18 40L19 40L19 41L21 41L21 40L19 40L19 39L16 39L16 38L19 38L19 37L20 37L20 36L21 36L21 38L22 38L22 39L26 39L26 38L27 38L27 39L28 39L28 38L29 38L29 37L32 37L32 38L33 38L33 36L35 36L35 34L34 34L34 35L33 35L33 36L32 36L32 35L31 35L31 36L30 36L30 35L29 35L29 33L30 33L30 32L29 32L29 31L30 31L30 30L28 30L28 29L31 29L31 28L29 28L29 27L31 27L31 26L32 26L32 25L33 25L33 24L32 24L32 22L30 22L30 23L28 23L28 24L27 24L27 21L28 21L28 22L29 22L29 21L32 21L32 20L33 20L33 21L35 21L35 20L36 20L36 21L37 21L37 20L36 20L36 19L35 19L35 20L34 20L34 19L32 19L32 20L29 20L29 19L31 19L31 18L32 18L32 17L31 17L31 18L30 18L30 17ZM1 18L1 20L3 20L3 19L2 19L2 18ZM49 19L49 20L51 20L51 21L52 21L52 20L51 20L51 19ZM28 20L28 21L29 21L29 20ZM5 23L5 24L7 24L7 23ZM30 23L30 24L29 24L29 26L31 26L31 23ZM45 23L45 24L46 24L46 23ZM23 24L23 26L22 26L22 27L24 27L24 24ZM5 25L5 28L8 28L8 25ZM25 25L25 28L28 28L28 25ZM45 25L45 28L48 28L48 25ZM51 25L51 27L53 27L53 25ZM6 26L6 27L7 27L7 26ZM19 26L19 29L21 29L21 30L22 30L22 36L23 36L23 37L22 37L22 38L23 38L23 37L25 37L25 38L26 38L26 37L25 37L25 36L24 36L24 34L23 34L23 32L24 32L24 33L25 33L25 32L24 32L24 31L25 31L25 30L26 30L26 36L28 36L28 37L29 37L29 35L28 35L28 34L27 34L27 32L28 32L28 30L27 30L27 29L25 29L25 30L24 30L24 29L23 29L23 28L22 28L22 29L21 29L21 28L20 28L20 26ZM26 26L26 27L27 27L27 26ZM46 26L46 27L47 27L47 26ZM2 27L2 28L1 28L1 29L2 29L2 30L3 30L3 29L2 29L2 28L3 28L3 27ZM32 28L32 30L33 30L33 32L34 32L34 31L35 31L35 30L33 30L33 29L34 29L34 28ZM6 31L6 32L7 32L7 31ZM10 31L10 33L9 33L9 32L8 32L8 33L6 33L6 34L7 34L7 35L8 35L8 36L10 36L10 37L11 37L11 36L12 36L12 33L11 33L11 31ZM31 32L31 34L32 34L32 32ZM8 33L8 34L9 34L9 33ZM10 33L10 36L11 36L11 33ZM17 33L17 34L19 34L19 35L20 35L20 34L19 34L19 33ZM17 35L17 36L18 36L18 35ZM38 35L38 36L39 36L39 39L40 39L40 40L41 40L41 39L40 39L40 37L42 37L42 36L43 36L43 35L40 35L40 36L39 36L39 35ZM47 35L47 36L49 36L49 35ZM44 36L44 37L43 37L43 38L42 38L42 40L43 40L43 41L44 41L44 42L45 42L45 39L50 39L50 38L47 38L47 37L45 37L45 36ZM6 37L6 38L7 38L7 37ZM44 37L44 39L43 39L43 40L44 40L44 39L45 39L45 37ZM30 38L30 39L29 39L29 40L25 40L25 41L24 41L24 40L23 40L23 41L24 41L24 42L25 42L25 41L27 41L27 42L28 42L28 41L29 41L29 42L30 42L30 41L29 41L29 40L30 40L30 39L31 39L31 38ZM46 40L46 41L47 41L47 40ZM2 42L2 43L3 43L3 42ZM21 42L21 43L23 43L23 42ZM6 44L6 45L7 45L7 44ZM29 44L29 46L31 46L31 45L30 45L30 44ZM8 45L8 47L9 47L9 45ZM17 45L17 46L18 46L18 47L19 47L19 46L18 46L18 45ZM23 45L23 47L24 47L24 45ZM25 45L25 48L28 48L28 45ZM45 45L45 48L48 48L48 45ZM26 46L26 47L27 47L27 46ZM46 46L46 47L47 47L47 46ZM50 46L50 47L49 47L49 48L50 48L50 47L51 47L51 48L52 48L52 47L51 47L51 46ZM22 48L22 49L24 49L24 48ZM41 48L41 50L43 50L43 49L44 49L44 51L43 51L43 52L44 52L44 51L45 51L45 50L46 50L46 49L44 49L44 48L43 48L43 49L42 49L42 48ZM9 49L9 50L10 50L10 51L9 51L9 52L11 52L11 51L12 51L12 50L11 50L11 49ZM26 49L26 50L27 50L27 49ZM17 50L17 51L16 51L16 53L19 53L19 52L20 52L20 53L22 53L22 52L20 52L20 50L19 50L19 52L17 52L17 51L18 51L18 50ZM35 50L35 51L36 51L36 52L37 52L37 51L36 51L36 50ZM47 50L47 51L48 51L48 50ZM13 51L13 52L14 52L14 51ZM0 0L0 7L7 7L7 0ZM1 1L1 6L6 6L6 1ZM2 2L2 5L5 5L5 2ZM46 0L46 7L53 7L53 0ZM47 1L47 6L52 6L52 1ZM48 2L48 5L51 5L51 2ZM0 46L0 53L7 53L7 46ZM1 47L1 52L6 52L6 47ZM2 48L2 51L5 51L5 48Z" fill="#000000"/></g></g></svg>
