<?xml version="1.0" encoding="UTF-8"?>
<svg xmlns="http://www.w3.org/2000/svg" version="1.1" width="356" height="356" viewBox="0 0 356 356"><rect x="0" y="0" width="356" height="356" fill="#ffffff"/><g transform="scale(6.717)"><g transform="translate(0,0)"><path fill-rule="evenodd" d="M9 0L9 1L8 1L8 2L10 2L10 4L9 4L9 3L8 3L8 4L9 4L9 5L8 5L8 7L9 7L9 8L6 8L6 9L8 9L8 11L7 11L7 10L5 10L5 8L0 8L0 10L1 10L1 11L0 11L0 12L1 12L1 13L5 13L5 14L4 14L4 15L5 15L5 17L7 17L7 18L6 18L6 19L5 19L5 18L4 18L4 19L3 19L3 18L2 18L2 17L3 17L3 15L1 15L1 14L0 14L0 17L1 17L1 18L0 18L0 20L1 20L1 23L2 23L2 22L3 22L3 24L4 24L4 28L3 28L3 26L2 26L2 27L0 27L0 28L1 28L1 29L0 29L0 33L1 33L1 34L0 34L0 35L1 35L1 34L2 34L2 35L3 35L3 36L1 36L1 37L2 37L2 38L3 38L3 39L2 39L2 40L1 40L1 39L0 39L0 40L1 40L1 42L0 42L0 43L1 43L1 44L3 44L3 45L4 45L4 44L3 44L3 43L7 43L7 44L6 44L6 45L8 45L8 47L9 47L9 45L11 45L11 44L10 44L10 43L8 43L8 42L5 42L5 41L8 41L8 40L6 40L6 39L8 39L8 38L9 38L9 40L10 40L10 41L9 41L9 42L11 42L11 40L13 40L13 41L16 41L16 42L15 42L15 43L16 43L16 44L14 44L14 43L13 43L13 46L14 46L14 47L15 47L15 48L17 48L17 49L18 49L18 50L20 50L20 51L17 51L17 52L16 52L16 51L15 51L15 50L16 50L16 49L13 49L13 48L12 48L12 50L11 50L11 49L9 49L9 48L8 48L8 53L9 53L9 50L10 50L10 51L12 51L12 52L10 52L10 53L12 53L12 52L13 52L13 53L20 53L20 52L22 52L22 50L21 50L21 49L22 49L22 48L21 48L21 47L22 47L22 46L23 46L23 48L24 48L24 49L25 49L25 51L23 51L23 53L25 53L25 52L26 52L26 49L27 49L27 51L28 51L28 52L27 52L27 53L28 53L28 52L29 52L29 53L32 53L32 52L33 52L33 53L37 53L37 50L38 50L38 53L39 53L39 52L40 52L40 50L41 50L41 51L42 51L42 53L45 53L45 52L44 52L44 51L42 51L42 50L45 50L45 51L48 51L48 53L49 53L49 52L50 52L50 51L49 51L49 50L52 50L52 51L51 51L51 52L52 52L52 51L53 51L53 50L52 50L52 49L53 49L53 47L51 47L51 46L52 46L52 45L53 45L53 44L50 44L50 43L51 43L51 42L52 42L52 41L53 41L53 39L51 39L51 40L52 40L52 41L50 41L50 43L49 43L49 44L48 44L48 42L49 42L49 40L50 40L50 38L53 38L53 36L52 36L52 35L51 35L51 34L52 34L52 33L53 33L53 32L50 32L50 26L52 26L52 25L53 25L53 23L51 23L51 24L50 24L50 22L53 22L53 21L52 21L52 20L53 20L53 19L51 19L51 18L52 18L52 17L53 17L53 16L52 16L52 17L51 17L51 16L50 16L50 18L49 18L49 16L48 16L48 15L49 15L49 14L50 14L50 13L52 13L52 12L53 12L53 11L52 11L52 12L50 12L50 11L51 11L51 10L50 10L50 11L49 11L49 10L47 10L47 11L46 11L46 10L45 10L45 11L46 11L46 13L47 13L47 14L48 14L48 15L46 15L46 14L45 14L45 15L44 15L44 13L45 13L45 12L44 12L44 11L42 11L42 12L41 12L41 13L39 13L39 14L40 14L40 15L41 15L41 16L42 16L42 17L40 17L40 18L44 18L44 19L47 19L47 20L48 20L48 21L47 21L47 23L45 23L45 22L44 22L44 20L41 20L41 21L40 21L40 22L39 22L39 24L37 24L37 23L38 23L38 21L39 21L39 20L40 20L40 19L39 19L39 18L38 18L38 17L39 17L39 15L37 15L37 14L38 14L38 11L37 11L37 10L38 10L38 7L39 7L39 8L41 8L41 9L39 9L39 11L41 11L41 10L44 10L44 9L46 9L46 8L45 8L45 6L44 6L44 9L42 9L42 8L41 8L41 6L42 6L42 7L43 7L43 3L44 3L44 4L45 4L45 3L44 3L44 1L43 1L43 0L40 0L40 1L37 1L37 0L35 0L35 1L34 1L34 2L33 2L33 1L32 1L32 0L28 0L28 1L32 1L32 2L31 2L31 3L29 3L29 4L24 4L24 3L23 3L23 4L21 4L21 3L22 3L22 0L18 0L18 1L17 1L17 3L16 3L16 2L15 2L15 1L16 1L16 0L15 0L15 1L14 1L14 0ZM23 0L23 2L25 2L25 3L26 3L26 1L27 1L27 0ZM13 1L13 2L12 2L12 3L11 3L11 4L10 4L10 5L11 5L11 4L12 4L12 5L13 5L13 4L16 4L16 5L17 5L17 7L16 7L16 6L15 6L15 7L16 7L16 9L13 9L13 10L12 10L12 11L11 11L11 10L10 10L10 8L9 8L9 10L10 10L10 12L9 12L9 13L8 13L8 12L7 12L7 11L6 11L6 12L7 12L7 13L6 13L6 14L5 14L5 15L6 15L6 16L7 16L7 17L10 17L10 18L9 18L9 19L8 19L8 18L7 18L7 19L6 19L6 20L5 20L5 21L3 21L3 22L7 22L7 23L6 23L6 24L7 24L7 23L9 23L9 24L11 24L11 23L12 23L12 21L15 21L15 22L17 22L17 23L18 23L18 22L17 22L17 21L15 21L15 20L14 20L14 19L16 19L16 20L19 20L19 21L20 21L20 23L19 23L19 24L20 24L20 25L19 25L19 26L20 26L20 27L18 27L18 28L21 28L21 29L19 29L19 30L18 30L18 29L15 29L15 28L16 28L16 27L15 27L15 26L16 26L16 25L18 25L18 24L16 24L16 25L12 25L12 27L11 27L11 25L9 25L9 27L10 27L10 28L9 28L9 29L10 29L10 30L7 30L7 29L3 29L3 30L2 30L2 29L1 29L1 31L2 31L2 32L1 32L1 33L2 33L2 34L3 34L3 35L4 35L4 36L3 36L3 37L5 37L5 38L4 38L4 39L3 39L3 40L2 40L2 41L4 41L4 40L5 40L5 38L8 38L8 37L5 37L5 36L7 36L7 35L9 35L9 36L10 36L10 40L11 40L11 39L12 39L12 38L14 38L14 37L15 37L15 40L16 40L16 41L18 41L18 40L16 40L16 38L17 38L17 39L18 39L18 38L19 38L19 40L20 40L20 41L19 41L19 42L17 42L17 44L21 44L21 45L20 45L20 46L18 46L18 45L15 45L15 46L18 46L18 47L17 47L17 48L18 48L18 49L21 49L21 48L20 48L20 46L22 46L22 45L23 45L23 46L24 46L24 44L23 44L23 43L25 43L25 44L26 44L26 43L27 43L27 44L29 44L29 43L31 43L31 42L32 42L32 43L33 43L33 42L35 42L35 44L36 44L36 43L37 43L37 44L39 44L39 45L38 45L38 47L39 47L39 48L37 48L37 47L34 47L34 48L37 48L37 49L33 49L33 46L36 46L36 45L33 45L33 44L30 44L30 45L33 45L33 46L32 46L32 49L31 49L31 50L30 50L30 51L29 51L29 49L28 49L28 51L29 51L29 52L32 52L32 50L34 50L34 51L35 51L35 52L36 52L36 50L37 50L37 49L38 49L38 50L39 50L39 49L41 49L41 50L42 50L42 48L44 48L44 47L43 47L43 46L44 46L44 44L43 44L43 46L42 46L42 45L41 45L41 44L39 44L39 40L40 40L40 41L41 41L41 42L40 42L40 43L41 43L41 42L42 42L42 43L46 43L46 44L47 44L47 41L48 41L48 40L47 40L47 41L45 41L45 40L46 40L46 39L48 39L48 38L45 38L45 40L44 40L44 39L43 39L43 40L42 40L42 41L41 41L41 40L40 40L40 39L37 39L37 38L39 38L39 37L41 37L41 34L40 34L40 36L39 36L39 35L34 35L34 36L33 36L33 35L30 35L30 36L29 36L29 34L27 34L27 35L26 35L26 36L25 36L25 35L24 35L24 34L26 34L26 33L29 33L29 32L32 32L32 33L31 33L31 34L35 34L35 33L36 33L36 32L37 32L37 31L38 31L38 32L40 32L40 33L41 33L41 32L43 32L43 34L45 34L45 37L49 37L49 38L50 38L50 37L52 37L52 36L51 36L51 35L50 35L50 37L49 37L49 36L46 36L46 35L48 35L48 34L47 34L47 33L48 33L48 32L49 32L49 31L47 31L47 30L46 30L46 29L45 29L45 32L46 32L46 33L44 33L44 32L43 32L43 31L44 31L44 27L42 27L42 28L40 28L40 27L41 27L41 23L42 23L42 24L43 24L43 26L44 26L44 22L43 22L43 23L42 23L42 22L40 22L40 24L39 24L39 25L38 25L38 26L35 26L35 25L33 25L33 24L34 24L34 23L37 23L37 21L38 21L38 20L37 20L37 21L34 21L34 20L36 20L36 17L35 17L35 16L32 16L32 15L33 15L33 14L34 14L34 15L35 15L35 13L34 13L34 11L36 11L36 10L37 10L37 9L36 9L36 10L35 10L35 9L34 9L34 8L36 8L36 6L35 6L35 4L33 4L33 2L32 2L32 5L30 5L30 4L29 4L29 5L30 5L30 6L29 6L29 8L30 8L30 6L31 6L31 8L32 8L32 9L33 9L33 10L34 10L34 11L33 11L33 12L32 12L32 11L31 11L31 12L30 12L30 10L27 10L27 9L26 9L26 10L27 10L27 11L26 11L26 12L25 12L25 13L23 13L23 11L25 11L25 10L24 10L24 9L23 9L23 8L22 8L22 9L21 9L21 8L20 8L20 6L21 6L21 7L22 7L22 6L21 6L21 4L20 4L20 6L19 6L19 8L20 8L20 9L19 9L19 10L17 10L17 11L19 11L19 13L15 13L15 12L16 12L16 11L15 11L15 10L16 10L16 9L18 9L18 8L17 8L17 7L18 7L18 5L19 5L19 4L16 4L16 3L15 3L15 2L14 2L14 1ZM19 1L19 2L18 2L18 3L19 3L19 2L20 2L20 1ZM35 1L35 2L36 2L36 3L37 3L37 1ZM41 1L41 2L40 2L40 3L38 3L38 4L37 4L37 5L39 5L39 7L40 7L40 6L41 6L41 5L42 5L42 4L41 4L41 3L43 3L43 2L42 2L42 1ZM23 4L23 7L24 7L24 4ZM39 4L39 5L40 5L40 4ZM25 5L25 8L28 8L28 5ZM32 5L32 8L34 8L34 7L35 7L35 6L34 6L34 5ZM9 6L9 7L10 7L10 6ZM11 6L11 8L12 8L12 6ZM13 6L13 8L14 8L14 6ZM26 6L26 7L27 7L27 6ZM33 6L33 7L34 7L34 6ZM37 6L37 7L38 7L38 6ZM47 8L47 9L48 9L48 8ZM49 8L49 9L50 9L50 8ZM51 8L51 9L52 9L52 8ZM1 9L1 10L2 10L2 11L1 11L1 12L5 12L5 11L4 11L4 10L3 10L3 9ZM22 9L22 10L23 10L23 9ZM13 10L13 12L14 12L14 10ZM19 10L19 11L20 11L20 10ZM21 11L21 12L20 12L20 13L19 13L19 15L20 15L20 16L21 16L21 17L18 17L18 16L17 16L17 15L18 15L18 14L17 14L17 15L16 15L16 16L17 16L17 17L18 17L18 19L19 19L19 20L21 20L21 19L22 19L22 16L21 16L21 15L23 15L23 17L26 17L26 14L28 14L28 13L27 13L27 12L29 12L29 11L27 11L27 12L26 12L26 13L25 13L25 14L23 14L23 13L22 13L22 14L21 14L21 15L20 15L20 13L21 13L21 12L22 12L22 11ZM47 11L47 12L48 12L48 11ZM31 12L31 13L29 13L29 15L27 15L27 17L29 17L29 18L31 18L31 17L32 17L32 19L27 19L27 18L26 18L26 19L25 19L25 18L23 18L23 20L24 20L24 21L25 21L25 22L26 22L26 21L25 21L25 20L26 20L26 19L27 19L27 22L29 22L29 23L27 23L27 24L26 24L26 23L23 23L23 21L21 21L21 22L22 22L22 23L20 23L20 24L22 24L22 25L21 25L21 26L22 26L22 25L23 25L23 24L24 24L24 26L23 26L23 27L24 27L24 28L23 28L23 30L24 30L24 29L27 29L27 31L29 31L29 30L30 30L30 31L33 31L33 33L35 33L35 32L36 32L36 31L35 31L35 30L38 30L38 31L40 31L40 32L41 32L41 31L43 31L43 29L41 29L41 30L38 30L38 29L37 29L37 28L38 28L38 27L34 27L34 28L35 28L35 30L34 30L34 29L33 29L33 30L32 30L32 27L33 27L33 26L32 26L32 24L33 24L33 23L34 23L34 22L33 22L33 23L32 23L32 22L31 22L31 21L32 21L32 19L35 19L35 18L33 18L33 17L32 17L32 16L30 16L30 17L29 17L29 15L32 15L32 14L33 14L33 13L32 13L32 12ZM49 12L49 13L48 13L48 14L49 14L49 13L50 13L50 12ZM7 13L7 14L6 14L6 15L7 15L7 14L8 14L8 16L9 16L9 15L10 15L10 17L11 17L11 16L12 16L12 18L11 18L11 19L9 19L9 20L6 20L6 21L7 21L7 22L9 22L9 21L10 21L10 23L11 23L11 21L10 21L10 20L13 20L13 19L12 19L12 18L14 18L14 17L13 17L13 16L14 16L14 15L12 15L12 14L11 14L11 15L10 15L10 14L8 14L8 13ZM13 13L13 14L15 14L15 13ZM31 13L31 14L32 14L32 13ZM36 13L36 14L37 14L37 13ZM42 14L42 15L43 15L43 17L44 17L44 18L47 18L47 19L48 19L48 20L49 20L49 21L51 21L51 19L50 19L50 20L49 20L49 18L47 18L47 17L48 17L48 16L45 16L45 17L44 17L44 15L43 15L43 14ZM37 16L37 17L38 17L38 16ZM15 17L15 18L16 18L16 17ZM1 18L1 19L2 19L2 18ZM19 18L19 19L20 19L20 18ZM37 18L37 19L38 19L38 18ZM45 20L45 21L46 21L46 20ZM29 21L29 22L30 22L30 23L29 23L29 25L30 25L30 24L32 24L32 23L31 23L31 22L30 22L30 21ZM48 22L48 23L47 23L47 24L48 24L48 23L49 23L49 22ZM13 23L13 24L14 24L14 23ZM1 24L1 25L0 25L0 26L1 26L1 25L2 25L2 24ZM49 24L49 25L50 25L50 24ZM51 24L51 25L52 25L52 24ZM5 25L5 28L8 28L8 25ZM25 25L25 28L28 28L28 25ZM45 25L45 28L48 28L48 25ZM6 26L6 27L7 27L7 26ZM26 26L26 27L27 27L27 26ZM29 26L29 29L30 29L30 26ZM31 26L31 27L32 27L32 26ZM39 26L39 27L40 27L40 26ZM46 26L46 27L47 27L47 26ZM12 27L12 28L13 28L13 30L14 30L14 28L13 28L13 27ZM39 28L39 29L40 29L40 28ZM51 28L51 30L52 30L52 29L53 29L53 28ZM11 29L11 30L10 30L10 32L11 32L11 33L12 33L12 34L9 34L9 35L10 35L10 36L11 36L11 37L14 37L14 35L15 35L15 37L22 37L22 39L21 39L21 38L20 38L20 40L22 40L22 41L21 41L21 43L23 43L23 42L22 42L22 41L24 41L24 40L23 40L23 37L22 37L22 36L21 36L21 33L22 33L22 32L21 32L21 33L18 33L18 32L17 32L17 31L18 31L18 30L17 30L17 31L15 31L15 32L17 32L17 33L18 33L18 34L17 34L17 35L19 35L19 36L16 36L16 35L15 35L15 34L16 34L16 33L15 33L15 34L14 34L14 33L13 33L13 32L14 32L14 31L11 31L11 30L12 30L12 29ZM3 30L3 31L4 31L4 33L3 33L3 34L5 34L5 35L7 35L7 34L6 34L6 33L7 33L7 32L5 32L5 31L7 31L7 30ZM21 30L21 31L22 31L22 30ZM25 30L25 31L26 31L26 30ZM33 30L33 31L34 31L34 30ZM8 31L8 32L9 32L9 31ZM23 32L23 34L24 34L24 33L26 33L26 32ZM38 33L38 34L39 34L39 33ZM50 33L50 34L51 34L51 33ZM12 34L12 35L14 35L14 34ZM19 34L19 35L20 35L20 34ZM24 36L24 37L25 37L25 39L27 39L27 38L30 38L30 39L29 39L29 42L31 42L31 41L32 41L32 42L33 42L33 41L34 41L34 40L35 40L35 42L36 42L36 41L37 41L37 42L38 42L38 41L37 41L37 39L36 39L36 40L35 40L35 39L32 39L32 36L31 36L31 37L25 37L25 36ZM35 36L35 37L39 37L39 36ZM42 36L42 37L43 37L43 38L44 38L44 36ZM41 38L41 39L42 39L42 38ZM13 39L13 40L14 40L14 39ZM31 39L31 40L32 40L32 41L33 41L33 40L32 40L32 39ZM25 40L25 41L26 41L26 40ZM42 41L42 42L44 42L44 41ZM2 42L2 43L3 43L3 42ZM19 42L19 43L20 43L20 42ZM27 42L27 43L28 43L28 42ZM8 44L8 45L9 45L9 44ZM49 44L49 47L50 47L50 48L51 48L51 47L50 47L50 44ZM25 45L25 48L28 48L28 45ZM39 45L39 46L40 46L40 47L42 47L42 46L41 46L41 45ZM45 45L45 48L48 48L48 45ZM10 46L10 48L11 48L11 46ZM26 46L26 47L27 47L27 46ZM46 46L46 47L47 47L47 46ZM30 47L30 48L31 48L31 47ZM47 49L47 50L49 50L49 49ZM14 51L14 52L15 52L15 51ZM0 0L0 7L7 7L7 0ZM1 1L1 6L6 6L6 1ZM2 2L2 5L5 5L5 2ZM46 0L46 7L53 7L53 0ZM47 1L47 6L52 6L52 1ZM48 2L48 5L51 5L51 2ZM0 46L0 53L7 53L7 46ZM1 47L1 52L6 52L6 47ZM2 48L2 51L5 51L5 48Z" fill="#000000"/></g></g></svg>
