<?xml version="1.0" encoding="UTF-8"?>
<svg xmlns="http://www.w3.org/2000/svg" version="1.1" width="356" height="356" viewBox="0 0 356 356"><rect x="0" y="0" width="356" height="356" fill="#ffffff"/><g transform="scale(6.717)"><g transform="translate(0,0)"><path fill-rule="evenodd" d="M14 0L14 1L13 1L13 2L12 2L12 1L8 1L8 3L9 3L9 4L8 4L8 8L6 8L6 9L5 9L5 10L4 10L4 8L3 8L3 9L2 9L2 8L0 8L0 10L1 10L1 12L2 12L2 13L0 13L0 15L2 15L2 17L3 17L3 19L4 19L4 18L6 18L6 19L7 19L7 20L6 20L6 21L5 21L5 20L4 20L4 22L6 22L6 23L8 23L8 24L5 24L5 23L4 23L4 26L2 26L2 25L1 25L1 22L2 22L2 21L1 21L1 20L2 20L2 19L1 19L1 18L0 18L0 27L1 27L1 28L0 28L0 29L1 29L1 28L2 28L2 29L4 29L4 31L2 31L2 32L3 32L3 33L4 33L4 34L2 34L2 33L1 33L1 32L0 32L0 34L2 34L2 35L1 35L1 36L0 36L0 40L1 40L1 41L0 41L0 43L1 43L1 44L3 44L3 45L4 45L4 44L3 44L3 43L7 43L7 44L6 44L6 45L7 45L7 44L8 44L8 47L9 47L9 46L10 46L10 47L13 47L13 46L14 46L14 47L15 47L15 48L14 48L14 50L13 50L13 49L12 49L12 51L11 51L11 52L12 52L12 51L14 51L14 50L15 50L15 48L16 48L16 49L17 49L17 48L18 48L18 49L21 49L21 50L23 50L23 51L21 51L21 52L20 52L20 50L19 50L19 52L17 52L17 51L18 51L18 50L17 50L17 51L16 51L16 53L19 53L19 52L20 52L20 53L22 53L22 52L23 52L23 53L25 53L25 52L23 52L23 51L26 51L26 52L27 52L27 53L28 53L28 52L27 52L27 51L31 51L31 52L30 52L30 53L31 53L31 52L32 52L32 53L33 53L33 52L34 52L34 53L37 53L37 52L39 52L39 51L40 51L40 52L41 52L41 53L43 53L43 52L41 52L41 51L44 51L44 49L45 49L45 50L46 50L46 49L47 49L47 50L48 50L48 51L47 51L47 52L46 52L46 53L47 53L47 52L48 52L48 53L49 53L49 52L48 52L48 51L50 51L50 48L51 48L51 47L52 47L52 46L53 46L53 45L49 45L49 44L50 44L50 43L51 43L51 44L52 44L52 43L53 43L53 42L52 42L52 41L53 41L53 37L52 37L52 33L53 33L53 28L52 28L52 30L51 30L51 28L49 28L49 26L50 26L50 25L49 25L49 24L47 24L47 23L46 23L46 22L44 22L44 21L46 21L46 20L45 20L45 17L46 17L46 16L47 16L47 15L48 15L48 17L47 17L47 18L48 18L48 17L49 17L49 19L47 19L47 20L48 20L48 21L47 21L47 22L49 22L49 21L50 21L50 24L52 24L52 22L51 22L51 20L52 20L52 21L53 21L53 20L52 20L52 19L53 19L53 18L52 18L52 17L53 17L53 16L52 16L52 17L51 17L51 18L50 18L50 15L49 15L49 14L50 14L50 13L51 13L51 11L52 11L52 13L53 13L53 11L52 11L52 10L51 10L51 9L52 9L52 8L50 8L50 9L49 9L49 8L46 8L46 9L47 9L47 11L43 11L43 10L44 10L44 9L45 9L45 6L44 6L44 7L43 7L43 3L44 3L44 4L45 4L45 3L44 3L44 1L43 1L43 0L29 0L29 1L28 1L28 0L26 0L26 1L25 1L25 0L22 0L22 3L23 3L23 2L26 2L26 1L27 1L27 2L28 2L28 3L29 3L29 1L32 1L32 3L33 3L33 5L32 5L32 4L27 4L27 3L26 3L26 4L22 4L22 5L21 5L21 3L20 3L20 8L21 8L21 9L20 9L20 10L19 10L19 11L20 11L20 10L22 10L22 11L21 11L21 14L24 14L24 15L26 15L26 14L25 14L25 13L24 13L24 11L26 11L26 12L29 12L29 11L28 11L28 10L27 10L27 11L26 11L26 10L24 10L24 9L29 9L29 8L30 8L30 9L32 9L32 10L33 10L33 9L34 9L34 8L36 8L36 12L35 12L35 11L30 11L30 12L31 12L31 13L32 13L32 15L31 15L31 14L30 14L30 15L29 15L29 14L28 14L28 13L27 13L27 15L29 15L29 17L28 17L28 16L23 16L23 15L20 15L20 13L19 13L19 12L18 12L18 11L17 11L17 13L16 13L16 14L15 14L15 12L16 12L16 9L17 9L17 10L18 10L18 9L17 9L17 8L19 8L19 5L13 5L13 6L12 6L12 4L11 4L11 6L10 6L10 5L9 5L9 4L10 4L10 2L11 2L11 3L13 3L13 4L14 4L14 3L16 3L16 4L17 4L17 3L16 3L16 0ZM17 0L17 1L19 1L19 2L20 2L20 1L21 1L21 0L20 0L20 1L19 1L19 0ZM14 1L14 2L13 2L13 3L14 3L14 2L15 2L15 1ZM33 1L33 2L35 2L35 1ZM39 1L39 2L37 2L37 3L35 3L35 4L34 4L34 5L35 5L35 4L37 4L37 7L36 7L36 6L35 6L35 7L36 7L36 8L37 8L37 11L38 11L38 12L37 12L37 13L35 13L35 14L36 14L36 15L35 15L35 16L34 16L34 17L32 17L32 16L30 16L30 17L29 17L29 18L30 18L30 19L29 19L29 20L28 20L28 19L27 19L27 18L26 18L26 20L25 20L25 17L23 17L23 16L21 16L21 18L22 18L22 19L23 19L23 20L25 20L25 21L23 21L23 22L24 22L24 23L22 23L22 22L21 22L21 19L19 19L19 21L18 21L18 20L17 20L17 19L18 19L18 18L19 18L19 17L20 17L20 16L19 16L19 15L17 15L17 16L16 16L16 15L15 15L15 16L12 16L12 15L13 15L13 13L14 13L14 12L15 12L15 11L14 11L14 10L15 10L15 7L16 7L16 6L15 6L15 7L14 7L14 6L13 6L13 7L12 7L12 6L11 6L11 8L10 8L10 9L9 9L9 8L8 8L8 9L9 9L9 10L11 10L11 11L12 11L12 10L11 10L11 9L12 9L12 8L13 8L13 11L14 11L14 12L13 12L13 13L12 13L12 15L11 15L11 17L15 17L15 19L14 19L14 20L11 20L11 19L12 19L12 18L9 18L9 17L10 17L10 13L9 13L9 14L8 14L8 15L9 15L9 17L8 17L8 16L7 16L7 15L5 15L5 14L7 14L7 13L8 13L8 12L9 12L9 11L6 11L6 12L7 12L7 13L5 13L5 12L4 12L4 11L3 11L3 10L2 10L2 12L4 12L4 13L5 13L5 14L3 14L3 13L2 13L2 14L3 14L3 15L4 15L4 16L3 16L3 17L5 17L5 16L7 16L7 17L6 17L6 18L9 18L9 19L10 19L10 21L8 21L8 20L7 20L7 21L6 21L6 22L9 22L9 24L10 24L10 25L9 25L9 28L10 28L10 29L11 29L11 28L10 28L10 27L11 27L11 26L12 26L12 29L13 29L13 30L11 30L11 32L10 32L10 31L8 31L8 29L5 29L5 31L4 31L4 33L5 33L5 34L4 34L4 35L3 35L3 36L4 36L4 35L5 35L5 34L8 34L8 35L6 35L6 36L5 36L5 37L3 37L3 39L2 39L2 40L3 40L3 41L5 41L5 42L7 42L7 41L6 41L6 40L8 40L8 42L9 42L9 43L8 43L8 44L9 44L9 43L11 43L11 42L9 42L9 40L8 40L8 37L9 37L9 38L13 38L13 39L10 39L10 40L11 40L11 41L12 41L12 42L14 42L14 41L12 41L12 40L16 40L16 42L17 42L17 43L22 43L22 44L25 44L25 43L26 43L26 44L28 44L28 43L29 43L29 46L31 46L31 48L32 48L32 46L34 46L34 48L33 48L33 49L29 49L29 50L31 50L31 51L32 51L32 52L33 52L33 51L34 51L34 49L35 49L35 51L36 51L36 52L37 52L37 51L39 51L39 49L38 49L38 50L37 50L37 49L35 49L35 48L39 48L39 47L41 47L41 50L40 50L40 51L41 51L41 50L43 50L43 49L44 49L44 48L42 48L42 47L41 47L41 46L44 46L44 44L45 44L45 42L44 42L44 44L43 44L43 43L42 43L42 45L41 45L41 46L39 46L39 44L40 44L40 43L39 43L39 42L41 42L41 40L40 40L40 41L39 41L39 39L42 39L42 40L44 40L44 41L46 41L46 39L45 39L45 40L44 40L44 38L50 38L50 39L47 39L47 40L51 40L51 41L48 41L48 43L46 43L46 44L49 44L49 42L51 42L51 41L52 41L52 40L51 40L51 38L50 38L50 37L51 37L51 36L50 36L50 35L51 35L51 34L50 34L50 33L49 33L49 32L48 32L48 33L47 33L47 34L46 34L46 33L45 33L45 32L47 32L47 31L45 31L45 32L44 32L44 30L46 30L46 29L43 29L43 28L41 28L41 27L40 27L40 26L42 26L42 27L43 27L43 26L44 26L44 24L45 24L45 23L44 23L44 22L43 22L43 21L42 21L42 20L41 20L41 19L42 19L42 18L44 18L44 17L45 17L45 15L46 15L46 13L44 13L44 12L42 12L42 11L41 11L41 10L43 10L43 7L42 7L42 5L41 5L41 4L42 4L42 3L43 3L43 2L42 2L42 3L41 3L41 1ZM39 2L39 3L37 3L37 4L38 4L38 7L37 7L37 8L38 8L38 7L39 7L39 10L38 10L38 11L39 11L39 14L38 14L38 13L37 13L37 14L38 14L38 15L37 15L37 16L35 16L35 17L37 17L37 16L38 16L38 15L39 15L39 17L38 17L38 20L36 20L36 21L35 21L35 20L34 20L34 19L32 19L32 20L29 20L29 21L31 21L31 22L29 22L29 23L30 23L30 24L27 24L27 23L28 23L28 22L27 22L27 21L28 21L28 20L27 20L27 21L26 21L26 22L25 22L25 23L26 23L26 24L22 24L22 25L21 25L21 24L20 24L20 23L21 23L21 22L20 22L20 23L18 23L18 22L16 22L16 23L15 23L15 21L14 21L14 22L13 22L13 21L10 21L10 24L11 24L11 25L10 25L10 26L11 26L11 25L13 25L13 26L14 26L14 25L15 25L15 27L13 27L13 29L15 29L15 28L16 28L16 29L19 29L19 30L18 30L18 31L19 31L19 30L20 30L20 31L21 31L21 34L20 34L20 32L16 32L16 31L17 31L17 30L15 30L15 31L14 31L14 30L13 30L13 31L12 31L12 33L13 33L13 35L11 35L11 37L12 37L12 36L13 36L13 38L14 38L14 37L15 37L15 34L14 34L14 33L15 33L15 32L16 32L16 36L17 36L17 37L16 37L16 38L15 38L15 39L16 39L16 40L17 40L17 41L18 41L18 40L19 40L19 41L21 41L21 40L19 40L19 39L16 39L16 38L19 38L19 37L20 37L20 36L21 36L21 37L22 37L22 39L24 39L24 40L23 40L23 42L22 42L22 43L23 43L23 42L24 42L24 43L25 43L25 42L26 42L26 43L28 43L28 42L30 42L30 41L28 41L28 40L27 40L27 39L28 39L28 37L31 37L31 38L29 38L29 40L30 40L30 39L31 39L31 40L32 40L32 41L31 41L31 43L30 43L30 44L31 44L31 46L32 46L32 43L33 43L33 44L34 44L34 45L35 45L35 44L36 44L36 45L37 45L37 44L39 44L39 43L37 43L37 42L36 42L36 41L38 41L38 42L39 42L39 41L38 41L38 39L39 39L39 38L38 38L38 37L39 37L39 34L40 34L40 38L42 38L42 37L41 37L41 36L44 36L44 35L46 35L46 34L44 34L44 35L42 35L42 33L43 33L43 32L42 32L42 31L43 31L43 30L42 30L42 29L40 29L40 27L36 27L36 26L35 26L35 25L37 25L37 26L38 26L38 25L39 25L39 26L40 26L40 25L41 25L41 24L40 24L40 23L42 23L42 22L41 22L41 20L40 20L40 19L41 19L41 18L42 18L42 17L40 17L40 16L42 16L42 15L43 15L43 14L44 14L44 13L43 13L43 14L41 14L41 15L39 15L39 14L40 14L40 13L41 13L41 12L40 12L40 11L39 11L39 10L41 10L41 9L42 9L42 7L41 7L41 5L40 5L40 2ZM22 5L22 6L21 6L21 8L23 8L23 9L22 9L22 10L23 10L23 11L22 11L22 12L23 12L23 11L24 11L24 10L23 10L23 9L24 9L24 8L23 8L23 7L24 7L24 5ZM25 5L25 8L28 8L28 5ZM30 5L30 6L29 6L29 7L30 7L30 8L32 8L32 9L33 9L33 8L32 8L32 6L31 6L31 5ZM39 5L39 7L40 7L40 8L41 8L41 7L40 7L40 5ZM9 6L9 7L10 7L10 6ZM17 6L17 7L18 7L18 6ZM22 6L22 7L23 7L23 6ZM26 6L26 7L27 7L27 6ZM30 6L30 7L31 7L31 6ZM33 6L33 7L34 7L34 6ZM13 7L13 8L14 8L14 7ZM6 9L6 10L7 10L7 9ZM50 10L50 11L49 11L49 12L50 12L50 11L51 11L51 10ZM33 13L33 14L34 14L34 13ZM47 13L47 14L48 14L48 13ZM51 14L51 15L53 15L53 14ZM18 16L18 17L16 17L16 18L18 18L18 17L19 17L19 16ZM43 16L43 17L44 17L44 16ZM22 17L22 18L23 18L23 17ZM31 17L31 18L32 18L32 17ZM36 18L36 19L37 19L37 18ZM49 19L49 20L51 20L51 19ZM32 20L32 21L33 21L33 22L31 22L31 23L32 23L32 24L33 24L33 25L32 25L32 26L31 26L31 25L30 25L30 26L29 26L29 29L30 29L30 30L29 30L29 32L32 32L32 34L31 34L31 33L29 33L29 34L27 34L27 32L28 32L28 29L26 29L26 30L27 30L27 32L26 32L26 31L24 31L24 30L22 30L22 29L24 29L24 28L23 28L23 27L24 27L24 25L23 25L23 27L22 27L22 29L21 29L21 28L20 28L20 26L19 26L19 25L20 25L20 24L18 24L18 23L17 23L17 24L18 24L18 26L17 26L17 27L16 27L16 28L18 28L18 26L19 26L19 29L21 29L21 30L22 30L22 34L21 34L21 35L22 35L22 34L23 34L23 36L24 36L24 37L23 37L23 38L24 38L24 37L25 37L25 36L24 36L24 35L25 35L25 34L26 34L26 36L30 36L30 35L31 35L31 37L32 37L32 39L33 39L33 38L34 38L34 39L35 39L35 38L34 38L34 37L35 37L35 36L37 36L37 37L38 37L38 35L34 35L34 34L39 34L39 32L40 32L40 30L39 30L39 31L38 31L38 29L39 29L39 28L38 28L38 29L36 29L36 27L35 27L35 29L34 29L34 28L33 28L33 27L32 27L32 26L34 26L34 25L35 25L35 24L34 24L34 23L33 23L33 22L35 22L35 21L33 21L33 20ZM38 20L38 21L36 21L36 22L37 22L37 23L36 23L36 24L39 24L39 23L40 23L40 22L39 22L39 20ZM11 22L11 23L12 23L12 24L13 24L13 25L14 25L14 23L12 23L12 22ZM26 22L26 23L27 23L27 22ZM38 22L38 23L39 23L39 22ZM2 23L2 24L3 24L3 23ZM43 23L43 24L44 24L44 23ZM5 25L5 28L8 28L8 25ZM25 25L25 28L28 28L28 25ZM45 25L45 28L48 28L48 25ZM51 25L51 27L53 27L53 25ZM1 26L1 27L2 27L2 28L4 28L4 27L2 27L2 26ZM6 26L6 27L7 27L7 26ZM26 26L26 27L27 27L27 26ZM46 26L46 27L47 27L47 26ZM31 27L31 28L32 28L32 29L31 29L31 30L32 30L32 31L33 31L33 32L34 32L34 31L33 31L33 28L32 28L32 27ZM35 29L35 30L36 30L36 32L35 32L35 33L37 33L37 32L38 32L38 31L37 31L37 30L36 30L36 29ZM48 29L48 30L50 30L50 29ZM0 30L0 31L1 31L1 30ZM6 30L6 31L5 31L5 32L6 32L6 33L8 33L8 31L7 31L7 30ZM41 30L41 31L42 31L42 30ZM6 31L6 32L7 32L7 31ZM13 31L13 32L14 32L14 31ZM50 31L50 32L51 32L51 33L52 33L52 31ZM25 32L25 33L24 33L24 34L25 34L25 33L26 33L26 32ZM41 32L41 33L42 33L42 32ZM17 33L17 34L19 34L19 35L20 35L20 34L19 34L19 33ZM47 34L47 35L48 35L48 36L49 36L49 35L50 35L50 34ZM9 35L9 37L10 37L10 35ZM17 35L17 36L18 36L18 35ZM33 35L33 36L32 36L32 37L34 37L34 35ZM1 36L1 37L2 37L2 36ZM6 36L6 37L8 37L8 36ZM46 36L46 37L47 37L47 36ZM26 37L26 38L25 38L25 39L27 39L27 37ZM43 37L43 38L44 38L44 37ZM6 38L6 39L7 39L7 38ZM36 38L36 40L37 40L37 39L38 39L38 38ZM3 39L3 40L5 40L5 39ZM25 40L25 41L26 41L26 42L27 42L27 41L26 41L26 40ZM33 40L33 41L32 41L32 42L33 42L33 43L34 43L34 44L35 44L35 40ZM1 41L1 42L2 42L2 43L3 43L3 42L2 42L2 41ZM42 41L42 42L43 42L43 41ZM12 43L12 44L11 44L11 45L12 45L12 46L13 46L13 43ZM14 43L14 46L15 46L15 47L16 47L16 46L17 46L17 47L18 47L18 48L19 48L19 47L20 47L20 46L21 46L21 44L20 44L20 45L18 45L18 44L15 44L15 43ZM17 45L17 46L18 46L18 47L19 47L19 46L18 46L18 45ZM25 45L25 48L28 48L28 45ZM45 45L45 48L48 48L48 45ZM23 46L23 47L24 47L24 46ZM26 46L26 47L27 47L27 46ZM35 46L35 47L36 47L36 46ZM37 46L37 47L38 47L38 46ZM46 46L46 47L47 47L47 46ZM50 46L50 47L49 47L49 48L50 48L50 47L51 47L51 46ZM10 48L10 49L8 49L8 50L9 50L9 51L8 51L8 53L9 53L9 51L10 51L10 50L11 50L11 48ZM22 48L22 49L23 49L23 50L24 50L24 48ZM25 49L25 50L28 50L28 49ZM51 49L51 53L52 53L52 50L53 50L53 49ZM32 50L32 51L33 51L33 50ZM0 0L0 7L7 7L7 0ZM1 1L1 6L6 6L6 1ZM2 2L2 5L5 5L5 2ZM46 0L46 7L53 7L53 0ZM47 1L47 6L52 6L52 1ZM48 2L48 5L51 5L51 2ZM0 46L0 53L7 53L7 46ZM1 47L1 52L6 52L6 47ZM2 48L2 51L5 51L5 48Z" fill="#000000"/></g></g></svg>
