<?xml version="1.0" encoding="UTF-8"?>
<svg xmlns="http://www.w3.org/2000/svg" version="1.1" width="356" height="356" viewBox="0 0 356 356"><rect x="0" y="0" width="356" height="356" fill="#ffffff"/><g transform="scale(6.717)"><g transform="translate(0,0)"><path fill-rule="evenodd" d="M8 0L8 2L9 2L9 4L8 4L8 9L7 9L7 8L5 8L5 9L7 9L7 10L6 10L6 11L5 11L5 10L4 10L4 9L3 9L3 8L0 8L0 9L1 9L1 12L2 12L2 13L3 13L3 14L1 14L1 13L0 13L0 14L1 14L1 16L0 16L0 17L1 17L1 16L2 16L2 18L1 18L1 19L0 19L0 20L1 20L1 21L0 21L0 23L1 23L1 22L2 22L2 24L1 24L1 26L0 26L0 28L2 28L2 27L1 27L1 26L3 26L3 29L0 29L0 31L1 31L1 30L2 30L2 33L3 33L3 34L4 34L4 35L3 35L3 36L1 36L1 38L2 38L2 39L0 39L0 40L2 40L2 41L0 41L0 43L1 43L1 44L3 44L3 45L4 45L4 44L3 44L3 43L7 43L7 44L6 44L6 45L8 45L8 46L9 46L9 47L8 47L8 48L9 48L9 47L11 47L11 49L12 49L12 50L10 50L10 52L9 52L9 50L8 50L8 53L11 53L11 51L13 51L13 53L16 53L16 52L18 52L18 53L19 53L19 52L18 52L18 49L19 49L19 48L18 48L18 47L19 47L19 46L20 46L20 47L21 47L21 46L23 46L23 47L22 47L22 48L23 48L23 50L20 50L20 51L21 51L21 52L20 52L20 53L21 53L21 52L22 52L22 53L23 53L23 51L25 51L25 49L27 49L27 52L28 52L28 53L31 53L31 52L30 52L30 51L29 51L29 52L28 52L28 49L29 49L29 46L30 46L30 47L31 47L31 48L32 48L32 49L33 49L33 51L32 51L32 50L31 50L31 51L32 51L32 53L33 53L33 52L34 52L34 53L35 53L35 51L38 51L38 52L36 52L36 53L39 53L39 51L38 51L38 49L37 49L37 47L35 47L35 46L34 46L34 45L35 45L35 43L36 43L36 46L38 46L38 45L39 45L39 44L38 44L38 43L37 43L37 42L36 42L36 41L39 41L39 43L41 43L41 44L40 44L40 46L39 46L39 47L40 47L40 53L42 53L42 52L44 52L44 53L46 53L46 51L47 51L47 49L48 49L48 51L49 51L49 52L47 52L47 53L49 53L49 52L50 52L50 51L51 51L51 50L50 50L50 49L49 49L49 48L50 48L50 46L52 46L52 47L51 47L51 49L52 49L52 47L53 47L53 46L52 46L52 44L53 44L53 42L52 42L52 44L50 44L50 42L51 42L51 40L50 40L50 39L51 39L51 37L50 37L50 34L51 34L51 33L53 33L53 29L52 29L52 27L53 27L53 26L52 26L52 27L51 27L51 28L50 28L50 27L49 27L49 26L50 26L50 23L51 23L51 21L53 21L53 18L52 18L52 20L51 20L51 21L49 21L49 20L50 20L50 19L51 19L51 17L50 17L50 16L49 16L49 15L51 15L51 14L50 14L50 13L52 13L52 16L53 16L53 10L52 10L52 9L53 9L53 8L51 8L51 9L50 9L50 10L49 10L49 8L45 8L45 6L44 6L44 7L43 7L43 3L44 3L44 4L45 4L45 3L44 3L44 1L43 1L43 0L42 0L42 2L40 2L40 1L39 1L39 0L38 0L38 1L37 1L37 0L36 0L36 2L35 2L35 0L34 0L34 1L33 1L33 0L32 0L32 2L31 2L31 3L30 3L30 1L31 1L31 0L30 0L30 1L29 1L29 2L26 2L26 0L24 0L24 1L23 1L23 0L22 0L22 1L21 1L21 0L18 0L18 1L16 1L16 2L18 2L18 1L19 1L19 4L20 4L20 5L18 5L18 3L15 3L15 5L16 5L16 7L17 7L17 6L18 6L18 8L19 8L19 12L18 12L18 10L16 10L16 11L17 11L17 12L18 12L18 14L16 14L16 12L15 12L15 10L14 10L14 9L15 9L15 8L14 8L14 7L15 7L15 6L14 6L14 7L13 7L13 6L12 6L12 4L11 4L11 6L10 6L10 7L9 7L9 5L10 5L10 3L12 3L12 2L14 2L14 1L15 1L15 0L13 0L13 1L12 1L12 0L11 0L11 2L9 2L9 1L10 1L10 0ZM20 1L20 2L21 2L21 3L22 3L22 5L20 5L20 6L19 6L19 8L20 8L20 6L21 6L21 7L22 7L22 6L23 6L23 7L24 7L24 4L25 4L25 1L24 1L24 3L22 3L22 2L23 2L23 1L22 1L22 2L21 2L21 1ZM38 1L38 2L36 2L36 5L35 5L35 7L34 7L34 6L33 6L33 9L34 9L34 10L35 10L35 9L36 9L36 8L37 8L37 9L38 9L38 10L37 10L37 14L36 14L36 11L34 11L34 12L35 12L35 13L34 13L34 14L33 14L33 13L32 13L32 12L33 12L33 10L31 10L31 9L32 9L32 5L33 5L33 2L32 2L32 5L30 5L30 4L29 4L29 3L28 3L28 4L29 4L29 5L30 5L30 6L29 6L29 8L30 8L30 10L29 10L29 9L28 9L28 10L27 10L27 9L26 9L26 10L25 10L25 9L24 9L24 8L23 8L23 9L22 9L22 8L21 8L21 10L20 10L20 11L22 11L22 10L23 10L23 11L24 11L24 13L23 13L23 14L22 14L22 15L21 15L21 16L22 16L22 15L23 15L23 14L24 14L24 16L23 16L23 17L25 17L25 18L22 18L22 19L20 19L20 18L21 18L21 17L20 17L20 14L21 14L21 13L22 13L22 12L20 12L20 14L19 14L19 15L18 15L18 16L19 16L19 17L18 17L18 18L19 18L19 20L21 20L21 21L20 21L20 22L19 22L19 21L18 21L18 19L17 19L17 18L16 18L16 19L17 19L17 20L16 20L16 23L14 23L14 24L15 24L15 25L14 25L14 26L15 26L15 28L16 28L16 30L11 30L11 27L9 27L9 28L10 28L10 29L4 29L4 30L5 30L5 31L4 31L4 34L5 34L5 31L6 31L6 32L7 32L7 33L6 33L6 34L8 34L8 35L5 35L5 36L4 36L4 37L5 37L5 38L4 38L4 39L5 39L5 40L4 40L4 41L5 41L5 42L7 42L7 41L5 41L5 40L7 40L7 39L8 39L8 40L10 40L10 42L9 42L9 41L8 41L8 42L9 42L9 43L11 43L11 44L12 44L12 43L15 43L15 44L13 44L13 46L12 46L12 45L10 45L10 46L11 46L11 47L12 47L12 49L13 49L13 51L15 51L15 49L14 49L14 48L13 48L13 47L14 47L14 46L15 46L15 44L16 44L16 47L15 47L15 48L16 48L16 47L17 47L17 46L19 46L19 45L20 45L20 46L21 46L21 45L20 45L20 44L19 44L19 45L18 45L18 43L19 43L19 40L18 40L18 39L19 39L19 38L22 38L22 36L21 36L21 35L22 35L22 34L23 34L23 33L24 33L24 32L25 32L25 33L26 33L26 35L25 35L25 37L26 37L26 38L28 38L28 42L27 42L27 41L26 41L26 39L24 39L24 40L23 40L23 39L22 39L22 40L23 40L23 41L22 41L22 42L20 42L20 43L21 43L21 44L23 44L23 45L24 45L24 43L25 43L25 42L26 42L26 44L27 44L27 43L28 43L28 44L29 44L29 43L30 43L30 42L31 42L31 44L30 44L30 46L32 46L32 48L34 48L34 50L36 50L36 49L35 49L35 47L33 47L33 46L32 46L32 39L33 39L33 40L34 40L34 39L35 39L35 41L34 41L34 43L33 43L33 44L34 44L34 43L35 43L35 41L36 41L36 40L39 40L39 41L40 41L40 42L41 42L41 43L42 43L42 44L41 44L41 45L42 45L42 46L40 46L40 47L42 47L42 48L41 48L41 49L42 49L42 50L41 50L41 52L42 52L42 51L44 51L44 52L45 52L45 51L44 51L44 50L46 50L46 49L44 49L44 50L43 50L43 49L42 49L42 48L44 48L44 46L43 46L43 43L44 43L44 44L45 44L45 41L46 41L46 42L47 42L47 41L46 41L46 40L47 40L47 39L46 39L46 36L47 36L47 35L48 35L48 34L49 34L49 33L51 33L51 31L50 31L50 30L51 30L51 29L50 29L50 30L49 30L49 29L48 29L48 30L47 30L47 31L46 31L46 30L45 30L45 29L44 29L44 30L43 30L43 29L42 29L42 30L41 30L41 31L40 31L40 30L39 30L39 29L40 29L40 28L41 28L41 26L40 26L40 25L39 25L39 23L41 23L41 25L42 25L42 28L44 28L44 26L43 26L43 25L44 25L44 24L46 24L46 23L47 23L47 24L49 24L49 23L50 23L50 22L48 22L48 20L49 20L49 19L50 19L50 17L48 17L48 19L47 19L47 17L46 17L46 14L48 14L48 9L46 9L46 10L47 10L47 13L46 13L46 14L45 14L45 13L44 13L44 14L43 14L43 11L44 11L44 12L45 12L45 11L44 11L44 10L45 10L45 8L44 8L44 10L43 10L43 8L42 8L42 10L43 10L43 11L39 11L39 10L40 10L40 8L41 8L41 7L42 7L42 6L41 6L41 7L40 7L40 6L39 6L39 7L38 7L38 4L39 4L39 5L40 5L40 4L41 4L41 5L42 5L42 3L43 3L43 2L42 2L42 3L40 3L40 2L39 2L39 1ZM34 2L34 3L35 3L35 2ZM38 2L38 3L39 3L39 4L40 4L40 3L39 3L39 2ZM25 5L25 8L28 8L28 5ZM36 5L36 7L37 7L37 5ZM11 6L11 7L10 7L10 8L9 8L9 9L8 9L8 10L7 10L7 11L6 11L6 12L3 12L3 13L5 13L5 14L7 14L7 15L6 15L6 16L7 16L7 17L5 17L5 15L4 15L4 14L3 14L3 16L4 16L4 17L5 17L5 18L8 18L8 19L10 19L10 18L11 18L11 17L10 17L10 13L11 13L11 12L14 12L14 10L13 10L13 11L12 11L12 10L11 10L11 7L12 7L12 9L13 9L13 7L12 7L12 6ZM26 6L26 7L27 7L27 6ZM30 6L30 8L31 8L31 6ZM39 7L39 8L38 8L38 9L39 9L39 8L40 8L40 7ZM16 8L16 9L17 9L17 8ZM2 9L2 11L3 11L3 9ZM9 9L9 10L8 10L8 15L7 15L7 16L8 16L8 18L10 18L10 17L9 17L9 12L11 12L11 11L9 11L9 10L10 10L10 9ZM24 10L24 11L25 11L25 13L24 13L24 14L26 14L26 15L25 15L25 17L27 17L27 18L26 18L26 19L25 19L25 21L24 21L24 22L23 22L23 24L22 24L22 21L23 21L23 20L24 20L24 19L22 19L22 21L21 21L21 22L20 22L20 24L19 24L19 23L18 23L18 24L19 24L19 26L18 26L18 27L17 27L17 26L16 26L16 27L17 27L17 28L18 28L18 29L19 29L19 28L21 28L21 27L22 27L22 29L23 29L23 31L22 31L22 32L24 32L24 31L25 31L25 32L26 32L26 33L27 33L27 32L28 32L28 31L29 31L29 32L30 32L30 31L29 31L29 28L30 28L30 29L31 29L31 28L32 28L32 30L31 30L31 31L34 31L34 32L32 32L32 33L33 33L33 35L31 35L31 34L30 34L30 33L28 33L28 35L26 35L26 37L28 37L28 38L29 38L29 40L30 40L30 41L29 41L29 42L30 42L30 41L31 41L31 39L32 39L32 38L34 38L34 37L35 37L35 38L36 38L36 37L37 37L37 39L39 39L39 38L40 38L40 37L41 37L41 39L40 39L40 41L41 41L41 42L42 42L42 43L43 43L43 42L42 42L42 41L41 41L41 39L43 39L43 41L44 41L44 40L45 40L45 39L44 39L44 38L42 38L42 36L43 36L43 37L45 37L45 34L46 34L46 35L47 35L47 34L48 34L48 32L50 32L50 31L49 31L49 30L48 30L48 32L47 32L47 34L46 34L46 33L45 33L45 32L46 32L46 31L45 31L45 30L44 30L44 31L43 31L43 30L42 30L42 31L43 31L43 34L44 34L44 36L43 36L43 35L42 35L42 36L40 36L40 37L39 37L39 36L38 36L38 35L37 35L37 34L38 34L38 33L39 33L39 32L40 32L40 33L42 33L42 32L40 32L40 31L39 31L39 30L38 30L38 29L37 29L37 28L39 28L39 27L40 27L40 26L38 26L38 24L36 24L36 22L37 22L37 23L39 23L39 22L38 22L38 21L39 21L39 20L38 20L38 21L37 21L37 20L36 20L36 19L38 19L38 17L37 17L37 16L38 16L38 15L37 15L37 16L36 16L36 14L34 14L34 17L33 17L33 15L32 15L32 18L30 18L30 15L29 15L29 14L30 14L30 13L31 13L31 14L32 14L32 13L31 13L31 12L32 12L32 11L31 11L31 10L30 10L30 13L28 13L28 12L29 12L29 10L28 10L28 12L27 12L27 14L26 14L26 11L27 11L27 10L26 10L26 11L25 11L25 10ZM50 10L50 12L49 12L49 13L50 13L50 12L51 12L51 11L52 11L52 10ZM38 11L38 12L39 12L39 11ZM6 12L6 13L7 13L7 12ZM40 12L40 13L39 13L39 16L40 16L40 18L39 18L39 19L40 19L40 22L41 22L41 20L42 20L42 21L43 21L43 24L42 24L42 25L43 25L43 24L44 24L44 23L46 23L46 20L47 20L47 19L46 19L46 17L45 17L45 15L44 15L44 17L43 17L43 19L41 19L41 18L42 18L42 16L43 16L43 14L42 14L42 12ZM12 13L12 14L13 14L13 16L12 16L12 15L11 15L11 16L12 16L12 17L13 17L13 19L14 19L14 20L15 20L15 19L14 19L14 18L15 18L15 16L14 16L14 15L16 15L16 14L13 14L13 13ZM27 14L27 15L26 15L26 16L27 16L27 17L28 17L28 16L27 16L27 15L28 15L28 14ZM40 14L40 16L42 16L42 15L41 15L41 14ZM35 16L35 17L34 17L34 19L33 19L33 18L32 18L32 19L31 19L31 20L30 20L30 18L29 18L29 19L28 19L28 18L27 18L27 19L26 19L26 20L27 20L27 21L28 21L28 22L26 22L26 24L28 24L28 22L29 22L29 25L30 25L30 26L29 26L29 27L30 27L30 28L31 28L31 25L32 25L32 28L34 28L34 30L36 30L36 27L38 27L38 26L37 26L37 25L36 25L36 24L34 24L34 26L33 26L33 25L32 25L32 23L33 23L33 22L32 22L32 19L33 19L33 21L34 21L34 23L35 23L35 22L36 22L36 20L35 20L35 21L34 21L34 19L35 19L35 18L37 18L37 17L36 17L36 16ZM44 17L44 18L45 18L45 17ZM3 18L3 19L2 19L2 22L3 22L3 21L4 21L4 18ZM6 19L6 20L5 20L5 23L3 23L3 24L2 24L2 25L3 25L3 26L4 26L4 24L9 24L9 25L10 25L10 26L11 26L11 25L12 25L12 29L13 29L13 28L14 28L14 27L13 27L13 23L12 23L12 22L13 22L13 21L12 21L12 20L11 20L11 21L10 21L10 20L9 20L9 21L8 21L8 20L7 20L7 19ZM27 19L27 20L28 20L28 19ZM43 19L43 20L44 20L44 22L45 22L45 20L46 20L46 19L45 19L45 20L44 20L44 19ZM6 20L6 21L7 21L7 22L6 22L6 23L10 23L10 24L12 24L12 23L10 23L10 22L8 22L8 21L7 21L7 20ZM29 20L29 22L30 22L30 23L32 23L32 22L30 22L30 20ZM11 21L11 22L12 22L12 21ZM17 21L17 22L18 22L18 21ZM47 22L47 23L48 23L48 22ZM52 22L52 23L53 23L53 22ZM16 23L16 25L17 25L17 23ZM24 23L24 24L25 24L25 23ZM30 24L30 25L31 25L31 24ZM52 24L52 25L53 25L53 24ZM5 25L5 28L8 28L8 25ZM21 25L21 26L20 26L20 27L21 27L21 26L22 26L22 27L23 27L23 28L24 28L24 25ZM25 25L25 28L28 28L28 25ZM35 25L35 26L34 26L34 28L35 28L35 27L36 27L36 25ZM45 25L45 28L48 28L48 25ZM6 26L6 27L7 27L7 26ZM26 26L26 27L27 27L27 26ZM46 26L46 27L47 27L47 26ZM25 29L25 31L26 31L26 32L27 32L27 31L26 31L26 29ZM27 29L27 30L28 30L28 29ZM6 30L6 31L7 31L7 32L9 32L9 33L10 33L10 32L11 32L11 34L12 34L12 33L13 33L13 32L11 32L11 30L8 30L8 31L7 31L7 30ZM16 30L16 32L15 32L15 31L14 31L14 32L15 32L15 34L13 34L13 35L11 35L11 36L13 36L13 35L15 35L15 36L14 36L14 37L13 37L13 39L11 39L11 42L12 42L12 41L13 41L13 42L14 42L14 41L15 41L15 40L16 40L16 41L17 41L17 39L15 39L15 38L16 38L16 36L17 36L17 35L16 35L16 34L18 34L18 38L19 38L19 34L18 34L18 33L19 33L19 32L18 32L18 31L21 31L21 30ZM37 31L37 32L38 32L38 31ZM20 32L20 33L21 33L21 32ZM34 32L34 36L33 36L33 37L34 37L34 36L35 36L35 37L36 37L36 36L37 36L37 35L36 35L36 34L37 34L37 33L36 33L36 34L35 34L35 32ZM0 33L0 35L2 35L2 34L1 34L1 33ZM44 33L44 34L45 34L45 33ZM20 34L20 35L21 35L21 34ZM52 34L52 35L53 35L53 34ZM8 35L8 36L6 36L6 37L8 37L8 39L9 39L9 38L10 38L10 35ZM23 35L23 36L24 36L24 35ZM28 35L28 37L30 37L30 38L31 38L31 35ZM35 35L35 36L36 36L36 35ZM48 36L48 38L49 38L49 39L48 39L48 40L49 40L49 39L50 39L50 37L49 37L49 36ZM14 37L14 38L15 38L15 37ZM38 37L38 38L39 38L39 37ZM52 37L52 39L53 39L53 37ZM5 38L5 39L7 39L7 38ZM2 39L2 40L3 40L3 39ZM14 39L14 40L15 40L15 39ZM20 39L20 40L21 40L21 39ZM52 40L52 41L53 41L53 40ZM2 41L2 43L3 43L3 41ZM24 41L24 42L22 42L22 43L24 43L24 42L25 42L25 41ZM48 41L48 43L47 43L47 44L48 44L48 43L49 43L49 42L50 42L50 41ZM16 42L16 43L18 43L18 42ZM8 44L8 45L9 45L9 44ZM37 44L37 45L38 45L38 44ZM49 44L49 46L50 46L50 44ZM25 45L25 48L28 48L28 45ZM45 45L45 48L48 48L48 45ZM26 46L26 47L27 47L27 46ZM42 46L42 47L43 47L43 46ZM46 46L46 47L47 47L47 46ZM20 48L20 49L21 49L21 48ZM16 50L16 51L17 51L17 50ZM49 50L49 51L50 51L50 50ZM24 52L24 53L26 53L26 52ZM52 52L52 53L53 53L53 52ZM0 0L0 7L7 7L7 0ZM1 1L1 6L6 6L6 1ZM2 2L2 5L5 5L5 2ZM46 0L46 7L53 7L53 0ZM47 1L47 6L52 6L52 1ZM48 2L48 5L51 5L51 2ZM0 46L0 53L7 53L7 46ZM1 47L1 52L6 52L6 47ZM2 48L2 51L5 51L5 48Z" fill="#000000"/></g></g></svg>
