<?xml version="1.0" encoding="UTF-8"?>
<svg xmlns="http://www.w3.org/2000/svg" version="1.1" width="356" height="356" viewBox="0 0 356 356"><rect x="0" y="0" width="356" height="356" fill="#ffffff"/><g transform="scale(6.717)"><g transform="translate(0,0)"><path fill-rule="evenodd" d="M8 0L8 2L9 2L9 3L12 3L12 1L13 1L13 2L14 2L14 1L15 1L15 0L12 0L12 1L11 1L11 0L10 0L10 2L9 2L9 0ZM18 0L18 1L16 1L16 2L18 2L18 1L19 1L19 4L20 4L20 5L18 5L18 3L15 3L15 5L16 5L16 7L17 7L17 6L18 6L18 8L19 8L19 12L18 12L18 10L16 10L16 11L17 11L17 12L18 12L18 14L16 14L16 12L13 12L13 14L12 14L12 12L11 12L11 11L10 11L10 10L11 10L11 9L10 9L10 10L9 10L9 11L8 11L8 12L5 12L5 10L4 10L4 11L3 11L3 8L0 8L0 9L1 9L1 10L0 10L0 11L2 11L2 12L3 12L3 13L4 13L4 15L7 15L7 14L5 14L5 13L8 13L8 12L9 12L9 11L10 11L10 12L11 12L11 15L10 15L10 16L9 16L9 14L8 14L8 16L9 16L9 17L10 17L10 18L9 18L9 19L11 19L11 20L12 20L12 21L10 21L10 22L9 22L9 21L7 21L7 20L8 20L8 19L7 19L7 18L6 18L6 19L5 19L5 18L4 18L4 16L2 16L2 18L3 18L3 20L4 20L4 22L3 22L3 21L1 21L1 20L2 20L2 19L0 19L0 21L1 21L1 22L2 22L2 24L3 24L3 23L4 23L4 25L3 25L3 26L4 26L4 27L3 27L3 28L2 28L2 25L1 25L1 24L0 24L0 25L1 25L1 27L0 27L0 30L1 30L1 31L0 31L0 32L2 32L2 31L4 31L4 34L3 34L3 33L0 33L0 35L3 35L3 36L0 36L0 38L2 38L2 37L3 37L3 36L4 36L4 38L3 38L3 39L4 39L4 40L3 40L3 43L2 43L2 41L0 41L0 43L1 43L1 44L3 44L3 45L4 45L4 44L3 44L3 43L7 43L7 44L6 44L6 45L8 45L8 46L9 46L9 47L8 47L8 48L10 48L10 49L12 49L12 48L14 48L14 49L13 49L13 51L12 51L12 50L11 50L11 51L12 51L12 52L11 52L11 53L14 53L14 52L13 52L13 51L15 51L15 53L16 53L16 52L18 52L18 53L20 53L20 52L18 52L18 49L19 49L19 48L20 48L20 49L21 49L21 48L20 48L20 47L21 47L21 46L23 46L23 47L22 47L22 48L23 48L23 50L20 50L20 51L21 51L21 52L22 52L22 53L23 53L23 52L22 52L22 51L23 51L23 50L24 50L24 49L25 49L25 51L26 51L26 52L24 52L24 53L27 53L27 51L29 51L29 52L28 52L28 53L29 53L29 52L30 52L30 49L29 49L29 48L30 48L30 47L31 47L31 48L32 48L32 49L33 49L33 51L34 51L34 52L32 52L32 50L31 50L31 52L32 52L32 53L34 53L34 52L35 52L35 50L36 50L36 51L37 51L37 52L36 52L36 53L39 53L39 52L40 52L40 53L41 53L41 51L40 51L40 50L39 50L39 51L38 51L38 49L39 49L39 48L40 48L40 49L41 49L41 50L42 50L42 53L43 53L43 50L42 50L42 49L48 49L48 51L49 51L49 48L50 48L50 46L52 46L52 47L51 47L51 48L53 48L53 46L52 46L52 44L53 44L53 42L52 42L52 44L50 44L50 42L51 42L51 40L52 40L52 41L53 41L53 38L52 38L52 37L50 37L50 39L49 39L49 38L48 38L48 36L50 36L50 35L51 35L51 33L53 33L53 29L52 29L52 27L53 27L53 26L52 26L52 27L51 27L51 25L52 25L52 24L51 24L51 25L50 25L50 23L51 23L51 22L52 22L52 23L53 23L53 22L52 22L52 21L53 21L53 18L52 18L52 20L51 20L51 21L50 21L50 16L49 16L49 15L51 15L51 14L50 14L50 13L53 13L53 10L52 10L52 9L53 9L53 8L51 8L51 10L52 10L52 11L51 11L51 12L50 12L50 11L49 11L49 10L50 10L50 9L49 9L49 8L45 8L45 6L44 6L44 8L43 8L43 3L44 3L44 4L45 4L45 3L44 3L44 1L43 1L43 0L42 0L42 2L40 2L40 1L41 1L41 0L38 0L38 1L37 1L37 0L36 0L36 2L35 2L35 0L34 0L34 1L33 1L33 0L32 0L32 2L33 2L33 3L34 3L34 2L35 2L35 4L34 4L34 7L35 7L35 6L36 6L36 7L37 7L37 6L36 6L36 5L37 5L37 4L36 4L36 2L38 2L38 3L39 3L39 4L38 4L38 5L39 5L39 6L38 6L38 7L39 7L39 6L40 6L40 7L41 7L41 8L40 8L40 9L39 9L39 10L38 10L38 8L36 8L36 9L35 9L35 10L34 10L34 9L33 9L33 6L32 6L32 9L31 9L31 10L30 10L30 9L29 9L29 3L30 3L30 1L31 1L31 0L30 0L30 1L29 1L29 3L28 3L28 0L26 0L26 1L25 1L25 0L24 0L24 1L23 1L23 0ZM20 1L20 2L22 2L22 4L23 4L23 5L20 5L20 6L19 6L19 8L20 8L20 6L21 6L21 7L22 7L22 6L23 6L23 9L22 9L22 8L21 8L21 10L20 10L20 11L21 11L21 12L20 12L20 14L19 14L19 15L18 15L18 16L19 16L19 17L18 17L18 18L19 18L19 20L21 20L21 21L20 21L20 22L19 22L19 21L18 21L18 19L17 19L17 18L16 18L16 19L17 19L17 20L16 20L16 23L14 23L14 24L15 24L15 25L14 25L14 26L15 26L15 28L16 28L16 30L13 30L13 28L14 28L14 27L13 27L13 28L9 28L9 29L8 29L8 31L6 31L6 32L5 32L5 33L6 33L6 34L4 34L4 36L5 36L5 37L6 37L6 38L4 38L4 39L5 39L5 40L7 40L7 39L8 39L8 41L6 41L6 42L7 42L7 43L10 43L10 44L11 44L11 45L10 45L10 46L11 46L11 47L12 47L12 46L13 46L13 45L12 45L12 44L11 44L11 42L12 42L12 43L15 43L15 44L16 44L16 47L14 47L14 48L16 48L16 47L17 47L17 46L19 46L19 45L20 45L20 46L21 46L21 44L19 44L19 45L18 45L18 43L19 43L19 40L20 40L20 39L21 39L21 38L22 38L22 36L23 36L23 37L24 37L24 39L22 39L22 40L23 40L23 41L22 41L22 43L23 43L23 41L24 41L24 39L25 39L25 44L27 44L27 43L28 43L28 44L29 44L29 43L30 43L30 42L31 42L31 43L32 43L32 44L30 44L30 46L29 46L29 47L30 47L30 46L31 46L31 47L32 47L32 48L34 48L34 50L35 50L35 49L36 49L36 50L37 50L37 49L36 49L36 48L39 48L39 45L40 45L40 48L41 48L41 45L42 45L42 46L43 46L43 47L42 47L42 48L44 48L44 45L42 45L42 44L41 44L41 43L40 43L40 42L41 42L41 41L40 41L40 40L41 40L41 38L40 38L40 36L42 36L42 40L44 40L44 41L45 41L45 40L44 40L44 39L43 39L43 38L45 38L45 39L46 39L46 41L48 41L48 43L47 43L47 44L49 44L49 46L50 46L50 44L49 44L49 42L50 42L50 41L48 41L48 40L49 40L49 39L48 39L48 40L47 40L47 39L46 39L46 34L47 34L47 36L48 36L48 34L49 34L49 35L50 35L50 33L51 33L51 32L52 32L52 29L50 29L50 28L51 28L51 27L50 27L50 28L49 28L49 29L48 29L48 30L47 30L47 31L46 31L46 29L44 29L44 30L45 30L45 32L44 32L44 31L43 31L43 32L42 32L42 30L43 30L43 29L42 29L42 28L44 28L44 26L43 26L43 25L42 25L42 23L43 23L43 24L44 24L44 23L45 23L45 21L46 21L46 22L48 22L48 23L47 23L47 24L49 24L49 23L50 23L50 22L48 22L48 20L49 20L49 17L48 17L48 20L47 20L47 21L46 21L46 20L44 20L44 19L43 19L43 20L44 20L44 23L43 23L43 21L42 21L42 18L43 18L43 17L44 17L44 18L45 18L45 17L46 17L46 19L47 19L47 17L46 17L46 15L45 15L45 17L44 17L44 16L43 16L43 15L44 15L44 14L45 14L45 13L46 13L46 14L47 14L47 15L48 15L48 14L49 14L49 13L48 13L48 14L47 14L47 11L48 11L48 9L46 9L46 10L47 10L47 11L44 11L44 12L43 12L43 11L42 11L42 10L43 10L43 8L42 8L42 10L41 10L41 9L40 9L40 10L39 10L39 13L38 13L38 10L37 10L37 11L35 11L35 13L34 13L34 14L35 14L35 15L36 15L36 16L35 16L35 17L34 17L34 15L33 15L33 17L34 17L34 19L35 19L35 21L34 21L34 20L33 20L33 18L32 18L32 14L33 14L33 13L32 13L32 12L33 12L33 10L31 10L31 11L32 11L32 12L30 12L30 14L31 14L31 15L30 15L30 16L28 16L28 17L26 17L26 16L27 16L27 15L28 15L28 14L29 14L29 12L28 12L28 10L29 10L29 11L30 11L30 10L29 10L29 9L27 9L27 10L25 10L25 11L24 11L24 13L22 13L22 11L23 11L23 10L24 10L24 3L25 3L25 2L22 2L22 1ZM26 1L26 2L27 2L27 1ZM38 1L38 2L39 2L39 3L40 3L40 4L39 4L39 5L40 5L40 4L41 4L41 3L40 3L40 2L39 2L39 1ZM42 2L42 3L43 3L43 2ZM27 3L27 4L28 4L28 3ZM31 3L31 4L30 4L30 5L31 5L31 4L32 4L32 5L33 5L33 4L32 4L32 3ZM8 4L8 9L7 9L7 8L5 8L5 9L7 9L7 10L6 10L6 11L7 11L7 10L8 10L8 9L9 9L9 8L11 8L11 6L12 6L12 8L13 8L13 9L12 9L12 11L14 11L14 9L15 9L15 8L14 8L14 7L15 7L15 6L14 6L14 7L13 7L13 6L12 6L12 5L13 5L13 4L12 4L12 5L10 5L10 7L9 7L9 4ZM25 5L25 8L28 8L28 5ZM41 5L41 7L42 7L42 5ZM26 6L26 7L27 7L27 6ZM30 6L30 7L31 7L31 6ZM16 8L16 9L17 9L17 8ZM44 8L44 10L45 10L45 8ZM21 10L21 11L22 11L22 10ZM25 11L25 13L26 13L26 11ZM41 11L41 12L40 12L40 13L39 13L39 15L40 15L40 13L41 13L41 15L43 15L43 14L44 14L44 13L45 13L45 12L44 12L44 13L43 13L43 14L42 14L42 13L41 13L41 12L42 12L42 11ZM0 12L0 13L1 13L1 12ZM4 12L4 13L5 13L5 12ZM27 12L27 14L24 14L24 15L22 15L22 13L21 13L21 14L20 14L20 17L21 17L21 18L20 18L20 19L21 19L21 20L22 20L22 21L21 21L21 22L20 22L20 24L19 24L19 23L18 23L18 24L19 24L19 26L18 26L18 27L17 27L17 26L16 26L16 27L17 27L17 28L18 28L18 29L19 29L19 28L21 28L21 30L16 30L16 32L15 32L15 31L14 31L14 32L15 32L15 34L13 34L13 33L9 33L9 32L6 32L6 33L7 33L7 34L6 34L6 35L5 35L5 36L6 36L6 37L7 37L7 38L6 38L6 39L7 39L7 38L8 38L8 39L9 39L9 38L8 38L8 37L10 37L10 36L12 36L12 37L13 37L13 35L15 35L15 36L14 36L14 37L15 37L15 38L12 38L12 39L11 39L11 41L12 41L12 42L14 42L14 41L15 41L15 40L16 40L16 41L17 41L17 39L15 39L15 38L16 38L16 36L17 36L17 35L16 35L16 34L18 34L18 38L19 38L19 39L18 39L18 40L19 40L19 39L20 39L20 38L19 38L19 34L18 34L18 33L19 33L19 32L18 32L18 31L21 31L21 30L23 30L23 31L22 31L22 32L23 32L23 34L20 34L20 35L23 35L23 36L25 36L25 35L26 35L26 38L25 38L25 39L26 39L26 38L27 38L27 36L28 36L28 38L29 38L29 39L32 39L32 43L34 43L34 44L35 44L35 43L34 43L34 41L35 41L35 42L36 42L36 46L37 46L37 47L38 47L38 43L37 43L37 42L36 42L36 41L37 41L37 40L38 40L38 39L40 39L40 38L38 38L38 37L37 37L37 36L38 36L38 31L39 31L39 32L40 32L40 33L41 33L41 34L40 34L40 35L41 35L41 34L42 34L42 36L43 36L43 37L45 37L45 35L44 35L44 34L45 34L45 33L44 33L44 32L43 32L43 34L42 34L42 32L40 32L40 31L41 31L41 30L42 30L42 29L41 29L41 26L42 26L42 27L43 27L43 26L42 26L42 25L41 25L41 23L39 23L39 22L38 22L38 21L39 21L39 20L38 20L38 21L37 21L37 20L36 20L36 22L34 22L34 21L33 21L33 20L32 20L32 21L31 21L31 22L30 22L30 21L28 21L28 20L30 20L30 19L29 19L29 18L30 18L30 17L31 17L31 16L30 16L30 17L28 17L28 20L27 20L27 21L26 21L26 23L25 23L25 24L24 24L24 22L23 22L23 24L22 24L22 21L23 21L23 18L25 18L25 19L26 19L26 18L25 18L25 17L24 17L24 15L25 15L25 16L26 16L26 15L27 15L27 14L28 14L28 12ZM36 12L36 14L37 14L37 12ZM0 14L0 16L1 16L1 15L2 15L2 14ZM13 14L13 18L12 18L12 16L11 16L11 18L12 18L12 19L14 19L14 20L15 20L15 19L14 19L14 18L15 18L15 16L14 16L14 15L16 15L16 14ZM52 14L52 16L51 16L51 17L52 17L52 16L53 16L53 14ZM21 15L21 16L22 16L22 15ZM37 15L37 16L36 16L36 17L37 17L37 18L35 18L35 19L37 19L37 18L38 18L38 19L40 19L40 21L41 21L41 18L42 18L42 16L40 16L40 17L41 17L41 18L38 18L38 17L39 17L39 16L38 16L38 15ZM5 16L5 17L7 17L7 16ZM37 16L37 17L38 17L38 16ZM0 17L0 18L1 18L1 17ZM21 18L21 19L22 19L22 18ZM31 18L31 19L32 19L32 18ZM6 19L6 20L7 20L7 19ZM24 20L24 21L25 21L25 20ZM6 21L6 22L7 22L7 23L6 23L6 24L10 24L10 25L9 25L9 26L10 26L10 27L11 27L11 26L10 26L10 25L13 25L13 22L12 22L12 24L10 24L10 23L11 23L11 22L10 22L10 23L8 23L8 22L7 22L7 21ZM17 21L17 22L18 22L18 21ZM27 21L27 23L26 23L26 24L27 24L27 23L28 23L28 24L29 24L29 25L30 25L30 26L29 26L29 27L30 27L30 28L29 28L29 29L27 29L27 31L28 31L28 33L27 33L27 34L26 34L26 31L24 31L24 32L25 32L25 34L26 34L26 35L27 35L27 34L28 34L28 36L29 36L29 37L30 37L30 38L31 38L31 37L30 37L30 36L31 36L31 35L33 35L33 36L34 36L34 39L33 39L33 37L32 37L32 39L33 39L33 40L34 40L34 39L35 39L35 41L36 41L36 40L37 40L37 39L38 39L38 38L36 38L36 36L37 36L37 35L36 35L36 34L37 34L37 33L36 33L36 34L35 34L35 32L34 32L34 30L36 30L36 27L37 27L37 25L36 25L36 24L37 24L37 22L36 22L36 24L34 24L34 26L33 26L33 25L32 25L32 23L34 23L34 22L33 22L33 21L32 21L32 22L31 22L31 23L30 23L30 22L29 22L29 23L28 23L28 21ZM16 23L16 25L17 25L17 23ZM38 23L38 24L39 24L39 23ZM5 25L5 28L8 28L8 25ZM21 25L21 26L20 26L20 27L22 27L22 28L23 28L23 30L24 30L24 28L23 28L23 27L22 27L22 26L24 26L24 25ZM25 25L25 28L28 28L28 25ZM31 25L31 27L32 27L32 25ZM35 25L35 26L34 26L34 27L33 27L33 28L32 28L32 29L33 29L33 30L31 30L31 31L30 31L30 32L29 32L29 33L28 33L28 34L29 34L29 36L30 36L30 33L31 33L31 31L33 31L33 30L34 30L34 29L35 29L35 28L34 28L34 27L36 27L36 25ZM38 25L38 26L40 26L40 25ZM45 25L45 28L48 28L48 25ZM49 25L49 26L50 26L50 25ZM6 26L6 27L7 27L7 26ZM26 26L26 27L27 27L27 26ZM46 26L46 27L47 27L47 26ZM39 27L39 28L38 28L38 30L37 30L37 31L38 31L38 30L39 30L39 31L40 31L40 30L41 30L41 29L40 29L40 27ZM30 28L30 29L31 29L31 28ZM2 29L2 30L4 30L4 31L5 31L5 29ZM6 29L6 30L7 30L7 29ZM9 29L9 31L10 31L10 32L11 32L11 30L10 30L10 29ZM49 29L49 30L48 30L48 32L50 32L50 31L51 31L51 30L50 30L50 29ZM12 30L12 32L13 32L13 30ZM28 30L28 31L29 31L29 30ZM49 30L49 31L50 31L50 30ZM20 32L20 33L21 33L21 32ZM32 32L32 33L33 33L33 35L34 35L34 36L36 36L36 35L34 35L34 32ZM46 32L46 33L47 33L47 34L48 34L48 33L47 33L47 32ZM8 33L8 34L7 34L7 35L6 35L6 36L7 36L7 37L8 37L8 36L7 36L7 35L9 35L9 36L10 36L10 35L13 35L13 34L10 34L10 35L9 35L9 33ZM52 34L52 35L53 35L53 34ZM43 35L43 36L44 36L44 35ZM35 38L35 39L36 39L36 38ZM51 38L51 39L50 39L50 40L51 40L51 39L52 39L52 38ZM1 39L1 40L2 40L2 39ZM12 39L12 41L13 41L13 39ZM14 39L14 40L15 40L15 39ZM27 39L27 40L26 40L26 41L27 41L27 42L30 42L30 41L29 41L29 40L28 40L28 39ZM9 40L9 41L10 41L10 40ZM27 40L27 41L28 41L28 40ZM42 41L42 43L44 43L44 44L45 44L45 42L43 42L43 41ZM16 42L16 43L18 43L18 42ZM20 42L20 43L21 43L21 42ZM39 43L39 44L40 44L40 45L41 45L41 44L40 44L40 43ZM8 44L8 45L9 45L9 44ZM23 44L23 46L24 46L24 44ZM32 44L32 45L33 45L33 46L32 46L32 47L33 47L33 46L34 46L34 47L35 47L35 46L34 46L34 45L33 45L33 44ZM11 45L11 46L12 46L12 45ZM14 45L14 46L15 46L15 45ZM25 45L25 48L28 48L28 45ZM45 45L45 48L48 48L48 45ZM26 46L26 47L27 47L27 46ZM46 46L46 47L47 47L47 46ZM18 47L18 48L19 48L19 47ZM26 49L26 51L27 51L27 49ZM50 49L50 51L51 51L51 49ZM8 50L8 53L9 53L9 52L10 52L10 51L9 51L9 50ZM16 50L16 51L17 51L17 50ZM44 50L44 51L45 51L45 52L44 52L44 53L46 53L46 51L45 51L45 50ZM47 52L47 53L49 53L49 52ZM52 52L52 53L53 53L53 52ZM0 0L0 7L7 7L7 0ZM1 1L1 6L6 6L6 1ZM2 2L2 5L5 5L5 2ZM46 0L46 7L53 7L53 0ZM47 1L47 6L52 6L52 1ZM48 2L48 5L51 5L51 2ZM0 46L0 53L7 53L7 46ZM1 47L1 52L6 52L6 47ZM2 48L2 51L5 51L5 48Z" fill="#000000"/></g></g></svg>
