<?xml version="1.0" encoding="UTF-8"?>
<svg xmlns="http://www.w3.org/2000/svg" version="1.1" width="356" height="356" viewBox="0 0 356 356"><rect x="0" y="0" width="356" height="356" fill="#ffffff"/><g transform="scale(6.717)"><g transform="translate(0,0)"><path fill-rule="evenodd" d="M8 0L8 2L9 2L9 4L8 4L8 9L10 9L10 10L9 10L9 12L8 12L8 10L6 10L6 9L7 9L7 8L5 8L5 10L6 10L6 11L7 11L7 12L6 12L6 13L3 13L3 12L5 12L5 11L1 11L1 12L0 12L0 18L1 18L1 19L0 19L0 20L1 20L1 19L2 19L2 20L3 20L3 19L4 19L4 21L3 21L3 22L2 22L2 21L0 21L0 22L1 22L1 23L0 23L0 25L2 25L2 26L4 26L4 27L3 27L3 28L1 28L1 27L0 27L0 28L1 28L1 29L0 29L0 33L2 33L2 34L1 34L1 35L3 35L3 36L4 36L4 35L3 35L3 33L7 33L7 34L5 34L5 35L8 35L8 36L10 36L10 34L11 34L11 32L12 32L12 31L13 31L13 30L16 30L16 32L15 32L15 31L14 31L14 32L15 32L15 34L13 34L13 33L12 33L12 34L13 34L13 35L15 35L15 36L14 36L14 37L15 37L15 38L13 38L13 36L12 36L12 35L11 35L11 37L10 37L10 38L8 38L8 37L7 37L7 36L6 36L6 37L7 37L7 38L6 38L6 39L7 39L7 38L8 38L8 40L9 40L9 39L10 39L10 38L11 38L11 37L12 37L12 39L11 39L11 40L13 40L13 41L11 41L11 42L10 42L10 43L12 43L12 44L9 44L9 45L8 45L8 46L9 46L9 47L8 47L8 48L9 48L9 50L8 50L8 53L9 53L9 51L10 51L10 53L16 53L16 52L18 52L18 53L19 53L19 52L18 52L18 49L19 49L19 48L20 48L20 49L21 49L21 48L20 48L20 47L21 47L21 46L23 46L23 47L22 47L22 48L23 48L23 49L29 49L29 50L27 50L27 51L29 51L29 50L30 50L30 49L31 49L31 48L32 48L32 49L33 49L33 51L32 51L32 50L31 50L31 51L30 51L30 52L28 52L28 53L30 53L30 52L32 52L32 53L34 53L34 52L35 52L35 51L36 51L36 49L37 49L37 50L38 50L38 51L37 51L37 52L36 52L36 53L37 53L37 52L38 52L38 51L39 51L39 50L40 50L40 53L42 53L42 52L41 52L41 51L43 51L43 50L44 50L44 52L43 52L43 53L44 53L44 52L46 52L46 53L50 53L50 50L51 50L51 49L49 49L49 48L50 48L50 46L52 46L52 47L51 47L51 48L52 48L52 47L53 47L53 46L52 46L52 44L53 44L53 42L52 42L52 44L50 44L50 43L49 43L49 42L50 42L50 41L51 41L51 40L50 40L50 39L51 39L51 38L52 38L52 39L53 39L53 38L52 38L52 37L51 37L51 36L50 36L50 34L51 34L51 33L53 33L53 32L52 32L52 31L53 31L53 29L52 29L52 27L53 27L53 26L52 26L52 27L51 27L51 25L53 25L53 22L52 22L52 23L51 23L51 21L53 21L53 18L52 18L52 20L51 20L51 21L50 21L50 18L51 18L51 17L50 17L50 16L49 16L49 15L51 15L51 14L50 14L50 13L52 13L52 16L53 16L53 10L52 10L52 9L53 9L53 8L51 8L51 9L50 9L50 10L49 10L49 8L45 8L45 6L44 6L44 8L45 8L45 11L44 11L44 13L43 13L43 14L42 14L42 13L41 13L41 12L42 12L42 11L43 11L43 10L44 10L44 9L43 9L43 10L42 10L42 8L43 8L43 3L44 3L44 4L45 4L45 3L44 3L44 1L43 1L43 0L41 0L41 1L40 1L40 0L38 0L38 1L37 1L37 0L36 0L36 2L35 2L35 0L34 0L34 1L33 1L33 0L32 0L32 2L31 2L31 4L30 4L30 5L29 5L29 4L27 4L27 3L28 3L28 1L29 1L29 0L26 0L26 4L25 4L25 3L24 3L24 7L23 7L23 6L22 6L22 7L21 7L21 6L20 6L20 5L22 5L22 3L23 3L23 2L24 2L24 1L25 1L25 0L24 0L24 1L23 1L23 0L18 0L18 1L16 1L16 2L18 2L18 1L19 1L19 4L20 4L20 5L18 5L18 3L15 3L15 2L14 2L14 1L15 1L15 0L11 0L11 1L10 1L10 0ZM30 0L30 1L31 1L31 0ZM12 1L12 2L11 2L11 3L10 3L10 5L11 5L11 8L12 8L12 9L13 9L13 8L12 8L12 5L13 5L13 7L14 7L14 8L15 8L15 9L14 9L14 12L16 12L16 14L13 14L13 13L12 13L12 12L13 12L13 11L11 11L11 10L10 10L10 12L9 12L9 13L10 13L10 12L11 12L11 14L13 14L13 15L12 15L12 16L13 16L13 18L12 18L12 17L11 17L11 15L10 15L10 14L8 14L8 13L6 13L6 14L7 14L7 15L4 15L4 14L3 14L3 13L2 13L2 14L1 14L1 18L2 18L2 19L3 19L3 18L2 18L2 16L3 16L3 17L4 17L4 18L8 18L8 21L6 21L6 22L5 22L5 21L4 21L4 22L3 22L3 23L1 23L1 24L2 24L2 25L3 25L3 24L5 24L5 23L6 23L6 24L8 24L8 23L9 23L9 24L10 24L10 25L9 25L9 26L10 26L10 27L12 27L12 28L11 28L11 29L13 29L13 28L14 28L14 27L13 27L13 24L12 24L12 26L11 26L11 24L10 24L10 22L9 22L9 21L10 21L10 20L11 20L11 19L14 19L14 20L15 20L15 19L14 19L14 18L15 18L15 16L14 16L14 15L16 15L16 14L18 14L18 12L19 12L19 8L20 8L20 6L19 6L19 8L18 8L18 6L17 6L17 7L16 7L16 5L15 5L15 3L13 3L13 1ZM20 1L20 2L21 2L21 3L22 3L22 2L21 2L21 1ZM38 1L38 2L37 2L37 3L36 3L36 5L35 5L35 7L34 7L34 6L33 6L33 3L34 3L34 4L35 4L35 2L32 2L32 6L31 6L31 5L30 5L30 6L29 6L29 7L30 7L30 6L31 6L31 8L29 8L29 9L28 9L28 10L27 10L27 11L26 11L26 12L25 12L25 11L24 11L24 12L25 12L25 13L24 13L24 16L23 16L23 22L22 22L22 20L21 20L21 19L20 19L20 18L21 18L21 17L20 17L20 14L21 14L21 12L20 12L20 14L19 14L19 15L18 15L18 16L19 16L19 17L18 17L18 18L19 18L19 20L21 20L21 21L20 21L20 22L19 22L19 21L18 21L18 19L17 19L17 18L16 18L16 19L17 19L17 20L16 20L16 23L14 23L14 24L15 24L15 25L14 25L14 26L15 26L15 28L16 28L16 30L21 30L21 31L18 31L18 32L19 32L19 33L18 33L18 34L16 34L16 35L17 35L17 36L16 36L16 38L15 38L15 39L14 39L14 40L15 40L15 41L14 41L14 42L12 42L12 43L13 43L13 44L12 44L12 45L10 45L10 46L13 46L13 47L11 47L11 48L10 48L10 47L9 47L9 48L10 48L10 50L12 50L12 51L11 51L11 52L12 52L12 51L13 51L13 50L14 50L14 51L15 51L15 50L14 50L14 49L15 49L15 48L16 48L16 47L17 47L17 46L19 46L19 47L18 47L18 48L19 48L19 47L20 47L20 46L21 46L21 45L22 45L22 44L23 44L23 42L24 42L24 44L25 44L25 42L24 42L24 40L23 40L23 39L22 39L22 40L23 40L23 41L22 41L22 44L21 44L21 45L20 45L20 44L19 44L19 45L18 45L18 43L19 43L19 40L18 40L18 39L19 39L19 38L21 38L21 35L20 35L20 34L22 34L22 35L23 35L23 34L24 34L24 35L25 35L25 37L26 37L26 40L25 40L25 41L26 41L26 40L27 40L27 41L28 41L28 40L30 40L30 43L31 43L31 44L30 44L30 46L29 46L29 47L31 47L31 46L32 46L32 48L34 48L34 50L35 50L35 47L37 47L37 49L38 49L38 50L39 50L39 49L40 49L40 48L42 48L42 50L43 50L43 48L44 48L44 47L43 47L43 48L42 48L42 47L41 47L41 45L40 45L40 44L41 44L41 43L40 43L40 42L41 42L41 41L42 41L42 42L43 42L43 43L42 43L42 44L43 44L43 43L44 43L44 44L45 44L45 43L46 43L46 42L47 42L47 39L46 39L46 38L47 38L47 37L46 37L46 36L47 36L47 35L49 35L49 34L50 34L50 33L51 33L51 31L50 31L50 30L51 30L51 29L50 29L50 28L51 28L51 27L50 27L50 26L49 26L49 27L50 27L50 28L49 28L49 29L48 29L48 30L47 30L47 29L46 29L46 30L45 30L45 32L46 32L46 33L44 33L44 34L43 34L43 33L41 33L41 35L43 35L43 36L41 36L41 37L42 37L42 38L43 38L43 36L44 36L44 34L45 34L45 37L44 37L44 38L45 38L45 40L44 40L44 41L42 41L42 40L43 40L43 39L41 39L41 38L40 38L40 31L41 31L41 30L40 30L40 28L41 28L41 29L42 29L42 30L43 30L43 29L42 29L42 27L41 27L41 25L42 25L42 26L43 26L43 25L44 25L44 24L43 24L43 25L42 25L42 23L43 23L43 21L42 21L42 20L44 20L44 23L47 23L47 24L49 24L49 23L50 23L50 25L51 25L51 23L50 23L50 22L49 22L49 21L48 21L48 20L49 20L49 18L50 18L50 17L48 17L48 20L46 20L46 22L45 22L45 19L43 19L43 16L44 16L44 14L45 14L45 13L46 13L46 14L47 14L47 11L48 11L48 9L46 9L46 10L47 10L47 11L45 11L45 13L44 13L44 14L43 14L43 16L42 16L42 14L41 14L41 15L40 15L40 14L39 14L39 13L40 13L40 12L41 12L41 11L40 11L40 10L41 10L41 9L40 9L40 8L39 8L39 7L40 7L40 6L39 6L39 7L38 7L38 4L39 4L39 3L40 3L40 5L41 5L41 3L40 3L40 1ZM29 2L29 3L30 3L30 2ZM38 2L38 3L39 3L39 2ZM42 2L42 3L43 3L43 2ZM12 3L12 4L13 4L13 3ZM25 5L25 8L28 8L28 5ZM36 5L36 7L37 7L37 8L36 8L36 9L35 9L35 10L34 10L34 9L33 9L33 6L32 6L32 9L31 9L31 10L30 10L30 9L29 9L29 10L28 10L28 11L29 11L29 10L30 10L30 12L28 12L28 13L29 13L29 14L28 14L28 16L29 16L29 18L28 18L28 17L27 17L27 16L26 16L26 15L27 15L27 12L26 12L26 13L25 13L25 14L26 14L26 15L25 15L25 16L24 16L24 18L26 18L26 17L27 17L27 18L28 18L28 20L26 20L26 19L25 19L25 20L24 20L24 22L23 22L23 24L22 24L22 22L20 22L20 24L19 24L19 23L18 23L18 24L19 24L19 26L18 26L18 27L17 27L17 26L16 26L16 27L17 27L17 28L18 28L18 29L19 29L19 28L21 28L21 27L20 27L20 26L21 26L21 25L23 25L23 26L22 26L22 27L23 27L23 26L24 26L24 28L22 28L22 30L23 30L23 31L22 31L22 32L23 32L23 33L24 33L24 34L25 34L25 35L26 35L26 37L27 37L27 36L28 36L28 38L29 38L29 39L30 39L30 40L31 40L31 38L32 38L32 37L33 37L33 35L34 35L34 32L35 32L35 34L36 34L36 35L37 35L37 36L36 36L36 37L37 37L37 38L36 38L36 39L37 39L37 40L36 40L36 41L37 41L37 42L35 42L35 44L34 44L34 41L35 41L35 39L34 39L34 40L33 40L33 39L32 39L32 43L33 43L33 44L32 44L32 46L33 46L33 47L35 47L35 46L36 46L36 45L37 45L37 46L38 46L38 45L39 45L39 42L40 42L40 41L41 41L41 40L40 40L40 41L39 41L39 42L38 42L38 39L39 39L39 38L38 38L38 37L39 37L39 36L38 36L38 35L39 35L39 34L38 34L38 33L39 33L39 32L38 32L38 31L40 31L40 30L38 30L38 29L39 29L39 27L40 27L40 26L38 26L38 25L39 25L39 24L38 24L38 23L39 23L39 22L40 22L40 21L41 21L41 22L42 22L42 21L41 21L41 19L40 19L40 18L42 18L42 16L40 16L40 15L39 15L39 16L38 16L38 17L37 17L37 16L36 16L36 13L37 13L37 14L38 14L38 13L37 13L37 10L38 10L38 7L37 7L37 5ZM9 6L9 7L10 7L10 6ZM14 6L14 7L15 7L15 6ZM26 6L26 7L27 7L27 6ZM41 6L41 8L42 8L42 6ZM0 8L0 9L1 9L1 10L4 10L4 9L3 9L3 8ZM16 8L16 9L17 9L17 8ZM21 8L21 10L20 10L20 11L21 11L21 10L22 10L22 11L23 11L23 10L26 10L26 9L24 9L24 8L23 8L23 9L22 9L22 8ZM39 9L39 10L40 10L40 9ZM16 10L16 11L17 11L17 12L18 12L18 10ZM31 10L31 11L32 11L32 12L30 12L30 14L29 14L29 16L30 16L30 14L31 14L31 17L30 17L30 18L29 18L29 19L30 19L30 20L31 20L31 21L30 21L30 22L31 22L31 23L29 23L29 24L31 24L31 25L30 25L30 26L31 26L31 25L32 25L32 27L30 27L30 28L29 28L29 29L28 29L28 30L27 30L27 31L26 31L26 29L25 29L25 30L24 30L24 29L23 29L23 30L24 30L24 31L26 31L26 32L27 32L27 34L26 34L26 35L28 35L28 36L30 36L30 38L31 38L31 37L32 37L32 36L30 36L30 34L31 34L31 35L33 35L33 33L32 33L32 32L34 32L34 31L35 31L35 30L36 30L36 27L37 27L37 25L36 25L36 24L37 24L37 21L38 21L38 22L39 22L39 21L40 21L40 20L39 20L39 18L40 18L40 16L39 16L39 17L38 17L38 20L37 20L37 19L36 19L36 20L34 20L34 22L31 22L31 21L32 21L32 20L33 20L33 18L32 18L32 14L33 14L33 13L32 13L32 12L33 12L33 10ZM50 10L50 12L49 12L49 13L48 13L48 14L49 14L49 13L50 13L50 12L51 12L51 11L52 11L52 10ZM34 11L34 12L35 12L35 13L34 13L34 14L35 14L35 13L36 13L36 11ZM38 11L38 12L39 12L39 11ZM22 14L22 15L21 15L21 16L22 16L22 15L23 15L23 14ZM7 15L7 16L5 16L5 17L7 17L7 16L8 16L8 18L9 18L9 17L10 17L10 16L9 16L9 15ZM33 15L33 17L34 17L34 19L35 19L35 18L37 18L37 17L36 17L36 16L35 16L35 17L34 17L34 15ZM45 15L45 17L44 17L44 18L45 18L45 17L46 17L46 19L47 19L47 17L46 17L46 15ZM25 16L25 17L26 17L26 16ZM31 18L31 19L32 19L32 18ZM5 19L5 20L7 20L7 19ZM28 20L28 21L27 21L27 23L26 23L26 21L25 21L25 23L24 23L24 24L25 24L25 23L26 23L26 24L27 24L27 23L28 23L28 21L29 21L29 20ZM36 20L36 21L35 21L35 22L34 22L34 23L32 23L32 25L33 25L33 26L34 26L34 27L33 27L33 28L32 28L32 29L33 29L33 31L34 31L34 29L35 29L35 28L34 28L34 27L36 27L36 25L35 25L35 26L34 26L34 24L36 24L36 23L35 23L35 22L36 22L36 21L37 21L37 20ZM17 21L17 22L18 22L18 21ZM6 22L6 23L8 23L8 22ZM11 22L11 23L12 23L12 22ZM48 22L48 23L49 23L49 22ZM16 23L16 25L17 25L17 23ZM40 24L40 25L41 25L41 24ZM5 25L5 28L8 28L8 25ZM25 25L25 28L28 28L28 25ZM45 25L45 28L48 28L48 25ZM6 26L6 27L7 27L7 26ZM26 26L26 27L27 27L27 26ZM46 26L46 27L47 27L47 26ZM43 27L43 28L44 28L44 27ZM9 28L9 29L10 29L10 28ZM30 28L30 29L29 29L29 30L28 30L28 31L27 31L27 32L28 32L28 35L29 35L29 34L30 34L30 33L31 33L31 32L30 32L30 31L29 31L29 30L30 30L30 29L31 29L31 28ZM37 28L37 29L38 29L38 28ZM1 29L1 31L2 31L2 32L4 32L4 31L3 31L3 30L4 30L4 29ZM5 29L5 30L7 30L7 31L6 31L6 32L7 32L7 33L8 33L8 35L9 35L9 33L8 33L8 32L11 32L11 30L10 30L10 31L8 31L8 29ZM49 29L49 30L48 30L48 33L46 33L46 35L47 35L47 34L48 34L48 33L49 33L49 32L50 32L50 31L49 31L49 30L50 30L50 29ZM31 30L31 31L32 31L32 30ZM37 30L37 31L38 31L38 30ZM46 30L46 32L47 32L47 30ZM7 31L7 32L8 32L8 31ZM28 31L28 32L29 32L29 33L30 33L30 32L29 32L29 31ZM43 31L43 32L44 32L44 31ZM20 32L20 33L21 33L21 32ZM24 32L24 33L25 33L25 32ZM37 32L37 33L36 33L36 34L37 34L37 33L38 33L38 32ZM18 34L18 38L19 38L19 34ZM52 34L52 35L53 35L53 34ZM0 36L0 39L2 39L2 40L1 40L1 41L0 41L0 43L1 43L1 44L3 44L3 45L4 45L4 44L3 44L3 43L7 43L7 44L6 44L6 45L7 45L7 44L8 44L8 43L9 43L9 42L8 42L8 43L7 43L7 42L6 42L6 41L7 41L7 40L6 40L6 41L5 41L5 40L3 40L3 39L4 39L4 38L3 38L3 37L1 37L1 36ZM48 36L48 38L49 38L49 39L48 39L48 40L49 40L49 39L50 39L50 36ZM23 37L23 38L24 38L24 37ZM2 38L2 39L3 39L3 38ZM15 39L15 40L16 40L16 41L17 41L17 39ZM20 39L20 40L21 40L21 39ZM27 39L27 40L28 40L28 39ZM45 40L45 42L46 42L46 40ZM52 40L52 41L53 41L53 40ZM1 41L1 42L2 42L2 43L3 43L3 42L4 42L4 41ZM48 41L48 42L49 42L49 41ZM16 42L16 43L18 43L18 42ZM20 42L20 43L21 43L21 42ZM26 42L26 44L27 44L27 42ZM37 42L37 43L36 43L36 44L35 44L35 45L34 45L34 44L33 44L33 45L34 45L34 46L35 46L35 45L36 45L36 44L37 44L37 45L38 45L38 42ZM14 43L14 44L13 44L13 45L14 45L14 48L11 48L11 49L14 49L14 48L15 48L15 47L16 47L16 44L15 44L15 43ZM28 43L28 44L29 44L29 43ZM47 43L47 44L48 44L48 43ZM14 44L14 45L15 45L15 44ZM19 45L19 46L20 46L20 45ZM23 45L23 46L24 46L24 45ZM25 45L25 48L28 48L28 45ZM42 45L42 46L43 46L43 45ZM45 45L45 48L48 48L48 45ZM49 45L49 46L50 46L50 45ZM26 46L26 47L27 47L27 46ZM46 46L46 47L47 47L47 46ZM39 47L39 48L38 48L38 49L39 49L39 48L40 48L40 47ZM44 49L44 50L46 50L46 52L49 52L49 51L48 51L48 49L47 49L47 50L46 50L46 49ZM16 50L16 51L17 51L17 50ZM20 50L20 51L22 51L22 53L23 53L23 51L24 51L24 53L25 53L25 52L26 52L26 51L25 51L25 50L23 50L23 51L22 51L22 50ZM20 52L20 53L21 53L21 52ZM52 52L52 53L53 53L53 52ZM0 0L0 7L7 7L7 0ZM1 1L1 6L6 6L6 1ZM2 2L2 5L5 5L5 2ZM46 0L46 7L53 7L53 0ZM47 1L47 6L52 6L52 1ZM48 2L48 5L51 5L51 2ZM0 46L0 53L7 53L7 46ZM1 47L1 52L6 52L6 47ZM2 48L2 51L5 51L5 48Z" fill="#000000"/></g></g></svg>
