<?xml version="1.0" encoding="UTF-8"?>
<svg xmlns="http://www.w3.org/2000/svg" version="1.1" width="356" height="356" viewBox="0 0 356 356"><rect x="0" y="0" width="356" height="356" fill="#ffffff"/><g transform="scale(6.717)"><g transform="translate(0,0)"><path fill-rule="evenodd" d="M14 0L14 1L13 1L13 4L14 4L14 1L15 1L15 3L16 3L16 4L17 4L17 3L16 3L16 0ZM17 0L17 1L19 1L19 2L20 2L20 1L21 1L21 3L20 3L20 8L21 8L21 9L20 9L20 10L19 10L19 11L20 11L20 10L21 10L21 11L22 11L22 13L23 13L23 15L20 15L20 13L19 13L19 12L18 12L18 11L17 11L17 13L16 13L16 14L15 14L15 12L16 12L16 9L17 9L17 10L18 10L18 9L17 9L17 8L19 8L19 5L13 5L13 6L12 6L12 7L13 7L13 8L11 8L11 6L10 6L10 8L9 8L9 4L8 4L8 8L6 8L6 9L4 9L4 8L3 8L3 9L2 9L2 8L0 8L0 9L1 9L1 10L0 10L0 11L1 11L1 10L4 10L4 12L3 12L3 13L2 13L2 12L0 12L0 13L2 13L2 16L1 16L1 19L2 19L2 20L1 20L1 21L0 21L0 23L1 23L1 21L2 21L2 20L3 20L3 21L5 21L5 22L6 22L6 23L4 23L4 22L2 22L2 23L4 23L4 25L3 25L3 24L0 24L0 25L1 25L1 26L2 26L2 27L0 27L0 29L1 29L1 30L2 30L2 32L3 32L3 33L5 33L5 34L4 34L4 36L5 36L5 37L4 37L4 38L3 38L3 35L2 35L2 34L1 34L1 32L0 32L0 34L1 34L1 35L2 35L2 36L0 36L0 40L1 40L1 39L2 39L2 41L0 41L0 43L1 43L1 44L3 44L3 45L4 45L4 44L3 44L3 43L7 43L7 42L11 42L11 43L9 43L9 44L6 44L6 45L8 45L8 47L9 47L9 49L8 49L8 50L9 50L9 51L8 51L8 53L12 53L12 51L11 51L11 52L9 52L9 51L10 51L10 50L13 50L13 51L14 51L14 50L13 50L13 49L10 49L10 48L16 48L16 49L17 49L17 48L18 48L18 49L21 49L21 50L23 50L23 53L28 53L28 52L25 52L25 51L28 51L28 50L29 50L29 52L30 52L30 50L29 50L29 47L30 47L30 48L31 48L31 49L33 49L33 48L34 48L34 47L32 47L32 46L33 46L33 45L32 45L32 44L33 44L33 42L32 42L32 41L33 41L33 40L35 40L35 41L38 41L38 42L37 42L37 44L36 44L36 46L35 46L35 47L36 47L36 46L38 46L38 45L39 45L39 47L38 47L38 49L37 49L37 48L35 48L35 49L34 49L34 53L37 53L37 52L38 52L38 51L37 51L37 52L36 52L36 51L35 51L35 49L36 49L36 50L38 50L38 49L41 49L41 50L40 50L40 51L39 51L39 53L40 53L40 52L41 52L41 50L42 50L42 48L41 48L41 46L40 46L40 45L42 45L42 44L43 44L43 43L44 43L44 48L43 48L43 49L46 49L46 51L47 51L47 52L48 52L48 53L49 53L49 52L48 52L48 51L50 51L50 50L51 50L51 53L52 53L52 50L53 50L53 49L50 49L50 48L53 48L53 47L52 47L52 45L49 45L49 44L50 44L50 42L51 42L51 44L52 44L52 43L53 43L53 42L52 42L52 39L53 39L53 37L52 37L52 33L51 33L51 32L50 32L50 31L52 31L52 32L53 32L53 28L52 28L52 30L51 30L51 28L50 28L50 30L48 30L48 29L49 29L49 26L50 26L50 25L49 25L49 24L47 24L47 23L49 23L49 21L50 21L50 24L51 24L51 23L52 23L52 22L51 22L51 20L52 20L52 21L53 21L53 20L52 20L52 19L53 19L53 18L52 18L52 17L53 17L53 11L52 11L52 10L49 10L49 8L46 8L46 9L47 9L47 11L45 11L45 12L44 12L44 10L43 10L43 12L42 12L42 10L37 10L37 8L39 8L39 9L41 9L41 6L42 6L42 7L43 7L43 8L45 8L45 6L44 6L44 7L43 7L43 3L44 3L44 4L45 4L45 3L44 3L44 1L43 1L43 0L40 0L40 1L39 1L39 0L29 0L29 1L28 1L28 0L27 0L27 1L25 1L25 0L22 0L22 1L21 1L21 0L20 0L20 1L19 1L19 0ZM8 1L8 3L9 3L9 1ZM10 1L10 2L11 2L11 3L12 3L12 2L11 2L11 1ZM23 1L23 2L22 2L22 3L21 3L21 5L22 5L22 6L21 6L21 8L23 8L23 7L24 7L24 3L25 3L25 4L26 4L26 3L27 3L27 4L29 4L29 3L30 3L30 4L31 4L31 5L29 5L29 7L30 7L30 8L29 8L29 10L28 10L28 12L29 12L29 13L28 13L28 14L30 14L30 15L31 15L31 14L32 14L32 15L33 15L33 14L34 14L34 13L31 13L31 12L29 12L29 11L33 11L33 12L35 12L35 11L36 11L36 8L37 8L37 7L38 7L38 6L37 6L37 7L36 7L36 5L38 5L38 4L39 4L39 5L40 5L40 4L41 4L41 5L42 5L42 3L43 3L43 2L42 2L42 1L40 1L40 2L38 2L38 1L37 1L37 2L36 2L36 3L35 3L35 1L33 1L33 3L32 3L32 4L31 4L31 3L30 3L30 2L32 2L32 1L29 1L29 3L28 3L28 2L26 2L26 3L25 3L25 1ZM37 2L37 4L38 4L38 2ZM40 2L40 3L42 3L42 2ZM34 3L34 4L35 4L35 3ZM10 4L10 5L12 5L12 4ZM22 4L22 5L23 5L23 4ZM32 4L32 5L31 5L31 6L30 6L30 7L31 7L31 6L32 6L32 8L30 8L30 9L32 9L32 10L33 10L33 9L34 9L34 8L36 8L36 7L35 7L35 5L34 5L34 7L33 7L33 4ZM25 5L25 8L28 8L28 5ZM13 6L13 7L14 7L14 8L13 8L13 9L12 9L12 10L13 10L13 11L14 11L14 10L15 10L15 7L16 7L16 6L15 6L15 7L14 7L14 6ZM17 6L17 7L18 7L18 6ZM22 6L22 7L23 7L23 6ZM26 6L26 7L27 7L27 6ZM39 6L39 8L40 8L40 6ZM8 8L8 9L6 9L6 10L9 10L9 11L5 11L5 12L4 12L4 13L5 13L5 12L9 12L9 11L10 11L10 12L11 12L11 11L10 11L10 10L9 10L9 8ZM10 8L10 9L11 9L11 8ZM32 8L32 9L33 9L33 8ZM50 8L50 9L52 9L52 8ZM22 9L22 11L24 11L24 12L23 12L23 13L24 13L24 14L26 14L26 15L23 15L23 16L21 16L21 19L19 19L19 21L18 21L18 20L17 20L17 19L18 19L18 18L19 18L19 17L20 17L20 16L19 16L19 15L17 15L17 16L16 16L16 15L15 15L15 16L12 16L12 17L10 17L10 16L11 16L11 15L13 15L13 14L12 14L12 13L14 13L14 12L12 12L12 13L11 13L11 14L10 14L10 13L9 13L9 14L7 14L7 13L6 13L6 14L4 14L4 15L3 15L3 16L2 16L2 17L3 17L3 20L5 20L5 21L6 21L6 22L7 22L7 21L6 21L6 20L8 20L8 19L9 19L9 21L10 21L10 22L11 22L11 24L12 24L12 25L14 25L14 26L12 26L12 28L11 28L11 26L10 26L10 23L9 23L9 22L8 22L8 24L9 24L9 26L10 26L10 27L9 27L9 28L11 28L11 30L10 30L10 29L8 29L8 31L5 31L5 30L7 30L7 29L5 29L5 30L3 30L3 29L4 29L4 28L3 28L3 29L2 29L2 28L1 28L1 29L2 29L2 30L3 30L3 31L4 31L4 32L5 32L5 33L6 33L6 34L7 34L7 35L5 35L5 36L7 36L7 35L10 35L10 36L9 36L9 37L5 37L5 38L8 38L8 40L9 40L9 38L10 38L10 39L11 39L11 40L10 40L10 41L11 41L11 42L12 42L12 39L13 39L13 40L16 40L16 42L17 42L17 43L21 43L21 42L22 42L22 43L24 43L24 42L25 42L25 43L26 43L26 44L27 44L27 43L26 43L26 42L25 42L25 41L26 41L26 40L28 40L28 41L27 41L27 42L28 42L28 43L29 43L29 44L30 44L30 47L31 47L31 48L32 48L32 47L31 47L31 44L32 44L32 43L31 43L31 41L32 41L32 40L31 40L31 39L29 39L29 38L33 38L33 39L36 39L36 38L37 38L37 39L38 39L38 38L39 38L39 39L41 39L41 38L42 38L42 39L43 39L43 40L44 40L44 42L47 42L47 41L48 41L48 42L50 42L50 41L48 41L48 40L51 40L51 38L50 38L50 35L51 35L51 34L50 34L50 35L49 35L49 33L48 33L48 32L47 32L47 34L46 34L46 33L45 33L45 32L46 32L46 31L45 31L45 32L43 32L43 33L42 33L42 30L45 30L45 29L42 29L42 28L43 28L43 27L44 27L44 26L43 26L43 25L42 25L42 24L43 24L43 23L45 23L45 24L46 24L46 23L47 23L47 22L48 22L48 20L51 20L51 19L49 19L49 17L48 17L48 15L50 15L50 17L52 17L52 16L51 16L51 13L52 13L52 11L51 11L51 13L50 13L50 14L48 14L48 15L47 15L47 16L46 16L46 17L45 17L45 18L44 18L44 16L45 16L45 14L46 14L46 13L44 13L44 12L43 12L43 13L42 13L42 12L41 12L41 11L37 11L37 12L41 12L41 14L40 14L40 17L39 17L39 15L38 15L38 17L35 17L35 16L37 16L37 13L35 13L35 16L34 16L34 17L32 17L32 16L30 16L30 19L28 19L28 21L29 21L29 22L28 22L28 23L29 23L29 27L30 27L30 28L29 28L29 29L25 29L25 30L24 30L24 29L23 29L23 28L24 28L24 27L23 27L23 26L22 26L22 27L23 27L23 28L22 28L22 29L23 29L23 30L22 30L22 34L21 34L21 31L20 31L20 30L19 30L19 29L21 29L21 28L20 28L20 26L19 26L19 25L20 25L20 24L21 24L21 25L22 25L22 24L23 24L23 25L24 25L24 24L26 24L26 23L27 23L27 22L26 22L26 21L24 21L24 20L27 20L27 18L24 18L24 17L23 17L23 16L29 16L29 15L27 15L27 14L26 14L26 13L25 13L25 12L26 12L26 11L27 11L27 9L25 9L25 10L26 10L26 11L24 11L24 9ZM47 11L47 12L48 12L48 11ZM49 11L49 12L50 12L50 11ZM38 13L38 14L39 14L39 13ZM43 13L43 14L44 14L44 13ZM0 14L0 15L1 15L1 14ZM6 14L6 15L4 15L4 16L3 16L3 17L5 17L5 18L4 18L4 19L5 19L5 18L6 18L6 19L8 19L8 18L9 18L9 19L10 19L10 20L11 20L11 21L12 21L12 23L14 23L14 25L15 25L15 27L13 27L13 28L12 28L12 29L15 29L15 28L16 28L16 29L19 29L19 26L18 26L18 24L20 24L20 23L21 23L21 22L22 22L22 23L23 23L23 24L24 24L24 23L26 23L26 22L24 22L24 21L23 21L23 20L24 20L24 18L23 18L23 17L22 17L22 19L23 19L23 20L21 20L21 22L20 22L20 23L18 23L18 22L16 22L16 23L15 23L15 21L14 21L14 22L13 22L13 20L14 20L14 19L15 19L15 17L12 17L12 18L13 18L13 20L11 20L11 19L10 19L10 18L9 18L9 17L7 17L7 16L6 16L6 15L7 15L7 14ZM9 14L9 15L8 15L8 16L10 16L10 14ZM41 14L41 16L42 16L42 17L41 17L41 18L39 18L39 17L38 17L38 18L39 18L39 19L38 19L38 20L39 20L39 22L38 22L38 25L39 25L39 26L37 26L37 27L36 27L36 26L35 26L35 25L37 25L37 24L36 24L36 23L37 23L37 20L36 20L36 19L37 19L37 18L36 18L36 19L35 19L35 20L34 20L34 19L33 19L33 21L32 21L32 19L30 19L30 21L32 21L32 22L33 22L33 23L34 23L34 24L35 24L35 25L34 25L34 26L32 26L32 25L33 25L33 24L32 24L32 23L31 23L31 22L29 22L29 23L30 23L30 25L31 25L31 26L32 26L32 27L31 27L31 28L32 28L32 30L31 30L31 31L32 31L32 30L33 30L33 32L34 32L34 31L35 31L35 30L36 30L36 32L35 32L35 33L36 33L36 36L35 36L35 37L34 37L34 38L36 38L36 37L37 37L37 38L38 38L38 37L37 37L37 36L38 36L38 35L39 35L39 37L40 37L40 38L41 38L41 36L44 36L44 35L46 35L46 34L44 34L44 35L43 35L43 34L42 34L42 35L41 35L41 31L40 31L40 30L39 30L39 29L40 29L40 27L39 27L39 26L40 26L40 25L41 25L41 24L42 24L42 21L41 21L41 20L42 20L42 17L43 17L43 15L42 15L42 14ZM5 16L5 17L6 17L6 18L7 18L7 17L6 17L6 16ZM18 16L18 17L16 17L16 18L18 18L18 17L19 17L19 16ZM28 17L28 18L29 18L29 17ZM31 17L31 18L32 18L32 17ZM47 17L47 18L48 18L48 17ZM43 18L43 19L44 19L44 18ZM40 19L40 20L41 20L41 19ZM45 19L45 20L43 20L43 22L44 22L44 21L45 21L45 20L46 20L46 19ZM35 20L35 21L34 21L34 22L35 22L35 23L36 23L36 20ZM22 21L22 22L23 22L23 23L24 23L24 22L23 22L23 21ZM40 22L40 23L39 23L39 24L40 24L40 23L41 23L41 22ZM45 22L45 23L46 23L46 22ZM6 23L6 24L7 24L7 23ZM17 23L17 24L18 24L18 23ZM5 25L5 28L8 28L8 25ZM25 25L25 28L28 28L28 25ZM45 25L45 28L48 28L48 25ZM51 25L51 27L53 27L53 25ZM3 26L3 27L4 27L4 26ZM6 26L6 27L7 27L7 26ZM17 26L17 27L16 27L16 28L18 28L18 26ZM26 26L26 27L27 27L27 26ZM41 26L41 28L42 28L42 27L43 27L43 26ZM46 26L46 27L47 27L47 26ZM32 27L32 28L33 28L33 30L35 30L35 29L36 29L36 27L34 27L34 28L33 28L33 27ZM34 28L34 29L35 29L35 28ZM37 28L37 30L38 30L38 31L37 31L37 32L39 32L39 30L38 30L38 28ZM29 29L29 30L28 30L28 32L30 32L30 31L29 31L29 30L30 30L30 29ZM41 29L41 30L42 30L42 29ZM13 30L13 31L14 31L14 32L11 32L11 31L10 31L10 32L9 32L9 31L8 31L8 32L6 32L6 33L8 33L8 32L9 32L9 33L11 33L11 35L13 35L13 37L12 37L12 38L14 38L14 37L15 37L15 34L14 34L14 33L15 33L15 32L16 32L16 36L17 36L17 37L16 37L16 38L15 38L15 39L16 39L16 40L17 40L17 41L18 41L18 40L19 40L19 41L21 41L21 40L19 40L19 39L16 39L16 38L19 38L19 37L20 37L20 36L21 36L21 38L22 38L22 39L25 39L25 40L26 40L26 38L25 38L25 37L27 37L27 36L26 36L26 34L27 34L27 35L28 35L28 34L29 34L29 35L30 35L30 36L28 36L28 38L27 38L27 39L28 39L28 38L29 38L29 37L30 37L30 36L31 36L31 37L33 37L33 36L34 36L34 35L35 35L35 34L34 34L34 35L33 35L33 36L32 36L32 35L31 35L31 34L32 34L32 32L31 32L31 34L29 34L29 33L26 33L26 32L27 32L27 30L26 30L26 32L25 32L25 31L23 31L23 32L24 32L24 34L25 34L25 36L24 36L24 38L22 38L22 37L23 37L23 34L22 34L22 35L21 35L21 34L20 34L20 32L16 32L16 31L17 31L17 30L15 30L15 31L14 31L14 30ZM18 30L18 31L19 31L19 30ZM12 33L12 34L13 34L13 33ZM17 33L17 34L19 34L19 35L20 35L20 34L19 34L19 33ZM37 33L37 34L39 34L39 35L40 35L40 34L39 34L39 33ZM47 34L47 36L49 36L49 35L48 35L48 34ZM17 35L17 36L18 36L18 35ZM10 37L10 38L11 38L11 37ZM44 37L44 40L45 40L45 38L46 38L46 40L47 40L47 39L50 39L50 38L46 38L46 37ZM4 39L4 40L3 40L3 41L2 41L2 43L3 43L3 42L4 42L4 40L5 40L5 39ZM6 39L6 40L7 40L7 39ZM23 40L23 42L24 42L24 40ZM29 40L29 43L30 43L30 44L31 44L31 43L30 43L30 41L31 41L31 40ZM38 40L38 41L39 41L39 42L38 42L38 44L40 44L40 43L39 43L39 42L41 42L41 43L43 43L43 41L42 41L42 40L40 40L40 41L39 41L39 40ZM6 41L6 42L7 42L7 41ZM13 41L13 43L11 43L11 44L10 44L10 45L11 45L11 46L10 46L10 47L12 47L12 46L13 46L13 43L14 43L14 45L15 45L15 46L14 46L14 47L16 47L16 46L17 46L17 47L18 47L18 48L20 48L20 46L21 46L21 44L20 44L20 45L18 45L18 44L15 44L15 43L14 43L14 41ZM41 41L41 42L42 42L42 41ZM45 43L45 44L47 44L47 43ZM11 44L11 45L12 45L12 44ZM34 44L34 45L35 45L35 44ZM17 45L17 46L18 46L18 47L19 47L19 46L18 46L18 45ZM23 45L23 47L24 47L24 45ZM25 45L25 48L28 48L28 45ZM45 45L45 48L48 48L48 45ZM26 46L26 47L27 47L27 46ZM46 46L46 47L47 47L47 46ZM50 46L50 47L49 47L49 48L50 48L50 47L51 47L51 46ZM22 48L22 49L23 49L23 50L27 50L27 49L24 49L24 48ZM17 50L17 51L16 51L16 53L19 53L19 52L20 52L20 53L22 53L22 52L20 52L20 50L19 50L19 52L17 52L17 51L18 51L18 50ZM32 50L32 51L31 51L31 52L32 52L32 53L33 53L33 50ZM43 50L43 51L44 51L44 50ZM47 50L47 51L48 51L48 50ZM13 52L13 53L15 53L15 52ZM42 52L42 53L44 53L44 52ZM0 0L0 7L7 7L7 0ZM1 1L1 6L6 6L6 1ZM2 2L2 5L5 5L5 2ZM46 0L46 7L53 7L53 0ZM47 1L47 6L52 6L52 1ZM48 2L48 5L51 5L51 2ZM0 46L0 53L7 53L7 46ZM1 47L1 52L6 52L6 47ZM2 48L2 51L5 51L5 48Z" fill="#000000"/></g></g></svg>
