<?xml version="1.0" encoding="UTF-8"?>
<svg xmlns="http://www.w3.org/2000/svg" version="1.1" width="356" height="356" viewBox="0 0 356 356"><rect x="0" y="0" width="356" height="356" fill="#ffffff"/><g transform="scale(6.717)"><g transform="translate(0,0)"><path fill-rule="evenodd" d="M8 0L8 2L10 2L10 4L11 4L11 3L12 3L12 4L13 4L13 3L14 3L14 1L15 1L15 0ZM18 0L18 1L16 1L16 2L18 2L18 1L19 1L19 4L20 4L20 5L18 5L18 3L15 3L15 5L16 5L16 7L17 7L17 6L18 6L18 8L19 8L19 12L18 12L18 10L16 10L16 11L17 11L17 12L18 12L18 14L16 14L16 12L13 12L13 10L14 10L14 11L15 11L15 10L14 10L14 9L15 9L15 8L14 8L14 7L15 7L15 6L14 6L14 7L13 7L13 5L12 5L12 7L11 7L11 6L10 6L10 7L9 7L9 4L8 4L8 9L7 9L7 8L5 8L5 9L7 9L7 10L4 10L4 9L3 9L3 8L0 8L0 9L1 9L1 10L2 10L2 9L3 9L3 11L1 11L1 13L0 13L0 19L1 19L1 15L2 15L2 17L4 17L4 18L2 18L2 19L3 19L3 21L0 21L0 24L1 24L1 25L0 25L0 34L1 34L1 35L0 35L0 38L1 38L1 39L0 39L0 40L1 40L1 42L0 42L0 43L1 43L1 44L3 44L3 45L4 45L4 44L3 44L3 43L7 43L7 44L6 44L6 45L8 45L8 46L9 46L9 47L8 47L8 48L10 48L10 49L9 49L9 50L8 50L8 53L12 53L12 52L13 52L13 51L11 51L11 46L9 46L9 45L10 45L10 44L9 44L9 41L10 41L10 42L12 42L12 43L11 43L11 44L12 44L12 47L16 47L16 48L15 48L15 49L12 49L12 50L14 50L14 51L15 51L15 52L14 52L14 53L16 53L16 52L18 52L18 53L19 53L19 52L18 52L18 49L19 49L19 48L18 48L18 47L19 47L19 46L20 46L20 47L21 47L21 46L23 46L23 47L22 47L22 48L23 48L23 50L22 50L22 51L24 51L24 53L27 53L27 51L24 51L24 49L25 49L25 50L26 50L26 49L28 49L28 51L29 51L29 52L28 52L28 53L29 53L29 52L30 52L30 51L31 51L31 52L32 52L32 53L33 53L33 52L34 52L34 53L35 53L35 52L36 52L36 53L37 53L37 52L38 52L38 53L39 53L39 50L38 50L38 49L39 49L39 48L40 48L40 50L41 50L41 51L40 51L40 53L44 53L44 52L43 52L43 50L42 50L42 48L44 48L44 49L45 49L45 50L44 50L44 51L45 51L45 53L50 53L50 49L49 49L49 48L50 48L50 46L51 46L51 45L52 45L52 48L51 48L51 49L52 49L52 48L53 48L53 45L52 45L52 44L53 44L53 42L52 42L52 44L50 44L50 43L51 43L51 41L52 41L52 40L53 40L53 38L52 38L52 37L50 37L50 34L51 34L51 33L49 33L49 32L50 32L50 31L51 31L51 32L52 32L52 33L53 33L53 32L52 32L52 31L53 31L53 29L52 29L52 27L53 27L53 26L52 26L52 27L51 27L51 26L50 26L50 23L51 23L51 21L53 21L53 18L52 18L52 20L51 20L51 21L49 21L49 20L48 20L48 21L47 21L47 19L48 19L48 17L49 17L49 18L50 18L50 19L51 19L51 17L50 17L50 16L49 16L49 15L51 15L51 14L50 14L50 13L52 13L52 16L53 16L53 10L52 10L52 9L53 9L53 8L51 8L51 9L49 9L49 8L45 8L45 6L44 6L44 7L43 7L43 3L44 3L44 4L45 4L45 3L44 3L44 1L43 1L43 0L38 0L38 1L37 1L37 0L36 0L36 3L35 3L35 0L34 0L34 1L33 1L33 0L32 0L32 2L34 2L34 3L33 3L33 4L32 4L32 5L31 5L31 4L30 4L30 3L31 3L31 2L30 2L30 1L31 1L31 0L30 0L30 1L29 1L29 0L26 0L26 1L25 1L25 0L24 0L24 2L23 2L23 4L24 4L24 7L23 7L23 6L22 6L22 7L21 7L21 6L20 6L20 5L22 5L22 1L23 1L23 0L22 0L22 1L21 1L21 0ZM10 1L10 2L11 2L11 1ZM12 1L12 3L13 3L13 1ZM20 1L20 2L21 2L21 1ZM26 1L26 2L27 2L27 1ZM28 1L28 4L29 4L29 7L30 7L30 8L29 8L29 9L28 9L28 10L27 10L27 11L26 11L26 12L28 12L28 14L27 14L27 13L26 13L26 14L25 14L25 15L24 15L24 18L23 18L23 19L24 19L24 20L23 20L23 21L22 21L22 19L20 19L20 18L21 18L21 17L20 17L20 14L21 14L21 12L20 12L20 14L19 14L19 15L18 15L18 16L19 16L19 17L18 17L18 18L19 18L19 20L21 20L21 21L20 21L20 22L19 22L19 21L18 21L18 19L17 19L17 18L16 18L16 19L17 19L17 20L16 20L16 23L14 23L14 24L15 24L15 25L14 25L14 26L15 26L15 28L16 28L16 30L13 30L13 32L12 32L12 31L11 31L11 30L10 30L10 29L12 29L12 28L10 28L10 27L12 27L12 26L13 26L13 23L11 23L11 22L9 22L9 24L10 24L10 25L9 25L9 28L10 28L10 29L8 29L8 31L9 31L9 32L7 32L7 31L6 31L6 32L7 32L7 33L6 33L6 34L7 34L7 33L8 33L8 34L9 34L9 35L10 35L10 36L9 36L9 37L8 37L8 36L7 36L7 35L6 35L6 36L7 36L7 37L6 37L6 38L4 38L4 40L3 40L3 41L2 41L2 43L3 43L3 42L4 42L4 40L5 40L5 39L6 39L6 40L7 40L7 39L8 39L8 41L6 41L6 42L8 42L8 41L9 41L9 37L10 37L10 36L13 36L13 37L11 37L11 39L10 39L10 40L11 40L11 41L12 41L12 42L13 42L13 43L12 43L12 44L13 44L13 45L14 45L14 46L15 46L15 44L16 44L16 47L17 47L17 46L19 46L19 45L20 45L20 46L21 46L21 45L20 45L20 44L19 44L19 45L18 45L18 43L19 43L19 40L18 40L18 39L19 39L19 38L22 38L22 36L21 36L21 35L22 35L22 34L23 34L23 33L24 33L24 35L23 35L23 36L24 36L24 35L25 35L25 37L26 37L26 38L27 38L27 37L26 37L26 35L28 35L28 41L27 41L27 42L28 42L28 41L30 41L30 43L31 43L31 44L29 44L29 43L28 43L28 44L29 44L29 45L30 45L30 46L32 46L32 48L30 48L30 47L29 47L29 49L30 49L30 50L29 50L29 51L30 51L30 50L32 50L32 51L33 51L33 49L32 49L32 48L34 48L34 50L35 50L35 51L36 51L36 52L37 52L37 49L36 49L36 47L37 47L37 48L38 48L38 47L40 47L40 48L42 48L42 47L44 47L44 45L42 45L42 47L41 47L41 45L40 45L40 44L41 44L41 43L42 43L42 44L44 44L44 43L45 43L45 44L46 44L46 42L47 42L47 40L45 40L45 38L47 38L47 36L46 36L46 34L47 34L47 33L46 33L46 30L45 30L45 29L44 29L44 25L42 25L42 23L43 23L43 24L46 24L46 22L47 22L47 24L49 24L49 23L50 23L50 22L49 22L49 23L48 23L48 22L47 22L47 21L46 21L46 19L47 19L47 17L46 17L46 14L47 14L47 15L48 15L48 14L49 14L49 13L48 13L48 14L47 14L47 13L46 13L46 12L47 12L47 11L48 11L48 9L46 9L46 10L47 10L47 11L46 11L46 12L45 12L45 11L44 11L44 12L45 12L45 13L44 13L44 14L43 14L43 11L42 11L42 12L41 12L41 9L40 9L40 8L41 8L41 7L42 7L42 5L41 5L41 3L40 3L40 2L41 2L41 1L40 1L40 2L39 2L39 1L38 1L38 2L37 2L37 3L36 3L36 5L35 5L35 7L34 7L34 6L33 6L33 9L34 9L34 10L35 10L35 9L36 9L36 8L37 8L37 7L38 7L38 10L39 10L39 11L37 11L37 12L38 12L38 16L39 16L39 17L38 17L38 19L35 19L35 18L37 18L37 17L36 17L36 16L37 16L37 13L36 13L36 11L35 11L35 13L34 13L34 14L33 14L33 17L34 17L34 19L33 19L33 18L32 18L32 15L31 15L31 16L30 16L30 14L32 14L32 12L34 12L34 11L33 11L33 10L31 10L31 9L32 9L32 6L31 6L31 5L30 5L30 4L29 4L29 3L30 3L30 2L29 2L29 1ZM24 2L24 4L25 4L25 2ZM38 2L38 3L37 3L37 4L38 4L38 5L36 5L36 7L37 7L37 6L38 6L38 7L39 7L39 8L40 8L40 7L41 7L41 5L40 5L40 3L39 3L39 2ZM42 2L42 3L43 3L43 2ZM34 3L34 4L33 4L33 5L34 5L34 4L35 4L35 3ZM25 5L25 8L28 8L28 5ZM38 5L38 6L39 6L39 7L40 7L40 6L39 6L39 5ZM19 6L19 8L20 8L20 6ZM26 6L26 7L27 7L27 6ZM30 6L30 7L31 7L31 6ZM12 8L12 9L9 9L9 10L8 10L8 11L3 11L3 14L4 14L4 15L3 15L3 16L4 16L4 15L5 15L5 21L6 21L6 22L7 22L7 23L6 23L6 24L7 24L7 23L8 23L8 21L6 21L6 20L7 20L7 19L8 19L8 20L9 20L9 21L10 21L10 20L9 20L9 18L12 18L12 17L11 17L11 15L10 15L10 16L9 16L9 13L8 13L8 11L9 11L9 12L11 12L11 11L12 11L12 10L13 10L13 8ZM16 8L16 9L17 9L17 8ZM21 8L21 10L20 10L20 11L21 11L21 10L23 10L23 11L24 11L24 13L23 13L23 14L22 14L22 15L21 15L21 16L22 16L22 15L23 15L23 14L24 14L24 13L25 13L25 11L24 11L24 10L23 10L23 9L24 9L24 8L23 8L23 9L22 9L22 8ZM30 8L30 9L29 9L29 10L28 10L28 12L30 12L30 13L29 13L29 14L28 14L28 15L27 15L27 14L26 14L26 15L25 15L25 18L28 18L28 20L30 20L30 19L31 19L31 21L32 21L32 22L33 22L33 23L32 23L32 25L31 25L31 22L30 22L30 21L29 21L29 22L28 22L28 21L27 21L27 20L26 20L26 19L25 19L25 20L24 20L24 22L25 22L25 24L24 24L24 23L23 23L23 24L22 24L22 21L21 21L21 22L20 22L20 24L19 24L19 23L18 23L18 24L19 24L19 26L18 26L18 27L17 27L17 26L16 26L16 27L17 27L17 28L18 28L18 29L19 29L19 28L22 28L22 29L24 29L24 30L23 30L23 31L22 31L22 32L23 32L23 31L24 31L24 32L25 32L25 31L24 31L24 30L25 30L25 29L26 29L26 31L27 31L27 32L26 32L26 33L27 33L27 32L28 32L28 31L30 31L30 28L31 28L31 27L32 27L32 25L33 25L33 26L34 26L34 27L33 27L33 28L32 28L32 29L31 29L31 30L32 30L32 31L34 31L34 32L32 32L32 33L33 33L33 35L31 35L31 34L30 34L30 32L29 32L29 33L28 33L28 35L29 35L29 34L30 34L30 36L29 36L29 39L30 39L30 41L31 41L31 39L32 39L32 43L33 43L33 44L32 44L32 46L33 46L33 47L36 47L36 46L37 46L37 47L38 47L38 43L39 43L39 42L38 42L38 40L37 40L37 38L38 38L38 39L39 39L39 38L38 38L38 37L37 37L37 36L38 36L38 35L39 35L39 34L38 34L38 33L37 33L37 31L36 31L36 30L38 30L38 31L39 31L39 30L38 30L38 29L39 29L39 27L38 27L38 29L37 29L37 27L36 27L36 25L38 25L38 24L36 24L36 22L34 22L34 20L35 20L35 19L34 19L34 20L33 20L33 19L32 19L32 18L30 18L30 16L28 16L28 15L29 15L29 14L30 14L30 13L31 13L31 11L30 11L30 9L31 9L31 8ZM42 8L42 10L43 10L43 8ZM44 8L44 10L45 10L45 8ZM39 9L39 10L40 10L40 9ZM9 10L9 11L10 11L10 10ZM49 10L49 11L50 11L50 12L51 12L51 11L52 11L52 10L51 10L51 11L50 11L50 10ZM4 12L4 13L5 13L5 14L6 14L6 15L7 15L7 16L6 16L6 17L7 17L7 18L6 18L6 19L7 19L7 18L9 18L9 16L8 16L8 15L7 15L7 14L8 14L8 13L7 13L7 12L6 12L6 13L5 13L5 12ZM12 12L12 13L13 13L13 12ZM40 12L40 13L39 13L39 15L40 15L40 13L41 13L41 16L40 16L40 17L39 17L39 19L38 19L38 20L39 20L39 19L40 19L40 23L39 23L39 22L38 22L38 21L37 21L37 20L36 20L36 21L37 21L37 22L38 22L38 23L39 23L39 24L40 24L40 26L42 26L42 27L43 27L43 26L42 26L42 25L41 25L41 24L40 24L40 23L41 23L41 19L40 19L40 17L41 17L41 18L42 18L42 21L43 21L43 23L44 23L44 20L43 20L43 18L44 18L44 16L45 16L45 14L46 14L46 13L45 13L45 14L44 14L44 16L43 16L43 18L42 18L42 15L43 15L43 14L42 14L42 13L41 13L41 12ZM6 13L6 14L7 14L7 13ZM10 13L10 14L11 14L11 13ZM35 13L35 14L34 14L34 17L35 17L35 16L36 16L36 15L35 15L35 14L36 14L36 13ZM12 14L12 16L13 16L13 19L14 19L14 20L15 20L15 19L14 19L14 18L15 18L15 16L14 16L14 15L16 15L16 14ZM26 15L26 16L27 16L27 17L28 17L28 16L27 16L27 15ZM7 16L7 17L8 17L8 16ZM45 17L45 19L46 19L46 17ZM17 21L17 22L18 22L18 21ZM45 21L45 22L46 22L46 21ZM2 22L2 25L1 25L1 26L2 26L2 27L1 27L1 34L2 34L2 35L1 35L1 37L2 37L2 35L4 35L4 36L3 36L3 37L4 37L4 36L5 36L5 34L4 34L4 31L3 31L3 32L2 32L2 27L3 27L3 26L2 26L2 25L3 25L3 23L4 23L4 24L5 24L5 22ZM26 22L26 24L27 24L27 23L28 23L28 24L29 24L29 28L30 28L30 27L31 27L31 25L30 25L30 24L29 24L29 23L28 23L28 22ZM52 22L52 23L53 23L53 22ZM10 23L10 24L11 24L11 23ZM16 23L16 25L17 25L17 23ZM34 24L34 26L35 26L35 25L36 25L36 24ZM51 24L51 25L52 25L52 24ZM5 25L5 28L8 28L8 25ZM10 25L10 26L12 26L12 25ZM21 25L21 26L20 26L20 27L21 27L21 26L24 26L24 25ZM25 25L25 28L28 28L28 25ZM45 25L45 28L48 28L48 25ZM6 26L6 27L7 27L7 26ZM26 26L26 27L27 27L27 26ZM46 26L46 27L47 27L47 26ZM49 26L49 27L50 27L50 28L51 28L51 27L50 27L50 26ZM13 27L13 28L14 28L14 27ZM34 27L34 28L35 28L35 29L34 29L34 30L36 30L36 27ZM3 28L3 30L7 30L7 29L4 29L4 28ZM40 28L40 29L41 29L41 30L40 30L40 31L43 31L43 30L42 30L42 29L41 29L41 28ZM27 29L27 30L28 30L28 29ZM32 29L32 30L33 30L33 29ZM48 29L48 30L47 30L47 32L48 32L48 30L49 30L49 31L50 31L50 30L51 30L51 31L52 31L52 30L51 30L51 29L50 29L50 30L49 30L49 29ZM16 30L16 32L15 32L15 31L14 31L14 32L15 32L15 34L11 34L11 35L15 35L15 36L14 36L14 37L13 37L13 38L12 38L12 40L13 40L13 42L14 42L14 44L15 44L15 42L14 42L14 41L15 41L15 40L16 40L16 41L17 41L17 39L15 39L15 38L16 38L16 36L17 36L17 35L16 35L16 34L18 34L18 38L19 38L19 34L18 34L18 33L19 33L19 32L18 32L18 31L21 31L21 30ZM10 31L10 33L9 33L9 34L10 34L10 33L11 33L11 31ZM44 31L44 32L43 32L43 35L41 35L41 36L40 36L40 38L41 38L41 39L40 39L40 43L41 43L41 42L42 42L42 43L43 43L43 42L45 42L45 40L44 40L44 33L45 33L45 31ZM20 32L20 33L21 33L21 32ZM34 32L34 39L33 39L33 40L34 40L34 39L35 39L35 41L34 41L34 43L35 43L35 45L34 45L34 46L36 46L36 44L37 44L37 41L36 41L36 38L37 38L37 37L36 37L36 36L37 36L37 35L38 35L38 34L37 34L37 35L35 35L35 32ZM40 32L40 33L41 33L41 34L42 34L42 33L41 33L41 32ZM2 33L2 34L3 34L3 33ZM48 33L48 35L49 35L49 33ZM20 34L20 35L21 35L21 34ZM25 34L25 35L26 35L26 34ZM52 34L52 35L53 35L53 34ZM30 36L30 38L31 38L31 36ZM42 36L42 38L43 38L43 36ZM45 36L45 37L46 37L46 36ZM48 36L48 38L49 38L49 39L48 39L48 40L49 40L49 39L50 39L50 40L52 40L52 38L51 38L51 39L50 39L50 37L49 37L49 36ZM7 37L7 38L6 38L6 39L7 39L7 38L8 38L8 37ZM14 37L14 38L15 38L15 37ZM32 37L32 38L33 38L33 37ZM2 38L2 39L3 39L3 38ZM24 38L24 39L22 39L22 40L23 40L23 41L22 41L22 42L20 42L20 43L23 43L23 44L24 44L24 43L26 43L26 44L27 44L27 43L26 43L26 39L25 39L25 38ZM14 39L14 40L15 40L15 39ZM20 39L20 40L21 40L21 39ZM24 39L24 42L23 42L23 43L24 43L24 42L25 42L25 39ZM41 39L41 40L42 40L42 42L43 42L43 40L42 40L42 39ZM35 41L35 42L36 42L36 41ZM48 41L48 43L47 43L47 44L48 44L48 43L50 43L50 42L49 42L49 41ZM16 42L16 43L18 43L18 42ZM23 45L23 46L24 46L24 45ZM25 45L25 48L28 48L28 45ZM45 45L45 48L48 48L48 45ZM49 45L49 46L50 46L50 45ZM26 46L26 47L27 47L27 46ZM46 46L46 47L47 47L47 46ZM20 48L20 49L21 49L21 48ZM35 49L35 50L36 50L36 49ZM46 49L46 52L49 52L49 51L48 51L48 49ZM16 50L16 51L17 51L17 50ZM20 50L20 51L21 51L21 50ZM41 51L41 52L42 52L42 51ZM20 52L20 53L21 53L21 52ZM22 52L22 53L23 53L23 52ZM52 52L52 53L53 53L53 52ZM0 0L0 7L7 7L7 0ZM1 1L1 6L6 6L6 1ZM2 2L2 5L5 5L5 2ZM46 0L46 7L53 7L53 0ZM47 1L47 6L52 6L52 1ZM48 2L48 5L51 5L51 2ZM0 46L0 53L7 53L7 46ZM1 47L1 52L6 52L6 47ZM2 48L2 51L5 51L5 48Z" fill="#000000"/></g></g></svg>
