<?xml version="1.0" encoding="UTF-8"?>
<svg xmlns="http://www.w3.org/2000/svg" version="1.1" width="356" height="356" viewBox="0 0 356 356"><rect x="0" y="0" width="356" height="356" fill="#ffffff"/><g transform="scale(6.717)"><g transform="translate(0,0)"><path fill-rule="evenodd" d="M8 0L8 1L9 1L9 2L8 2L8 5L9 5L9 4L10 4L10 2L11 2L11 1L12 1L12 2L13 2L13 0L11 0L11 1L10 1L10 0ZM16 0L16 2L15 2L15 3L16 3L16 4L17 4L17 6L16 6L16 7L17 7L17 8L15 8L15 6L14 6L14 4L12 4L12 3L11 3L11 6L10 6L10 7L11 7L11 6L12 6L12 8L13 8L13 9L12 9L12 10L11 10L11 12L10 12L10 8L8 8L8 10L9 10L9 11L7 11L7 10L6 10L6 11L7 11L7 12L5 12L5 9L4 9L4 8L0 8L0 9L2 9L2 11L0 11L0 13L1 13L1 14L2 14L2 16L1 16L1 17L2 17L2 16L4 16L4 17L3 17L3 18L0 18L0 19L1 19L1 20L0 20L0 21L1 21L1 22L0 22L0 25L1 25L1 23L3 23L3 24L2 24L2 26L0 26L0 28L1 28L1 27L2 27L2 28L3 28L3 30L5 30L5 31L7 31L7 30L5 30L5 29L9 29L9 32L8 32L8 33L9 33L9 34L8 34L8 35L7 35L7 34L6 34L6 33L7 33L7 32L4 32L4 33L5 33L5 35L7 35L7 36L6 36L6 37L8 37L8 38L9 38L9 39L8 39L8 40L9 40L9 39L11 39L11 38L9 38L9 37L11 37L11 36L10 36L10 33L11 33L11 35L12 35L12 33L11 33L11 32L12 32L12 31L15 31L15 30L17 30L17 28L18 28L18 24L21 24L21 25L22 25L22 24L24 24L24 28L23 28L23 29L24 29L24 30L25 30L25 29L29 29L29 30L30 30L30 29L32 29L32 32L33 32L33 30L35 30L35 29L33 29L33 28L31 28L31 27L35 27L35 26L34 26L34 25L37 25L37 26L36 26L36 27L37 27L37 28L39 28L39 30L38 30L38 31L36 31L36 32L39 32L39 33L41 33L41 35L38 35L38 34L37 34L37 36L36 36L36 33L35 33L35 34L34 34L34 35L35 35L35 38L36 38L36 39L38 39L38 41L39 41L39 42L37 42L37 43L35 43L35 41L33 41L33 40L35 40L35 39L34 39L34 37L33 37L33 38L31 38L31 39L32 39L32 40L31 40L31 43L29 43L29 44L28 44L28 43L27 43L27 42L30 42L30 41L28 41L28 40L27 40L27 39L28 39L28 37L29 37L29 36L30 36L30 37L32 37L32 36L33 36L33 35L32 35L32 34L31 34L31 33L30 33L30 31L29 31L29 35L28 35L28 34L26 34L26 33L25 33L25 32L27 32L27 33L28 33L28 30L27 30L27 31L24 31L24 33L25 33L25 37L24 37L24 36L23 36L23 37L21 37L21 36L20 36L20 35L21 35L21 34L22 34L22 32L23 32L23 30L22 30L22 29L21 29L21 30L22 30L22 32L21 32L21 31L20 31L20 32L21 32L21 34L19 34L19 33L17 33L17 31L16 31L16 35L15 35L15 34L14 34L14 35L13 35L13 37L12 37L12 38L13 38L13 40L14 40L14 41L16 41L16 42L17 42L17 41L16 41L16 40L17 40L17 39L19 39L19 40L18 40L18 41L19 41L19 40L20 40L20 43L17 43L17 45L18 45L18 46L16 46L16 47L17 47L17 48L18 48L18 49L20 49L20 50L21 50L21 49L20 49L20 47L23 47L23 48L22 48L22 49L23 49L23 50L22 50L22 52L19 52L19 50L18 50L18 51L16 51L16 53L17 53L17 52L19 52L19 53L22 53L22 52L23 52L23 51L25 51L25 52L26 52L26 53L28 53L28 51L29 51L29 52L30 52L30 53L34 53L34 52L37 52L37 51L38 51L38 52L39 52L39 51L40 51L40 52L41 52L41 51L43 51L43 52L44 52L44 53L46 53L46 52L45 52L45 51L43 51L43 50L46 50L46 51L48 51L48 52L47 52L47 53L48 53L48 52L49 52L49 53L50 53L50 52L49 52L49 51L48 51L48 50L50 50L50 51L51 51L51 53L52 53L52 50L51 50L51 49L53 49L53 47L52 47L52 46L51 46L51 41L52 41L52 42L53 42L53 41L52 41L52 39L53 39L53 38L52 38L52 37L53 37L53 35L52 35L52 33L51 33L51 31L50 31L50 30L48 30L48 29L49 29L49 28L50 28L50 29L51 29L51 28L50 28L50 27L49 27L49 24L46 24L46 23L47 23L47 22L48 22L48 20L47 20L47 18L48 18L48 15L47 15L47 14L46 14L46 13L49 13L49 15L50 15L50 14L51 14L51 15L53 15L53 13L52 13L52 10L51 10L51 8L48 8L48 9L50 9L50 10L51 10L51 13L49 13L49 11L47 11L47 12L45 12L45 11L44 11L44 12L45 12L45 13L43 13L43 12L42 12L42 11L43 11L43 10L44 10L44 7L45 7L45 6L44 6L44 7L43 7L43 3L44 3L44 4L45 4L45 3L44 3L44 1L43 1L43 0L41 0L41 2L40 2L40 0L39 0L39 1L38 1L38 0L35 0L35 1L33 1L33 2L32 2L32 3L31 3L31 2L30 2L30 1L32 1L32 0L28 0L28 1L29 1L29 2L30 2L30 3L31 3L31 5L33 5L33 6L32 6L32 7L33 7L33 6L34 6L34 7L35 7L35 11L34 11L34 12L35 12L35 13L38 13L38 15L37 15L37 14L36 14L36 15L35 15L35 14L34 14L34 13L33 13L33 14L34 14L34 15L32 15L32 16L31 16L31 14L32 14L32 10L33 10L33 9L34 9L34 8L33 8L33 9L31 9L31 6L30 6L30 5L29 5L29 4L27 4L27 3L26 3L26 4L24 4L24 3L25 3L25 2L23 2L23 1L25 1L25 0L23 0L23 1L22 1L22 0L21 0L21 1L19 1L19 0ZM26 0L26 1L27 1L27 0ZM17 1L17 2L16 2L16 3L17 3L17 2L19 2L19 1ZM21 1L21 2L20 2L20 3L21 3L21 4L22 4L22 5L19 5L19 8L20 8L20 9L21 9L21 7L22 7L22 5L23 5L23 7L24 7L24 4L23 4L23 2L22 2L22 1ZM33 2L33 3L32 3L32 4L33 4L33 5L34 5L34 6L35 6L35 7L36 7L36 12L38 12L38 13L40 13L40 14L39 14L39 15L38 15L38 17L37 17L37 16L34 16L34 17L35 17L35 20L32 20L32 18L31 18L31 16L29 16L29 15L27 15L27 14L31 14L31 13L28 13L28 12L27 12L27 10L28 10L28 11L29 11L29 12L30 12L30 11L31 11L31 10L30 10L30 11L29 11L29 9L26 9L26 10L25 10L25 9L24 9L24 12L26 12L26 13L25 13L25 14L22 14L22 13L23 13L23 11L22 11L22 10L23 10L23 9L22 9L22 10L19 10L19 11L18 11L18 12L19 12L19 13L20 13L20 11L21 11L21 14L17 14L17 13L16 13L16 14L17 14L17 15L19 15L19 16L18 16L18 18L17 18L17 16L16 16L16 15L15 15L15 16L14 16L14 14L15 14L15 12L16 12L16 11L17 11L17 10L18 10L18 9L16 9L16 11L15 11L15 8L14 8L14 10L12 10L12 11L14 11L14 12L11 12L11 14L10 14L10 12L8 12L8 13L6 13L6 14L5 14L5 13L3 13L3 11L4 11L4 9L3 9L3 11L2 11L2 14L3 14L3 15L4 15L4 16L5 16L5 17L4 17L4 18L3 18L3 19L2 19L2 20L3 20L3 19L6 19L6 20L4 20L4 24L3 24L3 25L4 25L4 24L5 24L5 21L6 21L6 22L7 22L7 23L6 23L6 24L7 24L7 23L10 23L10 22L11 22L11 23L13 23L13 24L10 24L10 25L9 25L9 26L10 26L10 27L11 27L11 26L12 26L12 28L9 28L9 29L11 29L11 31L12 31L12 28L13 28L13 30L14 30L14 27L15 27L15 26L17 26L17 24L18 24L18 22L17 22L17 20L14 20L14 21L15 21L15 23L14 23L14 22L11 22L11 21L10 21L10 20L9 20L9 19L8 19L8 16L9 16L9 17L10 17L10 15L11 15L11 16L14 16L14 19L15 19L15 17L16 17L16 18L17 18L17 19L18 19L18 18L19 18L19 16L20 16L20 15L25 15L25 14L26 14L26 16L27 16L27 17L25 17L25 16L24 16L24 18L23 18L23 16L21 16L21 17L20 17L20 19L19 19L19 20L18 20L18 21L19 21L19 20L20 20L20 22L21 22L21 23L22 23L22 22L23 22L23 23L24 23L24 24L27 24L27 23L30 23L30 24L29 24L29 25L30 25L30 26L31 26L31 22L32 22L32 23L34 23L34 24L35 24L35 23L36 23L36 24L37 24L37 23L38 23L38 25L39 25L39 26L37 26L37 27L39 27L39 28L40 28L40 30L39 30L39 31L40 31L40 32L41 32L41 33L42 33L42 32L43 32L43 31L42 31L42 30L43 30L43 29L44 29L44 33L43 33L43 34L42 34L42 35L43 35L43 36L39 36L39 37L40 37L40 39L39 39L39 38L38 38L38 39L39 39L39 41L41 41L41 40L42 40L42 42L40 42L40 43L39 43L39 44L38 44L38 43L37 43L37 44L36 44L36 45L34 45L34 43L33 43L33 42L32 42L32 43L31 43L31 45L32 45L32 47L31 47L31 46L29 46L29 47L31 47L31 48L29 48L29 51L31 51L31 52L32 52L32 51L31 51L31 50L32 50L32 49L33 49L33 48L34 48L34 47L35 47L35 46L37 46L37 45L38 45L38 47L39 47L39 44L41 44L41 45L40 45L40 47L43 47L43 46L44 46L44 45L43 45L43 46L41 46L41 45L42 45L42 44L43 44L43 43L42 43L42 42L44 42L44 44L45 44L45 41L47 41L47 40L45 40L45 41L44 41L44 39L45 39L45 38L46 38L46 36L44 36L44 33L45 33L45 34L46 34L46 35L49 35L49 36L47 36L47 39L50 39L50 40L48 40L48 42L46 42L46 43L48 43L48 44L49 44L49 43L50 43L50 42L49 42L49 41L50 41L50 40L51 40L51 37L52 37L52 35L51 35L51 34L47 34L47 33L50 33L50 32L47 32L47 30L45 30L45 29L44 29L44 27L43 27L43 25L42 25L42 24L43 24L43 23L41 23L41 21L43 21L43 22L44 22L44 23L46 23L46 22L47 22L47 20L45 20L45 21L44 21L44 19L43 19L43 18L45 18L45 17L44 17L44 16L45 16L45 15L46 15L46 14L45 14L45 15L43 15L43 16L42 16L42 17L41 17L41 15L42 15L42 14L43 14L43 13L42 13L42 12L40 12L40 11L42 11L42 9L43 9L43 7L42 7L42 5L40 5L40 4L41 4L41 3L43 3L43 2L41 2L41 3L40 3L40 2L37 2L37 4L36 4L36 6L35 6L35 4L34 4L34 2ZM35 2L35 3L36 3L36 2ZM37 4L37 6L36 6L36 7L37 7L37 10L38 10L38 11L39 11L39 10L38 10L38 9L40 9L40 10L41 10L41 9L42 9L42 8L40 8L40 7L41 7L41 6L40 6L40 5L39 5L39 4ZM25 5L25 8L28 8L28 5ZM38 5L38 6L37 6L37 7L38 7L38 6L39 6L39 7L40 7L40 6L39 6L39 5ZM8 6L8 7L9 7L9 6ZM13 6L13 7L14 7L14 6ZM17 6L17 7L18 7L18 6ZM20 6L20 7L21 7L21 6ZM26 6L26 7L27 7L27 6ZM29 6L29 8L30 8L30 6ZM6 8L6 9L7 9L7 8ZM45 8L45 9L46 9L46 8ZM52 8L52 9L53 9L53 8ZM8 13L8 14L9 14L9 13ZM13 13L13 14L11 14L11 15L13 15L13 14L14 14L14 13ZM51 13L51 14L52 14L52 13ZM6 14L6 15L5 15L5 16L6 16L6 17L5 17L5 18L6 18L6 19L7 19L7 20L6 20L6 21L8 21L8 22L10 22L10 21L9 21L9 20L8 20L8 19L7 19L7 18L6 18L6 17L7 17L7 16L8 16L8 15L7 15L7 14ZM6 15L6 16L7 16L7 15ZM39 16L39 19L38 19L38 18L36 18L36 19L38 19L38 21L36 21L36 20L35 20L35 22L36 22L36 23L37 23L37 22L38 22L38 23L39 23L39 25L40 25L40 26L39 26L39 27L42 27L42 26L41 26L41 25L40 25L40 23L39 23L39 22L38 22L38 21L41 21L41 20L43 20L43 19L42 19L42 18L41 18L41 17L40 17L40 16ZM46 16L46 17L47 17L47 16ZM52 16L52 18L53 18L53 16ZM21 17L21 19L20 19L20 20L21 20L21 22L22 22L22 21L23 21L23 22L24 22L24 21L25 21L25 20L24 20L24 21L23 21L23 20L21 20L21 19L23 19L23 18L22 18L22 17ZM29 17L29 19L28 19L28 20L27 20L27 19L26 19L26 22L27 22L27 21L28 21L28 22L31 22L31 18L30 18L30 17ZM11 18L11 19L13 19L13 18ZM40 18L40 19L41 19L41 18ZM50 18L50 19L49 19L49 23L52 23L52 24L50 24L50 25L53 25L53 23L52 23L52 22L51 22L51 18ZM52 19L52 21L53 21L53 19ZM12 20L12 21L13 21L13 20ZM28 20L28 21L30 21L30 20ZM32 21L32 22L33 22L33 21ZM16 22L16 23L17 23L17 22ZM32 24L32 25L33 25L33 24ZM5 25L5 28L8 28L8 25ZM12 25L12 26L13 26L13 27L14 27L14 26L15 26L15 25ZM19 25L19 30L18 30L18 31L19 31L19 30L20 30L20 28L21 28L21 27L22 27L22 26L20 26L20 25ZM25 25L25 28L28 28L28 25ZM45 25L45 28L48 28L48 25ZM6 26L6 27L7 27L7 26ZM26 26L26 27L27 27L27 26ZM46 26L46 27L47 27L47 26ZM51 26L51 27L53 27L53 26ZM16 27L16 28L15 28L15 29L16 29L16 28L17 28L17 27ZM41 28L41 30L42 30L42 28ZM52 28L52 29L53 29L53 28ZM36 29L36 30L37 30L37 29ZM0 30L0 31L1 31L1 32L0 32L0 34L1 34L1 35L3 35L3 37L4 37L4 38L3 38L3 40L1 40L1 39L2 39L2 36L1 36L1 37L0 37L0 38L1 38L1 39L0 39L0 43L1 43L1 44L3 44L3 45L4 45L4 44L3 44L3 43L7 43L7 42L8 42L8 41L7 41L7 40L5 40L5 39L4 39L4 38L5 38L5 36L4 36L4 35L3 35L3 34L1 34L1 33L3 33L3 32L2 32L2 31L1 31L1 30ZM34 31L34 32L35 32L35 31ZM52 31L52 32L53 32L53 31ZM9 32L9 33L10 33L10 32ZM14 32L14 33L15 33L15 32ZM45 32L45 33L46 33L46 32ZM17 34L17 35L16 35L16 36L18 36L18 35L19 35L19 34ZM23 34L23 35L24 35L24 34ZM30 34L30 35L31 35L31 34ZM8 35L8 37L9 37L9 35ZM14 35L14 37L15 37L15 35ZM26 35L26 37L28 37L28 36L27 36L27 35ZM37 36L37 37L38 37L38 36ZM50 36L50 37L51 37L51 36ZM16 37L16 39L15 39L15 38L14 38L14 40L16 40L16 39L17 39L17 37ZM19 37L19 38L20 38L20 40L21 40L21 41L23 41L23 42L21 42L21 43L20 43L20 44L18 44L18 45L20 45L20 46L24 46L24 44L27 44L27 43L26 43L26 42L27 42L27 41L25 41L25 40L26 40L26 39L24 39L24 38L23 38L23 39L22 39L22 38L20 38L20 37ZM41 37L41 39L40 39L40 40L41 40L41 39L43 39L43 38L44 38L44 37L43 37L43 38L42 38L42 37ZM6 38L6 39L7 39L7 38ZM29 38L29 40L30 40L30 38ZM3 40L3 41L1 41L1 42L2 42L2 43L3 43L3 41L5 41L5 40ZM11 40L11 41L9 41L9 43L8 43L8 46L9 46L9 48L13 48L13 49L12 49L12 50L10 50L10 49L8 49L8 53L9 53L9 50L10 50L10 51L12 51L12 53L14 53L14 51L15 51L15 50L17 50L17 49L16 49L16 48L15 48L15 47L12 47L12 45L10 45L10 46L9 46L9 43L10 43L10 42L12 42L12 40ZM6 41L6 42L7 42L7 41ZM24 41L24 42L25 42L25 41ZM13 42L13 43L11 43L11 44L13 44L13 43L14 43L14 46L15 46L15 42ZM48 42L48 43L49 43L49 42ZM23 43L23 44L21 44L21 45L23 45L23 44L24 44L24 43ZM32 43L32 44L33 44L33 43ZM41 43L41 44L42 44L42 43ZM52 43L52 44L53 44L53 43ZM6 44L6 45L7 45L7 44ZM29 44L29 45L30 45L30 44ZM25 45L25 48L28 48L28 45ZM45 45L45 48L48 48L48 45ZM49 45L49 48L51 48L51 46L50 46L50 45ZM10 46L10 47L11 47L11 46ZM18 46L18 48L19 48L19 46ZM26 46L26 47L27 47L27 46ZM46 46L46 47L47 47L47 46ZM36 47L36 48L37 48L37 47ZM23 48L23 49L24 49L24 50L25 50L25 49L24 49L24 48ZM31 48L31 49L32 49L32 48ZM38 48L38 49L40 49L40 50L41 50L41 48ZM13 49L13 50L15 50L15 49ZM27 49L27 51L26 51L26 52L27 52L27 51L28 51L28 49ZM34 49L34 50L33 50L33 52L34 52L34 50L35 50L35 51L37 51L37 49ZM42 49L42 50L43 50L43 49ZM10 52L10 53L11 53L11 52ZM0 0L0 7L7 7L7 0ZM1 1L1 6L6 6L6 1ZM2 2L2 5L5 5L5 2ZM46 0L46 7L53 7L53 0ZM47 1L47 6L52 6L52 1ZM48 2L48 5L51 5L51 2ZM0 46L0 53L7 53L7 46ZM1 47L1 52L6 52L6 47ZM2 48L2 51L5 51L5 48Z" fill="#000000"/></g></g></svg>
