<?xml version="1.0" encoding="UTF-8"?>
<svg xmlns="http://www.w3.org/2000/svg" version="1.1" width="356" height="356" viewBox="0 0 356 356"><rect x="0" y="0" width="356" height="356" fill="#ffffff"/><g transform="scale(6.717)"><g transform="translate(0,0)"><path fill-rule="evenodd" d="M8 0L8 2L9 2L9 4L8 4L8 9L9 9L9 6L10 6L10 7L11 7L11 8L10 8L10 11L11 11L11 12L10 12L10 13L9 13L9 11L8 11L8 10L5 10L5 9L7 9L7 8L5 8L5 9L4 9L4 10L3 10L3 8L0 8L0 13L2 13L2 12L1 12L1 9L2 9L2 11L3 11L3 14L2 14L2 15L1 15L1 14L0 14L0 15L1 15L1 16L0 16L0 19L1 19L1 20L0 20L0 22L2 22L2 23L0 23L0 24L3 24L3 25L0 25L0 26L1 26L1 27L3 27L3 29L1 29L1 28L0 28L0 32L1 32L1 30L3 30L3 31L2 31L2 32L4 32L4 31L10 31L10 34L9 34L9 32L8 32L8 33L7 33L7 32L5 32L5 33L3 33L3 35L4 35L4 36L3 36L3 38L1 38L1 37L2 37L2 33L0 33L0 36L1 36L1 37L0 37L0 39L2 39L2 40L6 40L6 41L5 41L5 42L3 42L3 41L2 41L2 42L1 42L1 40L0 40L0 43L1 43L1 44L3 44L3 45L4 45L4 44L3 44L3 43L7 43L7 42L8 42L8 44L6 44L6 45L8 45L8 46L9 46L9 44L10 44L10 45L11 45L11 46L10 46L10 47L8 47L8 48L10 48L10 49L9 49L9 50L8 50L8 53L9 53L9 51L10 51L10 52L11 52L11 53L13 53L13 52L12 52L12 51L14 51L14 52L15 52L15 53L16 53L16 52L18 52L18 53L20 53L20 52L18 52L18 49L19 49L19 48L20 48L20 49L21 49L21 48L20 48L20 47L21 47L21 46L23 46L23 47L22 47L22 48L23 48L23 50L20 50L20 51L21 51L21 52L22 52L22 53L23 53L23 52L24 52L24 53L25 53L25 52L24 52L24 51L23 51L23 50L24 50L24 49L25 49L25 51L26 51L26 49L28 49L28 53L30 53L30 52L31 52L31 51L32 51L32 50L30 50L30 49L31 49L31 48L32 48L32 49L33 49L33 52L32 52L32 53L34 53L34 52L35 52L35 50L36 50L36 51L37 51L37 52L36 52L36 53L37 53L37 52L38 52L38 51L39 51L39 52L40 52L40 53L41 53L41 52L42 52L42 53L45 53L45 52L46 52L46 53L50 53L50 50L51 50L51 49L52 49L52 48L53 48L53 46L52 46L52 44L53 44L53 42L52 42L52 44L50 44L50 43L49 43L49 42L50 42L50 41L51 41L51 40L50 40L50 39L51 39L51 36L50 36L50 34L51 34L51 33L52 33L52 31L53 31L53 29L52 29L52 27L53 27L53 26L52 26L52 27L51 27L51 28L50 28L50 26L51 26L51 25L50 25L50 23L51 23L51 24L52 24L52 25L53 25L53 24L52 24L52 23L53 23L53 22L52 22L52 21L53 21L53 18L52 18L52 20L51 20L51 21L49 21L49 20L50 20L50 19L49 19L49 20L48 20L48 21L47 21L47 22L46 22L46 21L45 21L45 22L46 22L46 23L45 23L45 24L44 24L44 20L47 20L47 19L48 19L48 17L49 17L49 18L50 18L50 16L49 16L49 15L51 15L51 17L52 17L52 15L53 15L53 10L52 10L52 9L53 9L53 8L51 8L51 9L50 9L50 10L49 10L49 8L45 8L45 6L44 6L44 8L43 8L43 10L44 10L44 9L45 9L45 11L42 11L42 12L40 12L40 13L41 13L41 14L42 14L42 15L40 15L40 14L39 14L39 15L38 15L38 16L36 16L36 15L35 15L35 14L38 14L38 13L39 13L39 12L38 12L38 11L39 11L39 10L40 10L40 11L41 11L41 10L42 10L42 9L41 9L41 8L42 8L42 7L43 7L43 3L44 3L44 4L45 4L45 3L44 3L44 1L43 1L43 0L42 0L42 2L40 2L40 1L41 1L41 0L38 0L38 3L39 3L39 4L38 4L38 5L39 5L39 6L38 6L38 7L37 7L37 6L36 6L36 5L37 5L37 4L36 4L36 3L37 3L37 0L36 0L36 2L35 2L35 0L34 0L34 1L33 1L33 0L32 0L32 2L33 2L33 4L32 4L32 3L31 3L31 4L30 4L30 2L31 2L31 0L30 0L30 2L28 2L28 4L27 4L27 2L26 2L26 1L25 1L25 0L24 0L24 1L23 1L23 2L22 2L22 0L18 0L18 1L16 1L16 2L18 2L18 1L19 1L19 4L20 4L20 5L18 5L18 3L15 3L15 5L16 5L16 7L17 7L17 6L18 6L18 8L19 8L19 12L18 12L18 10L16 10L16 11L17 11L17 12L18 12L18 14L16 14L16 12L12 12L12 11L13 11L13 10L14 10L14 11L15 11L15 10L14 10L14 9L15 9L15 8L14 8L14 7L15 7L15 6L14 6L14 7L13 7L13 6L12 6L12 7L11 7L11 5L13 5L13 4L11 4L11 5L9 5L9 4L10 4L10 2L11 2L11 3L12 3L12 2L13 2L13 3L14 3L14 1L15 1L15 0L11 0L11 1L10 1L10 2L9 2L9 0ZM20 1L20 2L21 2L21 3L22 3L22 4L21 4L21 5L20 5L20 6L19 6L19 8L20 8L20 6L21 6L21 7L22 7L22 8L21 8L21 10L20 10L20 11L21 11L21 12L20 12L20 14L19 14L19 15L18 15L18 16L19 16L19 17L18 17L18 18L19 18L19 20L21 20L21 21L20 21L20 22L19 22L19 21L18 21L18 19L17 19L17 18L16 18L16 19L17 19L17 20L16 20L16 23L14 23L14 24L15 24L15 25L14 25L14 26L15 26L15 28L16 28L16 30L12 30L12 29L13 29L13 28L14 28L14 27L13 27L13 26L12 26L12 24L13 24L13 22L12 22L12 23L11 23L11 21L12 21L12 20L13 20L13 19L14 19L14 20L15 20L15 19L14 19L14 18L15 18L15 16L14 16L14 15L16 15L16 14L13 14L13 13L12 13L12 12L11 12L11 13L12 13L12 14L11 14L11 16L12 16L12 17L11 17L11 18L12 18L12 20L10 20L10 18L9 18L9 20L10 20L10 21L9 21L9 22L8 22L8 20L7 20L7 19L6 19L6 18L7 18L7 17L6 17L6 16L7 16L7 15L8 15L8 16L9 16L9 17L10 17L10 16L9 16L9 13L8 13L8 12L7 12L7 11L4 11L4 12L5 12L5 14L4 14L4 15L3 15L3 16L2 16L2 17L1 17L1 19L5 19L5 20L3 20L3 21L2 21L2 22L3 22L3 23L4 23L4 22L5 22L5 21L6 21L6 22L8 22L8 23L6 23L6 24L10 24L10 25L11 25L11 26L9 26L9 27L10 27L10 28L11 28L11 27L12 27L12 29L11 29L11 30L10 30L10 29L9 29L9 30L10 30L10 31L11 31L11 34L12 34L12 36L11 36L11 35L10 35L10 36L9 36L9 34L8 34L8 35L6 35L6 34L7 34L7 33L6 33L6 34L5 34L5 36L7 36L7 37L6 37L6 38L5 38L5 37L4 37L4 38L3 38L3 39L4 39L4 38L5 38L5 39L6 39L6 40L8 40L8 42L11 42L11 44L12 44L12 43L13 43L13 45L15 45L15 44L16 44L16 47L15 47L15 48L12 48L12 49L11 49L11 50L12 50L12 49L13 49L13 50L14 50L14 51L15 51L15 50L14 50L14 49L15 49L15 48L16 48L16 47L17 47L17 46L19 46L19 45L20 45L20 46L21 46L21 44L23 44L23 43L21 43L21 42L20 42L20 43L21 43L21 44L19 44L19 45L18 45L18 43L19 43L19 40L20 40L20 39L21 39L21 37L22 37L22 36L23 36L23 37L24 37L24 36L25 36L25 38L24 38L24 39L22 39L22 40L23 40L23 41L22 41L22 42L24 42L24 41L25 41L25 40L26 40L26 39L27 39L27 38L28 38L28 40L29 40L29 41L30 41L30 43L31 43L31 44L30 44L30 46L29 46L29 47L32 47L32 48L34 48L34 50L35 50L35 49L36 49L36 50L37 50L37 51L38 51L38 50L39 50L39 49L40 49L40 51L42 51L42 52L45 52L45 51L46 51L46 52L49 52L49 51L48 51L48 49L46 49L46 50L45 50L45 49L44 49L44 50L43 50L43 48L41 48L41 49L40 49L40 47L41 47L41 45L42 45L42 46L44 46L44 45L42 45L42 44L41 44L41 43L40 43L40 44L39 44L39 43L38 43L38 42L39 42L39 41L40 41L40 40L39 40L39 41L38 41L38 42L37 42L37 43L36 43L36 42L35 42L35 41L36 41L36 38L35 38L35 37L36 37L36 36L37 36L37 37L38 37L38 38L40 38L40 39L41 39L41 40L42 40L42 39L43 39L43 37L42 37L42 35L41 35L41 34L40 34L40 32L42 32L42 34L43 34L43 35L44 35L44 37L46 37L46 38L47 38L47 37L46 37L46 36L47 36L47 35L49 35L49 34L50 34L50 33L51 33L51 31L50 31L50 30L51 30L51 29L50 29L50 28L49 28L49 29L48 29L48 30L47 30L47 31L46 31L46 29L44 29L44 26L43 26L43 24L41 24L41 23L43 23L43 21L42 21L42 20L43 20L43 19L45 19L45 17L46 17L46 19L47 19L47 17L46 17L46 15L45 15L45 13L44 13L44 12L42 12L42 14L43 14L43 13L44 13L44 15L42 15L42 16L44 16L44 15L45 15L45 17L44 17L44 18L43 18L43 17L42 17L42 18L43 18L43 19L42 19L42 20L41 20L41 21L40 21L40 20L39 20L39 21L38 21L38 19L40 19L40 18L41 18L41 17L40 17L40 15L39 15L39 17L38 17L38 19L35 19L35 18L37 18L37 17L36 17L36 16L35 16L35 17L34 17L34 15L33 15L33 17L34 17L34 19L35 19L35 20L34 20L34 22L32 22L32 21L30 21L30 22L31 22L31 23L29 23L29 24L30 24L30 26L31 26L31 25L32 25L32 27L31 27L31 29L30 29L30 28L29 28L29 29L28 29L28 30L27 30L27 29L26 29L26 31L25 31L25 30L24 30L24 29L23 29L23 30L22 30L22 28L24 28L24 25L21 25L21 26L20 26L20 27L21 27L21 28L19 28L19 29L18 29L18 28L17 28L17 27L18 27L18 26L19 26L19 24L20 24L20 22L21 22L21 21L22 21L22 24L23 24L23 23L24 23L24 24L25 24L25 23L24 23L24 22L23 22L23 21L22 21L22 20L21 20L21 19L23 19L23 18L21 18L21 17L20 17L20 14L22 14L22 15L21 15L21 16L22 16L22 15L23 15L23 14L24 14L24 13L26 13L26 14L25 14L25 15L24 15L24 16L23 16L23 17L24 17L24 21L25 21L25 22L26 22L26 24L28 24L28 23L27 23L27 22L26 22L26 21L27 21L27 20L28 20L28 21L29 21L29 20L28 20L28 17L26 17L26 16L27 16L27 15L28 15L28 14L29 14L29 16L30 16L30 18L29 18L29 19L30 19L30 20L31 20L31 19L30 19L30 18L32 18L32 19L33 19L33 18L32 18L32 15L31 15L31 16L30 16L30 14L32 14L32 12L33 12L33 13L34 13L34 14L35 14L35 13L36 13L36 12L37 12L37 13L38 13L38 12L37 12L37 11L36 11L36 12L35 12L35 11L34 11L34 12L33 12L33 10L31 10L31 9L32 9L32 4L31 4L31 5L30 5L30 4L29 4L29 5L30 5L30 6L29 6L29 8L30 8L30 10L29 10L29 9L26 9L26 10L27 10L27 11L26 11L26 12L25 12L25 11L24 11L24 10L23 10L23 9L24 9L24 8L23 8L23 7L24 7L24 4L25 4L25 3L26 3L26 2L25 2L25 1L24 1L24 3L22 3L22 2L21 2L21 1ZM34 2L34 4L33 4L33 5L34 5L34 4L35 4L35 2ZM39 2L39 3L40 3L40 5L41 5L41 7L40 7L40 6L39 6L39 7L40 7L40 8L39 8L39 9L38 9L38 10L39 10L39 9L40 9L40 10L41 10L41 9L40 9L40 8L41 8L41 7L42 7L42 4L41 4L41 3L40 3L40 2ZM42 2L42 3L43 3L43 2ZM22 5L22 7L23 7L23 5ZM25 5L25 8L28 8L28 5ZM26 6L26 7L27 7L27 6ZM30 6L30 7L31 7L31 6ZM33 6L33 9L34 9L34 10L35 10L35 9L36 9L36 8L37 8L37 7L36 7L36 6L35 6L35 7L34 7L34 6ZM12 7L12 8L11 8L11 9L12 9L12 10L13 10L13 9L12 9L12 8L13 8L13 7ZM16 8L16 9L17 9L17 8ZM22 8L22 9L23 9L23 8ZM46 9L46 10L47 10L47 13L46 13L46 14L47 14L47 15L48 15L48 9ZM21 10L21 11L23 11L23 12L22 12L22 13L23 13L23 12L24 12L24 11L23 11L23 10ZM28 10L28 11L27 11L27 12L26 12L26 13L27 13L27 14L28 14L28 13L27 13L27 12L28 12L28 11L29 11L29 10ZM50 10L50 14L51 14L51 15L52 15L52 13L51 13L51 11L52 11L52 10ZM30 11L30 12L29 12L29 14L30 14L30 12L32 12L32 11ZM45 11L45 12L46 12L46 11ZM6 12L6 13L7 13L7 12ZM5 14L5 15L7 15L7 14ZM25 15L25 16L24 16L24 17L25 17L25 20L26 20L26 19L27 19L27 18L26 18L26 17L25 17L25 16L26 16L26 15ZM4 16L4 17L3 17L3 18L4 18L4 17L5 17L5 18L6 18L6 17L5 17L5 16ZM39 17L39 18L40 18L40 17ZM20 18L20 19L21 19L21 18ZM6 20L6 21L7 21L7 20ZM36 20L36 21L37 21L37 22L36 22L36 23L35 23L35 22L34 22L34 23L32 23L32 25L33 25L33 26L34 26L34 27L33 27L33 28L32 28L32 29L33 29L33 31L34 31L34 32L32 32L32 33L33 33L33 35L32 35L32 43L34 43L34 44L36 44L36 46L38 46L38 45L39 45L39 44L38 44L38 43L37 43L37 44L36 44L36 43L34 43L34 41L35 41L35 39L34 39L34 32L35 32L35 35L37 35L37 36L38 36L38 33L39 33L39 32L38 32L38 33L37 33L37 31L35 31L35 30L36 30L36 29L37 29L37 30L38 30L38 31L39 31L39 30L38 30L38 29L37 29L37 28L40 28L40 29L41 29L41 30L40 30L40 31L41 31L41 30L42 30L42 31L43 31L43 30L42 30L42 28L40 28L40 27L41 27L41 26L42 26L42 27L43 27L43 26L42 26L42 25L41 25L41 24L40 24L40 23L41 23L41 22L40 22L40 21L39 21L39 22L38 22L38 21L37 21L37 20ZM17 21L17 22L18 22L18 21ZM39 22L39 23L36 23L36 24L34 24L34 26L35 26L35 25L36 25L36 27L40 27L40 24L39 24L39 23L40 23L40 22ZM47 22L47 24L49 24L49 23L50 23L50 22L49 22L49 23L48 23L48 22ZM51 22L51 23L52 23L52 22ZM16 23L16 25L17 25L17 23ZM18 23L18 24L19 24L19 23ZM36 24L36 25L38 25L38 24ZM5 25L5 28L8 28L8 25ZM25 25L25 28L28 28L28 25ZM45 25L45 28L48 28L48 25ZM49 25L49 26L50 26L50 25ZM6 26L6 27L7 27L7 26ZM16 26L16 27L17 27L17 26ZM22 26L22 27L23 27L23 26ZM26 26L26 27L27 27L27 26ZM46 26L46 27L47 27L47 26ZM34 27L34 28L33 28L33 29L34 29L34 30L35 30L35 27ZM6 29L6 30L7 30L7 29ZM49 29L49 30L48 30L48 32L46 32L46 31L45 31L45 30L44 30L44 32L43 32L43 34L44 34L44 33L45 33L45 32L46 32L46 33L47 33L47 34L46 34L46 35L45 35L45 36L46 36L46 35L47 35L47 34L48 34L48 33L49 33L49 32L50 32L50 31L49 31L49 30L50 30L50 29ZM16 30L16 32L15 32L15 31L14 31L14 32L15 32L15 34L13 34L13 35L15 35L15 36L14 36L14 37L12 37L12 38L13 38L13 40L12 40L12 39L11 39L11 36L10 36L10 37L9 37L9 38L8 38L8 37L7 37L7 38L6 38L6 39L7 39L7 38L8 38L8 40L9 40L9 39L11 39L11 40L12 40L12 41L11 41L11 42L12 42L12 41L13 41L13 42L14 42L14 43L15 43L15 42L14 42L14 41L15 41L15 40L16 40L16 41L17 41L17 39L15 39L15 38L16 38L16 36L17 36L17 35L16 35L16 34L18 34L18 38L19 38L19 39L18 39L18 40L19 40L19 39L20 39L20 38L19 38L19 34L18 34L18 33L19 33L19 32L18 32L18 31L21 31L21 30ZM23 30L23 31L22 31L22 32L23 32L23 31L24 31L24 33L23 33L23 35L25 35L25 34L26 34L26 35L27 35L27 36L26 36L26 38L25 38L25 39L24 39L24 40L25 40L25 39L26 39L26 38L27 38L27 37L28 37L28 35L30 35L30 33L31 33L31 31L32 31L32 30L31 30L31 31L30 31L30 33L28 33L28 35L27 35L27 34L26 34L26 33L27 33L27 32L28 32L28 31L29 31L29 30L28 30L28 31L26 31L26 33L25 33L25 31L24 31L24 30ZM20 32L20 33L21 33L21 32ZM20 34L20 35L21 35L21 36L22 36L22 35L21 35L21 34ZM39 34L39 36L40 36L40 38L41 38L41 39L42 39L42 37L41 37L41 36L40 36L40 34ZM52 34L52 35L53 35L53 34ZM29 36L29 39L31 39L31 38L30 38L30 36ZM48 36L48 38L49 38L49 39L48 39L48 40L49 40L49 39L50 39L50 37L49 37L49 36ZM14 37L14 38L15 38L15 37ZM52 38L52 39L53 39L53 38ZM14 39L14 40L15 40L15 39ZM33 39L33 40L34 40L34 39ZM46 40L46 42L47 42L47 44L48 44L48 42L49 42L49 41L48 41L48 42L47 42L47 40ZM52 40L52 41L53 41L53 40ZM6 41L6 42L7 42L7 41ZM27 41L27 43L26 43L26 42L25 42L25 43L24 43L24 44L27 44L27 43L28 43L28 44L29 44L29 42L28 42L28 41ZM42 41L42 43L43 43L43 44L44 44L44 43L45 43L45 41L44 41L44 42L43 42L43 41ZM2 42L2 43L3 43L3 42ZM16 42L16 43L18 43L18 42ZM32 44L32 45L31 45L31 46L32 46L32 47L35 47L35 48L36 48L36 49L37 49L37 50L38 50L38 49L39 49L39 47L40 47L40 46L39 46L39 47L38 47L38 49L37 49L37 48L36 48L36 47L35 47L35 46L34 46L34 45L33 45L33 44ZM37 44L37 45L38 45L38 44ZM40 44L40 45L41 45L41 44ZM23 45L23 46L24 46L24 45ZM25 45L25 48L28 48L28 45ZM45 45L45 48L48 48L48 45ZM49 45L49 46L50 46L50 48L49 48L49 49L51 49L51 48L52 48L52 46L50 46L50 45ZM13 46L13 47L14 47L14 46ZM26 46L26 47L27 47L27 46ZM46 46L46 47L47 47L47 46ZM10 47L10 48L11 48L11 47ZM18 47L18 48L19 48L19 47ZM41 49L41 50L42 50L42 49ZM16 50L16 51L17 51L17 50ZM29 50L29 52L30 52L30 50ZM44 50L44 51L45 51L45 50ZM46 50L46 51L47 51L47 50ZM22 51L22 52L23 52L23 51ZM52 52L52 53L53 53L53 52ZM0 0L0 7L7 7L7 0ZM1 1L1 6L6 6L6 1ZM2 2L2 5L5 5L5 2ZM46 0L46 7L53 7L53 0ZM47 1L47 6L52 6L52 1ZM48 2L48 5L51 5L51 2ZM0 46L0 53L7 53L7 46ZM1 47L1 52L6 52L6 47ZM2 48L2 51L5 51L5 48Z" fill="#000000"/></g></g></svg>
