<?xml version="1.0" encoding="UTF-8"?>
<svg xmlns="http://www.w3.org/2000/svg" version="1.1" width="356" height="356" viewBox="0 0 356 356"><rect x="0" y="0" width="356" height="356" fill="#ffffff"/><g transform="scale(6.717)"><g transform="translate(0,0)"><path fill-rule="evenodd" d="M10 0L10 1L11 1L11 2L10 2L10 3L8 3L8 4L9 4L9 5L8 5L8 7L9 7L9 5L10 5L10 8L6 8L6 9L5 9L5 8L0 8L0 12L2 12L2 16L4 16L4 15L5 15L5 17L7 17L7 16L6 16L6 15L7 15L7 14L8 14L8 13L9 13L9 12L8 12L8 11L10 11L10 10L14 10L14 11L15 11L15 13L13 13L13 11L12 11L12 12L10 12L10 14L9 14L9 15L8 15L8 17L9 17L9 18L10 18L10 17L9 17L9 16L10 16L10 15L11 15L11 16L12 16L12 15L11 15L11 13L13 13L13 15L14 15L14 16L13 16L13 17L16 17L16 18L15 18L15 19L16 19L16 20L15 20L15 21L13 21L13 20L14 20L14 18L12 18L12 19L13 19L13 20L11 20L11 19L9 19L9 20L10 20L10 21L11 21L11 22L12 22L12 23L10 23L10 22L9 22L9 21L8 21L8 22L9 22L9 24L8 24L8 23L7 23L7 22L6 22L6 21L7 21L7 20L8 20L8 18L5 18L5 19L4 19L4 21L2 21L2 22L3 22L3 23L1 23L1 22L0 22L0 23L1 23L1 24L0 24L0 27L1 27L1 26L3 26L3 27L2 27L2 28L4 28L4 29L2 29L2 31L3 31L3 32L2 32L2 34L1 34L1 31L0 31L0 37L1 37L1 36L5 36L5 38L4 38L4 37L2 37L2 38L4 38L4 39L0 39L0 41L1 41L1 40L3 40L3 41L4 41L4 40L5 40L5 39L7 39L7 38L6 38L6 37L7 37L7 36L9 36L9 37L8 37L8 40L6 40L6 41L8 41L8 40L9 40L9 38L10 38L10 39L11 39L11 43L13 43L13 44L14 44L14 46L13 46L13 47L12 47L12 45L10 45L10 44L6 44L6 45L8 45L8 47L9 47L9 48L8 48L8 53L9 53L9 51L10 51L10 52L12 52L12 53L13 53L13 51L14 51L14 52L15 52L15 53L20 53L20 52L19 52L19 51L20 51L20 50L19 50L19 49L20 49L20 48L19 48L19 47L20 47L20 44L22 44L22 43L21 43L21 41L22 41L22 40L21 40L21 41L18 41L18 40L17 40L17 39L18 39L18 38L16 38L16 40L17 40L17 41L18 41L18 42L20 42L20 43L19 43L19 44L16 44L16 43L13 43L13 42L14 42L14 41L12 41L12 39L11 39L11 38L12 38L12 37L11 37L11 35L13 35L13 33L16 33L16 34L15 34L15 35L16 35L16 36L15 36L15 37L21 37L21 39L22 39L22 38L23 38L23 37L24 37L24 36L25 36L25 37L26 37L26 36L27 36L27 35L30 35L30 37L29 37L29 36L28 36L28 38L26 38L26 39L29 39L29 40L27 40L27 41L25 41L25 44L24 44L24 47L23 47L23 46L22 46L22 45L21 45L21 46L22 46L22 47L21 47L21 48L22 48L22 49L21 49L21 50L22 50L22 51L21 51L21 52L23 52L23 53L26 53L26 52L25 52L25 51L28 51L28 50L26 50L26 49L30 49L30 50L29 50L29 53L30 53L30 52L31 52L31 53L32 53L32 52L31 52L31 51L30 51L30 50L31 50L31 49L32 49L32 46L33 46L33 49L35 49L35 50L36 50L36 51L34 51L34 50L32 50L32 51L34 51L34 52L35 52L35 53L37 53L37 50L38 50L38 52L39 52L39 53L40 53L40 52L41 52L41 53L42 53L42 52L41 52L41 51L43 51L43 52L44 52L44 53L45 53L45 51L44 51L44 50L43 50L43 48L44 48L44 49L45 49L45 50L47 50L47 51L48 51L48 53L49 53L49 52L50 52L50 53L51 53L51 52L52 52L52 51L53 51L53 50L52 50L52 49L53 49L53 48L52 48L52 49L51 49L51 48L50 48L50 47L51 47L51 46L52 46L52 45L53 45L53 43L51 43L51 42L52 42L52 41L51 41L51 42L50 42L50 41L49 41L49 40L50 40L50 38L51 38L51 37L50 37L50 38L49 38L49 37L47 37L47 38L48 38L48 39L46 39L46 40L45 40L45 39L44 39L44 37L43 37L43 36L41 36L41 37L39 37L39 35L38 35L38 37L37 37L37 36L35 36L35 37L36 37L36 38L34 38L34 39L32 39L32 38L33 38L33 37L32 37L32 36L33 36L33 35L35 35L35 34L36 34L36 35L37 35L37 34L38 34L38 33L37 33L37 32L36 32L36 31L37 31L37 30L38 30L38 32L40 32L40 31L39 31L39 30L40 30L40 29L39 29L39 30L38 30L38 28L41 28L41 31L42 31L42 32L41 32L41 33L40 33L40 34L43 34L43 35L44 35L44 36L46 36L46 35L45 35L45 34L44 34L44 33L42 33L42 32L47 32L47 31L49 31L49 32L48 32L48 33L46 33L46 34L49 34L49 36L50 36L50 34L52 34L52 33L51 33L51 32L50 32L50 29L49 29L49 28L50 28L50 27L49 27L49 26L50 26L50 25L51 25L51 26L52 26L52 23L51 23L51 24L50 24L50 22L51 22L51 21L52 21L52 20L53 20L53 19L51 19L51 20L49 20L49 19L50 19L50 17L51 17L51 18L52 18L52 17L53 17L53 15L51 15L51 16L50 16L50 17L49 17L49 16L48 16L48 15L49 15L49 14L50 14L50 13L49 13L49 12L50 12L50 11L49 11L49 10L50 10L50 8L49 8L49 10L47 10L47 12L46 12L46 10L44 10L44 8L45 8L45 9L46 9L46 8L45 8L45 6L44 6L44 7L43 7L43 3L44 3L44 4L45 4L45 3L44 3L44 1L43 1L43 0L39 0L39 3L40 3L40 2L41 2L41 1L42 1L42 2L43 2L43 3L41 3L41 4L40 4L40 7L39 7L39 6L38 6L38 7L37 7L37 5L38 5L38 4L37 4L37 3L38 3L38 2L35 2L35 1L38 1L38 0L35 0L35 1L34 1L34 2L33 2L33 1L32 1L32 0L27 0L27 1L26 1L26 0L22 0L22 1L21 1L21 2L22 2L22 1L23 1L23 4L24 4L24 7L23 7L23 5L21 5L21 6L20 6L20 4L21 4L21 3L18 3L18 2L20 2L20 1L19 1L19 0L16 0L16 1L15 1L15 2L14 2L14 1L12 1L12 0ZM8 1L8 2L9 2L9 1ZM27 1L27 2L26 2L26 3L27 3L27 2L32 2L32 1ZM12 2L12 3L11 3L11 4L16 4L16 5L18 5L18 6L17 6L17 7L16 7L16 6L15 6L15 5L13 5L13 7L12 7L12 5L11 5L11 8L12 8L12 9L14 9L14 10L15 10L15 11L16 11L16 12L17 12L17 11L20 11L20 10L18 10L18 9L22 9L22 11L24 11L24 10L25 10L25 9L23 9L23 7L22 7L22 6L21 6L21 8L20 8L20 6L19 6L19 4L16 4L16 2L15 2L15 3L13 3L13 2ZM24 2L24 4L25 4L25 2ZM34 2L34 3L35 3L35 2ZM28 3L28 4L30 4L30 3ZM31 3L31 4L32 4L32 5L36 5L36 4L33 4L33 3ZM25 5L25 8L28 8L28 5ZM41 5L41 7L42 7L42 5ZM14 6L14 7L13 7L13 8L14 8L14 7L15 7L15 8L16 8L16 7L15 7L15 6ZM18 6L18 7L19 7L19 6ZM26 6L26 7L27 7L27 6ZM29 6L29 8L30 8L30 6ZM31 6L31 8L32 8L32 9L33 9L33 10L34 10L34 11L36 11L36 10L37 10L37 9L36 9L36 10L35 10L35 9L34 9L34 8L36 8L36 6L35 6L35 7L34 7L34 6L33 6L33 7L34 7L34 8L32 8L32 6ZM38 7L38 10L41 10L41 11L40 11L40 12L39 12L39 11L37 11L37 12L38 12L38 14L39 14L39 15L38 15L38 16L39 16L39 17L38 17L38 19L37 19L37 21L38 21L38 22L35 22L35 21L33 21L33 20L34 20L34 19L33 19L33 20L32 20L32 17L33 17L33 18L35 18L35 20L36 20L36 17L35 17L35 16L32 16L32 13L33 13L33 14L34 14L34 15L35 15L35 14L36 14L36 15L37 15L37 13L34 13L34 12L33 12L33 11L31 11L31 10L30 10L30 11L29 11L29 10L27 10L27 11L26 11L26 12L24 12L24 13L23 13L23 12L21 12L21 13L20 13L20 12L19 12L19 13L15 13L15 16L16 16L16 17L18 17L18 16L16 16L16 15L18 15L18 14L19 14L19 13L20 13L20 15L19 15L19 16L20 16L20 17L19 17L19 18L20 18L20 19L18 19L18 18L17 18L17 20L19 20L19 21L20 21L20 23L19 23L19 22L18 22L18 23L17 23L17 24L15 24L15 22L17 22L17 21L15 21L15 22L13 22L13 23L14 23L14 24L11 24L11 25L9 25L9 26L10 26L10 27L9 27L9 28L10 28L10 29L9 29L9 30L10 30L10 29L11 29L11 28L13 28L13 29L12 29L12 30L13 30L13 29L15 29L15 31L18 31L18 29L15 29L15 28L14 28L14 27L16 27L16 28L17 28L17 26L18 26L18 25L21 25L21 24L22 24L22 26L21 26L21 27L23 27L23 28L21 28L21 29L19 29L19 32L20 32L20 33L19 33L19 34L20 34L20 35L17 35L17 36L21 36L21 37L23 37L23 36L21 36L21 33L22 33L22 34L23 34L23 35L24 35L24 34L26 34L26 35L27 35L27 34L28 34L28 33L30 33L30 31L31 31L31 32L32 32L32 33L31 33L31 34L35 34L35 33L36 33L36 34L37 34L37 33L36 33L36 32L35 32L35 33L33 33L33 31L36 31L36 30L37 30L37 29L36 29L36 30L35 30L35 29L33 29L33 27L36 27L36 28L37 28L37 26L35 26L35 25L33 25L33 24L34 24L34 23L33 23L33 24L32 24L32 23L30 23L30 24L29 24L29 22L28 22L28 21L27 21L27 22L28 22L28 23L26 23L26 22L25 22L25 21L23 21L23 20L24 20L24 19L25 19L25 20L27 20L27 19L30 19L30 20L32 20L32 22L35 22L35 23L37 23L37 24L38 24L38 27L42 27L42 28L44 28L44 26L41 26L41 24L44 24L44 23L45 23L45 24L46 24L46 23L47 23L47 24L48 24L48 23L47 23L47 20L46 20L46 19L45 19L45 18L47 18L47 19L49 19L49 18L47 18L47 17L48 17L48 16L45 16L45 17L44 17L44 16L43 16L43 15L45 15L45 14L46 14L46 15L48 15L48 14L47 14L47 13L48 13L48 12L49 12L49 11L48 11L48 12L47 12L47 13L45 13L45 11L44 11L44 10L41 10L41 9L42 9L42 8L39 8L39 7ZM17 8L17 9L18 9L18 8ZM47 8L47 9L48 9L48 8ZM51 8L51 9L52 9L52 8ZM2 9L2 10L3 10L3 11L2 11L2 12L3 12L3 13L4 13L4 10L5 10L5 11L6 11L6 12L7 12L7 13L5 13L5 15L6 15L6 14L7 14L7 13L8 13L8 12L7 12L7 11L6 11L6 10L7 10L7 9L6 9L6 10L5 10L5 9ZM8 9L8 10L10 10L10 9ZM15 9L15 10L16 10L16 9ZM27 11L27 13L26 13L26 14L25 14L25 13L24 13L24 15L23 15L23 13L22 13L22 14L21 14L21 15L20 15L20 16L21 16L21 17L22 17L22 18L23 18L23 19L24 19L24 18L23 18L23 17L25 17L25 16L26 16L26 14L27 14L27 13L29 13L29 14L31 14L31 13L32 13L32 12L31 12L31 13L29 13L29 11ZM41 11L41 14L42 14L42 15L43 15L43 14L44 14L44 13L43 13L43 12L42 12L42 11ZM52 11L52 12L51 12L51 13L52 13L52 12L53 12L53 11ZM0 13L0 16L1 16L1 13ZM39 13L39 14L40 14L40 13ZM3 14L3 15L4 15L4 14ZM28 15L28 16L27 16L27 17L26 17L26 18L25 18L25 19L27 19L27 18L30 18L30 19L31 19L31 17L32 17L32 16L31 16L31 17L28 17L28 16L29 16L29 15ZM22 16L22 17L23 17L23 16ZM41 16L41 19L40 19L40 20L39 20L39 19L38 19L38 21L40 21L40 22L44 22L44 21L45 21L45 20L44 20L44 19L43 19L43 20L44 20L44 21L40 21L40 20L42 20L42 18L44 18L44 17L42 17L42 16ZM0 17L0 21L1 21L1 19L3 19L3 18L4 18L4 17ZM6 19L6 20L5 20L5 21L4 21L4 22L5 22L5 23L6 23L6 24L7 24L7 23L6 23L6 22L5 22L5 21L6 21L6 20L7 20L7 19ZM21 19L21 20L22 20L22 19ZM48 21L48 22L49 22L49 21ZM21 22L21 23L20 23L20 24L21 24L21 23L23 23L23 25L24 25L24 26L23 26L23 27L24 27L24 28L23 28L23 29L22 29L22 31L21 31L21 32L22 32L22 33L23 33L23 32L24 32L24 33L26 33L26 34L27 34L27 33L28 33L28 32L27 32L27 31L25 31L25 32L24 32L24 31L23 31L23 29L25 29L25 30L26 30L26 29L27 29L27 30L28 30L28 29L30 29L30 30L29 30L29 31L30 31L30 30L31 30L31 29L32 29L32 31L33 31L33 29L32 29L32 28L31 28L31 27L30 27L30 26L32 26L32 27L33 27L33 26L32 26L32 24L31 24L31 25L29 25L29 24L26 24L26 23L24 23L24 22ZM45 22L45 23L46 23L46 22ZM3 23L3 24L4 24L4 23ZM40 23L40 24L39 24L39 25L40 25L40 24L41 24L41 23ZM1 24L1 25L2 25L2 24ZM17 24L17 25L18 25L18 24ZM49 24L49 25L50 25L50 24ZM5 25L5 28L8 28L8 25ZM13 25L13 26L14 26L14 25ZM15 25L15 26L16 26L16 25ZM25 25L25 28L28 28L28 25ZM45 25L45 28L48 28L48 25ZM6 26L6 27L7 27L7 26ZM19 26L19 27L18 27L18 28L19 28L19 27L20 27L20 26ZM26 26L26 27L27 27L27 26ZM46 26L46 27L47 27L47 26ZM0 28L0 29L1 29L1 28ZM51 28L51 29L52 29L52 30L51 30L51 31L52 31L52 30L53 30L53 28ZM4 29L4 30L7 30L7 31L6 31L6 32L7 32L7 33L5 33L5 32L3 32L3 35L5 35L5 36L7 36L7 35L9 35L9 36L10 36L10 35L11 35L11 34L12 34L12 32L11 32L11 31L10 31L10 32L11 32L11 33L10 33L10 34L8 34L8 30L7 30L7 29ZM43 29L43 30L44 30L44 31L47 31L47 29L46 29L46 30L45 30L45 29ZM13 31L13 32L14 32L14 31ZM16 32L16 33L18 33L18 32ZM26 32L26 33L27 33L27 32ZM4 33L4 34L5 34L5 35L7 35L7 34L5 34L5 33ZM31 35L31 36L32 36L32 35ZM47 35L47 36L48 36L48 35ZM51 35L51 36L52 36L52 37L53 37L53 36L52 36L52 35ZM13 36L13 37L14 37L14 36ZM10 37L10 38L11 38L11 37ZM31 37L31 38L32 38L32 37ZM38 37L38 39L35 39L35 40L34 40L34 41L33 41L33 40L32 40L32 39L31 39L31 40L32 40L32 41L31 41L31 42L29 42L29 41L27 41L27 42L26 42L26 44L29 44L29 43L30 43L30 45L31 45L31 44L32 44L32 45L33 45L33 46L34 46L34 48L35 48L35 49L36 49L36 48L37 48L37 45L33 45L33 42L35 42L35 43L36 43L36 42L37 42L37 44L38 44L38 46L39 46L39 45L43 45L43 46L40 46L40 47L39 47L39 49L38 49L38 50L39 50L39 49L40 49L40 51L39 51L39 52L40 52L40 51L41 51L41 49L42 49L42 48L43 48L43 46L44 46L44 44L43 44L43 42L39 42L39 41L45 41L45 40L43 40L43 38L41 38L41 39L39 39L39 37ZM45 37L45 38L46 38L46 37ZM24 38L24 39L23 39L23 42L24 42L24 39L25 39L25 38ZM29 38L29 39L30 39L30 38ZM13 39L13 40L14 40L14 39ZM19 39L19 40L20 40L20 39ZM38 39L38 41L37 41L37 40L35 40L35 42L36 42L36 41L37 41L37 42L38 42L38 41L39 41L39 39ZM52 39L52 40L53 40L53 39ZM47 40L47 41L48 41L48 40ZM15 41L15 42L16 42L16 41ZM32 41L32 42L31 42L31 43L32 43L32 42L33 42L33 41ZM0 42L0 43L1 43L1 44L3 44L3 45L4 45L4 44L3 44L3 43L10 43L10 42L3 42L3 43L2 43L2 42ZM27 42L27 43L28 43L28 42ZM45 42L45 43L47 43L47 44L49 44L49 42L48 42L48 43L47 43L47 42ZM50 43L50 45L49 45L49 47L50 47L50 45L51 45L51 43ZM15 45L15 46L17 46L17 47L18 47L18 45ZM25 45L25 48L28 48L28 45ZM45 45L45 48L48 48L48 45ZM9 46L9 47L11 47L11 48L10 48L10 50L11 50L11 48L12 48L12 47L11 47L11 46ZM26 46L26 47L27 47L27 46ZM46 46L46 47L47 47L47 46ZM13 47L13 48L15 48L15 47ZM29 47L29 48L30 48L30 49L31 49L31 47ZM35 47L35 48L36 48L36 47ZM41 47L41 48L42 48L42 47ZM16 48L16 49L13 49L13 50L14 50L14 51L15 51L15 52L16 52L16 51L15 51L15 50L16 50L16 49L18 49L18 48ZM23 48L23 49L22 49L22 50L23 50L23 51L25 51L25 49L24 49L24 48ZM47 49L47 50L49 50L49 51L50 51L50 52L51 52L51 51L52 51L52 50L51 50L51 49L50 49L50 50L49 50L49 49ZM17 50L17 51L19 51L19 50ZM50 50L50 51L51 51L51 50ZM0 0L0 7L7 7L7 0ZM1 1L1 6L6 6L6 1ZM2 2L2 5L5 5L5 2ZM46 0L46 7L53 7L53 0ZM47 1L47 6L52 6L52 1ZM48 2L48 5L51 5L51 2ZM0 46L0 53L7 53L7 46ZM1 47L1 52L6 52L6 47ZM2 48L2 51L5 51L5 48Z" fill="#000000"/></g></g></svg>
