<?xml version="1.0" encoding="UTF-8"?>
<svg xmlns="http://www.w3.org/2000/svg" version="1.1" width="356" height="356" viewBox="0 0 356 356"><rect x="0" y="0" width="356" height="356" fill="#ffffff"/><g transform="scale(6.717)"><g transform="translate(0,0)"><path fill-rule="evenodd" d="M9 0L9 1L8 1L8 2L10 2L10 3L11 3L11 4L10 4L10 5L8 5L8 7L9 7L9 8L6 8L6 9L5 9L5 8L0 8L0 12L1 12L1 9L3 9L3 11L4 11L4 9L5 9L5 11L7 11L7 10L6 10L6 9L9 9L9 11L8 11L8 13L7 13L7 12L5 12L5 13L7 13L7 14L4 14L4 13L3 13L3 14L0 14L0 16L2 16L2 15L4 15L4 16L3 16L3 17L4 17L4 18L2 18L2 17L0 17L0 18L1 18L1 19L2 19L2 20L3 20L3 19L4 19L4 20L5 20L5 19L7 19L7 20L6 20L6 21L5 21L5 22L4 22L4 26L2 26L2 27L1 27L1 26L0 26L0 27L1 27L1 28L2 28L2 27L3 27L3 28L4 28L4 29L7 29L7 30L6 30L6 31L5 31L5 32L4 32L4 30L3 30L3 29L1 29L1 30L2 30L2 32L3 32L3 34L1 34L1 31L0 31L0 34L1 34L1 35L0 35L0 37L1 37L1 40L0 40L0 43L1 43L1 44L3 44L3 45L4 45L4 44L3 44L3 43L7 43L7 44L6 44L6 45L7 45L7 44L9 44L9 45L8 45L8 47L9 47L9 48L8 48L8 53L10 53L10 52L11 52L11 49L10 49L10 48L11 48L11 47L15 47L15 48L12 48L12 49L14 49L14 50L13 50L13 51L12 51L12 53L13 53L13 52L14 52L14 53L19 53L19 51L20 51L20 50L19 50L19 49L20 49L20 47L19 47L19 46L20 46L20 45L21 45L21 46L22 46L22 47L21 47L21 48L22 48L22 49L21 49L21 50L22 50L22 51L23 51L23 50L24 50L24 51L26 51L26 52L23 52L23 53L26 53L26 52L28 52L28 51L27 51L27 50L29 50L29 51L31 51L31 49L32 49L32 46L31 46L31 45L32 45L32 44L33 44L33 43L35 43L35 47L36 47L36 48L34 48L34 47L33 47L33 49L37 49L37 50L38 50L38 49L37 49L37 47L36 47L36 45L37 45L37 46L38 46L38 48L41 48L41 49L40 49L40 50L41 50L41 51L38 51L38 52L43 52L43 53L44 53L44 52L45 52L45 51L46 51L46 50L45 50L45 51L44 51L44 50L43 50L43 49L49 49L49 50L47 50L47 51L48 51L48 53L49 53L49 52L50 52L50 53L51 53L51 52L52 52L52 51L53 51L53 50L52 50L52 49L53 49L53 47L52 47L52 49L51 49L51 48L50 48L50 47L51 47L51 45L53 45L53 43L51 43L51 44L50 44L50 43L49 43L49 42L50 42L50 41L49 41L49 40L50 40L50 38L52 38L52 36L53 36L53 35L52 35L52 36L51 36L51 37L50 37L50 38L49 38L49 37L47 37L47 36L48 36L48 35L47 35L47 36L46 36L46 35L45 35L45 33L44 33L44 35L43 35L43 36L44 36L44 37L40 37L40 39L44 39L44 42L43 42L43 41L39 41L39 44L38 44L38 45L37 45L37 43L38 43L38 41L37 41L37 40L39 40L39 39L37 39L37 38L38 38L38 37L37 37L37 36L38 36L38 35L39 35L39 34L43 34L43 33L42 33L42 32L45 32L45 31L46 31L46 32L47 32L47 31L49 31L49 33L46 33L46 34L49 34L49 33L50 33L50 35L49 35L49 36L50 36L50 35L51 35L51 34L52 34L52 33L53 33L53 32L50 32L50 27L51 27L51 29L52 29L52 30L51 30L51 31L52 31L52 30L53 30L53 29L52 29L52 28L53 28L53 27L51 27L51 26L49 26L49 24L50 24L50 25L52 25L52 24L53 24L53 23L52 23L52 24L50 24L50 22L51 22L51 21L52 21L52 20L53 20L53 19L52 19L52 20L49 20L49 19L50 19L50 17L53 17L53 16L50 16L50 17L49 17L49 16L48 16L48 15L46 15L46 14L44 14L44 13L43 13L43 12L44 12L44 11L46 11L46 10L44 10L44 9L43 9L43 8L45 8L45 9L46 9L46 8L45 8L45 6L44 6L44 7L43 7L43 3L44 3L44 4L45 4L45 3L44 3L44 1L43 1L43 0L39 0L39 1L40 1L40 2L38 2L38 0L35 0L35 1L34 1L34 2L35 2L35 4L37 4L37 6L36 6L36 8L34 8L34 7L35 7L35 5L34 5L34 7L33 7L33 5L32 5L32 4L31 4L31 3L33 3L33 1L32 1L32 0L29 0L29 1L32 1L32 2L29 2L29 4L27 4L27 3L28 3L28 2L27 2L27 3L26 3L26 2L25 2L25 3L26 3L26 4L22 4L22 3L18 3L18 2L20 2L20 1L19 1L19 0L16 0L16 1L14 1L14 2L13 2L13 0ZM23 0L23 1L21 1L21 2L23 2L23 1L26 1L26 0ZM27 0L27 1L28 1L28 0ZM10 1L10 2L11 2L11 3L12 3L12 1ZM35 1L35 2L37 2L37 4L38 4L38 6L37 6L37 9L36 9L36 10L35 10L35 9L34 9L34 8L32 8L32 5L31 5L31 8L32 8L32 9L33 9L33 10L34 10L34 11L35 11L35 12L37 12L37 11L36 11L36 10L39 10L39 11L38 11L38 13L33 13L33 11L32 11L32 13L31 13L31 14L30 14L30 15L31 15L31 16L27 16L27 15L29 15L29 14L26 14L26 13L27 13L27 11L30 11L30 12L31 12L31 11L30 11L30 10L26 10L26 9L25 9L25 11L26 11L26 13L25 13L25 14L24 14L24 12L23 12L23 11L21 11L21 13L20 13L20 12L19 12L19 13L15 13L15 12L14 12L14 11L16 11L16 12L17 12L17 11L20 11L20 10L18 10L18 9L22 9L22 10L23 10L23 9L24 9L24 5L22 5L22 4L20 4L20 6L19 6L19 4L16 4L16 2L14 2L14 3L13 3L13 4L16 4L16 5L18 5L18 6L17 6L17 7L16 7L16 6L15 6L15 5L13 5L13 7L14 7L14 8L12 8L12 9L14 9L14 11L13 11L13 10L12 10L12 11L11 11L11 12L9 12L9 13L8 13L8 14L7 14L7 15L5 15L5 17L6 17L6 18L8 18L8 17L10 17L10 18L9 18L9 19L8 19L8 20L7 20L7 21L6 21L6 22L5 22L5 23L6 23L6 24L10 24L10 23L9 23L9 21L10 21L10 20L13 20L13 21L11 21L11 22L13 22L13 23L14 23L14 24L12 24L12 23L11 23L11 24L12 24L12 25L14 25L14 26L13 26L13 27L12 27L12 28L10 28L10 27L11 27L11 26L10 26L10 25L9 25L9 26L10 26L10 27L9 27L9 28L10 28L10 29L9 29L9 30L7 30L7 31L6 31L6 32L5 32L5 33L4 33L4 35L1 35L1 37L3 37L3 36L4 36L4 37L6 37L6 38L2 38L2 40L1 40L1 42L2 42L2 43L3 43L3 42L2 42L2 40L3 40L3 41L5 41L5 42L7 42L7 43L8 43L8 42L7 42L7 41L10 41L10 40L11 40L11 41L12 41L12 42L11 42L11 43L12 43L12 44L11 44L11 45L9 45L9 47L10 47L10 46L11 46L11 45L12 45L12 46L14 46L14 45L15 45L15 46L17 46L17 47L18 47L18 45L15 45L15 43L16 43L16 44L19 44L19 43L20 43L20 42L18 42L18 41L21 41L21 42L23 42L23 44L21 44L21 45L24 45L24 44L25 44L25 43L26 43L26 44L29 44L29 45L31 45L31 44L32 44L32 43L33 43L33 42L35 42L35 40L37 40L37 39L35 39L35 40L34 40L34 41L33 41L33 40L32 40L32 38L33 38L33 39L34 39L34 38L36 38L36 37L35 37L35 36L36 36L36 34L37 34L37 35L38 35L38 34L39 34L39 33L41 33L41 32L42 32L42 30L41 30L41 29L43 29L43 31L45 31L45 30L46 30L46 31L47 31L47 29L44 29L44 27L43 27L43 26L39 26L39 25L43 25L43 24L44 24L44 23L43 23L43 22L46 22L46 23L47 23L47 24L48 24L48 23L49 23L49 21L46 21L46 19L45 19L45 18L47 18L47 19L49 19L49 18L47 18L47 17L48 17L48 16L45 16L45 15L44 15L44 14L43 14L43 16L42 16L42 15L38 15L38 19L37 19L37 20L39 20L39 21L38 21L38 22L36 22L36 21L33 21L33 20L34 20L34 19L33 19L33 20L31 20L31 19L32 19L32 17L33 17L33 18L35 18L35 19L36 19L36 17L35 17L35 16L32 16L32 15L33 15L33 14L34 14L34 15L37 15L37 14L41 14L41 11L42 11L42 12L43 12L43 11L42 11L42 10L41 10L41 9L42 9L42 8L43 8L43 7L42 7L42 5L41 5L41 8L39 8L39 7L40 7L40 6L39 6L39 4L41 4L41 3L43 3L43 2L42 2L42 1L41 1L41 3L39 3L39 4L38 4L38 2L37 2L37 1ZM8 3L8 4L9 4L9 3ZM10 5L10 6L9 6L9 7L10 7L10 6L11 6L11 7L12 7L12 5ZM21 5L21 6L20 6L20 8L21 8L21 6L22 6L22 8L23 8L23 6L22 6L22 5ZM25 5L25 8L28 8L28 5ZM29 5L29 7L30 7L30 5ZM14 6L14 7L15 7L15 8L16 8L16 7L15 7L15 6ZM18 6L18 7L19 7L19 6ZM26 6L26 7L27 7L27 6ZM38 6L38 7L39 7L39 6ZM10 8L10 10L11 10L11 8ZM17 8L17 9L18 9L18 8ZM38 8L38 9L39 9L39 10L40 10L40 9L39 9L39 8ZM47 8L47 9L48 9L48 8ZM49 8L49 9L50 9L50 8ZM51 8L51 10L50 10L50 11L49 11L49 10L47 10L47 12L48 12L48 13L47 13L47 14L49 14L49 15L50 15L50 14L49 14L49 13L50 13L50 11L51 11L51 10L52 10L52 8ZM15 9L15 10L16 10L16 9ZM48 11L48 12L49 12L49 11ZM11 12L11 14L12 14L12 13L13 13L13 15L14 15L14 16L11 16L11 15L10 15L10 14L9 14L9 15L10 15L10 16L11 16L11 18L10 18L10 19L9 19L9 20L8 20L8 21L7 21L7 22L6 22L6 23L7 23L7 22L8 22L8 21L9 21L9 20L10 20L10 19L11 19L11 18L12 18L12 19L13 19L13 20L14 20L14 18L12 18L12 17L16 17L16 18L15 18L15 19L16 19L16 20L15 20L15 21L13 21L13 22L15 22L15 24L17 24L17 25L18 25L18 26L17 26L17 28L16 28L16 27L14 27L14 28L15 28L15 29L13 29L13 31L14 31L14 32L12 32L12 29L10 29L10 30L11 30L11 33L10 33L10 31L9 31L9 34L6 34L6 33L8 33L8 32L6 32L6 33L5 33L5 35L9 35L9 34L11 34L11 33L12 33L12 34L13 34L13 33L16 33L16 34L15 34L15 35L16 35L16 36L15 36L15 37L21 37L21 38L20 38L20 40L21 40L21 41L22 41L22 40L21 40L21 39L22 39L22 37L21 37L21 36L17 36L17 35L20 35L20 34L19 34L19 33L20 33L20 32L19 32L19 29L21 29L21 30L22 30L22 31L21 31L21 32L22 32L22 33L21 33L21 34L22 34L22 33L26 33L26 32L27 32L27 34L31 34L31 35L29 35L29 38L28 38L28 39L29 39L29 41L26 41L26 36L25 36L25 35L26 35L26 34L24 34L24 35L23 35L23 38L24 38L24 37L25 37L25 39L24 39L24 40L23 40L23 42L24 42L24 41L25 41L25 42L26 42L26 43L27 43L27 42L28 42L28 43L29 43L29 44L30 44L30 43L32 43L32 42L33 42L33 41L32 41L32 40L31 40L31 37L32 37L32 36L34 36L34 35L35 35L35 34L36 34L36 33L37 33L37 34L38 34L38 33L37 33L37 32L36 32L36 31L37 31L37 30L38 30L38 28L40 28L40 27L39 27L39 26L37 26L37 24L38 24L38 23L34 23L34 22L32 22L32 21L29 21L29 19L27 19L27 17L26 17L26 19L24 19L24 18L23 18L23 17L25 17L25 16L26 16L26 14L25 14L25 15L23 15L23 13L21 13L21 15L20 15L20 13L19 13L19 14L18 14L18 15L16 15L16 16L15 16L15 13L13 13L13 12ZM45 12L45 13L46 13L46 12ZM32 13L32 14L33 14L33 13ZM52 13L52 14L51 14L51 15L52 15L52 14L53 14L53 13ZM7 15L7 16L6 16L6 17L8 17L8 15ZM19 15L19 16L20 16L20 17L19 17L19 18L20 18L20 19L18 19L18 18L17 18L17 20L19 20L19 21L20 21L20 23L19 23L19 22L18 22L18 23L17 23L17 24L18 24L18 25L21 25L21 24L22 24L22 27L21 27L21 29L22 29L22 30L23 30L23 31L24 31L24 30L25 30L25 32L26 32L26 30L27 30L27 29L26 29L26 30L25 30L25 29L23 29L23 28L22 28L22 27L23 27L23 26L24 26L24 25L23 25L23 23L21 23L21 21L23 21L23 22L24 22L24 23L25 23L25 21L26 21L26 20L27 20L27 21L28 21L28 22L26 22L26 24L27 24L27 23L29 23L29 24L30 24L30 25L29 25L29 26L30 26L30 27L32 27L32 30L33 30L33 31L31 31L31 30L30 30L30 31L31 31L31 32L32 32L32 33L31 33L31 34L35 34L35 33L36 33L36 32L35 32L35 33L33 33L33 31L35 31L35 30L37 30L37 29L34 29L34 28L37 28L37 26L35 26L35 25L33 25L33 24L34 24L34 23L33 23L33 24L32 24L32 22L31 22L31 24L30 24L30 22L29 22L29 21L28 21L28 20L27 20L27 19L26 19L26 20L25 20L25 21L23 21L23 20L24 20L24 19L23 19L23 20L22 20L22 19L21 19L21 18L22 18L22 17L23 17L23 16L22 16L22 17L21 17L21 16L20 16L20 15ZM16 16L16 17L18 17L18 16ZM31 16L31 17L28 17L28 18L31 18L31 17L32 17L32 16ZM43 16L43 17L41 17L41 19L40 19L40 20L41 20L41 21L42 21L42 22L40 22L40 23L42 23L42 22L43 22L43 21L45 21L45 20L41 20L41 19L44 19L44 16ZM39 17L39 18L40 18L40 17ZM0 21L0 22L1 22L1 21ZM2 21L2 23L0 23L0 24L1 24L1 25L2 25L2 23L3 23L3 21ZM15 21L15 22L17 22L17 21ZM20 23L20 24L21 24L21 23ZM31 24L31 25L30 25L30 26L32 26L32 27L33 27L33 26L32 26L32 24ZM5 25L5 28L8 28L8 25ZM15 25L15 26L16 26L16 25ZM25 25L25 28L28 28L28 25ZM45 25L45 28L48 28L48 25ZM6 26L6 27L7 27L7 26ZM19 26L19 27L18 27L18 28L19 28L19 27L20 27L20 26ZM26 26L26 27L27 27L27 26ZM46 26L46 27L47 27L47 26ZM42 27L42 28L43 28L43 27ZM15 29L15 31L18 31L18 29ZM39 29L39 30L40 30L40 29ZM28 30L28 31L27 31L27 32L28 32L28 33L30 33L30 32L29 32L29 30ZM39 31L39 32L40 32L40 31ZM16 32L16 33L18 33L18 32ZM10 35L10 36L6 36L6 37L7 37L7 38L6 38L6 39L3 39L3 40L6 40L6 41L7 41L7 40L6 40L6 39L7 39L7 38L10 38L10 36L11 36L11 35ZM12 35L12 40L14 40L14 39L13 39L13 37L14 37L14 36L13 36L13 35ZM31 35L31 36L30 36L30 37L31 37L31 36L32 36L32 35ZM41 35L41 36L42 36L42 35ZM27 36L27 37L28 37L28 36ZM33 37L33 38L34 38L34 37ZM44 37L44 38L45 38L45 39L46 39L46 40L47 40L47 41L45 41L45 42L44 42L44 43L45 43L45 44L46 44L46 43L47 43L47 44L49 44L49 47L50 47L50 44L49 44L49 43L47 43L47 41L48 41L48 40L47 40L47 39L48 39L48 38L47 38L47 37ZM16 38L16 40L17 40L17 41L18 41L18 40L17 40L17 39L18 39L18 38ZM29 38L29 39L30 39L30 38ZM51 39L51 40L52 40L52 39ZM13 41L13 42L12 42L12 43L13 43L13 44L12 44L12 45L13 45L13 44L14 44L14 43L13 43L13 42L14 42L14 41ZM15 41L15 42L16 42L16 41ZM31 41L31 42L32 42L32 41ZM36 41L36 42L37 42L37 41ZM51 41L51 42L52 42L52 41ZM40 42L40 44L39 44L39 45L38 45L38 46L41 46L41 42ZM9 43L9 44L10 44L10 43ZM42 44L42 45L43 45L43 46L44 46L44 44ZM25 45L25 48L28 48L28 45ZM45 45L45 48L48 48L48 45ZM23 46L23 47L24 47L24 46ZM26 46L26 47L27 47L27 46ZM29 46L29 47L31 47L31 46ZM46 46L46 47L47 47L47 46ZM41 47L41 48L42 48L42 47ZM43 47L43 48L44 48L44 47ZM16 48L16 49L15 49L15 50L16 50L16 49L18 49L18 48ZM23 48L23 49L22 49L22 50L23 50L23 49L24 49L24 50L27 50L27 49L24 49L24 48ZM29 48L29 49L31 49L31 48ZM9 50L9 52L10 52L10 50ZM17 50L17 51L19 51L19 50ZM32 50L32 51L33 51L33 53L37 53L37 51L36 51L36 50L35 50L35 51L34 51L34 50ZM42 50L42 51L43 51L43 50ZM49 50L49 51L50 51L50 52L51 52L51 51L52 51L52 50ZM15 51L15 52L16 52L16 51ZM35 51L35 52L36 52L36 51ZM20 52L20 53L21 53L21 52ZM31 52L31 53L32 53L32 52ZM0 0L0 7L7 7L7 0ZM1 1L1 6L6 6L6 1ZM2 2L2 5L5 5L5 2ZM46 0L46 7L53 7L53 0ZM47 1L47 6L52 6L52 1ZM48 2L48 5L51 5L51 2ZM0 46L0 53L7 53L7 46ZM1 47L1 52L6 52L6 47ZM2 48L2 51L5 51L5 48Z" fill="#000000"/></g></g></svg>
