<?xml version="1.0" encoding="UTF-8"?>
<svg xmlns="http://www.w3.org/2000/svg" version="1.1" width="356" height="356" viewBox="0 0 356 356"><rect x="0" y="0" width="356" height="356" fill="#ffffff"/><g transform="scale(6.717)"><g transform="translate(0,0)"><path fill-rule="evenodd" d="M8 0L8 2L9 2L9 3L10 3L10 2L11 2L11 3L12 3L12 5L11 5L11 4L10 4L10 5L9 5L9 4L8 4L8 9L7 9L7 8L5 8L5 9L4 9L4 10L0 10L0 12L1 12L1 13L0 13L0 15L1 15L1 16L2 16L2 15L3 15L3 17L1 17L1 19L2 19L2 18L4 18L4 17L7 17L7 18L5 18L5 21L7 21L7 20L8 20L8 19L9 19L9 20L10 20L10 18L11 18L11 20L13 20L13 21L11 21L11 22L12 22L12 23L11 23L11 24L10 24L10 26L9 26L9 24L5 24L5 23L9 23L9 22L5 22L5 23L3 23L3 22L2 22L2 23L3 23L3 25L4 25L4 26L3 26L3 27L4 27L4 29L3 29L3 32L4 32L4 33L3 33L3 35L4 35L4 36L3 36L3 38L1 38L1 36L0 36L0 38L1 38L1 39L0 39L0 40L1 40L1 39L3 39L3 38L4 38L4 37L5 37L5 38L6 38L6 39L7 39L7 38L6 38L6 37L7 37L7 36L8 36L8 38L9 38L9 39L10 39L10 36L8 36L8 34L9 34L9 35L11 35L11 36L13 36L13 35L15 35L15 36L14 36L14 37L15 37L15 38L12 38L12 39L11 39L11 40L10 40L10 41L9 41L9 42L4 42L4 40L3 40L3 43L2 43L2 42L0 42L0 43L1 43L1 44L3 44L3 45L4 45L4 44L3 44L3 43L7 43L7 44L6 44L6 45L7 45L7 44L8 44L8 46L9 46L9 44L10 44L10 43L11 43L11 44L12 44L12 45L10 45L10 46L12 46L12 47L8 47L8 48L9 48L9 50L8 50L8 53L9 53L9 52L13 52L13 51L14 51L14 52L15 52L15 53L16 53L16 52L18 52L18 53L20 53L20 52L18 52L18 49L19 49L19 48L20 48L20 49L21 49L21 48L20 48L20 47L21 47L21 46L20 46L20 45L19 45L19 44L21 44L21 43L22 43L22 46L23 46L23 47L22 47L22 48L23 48L23 49L28 49L28 53L30 53L30 52L32 52L32 53L34 53L34 52L35 52L35 51L37 51L37 52L36 52L36 53L37 53L37 52L38 52L38 49L39 49L39 48L40 48L40 49L41 49L41 50L39 50L39 52L40 52L40 53L41 53L41 50L42 50L42 49L48 49L48 51L49 51L49 52L47 52L47 53L49 53L49 52L50 52L50 51L51 51L51 50L50 50L50 51L49 51L49 48L50 48L50 46L51 46L51 45L52 45L52 48L53 48L53 45L52 45L52 44L53 44L53 42L52 42L52 44L50 44L50 43L51 43L51 42L50 42L50 41L52 41L52 40L53 40L53 38L52 38L52 37L51 37L51 36L50 36L50 35L49 35L49 34L51 34L51 33L52 33L52 32L53 32L53 29L52 29L52 27L53 27L53 26L52 26L52 27L51 27L51 28L50 28L50 26L51 26L51 25L52 25L52 24L53 24L53 22L52 22L52 24L51 24L51 25L50 25L50 23L51 23L51 21L53 21L53 18L52 18L52 20L51 20L51 21L49 21L49 20L50 20L50 19L51 19L51 18L50 18L50 16L49 16L49 15L51 15L51 14L50 14L50 13L53 13L53 10L52 10L52 9L53 9L53 8L51 8L51 10L50 10L50 9L49 9L49 8L45 8L45 6L44 6L44 8L45 8L45 12L44 12L44 13L43 13L43 14L42 14L42 12L43 12L43 11L42 11L42 8L41 8L41 6L42 6L42 7L43 7L43 3L44 3L44 4L45 4L45 3L44 3L44 1L43 1L43 0L41 0L41 1L40 1L40 0L38 0L38 3L39 3L39 4L38 4L38 5L40 5L40 7L39 7L39 6L38 6L38 8L36 8L36 9L35 9L35 10L34 10L34 9L33 9L33 6L34 6L34 7L35 7L35 6L36 6L36 7L37 7L37 6L36 6L36 5L35 5L35 4L36 4L36 3L37 3L37 0L36 0L36 3L35 3L35 0L34 0L34 1L33 1L33 0L32 0L32 2L31 2L31 0L30 0L30 2L29 2L29 3L30 3L30 2L31 2L31 4L30 4L30 5L29 5L29 4L27 4L27 3L28 3L28 1L29 1L29 0L24 0L24 2L23 2L23 0L22 0L22 1L21 1L21 0L18 0L18 1L16 1L16 2L18 2L18 1L19 1L19 4L20 4L20 5L18 5L18 3L15 3L15 2L14 2L14 3L15 3L15 5L16 5L16 7L17 7L17 6L18 6L18 8L19 8L19 12L18 12L18 10L16 10L16 11L17 11L17 12L18 12L18 14L16 14L16 12L14 12L14 11L15 11L15 10L14 10L14 9L15 9L15 8L14 8L14 7L15 7L15 6L14 6L14 7L13 7L13 6L12 6L12 5L13 5L13 1L15 1L15 0L13 0L13 1L12 1L12 0L10 0L10 1L9 1L9 0ZM20 1L20 2L21 2L21 1ZM25 1L25 2L24 2L24 3L22 3L22 4L21 4L21 5L20 5L20 6L19 6L19 8L20 8L20 6L21 6L21 7L22 7L22 6L23 6L23 9L22 9L22 8L21 8L21 10L20 10L20 11L21 11L21 10L23 10L23 11L22 11L22 12L23 12L23 14L22 14L22 15L21 15L21 16L22 16L22 15L23 15L23 14L25 14L25 13L26 13L26 12L28 12L28 14L27 14L27 15L26 15L26 16L27 16L27 17L26 17L26 18L25 18L25 15L24 15L24 16L23 16L23 17L24 17L24 18L23 18L23 21L24 21L24 22L25 22L25 21L26 21L26 20L27 20L27 19L28 19L28 22L26 22L26 24L27 24L27 23L28 23L28 22L29 22L29 19L28 19L28 16L27 16L27 15L28 15L28 14L29 14L29 15L30 15L30 14L31 14L31 17L30 17L30 16L29 16L29 17L30 17L30 20L31 20L31 21L30 21L30 22L32 22L32 23L30 23L30 24L31 24L31 25L30 25L30 27L29 27L29 28L30 28L30 31L31 31L31 32L30 32L30 34L29 34L29 31L28 31L28 30L29 30L29 29L25 29L25 30L24 30L24 29L22 29L22 28L23 28L23 27L22 27L22 28L19 28L19 29L18 29L18 28L17 28L17 27L18 27L18 26L19 26L19 24L20 24L20 22L22 22L22 24L23 24L23 22L22 22L22 19L20 19L20 18L21 18L21 17L20 17L20 14L21 14L21 12L20 12L20 14L19 14L19 15L18 15L18 16L19 16L19 17L18 17L18 18L19 18L19 20L21 20L21 21L20 21L20 22L19 22L19 21L18 21L18 19L17 19L17 18L16 18L16 19L17 19L17 20L16 20L16 23L14 23L14 24L15 24L15 25L14 25L14 26L15 26L15 28L16 28L16 30L13 30L13 31L11 31L11 32L10 32L10 31L8 31L8 32L9 32L9 34L11 34L11 35L13 35L13 34L15 34L15 32L16 32L16 30L21 30L21 31L18 31L18 32L19 32L19 33L18 33L18 34L16 34L16 35L17 35L17 36L16 36L16 38L15 38L15 39L14 39L14 40L15 40L15 41L14 41L14 43L15 43L15 44L14 44L14 47L15 47L15 48L11 48L11 49L10 49L10 50L9 50L9 51L13 51L13 50L14 50L14 51L15 51L15 50L14 50L14 49L15 49L15 48L16 48L16 47L17 47L17 46L19 46L19 45L18 45L18 43L19 43L19 40L20 40L20 39L21 39L21 37L22 37L22 38L24 38L24 39L22 39L22 40L23 40L23 41L22 41L22 42L24 42L24 41L26 41L26 42L25 42L25 43L26 43L26 44L27 44L27 43L26 43L26 42L29 42L29 43L28 43L28 44L29 44L29 45L30 45L30 46L29 46L29 47L30 47L30 48L29 48L29 49L30 49L30 50L29 50L29 52L30 52L30 50L32 50L32 52L33 52L33 49L32 49L32 48L34 48L34 50L36 50L36 48L38 48L38 47L40 47L40 48L41 48L41 47L40 47L40 46L39 46L39 45L40 45L40 44L41 44L41 45L42 45L42 46L43 46L43 44L44 44L44 42L43 42L43 40L44 40L44 41L46 41L46 42L47 42L47 43L48 43L48 44L49 44L49 46L50 46L50 44L49 44L49 41L48 41L48 40L49 40L49 39L50 39L50 40L52 40L52 38L51 38L51 39L50 39L50 37L49 37L49 36L48 36L48 34L49 34L49 33L51 33L51 32L52 32L52 29L50 29L50 30L49 30L49 29L48 29L48 30L47 30L47 31L46 31L46 29L44 29L44 30L43 30L43 28L44 28L44 26L43 26L43 25L44 25L44 24L46 24L46 23L44 23L44 22L45 22L45 21L46 21L46 22L47 22L47 24L49 24L49 23L50 23L50 22L49 22L49 21L48 21L48 20L49 20L49 19L50 19L50 18L49 18L49 17L48 17L48 20L45 20L45 19L43 19L43 21L42 21L42 20L41 20L41 21L40 21L40 22L39 22L39 19L38 19L38 18L40 18L40 19L42 19L42 18L43 18L43 17L42 17L42 18L40 18L40 16L42 16L42 15L40 15L40 14L41 14L41 13L40 13L40 12L42 12L42 11L41 11L41 9L40 9L40 8L39 8L39 9L37 9L37 11L36 11L36 12L35 12L35 11L34 11L34 12L33 12L33 10L31 10L31 9L32 9L32 6L33 6L33 5L34 5L34 4L35 4L35 3L34 3L34 4L33 4L33 2L32 2L32 6L31 6L31 5L30 5L30 6L29 6L29 7L30 7L30 8L31 8L31 9L30 9L30 11L29 11L29 12L28 12L28 10L29 10L29 9L26 9L26 12L25 12L25 11L24 11L24 10L23 10L23 9L24 9L24 3L25 3L25 4L26 4L26 1ZM39 1L39 3L40 3L40 5L42 5L42 4L41 4L41 3L40 3L40 1ZM42 2L42 3L43 3L43 2ZM22 4L22 5L23 5L23 4ZM25 5L25 8L28 8L28 5ZM9 6L9 7L10 7L10 8L11 8L11 10L10 10L10 9L9 9L9 10L8 10L8 12L7 12L7 11L6 11L6 10L7 10L7 9L5 9L5 12L7 12L7 13L4 13L4 15L6 15L6 16L7 16L7 15L9 15L9 14L11 14L11 15L12 15L12 14L11 14L11 13L9 13L9 14L7 14L7 13L8 13L8 12L11 12L11 10L12 10L12 13L13 13L13 8L11 8L11 7L12 7L12 6L11 6L11 7L10 7L10 6ZM26 6L26 7L27 7L27 6ZM30 6L30 7L31 7L31 6ZM0 8L0 9L3 9L3 8ZM16 8L16 9L17 9L17 8ZM39 9L39 11L37 11L37 12L36 12L36 14L37 14L37 12L38 12L38 13L39 13L39 12L40 12L40 9ZM46 9L46 10L47 10L47 11L46 11L46 12L45 12L45 13L44 13L44 14L45 14L45 13L46 13L46 14L47 14L47 15L48 15L48 14L49 14L49 13L48 13L48 12L47 12L47 11L48 11L48 9ZM9 10L9 11L10 11L10 10ZM51 10L51 11L50 11L50 12L51 12L51 11L52 11L52 10ZM1 11L1 12L4 12L4 11ZM23 11L23 12L24 12L24 11ZM30 11L30 12L29 12L29 14L30 14L30 12L31 12L31 11ZM32 12L32 13L31 13L31 14L32 14L32 18L31 18L31 19L32 19L32 18L33 18L33 19L34 19L34 20L32 20L32 22L33 22L33 23L32 23L32 25L31 25L31 27L30 27L30 28L32 28L32 29L31 29L31 31L32 31L32 29L33 29L33 31L34 31L34 32L32 32L32 33L33 33L33 35L31 35L31 34L30 34L30 37L28 37L28 35L29 35L29 34L28 34L28 35L27 35L27 33L28 33L28 31L27 31L27 30L26 30L26 35L24 35L24 34L25 34L25 31L24 31L24 30L23 30L23 31L22 31L22 32L23 32L23 33L24 33L24 34L22 34L22 35L21 35L21 34L20 34L20 35L21 35L21 36L22 36L22 37L24 37L24 38L25 38L25 36L26 36L26 37L28 37L28 38L29 38L29 42L30 42L30 43L29 43L29 44L30 44L30 45L31 45L31 46L32 46L32 47L31 47L31 48L30 48L30 49L31 49L31 48L32 48L32 47L35 47L35 46L34 46L34 45L35 45L35 44L36 44L36 46L38 46L38 45L39 45L39 44L38 44L38 45L37 45L37 44L36 44L36 43L37 43L37 42L38 42L38 41L39 41L39 43L41 43L41 44L42 44L42 40L43 40L43 39L44 39L44 40L46 40L46 41L47 41L47 42L48 42L48 41L47 41L47 40L48 40L48 39L49 39L49 38L48 38L48 36L47 36L47 37L46 37L46 35L47 35L47 34L48 34L48 32L50 32L50 31L51 31L51 30L50 30L50 31L49 31L49 30L48 30L48 32L46 32L46 33L47 33L47 34L46 34L46 35L45 35L45 31L44 31L44 32L43 32L43 33L44 33L44 34L43 34L43 35L41 35L41 34L42 34L42 32L41 32L41 31L43 31L43 30L42 30L42 29L41 29L41 28L42 28L42 23L40 23L40 25L41 25L41 26L38 26L38 25L39 25L39 24L38 24L38 23L39 23L39 22L38 22L38 21L37 21L37 20L36 20L36 21L37 21L37 22L36 22L36 23L34 23L34 20L35 20L35 19L37 19L37 18L38 18L38 17L39 17L39 16L40 16L40 15L39 15L39 16L36 16L36 15L35 15L35 14L34 14L34 13L33 13L33 12ZM2 13L2 14L1 14L1 15L2 15L2 14L3 14L3 13ZM47 13L47 14L48 14L48 13ZM6 14L6 15L7 15L7 14ZM13 14L13 19L14 19L14 20L15 20L15 19L14 19L14 18L15 18L15 16L14 16L14 15L16 15L16 14ZM33 14L33 17L34 17L34 19L35 19L35 18L37 18L37 17L36 17L36 16L35 16L35 17L34 17L34 14ZM52 14L52 16L53 16L53 14ZM44 15L44 18L45 18L45 17L46 17L46 19L47 19L47 17L46 17L46 15ZM9 16L9 18L10 18L10 16ZM6 19L6 20L7 20L7 19ZM25 19L25 20L24 20L24 21L25 21L25 20L26 20L26 19ZM0 20L0 22L1 22L1 21L2 21L2 20ZM3 20L3 21L4 21L4 20ZM17 21L17 22L18 22L18 21ZM41 21L41 22L42 22L42 21ZM47 21L47 22L48 22L48 21ZM0 23L0 26L1 26L1 27L0 27L0 28L2 28L2 26L1 26L1 25L2 25L2 24L1 24L1 23ZM12 23L12 28L11 28L11 27L10 27L10 28L9 28L9 29L10 29L10 28L11 28L11 29L12 29L12 28L14 28L14 27L13 27L13 23ZM16 23L16 25L17 25L17 23ZM18 23L18 24L19 24L19 23ZM24 23L24 24L25 24L25 23ZM36 23L36 24L34 24L34 26L33 26L33 25L32 25L32 28L34 28L34 30L35 30L35 31L37 31L37 32L38 32L38 31L40 31L40 30L41 30L41 29L40 29L40 28L41 28L41 27L39 27L39 29L38 29L38 28L37 28L37 29L36 29L36 30L35 30L35 28L34 28L34 26L35 26L35 25L36 25L36 27L37 27L37 25L38 25L38 24L37 24L37 23ZM43 23L43 24L44 24L44 23ZM36 24L36 25L37 25L37 24ZM5 25L5 28L8 28L8 25ZM21 25L21 26L20 26L20 27L21 27L21 26L23 26L23 25ZM25 25L25 28L28 28L28 25ZM45 25L45 28L48 28L48 25ZM49 25L49 26L50 26L50 25ZM6 26L6 27L7 27L7 26ZM16 26L16 27L17 27L17 26ZM26 26L26 27L27 27L27 26ZM46 26L46 27L47 27L47 26ZM0 29L0 30L2 30L2 29ZM5 29L5 31L4 31L4 32L5 32L5 33L4 33L4 35L5 35L5 37L6 37L6 36L7 36L7 35L6 35L6 34L7 34L7 33L6 33L6 32L7 32L7 31L6 31L6 30L8 30L8 29ZM37 29L37 31L38 31L38 29ZM0 31L0 32L2 32L2 31ZM5 31L5 32L6 32L6 31ZM14 31L14 32L15 32L15 31ZM20 32L20 33L21 33L21 32ZM34 32L34 36L33 36L33 37L32 37L32 36L31 36L31 37L30 37L30 38L31 38L31 39L30 39L30 40L31 40L31 41L30 41L30 42L31 42L31 43L32 43L32 44L31 44L31 45L32 45L32 44L34 44L34 43L36 43L36 42L37 42L37 41L38 41L38 40L39 40L39 39L41 39L41 40L42 40L42 38L43 38L43 36L44 36L44 37L45 37L45 39L46 39L46 40L47 40L47 39L46 39L46 37L45 37L45 36L44 36L44 35L43 35L43 36L42 36L42 38L40 38L40 36L41 36L41 35L40 35L40 36L38 36L38 35L36 35L36 34L37 34L37 33L36 33L36 34L35 34L35 32ZM39 32L39 33L38 33L38 34L41 34L41 33L40 33L40 32ZM0 33L0 34L1 34L1 35L2 35L2 33ZM11 33L11 34L13 34L13 33ZM18 34L18 38L19 38L19 39L18 39L18 40L19 40L19 39L20 39L20 38L19 38L19 34ZM52 34L52 35L53 35L53 34ZM34 36L34 37L33 37L33 38L32 38L32 37L31 37L31 38L32 38L32 43L34 43L34 41L35 41L35 42L36 42L36 41L37 41L37 40L38 40L38 39L39 39L39 38L38 38L38 36L36 36L36 37L37 37L37 38L36 38L36 39L37 39L37 40L36 40L36 41L35 41L35 39L34 39L34 40L33 40L33 38L34 38L34 37L35 37L35 36ZM26 38L26 39L27 39L27 38ZM37 38L37 39L38 39L38 38ZM15 39L15 40L16 40L16 41L17 41L17 39ZM24 39L24 40L25 40L25 39ZM6 40L6 41L7 41L7 40ZM12 40L12 41L10 41L10 42L13 42L13 40ZM26 40L26 41L27 41L27 40ZM16 42L16 43L18 43L18 42ZM20 42L20 43L21 43L21 42ZM8 43L8 44L9 44L9 43ZM12 43L12 44L13 44L13 43ZM23 43L23 44L24 44L24 43ZM15 44L15 47L16 47L16 44ZM23 45L23 46L24 46L24 45ZM25 45L25 48L28 48L28 45ZM45 45L45 48L48 48L48 45ZM26 46L26 47L27 47L27 46ZM46 46L46 47L47 47L47 46ZM18 47L18 48L19 48L19 47ZM43 47L43 48L44 48L44 47ZM16 50L16 51L17 51L17 50ZM20 50L20 51L21 51L21 50ZM23 50L23 51L22 51L22 53L23 53L23 52L24 52L24 53L26 53L26 51L25 51L25 50ZM44 50L44 51L45 51L45 52L44 52L44 53L46 53L46 51L47 51L47 50L46 50L46 51L45 51L45 50ZM24 51L24 52L25 52L25 51ZM42 51L42 53L43 53L43 51ZM52 52L52 53L53 53L53 52ZM0 0L0 7L7 7L7 0ZM1 1L1 6L6 6L6 1ZM2 2L2 5L5 5L5 2ZM46 0L46 7L53 7L53 0ZM47 1L47 6L52 6L52 1ZM48 2L48 5L51 5L51 2ZM0 46L0 53L7 53L7 46ZM1 47L1 52L6 52L6 47ZM2 48L2 51L5 51L5 48Z" fill="#000000"/></g></g></svg>
