<?xml version="1.0" encoding="UTF-8"?>
<svg xmlns="http://www.w3.org/2000/svg" version="1.1" width="356" height="356" viewBox="0 0 356 356"><rect x="0" y="0" width="356" height="356" fill="#ffffff"/><g transform="scale(6.717)"><g transform="translate(0,0)"><path fill-rule="evenodd" d="M8 0L8 2L12 2L12 3L11 3L11 4L8 4L8 9L12 9L12 10L11 10L11 11L10 11L10 10L8 10L8 11L7 11L7 10L6 10L6 9L7 9L7 8L5 8L5 9L4 9L4 10L3 10L3 8L0 8L0 9L2 9L2 10L3 10L3 11L2 11L2 13L4 13L4 12L3 12L3 11L4 11L4 10L5 10L5 12L6 12L6 13L5 13L5 14L6 14L6 15L7 15L7 16L5 16L5 17L4 17L4 14L1 14L1 13L0 13L0 14L1 14L1 15L0 15L0 16L1 16L1 21L2 21L2 22L1 22L1 23L0 23L0 24L1 24L1 25L2 25L2 26L1 26L1 27L3 27L3 25L2 25L2 24L4 24L4 30L3 30L3 28L0 28L0 31L1 31L1 32L0 32L0 33L1 33L1 34L0 34L0 35L1 35L1 36L2 36L2 35L1 35L1 34L2 34L2 31L4 31L4 30L5 30L5 32L3 32L3 35L4 35L4 33L5 33L5 34L6 34L6 35L8 35L8 34L6 34L6 33L8 33L8 32L6 32L6 31L8 31L8 30L6 30L6 29L9 29L9 30L10 30L10 31L9 31L9 33L10 33L10 32L11 32L11 35L15 35L15 36L14 36L14 37L13 37L13 36L12 36L12 37L11 37L11 36L10 36L10 35L9 35L9 36L6 36L6 37L7 37L7 38L5 38L5 39L4 39L4 37L5 37L5 36L3 36L3 40L4 40L4 42L3 42L3 41L2 41L2 42L0 42L0 43L1 43L1 44L3 44L3 45L4 45L4 44L3 44L3 43L8 43L8 42L5 42L5 40L6 40L6 41L9 41L9 44L10 44L10 46L11 46L11 45L12 45L12 47L11 47L11 48L12 48L12 50L11 50L11 49L10 49L10 47L8 47L8 48L9 48L9 49L10 49L10 51L13 51L13 53L14 53L14 52L15 52L15 53L16 53L16 52L18 52L18 53L19 53L19 52L18 52L18 49L19 49L19 48L18 48L18 47L19 47L19 46L20 46L20 47L21 47L21 46L23 46L23 47L22 47L22 48L23 48L23 50L20 50L20 51L21 51L21 52L20 52L20 53L21 53L21 52L22 52L22 53L23 53L23 52L22 52L22 51L24 51L24 50L25 50L25 52L24 52L24 53L27 53L27 52L26 52L26 49L29 49L29 47L30 47L30 48L32 48L32 49L33 49L33 51L32 51L32 50L31 50L31 51L30 51L30 52L28 52L28 53L30 53L30 52L31 52L31 51L32 51L32 53L33 53L33 51L34 51L34 53L35 53L35 52L36 52L36 53L41 53L41 51L42 51L42 49L45 49L45 50L44 50L44 51L43 51L43 52L44 52L44 51L45 51L45 53L46 53L46 50L47 50L47 49L48 49L48 51L49 51L49 52L47 52L47 53L50 53L50 50L51 50L51 49L52 49L52 48L53 48L53 46L52 46L52 44L53 44L53 42L52 42L52 44L50 44L50 42L48 42L48 41L51 41L51 40L50 40L50 39L51 39L51 38L52 38L52 39L53 39L53 38L52 38L52 37L50 37L50 39L49 39L49 38L48 38L48 36L49 36L49 34L48 34L48 33L49 33L49 32L50 32L50 31L51 31L51 32L52 32L52 33L53 33L53 32L52 32L52 31L53 31L53 29L52 29L52 27L53 27L53 26L52 26L52 27L51 27L51 25L50 25L50 23L51 23L51 24L52 24L52 25L53 25L53 24L52 24L52 23L53 23L53 22L52 22L52 21L53 21L53 18L52 18L52 20L51 20L51 21L50 21L50 19L51 19L51 17L52 17L52 16L53 16L53 14L52 14L52 13L53 13L53 10L52 10L52 9L53 9L53 8L51 8L51 10L50 10L50 9L49 9L49 8L45 8L45 6L44 6L44 7L43 7L43 3L44 3L44 4L45 4L45 3L44 3L44 1L43 1L43 0L41 0L41 2L40 2L40 1L39 1L39 0L38 0L38 1L37 1L37 0L36 0L36 2L35 2L35 0L34 0L34 1L33 1L33 0L32 0L32 2L34 2L34 7L35 7L35 6L36 6L36 7L37 7L37 8L36 8L36 9L35 9L35 10L34 10L34 9L33 9L33 6L32 6L32 9L31 9L31 8L30 8L30 7L31 7L31 6L30 6L30 7L29 7L29 4L30 4L30 5L31 5L31 4L30 4L30 3L31 3L31 0L30 0L30 2L29 2L29 4L27 4L27 3L28 3L28 1L29 1L29 0L27 0L27 2L26 2L26 4L24 4L24 9L26 9L26 10L23 10L23 11L22 11L22 10L21 10L21 8L22 8L22 9L23 9L23 8L22 8L22 7L23 7L23 4L22 4L22 3L21 3L21 2L22 2L22 0L18 0L18 1L16 1L16 2L18 2L18 1L19 1L19 4L20 4L20 5L18 5L18 3L15 3L15 0L13 0L13 1L12 1L12 0L11 0L11 1L9 1L9 0ZM24 0L24 1L23 1L23 2L24 2L24 1L25 1L25 0ZM13 1L13 2L14 2L14 1ZM20 1L20 2L21 2L21 1ZM38 1L38 2L37 2L37 3L36 3L36 4L37 4L37 5L36 5L36 6L37 6L37 7L38 7L38 10L37 10L37 11L35 11L35 13L34 13L34 12L33 12L33 10L31 10L31 9L30 9L30 10L29 10L29 11L30 11L30 10L31 10L31 11L32 11L32 12L31 12L31 13L30 13L30 12L28 12L28 9L27 9L27 11L26 11L26 12L25 12L25 11L24 11L24 12L23 12L23 14L22 14L22 15L21 15L21 16L22 16L22 15L23 15L23 14L24 14L24 22L23 22L23 21L22 21L22 18L21 18L21 17L20 17L20 14L21 14L21 12L22 12L22 11L21 11L21 10L20 10L20 11L21 11L21 12L20 12L20 14L19 14L19 15L18 15L18 16L19 16L19 17L18 17L18 18L19 18L19 20L21 20L21 21L20 21L20 22L19 22L19 21L18 21L18 19L17 19L17 18L16 18L16 19L17 19L17 20L16 20L16 23L14 23L14 24L15 24L15 25L14 25L14 26L15 26L15 28L16 28L16 30L13 30L13 34L15 34L15 32L16 32L16 30L21 30L21 31L18 31L18 32L19 32L19 33L18 33L18 34L16 34L16 35L17 35L17 36L16 36L16 38L15 38L15 37L14 37L14 38L15 38L15 39L14 39L14 40L15 40L15 41L14 41L14 42L15 42L15 44L13 44L13 42L11 42L11 44L13 44L13 47L12 47L12 48L14 48L14 47L15 47L15 48L16 48L16 47L17 47L17 46L19 46L19 45L20 45L20 46L21 46L21 45L20 45L20 44L19 44L19 45L18 45L18 43L19 43L19 40L18 40L18 39L19 39L19 38L21 38L21 37L22 37L22 38L24 38L24 39L22 39L22 40L23 40L23 41L22 41L22 43L21 43L21 42L20 42L20 43L21 43L21 44L22 44L22 43L23 43L23 42L24 42L24 43L25 43L25 44L26 44L26 43L28 43L28 44L30 44L30 47L31 47L31 46L32 46L32 48L34 48L34 50L35 50L35 51L36 51L36 52L37 52L37 51L38 51L38 50L40 50L40 51L41 51L41 49L42 49L42 48L44 48L44 46L43 46L43 44L42 44L42 43L45 43L45 44L46 44L46 41L47 41L47 39L46 39L46 36L47 36L47 35L48 35L48 34L47 34L47 33L46 33L46 32L48 32L48 30L49 30L49 31L50 31L50 30L51 30L51 29L50 29L50 28L51 28L51 27L50 27L50 28L49 28L49 29L48 29L48 30L47 30L47 31L46 31L46 29L44 29L44 30L45 30L45 31L46 31L46 32L45 32L45 34L44 34L44 33L42 33L42 34L44 34L44 35L43 35L43 36L44 36L44 35L46 35L46 36L45 36L45 37L44 37L44 38L43 38L43 37L42 37L42 35L40 35L40 36L39 36L39 35L38 35L38 34L41 34L41 33L40 33L40 30L39 30L39 29L40 29L40 28L41 28L41 29L42 29L42 30L41 30L41 31L42 31L42 32L43 32L43 31L42 31L42 30L43 30L43 28L44 28L44 24L43 24L43 20L44 20L44 22L45 22L45 24L46 24L46 22L47 22L47 24L49 24L49 23L50 23L50 22L49 22L49 21L48 21L48 20L49 20L49 17L48 17L48 20L47 20L47 21L46 21L46 20L45 20L45 17L46 17L46 19L47 19L47 17L46 17L46 15L45 15L45 17L44 17L44 15L43 15L43 17L42 17L42 18L43 18L43 17L44 17L44 19L43 19L43 20L42 20L42 19L41 19L41 20L42 20L42 26L41 26L41 25L40 25L40 24L41 24L41 21L40 21L40 20L39 20L39 21L38 21L38 22L39 22L39 23L38 23L38 24L39 24L39 25L38 25L38 26L39 26L39 29L38 29L38 28L37 28L37 29L36 29L36 28L35 28L35 27L34 27L34 26L35 26L35 25L36 25L36 27L37 27L37 25L36 25L36 24L37 24L37 23L36 23L36 22L35 22L35 21L36 21L36 20L37 20L37 19L36 19L36 20L33 20L33 21L32 21L32 19L33 19L33 18L32 18L32 15L33 15L33 17L34 17L34 19L35 19L35 18L37 18L37 17L36 17L36 16L38 16L38 15L39 15L39 14L40 14L40 16L39 16L39 17L38 17L38 19L40 19L40 18L41 18L41 17L40 17L40 16L41 16L41 14L40 14L40 12L41 12L41 11L40 11L40 12L39 12L39 11L38 11L38 10L39 10L39 9L40 9L40 10L41 10L41 9L40 9L40 8L42 8L42 12L45 12L45 13L44 13L44 14L45 14L45 13L46 13L46 14L48 14L48 9L46 9L46 10L47 10L47 13L46 13L46 12L45 12L45 8L43 8L43 7L42 7L42 5L41 5L41 3L40 3L40 2L39 2L39 1ZM38 2L38 3L39 3L39 4L38 4L38 5L40 5L40 7L39 7L39 6L38 6L38 7L39 7L39 8L40 8L40 7L41 7L41 5L40 5L40 3L39 3L39 2ZM42 2L42 3L43 3L43 2ZM12 3L12 5L13 5L13 7L12 7L12 6L11 6L11 7L10 7L10 6L9 6L9 8L12 8L12 9L13 9L13 7L14 7L14 8L15 8L15 9L14 9L14 12L16 12L16 14L12 14L12 13L13 13L13 10L12 10L12 11L11 11L11 12L10 12L10 13L11 13L11 16L10 16L10 14L9 14L9 13L8 13L8 12L9 12L9 11L8 11L8 12L7 12L7 11L6 11L6 12L7 12L7 13L6 13L6 14L7 14L7 15L8 15L8 17L6 17L6 18L4 18L4 17L3 17L3 18L4 18L4 19L3 19L3 22L2 22L2 23L3 23L3 22L4 22L4 21L5 21L5 22L7 22L7 21L8 21L8 20L7 20L7 19L8 19L8 17L9 17L9 19L10 19L10 18L11 18L11 21L12 21L12 23L13 23L13 21L12 21L12 20L13 20L13 19L14 19L14 20L15 20L15 19L14 19L14 18L15 18L15 16L14 16L14 15L16 15L16 14L18 14L18 12L19 12L19 8L20 8L20 6L21 6L21 7L22 7L22 4L21 4L21 5L20 5L20 6L19 6L19 8L18 8L18 6L17 6L17 7L16 7L16 5L15 5L15 3ZM32 4L32 5L33 5L33 4ZM25 5L25 8L28 8L28 5ZM14 6L14 7L15 7L15 6ZM26 6L26 7L27 7L27 6ZM16 8L16 9L17 9L17 8ZM0 10L0 12L1 12L1 10ZM16 10L16 11L17 11L17 12L18 12L18 10ZM43 10L43 11L44 11L44 10ZM51 10L51 11L50 11L50 14L51 14L51 15L49 15L49 16L50 16L50 17L51 17L51 16L52 16L52 14L51 14L51 11L52 11L52 10ZM37 11L37 12L36 12L36 14L34 14L34 13L33 13L33 12L32 12L32 13L31 13L31 14L32 14L32 13L33 13L33 15L34 15L34 17L35 17L35 16L36 16L36 14L37 14L37 15L38 15L38 11ZM11 12L11 13L12 13L12 12ZM26 12L26 13L24 13L24 14L25 14L25 16L26 16L26 18L25 18L25 20L26 20L26 18L28 18L28 20L30 20L30 21L29 21L29 22L28 22L28 21L26 21L26 23L25 23L25 24L24 24L24 26L22 26L22 27L24 27L24 30L23 30L23 31L22 31L22 32L23 32L23 34L22 34L22 37L24 37L24 38L25 38L25 37L24 37L24 36L26 36L26 37L28 37L28 33L29 33L29 35L30 35L30 36L29 36L29 38L30 38L30 39L32 39L32 43L30 43L30 41L31 41L31 40L30 40L30 41L29 41L29 40L28 40L28 41L29 41L29 43L30 43L30 44L32 44L32 46L34 46L34 47L35 47L35 48L36 48L36 49L35 49L35 50L36 50L36 51L37 51L37 50L38 50L38 49L39 49L39 48L38 48L38 49L37 49L37 48L36 48L36 46L37 46L37 47L38 47L38 44L37 44L37 43L38 43L38 40L39 40L39 41L40 41L40 42L41 42L41 40L42 40L42 37L41 37L41 36L40 36L40 37L39 37L39 36L38 36L38 35L37 35L37 34L38 34L38 33L39 33L39 30L38 30L38 29L37 29L37 30L36 30L36 29L35 29L35 30L34 30L34 29L33 29L33 28L34 28L34 27L33 27L33 28L32 28L32 25L33 25L33 26L34 26L34 24L36 24L36 23L35 23L35 22L34 22L34 21L33 21L33 22L34 22L34 23L32 23L32 21L31 21L31 19L32 19L32 18L31 18L31 19L29 19L29 16L30 16L30 17L31 17L31 16L30 16L30 13L29 13L29 14L28 14L28 12ZM7 13L7 14L8 14L8 15L9 15L9 14L8 14L8 13ZM42 13L42 14L43 14L43 13ZM27 14L27 15L26 15L26 16L27 16L27 17L28 17L28 16L29 16L29 15L28 15L28 14ZM1 15L1 16L2 16L2 15ZM12 15L12 16L13 16L13 15ZM6 18L6 19L4 19L4 20L6 20L6 21L7 21L7 20L6 20L6 19L7 19L7 18ZM12 18L12 19L13 19L13 18ZM20 18L20 19L21 19L21 18ZM9 20L9 22L10 22L10 20ZM17 21L17 22L18 22L18 21ZM21 21L21 22L20 22L20 24L19 24L19 23L18 23L18 24L19 24L19 26L18 26L18 27L17 27L17 26L16 26L16 27L17 27L17 28L18 28L18 29L19 29L19 28L21 28L21 27L20 27L20 26L21 26L21 25L23 25L23 24L22 24L22 21ZM30 21L30 22L31 22L31 21ZM39 21L39 22L40 22L40 21ZM45 21L45 22L46 22L46 21ZM27 22L27 23L26 23L26 24L27 24L27 23L28 23L28 24L29 24L29 25L30 25L30 27L31 27L31 25L32 25L32 23L30 23L30 24L29 24L29 23L28 23L28 22ZM48 22L48 23L49 23L49 22ZM51 22L51 23L52 23L52 22ZM6 23L6 24L7 24L7 23ZM16 23L16 25L17 25L17 23ZM39 23L39 24L40 24L40 23ZM9 24L9 25L10 25L10 24ZM11 24L11 25L12 25L12 24ZM30 24L30 25L31 25L31 24ZM5 25L5 28L8 28L8 25ZM25 25L25 28L28 28L28 25ZM45 25L45 28L48 28L48 25ZM6 26L6 27L7 27L7 26ZM9 26L9 27L10 27L10 29L12 29L12 28L14 28L14 27L10 27L10 26ZM26 26L26 27L27 27L27 26ZM40 26L40 27L41 27L41 26ZM42 26L42 28L43 28L43 26ZM46 26L46 27L47 27L47 26ZM22 28L22 29L23 29L23 28ZM30 28L30 31L31 31L31 33L30 33L30 32L29 32L29 31L28 31L28 32L27 32L27 33L28 33L28 32L29 32L29 33L30 33L30 35L31 35L31 36L30 36L30 38L32 38L32 39L33 39L33 40L34 40L34 39L35 39L35 41L34 41L34 44L35 44L35 45L34 45L34 46L36 46L36 43L37 43L37 41L36 41L36 39L37 39L37 40L38 40L38 38L39 38L39 39L41 39L41 37L40 37L40 38L39 38L39 37L38 37L38 38L36 38L36 36L37 36L37 35L35 35L35 32L34 32L34 31L33 31L33 29L32 29L32 28ZM26 29L26 31L25 31L25 32L24 32L24 31L23 31L23 32L24 32L24 35L23 35L23 36L24 36L24 35L26 35L26 31L27 31L27 30L29 30L29 29ZM49 29L49 30L50 30L50 29ZM1 30L1 31L2 31L2 30ZM14 31L14 32L15 32L15 31ZM37 31L37 32L38 32L38 31ZM20 32L20 33L21 33L21 32ZM32 32L32 33L33 33L33 35L32 35L32 38L33 38L33 36L34 36L34 37L35 37L35 36L34 36L34 32ZM50 33L50 35L51 35L51 33ZM18 34L18 38L19 38L19 34ZM20 34L20 35L21 35L21 34ZM46 34L46 35L47 35L47 34ZM52 34L52 35L53 35L53 34ZM9 36L9 38L7 38L7 39L6 39L6 40L8 40L8 39L9 39L9 41L12 41L12 39L13 39L13 38L11 38L11 37L10 37L10 36ZM0 37L0 38L1 38L1 37ZM9 38L9 39L10 39L10 38ZM26 38L26 39L27 39L27 38ZM35 38L35 39L36 39L36 38ZM1 39L1 40L0 40L0 41L1 41L1 40L2 40L2 39ZM15 39L15 40L16 40L16 41L17 41L17 39ZM20 39L20 40L21 40L21 39ZM44 39L44 40L43 40L43 41L44 41L44 42L45 42L45 41L46 41L46 40L45 40L45 39ZM48 39L48 40L49 40L49 39ZM24 40L24 42L25 42L25 43L26 43L26 42L27 42L27 40ZM44 40L44 41L45 41L45 40ZM52 40L52 41L53 41L53 40ZM2 42L2 43L3 43L3 42ZM16 42L16 43L18 43L18 42ZM35 42L35 43L36 43L36 42ZM47 42L47 44L48 44L48 42ZM32 43L32 44L33 44L33 43ZM6 44L6 45L8 45L8 46L9 46L9 45L8 45L8 44ZM15 44L15 47L16 47L16 44ZM23 44L23 45L24 45L24 44ZM40 44L40 45L39 45L39 47L41 47L41 48L40 48L40 49L41 49L41 48L42 48L42 44ZM25 45L25 48L28 48L28 45ZM45 45L45 48L48 48L48 45ZM49 45L49 46L50 46L50 48L49 48L49 50L50 50L50 49L51 49L51 48L52 48L52 46L50 46L50 45ZM26 46L26 47L27 47L27 46ZM46 46L46 47L47 47L47 46ZM20 48L20 49L21 49L21 48ZM13 49L13 51L14 51L14 50L15 50L15 49ZM36 49L36 50L37 50L37 49ZM8 50L8 53L9 53L9 50ZM16 50L16 51L17 51L17 50ZM27 50L27 51L28 51L28 50ZM11 52L11 53L12 53L12 52ZM52 52L52 53L53 53L53 52ZM0 0L0 7L7 7L7 0ZM1 1L1 6L6 6L6 1ZM2 2L2 5L5 5L5 2ZM46 0L46 7L53 7L53 0ZM47 1L47 6L52 6L52 1ZM48 2L48 5L51 5L51 2ZM0 46L0 53L7 53L7 46ZM1 47L1 52L6 52L6 47ZM2 48L2 51L5 51L5 48Z" fill="#000000"/></g></g></svg>
