<?xml version="1.0" encoding="UTF-8"?>
<svg xmlns="http://www.w3.org/2000/svg" version="1.1" width="356" height="356" viewBox="0 0 356 356"><rect x="0" y="0" width="356" height="356" fill="#ffffff"/><g transform="scale(6.717)"><g transform="translate(0,0)"><path fill-rule="evenodd" d="M8 0L8 2L9 2L9 0ZM10 0L10 3L11 3L11 4L8 4L8 11L9 11L9 12L8 12L8 13L10 13L10 12L11 12L11 13L12 13L12 12L13 12L13 14L9 14L9 15L8 15L8 14L6 14L6 13L7 13L7 12L6 12L6 13L4 13L4 12L5 12L5 11L3 11L3 10L5 10L5 9L7 9L7 8L5 8L5 9L3 9L3 8L0 8L0 10L1 10L1 11L0 11L0 13L1 13L1 12L2 12L2 13L3 13L3 15L2 15L2 18L1 18L1 19L0 19L0 22L2 22L2 21L3 21L3 20L1 20L1 19L2 19L2 18L3 18L3 17L4 17L4 22L3 22L3 23L0 23L0 25L1 25L1 24L4 24L4 26L0 26L0 31L1 31L1 30L2 30L2 33L3 33L3 32L5 32L5 29L7 29L7 30L6 30L6 31L7 31L7 32L6 32L6 33L7 33L7 34L6 34L6 35L5 35L5 33L4 33L4 36L3 36L3 35L2 35L2 34L1 34L1 33L0 33L0 35L1 35L1 36L0 36L0 37L1 37L1 36L3 36L3 39L4 39L4 37L5 37L5 39L7 39L7 40L6 40L6 41L5 41L5 42L3 42L3 41L4 41L4 40L1 40L1 41L0 41L0 43L1 43L1 44L3 44L3 45L4 45L4 44L3 44L3 43L7 43L7 42L8 42L8 44L6 44L6 45L8 45L8 46L9 46L9 47L8 47L8 48L9 48L9 50L8 50L8 53L9 53L9 52L11 52L11 53L14 53L14 51L15 51L15 53L16 53L16 52L18 52L18 53L19 53L19 52L18 52L18 49L19 49L19 48L20 48L20 49L21 49L21 48L20 48L20 47L21 47L21 46L23 46L23 47L22 47L22 48L23 48L23 50L22 50L22 51L21 51L21 50L20 50L20 51L21 51L21 52L20 52L20 53L21 53L21 52L22 52L22 53L23 53L23 52L22 52L22 51L25 51L25 52L24 52L24 53L25 53L25 52L26 52L26 53L27 53L27 52L26 52L26 51L25 51L25 49L27 49L27 50L28 50L28 51L31 51L31 53L33 53L33 52L34 52L34 53L35 53L35 51L38 51L38 49L37 49L37 47L36 47L36 49L35 49L35 50L34 50L34 48L32 48L32 47L35 47L35 46L34 46L34 45L35 45L35 43L34 43L34 41L35 41L35 39L34 39L34 37L35 37L35 38L36 38L36 37L37 37L37 38L38 38L38 39L39 39L39 38L38 38L38 37L37 37L37 36L38 36L38 35L40 35L40 38L41 38L41 35L40 35L40 34L41 34L41 33L42 33L42 32L40 32L40 34L38 34L38 32L39 32L39 31L40 31L40 30L42 30L42 31L43 31L43 34L44 34L44 35L42 35L42 37L43 37L43 40L42 40L42 41L41 41L41 39L40 39L40 41L39 41L39 42L38 42L38 40L37 40L37 39L36 39L36 42L37 42L37 43L36 43L36 46L37 46L37 44L38 44L38 45L39 45L39 47L40 47L40 49L39 49L39 51L40 51L40 53L42 53L42 52L41 52L41 51L42 51L42 49L43 49L43 46L42 46L42 44L40 44L40 45L39 45L39 44L38 44L38 43L42 43L42 41L44 41L44 42L45 42L45 44L44 44L44 43L43 43L43 45L44 45L44 49L45 49L45 50L44 50L44 51L43 51L43 53L45 53L45 52L46 52L46 53L50 53L50 51L51 51L51 49L50 49L50 50L49 50L49 48L50 48L50 46L51 46L51 45L52 45L52 47L51 47L51 48L52 48L52 47L53 47L53 45L52 45L52 44L53 44L53 42L52 42L52 44L51 44L51 45L50 45L50 42L51 42L51 41L52 41L52 40L53 40L53 38L52 38L52 40L50 40L50 39L51 39L51 37L50 37L50 39L49 39L49 38L48 38L48 36L50 36L50 34L51 34L51 33L52 33L52 32L53 32L53 29L52 29L52 27L53 27L53 26L52 26L52 27L51 27L51 28L50 28L50 27L49 27L49 25L50 25L50 26L51 26L51 25L52 25L52 24L53 24L53 22L52 22L52 21L53 21L53 18L52 18L52 20L51 20L51 21L50 21L50 16L49 16L49 15L51 15L51 14L50 14L50 13L52 13L52 16L51 16L51 17L52 17L52 16L53 16L53 10L52 10L52 9L53 9L53 8L51 8L51 9L50 9L50 10L49 10L49 8L45 8L45 6L44 6L44 8L42 8L42 7L43 7L43 3L44 3L44 4L45 4L45 3L44 3L44 1L43 1L43 0L42 0L42 2L41 2L41 1L40 1L40 0L38 0L38 1L40 1L40 2L41 2L41 4L40 4L40 3L38 3L38 2L37 2L37 0L36 0L36 2L35 2L35 0L34 0L34 1L33 1L33 0L32 0L32 2L31 2L31 3L30 3L30 1L31 1L31 0L30 0L30 1L29 1L29 3L30 3L30 5L29 5L29 4L27 4L27 3L28 3L28 0L27 0L27 2L26 2L26 0L24 0L24 2L26 2L26 3L24 3L24 7L23 7L23 4L22 4L22 2L23 2L23 1L22 1L22 0L18 0L18 1L16 1L16 2L18 2L18 1L19 1L19 4L20 4L20 5L18 5L18 3L15 3L15 0L13 0L13 1L11 1L11 0ZM13 1L13 3L12 3L12 6L11 6L11 5L10 5L10 6L9 6L9 8L10 8L10 11L11 11L11 10L13 10L13 8L11 8L11 7L12 7L12 6L13 6L13 7L14 7L14 8L15 8L15 9L14 9L14 10L15 10L15 12L16 12L16 14L13 14L13 16L12 16L12 19L11 19L11 20L12 20L12 21L13 21L13 20L12 20L12 19L14 19L14 20L15 20L15 19L14 19L14 18L15 18L15 16L14 16L14 15L16 15L16 14L18 14L18 12L19 12L19 8L20 8L20 6L21 6L21 7L22 7L22 8L21 8L21 10L20 10L20 11L21 11L21 12L20 12L20 14L19 14L19 15L18 15L18 16L19 16L19 17L18 17L18 18L19 18L19 20L21 20L21 21L20 21L20 22L19 22L19 21L18 21L18 19L17 19L17 18L16 18L16 19L17 19L17 20L16 20L16 23L14 23L14 24L15 24L15 25L14 25L14 26L15 26L15 28L16 28L16 30L13 30L13 29L12 29L12 31L8 31L8 32L7 32L7 33L8 33L8 32L10 32L10 33L12 33L12 34L15 34L15 32L16 32L16 30L21 30L21 31L18 31L18 32L19 32L19 33L18 33L18 34L16 34L16 35L17 35L17 36L16 36L16 38L15 38L15 37L14 37L14 36L15 36L15 35L11 35L11 34L10 34L10 35L11 35L11 38L10 38L10 39L11 39L11 40L10 40L10 41L11 41L11 42L12 42L12 44L11 44L11 43L10 43L10 42L9 42L9 39L8 39L8 40L7 40L7 41L6 41L6 42L7 42L7 41L8 41L8 42L9 42L9 46L10 46L10 45L11 45L11 47L15 47L15 48L16 48L16 47L17 47L17 46L19 46L19 47L18 47L18 48L19 48L19 47L20 47L20 46L21 46L21 45L20 45L20 44L19 44L19 45L18 45L18 43L19 43L19 40L18 40L18 39L19 39L19 38L21 38L21 37L22 37L22 38L23 38L23 37L22 37L22 36L23 36L23 35L22 35L22 34L23 34L23 33L24 33L24 31L25 31L25 35L26 35L26 31L28 31L28 33L27 33L27 34L28 34L28 36L27 36L27 37L26 37L26 36L25 36L25 38L27 38L27 39L28 39L28 40L27 40L27 41L28 41L28 40L29 40L29 41L30 41L30 42L31 42L31 43L32 43L32 44L31 44L31 45L30 45L30 43L29 43L29 42L25 42L25 43L26 43L26 44L29 44L29 47L30 47L30 48L29 48L29 49L28 49L28 50L29 50L29 49L30 49L30 50L32 50L32 51L33 51L33 49L32 49L32 48L31 48L31 46L32 46L32 44L33 44L33 45L34 45L34 44L33 44L33 43L32 43L32 39L33 39L33 40L34 40L34 39L33 39L33 37L32 37L32 36L30 36L30 34L31 34L31 35L33 35L33 33L32 33L32 32L34 32L34 36L35 36L35 37L36 37L36 36L37 36L37 35L38 35L38 34L37 34L37 35L35 35L35 32L34 32L34 31L36 31L36 27L37 27L37 25L38 25L38 27L39 27L39 28L38 28L38 30L37 30L37 32L38 32L38 30L40 30L40 28L41 28L41 29L42 29L42 30L43 30L43 31L44 31L44 30L45 30L45 31L46 31L46 33L44 33L44 34L45 34L45 36L44 36L44 39L45 39L45 36L46 36L46 38L47 38L47 35L46 35L46 33L48 33L48 35L49 35L49 33L51 33L51 32L52 32L52 29L50 29L50 30L49 30L49 29L48 29L48 30L47 30L47 31L46 31L46 30L45 30L45 29L44 29L44 27L42 27L42 26L43 26L43 25L44 25L44 24L46 24L46 23L47 23L47 24L49 24L49 23L50 23L50 25L51 25L51 23L52 23L52 22L51 22L51 23L50 23L50 22L48 22L48 20L49 20L49 17L48 17L48 20L46 20L46 23L45 23L45 17L46 17L46 19L47 19L47 17L46 17L46 15L44 15L44 16L43 16L43 15L41 15L41 13L40 13L40 12L42 12L42 14L43 14L43 13L44 13L44 14L45 14L45 13L44 13L44 11L45 11L45 12L46 12L46 14L47 14L47 15L48 15L48 9L46 9L46 10L47 10L47 12L46 12L46 11L45 11L45 9L44 9L44 11L43 11L43 9L42 9L42 8L41 8L41 11L40 11L40 12L39 12L39 11L38 11L38 15L37 15L37 14L36 14L36 12L35 12L35 11L33 11L33 10L31 10L31 9L32 9L32 6L33 6L33 9L34 9L34 10L35 10L35 9L36 9L36 8L38 8L38 10L40 10L40 4L39 4L39 5L38 5L38 3L37 3L37 2L36 2L36 5L35 5L35 7L34 7L34 6L33 6L33 2L32 2L32 5L30 5L30 6L29 6L29 8L30 8L30 11L29 11L29 13L28 13L28 12L27 12L27 11L28 11L28 10L29 10L29 9L28 9L28 10L27 10L27 11L26 11L26 14L24 14L24 13L25 13L25 11L24 11L24 12L23 12L23 13L22 13L22 10L26 10L26 9L24 9L24 8L23 8L23 7L22 7L22 4L21 4L21 5L20 5L20 6L19 6L19 8L18 8L18 6L17 6L17 7L16 7L16 5L15 5L15 3L14 3L14 1ZM20 1L20 2L21 2L21 1ZM34 2L34 3L35 3L35 2ZM42 2L42 3L43 3L43 2ZM41 4L41 7L42 7L42 4ZM25 5L25 8L28 8L28 5ZM36 5L36 7L37 7L37 6L38 6L38 7L39 7L39 6L38 6L38 5ZM10 6L10 7L11 7L11 6ZM14 6L14 7L15 7L15 6ZM26 6L26 7L27 7L27 6ZM30 6L30 8L31 8L31 6ZM16 8L16 9L17 9L17 8ZM22 8L22 9L23 9L23 8ZM2 9L2 10L3 10L3 9ZM6 10L6 11L7 11L7 10ZM16 10L16 11L17 11L17 12L18 12L18 10ZM50 10L50 12L49 12L49 13L50 13L50 12L51 12L51 11L52 11L52 10ZM2 11L2 12L3 12L3 11ZM13 11L13 12L14 12L14 11ZM30 11L30 13L29 13L29 14L28 14L28 13L27 13L27 14L28 14L28 15L27 15L27 16L26 16L26 15L25 15L25 16L24 16L24 14L23 14L23 15L22 15L22 14L20 14L20 17L21 17L21 18L20 18L20 19L21 19L21 18L22 18L22 19L23 19L23 20L22 20L22 21L21 21L21 22L20 22L20 24L19 24L19 23L18 23L18 24L19 24L19 26L18 26L18 27L17 27L17 26L16 26L16 27L17 27L17 28L18 28L18 29L19 29L19 28L21 28L21 27L20 27L20 26L21 26L21 25L23 25L23 26L22 26L22 29L21 29L21 30L22 30L22 29L23 29L23 26L24 26L24 30L23 30L23 31L22 31L22 32L23 32L23 31L24 31L24 30L25 30L25 29L27 29L27 30L28 30L28 31L29 31L29 32L30 32L30 33L28 33L28 34L30 34L30 33L31 33L31 32L30 32L30 31L29 31L29 30L30 30L30 29L31 29L31 27L32 27L32 25L33 25L33 26L34 26L34 27L33 27L33 28L32 28L32 30L31 30L31 31L32 31L32 30L33 30L33 31L34 31L34 29L35 29L35 28L34 28L34 27L36 27L36 25L37 25L37 24L38 24L38 25L39 25L39 24L40 24L40 26L42 26L42 25L43 25L43 24L44 24L44 23L43 23L43 24L42 24L42 23L39 23L39 22L40 22L40 21L41 21L41 15L40 15L40 14L39 14L39 15L40 15L40 17L39 17L39 18L38 18L38 16L36 16L36 15L35 15L35 14L34 14L34 12L32 12L32 11ZM42 11L42 12L43 12L43 11ZM31 12L31 13L30 13L30 15L28 15L28 16L29 16L29 17L28 17L28 18L27 18L27 17L26 17L26 18L24 18L24 16L23 16L23 18L24 18L24 22L23 22L23 21L22 21L22 24L23 24L23 25L24 25L24 24L25 24L25 23L26 23L26 24L29 24L29 23L26 23L26 22L25 22L25 19L26 19L26 21L27 21L27 20L28 20L28 21L30 21L30 22L31 22L31 23L30 23L30 24L31 24L31 25L30 25L30 26L29 26L29 29L28 29L28 30L29 30L29 29L30 29L30 27L31 27L31 25L32 25L32 23L33 23L33 22L32 22L32 20L33 20L33 21L34 21L34 22L35 22L35 21L36 21L36 20L38 20L38 18L37 18L37 17L36 17L36 16L35 16L35 17L34 17L34 15L33 15L33 17L34 17L34 19L35 19L35 20L33 20L33 18L32 18L32 14L33 14L33 13L32 13L32 12ZM4 14L4 17L6 17L6 18L5 18L5 22L4 22L4 23L5 23L5 24L9 24L9 25L10 25L10 24L11 24L11 25L12 25L12 27L13 27L13 28L14 28L14 27L13 27L13 25L12 25L12 24L11 24L11 23L13 23L13 22L10 22L10 23L8 23L8 21L9 21L9 19L10 19L10 18L11 18L11 17L10 17L10 16L9 16L9 18L8 18L8 20L7 20L7 19L6 19L6 18L7 18L7 17L8 17L8 16L7 16L7 15L5 15L5 14ZM0 15L0 16L1 16L1 15ZM21 15L21 16L22 16L22 15ZM30 15L30 16L31 16L31 15ZM6 16L6 17L7 17L7 16ZM42 16L42 17L43 17L43 19L42 19L42 21L43 21L43 19L44 19L44 17L45 17L45 16L44 16L44 17L43 17L43 16ZM29 17L29 18L28 18L28 20L30 20L30 21L31 21L31 19L32 19L32 18L31 18L31 19L30 19L30 17ZM26 18L26 19L27 19L27 18ZM35 18L35 19L37 19L37 18ZM39 18L39 19L40 19L40 18ZM6 20L6 21L7 21L7 20ZM39 20L39 21L38 21L38 22L39 22L39 21L40 21L40 20ZM17 21L17 22L18 22L18 21ZM6 22L6 23L7 23L7 22ZM36 22L36 24L34 24L34 26L35 26L35 25L36 25L36 24L37 24L37 22ZM47 22L47 23L48 23L48 22ZM16 23L16 25L17 25L17 23ZM23 23L23 24L24 24L24 23ZM38 23L38 24L39 24L39 23ZM41 24L41 25L42 25L42 24ZM5 25L5 28L8 28L8 25ZM25 25L25 28L28 28L28 25ZM45 25L45 28L48 28L48 25ZM6 26L6 27L7 27L7 26ZM10 26L10 29L8 29L8 30L10 30L10 29L11 29L11 26ZM26 26L26 27L27 27L27 26ZM46 26L46 27L47 27L47 26ZM3 27L3 28L4 28L4 27ZM2 29L2 30L3 30L3 29ZM43 29L43 30L44 30L44 29ZM48 30L48 32L50 32L50 31L51 31L51 30L50 30L50 31L49 31L49 30ZM14 31L14 32L15 32L15 31ZM12 32L12 33L13 33L13 32ZM20 32L20 33L21 33L21 32ZM7 34L7 35L6 35L6 36L7 36L7 37L6 37L6 38L7 38L7 37L8 37L8 38L9 38L9 37L10 37L10 36L9 36L9 34ZM18 34L18 38L19 38L19 34ZM20 34L20 35L21 35L21 34ZM52 34L52 35L53 35L53 34ZM12 36L12 37L13 37L13 36ZM28 36L28 37L27 37L27 38L28 38L28 37L29 37L29 38L30 38L30 39L29 39L29 40L30 40L30 39L32 39L32 37L31 37L31 38L30 38L30 36ZM0 38L0 39L1 39L1 38ZM11 38L11 39L12 39L12 38ZM13 38L13 40L11 40L11 41L13 41L13 43L14 43L14 44L15 44L15 47L16 47L16 44L15 44L15 42L14 42L14 41L15 41L15 40L16 40L16 41L17 41L17 39L15 39L15 38ZM14 39L14 40L15 40L15 39ZM20 39L20 40L21 40L21 39ZM22 39L22 40L23 40L23 41L22 41L22 42L24 42L24 41L25 41L25 39L24 39L24 40L23 40L23 39ZM48 39L48 40L49 40L49 39ZM44 40L44 41L46 41L46 42L47 42L47 40ZM1 41L1 42L2 42L2 43L3 43L3 42L2 42L2 41ZM48 41L48 42L50 42L50 41ZM16 42L16 43L18 43L18 42ZM20 42L20 43L21 43L21 42ZM22 43L22 44L23 44L23 45L24 45L24 44L23 44L23 43ZM47 43L47 44L48 44L48 43ZM12 44L12 45L13 45L13 44ZM19 45L19 46L20 46L20 45ZM25 45L25 48L28 48L28 45ZM40 45L40 47L41 47L41 48L42 48L42 46L41 46L41 45ZM45 45L45 48L48 48L48 45ZM49 45L49 46L50 46L50 45ZM26 46L26 47L27 47L27 46ZM46 46L46 47L47 47L47 46ZM10 48L10 49L11 49L11 51L12 51L12 52L13 52L13 50L15 50L15 49L13 49L13 48L12 48L12 49L11 49L11 48ZM12 49L12 50L13 50L13 49ZM36 49L36 50L37 50L37 49ZM40 49L40 51L41 51L41 49ZM46 49L46 50L47 50L47 51L46 51L46 52L49 52L49 51L48 51L48 49ZM16 50L16 51L17 51L17 50ZM28 52L28 53L30 53L30 52ZM36 52L36 53L38 53L38 52ZM52 52L52 53L53 53L53 52ZM0 0L0 7L7 7L7 0ZM1 1L1 6L6 6L6 1ZM2 2L2 5L5 5L5 2ZM46 0L46 7L53 7L53 0ZM47 1L47 6L52 6L52 1ZM48 2L48 5L51 5L51 2ZM0 46L0 53L7 53L7 46ZM1 47L1 52L6 52L6 47ZM2 48L2 51L5 51L5 48Z" fill="#000000"/></g></g></svg>
