<?xml version="1.0" encoding="UTF-8"?>
<svg xmlns="http://www.w3.org/2000/svg" version="1.1" width="356" height="356" viewBox="0 0 356 356"><rect x="0" y="0" width="356" height="356" fill="#ffffff"/><g transform="scale(6.717)"><g transform="translate(0,0)"><path fill-rule="evenodd" d="M8 0L8 1L9 1L9 5L10 5L10 7L9 7L9 6L8 6L8 8L9 8L9 9L7 9L7 8L6 8L6 9L7 9L7 10L5 10L5 11L4 11L4 12L2 12L2 11L3 11L3 10L4 10L4 9L5 9L5 8L3 8L3 10L2 10L2 8L0 8L0 10L2 10L2 11L0 11L0 12L2 12L2 14L1 14L1 13L0 13L0 14L1 14L1 15L0 15L0 16L1 16L1 15L2 15L2 16L3 16L3 17L5 17L5 18L6 18L6 19L8 19L8 21L7 21L7 20L5 20L5 21L4 21L4 22L3 22L3 21L1 21L1 20L2 20L2 19L0 19L0 21L1 21L1 22L2 22L2 24L1 24L1 23L0 23L0 27L1 27L1 25L2 25L2 26L4 26L4 28L3 28L3 27L2 27L2 29L1 29L1 28L0 28L0 30L1 30L1 31L0 31L0 32L1 32L1 33L0 33L0 34L2 34L2 35L3 35L3 36L0 36L0 39L3 39L3 38L4 38L4 39L7 39L7 38L8 38L8 37L9 37L9 36L10 36L10 38L9 38L9 39L8 39L8 41L9 41L9 42L10 42L10 43L8 43L8 42L6 42L6 41L7 41L7 40L6 40L6 41L5 41L5 40L4 40L4 42L3 42L3 40L2 40L2 42L1 42L1 41L0 41L0 43L1 43L1 44L3 44L3 45L4 45L4 44L3 44L3 43L8 43L8 44L6 44L6 45L8 45L8 46L9 46L9 47L10 47L10 46L11 46L11 44L12 44L12 43L13 43L13 45L14 45L14 46L15 46L15 47L13 47L13 46L12 46L12 47L13 47L13 48L15 48L15 53L17 53L17 52L18 52L18 53L21 53L21 52L23 52L23 51L20 51L20 52L19 52L19 51L17 51L17 52L16 52L16 50L21 50L21 48L20 48L20 49L19 49L19 47L21 47L21 45L19 45L19 44L17 44L17 45L16 45L16 44L14 44L14 43L15 43L15 42L14 42L14 41L15 41L15 40L16 40L16 39L14 39L14 38L16 38L16 35L17 35L17 36L18 36L18 37L19 37L19 40L20 40L20 41L16 41L16 43L18 43L18 42L19 42L19 43L20 43L20 42L21 42L21 43L22 43L22 45L23 45L23 43L24 43L24 46L22 46L22 47L24 47L24 48L23 48L23 50L25 50L25 49L26 49L26 52L24 52L24 53L27 53L27 52L31 52L31 53L33 53L33 51L35 51L35 50L36 50L36 53L37 53L37 51L39 51L39 50L40 50L40 51L41 51L41 53L42 53L42 50L45 50L45 51L43 51L43 52L47 52L47 53L49 53L49 52L51 52L51 49L52 49L52 48L51 48L51 49L50 49L50 50L47 50L47 51L46 51L46 50L45 50L45 49L49 49L49 48L50 48L50 47L49 47L49 45L50 45L50 44L51 44L51 45L52 45L52 44L53 44L53 40L51 40L51 39L49 39L49 38L50 38L50 37L51 37L51 38L52 38L52 39L53 39L53 38L52 38L52 37L51 37L51 36L50 36L50 35L51 35L51 34L50 34L50 33L51 33L51 32L52 32L52 34L53 34L53 32L52 32L52 31L53 31L53 30L52 30L52 29L53 29L53 26L52 26L52 27L49 27L49 25L50 25L50 23L51 23L51 24L52 24L52 25L53 25L53 24L52 24L52 23L51 23L51 22L53 22L53 16L51 16L51 15L50 15L50 14L52 14L52 15L53 15L53 14L52 14L52 13L53 13L53 12L52 12L52 11L51 11L51 10L53 10L53 8L52 8L52 9L49 9L49 10L48 10L48 11L49 11L49 12L47 12L47 11L46 11L46 10L47 10L47 8L46 8L46 9L43 9L43 8L42 8L42 9L41 9L41 8L40 8L40 10L41 10L41 11L40 11L40 13L39 13L39 9L38 9L38 8L39 8L39 6L40 6L40 7L41 7L41 6L42 6L42 7L43 7L43 3L44 3L44 4L45 4L45 3L44 3L44 1L43 1L43 0L41 0L41 2L43 2L43 3L39 3L39 2L40 2L40 1L39 1L39 0L38 0L38 1L39 1L39 2L35 2L35 0L34 0L34 1L33 1L33 0L32 0L32 1L31 1L31 0L30 0L30 2L29 2L29 3L28 3L28 1L27 1L27 0L24 0L24 1L26 1L26 2L27 2L27 3L28 3L28 4L26 4L26 3L25 3L25 4L24 4L24 5L22 5L22 4L23 4L23 3L24 3L24 2L23 2L23 0L18 0L18 1L16 1L16 2L17 2L17 5L18 5L18 4L19 4L19 6L18 6L18 7L19 7L19 9L18 9L18 8L16 8L16 10L17 10L17 11L16 11L16 12L13 12L13 11L12 11L12 9L11 9L11 8L12 8L12 7L13 7L13 5L14 5L14 4L15 4L15 5L16 5L16 3L15 3L15 0L11 0L11 1L9 1L9 0ZM36 0L36 1L37 1L37 0ZM12 1L12 4L10 4L10 5L12 5L12 4L14 4L14 3L13 3L13 1ZM19 1L19 2L18 2L18 3L19 3L19 2L20 2L20 4L21 4L21 2L20 2L20 1ZM32 1L32 2L31 2L31 3L30 3L30 4L29 4L29 5L30 5L30 4L31 4L31 3L32 3L32 2L33 2L33 1ZM22 2L22 3L23 3L23 2ZM34 2L34 3L35 3L35 2ZM37 3L37 4L36 4L36 5L37 5L37 4L39 4L39 5L38 5L38 6L37 6L37 7L38 7L38 6L39 6L39 5L40 5L40 6L41 6L41 5L42 5L42 4L39 4L39 3ZM34 4L34 6L33 6L33 7L32 7L32 5L31 5L31 7L30 7L30 6L29 6L29 7L30 7L30 8L29 8L29 10L28 10L28 9L27 9L27 10L26 10L26 9L24 9L24 8L23 8L23 10L22 10L22 8L21 8L21 7L22 7L22 5L20 5L20 6L19 6L19 7L20 7L20 10L18 10L18 9L17 9L17 10L18 10L18 11L17 11L17 12L16 12L16 14L15 14L15 13L13 13L13 12L12 12L12 11L11 11L11 9L10 9L10 10L9 10L9 11L8 11L8 12L7 12L7 11L5 11L5 12L7 12L7 13L6 13L6 14L7 14L7 15L5 15L5 14L4 14L4 13L3 13L3 14L2 14L2 15L3 15L3 14L4 14L4 16L7 16L7 17L6 17L6 18L8 18L8 19L9 19L9 21L12 21L12 19L13 19L13 20L14 20L14 22L11 22L11 24L9 24L9 25L11 25L11 26L14 26L14 27L13 27L13 28L12 28L12 27L11 27L11 30L7 30L7 29L6 29L6 30L5 30L5 29L2 29L2 30L3 30L3 32L4 32L4 33L6 33L6 34L4 34L4 36L3 36L3 37L1 37L1 38L3 38L3 37L4 37L4 38L7 38L7 37L8 37L8 35L10 35L10 34L11 34L11 31L12 31L12 29L14 29L14 28L16 28L16 26L18 26L18 25L19 25L19 26L21 26L21 27L20 27L20 29L19 29L19 30L21 30L21 32L19 32L19 34L20 34L20 33L21 33L21 35L18 35L18 34L17 34L17 33L18 33L18 32L17 32L17 33L16 33L16 34L17 34L17 35L18 35L18 36L19 36L19 37L21 37L21 38L20 38L20 39L21 39L21 38L23 38L23 40L22 40L22 41L24 41L24 43L25 43L25 44L26 44L26 42L25 42L25 41L26 41L26 40L25 40L25 38L26 38L26 35L29 35L29 37L30 37L30 35L29 35L29 33L31 33L31 34L32 34L32 35L31 35L31 37L32 37L32 38L31 38L31 39L30 39L30 40L29 40L29 41L27 41L27 42L28 42L28 44L29 44L29 45L32 45L32 46L33 46L33 47L32 47L32 48L31 48L31 47L30 47L30 46L29 46L29 48L31 48L31 49L32 49L32 48L34 48L34 50L35 50L35 49L36 49L36 47L37 47L37 50L38 50L38 48L39 48L39 49L40 49L40 50L42 50L42 49L43 49L43 48L41 48L41 47L40 47L40 44L41 44L41 45L42 45L42 44L41 44L41 43L40 43L40 41L41 41L41 42L42 42L42 43L44 43L44 44L45 44L45 43L46 43L46 42L45 42L45 43L44 43L44 42L42 42L42 41L41 41L41 40L43 40L43 41L44 41L44 40L45 40L45 41L47 41L47 42L48 42L48 43L47 43L47 44L50 44L50 43L49 43L49 42L48 42L48 41L47 41L47 39L48 39L48 38L47 38L47 37L46 37L46 36L45 36L45 37L44 37L44 38L45 38L45 37L46 37L46 38L47 38L47 39L46 39L46 40L45 40L45 39L41 39L41 37L42 37L42 36L43 36L43 35L44 35L44 34L45 34L45 35L47 35L47 36L48 36L48 37L49 37L49 35L48 35L48 33L50 33L50 30L51 30L51 31L52 31L52 30L51 30L51 29L50 29L50 28L49 28L49 29L50 29L50 30L49 30L49 31L48 31L48 29L47 29L47 31L46 31L46 29L45 29L45 30L44 30L44 23L45 23L45 22L42 22L42 21L40 21L40 20L38 20L38 19L40 19L40 18L42 18L42 17L43 17L43 15L44 15L44 16L45 16L45 17L44 17L44 18L43 18L43 19L41 19L41 20L44 20L44 18L45 18L45 17L47 17L47 18L46 18L46 19L45 19L45 20L46 20L46 21L47 21L47 22L49 22L49 21L47 21L47 20L48 20L48 19L49 19L49 20L50 20L50 19L51 19L51 20L52 20L52 17L51 17L51 16L50 16L50 15L49 15L49 14L50 14L50 13L49 13L49 14L47 14L47 13L46 13L46 14L44 14L44 13L43 13L43 15L40 15L40 14L39 14L39 17L38 17L38 16L37 16L37 17L38 17L38 19L37 19L37 20L38 20L38 21L40 21L40 23L43 23L43 24L41 24L41 25L40 25L40 24L39 24L39 23L38 23L38 22L37 22L37 26L35 26L35 25L36 25L36 21L35 21L35 23L34 23L34 26L33 26L33 28L35 28L35 27L36 27L36 28L37 28L37 29L38 29L38 30L37 30L37 31L36 31L36 29L35 29L35 31L36 31L36 32L34 32L34 30L33 30L33 29L31 29L31 30L29 30L29 31L28 31L28 33L27 33L27 31L25 31L25 33L24 33L24 32L22 32L22 31L23 31L23 29L24 29L24 30L25 30L25 29L24 29L24 28L21 28L21 27L22 27L22 26L23 26L23 27L24 27L24 24L23 24L23 25L19 25L19 24L20 24L20 23L19 23L19 22L17 22L17 23L14 23L14 22L15 22L15 20L14 20L14 18L15 18L15 15L16 15L16 19L17 19L17 20L16 20L16 21L17 21L17 20L19 20L19 19L20 19L20 18L21 18L21 19L22 19L22 20L20 20L20 21L22 21L22 20L23 20L23 19L26 19L26 16L25 16L25 18L24 18L24 16L23 16L23 14L25 14L25 15L26 15L26 12L27 12L27 16L29 16L29 18L30 18L30 19L29 19L29 20L28 20L28 17L27 17L27 21L26 21L26 20L25 20L25 21L26 21L26 22L24 22L24 21L23 21L23 23L26 23L26 24L28 24L28 23L29 23L29 25L31 25L31 26L30 26L30 27L31 27L31 26L32 26L32 23L33 23L33 22L31 22L31 23L30 23L30 22L29 22L29 21L31 21L31 20L32 20L32 21L34 21L34 19L35 19L35 20L36 20L36 19L35 19L35 18L34 18L34 19L33 19L33 18L32 18L32 17L31 17L31 18L30 18L30 15L31 15L31 16L33 16L33 17L36 17L36 16L35 16L35 15L34 15L34 14L36 14L36 15L38 15L38 14L37 14L37 13L38 13L38 10L37 10L37 9L36 9L36 10L37 10L37 11L35 11L35 10L34 10L34 11L33 11L33 9L35 9L35 8L36 8L36 6L35 6L35 4ZM25 5L25 8L28 8L28 5ZM11 6L11 7L12 7L12 6ZM14 6L14 8L13 8L13 10L14 10L14 11L15 11L15 9L14 9L14 8L15 8L15 6ZM16 6L16 7L17 7L17 6ZM20 6L20 7L21 7L21 6ZM23 6L23 7L24 7L24 6ZM26 6L26 7L27 7L27 6ZM34 6L34 7L35 7L35 6ZM44 6L44 7L45 7L45 6ZM31 7L31 8L32 8L32 7ZM30 9L30 10L31 10L31 12L32 12L32 13L30 13L30 12L29 12L29 11L28 11L28 13L30 13L30 14L28 14L28 15L30 15L30 14L31 14L31 15L32 15L32 13L33 13L33 14L34 14L34 13L37 13L37 12L35 12L35 11L34 11L34 12L32 12L32 9ZM21 10L21 11L18 11L18 13L20 13L20 14L21 14L21 15L22 15L22 14L23 14L23 13L25 13L25 12L26 12L26 11L25 11L25 10L23 10L23 11L24 11L24 12L22 12L22 14L21 14L21 13L20 13L20 12L21 12L21 11L22 11L22 10ZM49 10L49 11L50 11L50 12L51 12L51 11L50 11L50 10ZM41 11L41 13L42 13L42 12L46 12L46 11ZM8 12L8 13L10 13L10 12ZM12 13L12 15L13 15L13 13ZM9 14L9 15L10 15L10 16L11 16L11 18L13 18L13 17L14 17L14 16L13 16L13 17L12 17L12 16L11 16L11 14ZM14 14L14 15L15 15L15 14ZM16 14L16 15L17 15L17 17L18 17L18 18L17 18L17 19L19 19L19 17L21 17L21 18L22 18L22 16L19 16L19 14L18 14L18 15L17 15L17 14ZM46 14L46 15L47 15L47 17L48 17L48 18L47 18L47 19L46 19L46 20L47 20L47 19L48 19L48 18L49 18L49 19L50 19L50 18L49 18L49 16L48 16L48 15L47 15L47 14ZM7 15L7 16L8 16L8 15ZM41 16L41 17L42 17L42 16ZM0 17L0 18L1 18L1 17ZM8 17L8 18L10 18L10 17ZM3 18L3 19L4 19L4 18ZM31 18L31 19L30 19L30 20L31 20L31 19L32 19L32 18ZM10 19L10 20L11 20L11 19ZM6 21L6 22L5 22L5 23L3 23L3 24L8 24L8 23L6 23L6 22L7 22L7 21ZM50 21L50 22L51 22L51 21ZM9 22L9 23L10 23L10 22ZM12 23L12 24L13 24L13 25L14 25L14 26L15 26L15 24L14 24L14 23ZM17 23L17 24L16 24L16 25L17 25L17 24L18 24L18 23ZM46 23L46 24L47 24L47 23ZM5 25L5 28L8 28L8 25ZM25 25L25 28L28 28L28 25ZM38 25L38 26L37 26L37 28L38 28L38 26L39 26L39 27L40 27L40 26L39 26L39 25ZM41 25L41 26L43 26L43 25ZM45 25L45 28L48 28L48 25ZM6 26L6 27L7 27L7 26ZM26 26L26 27L27 27L27 26ZM34 26L34 27L35 27L35 26ZM46 26L46 27L47 27L47 26ZM18 27L18 28L17 28L17 29L18 29L18 28L19 28L19 27ZM42 27L42 30L41 30L41 29L40 29L40 31L39 31L39 32L40 32L40 33L38 33L38 31L37 31L37 32L36 32L36 33L34 33L34 32L33 32L33 31L30 31L30 32L33 32L33 33L32 33L32 34L33 34L33 35L32 35L32 37L33 37L33 38L34 38L34 37L35 37L35 39L36 39L36 41L34 41L34 40L30 40L30 42L29 42L29 43L30 43L30 42L31 42L31 41L32 41L32 44L33 44L33 43L34 43L34 45L33 45L33 46L37 46L37 47L38 47L38 46L39 46L39 45L37 45L37 42L38 42L38 41L37 41L37 38L36 38L36 37L38 37L38 38L39 38L39 39L40 39L40 37L41 37L41 35L43 35L43 34L44 34L44 33L46 33L46 31L45 31L45 32L44 32L44 31L43 31L43 27ZM29 28L29 29L30 29L30 28ZM4 30L4 32L5 32L5 30ZM6 30L6 31L7 31L7 32L6 32L6 33L7 33L7 34L6 34L6 35L8 35L8 34L10 34L10 33L9 33L9 31L7 31L7 30ZM13 30L13 31L14 31L14 32L13 32L13 33L12 33L12 34L13 34L13 35L12 35L12 36L13 36L13 38L14 38L14 36L15 36L15 35L14 35L14 32L16 32L16 30ZM1 31L1 32L2 32L2 31ZM7 32L7 33L8 33L8 32ZM41 32L41 33L42 33L42 32ZM47 32L47 33L48 33L48 32ZM22 33L22 35L21 35L21 36L22 36L22 37L23 37L23 38L25 38L25 37L24 37L24 36L23 36L23 35L25 35L25 34L27 34L27 33L25 33L25 34L23 34L23 33ZM35 34L35 37L36 37L36 34ZM37 34L37 36L38 36L38 37L40 37L40 36L38 36L38 34ZM39 34L39 35L40 35L40 34ZM33 35L33 37L34 37L34 35ZM52 35L52 36L53 36L53 35ZM4 36L4 37L5 37L5 36ZM6 36L6 37L7 37L7 36ZM27 36L27 38L28 38L28 39L29 39L29 38L28 38L28 36ZM11 37L11 38L12 38L12 37ZM17 38L17 39L18 39L18 38ZM9 39L9 40L11 40L11 41L14 41L14 40L13 40L13 39ZM24 40L24 41L25 41L25 40ZM49 40L49 41L50 41L50 42L51 42L51 44L52 44L52 41L50 41L50 40ZM36 41L36 42L34 42L34 43L35 43L35 44L36 44L36 42L37 42L37 41ZM2 42L2 43L3 43L3 42ZM11 42L11 43L12 43L12 42ZM13 42L13 43L14 43L14 42ZM22 42L22 43L23 43L23 42ZM38 43L38 44L40 44L40 43ZM8 44L8 45L9 45L9 46L10 46L10 45L9 45L9 44ZM17 45L17 46L18 46L18 45ZM25 45L25 48L28 48L28 45ZM43 45L43 47L44 47L44 45ZM45 45L45 48L48 48L48 45ZM26 46L26 47L27 47L27 46ZM46 46L46 47L47 47L47 46ZM15 47L15 48L18 48L18 47ZM34 47L34 48L35 48L35 47ZM8 48L8 50L9 50L9 48ZM10 48L10 49L11 49L11 50L10 50L10 51L12 51L12 52L10 52L10 53L12 53L12 52L14 52L14 51L12 51L12 50L13 50L13 49L12 49L12 48ZM40 48L40 49L41 49L41 48ZM27 49L27 50L28 50L28 51L31 51L31 50L29 50L29 49ZM8 51L8 53L9 53L9 51ZM47 51L47 52L48 52L48 51ZM52 51L52 52L53 52L53 51ZM0 0L0 7L7 7L7 0ZM1 1L1 6L6 6L6 1ZM2 2L2 5L5 5L5 2ZM46 0L46 7L53 7L53 0ZM47 1L47 6L52 6L52 1ZM48 2L48 5L51 5L51 2ZM0 46L0 53L7 53L7 46ZM1 47L1 52L6 52L6 47ZM2 48L2 51L5 51L5 48Z" fill="#000000"/></g></g></svg>
