<?xml version="1.0" encoding="UTF-8"?>
<svg xmlns="http://www.w3.org/2000/svg" version="1.1" width="356" height="356" viewBox="0 0 356 356"><rect x="0" y="0" width="356" height="356" fill="#ffffff"/><g transform="scale(6.717)"><g transform="translate(0,0)"><path fill-rule="evenodd" d="M8 0L8 1L9 1L9 0ZM11 0L11 1L10 1L10 2L11 2L11 1L12 1L12 0ZM16 0L16 2L15 2L15 1L13 1L13 2L12 2L12 3L11 3L11 4L9 4L9 2L8 2L8 5L9 5L9 6L8 6L8 7L9 7L9 6L10 6L10 8L8 8L8 9L7 9L7 8L6 8L6 9L7 9L7 10L6 10L6 11L5 11L5 9L4 9L4 8L0 8L0 10L1 10L1 12L0 12L0 13L2 13L2 11L3 11L3 12L4 12L4 11L5 11L5 14L6 14L6 15L7 15L7 16L5 16L5 17L4 17L4 13L3 13L3 15L2 15L2 14L0 14L0 16L1 16L1 15L2 15L2 16L3 16L3 18L0 18L0 19L1 19L1 20L0 20L0 22L1 22L1 23L0 23L0 24L1 24L1 26L0 26L0 27L1 27L1 26L2 26L2 24L1 24L1 23L3 23L3 25L4 25L4 28L3 28L3 30L4 30L4 31L3 31L3 32L2 32L2 34L0 34L0 37L1 37L1 38L2 38L2 37L1 37L1 35L2 35L2 36L3 36L3 35L4 35L4 31L5 31L5 32L6 32L6 33L7 33L7 34L6 34L6 35L5 35L5 38L4 38L4 37L3 37L3 38L4 38L4 39L2 39L2 41L1 41L1 39L0 39L0 43L1 43L1 44L3 44L3 45L4 45L4 44L3 44L3 43L8 43L8 46L9 46L9 47L10 47L10 48L9 48L9 49L8 49L8 53L10 53L10 52L12 52L12 53L13 53L13 51L12 51L12 50L11 50L11 51L10 51L10 50L9 50L9 49L11 49L11 48L12 48L12 47L13 47L13 48L14 48L14 49L15 49L15 50L14 50L14 53L15 53L15 50L17 50L17 49L16 49L16 48L14 48L14 46L15 46L15 45L13 45L13 46L11 46L11 45L10 45L10 46L9 46L9 44L10 44L10 43L8 43L8 42L10 42L10 41L12 41L12 42L11 42L11 44L12 44L12 43L13 43L13 44L15 44L15 43L14 43L14 42L13 42L13 41L12 41L12 39L10 39L10 41L8 41L8 37L7 37L7 36L6 36L6 35L7 35L7 34L9 34L9 35L10 35L10 37L11 37L11 38L12 38L12 37L14 37L14 38L13 38L13 40L14 40L14 41L16 41L16 42L17 42L17 41L16 41L16 40L17 40L17 39L19 39L19 40L18 40L18 41L19 41L19 40L20 40L20 43L17 43L17 45L18 45L18 46L16 46L16 47L17 47L17 48L18 48L18 49L20 49L20 50L21 50L21 49L20 49L20 48L18 48L18 46L19 46L19 47L23 47L23 48L22 48L22 49L23 49L23 48L24 48L24 49L26 49L26 51L25 51L25 52L27 52L27 53L28 53L28 51L27 51L27 49L28 49L28 50L29 50L29 53L30 53L30 52L31 52L31 53L33 53L33 50L34 50L34 53L35 53L35 51L36 51L36 52L37 52L37 53L40 53L40 52L41 52L41 51L40 51L40 52L38 52L38 51L39 51L39 50L40 50L40 49L39 49L39 47L38 47L38 46L36 46L36 48L35 48L35 47L34 47L34 48L33 48L33 49L32 49L32 48L30 48L30 46L31 46L31 47L32 47L32 45L31 45L31 43L32 43L32 44L33 44L33 45L36 45L36 44L37 44L37 43L36 43L36 42L37 42L37 41L36 41L36 42L35 42L35 41L33 41L33 40L35 40L35 39L40 39L40 40L38 40L38 41L40 41L40 40L41 40L41 42L42 42L42 43L41 43L41 44L38 44L38 45L41 45L41 46L40 46L40 47L41 47L41 48L44 48L44 50L46 50L46 51L48 51L48 52L46 52L46 53L48 53L48 52L49 52L49 53L50 53L50 51L48 51L48 50L49 50L49 49L50 49L50 50L51 50L51 53L52 53L52 50L51 50L51 48L52 48L52 49L53 49L53 47L52 47L52 45L50 45L50 46L51 46L51 48L49 48L49 44L51 44L51 43L49 43L49 42L48 42L48 40L50 40L50 41L52 41L52 42L53 42L53 41L52 41L52 39L53 39L53 38L51 38L51 40L50 40L50 39L47 39L47 37L46 37L46 36L49 36L49 37L50 37L50 36L49 36L49 33L48 33L48 32L50 32L50 34L51 34L51 35L52 35L52 37L53 37L53 35L52 35L52 33L53 33L53 32L52 32L52 29L53 29L53 28L52 28L52 29L51 29L51 28L50 28L50 26L51 26L51 27L53 27L53 26L51 26L51 24L53 24L53 23L52 23L52 22L51 22L51 17L49 17L49 19L50 19L50 21L49 21L49 23L51 23L51 24L50 24L50 26L49 26L49 24L46 24L46 22L43 22L43 21L42 21L42 20L44 20L44 21L45 21L45 20L44 20L44 19L46 19L46 20L47 20L47 22L48 22L48 19L47 19L47 18L48 18L48 14L49 14L49 15L50 15L50 14L51 14L51 15L53 15L53 14L52 14L52 10L50 10L50 9L51 9L51 8L48 8L48 9L49 9L49 10L50 10L50 11L51 11L51 12L50 12L50 13L49 13L49 11L48 11L48 12L47 12L47 14L46 14L46 13L43 13L43 15L45 15L45 18L44 18L44 19L43 19L43 18L42 18L42 17L43 17L43 16L41 16L41 14L40 14L40 13L39 13L39 12L41 12L41 13L42 13L42 10L43 10L43 12L44 12L44 10L43 10L43 8L44 8L44 9L46 9L46 8L44 8L44 7L45 7L45 6L44 6L44 7L43 7L43 3L44 3L44 4L45 4L45 3L44 3L44 1L43 1L43 0L39 0L39 1L38 1L38 0L35 0L35 1L33 1L33 2L32 2L32 3L31 3L31 1L32 1L32 0L28 0L28 1L29 1L29 2L27 2L27 1L25 1L25 0L22 0L22 1L19 1L19 0ZM17 1L17 2L16 2L16 3L15 3L15 2L14 2L14 3L12 3L12 5L13 5L13 4L14 4L14 6L13 6L13 7L12 7L12 6L11 6L11 5L10 5L10 6L11 6L11 8L10 8L10 9L11 9L11 10L10 10L10 11L9 11L9 9L8 9L8 10L7 10L7 11L6 11L6 12L7 12L7 13L6 13L6 14L7 14L7 15L8 15L8 16L7 16L7 17L5 17L5 21L4 21L4 22L3 22L3 21L2 21L2 20L1 20L1 21L2 21L2 22L3 22L3 23L4 23L4 22L5 22L5 24L7 24L7 23L6 23L6 22L8 22L8 24L9 24L9 23L10 23L10 26L11 26L11 22L12 22L12 24L13 24L13 25L12 25L12 26L13 26L13 25L15 25L15 26L14 26L14 27L13 27L13 30L11 30L11 33L9 33L9 34L11 34L11 33L12 33L12 34L13 34L13 35L14 35L14 37L15 37L15 35L16 35L16 36L18 36L18 35L19 35L19 34L21 34L21 32L22 32L22 35L20 35L20 36L21 36L21 38L20 38L20 37L19 37L19 38L20 38L20 40L21 40L21 41L23 41L23 46L24 46L24 44L25 44L25 42L24 42L24 40L26 40L26 39L24 39L24 38L23 38L23 37L24 37L24 35L23 35L23 34L27 34L27 35L29 35L29 36L28 36L28 37L27 37L27 36L26 36L26 35L25 35L25 36L26 36L26 37L25 37L25 38L26 38L26 37L27 37L27 41L26 41L26 42L27 42L27 43L28 43L28 44L30 44L30 43L28 43L28 42L29 42L29 41L30 41L30 42L31 42L31 41L30 41L30 40L32 40L32 39L31 39L31 37L33 37L33 38L34 38L34 39L35 39L35 38L37 38L37 37L38 37L38 36L37 36L37 32L36 32L36 31L35 31L35 30L33 30L33 29L31 29L31 28L34 28L34 29L35 29L35 28L34 28L34 27L29 27L29 29L28 29L28 32L22 32L22 29L23 29L23 31L24 31L24 27L23 27L23 28L22 28L22 29L21 29L21 28L20 28L20 30L19 30L19 25L20 25L20 26L21 26L21 27L22 27L22 26L24 26L24 24L28 24L28 23L29 23L29 24L31 24L31 22L30 22L30 23L29 23L29 22L28 22L28 21L30 21L30 20L31 20L31 21L32 21L32 23L34 23L34 24L35 24L35 23L36 23L36 24L38 24L38 25L40 25L40 26L38 26L38 27L39 27L39 28L40 28L40 29L37 29L37 27L36 27L36 26L37 26L37 25L34 25L34 26L35 26L35 27L36 27L36 30L37 30L37 31L38 31L38 30L41 30L41 31L39 31L39 32L41 32L41 31L42 31L42 33L43 33L43 34L42 34L42 35L43 35L43 36L41 36L41 35L40 35L40 34L39 34L39 33L38 33L38 35L39 35L39 37L40 37L40 39L41 39L41 40L42 40L42 42L44 42L44 44L45 44L45 42L44 42L44 40L43 40L43 39L45 39L45 40L46 40L46 41L47 41L47 40L46 40L46 38L45 38L45 37L44 37L44 36L45 36L45 34L46 34L46 35L47 35L47 34L46 34L46 33L45 33L45 34L44 34L44 33L43 33L43 32L45 32L45 31L47 31L47 30L45 30L45 29L44 29L44 30L45 30L45 31L42 31L42 30L43 30L43 28L44 28L44 26L43 26L43 25L44 25L44 24L45 24L45 23L43 23L43 25L41 25L41 24L42 24L42 21L40 21L40 20L39 20L39 19L41 19L41 20L42 20L42 19L41 19L41 16L40 16L40 17L39 17L39 15L38 15L38 17L37 17L37 16L34 16L34 17L35 17L35 20L36 20L36 21L33 21L33 20L31 20L31 19L32 19L32 18L31 18L31 17L30 17L30 16L29 16L29 18L27 18L27 20L25 20L25 19L26 19L26 18L25 18L25 17L26 17L26 16L27 16L27 17L28 17L28 16L27 16L27 15L26 15L26 13L27 13L27 14L29 14L29 11L31 11L31 12L32 12L32 14L31 14L31 13L30 13L30 14L31 14L31 16L32 16L32 15L34 15L34 14L35 14L35 15L36 15L36 14L35 14L35 13L34 13L34 14L33 14L33 12L34 12L34 11L35 11L35 12L36 12L36 11L38 11L38 12L37 12L37 13L38 13L38 12L39 12L39 11L38 11L38 10L40 10L40 11L41 11L41 9L42 9L42 8L43 8L43 7L42 7L42 6L41 6L41 5L40 5L40 4L41 4L41 3L43 3L43 2L42 2L42 1L40 1L40 2L36 2L36 3L37 3L37 4L39 4L39 5L37 5L37 7L36 7L36 5L35 5L35 2L33 2L33 3L32 3L32 4L33 4L33 5L31 5L31 4L30 4L30 2L29 2L29 7L30 7L30 8L29 8L29 9L25 9L25 10L23 10L23 9L24 9L24 4L25 4L25 3L24 3L24 2L25 2L25 1L23 1L23 3L21 3L21 2L20 2L20 3L21 3L21 5L19 5L19 8L20 8L20 9L21 9L21 7L22 7L22 8L23 8L23 9L22 9L22 11L24 11L24 12L26 12L26 13L25 13L25 15L26 15L26 16L21 16L21 17L20 17L20 19L19 19L19 20L18 20L18 21L19 21L19 20L20 20L20 22L21 22L21 23L22 23L22 22L24 22L24 20L25 20L25 21L27 21L27 22L28 22L28 23L24 23L24 24L22 24L22 25L21 25L21 24L18 24L18 22L17 22L17 20L14 20L14 21L15 21L15 23L14 23L14 22L13 22L13 21L12 21L12 20L13 20L13 19L12 19L12 20L11 20L11 18L12 18L12 15L11 15L11 14L10 14L10 13L11 13L11 12L12 12L12 14L13 14L13 16L14 16L14 19L15 19L15 17L16 17L16 18L17 18L17 19L18 19L18 18L19 18L19 16L20 16L20 15L24 15L24 13L23 13L23 12L22 12L22 13L23 13L23 14L17 14L17 13L16 13L16 14L17 14L17 15L19 15L19 16L18 16L18 18L17 18L17 16L16 16L16 15L15 15L15 16L14 16L14 14L15 14L15 12L16 12L16 11L17 11L17 10L18 10L18 9L16 9L16 11L15 11L15 12L14 12L14 10L15 10L15 8L17 8L17 7L18 7L18 6L17 6L17 4L16 4L16 3L17 3L17 2L19 2L19 1ZM26 2L26 3L27 3L27 2ZM40 2L40 3L41 3L41 2ZM25 5L25 8L28 8L28 5ZM33 5L33 6L32 6L32 7L33 7L33 6L34 6L34 7L35 7L35 11L36 11L36 7L35 7L35 6L34 6L34 5ZM14 6L14 7L13 7L13 10L11 10L11 11L12 11L12 12L13 12L13 10L14 10L14 8L15 8L15 6ZM16 6L16 7L17 7L17 6ZM20 6L20 7L21 7L21 6ZM22 6L22 7L23 7L23 6ZM26 6L26 7L27 7L27 6ZM30 6L30 7L31 7L31 6ZM38 6L38 7L37 7L37 10L38 10L38 9L41 9L41 8L42 8L42 7L41 7L41 6L40 6L40 7L41 7L41 8L39 8L39 6ZM30 8L30 9L29 9L29 10L31 10L31 11L32 11L32 10L33 10L33 9L34 9L34 8L33 8L33 9L31 9L31 8ZM52 8L52 9L53 9L53 8ZM1 9L1 10L2 10L2 9ZM3 10L3 11L4 11L4 10ZM19 10L19 11L18 11L18 12L19 12L19 13L20 13L20 11L21 11L21 10ZM25 10L25 11L27 11L27 12L28 12L28 10ZM7 11L7 12L8 12L8 11ZM9 12L9 13L10 13L10 12ZM13 13L13 14L14 14L14 13ZM8 14L8 15L10 15L10 14ZM9 16L9 18L11 18L11 17L10 17L10 16ZM46 16L46 17L47 17L47 16ZM52 16L52 18L53 18L53 16ZM7 17L7 18L6 18L6 19L7 19L7 18L8 18L8 17ZM21 17L21 19L20 19L20 20L21 20L21 21L23 21L23 20L22 20L22 17ZM3 18L3 20L4 20L4 18ZM29 18L29 19L28 19L28 20L27 20L27 21L28 21L28 20L30 20L30 18ZM36 18L36 19L37 19L37 21L36 21L36 22L38 22L38 23L39 23L39 24L40 24L40 23L41 23L41 22L40 22L40 23L39 23L39 22L38 22L38 19L39 19L39 18L38 18L38 19L37 19L37 18ZM52 19L52 21L53 21L53 19ZM6 20L6 21L5 21L5 22L6 22L6 21L7 21L7 20ZM9 20L9 22L11 22L11 21L10 21L10 20ZM16 22L16 23L17 23L17 22ZM34 22L34 23L35 23L35 22ZM17 24L17 26L15 26L15 27L14 27L14 30L13 30L13 31L15 31L15 30L17 30L17 28L18 28L18 24ZM32 24L32 25L33 25L33 24ZM5 25L5 28L8 28L8 25ZM25 25L25 28L28 28L28 25ZM29 25L29 26L31 26L31 25ZM45 25L45 28L48 28L48 25ZM6 26L6 27L7 27L7 26ZM26 26L26 27L27 27L27 26ZM40 26L40 27L41 27L41 26ZM42 26L42 28L43 28L43 26ZM46 26L46 27L47 27L47 26ZM9 27L9 29L8 29L8 30L9 30L9 31L8 31L8 32L7 32L7 31L6 31L6 32L7 32L7 33L8 33L8 32L9 32L9 31L10 31L10 30L9 30L9 29L10 29L10 27ZM16 27L16 28L15 28L15 29L16 29L16 28L17 28L17 27ZM0 28L0 32L1 32L1 28ZM4 29L4 30L7 30L7 29ZM25 29L25 30L26 30L26 31L27 31L27 29ZM29 29L29 32L28 32L28 34L29 34L29 35L30 35L30 36L31 36L31 35L32 35L32 36L35 36L35 37L37 37L37 36L35 36L35 35L36 35L36 33L35 33L35 34L34 34L34 35L32 35L32 34L31 34L31 32L30 32L30 29ZM41 29L41 30L42 30L42 29ZM48 29L48 30L50 30L50 31L51 31L51 29ZM18 30L18 31L19 31L19 30ZM16 31L16 35L17 35L17 34L19 34L19 33L17 33L17 31ZM20 31L20 32L21 32L21 31ZM32 31L32 32L33 32L33 31ZM34 31L34 32L35 32L35 31ZM14 32L14 33L15 33L15 32ZM14 34L14 35L15 35L15 34ZM30 34L30 35L31 35L31 34ZM43 34L43 35L44 35L44 34ZM11 35L11 37L12 37L12 35ZM22 35L22 36L23 36L23 35ZM6 37L6 38L5 38L5 39L4 39L4 41L3 41L3 42L2 42L2 43L3 43L3 42L7 42L7 41L5 41L5 39L6 39L6 40L7 40L7 39L6 39L6 38L7 38L7 37ZM16 37L16 39L15 39L15 38L14 38L14 40L16 40L16 39L17 39L17 37ZM22 38L22 39L23 39L23 38ZM42 38L42 39L43 39L43 38ZM29 39L29 40L28 40L28 41L27 41L27 42L28 42L28 41L29 41L29 40L30 40L30 39ZM21 42L21 43L20 43L20 44L18 44L18 45L20 45L20 46L22 46L22 42ZM32 42L32 43L33 43L33 44L35 44L35 43L33 43L33 42ZM39 42L39 43L40 43L40 42ZM46 42L46 43L48 43L48 42ZM52 43L52 44L53 44L53 43ZM6 44L6 45L7 45L7 44ZM41 44L41 45L42 45L42 44ZM25 45L25 48L28 48L28 45ZM45 45L45 48L48 48L48 45ZM10 46L10 47L11 47L11 46ZM26 46L26 47L27 47L27 46ZM46 46L46 47L47 47L47 46ZM37 47L37 48L38 48L38 47ZM29 49L29 50L30 50L30 51L31 51L31 52L32 52L32 51L31 51L31 50L32 50L32 49ZM34 49L34 50L36 50L36 51L37 51L37 49ZM46 49L46 50L47 50L47 49ZM18 50L18 51L16 51L16 53L17 53L17 52L19 52L19 53L22 53L22 51L23 51L23 50L22 50L22 51L21 51L21 52L19 52L19 50ZM42 50L42 53L43 53L43 50ZM44 52L44 53L45 53L45 52ZM0 0L0 7L7 7L7 0ZM1 1L1 6L6 6L6 1ZM2 2L2 5L5 5L5 2ZM46 0L46 7L53 7L53 0ZM47 1L47 6L52 6L52 1ZM48 2L48 5L51 5L51 2ZM0 46L0 53L7 53L7 46ZM1 47L1 52L6 52L6 47ZM2 48L2 51L5 51L5 48Z" fill="#000000"/></g></g></svg>
