<?xml version="1.0" encoding="UTF-8"?>
<svg xmlns="http://www.w3.org/2000/svg" version="1.1" width="356" height="356" viewBox="0 0 356 356"><rect x="0" y="0" width="356" height="356" fill="#ffffff"/><g transform="scale(6.717)"><g transform="translate(0,0)"><path fill-rule="evenodd" d="M8 0L8 2L9 2L9 1L10 1L10 3L9 3L9 4L8 4L8 9L7 9L7 8L5 8L5 10L6 10L6 11L5 11L5 12L6 12L6 13L9 13L9 12L10 12L10 11L11 11L11 10L13 10L13 12L12 12L12 17L11 17L11 16L9 16L9 15L7 15L7 14L5 14L5 13L4 13L4 12L3 12L3 11L4 11L4 10L3 10L3 8L0 8L0 14L1 14L1 17L0 17L0 18L1 18L1 19L0 19L0 21L1 21L1 19L2 19L2 18L4 18L4 17L5 17L5 18L6 18L6 19L5 19L5 20L6 20L6 21L7 21L7 20L9 20L9 22L10 22L10 21L11 21L11 20L12 20L12 22L13 22L13 23L12 23L12 24L13 24L13 26L11 26L11 25L10 25L10 23L9 23L9 24L5 24L5 23L7 23L7 22L5 22L5 21L4 21L4 19L3 19L3 21L2 21L2 22L1 22L1 24L0 24L0 25L3 25L3 26L0 26L0 28L1 28L1 29L0 29L0 34L1 34L1 29L5 29L5 30L4 30L4 31L2 31L2 33L3 33L3 36L6 36L6 37L5 37L5 39L4 39L4 40L2 40L2 41L1 41L1 40L0 40L0 43L1 43L1 44L3 44L3 45L4 45L4 44L3 44L3 43L7 43L7 42L6 42L6 41L7 41L7 40L8 40L8 41L9 41L9 40L10 40L10 42L11 42L11 41L12 41L12 44L11 44L11 43L9 43L9 44L10 44L10 46L9 46L9 45L8 45L8 44L6 44L6 45L8 45L8 46L9 46L9 47L8 47L8 48L9 48L9 47L10 47L10 46L11 46L11 48L10 48L10 49L9 49L9 50L8 50L8 53L10 53L10 52L9 52L9 51L10 51L10 49L13 49L13 51L12 51L12 50L11 50L11 51L12 51L12 52L11 52L11 53L12 53L12 52L14 52L14 51L15 51L15 53L16 53L16 52L18 52L18 53L19 53L19 52L18 52L18 49L19 49L19 48L18 48L18 47L19 47L19 46L20 46L20 47L21 47L21 46L20 46L20 45L21 45L21 43L20 43L20 42L22 42L22 41L23 41L23 43L22 43L22 46L23 46L23 47L22 47L22 48L23 48L23 51L22 51L22 50L20 50L20 51L21 51L21 52L20 52L20 53L21 53L21 52L22 52L22 53L23 53L23 51L24 51L24 53L27 53L27 52L28 52L28 53L30 53L30 52L32 52L32 53L33 53L33 52L32 52L32 50L30 50L30 49L31 49L31 48L32 48L32 49L33 49L33 51L34 51L34 53L35 53L35 52L36 52L36 53L37 53L37 52L38 52L38 49L37 49L37 48L38 48L38 47L37 47L37 48L36 48L36 49L35 49L35 50L34 50L34 48L32 48L32 47L33 47L33 46L34 46L34 47L36 47L36 46L38 46L38 45L39 45L39 43L40 43L40 41L41 41L41 42L42 42L42 43L43 43L43 45L44 45L44 47L43 47L43 46L42 46L42 44L40 44L40 45L41 45L41 46L39 46L39 48L40 48L40 50L39 50L39 53L41 53L41 50L42 50L42 49L43 49L43 50L44 50L44 51L45 51L45 53L50 53L50 49L49 49L49 48L50 48L50 46L51 46L51 45L52 45L52 48L51 48L51 49L52 49L52 48L53 48L53 45L52 45L52 44L53 44L53 42L52 42L52 44L50 44L50 42L49 42L49 43L48 43L48 44L47 44L47 42L48 42L48 41L52 41L52 40L53 40L53 38L52 38L52 37L50 37L50 39L49 39L49 38L48 38L48 36L49 36L49 35L48 35L48 32L50 32L50 31L51 31L51 30L50 30L50 29L52 29L52 33L53 33L53 29L52 29L52 27L53 27L53 26L52 26L52 27L51 27L51 25L52 25L52 24L51 24L51 25L50 25L50 23L51 23L51 21L53 21L53 18L52 18L52 20L51 20L51 21L49 21L49 20L50 20L50 19L51 19L51 18L50 18L50 16L49 16L49 15L51 15L51 16L53 16L53 14L52 14L52 15L51 15L51 14L50 14L50 13L53 13L53 10L52 10L52 9L53 9L53 8L51 8L51 10L50 10L50 9L49 9L49 8L45 8L45 6L44 6L44 9L43 9L43 10L44 10L44 9L45 9L45 11L42 11L42 9L41 9L41 8L42 8L42 7L43 7L43 3L44 3L44 4L45 4L45 3L44 3L44 1L43 1L43 0L41 0L41 2L40 2L40 3L39 3L39 1L40 1L40 0L36 0L36 3L35 3L35 0L34 0L34 1L33 1L33 0L32 0L32 2L34 2L34 7L35 7L35 6L36 6L36 7L37 7L37 8L36 8L36 9L35 9L35 10L34 10L34 9L33 9L33 6L32 6L32 9L31 9L31 10L30 10L30 8L31 8L31 6L30 6L30 8L29 8L29 4L28 4L28 1L27 1L27 0L24 0L24 1L23 1L23 0L18 0L18 1L16 1L16 2L18 2L18 1L19 1L19 4L20 4L20 5L18 5L18 3L15 3L15 5L16 5L16 7L17 7L17 6L18 6L18 8L19 8L19 12L18 12L18 10L16 10L16 11L17 11L17 12L18 12L18 14L16 14L16 12L14 12L14 9L15 9L15 8L14 8L14 7L15 7L15 6L14 6L14 7L13 7L13 6L12 6L12 5L13 5L13 4L11 4L11 2L12 2L12 1L10 1L10 0ZM13 0L13 1L15 1L15 0ZM30 0L30 1L29 1L29 3L30 3L30 1L31 1L31 0ZM20 1L20 2L22 2L22 1ZM24 1L24 2L23 2L23 3L22 3L22 4L23 4L23 5L20 5L20 6L19 6L19 8L20 8L20 6L21 6L21 7L22 7L22 6L23 6L23 7L24 7L24 4L25 4L25 1ZM26 1L26 2L27 2L27 1ZM13 2L13 3L14 3L14 2ZM37 2L37 3L36 3L36 4L37 4L37 5L36 5L36 6L37 6L37 7L38 7L38 8L37 8L37 9L38 9L38 11L35 11L35 13L34 13L34 12L33 12L33 10L31 10L31 11L32 11L32 12L31 12L31 13L30 13L30 12L29 12L29 13L28 13L28 12L27 12L27 11L28 11L28 10L29 10L29 11L30 11L30 10L29 10L29 9L28 9L28 10L27 10L27 9L24 9L24 10L26 10L26 12L25 12L25 11L24 11L24 13L23 13L23 14L22 14L22 15L21 15L21 16L22 16L22 15L24 15L24 16L23 16L23 17L24 17L24 21L22 21L22 19L23 19L23 18L22 18L22 19L20 19L20 18L21 18L21 17L20 17L20 14L21 14L21 13L22 13L22 12L23 12L23 11L22 11L22 12L20 12L20 14L19 14L19 15L18 15L18 16L19 16L19 17L18 17L18 18L19 18L19 20L21 20L21 21L20 21L20 22L19 22L19 21L18 21L18 19L17 19L17 18L16 18L16 19L17 19L17 20L16 20L16 23L14 23L14 24L15 24L15 25L14 25L14 26L15 26L15 28L16 28L16 30L13 30L13 28L14 28L14 27L13 27L13 28L12 28L12 27L11 27L11 26L10 26L10 28L9 28L9 29L11 29L11 30L8 30L8 29L6 29L6 30L7 30L7 31L5 31L5 33L6 33L6 34L7 34L7 35L6 35L6 36L7 36L7 37L6 37L6 38L7 38L7 37L8 37L8 36L9 36L9 39L8 39L8 40L9 40L9 39L10 39L10 40L12 40L12 39L13 39L13 37L14 37L14 38L15 38L15 39L14 39L14 40L15 40L15 41L14 41L14 42L15 42L15 44L16 44L16 47L15 47L15 45L14 45L14 48L13 48L13 47L12 47L12 48L13 48L13 49L14 49L14 50L15 50L15 49L14 49L14 48L16 48L16 47L17 47L17 46L19 46L19 45L20 45L20 44L19 44L19 45L18 45L18 43L19 43L19 40L18 40L18 39L19 39L19 38L24 38L24 35L26 35L26 36L25 36L25 39L24 39L24 40L23 40L23 39L22 39L22 40L23 40L23 41L24 41L24 40L25 40L25 41L26 41L26 38L27 38L27 37L26 37L26 36L27 36L27 35L28 35L28 41L27 41L27 43L26 43L26 42L24 42L24 43L23 43L23 44L25 44L25 43L26 43L26 44L29 44L29 45L30 45L30 46L29 46L29 49L30 49L30 48L31 48L31 47L32 47L32 46L31 46L31 45L32 45L32 44L33 44L33 45L34 45L34 46L36 46L36 42L37 42L37 45L38 45L38 43L39 43L39 41L40 41L40 39L44 39L44 37L45 37L45 38L47 38L47 37L46 37L46 36L48 36L48 35L46 35L46 33L47 33L47 32L48 32L48 30L49 30L49 31L50 31L50 30L49 30L49 29L50 29L50 28L51 28L51 27L50 27L50 28L49 28L49 29L48 29L48 30L47 30L47 32L46 32L46 29L45 29L45 30L44 30L44 31L42 31L42 32L41 32L41 31L40 31L40 30L41 30L41 29L42 29L42 30L43 30L43 29L42 29L42 28L44 28L44 26L43 26L43 25L44 25L44 24L46 24L46 23L47 23L47 24L49 24L49 23L50 23L50 22L48 22L48 20L49 20L49 19L50 19L50 18L49 18L49 17L48 17L48 19L47 19L47 17L46 17L46 14L47 14L47 13L48 13L48 15L49 15L49 13L50 13L50 12L51 12L51 11L52 11L52 10L51 10L51 11L50 11L50 12L49 12L49 13L48 13L48 12L47 12L47 13L46 13L46 11L45 11L45 13L44 13L44 12L42 12L42 11L40 11L40 10L41 10L41 9L38 9L38 8L39 8L39 7L40 7L40 4L41 4L41 5L42 5L42 4L41 4L41 3L40 3L40 4L39 4L39 3L38 3L38 2ZM42 2L42 3L43 3L43 2ZM31 3L31 4L30 4L30 5L31 5L31 4L32 4L32 5L33 5L33 4L32 4L32 3ZM9 4L9 7L10 7L10 6L11 6L11 8L13 8L13 7L12 7L12 6L11 6L11 4ZM38 4L38 7L39 7L39 4ZM25 5L25 8L28 8L28 5ZM26 6L26 7L27 7L27 6ZM41 6L41 7L42 7L42 6ZM16 8L16 9L17 9L17 8ZM21 8L21 10L20 10L20 11L21 11L21 10L23 10L23 9L22 9L22 8ZM6 9L6 10L7 10L7 11L6 11L6 12L9 12L9 11L8 11L8 10L9 10L9 9L8 9L8 10L7 10L7 9ZM46 9L46 10L47 10L47 11L48 11L48 9ZM1 10L1 11L2 11L2 10ZM39 11L39 12L40 12L40 14L39 14L39 15L38 15L38 16L36 16L36 14L37 14L37 12L36 12L36 14L34 14L34 13L33 13L33 12L32 12L32 14L30 14L30 13L29 13L29 14L28 14L28 15L27 15L27 16L26 16L26 15L25 15L25 13L24 13L24 15L25 15L25 17L27 17L27 18L28 18L28 20L30 20L30 19L32 19L32 22L30 22L30 21L27 21L27 20L26 20L26 19L25 19L25 21L24 21L24 22L25 22L25 24L24 24L24 23L23 23L23 24L22 24L22 21L21 21L21 22L20 22L20 24L19 24L19 23L18 23L18 24L19 24L19 26L18 26L18 27L17 27L17 26L16 26L16 27L17 27L17 28L18 28L18 29L19 29L19 28L21 28L21 27L22 27L22 30L23 30L23 31L22 31L22 32L23 32L23 35L24 35L24 34L26 34L26 33L28 33L28 35L29 35L29 34L30 34L30 35L31 35L31 34L30 34L30 33L31 33L31 32L30 32L30 31L29 31L29 30L27 30L27 29L29 29L29 28L30 28L30 29L31 29L31 28L32 28L32 30L31 30L31 31L32 31L32 30L34 30L34 32L32 32L32 33L33 33L33 35L32 35L32 38L30 38L30 37L29 37L29 41L31 41L31 40L30 40L30 39L32 39L32 43L29 43L29 44L30 44L30 45L31 45L31 44L32 44L32 43L34 43L34 44L35 44L35 43L34 43L34 41L35 41L35 42L36 42L36 41L37 41L37 42L38 42L38 41L37 41L37 40L36 40L36 41L35 41L35 39L34 39L34 36L35 36L35 35L34 35L34 32L35 32L35 34L36 34L36 35L38 35L38 36L36 36L36 37L35 37L35 38L36 38L36 37L37 37L37 39L39 39L39 38L40 38L40 37L41 37L41 36L42 36L42 37L44 37L44 36L45 36L45 35L44 35L44 36L43 36L43 35L42 35L42 33L43 33L43 34L44 34L44 33L46 33L46 32L45 32L45 31L44 31L44 32L42 32L42 33L41 33L41 32L40 32L40 31L38 31L38 32L40 32L40 33L41 33L41 36L40 36L40 37L39 37L39 38L38 38L38 36L39 36L39 35L38 35L38 33L37 33L37 31L35 31L35 30L36 30L36 29L37 29L37 30L38 30L38 29L39 29L39 27L38 27L38 25L39 25L39 24L40 24L40 29L41 29L41 28L42 28L42 25L41 25L41 20L42 20L42 19L44 19L44 17L45 17L45 19L46 19L46 21L45 21L45 22L44 22L44 23L46 23L46 21L47 21L47 19L46 19L46 17L45 17L45 16L42 16L42 12L40 12L40 11ZM2 12L2 13L1 13L1 14L2 14L2 13L3 13L3 12ZM26 12L26 13L27 13L27 12ZM43 13L43 15L45 15L45 14L46 14L46 13L45 13L45 14L44 14L44 13ZM4 14L4 15L3 15L3 16L4 16L4 15L5 15L5 16L7 16L7 15L5 15L5 14ZM10 14L10 15L11 15L11 14ZM13 14L13 18L12 18L12 19L14 19L14 20L15 20L15 19L14 19L14 18L15 18L15 16L14 16L14 15L16 15L16 14ZM29 14L29 15L28 15L28 16L29 16L29 17L28 17L28 18L29 18L29 17L30 17L30 18L32 18L32 19L33 19L33 18L32 18L32 15L33 15L33 17L34 17L34 19L35 19L35 18L37 18L37 19L36 19L36 20L33 20L33 21L34 21L34 22L36 22L36 24L34 24L34 26L33 26L33 25L32 25L32 23L33 23L33 22L32 22L32 23L31 23L31 24L30 24L30 26L29 26L29 27L31 27L31 25L32 25L32 28L33 28L33 27L34 27L34 28L35 28L35 29L34 29L34 30L35 30L35 29L36 29L36 28L35 28L35 27L34 27L34 26L35 26L35 25L36 25L36 27L37 27L37 25L38 25L38 24L39 24L39 23L40 23L40 22L39 22L39 19L38 19L38 18L40 18L40 19L41 19L41 17L40 17L40 15L39 15L39 16L38 16L38 18L37 18L37 17L36 17L36 16L35 16L35 17L34 17L34 15L33 15L33 14L32 14L32 15L30 15L30 14ZM29 15L29 16L30 16L30 17L31 17L31 16L30 16L30 15ZM8 16L8 18L7 18L7 17L6 17L6 18L7 18L7 19L6 19L6 20L7 20L7 19L9 19L9 16ZM1 17L1 18L2 18L2 17ZM10 17L10 18L11 18L11 17ZM42 17L42 18L43 18L43 17ZM36 20L36 21L37 21L37 24L36 24L36 25L37 25L37 24L38 24L38 23L39 23L39 22L38 22L38 21L37 21L37 20ZM3 21L3 23L2 23L2 24L3 24L3 25L4 25L4 24L3 24L3 23L5 23L5 22L4 22L4 21ZM17 21L17 22L18 22L18 21ZM26 22L26 24L27 24L27 22ZM47 22L47 23L48 23L48 22ZM52 22L52 23L53 23L53 22ZM16 23L16 25L17 25L17 23ZM28 23L28 24L29 24L29 23ZM23 24L23 25L21 25L21 26L20 26L20 27L21 27L21 26L22 26L22 27L23 27L23 30L24 30L24 31L26 31L26 29L25 29L25 30L24 30L24 26L23 26L23 25L24 25L24 24ZM5 25L5 28L8 28L8 25ZM25 25L25 28L28 28L28 25ZM45 25L45 28L48 28L48 25ZM49 25L49 26L50 26L50 25ZM3 26L3 27L2 27L2 28L4 28L4 26ZM6 26L6 27L7 27L7 26ZM26 26L26 27L27 27L27 26ZM46 26L46 27L47 27L47 26ZM37 28L37 29L38 29L38 28ZM12 30L12 31L11 31L11 32L9 32L9 33L8 33L8 34L9 34L9 36L10 36L10 37L11 37L11 38L10 38L10 39L11 39L11 38L12 38L12 37L13 37L13 36L10 36L10 35L12 35L12 34L13 34L13 35L15 35L15 36L14 36L14 37L15 37L15 38L16 38L16 36L17 36L17 35L16 35L16 34L18 34L18 38L19 38L19 34L18 34L18 33L19 33L19 32L18 32L18 31L21 31L21 30L16 30L16 32L15 32L15 31L14 31L14 32L15 32L15 34L13 34L13 33L12 33L12 34L11 34L11 32L13 32L13 30ZM28 31L28 32L29 32L29 33L30 33L30 32L29 32L29 31ZM6 32L6 33L7 33L7 32ZM20 32L20 33L21 33L21 32ZM25 32L25 33L26 33L26 32ZM36 33L36 34L37 34L37 33ZM50 33L50 35L51 35L51 33ZM4 34L4 35L5 35L5 34ZM20 34L20 35L21 35L21 34ZM52 34L52 35L53 35L53 34ZM0 35L0 39L3 39L3 38L4 38L4 37L2 37L2 35ZM7 35L7 36L8 36L8 35ZM33 35L33 36L34 36L34 35ZM22 36L22 37L23 37L23 36ZM51 38L51 39L50 39L50 40L52 40L52 38ZM5 39L5 41L6 41L6 40L7 40L7 39ZM15 39L15 40L16 40L16 41L17 41L17 39ZM20 39L20 40L21 40L21 39ZM33 39L33 40L34 40L34 39ZM48 39L48 40L47 40L47 41L48 41L48 40L49 40L49 39ZM42 40L42 42L43 42L43 43L44 43L44 42L45 42L45 44L46 44L46 41L44 41L44 42L43 42L43 40ZM2 42L2 43L3 43L3 42ZM16 42L16 43L18 43L18 42ZM13 43L13 44L12 44L12 46L13 46L13 44L14 44L14 43ZM25 45L25 48L28 48L28 45ZM45 45L45 48L48 48L48 45ZM49 45L49 46L50 46L50 45ZM26 46L26 47L27 47L27 46ZM41 46L41 47L40 47L40 48L41 48L41 49L42 49L42 48L43 48L43 49L44 49L44 50L45 50L45 49L44 49L44 48L43 48L43 47L42 47L42 46ZM46 46L46 47L47 47L47 46ZM41 47L41 48L42 48L42 47ZM20 48L20 49L21 49L21 48ZM24 49L24 50L25 50L25 52L26 52L26 51L27 51L27 50L28 50L28 52L30 52L30 51L29 51L29 50L28 50L28 49ZM46 49L46 52L49 52L49 51L48 51L48 49ZM16 50L16 51L17 51L17 50ZM36 51L36 52L37 52L37 51ZM42 52L42 53L43 53L43 52ZM52 52L52 53L53 53L53 52ZM0 0L0 7L7 7L7 0ZM1 1L1 6L6 6L6 1ZM2 2L2 5L5 5L5 2ZM46 0L46 7L53 7L53 0ZM47 1L47 6L52 6L52 1ZM48 2L48 5L51 5L51 2ZM0 46L0 53L7 53L7 46ZM1 47L1 52L6 52L6 47ZM2 48L2 51L5 51L5 48Z" fill="#000000"/></g></g></svg>
