<?xml version="1.0" encoding="UTF-8"?>
<svg xmlns="http://www.w3.org/2000/svg" version="1.1" width="356" height="356" viewBox="0 0 356 356"><rect x="0" y="0" width="356" height="356" fill="#ffffff"/><g transform="scale(6.717)"><g transform="translate(0,0)"><path fill-rule="evenodd" d="M9 0L9 1L8 1L8 2L10 2L10 1L11 1L11 0ZM16 0L16 1L15 1L15 2L16 2L16 4L13 4L13 5L12 5L12 3L14 3L14 2L13 2L13 1L12 1L12 2L11 2L11 3L8 3L8 4L11 4L11 5L10 5L10 7L11 7L11 6L12 6L12 7L13 7L13 8L14 8L14 7L15 7L15 8L16 8L16 7L17 7L17 6L18 6L18 7L19 7L19 6L20 6L20 8L21 8L21 6L22 6L22 7L23 7L23 5L24 5L24 9L23 9L23 10L24 10L24 11L23 11L23 12L24 12L24 14L23 14L23 13L22 13L22 14L21 14L21 15L20 15L20 13L21 13L21 10L22 10L22 9L18 9L18 8L17 8L17 9L18 9L18 10L20 10L20 11L17 11L17 12L16 12L16 11L14 11L14 9L13 9L13 12L12 12L12 13L11 13L11 12L10 12L10 11L11 11L11 8L6 8L6 9L5 9L5 8L0 8L0 10L2 10L2 11L1 11L1 12L2 12L2 13L0 13L0 15L1 15L1 16L0 16L0 17L2 17L2 18L3 18L3 19L1 19L1 18L0 18L0 19L1 19L1 20L0 20L0 22L1 22L1 25L0 25L0 26L1 26L1 27L0 27L0 29L1 29L1 30L2 30L2 31L0 31L0 35L2 35L2 36L1 36L1 37L0 37L0 41L2 41L2 42L0 42L0 43L1 43L1 44L3 44L3 45L4 45L4 44L3 44L3 43L7 43L7 42L5 42L5 41L8 41L8 40L9 40L9 39L7 39L7 38L9 38L9 37L8 37L8 36L9 36L9 35L10 35L10 32L11 32L11 35L12 35L12 36L13 36L13 37L14 37L14 36L13 36L13 34L12 34L12 32L13 32L13 33L16 33L16 34L15 34L15 35L16 35L16 36L15 36L15 37L21 37L21 38L20 38L20 40L21 40L21 41L18 41L18 40L17 40L17 39L18 39L18 38L16 38L16 40L17 40L17 41L18 41L18 42L20 42L20 43L19 43L19 44L16 44L16 43L15 43L15 45L14 45L14 44L13 44L13 43L12 43L12 42L14 42L14 41L12 41L12 42L10 42L10 43L9 43L9 42L8 42L8 43L9 43L9 44L10 44L10 45L12 45L12 44L13 44L13 47L14 47L14 46L15 46L15 48L12 48L12 46L11 46L11 48L8 48L8 53L9 53L9 51L10 51L10 52L11 52L11 53L13 53L13 52L15 52L15 53L20 53L20 52L19 52L19 51L20 51L20 50L19 50L19 49L20 49L20 48L22 48L22 49L21 49L21 51L22 51L22 52L23 52L23 53L27 53L27 52L26 52L26 51L27 51L27 50L29 50L29 52L30 52L30 53L32 53L32 52L31 52L31 49L32 49L32 46L33 46L33 49L35 49L35 51L34 51L34 50L32 50L32 51L34 51L34 52L35 52L35 53L38 53L38 52L41 52L41 51L42 51L42 50L43 50L43 52L42 52L42 53L43 53L43 52L44 52L44 53L45 53L45 52L44 52L44 49L49 49L49 50L45 50L45 51L48 51L48 53L51 53L51 52L52 52L52 51L53 51L53 50L52 50L52 49L53 49L53 47L51 47L51 46L53 46L53 43L51 43L51 45L50 45L50 42L52 42L52 41L53 41L53 39L51 39L51 41L49 41L49 40L50 40L50 38L53 38L53 36L52 36L52 35L51 35L51 36L50 36L50 34L52 34L52 33L51 33L51 32L50 32L50 27L49 27L49 24L50 24L50 26L52 26L52 25L51 25L51 24L50 24L50 22L52 22L52 20L53 20L53 19L51 19L51 20L50 20L50 18L49 18L49 16L48 16L48 14L50 14L50 11L51 11L51 10L50 10L50 8L49 8L49 10L47 10L47 12L46 12L46 10L44 10L44 8L45 8L45 9L46 9L46 8L45 8L45 6L44 6L44 8L43 8L43 3L44 3L44 4L45 4L45 3L44 3L44 1L43 1L43 0L42 0L42 1L41 1L41 0L40 0L40 1L41 1L41 2L43 2L43 3L41 3L41 4L39 4L39 3L40 3L40 2L39 2L39 1L38 1L38 0L35 0L35 1L34 1L34 2L33 2L33 1L32 1L32 0L28 0L28 1L30 1L30 3L28 3L28 2L27 2L27 3L26 3L26 2L25 2L25 3L24 3L24 2L23 2L23 1L27 1L27 0L21 0L21 3L18 3L18 2L20 2L20 1L19 1L19 0ZM31 1L31 2L32 2L32 1ZM35 1L35 2L34 2L34 3L30 3L30 4L32 4L32 5L31 5L31 7L30 7L30 6L29 6L29 7L30 7L30 8L29 8L29 9L31 9L31 8L32 8L32 9L33 9L33 10L34 10L34 11L36 11L36 10L37 10L37 11L38 11L38 14L41 14L41 11L43 11L43 12L42 12L42 13L43 13L43 12L44 12L44 18L47 18L47 20L48 20L48 19L49 19L49 18L47 18L47 17L48 17L48 16L45 16L45 15L47 15L47 13L48 13L48 12L49 12L49 11L48 11L48 12L47 12L47 13L45 13L45 12L44 12L44 10L40 10L40 12L39 12L39 11L38 11L38 10L39 10L39 9L43 9L43 8L41 8L41 7L42 7L42 6L41 6L41 7L40 7L40 5L39 5L39 4L38 4L38 5L37 5L37 7L38 7L38 8L37 8L37 9L36 9L36 10L35 10L35 9L34 9L34 8L36 8L36 6L35 6L35 7L34 7L34 5L36 5L36 4L35 4L35 3L36 3L36 2L38 2L38 3L39 3L39 2L38 2L38 1ZM22 2L22 3L21 3L21 4L20 4L20 6L21 6L21 5L23 5L23 2ZM25 3L25 4L26 4L26 3ZM16 4L16 5L18 5L18 6L19 6L19 4ZM41 4L41 5L42 5L42 4ZM8 5L8 7L9 7L9 5ZM13 5L13 7L14 7L14 6L15 6L15 7L16 7L16 6L15 6L15 5ZM25 5L25 8L28 8L28 5ZM26 6L26 7L27 7L27 6ZM32 6L32 8L34 8L34 7L33 7L33 6ZM38 6L38 7L39 7L39 6ZM47 8L47 9L48 9L48 8ZM51 8L51 9L52 9L52 8ZM6 9L6 10L3 10L3 11L2 11L2 12L4 12L4 14L1 14L1 15L2 15L2 16L3 16L3 15L4 15L4 16L5 16L5 18L7 18L7 19L3 19L3 21L2 21L2 23L3 23L3 21L4 21L4 22L5 22L5 23L4 23L4 24L5 24L5 23L6 23L6 24L9 24L9 25L10 25L10 26L11 26L11 25L10 25L10 24L9 24L9 22L10 22L10 21L11 21L11 24L12 24L12 21L11 21L11 20L12 20L12 19L13 19L13 18L14 18L14 20L13 20L13 21L15 21L15 22L13 22L13 23L14 23L14 24L13 24L13 25L14 25L14 26L12 26L12 27L11 27L11 28L10 28L10 30L9 30L9 29L6 29L6 30L5 30L5 29L4 29L4 28L3 28L3 30L4 30L4 31L3 31L3 33L4 33L4 35L3 35L3 36L2 36L2 37L3 37L3 38L1 38L1 40L2 40L2 41L3 41L3 40L4 40L4 38L7 38L7 37L5 37L5 36L8 36L8 35L6 35L6 34L7 34L7 33L9 33L9 32L10 32L10 30L12 30L12 31L13 31L13 32L14 32L14 31L13 31L13 29L15 29L15 31L18 31L18 29L15 29L15 28L14 28L14 27L16 27L16 28L17 28L17 26L18 26L18 25L21 25L21 24L22 24L22 26L21 26L21 28L22 28L22 29L19 29L19 32L20 32L20 33L19 33L19 34L20 34L20 35L17 35L17 36L21 36L21 37L24 37L24 38L22 38L22 39L21 39L21 40L22 40L22 41L21 41L21 42L22 42L22 43L21 43L21 44L22 44L22 45L20 45L20 46L19 46L19 48L20 48L20 46L21 46L21 47L22 47L22 45L23 45L23 47L24 47L24 44L26 44L26 43L24 43L24 42L25 42L25 41L23 41L23 40L25 40L25 38L26 38L26 41L28 41L28 43L27 43L27 44L29 44L29 45L31 45L31 43L30 43L30 44L29 44L29 40L32 40L32 41L31 41L31 42L32 42L32 45L33 45L33 46L34 46L34 48L36 48L36 47L37 47L37 49L38 49L38 51L39 51L39 50L40 50L40 51L41 51L41 49L43 49L43 48L44 48L44 47L43 47L43 46L44 46L44 43L40 43L40 42L39 42L39 41L43 41L43 42L45 42L45 44L46 44L46 43L47 43L47 44L48 44L48 42L47 42L47 41L48 41L48 40L47 40L47 39L48 39L48 38L45 38L45 41L44 41L44 34L43 34L43 35L42 35L42 34L41 34L41 29L44 29L44 27L41 27L41 26L39 26L39 25L42 25L42 23L43 23L43 24L46 24L46 23L45 23L45 22L47 22L47 21L43 21L43 19L41 19L41 20L38 20L38 19L39 19L39 17L42 17L42 16L37 16L37 17L38 17L38 19L37 19L37 21L34 21L34 19L33 19L33 20L32 20L32 17L33 17L33 18L35 18L35 19L36 19L36 17L35 17L35 16L32 16L32 13L33 13L33 14L34 14L34 15L37 15L37 14L35 14L35 13L33 13L33 11L29 11L29 10L27 10L27 9L25 9L25 11L26 11L26 13L31 13L31 15L30 15L30 14L25 14L25 15L26 15L26 16L25 16L25 17L26 17L26 20L24 20L24 19L25 19L25 18L24 18L24 16L22 16L22 17L21 17L21 16L20 16L20 15L19 15L19 16L20 16L20 17L19 17L19 18L20 18L20 19L18 19L18 18L17 18L17 20L19 20L19 21L20 21L20 23L19 23L19 22L18 22L18 23L17 23L17 24L15 24L15 22L17 22L17 21L15 21L15 20L16 20L16 19L15 19L15 18L16 18L16 17L18 17L18 16L16 16L16 15L18 15L18 14L19 14L19 13L20 13L20 12L19 12L19 13L15 13L15 12L13 12L13 13L15 13L15 16L16 16L16 17L13 17L13 16L14 16L14 15L13 15L13 14L7 14L7 13L9 13L9 12L8 12L8 10L7 10L7 9ZM9 9L9 10L10 10L10 9ZM15 9L15 10L16 10L16 9ZM37 9L37 10L38 10L38 9ZM6 10L6 11L5 11L5 12L6 12L6 13L5 13L5 14L4 14L4 15L5 15L5 16L6 16L6 17L7 17L7 18L8 18L8 20L6 20L6 21L5 21L5 22L6 22L6 23L8 23L8 22L9 22L9 21L10 21L10 20L11 20L11 19L12 19L12 17L11 17L11 15L10 15L10 16L8 16L8 15L7 15L7 14L6 14L6 13L7 13L7 12L6 12L6 11L7 11L7 10ZM27 11L27 12L28 12L28 11ZM52 11L52 12L51 12L51 13L52 13L52 12L53 12L53 11ZM31 12L31 13L32 13L32 12ZM5 14L5 15L6 15L6 16L7 16L7 17L8 17L8 16L7 16L7 15L6 15L6 14ZM27 15L27 16L29 16L29 15ZM52 15L52 17L51 17L51 16L50 16L50 17L51 17L51 18L52 18L52 17L53 17L53 15ZM30 16L30 17L29 17L29 18L31 18L31 17L32 17L32 16ZM22 17L22 18L23 18L23 19L22 19L22 20L23 20L23 21L24 21L24 20L23 20L23 19L24 19L24 18L23 18L23 17ZM27 17L27 18L28 18L28 17ZM9 18L9 20L8 20L8 21L6 21L6 22L8 22L8 21L9 21L9 20L10 20L10 19L11 19L11 18ZM27 19L27 20L28 20L28 21L29 21L29 22L31 22L31 21L32 21L32 24L31 24L31 23L28 23L28 24L26 24L26 22L27 22L27 21L25 21L25 22L22 22L22 21L21 21L21 23L20 23L20 24L21 24L21 23L23 23L23 24L24 24L24 25L23 25L23 26L22 26L22 27L23 27L23 26L24 26L24 29L22 29L22 31L21 31L21 32L22 32L22 33L21 33L21 36L22 36L22 33L24 33L24 32L25 32L25 33L26 33L26 30L27 30L27 31L28 31L28 29L29 29L29 32L30 32L30 33L29 33L29 35L31 35L31 36L33 36L33 37L36 37L36 38L33 38L33 39L32 39L32 37L29 37L29 36L28 36L28 39L27 39L27 40L28 40L28 39L29 39L29 38L30 38L30 39L32 39L32 40L33 40L33 41L32 41L32 42L33 42L33 43L34 43L34 44L33 44L33 45L34 45L34 44L35 44L35 47L36 47L36 45L37 45L37 46L38 46L38 48L40 48L40 47L41 47L41 46L43 46L43 45L41 45L41 46L40 46L40 47L39 47L39 46L38 46L38 45L37 45L37 44L40 44L40 43L39 43L39 42L38 42L38 41L39 41L39 40L43 40L43 39L41 39L41 38L43 38L43 36L41 36L41 38L40 38L40 39L39 39L39 38L38 38L38 37L37 37L37 36L38 36L38 35L37 35L37 34L38 34L38 33L39 33L39 34L40 34L40 35L39 35L39 36L40 36L40 35L41 35L41 34L40 34L40 33L39 33L39 32L40 32L40 31L38 31L38 29L39 29L39 30L40 30L40 29L39 29L39 28L41 28L41 27L39 27L39 26L38 26L38 25L39 25L39 24L40 24L40 23L41 23L41 22L43 22L43 23L44 23L44 22L43 22L43 21L41 21L41 22L40 22L40 21L39 21L39 24L38 24L38 23L37 23L37 22L38 22L38 21L37 21L37 22L36 22L36 23L34 23L34 22L33 22L33 21L32 21L32 20L31 20L31 19ZM44 19L44 20L45 20L45 19ZM29 20L29 21L30 21L30 20ZM48 21L48 22L49 22L49 21ZM33 23L33 24L32 24L32 26L30 26L30 25L31 25L31 24L30 24L30 25L29 25L29 26L30 26L30 27L29 27L29 28L30 28L30 29L31 29L31 30L30 30L30 31L31 31L31 32L32 32L32 33L31 33L31 34L35 34L35 35L33 35L33 36L35 36L35 35L36 35L36 34L37 34L37 33L36 33L36 32L38 32L38 31L37 31L37 30L35 30L35 29L36 29L36 28L37 28L37 29L38 29L38 28L37 28L37 27L38 27L38 26L35 26L35 25L33 25L33 24L34 24L34 23ZM47 23L47 24L48 24L48 23ZM52 23L52 24L53 24L53 23ZM2 24L2 25L1 25L1 26L2 26L2 27L4 27L4 26L2 26L2 25L3 25L3 24ZM17 24L17 25L18 25L18 24ZM5 25L5 28L8 28L8 25ZM15 25L15 26L16 26L16 25ZM25 25L25 28L28 28L28 25ZM43 25L43 26L44 26L44 25ZM45 25L45 28L48 28L48 25ZM6 26L6 27L7 27L7 26ZM19 26L19 27L18 27L18 28L19 28L19 27L20 27L20 26ZM26 26L26 27L27 27L27 26ZM32 26L32 27L31 27L31 29L32 29L32 30L33 30L33 33L35 33L35 34L36 34L36 33L35 33L35 32L36 32L36 31L34 31L34 30L33 30L33 29L34 29L34 28L33 28L33 29L32 29L32 27L33 27L33 26ZM46 26L46 27L47 27L47 26ZM12 27L12 28L13 28L13 27ZM35 27L35 28L36 28L36 27ZM1 28L1 29L2 29L2 28ZM51 28L51 29L52 29L52 30L53 30L53 28ZM24 29L24 30L23 30L23 31L24 31L24 30L25 30L25 29ZM46 29L46 30L45 30L45 31L46 31L46 32L45 32L45 35L46 35L46 36L45 36L45 37L46 37L46 36L47 36L47 37L49 37L49 38L50 38L50 36L49 36L49 35L48 35L48 36L47 36L47 33L46 33L46 32L49 32L49 31L47 31L47 29ZM6 30L6 31L4 31L4 32L6 32L6 33L5 33L5 34L6 34L6 33L7 33L7 32L6 32L6 31L8 31L8 32L9 32L9 31L8 31L8 30ZM43 30L43 32L42 32L42 33L44 33L44 30ZM52 31L52 32L53 32L53 31ZM1 32L1 33L2 33L2 32ZM16 32L16 33L18 33L18 32ZM27 32L27 34L26 34L26 36L24 36L24 37L26 37L26 36L27 36L27 34L28 34L28 32ZM49 33L49 34L50 34L50 33ZM4 35L4 36L3 36L3 37L4 37L4 36L5 36L5 35ZM51 36L51 37L52 37L52 36ZM10 37L10 38L11 38L11 37ZM37 38L37 39L35 39L35 40L34 40L34 41L33 41L33 42L35 42L35 40L37 40L37 41L36 41L36 42L37 42L37 43L38 43L38 42L37 42L37 41L38 41L38 40L37 40L37 39L38 39L38 38ZM5 39L5 40L7 40L7 39ZM10 39L10 41L11 41L11 40L12 40L12 39ZM13 39L13 40L14 40L14 39ZM46 40L46 41L47 41L47 40ZM15 41L15 42L16 42L16 41ZM2 42L2 43L3 43L3 42ZM10 43L10 44L11 44L11 43ZM22 43L22 44L24 44L24 43ZM35 43L35 44L36 44L36 43ZM6 44L6 45L7 45L7 44ZM8 45L8 47L10 47L10 46L9 46L9 45ZM15 45L15 46L17 46L17 47L18 47L18 45ZM25 45L25 48L28 48L28 45ZM45 45L45 48L48 48L48 45ZM49 45L49 47L50 47L50 48L51 48L51 49L50 49L50 51L49 51L49 52L51 52L51 51L52 51L52 50L51 50L51 49L52 49L52 48L51 48L51 47L50 47L50 45ZM26 46L26 47L27 47L27 46ZM29 46L29 47L30 47L30 46ZM46 46L46 47L47 47L47 46ZM42 47L42 48L43 48L43 47ZM11 48L11 49L9 49L9 50L10 50L10 51L11 51L11 50L12 50L12 48ZM16 48L16 49L15 49L15 50L14 50L14 49L13 49L13 50L14 50L14 51L15 51L15 52L16 52L16 51L15 51L15 50L16 50L16 49L18 49L18 48ZM23 48L23 49L22 49L22 51L23 51L23 49L24 49L24 48ZM26 49L26 50L24 50L24 51L26 51L26 50L27 50L27 49ZM17 50L17 51L19 51L19 50ZM35 51L35 52L36 52L36 51ZM0 0L0 7L7 7L7 0ZM1 1L1 6L6 6L6 1ZM2 2L2 5L5 5L5 2ZM46 0L46 7L53 7L53 0ZM47 1L47 6L52 6L52 1ZM48 2L48 5L51 5L51 2ZM0 46L0 53L7 53L7 46ZM1 47L1 52L6 52L6 47ZM2 48L2 51L5 51L5 48Z" fill="#000000"/></g></g></svg>
