<?xml version="1.0" encoding="UTF-8"?>
<svg xmlns="http://www.w3.org/2000/svg" version="1.1" width="356" height="356" viewBox="0 0 356 356"><rect x="0" y="0" width="356" height="356" fill="#ffffff"/><g transform="scale(6.717)"><g transform="translate(0,0)"><path fill-rule="evenodd" d="M8 0L8 2L9 2L9 4L8 4L8 9L9 9L9 10L8 10L8 11L7 11L7 10L6 10L6 9L7 9L7 8L5 8L5 9L3 9L3 8L0 8L0 9L3 9L3 10L5 10L5 12L4 12L4 11L2 11L2 10L1 10L1 13L0 13L0 14L1 14L1 15L2 15L2 17L1 17L1 18L0 18L0 19L1 19L1 21L0 21L0 23L1 23L1 24L0 24L0 27L1 27L1 28L0 28L0 29L1 29L1 28L3 28L3 27L4 27L4 29L3 29L3 30L2 30L2 31L1 31L1 30L0 30L0 31L1 31L1 32L0 32L0 33L1 33L1 32L2 32L2 34L1 34L1 36L0 36L0 38L3 38L3 39L0 39L0 40L1 40L1 41L0 41L0 43L1 43L1 44L3 44L3 45L4 45L4 44L3 44L3 43L7 43L7 44L6 44L6 45L8 45L8 46L9 46L9 47L8 47L8 48L10 48L10 46L9 46L9 45L11 45L11 44L9 44L9 41L10 41L10 43L12 43L12 45L14 45L14 46L13 46L13 48L12 48L12 50L11 50L11 49L9 49L9 50L8 50L8 53L13 53L13 52L15 52L15 53L16 53L16 52L18 52L18 53L20 53L20 52L18 52L18 49L19 49L19 48L20 48L20 49L21 49L21 48L20 48L20 47L21 47L21 46L23 46L23 47L22 47L22 48L23 48L23 49L24 49L24 50L20 50L20 51L22 51L22 53L23 53L23 52L24 52L24 53L27 53L27 52L28 52L28 53L29 53L29 52L30 52L30 51L29 51L29 50L30 50L30 49L29 49L29 46L30 46L30 47L31 47L31 48L32 48L32 49L33 49L33 51L32 51L32 50L31 50L31 52L32 52L32 53L34 53L34 52L35 52L35 51L36 51L36 49L37 49L37 50L38 50L38 51L40 51L40 53L44 53L44 52L43 52L43 50L44 50L44 51L45 51L45 53L50 53L50 51L51 51L51 49L49 49L49 48L50 48L50 46L52 46L52 48L53 48L53 46L52 46L52 44L53 44L53 42L52 42L52 44L51 44L51 45L50 45L50 42L51 42L51 40L52 40L52 41L53 41L53 38L52 38L52 39L51 39L51 37L50 37L50 35L51 35L51 33L49 33L49 32L50 32L50 31L51 31L51 32L52 32L52 33L53 33L53 32L52 32L52 31L53 31L53 29L52 29L52 27L53 27L53 26L52 26L52 27L51 27L51 25L53 25L53 22L52 22L52 21L53 21L53 18L52 18L52 20L51 20L51 21L50 21L50 18L49 18L49 20L48 20L48 21L49 21L49 22L48 22L48 23L49 23L49 24L47 24L47 22L46 22L46 21L47 21L47 19L48 19L48 17L50 17L50 16L49 16L49 15L51 15L51 14L52 14L52 16L51 16L51 17L52 17L52 16L53 16L53 14L52 14L52 13L53 13L53 10L52 10L52 9L53 9L53 8L51 8L51 10L52 10L52 11L51 11L51 12L50 12L50 11L49 11L49 10L50 10L50 9L49 9L49 8L45 8L45 6L44 6L44 7L43 7L43 3L44 3L44 4L45 4L45 3L44 3L44 1L43 1L43 0L40 0L40 1L41 1L41 4L40 4L40 2L39 2L39 4L38 4L38 3L37 3L37 2L38 2L38 1L39 1L39 0L38 0L38 1L37 1L37 0L36 0L36 2L35 2L35 0L34 0L34 1L33 1L33 0L32 0L32 2L35 2L35 3L34 3L34 7L35 7L35 6L36 6L36 7L37 7L37 6L38 6L38 7L39 7L39 10L38 10L38 8L36 8L36 9L35 9L35 10L34 10L34 9L33 9L33 6L32 6L32 5L33 5L33 4L32 4L32 3L31 3L31 4L30 4L30 2L29 2L29 4L28 4L28 0L26 0L26 1L25 1L25 0L24 0L24 1L23 1L23 4L22 4L22 3L21 3L21 2L22 2L22 0L18 0L18 1L16 1L16 2L18 2L18 1L19 1L19 4L20 4L20 5L18 5L18 3L15 3L15 0L13 0L13 1L14 1L14 2L13 2L13 3L15 3L15 5L16 5L16 7L17 7L17 6L18 6L18 8L19 8L19 12L18 12L18 10L16 10L16 11L17 11L17 12L18 12L18 14L16 14L16 12L15 12L15 10L14 10L14 9L15 9L15 8L14 8L14 7L15 7L15 6L14 6L14 7L13 7L13 6L12 6L12 8L13 8L13 10L12 10L12 9L11 9L11 5L13 5L13 4L12 4L12 2L11 2L11 4L10 4L10 1L12 1L12 0ZM30 0L30 1L31 1L31 0ZM20 1L20 2L21 2L21 1ZM24 1L24 4L23 4L23 7L22 7L22 4L21 4L21 5L20 5L20 6L19 6L19 8L20 8L20 6L21 6L21 7L22 7L22 8L21 8L21 10L20 10L20 11L21 11L21 12L20 12L20 14L19 14L19 15L18 15L18 16L19 16L19 17L18 17L18 18L19 18L19 20L21 20L21 21L20 21L20 22L19 22L19 21L18 21L18 19L17 19L17 18L16 18L16 19L17 19L17 20L16 20L16 23L14 23L14 24L15 24L15 25L14 25L14 26L15 26L15 28L16 28L16 30L13 30L13 29L12 29L12 28L14 28L14 27L10 27L10 26L11 26L11 25L12 25L12 26L13 26L13 25L12 25L12 23L13 23L13 22L12 22L12 21L13 21L13 19L14 19L14 20L15 20L15 19L14 19L14 18L15 18L15 16L14 16L14 15L16 15L16 14L13 14L13 13L12 13L12 12L11 12L11 9L10 9L10 8L9 8L9 9L10 9L10 10L9 10L9 12L8 12L8 14L7 14L7 13L6 13L6 12L7 12L7 11L6 11L6 12L5 12L5 14L4 14L4 13L3 13L3 12L2 12L2 13L3 13L3 14L4 14L4 15L3 15L3 17L2 17L2 19L4 19L4 21L3 21L3 22L2 22L2 23L4 23L4 22L5 22L5 23L6 23L6 24L7 24L7 23L8 23L8 22L7 22L7 21L6 21L6 22L5 22L5 20L7 20L7 19L8 19L8 20L9 20L9 19L10 19L10 18L11 18L11 19L12 19L12 20L11 20L11 21L10 21L10 22L9 22L9 23L10 23L10 22L11 22L11 25L10 25L10 24L9 24L9 25L10 25L10 26L9 26L9 27L10 27L10 28L9 28L9 30L8 30L8 29L6 29L6 30L5 30L5 29L4 29L4 30L3 30L3 31L4 31L4 32L3 32L3 33L5 33L5 34L4 34L4 35L2 35L2 36L1 36L1 37L2 37L2 36L7 36L7 37L6 37L6 38L8 38L8 39L6 39L6 40L7 40L7 41L5 41L5 42L7 42L7 41L8 41L8 39L9 39L9 40L10 40L10 41L11 41L11 40L10 40L10 39L9 39L9 38L8 38L8 36L7 36L7 35L8 35L8 34L9 34L9 35L10 35L10 33L11 33L11 34L12 34L12 35L11 35L11 36L9 36L9 37L12 37L12 38L15 38L15 39L14 39L14 40L15 40L15 41L14 41L14 42L13 42L13 41L12 41L12 43L13 43L13 44L16 44L16 47L14 47L14 48L13 48L13 49L14 49L14 51L15 51L15 49L14 49L14 48L16 48L16 47L17 47L17 46L19 46L19 45L20 45L20 46L21 46L21 45L22 45L22 44L23 44L23 41L26 41L26 39L27 39L27 37L26 37L26 35L27 35L27 34L28 34L28 42L27 42L27 43L26 43L26 42L24 42L24 44L25 44L25 43L26 43L26 44L29 44L29 45L30 45L30 46L32 46L32 48L34 48L34 50L35 50L35 49L36 49L36 48L37 48L37 49L38 49L38 50L41 50L41 52L42 52L42 50L43 50L43 49L44 49L44 50L46 50L46 52L49 52L49 51L48 51L48 49L44 49L44 48L43 48L43 49L42 49L42 50L41 50L41 49L40 49L40 48L41 48L41 46L40 46L40 44L42 44L42 47L44 47L44 46L43 46L43 44L44 44L44 42L45 42L45 43L46 43L46 42L47 42L47 43L48 43L48 42L50 42L50 41L48 41L48 42L47 42L47 41L46 41L46 42L45 42L45 40L44 40L44 41L42 41L42 40L43 40L43 39L44 39L44 38L45 38L45 39L46 39L46 38L47 38L47 35L46 35L46 34L45 34L45 35L46 35L46 36L45 36L45 37L43 37L43 36L42 36L42 34L43 34L43 35L44 35L44 33L46 33L46 32L47 32L47 33L48 33L48 35L50 35L50 34L49 34L49 33L48 33L48 30L49 30L49 31L50 31L50 30L51 30L51 29L50 29L50 30L49 30L49 29L48 29L48 30L47 30L47 31L46 31L46 29L42 29L42 30L41 30L41 31L40 31L40 30L39 30L39 29L40 29L40 28L41 28L41 27L42 27L42 26L43 26L43 28L44 28L44 26L43 26L43 25L44 25L44 22L45 22L45 24L46 24L46 22L45 22L45 21L46 21L46 19L47 19L47 17L46 17L46 14L47 14L47 13L48 13L48 14L49 14L49 13L50 13L50 14L51 14L51 13L50 13L50 12L49 12L49 13L48 13L48 12L46 12L46 11L45 11L45 12L46 12L46 14L45 14L45 13L44 13L44 14L43 14L43 10L45 10L45 8L43 8L43 7L42 7L42 5L41 5L41 8L42 8L42 12L41 12L41 11L38 11L38 12L37 12L37 11L36 11L36 12L34 12L34 11L33 11L33 10L31 10L31 9L32 9L32 6L31 6L31 5L32 5L32 4L31 4L31 5L30 5L30 4L29 4L29 5L30 5L30 6L29 6L29 7L30 7L30 6L31 6L31 8L30 8L30 10L31 10L31 13L30 13L30 11L28 11L28 9L27 9L27 10L25 10L25 9L24 9L24 8L23 8L23 7L24 7L24 4L25 4L25 1ZM42 2L42 3L43 3L43 2ZM36 3L36 4L37 4L37 5L36 5L36 6L37 6L37 5L38 5L38 6L39 6L39 7L40 7L40 6L39 6L39 5L40 5L40 4L39 4L39 5L38 5L38 4L37 4L37 3ZM25 5L25 8L28 8L28 5ZM9 6L9 7L10 7L10 6ZM26 6L26 7L27 7L27 6ZM16 8L16 9L17 9L17 8ZM22 8L22 9L23 9L23 8ZM40 9L40 10L41 10L41 9ZM46 9L46 10L47 10L47 11L48 11L48 9ZM13 10L13 12L14 12L14 10ZM21 10L21 11L22 11L22 13L23 13L23 14L24 14L24 15L22 15L22 14L20 14L20 17L21 17L21 18L20 18L20 19L21 19L21 20L22 20L22 22L20 22L20 24L19 24L19 23L18 23L18 24L19 24L19 26L18 26L18 27L17 27L17 26L16 26L16 27L17 27L17 28L18 28L18 29L19 29L19 28L21 28L21 27L22 27L22 29L23 29L23 28L24 28L24 30L23 30L23 31L22 31L22 32L23 32L23 31L24 31L24 32L26 32L26 33L25 33L25 35L26 35L26 33L28 33L28 34L30 34L30 35L29 35L29 38L30 38L30 39L29 39L29 43L30 43L30 45L31 45L31 44L32 44L32 46L33 46L33 47L35 47L35 48L36 48L36 47L35 47L35 46L34 46L34 44L35 44L35 43L34 43L34 41L35 41L35 42L36 42L36 46L37 46L37 43L38 43L38 40L39 40L39 39L40 39L40 38L41 38L41 40L40 40L40 42L39 42L39 44L38 44L38 45L39 45L39 44L40 44L40 42L41 42L41 43L42 43L42 44L43 44L43 43L42 43L42 41L41 41L41 40L42 40L42 36L40 36L40 35L41 35L41 34L42 34L42 31L43 31L43 30L42 30L42 31L41 31L41 32L40 32L40 31L39 31L39 30L38 30L38 29L39 29L39 26L40 26L40 27L41 27L41 26L42 26L42 20L43 20L43 19L46 19L46 17L45 17L45 16L43 16L43 19L42 19L42 20L41 20L41 18L42 18L42 17L41 17L41 15L40 15L40 14L39 14L39 15L40 15L40 17L39 17L39 19L40 19L40 23L39 23L39 22L38 22L38 21L39 21L39 20L38 20L38 17L37 17L37 16L36 16L36 13L37 13L37 12L36 12L36 13L35 13L35 14L34 14L34 12L32 12L32 13L31 13L31 14L32 14L32 18L30 18L30 13L29 13L29 12L28 12L28 13L29 13L29 14L28 14L28 16L26 16L26 15L27 15L27 14L26 14L26 15L25 15L25 14L24 14L24 13L26 13L26 11L25 11L25 10L24 10L24 11L22 11L22 10ZM24 11L24 12L23 12L23 13L24 13L24 12L25 12L25 11ZM9 12L9 14L12 14L12 15L10 15L10 16L9 16L9 17L7 17L7 16L8 16L8 15L7 15L7 14L6 14L6 15L4 15L4 16L5 16L5 17L4 17L4 18L5 18L5 17L7 17L7 18L6 18L6 19L7 19L7 18L9 18L9 17L11 17L11 18L13 18L13 16L12 16L12 15L13 15L13 14L12 14L12 13L10 13L10 12ZM38 12L38 13L39 13L39 12ZM40 12L40 13L41 13L41 14L42 14L42 15L43 15L43 14L42 14L42 13L41 13L41 12ZM6 15L6 16L7 16L7 15ZM21 15L21 16L22 16L22 15ZM24 15L24 16L23 16L23 18L21 18L21 19L23 19L23 22L22 22L22 24L23 24L23 25L21 25L21 26L20 26L20 27L21 27L21 26L24 26L24 24L25 24L25 23L26 23L26 24L28 24L28 22L27 22L27 23L26 23L26 22L24 22L24 20L25 20L25 18L26 18L26 21L30 21L30 22L32 22L32 23L31 23L31 24L30 24L30 26L29 26L29 27L30 27L30 28L29 28L29 29L27 29L27 30L24 30L24 31L26 31L26 32L27 32L27 30L29 30L29 31L28 31L28 32L30 32L30 34L31 34L31 35L30 35L30 36L31 36L31 37L30 37L30 38L31 38L31 39L30 39L30 40L31 40L31 41L30 41L30 42L31 42L31 43L32 43L32 44L34 44L34 43L32 43L32 38L33 38L33 37L32 37L32 36L31 36L31 35L33 35L33 36L34 36L34 39L33 39L33 40L34 40L34 39L35 39L35 41L36 41L36 39L37 39L37 40L38 40L38 39L37 39L37 37L36 37L36 36L37 36L37 35L38 35L38 36L39 36L39 37L38 37L38 38L40 38L40 36L39 36L39 35L40 35L40 34L41 34L41 33L40 33L40 32L39 32L39 31L38 31L38 30L37 30L37 29L38 29L38 28L37 28L37 29L36 29L36 31L38 31L38 34L37 34L37 35L35 35L35 32L34 32L34 30L35 30L35 29L34 29L34 30L33 30L33 31L32 31L32 30L31 30L31 29L32 29L32 28L33 28L33 27L34 27L34 28L35 28L35 27L34 27L34 26L35 26L35 25L36 25L36 27L37 27L37 25L36 25L36 24L37 24L37 23L36 23L36 24L34 24L34 26L33 26L33 25L32 25L32 23L34 23L34 22L36 22L36 20L37 20L37 21L38 21L38 20L37 20L37 19L36 19L36 20L33 20L33 18L32 18L32 19L31 19L31 21L30 21L30 20L29 20L29 19L28 19L28 18L29 18L29 16L28 16L28 18L27 18L27 17L25 17L25 15ZM33 15L33 17L34 17L34 19L35 19L35 18L37 18L37 17L36 17L36 16L35 16L35 17L34 17L34 15ZM11 16L11 17L12 17L12 16ZM40 17L40 18L41 18L41 17ZM44 17L44 18L45 18L45 17ZM27 19L27 20L28 20L28 19ZM32 20L32 22L34 22L34 21L33 21L33 20ZM17 21L17 22L18 22L18 21ZM6 22L6 23L7 23L7 22ZM49 22L49 23L50 23L50 25L51 25L51 24L52 24L52 22L51 22L51 23L50 23L50 22ZM16 23L16 25L17 25L17 23ZM38 23L38 24L39 24L39 23ZM2 24L2 25L4 25L4 24ZM5 25L5 28L8 28L8 25ZM25 25L25 28L28 28L28 25ZM31 25L31 28L30 28L30 29L31 29L31 28L32 28L32 25ZM38 25L38 26L39 26L39 25ZM40 25L40 26L41 26L41 25ZM45 25L45 28L48 28L48 25ZM6 26L6 27L7 27L7 26ZM26 26L26 27L27 27L27 26ZM46 26L46 27L47 27L47 26ZM49 26L49 27L50 27L50 28L51 28L51 27L50 27L50 26ZM4 30L4 31L5 31L5 32L6 32L6 33L7 33L7 34L5 34L5 35L7 35L7 34L8 34L8 33L7 33L7 32L6 32L6 31L7 31L7 30L6 30L6 31L5 31L5 30ZM9 30L9 31L10 31L10 32L11 32L11 33L12 33L12 31L13 31L13 30L12 30L12 31L11 31L11 30ZM16 30L16 32L15 32L15 31L14 31L14 32L15 32L15 34L13 34L13 35L12 35L12 37L13 37L13 35L15 35L15 36L14 36L14 37L15 37L15 38L16 38L16 36L17 36L17 35L16 35L16 34L18 34L18 38L19 38L19 39L18 39L18 40L19 40L19 43L18 43L18 42L16 42L16 43L18 43L18 45L19 45L19 44L22 44L22 41L23 41L23 40L22 40L22 39L24 39L24 40L25 40L25 39L26 39L26 37L25 37L25 36L24 36L24 37L23 37L23 36L22 36L22 35L24 35L24 33L23 33L23 34L22 34L22 35L21 35L21 34L20 34L20 35L21 35L21 36L22 36L22 37L21 37L21 39L20 39L20 38L19 38L19 34L18 34L18 33L19 33L19 32L18 32L18 31L21 31L21 30ZM44 30L44 32L43 32L43 33L44 33L44 32L45 32L45 30ZM30 31L30 32L31 32L31 31ZM20 32L20 33L21 33L21 32ZM32 32L32 33L33 33L33 35L34 35L34 36L35 36L35 35L34 35L34 32ZM38 34L38 35L39 35L39 34ZM52 34L52 35L53 35L53 34ZM48 36L48 38L49 38L49 39L48 39L48 40L49 40L49 39L50 39L50 40L51 40L51 39L50 39L50 37L49 37L49 36ZM3 37L3 38L5 38L5 37ZM22 37L22 38L23 38L23 37ZM31 37L31 38L32 38L32 37ZM35 37L35 38L36 38L36 37ZM45 37L45 38L46 38L46 37ZM24 38L24 39L25 39L25 38ZM3 39L3 40L2 40L2 41L1 41L1 42L2 42L2 43L3 43L3 42L4 42L4 40L5 40L5 39ZM12 39L12 40L13 40L13 39ZM15 39L15 40L16 40L16 41L17 41L17 39ZM19 39L19 40L20 40L20 39ZM2 41L2 42L3 42L3 41ZM14 42L14 43L15 43L15 42ZM20 42L20 43L21 43L21 42ZM23 45L23 46L24 46L24 45ZM25 45L25 48L28 48L28 45ZM45 45L45 48L48 48L48 45ZM49 45L49 46L50 46L50 45ZM26 46L26 47L27 47L27 46ZM39 46L39 48L38 48L38 49L39 49L39 48L40 48L40 46ZM46 46L46 47L47 47L47 46ZM18 47L18 48L19 48L19 47ZM26 49L26 50L24 50L24 52L27 52L27 51L28 51L28 52L29 52L29 51L28 51L28 50L29 50L29 49ZM9 50L9 51L10 51L10 52L13 52L13 50L12 50L12 51L10 51L10 50ZM16 50L16 51L17 51L17 50ZM36 52L36 53L37 53L37 52ZM52 52L52 53L53 53L53 52ZM0 0L0 7L7 7L7 0ZM1 1L1 6L6 6L6 1ZM2 2L2 5L5 5L5 2ZM46 0L46 7L53 7L53 0ZM47 1L47 6L52 6L52 1ZM48 2L48 5L51 5L51 2ZM0 46L0 53L7 53L7 46ZM1 47L1 52L6 52L6 47ZM2 48L2 51L5 51L5 48Z" fill="#000000"/></g></g></svg>
