<?xml version="1.0" encoding="UTF-8"?>
<svg xmlns="http://www.w3.org/2000/svg" version="1.1" width="356" height="356" viewBox="0 0 356 356"><rect x="0" y="0" width="356" height="356" fill="#ffffff"/><g transform="scale(6.717)"><g transform="translate(0,0)"><path fill-rule="evenodd" d="M8 0L8 1L9 1L9 2L8 2L8 5L9 5L9 4L10 4L10 5L13 5L13 6L12 6L12 7L13 7L13 9L12 9L12 8L10 8L10 7L11 7L11 6L10 6L10 7L9 7L9 6L8 6L8 7L9 7L9 8L8 8L8 9L9 9L9 10L8 10L8 11L9 11L9 10L10 10L10 13L7 13L7 12L6 12L6 11L7 11L7 10L6 10L6 9L7 9L7 8L6 8L6 9L4 9L4 8L0 8L0 9L1 9L1 10L0 10L0 11L1 11L1 12L0 12L0 13L1 13L1 16L0 16L0 17L1 17L1 18L0 18L0 19L2 19L2 21L0 21L0 22L2 22L2 21L3 21L3 23L4 23L4 21L5 21L5 20L6 20L6 21L7 21L7 22L5 22L5 24L4 24L4 26L3 26L3 24L2 24L2 23L0 23L0 24L2 24L2 26L1 26L1 25L0 25L0 27L4 27L4 31L3 31L3 30L2 30L2 29L3 29L3 28L1 28L1 29L0 29L0 30L1 30L1 31L0 31L0 32L1 32L1 31L2 31L2 35L1 35L1 36L0 36L0 38L2 38L2 39L1 39L1 40L0 40L0 43L1 43L1 44L3 44L3 45L4 45L4 44L3 44L3 43L7 43L7 44L6 44L6 45L8 45L8 46L9 46L9 44L10 44L10 46L11 46L11 45L12 45L12 46L13 46L13 49L12 49L12 48L11 48L11 51L10 51L10 48L9 48L9 49L8 49L8 53L9 53L9 52L10 52L10 53L11 53L11 51L12 51L12 53L13 53L13 51L12 51L12 50L14 50L14 52L15 52L15 50L17 50L17 49L16 49L16 48L14 48L14 47L15 47L15 46L13 46L13 45L12 45L12 44L11 44L11 42L13 42L13 44L14 44L14 45L15 45L15 42L13 42L13 40L14 40L14 41L16 41L16 42L17 42L17 41L16 41L16 40L17 40L17 39L20 39L20 43L17 43L17 45L18 45L18 46L16 46L16 47L17 47L17 48L18 48L18 49L20 49L20 50L21 50L21 53L22 53L22 51L23 51L23 50L24 50L24 52L25 52L25 53L28 53L28 51L29 51L29 52L30 52L30 51L29 51L29 48L30 48L30 49L32 49L32 50L31 50L31 52L32 52L32 53L34 53L34 52L37 52L37 53L40 53L40 52L41 52L41 53L43 53L43 51L42 51L42 50L41 50L41 51L39 51L39 50L40 50L40 49L39 49L39 48L41 48L41 47L42 47L42 48L43 48L43 47L44 47L44 49L43 49L43 50L45 50L45 49L47 49L47 51L48 51L48 52L47 52L47 53L48 53L48 52L50 52L50 51L51 51L51 53L52 53L52 50L51 50L51 48L49 48L49 45L50 45L50 46L51 46L51 45L50 45L50 44L51 44L51 43L49 43L49 42L48 42L48 40L50 40L50 41L51 41L51 40L53 40L53 38L51 38L51 40L50 40L50 39L47 39L47 38L46 38L46 40L45 40L45 39L43 39L43 38L42 38L42 39L39 39L39 35L40 35L40 36L41 36L41 34L43 34L43 35L42 35L42 36L44 36L44 37L45 37L45 35L46 35L46 36L49 36L49 37L50 37L50 36L49 36L49 34L51 34L51 35L52 35L52 37L53 37L53 35L52 35L52 33L51 33L51 32L52 32L52 29L53 29L53 28L52 28L52 29L51 29L51 28L50 28L50 27L49 27L49 24L44 24L44 25L43 25L43 24L42 24L42 23L43 23L43 22L44 22L44 21L45 21L45 20L47 20L47 21L48 21L48 20L47 20L47 18L48 18L48 15L50 15L50 14L51 14L51 15L53 15L53 14L52 14L52 10L51 10L51 13L49 13L49 11L50 11L50 9L51 9L51 8L48 8L48 9L49 9L49 11L48 11L48 12L46 12L46 13L43 13L43 12L45 12L45 11L43 11L43 12L42 12L42 10L44 10L44 7L45 7L45 6L44 6L44 7L43 7L43 3L44 3L44 4L45 4L45 3L44 3L44 1L43 1L43 0L42 0L42 2L43 2L43 3L41 3L41 2L40 2L40 3L41 3L41 4L40 4L40 5L41 5L41 6L40 6L40 7L39 7L39 6L38 6L38 5L39 5L39 4L37 4L37 3L35 3L35 2L37 2L37 1L38 1L38 0L35 0L35 1L33 1L33 2L31 2L31 1L32 1L32 0L29 0L29 2L30 2L30 4L32 4L32 3L33 3L33 2L34 2L34 3L35 3L35 5L36 5L36 7L35 7L35 6L34 6L34 4L33 4L33 5L31 5L31 6L30 6L30 7L29 7L29 4L27 4L27 3L25 3L25 2L28 2L28 1L25 1L25 0L23 0L23 1L24 1L24 2L22 2L22 1L19 1L19 0L16 0L16 2L15 2L15 1L14 1L14 2L13 2L13 3L12 3L12 2L11 2L11 0ZM12 0L12 1L13 1L13 0ZM39 0L39 1L41 1L41 0ZM17 1L17 2L16 2L16 3L13 3L13 4L14 4L14 6L13 6L13 7L14 7L14 6L15 6L15 8L14 8L14 10L15 10L15 8L17 8L17 7L18 7L18 6L17 6L17 4L16 4L16 3L17 3L17 2L19 2L19 1ZM10 2L10 4L11 4L11 2ZM20 2L20 3L21 3L21 2ZM22 3L22 4L23 4L23 9L22 9L22 10L19 10L19 11L18 11L18 12L19 12L19 13L20 13L20 11L21 11L21 13L24 13L24 12L26 12L26 13L25 13L25 14L17 14L17 13L16 13L16 14L17 14L17 15L19 15L19 16L18 16L18 18L17 18L17 16L16 16L16 15L15 15L15 16L14 16L14 14L15 14L15 12L16 12L16 11L17 11L17 10L18 10L18 9L16 9L16 11L14 11L14 12L13 12L13 13L11 13L11 14L9 14L9 16L8 16L8 17L9 17L9 16L10 16L10 15L12 15L12 16L11 16L11 17L10 17L10 18L7 18L7 17L4 17L4 15L3 15L3 13L4 13L4 14L5 14L5 16L7 16L7 15L6 15L6 14L7 14L7 13L6 13L6 12L5 12L5 13L4 13L4 11L5 11L5 10L4 10L4 11L3 11L3 9L2 9L2 16L1 16L1 17L2 17L2 18L3 18L3 19L4 19L4 18L7 18L7 19L6 19L6 20L7 20L7 19L8 19L8 21L9 21L9 23L12 23L12 24L13 24L13 25L15 25L15 26L14 26L14 27L12 27L12 25L9 25L9 28L10 28L10 27L12 27L12 28L11 28L11 29L10 29L10 32L7 32L7 31L4 31L4 32L3 32L3 35L2 35L2 36L3 36L3 35L4 35L4 37L3 37L3 38L4 38L4 39L5 39L5 38L7 38L7 39L6 39L6 40L2 40L2 43L3 43L3 42L4 42L4 41L5 41L5 42L7 42L7 43L8 43L8 42L9 42L9 43L10 43L10 41L11 41L11 40L10 40L10 41L8 41L8 42L7 42L7 41L6 41L6 40L7 40L7 39L8 39L8 36L10 36L10 37L9 37L9 39L11 39L11 38L14 38L14 40L16 40L16 39L17 39L17 37L16 37L16 39L15 39L15 38L14 38L14 37L15 37L15 35L16 35L16 36L18 36L18 35L19 35L19 34L21 34L21 32L22 32L22 37L23 37L23 39L22 39L22 38L21 38L21 41L23 41L23 42L22 42L22 44L24 44L24 41L25 41L25 44L27 44L27 43L28 43L28 44L29 44L29 43L30 43L30 42L31 42L31 41L30 41L30 42L29 42L29 43L28 43L28 42L27 42L27 41L25 41L25 40L26 40L26 39L27 39L27 38L28 38L28 41L29 41L29 38L30 38L30 40L32 40L32 39L31 39L31 37L33 37L33 36L36 36L36 35L37 35L37 34L35 34L35 33L38 33L38 35L39 35L39 32L36 32L36 31L35 31L35 30L37 30L37 31L38 31L38 30L39 30L39 31L40 31L40 32L41 32L41 33L42 33L42 32L46 32L46 31L47 31L47 29L46 29L46 30L45 30L45 29L44 29L44 26L43 26L43 25L42 25L42 24L40 24L40 23L42 23L42 22L40 22L40 23L38 23L38 22L39 22L39 20L40 20L40 19L42 19L42 21L43 21L43 19L44 19L44 20L45 20L45 19L44 19L44 18L45 18L45 17L42 17L42 18L41 18L41 15L42 15L42 16L43 16L43 13L42 13L42 12L39 12L39 13L40 13L40 15L38 15L38 16L40 16L40 18L39 18L39 17L37 17L37 16L34 16L34 17L35 17L35 19L36 19L36 21L35 21L35 20L31 20L31 19L32 19L32 18L31 18L31 16L32 16L32 15L34 15L34 14L37 14L37 13L38 13L38 11L39 11L39 9L40 9L40 11L41 11L41 9L40 9L40 8L39 8L39 7L38 7L38 6L37 6L37 7L36 7L36 11L37 11L37 13L34 13L34 14L33 14L33 12L35 12L35 7L34 7L34 6L33 6L33 7L32 7L32 6L31 6L31 7L30 7L30 8L31 8L31 9L33 9L33 10L32 10L32 11L31 11L31 10L29 10L29 9L28 9L28 11L25 11L25 10L26 10L26 9L24 9L24 4L23 4L23 3ZM19 5L19 8L20 8L20 9L21 9L21 7L22 7L22 5ZM25 5L25 8L28 8L28 5ZM16 6L16 7L17 7L17 6ZM20 6L20 7L21 7L21 6ZM26 6L26 7L27 7L27 6ZM41 6L41 8L42 8L42 9L43 9L43 7L42 7L42 6ZM33 8L33 9L34 9L34 8ZM38 8L38 9L39 9L39 8ZM45 8L45 9L46 9L46 8ZM52 8L52 9L53 9L53 8ZM11 9L11 12L12 12L12 9ZM23 9L23 10L22 10L22 12L24 12L24 9ZM37 10L37 11L38 11L38 10ZM29 11L29 12L27 12L27 16L26 16L26 15L20 15L20 16L19 16L19 18L18 18L18 19L17 19L17 18L16 18L16 17L15 17L15 19L14 19L14 16L13 16L13 18L10 18L10 19L9 19L9 21L10 21L10 22L12 22L12 20L13 20L13 22L14 22L14 23L15 23L15 21L14 21L14 20L17 20L17 22L16 22L16 23L17 23L17 22L18 22L18 24L17 24L17 26L15 26L15 27L14 27L14 30L13 30L13 29L12 29L12 30L13 30L13 31L11 31L11 33L10 33L10 34L11 34L11 35L13 35L13 36L11 36L11 37L10 37L10 38L11 38L11 37L14 37L14 35L15 35L15 34L14 34L14 35L13 35L13 34L11 34L11 33L13 33L13 31L15 31L15 30L17 30L17 28L18 28L18 24L21 24L21 25L22 25L22 24L23 24L23 27L22 27L22 26L20 26L20 25L19 25L19 30L18 30L18 31L19 31L19 30L20 30L20 28L21 28L21 30L22 30L22 32L23 32L23 33L24 33L24 32L23 32L23 29L22 29L22 28L23 28L23 27L24 27L24 31L26 31L26 32L28 32L28 33L29 33L29 35L28 35L28 34L27 34L27 35L25 35L25 37L24 37L24 36L23 36L23 37L24 37L24 39L26 39L26 38L27 38L27 37L29 37L29 35L30 35L30 37L31 37L31 35L32 35L32 36L33 36L33 35L32 35L32 34L31 34L31 32L30 32L30 29L29 29L29 27L30 27L30 28L31 28L31 29L33 29L33 30L35 30L35 28L32 28L32 27L35 27L35 26L34 26L34 25L37 25L37 26L36 26L36 27L37 27L37 29L39 29L39 30L40 30L40 27L37 27L37 26L39 26L39 25L37 25L37 24L36 24L36 23L37 23L37 22L38 22L38 21L36 21L36 23L35 23L35 24L34 24L34 22L33 22L33 21L32 21L32 22L33 22L33 23L31 23L31 24L30 24L30 22L31 22L31 21L28 21L28 20L29 20L29 19L28 19L28 20L27 20L27 19L25 19L25 20L27 20L27 21L25 21L25 22L24 22L24 23L23 23L23 22L22 22L22 21L24 21L24 20L21 20L21 19L24 19L24 18L25 18L25 17L24 17L24 16L26 16L26 17L27 17L27 16L29 16L29 18L30 18L30 16L31 16L31 15L29 15L29 14L28 14L28 13L31 13L31 14L32 14L32 12L31 12L31 11ZM5 13L5 14L6 14L6 13ZM13 13L13 14L12 14L12 15L13 15L13 14L14 14L14 13ZM46 13L46 14L44 14L44 15L46 15L46 14L47 14L47 15L48 15L48 14L47 14L47 13ZM21 16L21 17L20 17L20 19L19 19L19 20L18 20L18 21L19 21L19 20L20 20L20 22L21 22L21 23L22 23L22 22L21 22L21 20L20 20L20 19L21 19L21 17L22 17L22 18L24 18L24 17L23 17L23 16ZM46 16L46 17L47 17L47 16ZM51 16L51 17L52 17L52 18L53 18L53 16ZM36 18L36 19L37 19L37 20L38 20L38 18ZM42 18L42 19L43 19L43 18ZM49 18L49 19L50 19L50 21L49 21L49 22L47 22L47 23L51 23L51 24L50 24L50 26L51 26L51 27L53 27L53 26L51 26L51 25L52 25L52 21L53 21L53 19L52 19L52 21L51 21L51 19L50 19L50 18ZM10 19L10 21L11 21L11 19ZM3 20L3 21L4 21L4 20ZM27 21L27 22L25 22L25 23L24 23L24 24L27 24L27 23L29 23L29 22L28 22L28 21ZM45 22L45 23L46 23L46 22ZM6 23L6 24L7 24L7 23ZM29 24L29 26L30 26L30 27L31 27L31 25L30 25L30 24ZM32 24L32 25L33 25L33 24ZM5 25L5 28L8 28L8 25ZM25 25L25 28L28 28L28 25ZM40 25L40 26L41 26L41 25ZM45 25L45 28L48 28L48 25ZM6 26L6 27L7 27L7 26ZM26 26L26 27L27 27L27 26ZM42 26L42 27L43 27L43 26ZM46 26L46 27L47 27L47 26ZM16 27L16 28L15 28L15 29L16 29L16 28L17 28L17 27ZM21 27L21 28L22 28L22 27ZM49 28L49 29L48 29L48 30L50 30L50 31L51 31L51 29L50 29L50 28ZM5 29L5 30L8 30L8 29ZM25 29L25 30L26 30L26 31L27 31L27 30L28 30L28 32L29 32L29 33L30 33L30 32L29 32L29 30L28 30L28 29L27 29L27 30L26 30L26 29ZM41 29L41 32L42 32L42 31L45 31L45 30L42 30L42 29ZM31 30L31 31L32 31L32 32L33 32L33 31L32 31L32 30ZM16 31L16 35L17 35L17 34L19 34L19 33L17 33L17 31ZM20 31L20 32L21 32L21 31ZM34 31L34 32L35 32L35 31ZM4 32L4 34L5 34L5 35L7 35L7 36L6 36L6 37L7 37L7 36L8 36L8 34L9 34L9 33L7 33L7 32ZM14 32L14 33L15 33L15 32ZM49 32L49 33L50 33L50 32ZM0 33L0 34L1 34L1 33ZM6 33L6 34L7 34L7 33ZM43 33L43 34L44 34L44 35L45 35L45 34L46 34L46 35L47 35L47 34L46 34L46 33L45 33L45 34L44 34L44 33ZM23 34L23 35L24 35L24 34ZM30 34L30 35L31 35L31 34ZM34 34L34 35L35 35L35 34ZM20 35L20 36L21 36L21 35ZM26 36L26 37L25 37L25 38L26 38L26 37L27 37L27 36ZM37 36L37 37L36 37L36 39L35 39L35 37L34 37L34 38L33 38L33 39L35 39L35 40L33 40L33 41L37 41L37 42L35 42L35 44L36 44L36 45L33 45L33 44L34 44L34 43L33 43L33 42L32 42L32 43L31 43L31 44L30 44L30 45L31 45L31 47L30 47L30 48L32 48L32 49L33 49L33 48L34 48L34 47L35 47L35 48L36 48L36 47L35 47L35 46L37 46L37 47L38 47L38 48L37 48L37 49L34 49L34 50L33 50L33 52L34 52L34 50L36 50L36 51L37 51L37 52L38 52L38 51L37 51L37 49L38 49L38 48L39 48L39 46L41 46L41 45L42 45L42 44L41 44L41 43L42 43L42 42L43 42L43 41L44 41L44 44L45 44L45 40L43 40L43 41L42 41L42 40L40 40L40 41L39 41L39 39L38 39L38 41L37 41L37 40L36 40L36 39L37 39L37 37L38 37L38 36ZM19 37L19 38L20 38L20 37ZM40 37L40 38L41 38L41 37ZM18 40L18 41L19 41L19 40ZM46 40L46 41L47 41L47 40ZM41 41L41 42L42 42L42 41ZM52 41L52 42L53 42L53 41ZM26 42L26 43L27 43L27 42ZM37 42L37 46L38 46L38 44L39 44L39 45L41 45L41 44L40 44L40 43L39 43L39 42ZM46 42L46 43L48 43L48 42ZM20 43L20 44L18 44L18 45L20 45L20 46L18 46L18 48L20 48L20 49L21 49L21 50L23 50L23 49L24 49L24 48L23 48L23 47L20 47L20 46L24 46L24 45L20 45L20 44L21 44L21 43ZM32 43L32 44L33 44L33 43ZM52 43L52 44L53 44L53 43ZM25 45L25 48L28 48L28 45ZM32 45L32 47L33 47L33 45ZM45 45L45 48L48 48L48 45ZM52 45L52 46L53 46L53 45ZM26 46L26 47L27 47L27 46ZM42 46L42 47L43 47L43 46ZM46 46L46 47L47 47L47 46ZM22 48L22 49L23 49L23 48ZM52 48L52 49L53 49L53 48ZM14 49L14 50L15 50L15 49ZM27 49L27 51L25 51L25 52L27 52L27 51L28 51L28 49ZM18 50L18 51L16 51L16 53L17 53L17 52L19 52L19 50ZM48 50L48 51L49 51L49 50ZM44 52L44 53L46 53L46 52ZM0 0L0 7L7 7L7 0ZM1 1L1 6L6 6L6 1ZM2 2L2 5L5 5L5 2ZM46 0L46 7L53 7L53 0ZM47 1L47 6L52 6L52 1ZM48 2L48 5L51 5L51 2ZM0 46L0 53L7 53L7 46ZM1 47L1 52L6 52L6 47ZM2 48L2 51L5 51L5 48Z" fill="#000000"/></g></g></svg>
