<?xml version="1.0" encoding="UTF-8"?>
<svg xmlns="http://www.w3.org/2000/svg" version="1.1" width="356" height="356" viewBox="0 0 356 356"><rect x="0" y="0" width="356" height="356" fill="#ffffff"/><g transform="scale(6.717)"><g transform="translate(0,0)"><path fill-rule="evenodd" d="M8 0L8 2L9 2L9 3L10 3L10 4L11 4L11 5L12 5L12 7L13 7L13 11L11 11L11 10L12 10L12 9L10 9L10 8L11 8L11 6L10 6L10 5L9 5L9 4L8 4L8 10L9 10L9 9L10 9L10 11L9 11L9 12L8 12L8 13L7 13L7 12L6 12L6 11L7 11L7 10L6 10L6 9L7 9L7 8L5 8L5 12L6 12L6 13L7 13L7 14L6 14L6 15L5 15L5 16L4 16L4 17L3 17L3 16L2 16L2 15L1 15L1 13L0 13L0 17L1 17L1 18L0 18L0 19L1 19L1 18L2 18L2 20L1 20L1 21L0 21L0 23L1 23L1 25L0 25L0 26L1 26L1 25L3 25L3 24L4 24L4 26L2 26L2 27L3 27L3 28L4 28L4 30L3 30L3 29L2 29L2 28L1 28L1 29L0 29L0 30L1 30L1 31L0 31L0 37L1 37L1 38L0 38L0 39L2 39L2 41L0 41L0 43L1 43L1 44L3 44L3 45L4 45L4 44L3 44L3 43L7 43L7 42L8 42L8 43L10 43L10 44L9 44L9 45L8 45L8 46L9 46L9 45L10 45L10 46L11 46L11 47L12 47L12 48L9 48L9 47L8 47L8 48L9 48L9 50L8 50L8 53L11 53L11 51L12 51L12 49L13 49L13 48L14 48L14 49L15 49L15 53L16 53L16 52L18 52L18 53L20 53L20 52L18 52L18 49L19 49L19 48L20 48L20 49L21 49L21 48L20 48L20 47L21 47L21 46L23 46L23 47L22 47L22 48L23 48L23 49L25 49L25 51L26 51L26 49L27 49L27 50L28 50L28 49L29 49L29 51L30 51L30 52L28 52L28 53L30 53L30 52L32 52L32 53L34 53L34 52L36 52L36 53L37 53L37 52L36 52L36 51L37 51L37 50L38 50L38 53L39 53L39 51L40 51L40 53L42 53L42 51L43 51L43 52L44 52L44 51L45 51L45 52L46 52L46 53L49 53L49 52L50 52L50 51L51 51L51 49L50 49L50 51L49 51L49 48L50 48L50 46L51 46L51 47L52 47L52 48L53 48L53 45L52 45L52 44L53 44L53 42L52 42L52 44L50 44L50 43L49 43L49 42L50 42L50 41L53 41L53 38L52 38L52 40L50 40L50 39L51 39L51 36L50 36L50 35L48 35L48 33L49 33L49 34L51 34L51 33L49 33L49 32L50 32L50 31L51 31L51 32L52 32L52 33L53 33L53 32L52 32L52 31L53 31L53 29L52 29L52 27L53 27L53 26L52 26L52 27L51 27L51 28L50 28L50 27L49 27L49 26L50 26L50 23L51 23L51 21L53 21L53 18L52 18L52 20L51 20L51 21L49 21L49 20L50 20L50 19L51 19L51 18L50 18L50 19L48 19L48 17L50 17L50 16L49 16L49 15L51 15L51 14L52 14L52 16L53 16L53 14L52 14L52 13L53 13L53 10L52 10L52 9L53 9L53 8L51 8L51 10L50 10L50 9L49 9L49 8L45 8L45 6L44 6L44 9L43 9L43 10L42 10L42 7L43 7L43 3L44 3L44 4L45 4L45 3L44 3L44 1L43 1L43 0L40 0L40 1L39 1L39 0L38 0L38 1L37 1L37 0L36 0L36 2L35 2L35 0L34 0L34 1L33 1L33 0L32 0L32 2L33 2L33 4L32 4L32 5L31 5L31 4L30 4L30 3L31 3L31 0L30 0L30 3L28 3L28 2L26 2L26 1L25 1L25 0L24 0L24 1L23 1L23 0L22 0L22 1L21 1L21 0L18 0L18 1L16 1L16 2L18 2L18 1L19 1L19 4L20 4L20 5L18 5L18 3L15 3L15 0ZM9 1L9 2L10 2L10 3L11 3L11 4L12 4L12 5L13 5L13 7L14 7L14 8L15 8L15 9L14 9L14 10L15 10L15 11L14 11L14 12L16 12L16 14L13 14L13 16L12 16L12 15L9 15L9 16L8 16L8 14L7 14L7 15L6 15L6 16L7 16L7 17L5 17L5 18L4 18L4 19L3 19L3 20L2 20L2 21L1 21L1 22L2 22L2 23L4 23L4 22L8 22L8 23L9 23L9 28L10 28L10 30L9 30L9 29L6 29L6 30L5 30L5 31L3 31L3 30L2 30L2 29L1 29L1 30L2 30L2 32L3 32L3 33L1 33L1 34L3 34L3 35L2 35L2 36L1 36L1 37L3 37L3 36L4 36L4 35L6 35L6 36L7 36L7 37L6 37L6 38L7 38L7 37L8 37L8 36L7 36L7 35L8 35L8 34L9 34L9 37L10 37L10 38L8 38L8 39L6 39L6 40L8 40L8 39L9 39L9 40L10 40L10 41L9 41L9 42L10 42L10 41L11 41L11 42L12 42L12 43L11 43L11 44L10 44L10 45L12 45L12 47L13 47L13 43L15 43L15 44L16 44L16 47L15 47L15 45L14 45L14 47L15 47L15 48L16 48L16 47L17 47L17 46L19 46L19 45L20 45L20 46L21 46L21 45L22 45L22 44L19 44L19 45L18 45L18 43L19 43L19 40L20 40L20 39L21 39L21 38L22 38L22 36L24 36L24 37L23 37L23 38L24 38L24 39L22 39L22 40L23 40L23 41L22 41L22 43L23 43L23 42L24 42L24 43L25 43L25 44L29 44L29 45L30 45L30 46L29 46L29 48L30 48L30 47L32 47L32 48L31 48L31 49L30 49L30 50L32 50L32 52L34 52L34 51L33 51L33 49L32 49L32 48L34 48L34 50L35 50L35 47L34 47L34 46L35 46L35 45L36 45L36 47L37 47L37 48L39 48L39 49L38 49L38 50L41 50L41 51L42 51L42 50L43 50L43 51L44 51L44 50L45 50L45 51L46 51L46 52L49 52L49 51L48 51L48 49L44 49L44 50L43 50L43 48L42 48L42 50L41 50L41 49L40 49L40 48L41 48L41 47L42 47L42 46L44 46L44 45L42 45L42 44L41 44L41 43L40 43L40 42L39 42L39 41L40 41L40 40L41 40L41 38L40 38L40 34L39 34L39 33L40 33L40 32L41 32L41 33L42 33L42 34L41 34L41 35L42 35L42 34L44 34L44 35L43 35L43 36L42 36L42 40L44 40L44 38L45 38L45 39L46 39L46 40L45 40L45 41L44 41L44 42L43 42L43 41L42 41L42 42L43 42L43 43L44 43L44 42L45 42L45 44L46 44L46 42L47 42L47 44L48 44L48 42L49 42L49 41L48 41L48 40L49 40L49 39L50 39L50 37L49 37L49 36L48 36L48 35L47 35L47 36L46 36L46 34L47 34L47 33L48 33L48 30L49 30L49 31L50 31L50 30L51 30L51 29L50 29L50 30L49 30L49 29L48 29L48 30L47 30L47 31L46 31L46 29L45 29L45 30L44 30L44 26L43 26L43 25L44 25L44 22L45 22L45 17L46 17L46 19L47 19L47 20L46 20L46 22L47 22L47 24L49 24L49 23L50 23L50 22L49 22L49 21L48 21L48 19L47 19L47 17L46 17L46 15L45 15L45 16L44 16L44 14L45 14L45 13L44 13L44 12L46 12L46 11L45 11L45 9L44 9L44 11L42 11L42 12L43 12L43 13L42 13L42 15L41 15L41 14L40 14L40 12L41 12L41 11L40 11L40 10L41 10L41 9L40 9L40 8L41 8L41 7L42 7L42 6L41 6L41 7L40 7L40 5L41 5L41 1L40 1L40 5L38 5L38 4L39 4L39 1L38 1L38 2L36 2L36 4L37 4L37 5L36 5L36 6L35 6L35 7L34 7L34 6L33 6L33 5L32 5L32 6L31 6L31 5L30 5L30 4L29 4L29 5L30 5L30 6L29 6L29 8L30 8L30 9L22 9L22 8L21 8L21 10L20 10L20 11L22 11L22 10L23 10L23 11L24 11L24 12L23 12L23 14L22 14L22 15L21 15L21 16L22 16L22 15L23 15L23 14L24 14L24 18L22 18L22 20L21 20L21 19L20 19L20 18L21 18L21 17L20 17L20 14L21 14L21 13L22 13L22 12L20 12L20 14L19 14L19 15L18 15L18 16L19 16L19 17L18 17L18 18L19 18L19 20L21 20L21 21L20 21L20 22L19 22L19 21L18 21L18 19L17 19L17 18L16 18L16 19L17 19L17 20L16 20L16 23L14 23L14 24L15 24L15 25L14 25L14 26L15 26L15 28L16 28L16 30L13 30L13 28L14 28L14 27L13 27L13 28L12 28L12 27L11 27L11 26L13 26L13 25L12 25L12 24L13 24L13 22L12 22L12 21L11 21L11 20L10 20L10 18L11 18L11 19L14 19L14 20L15 20L15 19L14 19L14 18L15 18L15 16L14 16L14 15L16 15L16 14L18 14L18 12L19 12L19 8L20 8L20 6L21 6L21 7L22 7L22 6L23 6L23 7L24 7L24 4L25 4L25 1L24 1L24 4L23 4L23 1L22 1L22 2L21 2L21 1L20 1L20 2L21 2L21 3L22 3L22 4L21 4L21 5L20 5L20 6L19 6L19 8L18 8L18 6L17 6L17 7L16 7L16 5L15 5L15 3L14 3L14 1L13 1L13 2L10 2L10 1ZM42 2L42 3L43 3L43 2ZM12 3L12 4L13 4L13 3ZM27 3L27 4L28 4L28 3ZM37 3L37 4L38 4L38 3ZM25 5L25 8L28 8L28 5ZM9 6L9 7L10 7L10 6ZM14 6L14 7L15 7L15 6ZM26 6L26 7L27 7L27 6ZM30 6L30 7L31 7L31 6ZM32 6L32 9L31 9L31 10L33 10L33 12L32 12L32 14L31 14L31 15L32 15L32 18L31 18L31 22L30 22L30 20L29 20L29 19L30 19L30 16L29 16L29 18L28 18L28 20L29 20L29 22L28 22L28 23L29 23L29 24L26 24L26 23L25 23L25 22L27 22L27 20L26 20L26 18L25 18L25 20L24 20L24 21L23 21L23 20L22 20L22 21L21 21L21 22L20 22L20 24L19 24L19 23L18 23L18 24L19 24L19 26L18 26L18 27L17 27L17 26L16 26L16 27L17 27L17 28L18 28L18 29L19 29L19 28L22 28L22 30L23 30L23 31L22 31L22 32L23 32L23 35L24 35L24 36L25 36L25 35L24 35L24 32L25 32L25 34L26 34L26 35L27 35L27 36L26 36L26 39L24 39L24 40L26 40L26 41L24 41L24 42L25 42L25 43L26 43L26 41L27 41L27 42L28 42L28 38L27 38L27 36L28 36L28 35L29 35L29 36L30 36L30 37L29 37L29 38L30 38L30 39L29 39L29 43L30 43L30 45L31 45L31 42L30 42L30 40L31 40L31 39L32 39L32 43L33 43L33 44L32 44L32 45L33 45L33 46L32 46L32 47L33 47L33 46L34 46L34 45L35 45L35 44L34 44L34 41L35 41L35 43L36 43L36 45L37 45L37 46L38 46L38 45L39 45L39 46L40 46L40 45L41 45L41 46L42 46L42 45L41 45L41 44L40 44L40 43L39 43L39 44L38 44L38 45L37 45L37 41L38 41L38 40L37 40L37 39L36 39L36 38L38 38L38 39L39 39L39 40L40 40L40 38L38 38L38 36L39 36L39 34L38 34L38 33L39 33L39 32L40 32L40 30L41 30L41 31L44 31L44 32L42 32L42 33L44 33L44 34L45 34L45 31L44 31L44 30L42 30L42 29L41 29L41 28L40 28L40 30L39 30L39 32L38 32L38 33L37 33L37 31L38 31L38 28L39 28L39 27L36 27L36 25L38 25L38 24L36 24L36 23L39 23L39 22L40 22L40 23L41 23L41 24L40 24L40 27L41 27L41 26L42 26L42 28L43 28L43 26L42 26L42 21L43 21L43 22L44 22L44 21L43 21L43 20L44 20L44 19L43 19L43 20L42 20L42 19L41 19L41 18L42 18L42 17L43 17L43 18L44 18L44 16L43 16L43 15L42 15L42 17L41 17L41 16L40 16L40 14L39 14L39 16L40 16L40 17L39 17L39 18L38 18L38 17L37 17L37 16L36 16L36 15L35 15L35 14L37 14L37 12L38 12L38 13L39 13L39 12L40 12L40 11L39 11L39 12L38 12L38 11L37 11L37 10L38 10L38 8L39 8L39 6L38 6L38 8L36 8L36 9L35 9L35 10L34 10L34 9L33 9L33 6ZM36 6L36 7L37 7L37 6ZM0 8L0 9L2 9L2 10L0 10L0 12L1 12L1 11L3 11L3 10L4 10L4 9L3 9L3 8ZM16 8L16 9L17 9L17 8ZM39 9L39 10L40 10L40 9ZM46 9L46 10L47 10L47 13L46 13L46 14L48 14L48 15L49 15L49 13L48 13L48 9ZM16 10L16 11L17 11L17 12L18 12L18 10ZM24 10L24 11L25 11L25 12L24 12L24 13L25 13L25 14L26 14L26 15L25 15L25 17L28 17L28 16L26 16L26 15L27 15L27 14L28 14L28 15L29 15L29 14L28 14L28 13L29 13L29 10L28 10L28 11L27 11L27 12L26 12L26 11L25 11L25 10ZM51 10L51 11L50 11L50 12L51 12L51 11L52 11L52 10ZM10 11L10 12L9 12L9 13L13 13L13 12L11 12L11 11ZM30 11L30 13L31 13L31 11ZM34 11L34 12L33 12L33 13L34 13L34 14L35 14L35 13L36 13L36 12L37 12L37 11ZM3 12L3 13L4 13L4 12ZM25 12L25 13L26 13L26 14L27 14L27 13L28 13L28 12L27 12L27 13L26 13L26 12ZM34 12L34 13L35 13L35 12ZM43 13L43 14L44 14L44 13ZM50 13L50 14L51 14L51 13ZM3 14L3 15L4 15L4 14ZM33 15L33 17L34 17L34 19L35 19L35 21L34 21L34 20L33 20L33 21L32 21L32 22L31 22L31 23L30 23L30 22L29 22L29 23L30 23L30 24L31 24L31 25L30 25L30 26L29 26L29 29L28 29L28 30L29 30L29 31L28 31L28 32L27 32L27 31L26 31L26 30L27 30L27 29L25 29L25 31L26 31L26 32L27 32L27 33L28 33L28 32L30 32L30 34L31 34L31 35L30 35L30 36L31 36L31 35L33 35L33 33L32 33L32 32L34 32L34 35L35 35L35 37L34 37L34 36L33 36L33 37L32 37L32 38L33 38L33 40L34 40L34 39L35 39L35 41L36 41L36 39L35 39L35 38L36 38L36 36L38 36L38 35L35 35L35 32L34 32L34 31L32 31L32 30L33 30L33 29L34 29L34 30L35 30L35 31L36 31L36 30L37 30L37 29L36 29L36 30L35 30L35 27L34 27L34 26L35 26L35 25L36 25L36 24L34 24L34 26L33 26L33 25L32 25L32 23L33 23L33 21L34 21L34 22L35 22L35 21L36 21L36 22L37 22L37 21L38 21L38 22L39 22L39 21L40 21L40 22L41 22L41 21L40 21L40 20L39 20L39 19L38 19L38 18L37 18L37 17L36 17L36 16L35 16L35 17L34 17L34 15ZM1 16L1 17L2 17L2 16ZM9 16L9 17L8 17L8 20L6 20L6 21L9 21L9 22L11 22L11 21L10 21L10 20L9 20L9 17L10 17L10 16ZM6 18L6 19L7 19L7 18ZM32 18L32 19L33 19L33 18ZM35 18L35 19L37 19L37 18ZM4 19L4 20L3 20L3 21L2 21L2 22L4 22L4 20L5 20L5 19ZM25 20L25 21L24 21L24 22L25 22L25 21L26 21L26 20ZM36 20L36 21L37 21L37 20ZM17 21L17 22L18 22L18 21ZM22 21L22 24L23 24L23 25L21 25L21 26L20 26L20 27L22 27L22 26L24 26L24 24L25 24L25 23L24 23L24 24L23 24L23 21ZM48 22L48 23L49 23L49 22ZM52 22L52 23L53 23L53 22ZM5 23L5 24L7 24L7 23ZM11 23L11 24L10 24L10 25L11 25L11 24L12 24L12 23ZM16 23L16 25L17 25L17 23ZM51 24L51 25L53 25L53 24ZM5 25L5 28L8 28L8 25ZM25 25L25 28L28 28L28 25ZM31 25L31 27L30 27L30 29L31 29L31 30L32 30L32 29L33 29L33 28L34 28L34 27L33 27L33 28L32 28L32 29L31 29L31 27L32 27L32 25ZM45 25L45 28L48 28L48 25ZM6 26L6 27L7 27L7 26ZM26 26L26 27L27 27L27 26ZM46 26L46 27L47 27L47 26ZM10 27L10 28L11 28L11 27ZM23 28L23 30L24 30L24 28ZM11 29L11 30L10 30L10 31L11 31L11 32L10 32L10 33L9 33L9 34L11 34L11 35L12 35L12 37L11 37L11 36L10 36L10 37L11 37L11 38L12 38L12 37L13 37L13 35L15 35L15 36L14 36L14 37L15 37L15 38L13 38L13 41L12 41L12 42L14 42L14 41L15 41L15 40L16 40L16 41L17 41L17 39L15 39L15 38L16 38L16 36L17 36L17 35L16 35L16 34L18 34L18 38L19 38L19 39L18 39L18 40L19 40L19 39L20 39L20 38L19 38L19 34L18 34L18 33L19 33L19 32L18 32L18 31L21 31L21 30L16 30L16 32L15 32L15 31L14 31L14 32L15 32L15 34L13 34L13 30L12 30L12 29ZM6 30L6 31L5 31L5 32L4 32L4 34L5 34L5 33L8 33L8 32L6 32L6 31L7 31L7 30ZM23 31L23 32L24 32L24 31ZM11 32L11 34L12 34L12 35L13 35L13 34L12 34L12 32ZM20 32L20 33L21 33L21 32ZM46 32L46 33L47 33L47 32ZM6 34L6 35L7 35L7 34ZM20 34L20 35L21 35L21 36L22 36L22 35L21 35L21 34ZM27 34L27 35L28 35L28 34ZM52 34L52 35L53 35L53 34ZM44 35L44 36L43 36L43 38L44 38L44 37L45 37L45 35ZM47 36L47 37L46 37L46 39L47 39L47 40L48 40L48 39L49 39L49 38L48 38L48 36ZM4 37L4 38L5 38L5 37ZM24 37L24 38L25 38L25 37ZM30 37L30 38L31 38L31 37ZM11 39L11 40L12 40L12 39ZM14 39L14 40L15 40L15 39ZM26 39L26 40L27 40L27 39ZM3 40L3 41L4 41L4 40ZM6 41L6 42L7 42L7 41ZM47 41L47 42L48 42L48 41ZM2 42L2 43L3 43L3 42ZM16 42L16 43L18 43L18 42ZM20 42L20 43L21 43L21 42ZM6 44L6 45L7 45L7 44ZM33 44L33 45L34 45L34 44ZM39 44L39 45L40 45L40 44ZM49 44L49 46L50 46L50 44ZM23 45L23 46L24 46L24 45ZM25 45L25 48L28 48L28 45ZM45 45L45 48L48 48L48 45ZM26 46L26 47L27 47L27 46ZM46 46L46 47L47 47L47 46ZM18 47L18 48L19 48L19 47ZM39 47L39 48L40 48L40 47ZM10 49L10 50L9 50L9 52L10 52L10 51L11 51L11 49ZM36 49L36 50L37 50L37 49ZM13 50L13 51L14 51L14 50ZM16 50L16 51L17 51L17 50ZM20 50L20 51L22 51L22 53L23 53L23 52L24 52L24 53L26 53L26 52L24 52L24 51L22 51L22 50ZM46 50L46 51L47 51L47 50ZM12 52L12 53L13 53L13 52ZM52 52L52 53L53 53L53 52ZM0 0L0 7L7 7L7 0ZM1 1L1 6L6 6L6 1ZM2 2L2 5L5 5L5 2ZM46 0L46 7L53 7L53 0ZM47 1L47 6L52 6L52 1ZM48 2L48 5L51 5L51 2ZM0 46L0 53L7 53L7 46ZM1 47L1 52L6 52L6 47ZM2 48L2 51L5 51L5 48Z" fill="#000000"/></g></g></svg>
