<?xml version="1.0" encoding="UTF-8"?>
<svg xmlns="http://www.w3.org/2000/svg" version="1.1" width="356" height="356" viewBox="0 0 356 356"><rect x="0" y="0" width="356" height="356" fill="#ffffff"/><g transform="scale(6.717)"><g transform="translate(0,0)"><path fill-rule="evenodd" d="M8 0L8 2L9 2L9 4L8 4L8 9L7 9L7 8L5 8L5 10L4 10L4 9L3 9L3 8L0 8L0 11L1 11L1 12L2 12L2 13L1 13L1 14L0 14L0 15L1 15L1 16L0 16L0 17L1 17L1 20L0 20L0 22L1 22L1 20L3 20L3 19L4 19L4 20L5 20L5 21L4 21L4 22L3 22L3 21L2 21L2 23L0 23L0 24L1 24L1 25L2 25L2 28L0 28L0 30L1 30L1 31L2 31L2 28L3 28L3 29L4 29L4 30L3 30L3 31L4 31L4 30L6 30L6 31L5 31L5 32L6 32L6 33L7 33L7 32L6 32L6 31L9 31L9 32L8 32L8 33L9 33L9 35L10 35L10 36L8 36L8 35L7 35L7 34L6 34L6 35L7 35L7 36L6 36L6 37L7 37L7 38L5 38L5 34L3 34L3 33L2 33L2 32L0 32L0 34L1 34L1 33L2 33L2 34L3 34L3 36L2 36L2 35L0 35L0 37L1 37L1 36L2 36L2 37L3 37L3 38L2 38L2 39L1 39L1 38L0 38L0 39L1 39L1 40L0 40L0 43L1 43L1 44L3 44L3 45L4 45L4 44L3 44L3 43L7 43L7 44L6 44L6 45L7 45L7 44L8 44L8 46L9 46L9 47L8 47L8 48L10 48L10 47L11 47L11 48L12 48L12 45L10 45L10 43L11 43L11 44L12 44L12 43L13 43L13 44L15 44L15 47L16 47L16 48L13 48L13 49L12 49L12 52L13 52L13 53L16 53L16 52L18 52L18 53L19 53L19 52L18 52L18 49L19 49L19 48L18 48L18 47L20 47L20 49L21 49L21 47L20 47L20 45L19 45L19 44L21 44L21 43L22 43L22 45L24 45L24 46L23 46L23 47L22 47L22 48L23 48L23 51L24 51L24 53L25 53L25 50L24 50L24 49L29 49L29 50L28 50L28 51L29 51L29 52L28 52L28 53L34 53L34 52L36 52L36 53L37 53L37 52L36 52L36 51L35 51L35 50L36 50L36 49L37 49L37 51L39 51L39 50L38 50L38 49L39 49L39 48L40 48L40 49L41 49L41 50L40 50L40 53L42 53L42 52L43 52L43 53L44 53L44 52L43 52L43 51L41 51L41 50L42 50L42 47L43 47L43 48L44 48L44 49L43 49L43 50L44 50L44 51L45 51L45 53L49 53L49 52L46 52L46 51L45 51L45 50L44 50L44 49L46 49L46 50L47 50L47 49L48 49L48 51L49 51L49 50L50 50L50 51L51 51L51 50L50 50L50 49L49 49L49 48L50 48L50 46L52 46L52 47L51 47L51 48L53 48L53 46L52 46L52 44L53 44L53 42L52 42L52 44L50 44L50 43L49 43L49 42L50 42L50 41L51 41L51 40L50 40L50 39L51 39L51 36L50 36L50 35L48 35L48 32L50 32L50 31L51 31L51 30L50 30L50 29L52 29L52 31L53 31L53 29L52 29L52 27L53 27L53 26L52 26L52 27L51 27L51 25L52 25L52 23L53 23L53 22L52 22L52 21L53 21L53 18L52 18L52 20L51 20L51 21L50 21L50 16L49 16L49 15L51 15L51 14L50 14L50 13L53 13L53 10L52 10L52 9L53 9L53 8L51 8L51 10L50 10L50 9L49 9L49 8L45 8L45 6L44 6L44 7L43 7L43 3L44 3L44 4L45 4L45 3L44 3L44 1L43 1L43 0L38 0L38 1L39 1L39 2L38 2L38 3L37 3L37 0L36 0L36 2L35 2L35 0L34 0L34 1L33 1L33 0L32 0L32 2L35 2L35 3L34 3L34 7L35 7L35 6L36 6L36 7L37 7L37 6L36 6L36 5L35 5L35 4L36 4L36 3L37 3L37 4L38 4L38 5L39 5L39 6L38 6L38 8L36 8L36 9L35 9L35 10L34 10L34 9L33 9L33 6L32 6L32 9L31 9L31 10L33 10L33 11L34 11L34 13L33 13L33 12L32 12L32 11L30 11L30 9L29 9L29 6L30 6L30 7L31 7L31 6L30 6L30 5L31 5L31 0L30 0L30 2L29 2L29 4L27 4L27 2L28 2L28 1L26 1L26 0L24 0L24 1L23 1L23 0L22 0L22 2L20 2L20 1L21 1L21 0L18 0L18 1L16 1L16 2L18 2L18 1L19 1L19 4L20 4L20 5L18 5L18 3L15 3L15 2L14 2L14 1L15 1L15 0ZM11 1L11 2L10 2L10 3L11 3L11 2L12 2L12 1ZM24 1L24 2L23 2L23 3L22 3L22 4L23 4L23 5L20 5L20 6L19 6L19 8L18 8L18 6L17 6L17 7L16 7L16 5L15 5L15 3L14 3L14 2L13 2L13 5L12 5L12 4L11 4L11 5L12 5L12 6L11 6L11 7L10 7L10 5L9 5L9 10L10 10L10 11L9 11L9 12L7 12L7 11L6 11L6 12L5 12L5 13L4 13L4 12L3 12L3 11L2 11L2 10L3 10L3 9L2 9L2 10L1 10L1 11L2 11L2 12L3 12L3 13L2 13L2 16L1 16L1 17L2 17L2 18L3 18L3 17L4 17L4 19L6 19L6 20L7 20L7 21L5 21L5 22L4 22L4 23L2 23L2 25L3 25L3 24L4 24L4 23L5 23L5 24L7 24L7 23L6 23L6 22L7 22L7 21L9 21L9 22L8 22L8 23L9 23L9 25L11 25L11 27L9 27L9 28L10 28L10 29L11 29L11 28L12 28L12 27L13 27L13 28L14 28L14 27L13 27L13 24L12 24L12 25L11 25L11 24L10 24L10 23L9 23L9 22L10 22L10 20L9 20L9 19L11 19L11 18L12 18L12 19L14 19L14 20L15 20L15 19L14 19L14 18L15 18L15 16L14 16L14 15L16 15L16 14L18 14L18 12L19 12L19 8L20 8L20 6L21 6L21 7L22 7L22 6L23 6L23 9L22 9L22 8L21 8L21 10L20 10L20 11L21 11L21 12L20 12L20 14L19 14L19 15L18 15L18 16L19 16L19 17L18 17L18 18L19 18L19 20L21 20L21 21L20 21L20 22L19 22L19 21L18 21L18 19L17 19L17 18L16 18L16 19L17 19L17 20L16 20L16 23L14 23L14 24L15 24L15 25L14 25L14 26L15 26L15 28L16 28L16 30L13 30L13 29L12 29L12 30L11 30L11 31L12 31L12 30L13 30L13 32L12 32L12 33L10 33L10 32L9 32L9 33L10 33L10 35L11 35L11 36L10 36L10 38L7 38L7 39L6 39L6 40L7 40L7 41L2 41L2 40L1 40L1 41L2 41L2 43L3 43L3 42L9 42L9 43L8 43L8 44L9 44L9 43L10 43L10 42L11 42L11 41L8 41L8 40L11 40L11 38L12 38L12 39L13 39L13 38L15 38L15 39L14 39L14 40L15 40L15 41L14 41L14 42L15 42L15 44L16 44L16 47L17 47L17 46L19 46L19 45L18 45L18 43L19 43L19 40L20 40L20 39L21 39L21 38L24 38L24 37L25 37L25 38L26 38L26 36L27 36L27 39L28 39L28 40L27 40L27 41L28 41L28 42L29 42L29 41L30 41L30 43L28 43L28 44L29 44L29 45L30 45L30 46L29 46L29 47L30 47L30 46L32 46L32 44L33 44L33 45L34 45L34 46L36 46L36 47L39 47L39 45L40 45L40 48L41 48L41 45L40 45L40 44L41 44L41 43L42 43L42 44L44 44L44 43L45 43L45 44L46 44L46 40L47 40L47 41L48 41L48 42L49 42L49 41L48 41L48 40L49 40L49 39L50 39L50 37L49 37L49 36L48 36L48 35L46 35L46 34L47 34L47 32L48 32L48 30L49 30L49 31L50 31L50 30L49 30L49 29L48 29L48 30L47 30L47 29L46 29L46 30L44 30L44 29L43 29L43 28L44 28L44 26L43 26L43 25L44 25L44 24L45 24L45 23L44 23L44 22L45 22L45 17L46 17L46 19L47 19L47 17L46 17L46 15L44 15L44 14L45 14L45 13L44 13L44 14L43 14L43 12L42 12L42 11L40 11L40 10L41 10L41 9L40 9L40 8L41 8L41 7L42 7L42 10L43 10L43 7L42 7L42 4L41 4L41 3L40 3L40 2L41 2L41 1L40 1L40 2L39 2L39 3L40 3L40 5L41 5L41 7L40 7L40 6L39 6L39 7L40 7L40 8L38 8L38 11L35 11L35 13L34 13L34 14L35 14L35 15L36 15L36 16L35 16L35 17L34 17L34 15L33 15L33 14L32 14L32 12L31 12L31 13L30 13L30 11L29 11L29 12L28 12L28 9L27 9L27 11L26 11L26 12L28 12L28 13L30 13L30 14L29 14L29 15L28 15L28 14L27 14L27 13L25 13L25 11L24 11L24 13L22 13L22 11L23 11L23 10L24 10L24 4L25 4L25 1ZM42 2L42 3L43 3L43 2ZM29 4L29 5L30 5L30 4ZM32 4L32 5L33 5L33 4ZM25 5L25 8L28 8L28 5ZM12 6L12 7L11 7L11 8L10 8L10 10L11 10L11 9L12 9L12 10L14 10L14 12L13 12L13 11L10 11L10 12L9 12L9 14L8 14L8 13L7 13L7 12L6 12L6 13L5 13L5 14L6 14L6 15L4 15L4 14L3 14L3 16L4 16L4 17L5 17L5 18L6 18L6 19L8 19L8 18L6 18L6 17L8 17L8 15L9 15L9 17L12 17L12 16L13 16L13 15L12 15L12 16L11 16L11 15L9 15L9 14L11 14L11 12L12 12L12 14L16 14L16 12L15 12L15 10L14 10L14 9L15 9L15 8L14 8L14 7L15 7L15 6L14 6L14 7L13 7L13 6ZM26 6L26 7L27 7L27 6ZM12 8L12 9L13 9L13 8ZM16 8L16 9L17 9L17 8ZM6 9L6 10L7 10L7 9ZM25 9L25 10L26 10L26 9ZM39 9L39 10L40 10L40 9ZM44 9L44 12L46 12L46 11L45 11L45 9ZM46 9L46 10L47 10L47 13L46 13L46 14L48 14L48 9ZM16 10L16 11L17 11L17 12L18 12L18 10ZM51 10L51 11L50 11L50 12L49 12L49 13L50 13L50 12L51 12L51 11L52 11L52 10ZM38 11L38 13L37 13L37 12L36 12L36 13L35 13L35 14L38 14L38 13L39 13L39 11ZM40 12L40 14L39 14L39 16L38 16L38 17L37 17L37 16L36 16L36 17L37 17L37 18L35 18L35 19L34 19L34 17L33 17L33 15L32 15L32 14L31 14L31 15L30 15L30 16L26 16L26 14L24 14L24 15L22 15L22 13L21 13L21 14L20 14L20 17L21 17L21 18L20 18L20 19L21 19L21 18L22 18L22 21L21 21L21 22L20 22L20 24L19 24L19 23L18 23L18 24L19 24L19 26L18 26L18 27L17 27L17 26L16 26L16 27L17 27L17 28L18 28L18 29L19 29L19 28L21 28L21 27L22 27L22 30L23 30L23 31L22 31L22 32L23 32L23 35L22 35L22 34L20 34L20 35L22 35L22 37L24 37L24 35L25 35L25 34L26 34L26 35L27 35L27 36L28 36L28 35L30 35L30 36L29 36L29 38L30 38L30 39L29 39L29 40L28 40L28 41L29 41L29 40L30 40L30 41L31 41L31 40L30 40L30 39L32 39L32 43L30 43L30 45L31 45L31 44L32 44L32 43L34 43L34 44L35 44L35 43L38 43L38 45L39 45L39 44L40 44L40 43L41 43L41 42L42 42L42 43L43 43L43 42L42 42L42 40L43 40L43 41L44 41L44 38L45 38L45 37L46 37L46 39L47 39L47 40L48 40L48 39L49 39L49 38L48 38L48 36L47 36L47 37L46 37L46 36L45 36L45 34L46 34L46 33L45 33L45 32L46 32L46 31L47 31L47 30L46 30L46 31L44 31L44 32L42 32L42 31L43 31L43 30L42 30L42 29L41 29L41 28L40 28L40 26L42 26L42 28L43 28L43 26L42 26L42 25L43 25L43 24L42 24L42 20L44 20L44 19L43 19L43 18L44 18L44 17L45 17L45 16L44 16L44 17L43 17L43 18L42 18L42 16L43 16L43 14L42 14L42 12ZM6 13L6 14L7 14L7 13ZM40 14L40 16L39 16L39 17L38 17L38 19L35 19L35 21L34 21L34 20L33 20L33 21L34 21L34 23L35 23L35 22L37 22L37 21L38 21L38 22L39 22L39 21L40 21L40 22L41 22L41 21L40 21L40 20L39 20L39 21L38 21L38 19L41 19L41 20L42 20L42 19L41 19L41 18L39 18L39 17L40 17L40 16L42 16L42 15L41 15L41 14ZM52 14L52 16L51 16L51 17L52 17L52 16L53 16L53 14ZM6 15L6 16L5 16L5 17L6 17L6 16L7 16L7 15ZM21 15L21 16L22 16L22 15ZM24 15L24 16L25 16L25 15ZM31 15L31 16L30 16L30 19L29 19L29 20L28 20L28 17L27 17L27 19L26 19L26 18L23 18L23 21L22 21L22 24L23 24L23 21L24 21L24 22L25 22L25 23L24 23L24 24L25 24L25 23L26 23L26 24L30 24L30 23L31 23L31 25L30 25L30 27L29 27L29 28L30 28L30 27L31 27L31 29L30 29L30 31L28 31L28 30L27 30L27 29L25 29L25 30L26 30L26 31L25 31L25 33L26 33L26 34L28 34L28 33L26 33L26 31L28 31L28 32L29 32L29 33L30 33L30 35L33 35L33 33L32 33L32 32L34 32L34 35L35 35L35 32L34 32L34 31L32 31L32 30L33 30L33 29L32 29L32 28L34 28L34 30L35 30L35 28L34 28L34 26L35 26L35 25L36 25L36 27L37 27L37 25L38 25L38 27L39 27L39 26L40 26L40 24L41 24L41 25L42 25L42 24L41 24L41 23L36 23L36 24L34 24L34 26L33 26L33 25L32 25L32 23L33 23L33 22L32 22L32 20L30 20L30 19L31 19L31 18L32 18L32 19L33 19L33 18L32 18L32 15ZM48 17L48 20L46 20L46 23L47 23L47 24L49 24L49 23L50 23L50 25L49 25L49 26L50 26L50 25L51 25L51 23L52 23L52 22L51 22L51 23L50 23L50 22L49 22L49 21L48 21L48 20L49 20L49 17ZM25 19L25 20L24 20L24 21L25 21L25 22L26 22L26 23L30 23L30 20L29 20L29 21L28 21L28 20L27 20L27 21L25 21L25 20L26 20L26 19ZM36 20L36 21L37 21L37 20ZM11 21L11 22L12 22L12 21ZM17 21L17 22L18 22L18 21ZM47 21L47 22L48 22L48 21ZM16 23L16 25L17 25L17 23ZM36 24L36 25L37 25L37 24ZM38 24L38 25L39 25L39 24ZM5 25L5 28L8 28L8 25ZM21 25L21 26L20 26L20 27L21 27L21 26L24 26L24 25ZM25 25L25 28L28 28L28 25ZM31 25L31 27L32 27L32 25ZM45 25L45 28L48 28L48 25ZM3 26L3 27L4 27L4 26ZM6 26L6 27L7 27L7 26ZM26 26L26 27L27 27L27 26ZM46 26L46 27L47 27L47 26ZM50 27L50 28L51 28L51 27ZM23 28L23 30L24 30L24 28ZM38 28L38 31L37 31L37 32L38 32L38 34L37 34L37 35L36 35L36 36L34 36L34 39L33 39L33 37L32 37L32 39L33 39L33 40L34 40L34 39L35 39L35 41L34 41L34 43L35 43L35 41L36 41L36 38L35 38L35 37L36 37L36 36L37 36L37 37L38 37L38 38L40 38L40 39L41 39L41 38L40 38L40 35L41 35L41 36L42 36L42 38L43 38L43 36L42 36L42 35L43 35L43 33L42 33L42 35L41 35L41 34L40 34L40 32L41 32L41 31L42 31L42 30L40 30L40 28ZM6 29L6 30L9 30L9 31L10 31L10 30L9 30L9 29ZM36 29L36 30L37 30L37 29ZM16 30L16 32L15 32L15 31L14 31L14 32L15 32L15 34L13 34L13 33L12 33L12 35L15 35L15 36L14 36L14 37L15 37L15 38L16 38L16 36L17 36L17 35L16 35L16 34L18 34L18 38L19 38L19 39L18 39L18 40L19 40L19 39L20 39L20 38L19 38L19 34L18 34L18 33L19 33L19 32L18 32L18 31L21 31L21 30ZM39 30L39 31L38 31L38 32L40 32L40 30ZM23 31L23 32L24 32L24 31ZM20 32L20 33L21 33L21 32ZM30 32L30 33L31 33L31 32ZM44 33L44 34L45 34L45 33ZM49 33L49 34L51 34L51 33ZM38 34L38 35L37 35L37 36L38 36L38 37L39 37L39 35L40 35L40 34ZM52 34L52 35L53 35L53 34ZM3 36L3 37L4 37L4 36ZM11 36L11 37L13 37L13 36ZM30 36L30 38L31 38L31 36ZM52 37L52 39L53 39L53 37ZM3 38L3 40L4 40L4 39L5 39L5 38ZM7 39L7 40L8 40L8 39ZM15 39L15 40L16 40L16 41L17 41L17 39ZM22 39L22 40L23 40L23 41L22 41L22 43L23 43L23 44L25 44L25 40L26 40L26 39L25 39L25 40L23 40L23 39ZM38 39L38 42L39 42L39 41L40 41L40 42L41 42L41 41L40 41L40 40L39 40L39 39ZM12 40L12 42L13 42L13 40ZM52 40L52 41L53 41L53 40ZM23 41L23 43L24 43L24 41ZM16 42L16 43L18 43L18 42ZM20 42L20 43L21 43L21 42ZM47 43L47 44L49 44L49 43ZM36 44L36 46L37 46L37 44ZM25 45L25 48L28 48L28 45ZM42 45L42 46L43 46L43 47L44 47L44 46L43 46L43 45ZM45 45L45 48L48 48L48 45ZM49 45L49 46L50 46L50 45ZM26 46L26 47L27 47L27 46ZM46 46L46 47L47 47L47 46ZM32 47L32 48L30 48L30 52L31 52L31 50L32 50L32 51L33 51L33 49L32 49L32 48L34 48L34 50L35 50L35 47ZM9 49L9 50L8 50L8 53L9 53L9 52L11 52L11 50L10 50L10 49ZM13 50L13 51L14 51L14 52L15 52L15 50ZM16 50L16 51L17 51L17 50ZM20 50L20 51L21 51L21 50ZM20 52L20 53L21 53L21 52ZM22 52L22 53L23 53L23 52ZM52 52L52 53L53 53L53 52ZM0 0L0 7L7 7L7 0ZM1 1L1 6L6 6L6 1ZM2 2L2 5L5 5L5 2ZM46 0L46 7L53 7L53 0ZM47 1L47 6L52 6L52 1ZM48 2L48 5L51 5L51 2ZM0 46L0 53L7 53L7 46ZM1 47L1 52L6 52L6 47ZM2 48L2 51L5 51L5 48Z" fill="#000000"/></g></g></svg>
