<?xml version="1.0" encoding="UTF-8"?>
<svg xmlns="http://www.w3.org/2000/svg" version="1.1" width="356" height="356" viewBox="0 0 356 356"><rect x="0" y="0" width="356" height="356" fill="#ffffff"/><g transform="scale(6.717)"><g transform="translate(0,0)"><path fill-rule="evenodd" d="M8 0L8 2L9 2L9 4L8 4L8 9L7 9L7 8L5 8L5 10L4 10L4 11L3 11L3 8L0 8L0 9L1 9L1 11L0 11L0 13L2 13L2 14L0 14L0 16L1 16L1 15L2 15L2 20L1 20L1 19L0 19L0 22L1 22L1 23L0 23L0 25L1 25L1 26L0 26L0 28L2 28L2 27L3 27L3 29L4 29L4 31L3 31L3 30L2 30L2 32L0 32L0 34L1 34L1 35L2 35L2 34L1 34L1 33L2 33L2 32L3 32L3 33L4 33L4 34L3 34L3 35L4 35L4 36L2 36L2 37L1 37L1 36L0 36L0 38L1 38L1 40L0 40L0 43L1 43L1 44L3 44L3 45L4 45L4 44L3 44L3 43L7 43L7 44L6 44L6 45L7 45L7 44L8 44L8 43L9 43L9 45L8 45L8 46L10 46L10 47L8 47L8 48L10 48L10 50L11 50L11 51L10 51L10 52L9 52L9 50L8 50L8 53L13 53L13 52L14 52L14 51L15 51L15 53L16 53L16 52L18 52L18 53L19 53L19 52L18 52L18 49L19 49L19 48L20 48L20 49L21 49L21 48L20 48L20 47L21 47L21 46L22 46L22 45L23 45L23 44L24 44L24 46L23 46L23 47L22 47L22 48L23 48L23 49L27 49L27 51L26 51L26 52L24 52L24 53L26 53L26 52L27 52L27 51L28 51L28 49L30 49L30 48L29 48L29 47L30 47L30 45L31 45L31 46L32 46L32 47L31 47L31 48L32 48L32 49L33 49L33 51L34 51L34 52L32 52L32 53L34 53L34 52L35 52L35 51L37 51L37 52L36 52L36 53L37 53L37 52L38 52L38 51L39 51L39 53L41 53L41 51L40 51L40 49L41 49L41 50L42 50L42 49L43 49L43 50L44 50L44 51L42 51L42 53L44 53L44 51L45 51L45 52L46 52L46 53L49 53L49 52L50 52L50 51L51 51L51 50L50 50L50 51L49 51L49 48L50 48L50 46L51 46L51 45L52 45L52 44L53 44L53 42L52 42L52 44L50 44L50 43L49 43L49 42L50 42L50 41L51 41L51 40L52 40L52 41L53 41L53 38L52 38L52 39L51 39L51 36L50 36L50 35L51 35L51 33L49 33L49 32L50 32L50 31L51 31L51 32L52 32L52 31L53 31L53 29L52 29L52 27L53 27L53 26L52 26L52 27L51 27L51 26L50 26L50 27L49 27L49 25L50 25L50 23L51 23L51 24L52 24L52 25L53 25L53 24L52 24L52 23L53 23L53 22L52 22L52 23L51 23L51 21L53 21L53 18L52 18L52 20L51 20L51 21L49 21L49 20L48 20L48 17L49 17L49 18L50 18L50 19L51 19L51 17L50 17L50 16L49 16L49 15L51 15L51 14L52 14L52 16L53 16L53 10L52 10L52 9L53 9L53 8L51 8L51 9L50 9L50 10L49 10L49 8L45 8L45 6L44 6L44 7L43 7L43 3L44 3L44 4L45 4L45 3L44 3L44 1L43 1L43 0L38 0L38 1L37 1L37 0L36 0L36 3L35 3L35 0L34 0L34 1L33 1L33 0L32 0L32 2L33 2L33 4L32 4L32 3L31 3L31 4L30 4L30 5L31 5L31 6L30 6L30 7L29 7L29 4L28 4L28 3L30 3L30 1L31 1L31 0L30 0L30 1L29 1L29 2L28 2L28 3L27 3L27 0L24 0L24 1L22 1L22 0L18 0L18 1L16 1L16 2L18 2L18 1L19 1L19 4L20 4L20 5L18 5L18 3L15 3L15 5L16 5L16 7L17 7L17 6L18 6L18 8L19 8L19 12L18 12L18 10L16 10L16 11L17 11L17 12L18 12L18 14L16 14L16 12L14 12L14 11L15 11L15 10L14 10L14 9L15 9L15 8L14 8L14 7L15 7L15 6L14 6L14 7L13 7L13 4L12 4L12 2L11 2L11 1L9 1L9 0ZM13 0L13 1L15 1L15 0ZM20 1L20 2L21 2L21 3L22 3L22 4L23 4L23 7L22 7L22 5L20 5L20 6L19 6L19 8L20 8L20 6L21 6L21 7L22 7L22 8L21 8L21 10L20 10L20 11L22 11L22 12L20 12L20 14L19 14L19 15L18 15L18 16L19 16L19 17L18 17L18 18L19 18L19 20L21 20L21 21L20 21L20 22L19 22L19 21L18 21L18 19L17 19L17 18L16 18L16 19L17 19L17 20L16 20L16 23L14 23L14 24L15 24L15 25L14 25L14 26L15 26L15 28L16 28L16 30L13 30L13 29L12 29L12 30L11 30L11 31L10 31L10 29L11 29L11 28L12 28L12 27L13 27L13 28L14 28L14 27L13 27L13 25L12 25L12 24L13 24L13 23L12 23L12 22L13 22L13 21L12 21L12 20L11 20L11 19L12 19L12 16L11 16L11 18L9 18L9 17L10 17L10 16L9 16L9 15L13 15L13 19L14 19L14 20L15 20L15 19L14 19L14 18L15 18L15 16L14 16L14 15L16 15L16 14L10 14L10 12L9 12L9 11L11 11L11 13L12 13L12 11L11 11L11 10L12 10L12 9L13 9L13 7L12 7L12 5L11 5L11 7L10 7L10 6L9 6L9 7L10 7L10 8L9 8L9 9L10 9L10 10L9 10L9 11L8 11L8 10L7 10L7 9L6 9L6 10L5 10L5 13L4 13L4 14L7 14L7 13L6 13L6 12L7 12L7 11L8 11L8 13L9 13L9 14L8 14L8 15L5 15L5 16L4 16L4 15L3 15L3 16L4 16L4 17L3 17L3 19L4 19L4 20L2 20L2 23L1 23L1 25L3 25L3 26L4 26L4 25L3 25L3 24L2 24L2 23L5 23L5 22L7 22L7 23L6 23L6 24L7 24L7 23L8 23L8 24L9 24L9 25L12 25L12 27L11 27L11 26L9 26L9 27L11 27L11 28L10 28L10 29L8 29L8 31L6 31L6 32L7 32L7 33L5 33L5 34L8 34L8 35L9 35L9 34L10 34L10 35L11 35L11 36L7 36L7 35L6 35L6 36L5 36L5 37L6 37L6 38L5 38L5 39L4 39L4 37L3 37L3 38L2 38L2 39L4 39L4 41L3 41L3 40L2 40L2 41L1 41L1 42L2 42L2 43L3 43L3 42L4 42L4 41L5 41L5 42L7 42L7 43L8 43L8 42L7 42L7 41L6 41L6 40L8 40L8 39L10 39L10 41L12 41L12 42L9 42L9 43L10 43L10 46L12 46L12 47L13 47L13 48L12 48L12 49L11 49L11 50L13 50L13 51L14 51L14 50L13 50L13 49L14 49L14 47L15 47L15 48L16 48L16 47L17 47L17 46L19 46L19 47L18 47L18 48L19 48L19 47L20 47L20 46L21 46L21 45L22 45L22 44L23 44L23 43L22 43L22 42L24 42L24 43L25 43L25 42L26 42L26 44L27 44L27 42L29 42L29 43L28 43L28 44L29 44L29 45L30 45L30 43L32 43L32 44L31 44L31 45L32 45L32 44L33 44L33 45L34 45L34 46L33 46L33 47L32 47L32 48L34 48L34 50L36 50L36 48L37 48L37 47L38 47L38 50L37 50L37 51L38 51L38 50L39 50L39 49L40 49L40 48L41 48L41 47L42 47L42 48L44 48L44 46L43 46L43 43L44 43L44 42L45 42L45 43L46 43L46 42L47 42L47 44L48 44L48 42L49 42L49 41L48 41L48 40L49 40L49 39L50 39L50 40L51 40L51 39L50 39L50 36L48 36L48 35L50 35L50 34L49 34L49 33L48 33L48 30L49 30L49 31L50 31L50 30L51 30L51 29L50 29L50 30L49 30L49 29L48 29L48 30L47 30L47 29L46 29L46 30L45 30L45 29L44 29L44 30L43 30L43 29L42 29L42 26L43 26L43 28L44 28L44 25L42 25L42 23L44 23L44 22L45 22L45 21L46 21L46 23L47 23L47 24L49 24L49 23L50 23L50 22L49 22L49 21L48 21L48 20L47 20L47 21L46 21L46 19L47 19L47 17L46 17L46 14L48 14L48 15L49 15L49 14L48 14L48 9L46 9L46 10L47 10L47 13L46 13L46 14L45 14L45 13L44 13L44 15L43 15L43 17L42 17L42 19L41 19L41 21L40 21L40 18L41 18L41 17L40 17L40 16L41 16L41 15L42 15L42 14L43 14L43 13L42 13L42 12L41 12L41 9L42 9L42 11L43 11L43 12L46 12L46 11L44 11L44 10L45 10L45 8L43 8L43 7L42 7L42 4L41 4L41 1L39 1L39 2L38 2L38 3L36 3L36 4L35 4L35 3L34 3L34 4L35 4L35 5L36 5L36 4L37 4L37 7L36 7L36 6L35 6L35 7L34 7L34 6L33 6L33 5L32 5L32 4L31 4L31 5L32 5L32 6L31 6L31 7L30 7L30 8L29 8L29 9L28 9L28 10L27 10L27 9L24 9L24 10L23 10L23 9L22 9L22 8L24 8L24 3L25 3L25 4L26 4L26 1L24 1L24 3L23 3L23 2L22 2L22 1ZM10 2L10 3L11 3L11 2ZM42 2L42 3L43 3L43 2ZM38 3L38 5L39 5L39 4L40 4L40 7L39 7L39 6L38 6L38 7L39 7L39 8L36 8L36 9L35 9L35 10L34 10L34 9L33 9L33 6L32 6L32 9L31 9L31 10L33 10L33 12L32 12L32 14L31 14L31 15L30 15L30 13L31 13L31 11L30 11L30 9L29 9L29 10L28 10L28 12L27 12L27 13L26 13L26 10L24 10L24 11L23 11L23 10L22 10L22 11L23 11L23 12L22 12L22 13L21 13L21 14L20 14L20 17L21 17L21 18L20 18L20 19L21 19L21 20L22 20L22 22L20 22L20 24L19 24L19 23L18 23L18 24L19 24L19 26L18 26L18 27L17 27L17 26L16 26L16 27L17 27L17 28L18 28L18 29L19 29L19 28L21 28L21 27L20 27L20 26L21 26L21 25L23 25L23 26L22 26L22 27L23 27L23 26L24 26L24 30L23 30L23 31L22 31L22 32L23 32L23 33L24 33L24 34L22 34L22 38L19 38L19 34L18 34L18 33L19 33L19 32L18 32L18 31L21 31L21 30L22 30L22 29L23 29L23 28L22 28L22 29L21 29L21 30L16 30L16 32L15 32L15 31L14 31L14 32L15 32L15 34L13 34L13 32L12 32L12 31L13 31L13 30L12 30L12 31L11 31L11 32L10 32L10 31L9 31L9 32L8 32L8 34L9 34L9 33L10 33L10 34L11 34L11 33L12 33L12 34L13 34L13 35L12 35L12 36L11 36L11 37L13 37L13 35L15 35L15 36L14 36L14 37L15 37L15 38L13 38L13 42L12 42L12 43L13 43L13 44L14 44L14 41L15 41L15 40L16 40L16 41L17 41L17 39L15 39L15 38L16 38L16 36L17 36L17 35L16 35L16 34L18 34L18 38L19 38L19 39L18 39L18 40L19 40L19 43L18 43L18 42L16 42L16 43L18 43L18 45L19 45L19 46L20 46L20 45L21 45L21 43L20 43L20 42L22 42L22 41L23 41L23 40L25 40L25 36L26 36L26 37L28 37L28 35L29 35L29 34L30 34L30 35L31 35L31 36L29 36L29 38L30 38L30 39L29 39L29 40L28 40L28 41L30 41L30 39L31 39L31 38L32 38L32 43L34 43L34 44L35 44L35 43L34 43L34 41L35 41L35 42L36 42L36 45L35 45L35 46L34 46L34 47L35 47L35 46L36 46L36 45L37 45L37 46L38 46L38 45L39 45L39 46L40 46L40 47L41 47L41 46L42 46L42 47L43 47L43 46L42 46L42 45L41 45L41 44L42 44L42 43L41 43L41 44L40 44L40 43L38 43L38 45L37 45L37 42L38 42L38 41L39 41L39 42L40 42L40 41L41 41L41 40L42 40L42 41L44 41L44 40L46 40L46 41L45 41L45 42L46 42L46 41L47 41L47 42L48 42L48 41L47 41L47 40L48 40L48 39L49 39L49 38L48 38L48 36L46 36L46 37L47 37L47 38L46 38L46 39L43 39L43 38L42 38L42 37L44 37L44 38L45 38L45 37L44 37L44 36L45 36L45 34L46 34L46 35L48 35L48 33L47 33L47 34L46 34L46 33L45 33L45 32L47 32L47 30L46 30L46 31L45 31L45 30L44 30L44 32L42 32L42 31L43 31L43 30L42 30L42 29L41 29L41 26L42 26L42 25L41 25L41 24L40 24L40 22L38 22L38 21L39 21L39 18L40 18L40 17L39 17L39 16L38 16L38 11L37 11L37 9L39 9L39 10L40 10L40 9L41 9L41 4L40 4L40 3ZM9 4L9 5L10 5L10 4ZM25 5L25 8L28 8L28 5ZM26 6L26 7L27 7L27 6ZM10 8L10 9L11 9L11 8ZM16 8L16 9L17 9L17 8ZM6 10L6 11L7 11L7 10ZM50 10L50 12L51 12L51 11L52 11L52 10ZM1 11L1 12L3 12L3 11ZM24 11L24 12L23 12L23 13L24 13L24 16L23 16L23 17L24 17L24 18L22 18L22 20L23 20L23 22L22 22L22 24L23 24L23 23L24 23L24 24L25 24L25 23L24 23L24 22L25 22L25 21L26 21L26 20L27 20L27 21L28 21L28 22L26 22L26 24L27 24L27 23L28 23L28 24L31 24L31 25L30 25L30 26L29 26L29 27L30 27L30 28L29 28L29 31L28 31L28 32L27 32L27 34L29 34L29 31L30 31L30 32L31 32L31 33L30 33L30 34L31 34L31 35L33 35L33 33L32 33L32 32L34 32L34 39L33 39L33 40L34 40L34 39L35 39L35 41L36 41L36 42L37 42L37 41L38 41L38 40L39 40L39 39L38 39L38 40L37 40L37 38L36 38L36 36L37 36L37 37L38 37L38 38L40 38L40 39L42 39L42 40L43 40L43 39L42 39L42 38L40 38L40 36L41 36L41 37L42 37L42 36L41 36L41 35L40 35L40 36L39 36L39 37L38 37L38 36L37 36L37 35L36 35L36 34L37 34L37 33L38 33L38 34L41 34L41 33L40 33L40 32L41 32L41 31L40 31L40 30L41 30L41 29L40 29L40 24L38 24L38 27L37 27L37 25L36 25L36 24L37 24L37 23L38 23L38 22L37 22L37 21L38 21L38 20L37 20L37 19L36 19L36 20L34 20L34 23L35 23L35 21L36 21L36 24L34 24L34 26L33 26L33 25L32 25L32 23L33 23L33 22L32 22L32 20L30 20L30 19L31 19L31 18L32 18L32 19L33 19L33 18L32 18L32 15L33 15L33 17L34 17L34 19L35 19L35 18L37 18L37 17L38 17L38 18L39 18L39 17L38 17L38 16L37 16L37 13L36 13L36 11L34 11L34 12L33 12L33 13L34 13L34 14L35 14L35 13L36 13L36 16L35 16L35 17L34 17L34 15L33 15L33 14L32 14L32 15L31 15L31 16L30 16L30 15L29 15L29 17L30 17L30 18L29 18L29 19L28 19L28 18L27 18L27 17L28 17L28 16L27 16L27 14L26 14L26 13L25 13L25 11ZM39 11L39 12L40 12L40 13L39 13L39 14L40 14L40 13L41 13L41 14L42 14L42 13L41 13L41 12L40 12L40 11ZM28 12L28 13L30 13L30 12ZM34 12L34 13L35 13L35 12ZM50 13L50 14L51 14L51 13ZM22 14L22 15L21 15L21 16L22 16L22 15L23 15L23 14ZM25 14L25 16L24 16L24 17L27 17L27 16L26 16L26 14ZM44 15L44 17L43 17L43 18L44 18L44 17L45 17L45 19L44 19L44 20L45 20L45 19L46 19L46 17L45 17L45 15ZM5 16L5 18L4 18L4 19L5 19L5 21L4 21L4 22L5 22L5 21L8 21L8 19L9 19L9 18L8 18L8 19L7 19L7 18L6 18L6 17L7 17L7 16ZM36 16L36 17L37 17L37 16ZM6 19L6 20L7 20L7 19ZM23 19L23 20L24 20L24 21L25 21L25 20L26 20L26 19L25 19L25 20L24 20L24 19ZM27 19L27 20L28 20L28 19ZM42 19L42 21L41 21L41 22L42 22L42 21L43 21L43 22L44 22L44 21L43 21L43 19ZM29 20L29 22L28 22L28 23L29 23L29 22L30 22L30 23L31 23L31 22L30 22L30 20ZM36 20L36 21L37 21L37 20ZM9 21L9 22L8 22L8 23L9 23L9 22L11 22L11 21ZM17 21L17 22L18 22L18 21ZM48 22L48 23L49 23L49 22ZM16 23L16 25L17 25L17 23ZM5 25L5 28L8 28L8 25ZM25 25L25 28L28 28L28 25ZM31 25L31 26L30 26L30 27L32 27L32 25ZM35 25L35 26L34 26L34 27L33 27L33 28L32 28L32 30L31 30L31 31L32 31L32 30L33 30L33 31L34 31L34 32L35 32L35 34L36 34L36 33L37 33L37 31L38 31L38 32L39 32L39 31L38 31L38 29L39 29L39 27L38 27L38 29L37 29L37 27L36 27L36 25ZM45 25L45 28L48 28L48 25ZM1 26L1 27L2 27L2 26ZM6 26L6 27L7 27L7 26ZM26 26L26 27L27 27L27 26ZM46 26L46 27L47 27L47 26ZM50 27L50 28L51 28L51 27ZM30 28L30 29L31 29L31 28ZM33 28L33 29L34 29L34 30L35 30L35 29L36 29L36 31L37 31L37 29L36 29L36 28L35 28L35 29L34 29L34 28ZM6 29L6 30L7 30L7 29ZM26 29L26 30L27 30L27 29ZM24 30L24 31L25 31L25 30ZM20 32L20 33L21 33L21 32ZM25 32L25 33L26 33L26 32ZM42 33L42 34L43 34L43 36L44 36L44 34L45 34L45 33L44 33L44 34L43 34L43 33ZM20 34L20 35L21 35L21 34ZM24 34L24 35L26 35L26 34ZM52 34L52 35L53 35L53 34ZM6 36L6 37L7 37L7 36ZM31 36L31 37L30 37L30 38L31 38L31 37L32 37L32 38L33 38L33 37L32 37L32 36ZM23 37L23 38L24 38L24 37ZM6 38L6 39L7 39L7 38ZM10 38L10 39L11 39L11 40L12 40L12 39L11 39L11 38ZM26 38L26 39L27 39L27 38ZM35 38L35 39L36 39L36 38ZM14 39L14 40L15 40L15 39ZM20 39L20 40L21 40L21 39ZM22 39L22 40L23 40L23 39ZM46 39L46 40L47 40L47 39ZM26 40L26 42L27 42L27 40ZM36 40L36 41L37 41L37 40ZM2 41L2 42L3 42L3 41ZM24 41L24 42L25 42L25 41ZM11 44L11 45L12 45L12 44ZM15 44L15 45L14 45L14 46L13 46L13 47L14 47L14 46L15 46L15 47L16 47L16 44ZM19 44L19 45L20 45L20 44ZM39 44L39 45L40 45L40 46L41 46L41 45L40 45L40 44ZM49 44L49 46L50 46L50 44ZM25 45L25 48L28 48L28 45ZM45 45L45 48L48 48L48 45ZM26 46L26 47L27 47L27 46ZM46 46L46 47L47 47L47 46ZM52 46L52 48L53 48L53 46ZM44 49L44 50L45 50L45 51L46 51L46 52L49 52L49 51L48 51L48 49ZM16 50L16 51L17 51L17 50ZM20 50L20 51L23 51L23 50ZM24 50L24 51L25 51L25 50ZM31 50L31 51L30 51L30 52L28 52L28 53L30 53L30 52L31 52L31 51L32 51L32 50ZM46 50L46 51L47 51L47 50ZM11 51L11 52L12 52L12 51ZM20 52L20 53L21 53L21 52ZM22 52L22 53L23 53L23 52ZM52 52L52 53L53 53L53 52ZM0 0L0 7L7 7L7 0ZM1 1L1 6L6 6L6 1ZM2 2L2 5L5 5L5 2ZM46 0L46 7L53 7L53 0ZM47 1L47 6L52 6L52 1ZM48 2L48 5L51 5L51 2ZM0 46L0 53L7 53L7 46ZM1 47L1 52L6 52L6 47ZM2 48L2 51L5 51L5 48Z" fill="#000000"/></g></g></svg>
