<?xml version="1.0" encoding="UTF-8"?>
<svg xmlns="http://www.w3.org/2000/svg" version="1.1" width="356" height="356" viewBox="0 0 356 356"><rect x="0" y="0" width="356" height="356" fill="#ffffff"/><g transform="scale(6.717)"><g transform="translate(0,0)"><path fill-rule="evenodd" d="M8 0L8 2L9 2L9 0ZM11 0L11 1L10 1L10 2L12 2L12 1L15 1L15 0ZM18 0L18 1L16 1L16 2L18 2L18 1L19 1L19 4L20 4L20 5L18 5L18 3L15 3L15 5L16 5L16 7L17 7L17 6L18 6L18 8L19 8L19 12L18 12L18 10L16 10L16 11L17 11L17 12L18 12L18 14L16 14L16 12L15 12L15 10L14 10L14 9L15 9L15 8L14 8L14 7L15 7L15 6L14 6L14 7L13 7L13 5L11 5L11 3L9 3L9 4L8 4L8 9L7 9L7 8L5 8L5 9L4 9L4 11L3 11L3 10L2 10L2 12L1 12L1 11L0 11L0 12L1 12L1 14L0 14L0 16L1 16L1 17L2 17L2 15L3 15L3 17L5 17L5 19L4 19L4 18L2 18L2 20L4 20L4 21L3 21L3 22L4 22L4 25L3 25L3 23L1 23L1 22L2 22L2 21L1 21L1 19L0 19L0 23L1 23L1 24L2 24L2 25L0 25L0 28L2 28L2 30L3 30L3 29L4 29L4 30L5 30L5 29L7 29L7 30L6 30L6 31L5 31L5 32L4 32L4 31L3 31L3 32L2 32L2 31L1 31L1 32L2 32L2 33L3 33L3 34L4 34L4 33L9 33L9 37L8 37L8 35L7 35L7 34L6 34L6 35L7 35L7 36L5 36L5 35L3 35L3 36L2 36L2 34L1 34L1 33L0 33L0 36L2 36L2 37L0 37L0 38L1 38L1 39L0 39L0 40L2 40L2 39L3 39L3 40L4 40L4 41L7 41L7 42L3 42L3 41L2 41L2 42L1 42L1 41L0 41L0 43L1 43L1 44L3 44L3 45L4 45L4 44L3 44L3 43L7 43L7 44L6 44L6 45L7 45L7 44L9 44L9 45L8 45L8 46L9 46L9 45L10 45L10 46L11 46L11 48L10 48L10 49L13 49L13 47L16 47L16 48L15 48L15 53L16 53L16 52L18 52L18 53L19 53L19 52L18 52L18 49L19 49L19 48L20 48L20 49L21 49L21 48L20 48L20 47L21 47L21 46L22 46L22 45L23 45L23 43L24 43L24 42L25 42L25 43L26 43L26 44L24 44L24 46L23 46L23 47L22 47L22 48L23 48L23 50L22 50L22 51L23 51L23 52L22 52L22 53L23 53L23 52L24 52L24 53L26 53L26 52L28 52L28 53L33 53L33 52L34 52L34 53L35 53L35 52L36 52L36 53L37 53L37 52L38 52L38 53L39 53L39 52L40 52L40 53L41 53L41 52L42 52L42 53L44 53L44 52L45 52L45 53L50 53L50 51L51 51L51 50L50 50L50 49L49 49L49 48L50 48L50 46L51 46L51 45L52 45L52 44L53 44L53 42L52 42L52 44L51 44L51 45L50 45L50 43L51 43L51 42L50 42L50 41L51 41L51 40L50 40L50 39L51 39L51 38L52 38L52 39L53 39L53 38L52 38L52 37L51 37L51 36L50 36L50 35L49 35L49 34L51 34L51 33L52 33L52 32L53 32L53 29L52 29L52 27L53 27L53 26L52 26L52 27L51 27L51 25L52 25L52 24L53 24L53 22L52 22L52 24L51 24L51 25L50 25L50 23L51 23L51 21L53 21L53 18L52 18L52 20L51 20L51 21L49 21L49 20L50 20L50 19L51 19L51 17L50 17L50 16L49 16L49 15L51 15L51 16L52 16L52 15L53 15L53 10L52 10L52 9L53 9L53 8L51 8L51 9L50 9L50 10L49 10L49 8L45 8L45 6L44 6L44 7L43 7L43 3L44 3L44 4L45 4L45 3L44 3L44 1L43 1L43 0L42 0L42 2L41 2L41 4L40 4L40 5L39 5L39 1L41 1L41 0L36 0L36 2L35 2L35 0L34 0L34 1L33 1L33 0L32 0L32 2L33 2L33 4L32 4L32 5L31 5L31 4L30 4L30 5L29 5L29 4L27 4L27 3L31 3L31 2L30 2L30 1L31 1L31 0L30 0L30 1L29 1L29 0L28 0L28 1L27 1L27 0L24 0L24 2L25 2L25 4L24 4L24 3L23 3L23 2L22 2L22 0ZM20 1L20 2L21 2L21 5L20 5L20 6L19 6L19 8L20 8L20 6L21 6L21 7L22 7L22 8L21 8L21 10L20 10L20 11L21 11L21 12L20 12L20 14L19 14L19 15L18 15L18 16L19 16L19 17L18 17L18 18L19 18L19 20L21 20L21 21L20 21L20 22L19 22L19 21L18 21L18 19L17 19L17 18L16 18L16 19L17 19L17 20L16 20L16 23L14 23L14 24L15 24L15 25L14 25L14 26L15 26L15 28L16 28L16 30L13 30L13 29L12 29L12 30L13 30L13 31L12 31L12 33L11 33L11 35L10 35L10 37L9 37L9 39L8 39L8 37L6 37L6 38L5 38L5 36L3 36L3 37L2 37L2 38L3 38L3 39L4 39L4 38L5 38L5 40L8 40L8 42L9 42L9 44L10 44L10 42L12 42L12 43L13 43L13 44L11 44L11 45L12 45L12 47L13 47L13 44L16 44L16 47L17 47L17 46L19 46L19 47L18 47L18 48L19 48L19 47L20 47L20 46L21 46L21 45L22 45L22 42L24 42L24 41L25 41L25 42L26 42L26 43L27 43L27 42L26 42L26 40L27 40L27 37L26 37L26 35L28 35L28 37L30 37L30 38L28 38L28 44L30 44L30 46L29 46L29 49L28 49L28 52L29 52L29 51L30 51L30 52L31 52L31 50L32 50L32 51L33 51L33 49L32 49L32 48L34 48L34 50L35 50L35 51L36 51L36 52L37 52L37 51L38 51L38 52L39 52L39 51L38 51L38 50L40 50L40 51L41 51L41 50L40 50L40 48L41 48L41 47L40 47L40 46L39 46L39 45L40 45L40 44L42 44L42 46L43 46L43 47L42 47L42 50L43 50L43 51L42 51L42 52L44 52L44 50L46 50L46 52L49 52L49 51L48 51L48 49L47 49L47 50L46 50L46 49L44 49L44 46L43 46L43 44L42 44L42 43L41 43L41 42L40 42L40 39L41 39L41 37L42 37L42 40L41 40L41 41L42 41L42 42L43 42L43 43L46 43L46 42L47 42L47 41L48 41L48 42L49 42L49 41L48 41L48 40L49 40L49 39L50 39L50 37L49 37L49 36L48 36L48 34L49 34L49 33L51 33L51 32L52 32L52 29L50 29L50 30L49 30L49 29L48 29L48 30L47 30L47 29L44 29L44 30L45 30L45 33L46 33L46 30L47 30L47 33L48 33L48 34L47 34L47 35L46 35L46 34L45 34L45 36L46 36L46 37L47 37L47 36L48 36L48 38L49 38L49 39L48 39L48 40L46 40L46 42L45 42L45 41L44 41L44 42L43 42L43 41L42 41L42 40L44 40L44 39L46 39L46 38L45 38L45 37L44 37L44 38L43 38L43 37L42 37L42 35L41 35L41 34L40 34L40 35L39 35L39 33L40 33L40 30L39 30L39 29L40 29L40 28L42 28L42 27L43 27L43 28L44 28L44 24L45 24L45 23L44 23L44 22L45 22L45 20L46 20L46 22L48 22L48 23L47 23L47 24L49 24L49 23L50 23L50 22L48 22L48 20L49 20L49 19L50 19L50 18L49 18L49 17L48 17L48 19L47 19L47 17L46 17L46 14L48 14L48 15L49 15L49 14L48 14L48 9L46 9L46 10L47 10L47 13L46 13L46 14L45 14L45 13L44 13L44 14L45 14L45 17L44 17L44 15L43 15L43 12L45 12L45 8L43 8L43 7L42 7L42 6L41 6L41 8L43 8L43 9L42 9L42 10L40 10L40 9L38 9L38 8L39 8L39 7L40 7L40 6L39 6L39 5L38 5L38 3L37 3L37 2L36 2L36 5L35 5L35 7L34 7L34 6L33 6L33 9L34 9L34 10L35 10L35 9L36 9L36 8L37 8L37 9L38 9L38 15L40 15L40 16L39 16L39 17L38 17L38 18L37 18L37 17L36 17L36 16L37 16L37 13L36 13L36 12L35 12L35 11L33 11L33 10L31 10L31 9L32 9L32 6L31 6L31 5L30 5L30 6L29 6L29 7L30 7L30 8L31 8L31 9L30 9L30 10L31 10L31 13L30 13L30 11L28 11L28 10L29 10L29 9L28 9L28 10L27 10L27 9L26 9L26 10L25 10L25 9L24 9L24 4L23 4L23 3L22 3L22 2L21 2L21 1ZM26 1L26 2L27 2L27 1ZM28 1L28 2L29 2L29 1ZM13 2L13 3L14 3L14 2ZM42 2L42 3L43 3L43 2ZM41 4L41 5L42 5L42 4ZM9 5L9 7L10 7L10 9L11 9L11 8L13 8L13 7L12 7L12 6L11 6L11 7L10 7L10 5ZM22 5L22 7L23 7L23 5ZM25 5L25 8L28 8L28 5ZM36 5L36 7L37 7L37 8L38 8L38 7L39 7L39 6L38 6L38 5ZM26 6L26 7L27 7L27 6ZM30 6L30 7L31 7L31 6ZM37 6L37 7L38 7L38 6ZM0 8L0 9L3 9L3 8ZM16 8L16 9L17 9L17 8ZM22 8L22 9L23 9L23 10L22 10L22 11L23 11L23 12L21 12L21 14L20 14L20 17L21 17L21 18L20 18L20 19L23 19L23 20L22 20L22 21L23 21L23 22L24 22L24 18L23 18L23 17L24 17L24 15L25 15L25 16L26 16L26 17L28 17L28 16L30 16L30 17L29 17L29 18L28 18L28 20L30 20L30 21L28 21L28 24L26 24L26 22L27 22L27 21L26 21L26 22L25 22L25 24L24 24L24 23L23 23L23 24L22 24L22 22L20 22L20 24L19 24L19 23L18 23L18 24L19 24L19 26L18 26L18 27L17 27L17 26L16 26L16 27L17 27L17 28L18 28L18 29L19 29L19 28L21 28L21 27L20 27L20 26L21 26L21 25L23 25L23 27L22 27L22 29L23 29L23 27L24 27L24 30L23 30L23 31L22 31L22 32L23 32L23 34L22 34L22 35L21 35L21 34L20 34L20 35L21 35L21 36L22 36L22 37L21 37L21 38L19 38L19 34L18 34L18 33L19 33L19 32L18 32L18 31L21 31L21 30L16 30L16 32L15 32L15 31L14 31L14 32L15 32L15 34L13 34L13 35L15 35L15 36L14 36L14 37L15 37L15 38L13 38L13 37L12 37L12 35L11 35L11 38L10 38L10 39L9 39L9 40L10 40L10 39L11 39L11 38L12 38L12 40L13 40L13 41L12 41L12 42L14 42L14 43L15 43L15 42L14 42L14 41L15 41L15 40L16 40L16 41L17 41L17 39L15 39L15 38L16 38L16 36L17 36L17 35L16 35L16 34L18 34L18 38L19 38L19 39L18 39L18 40L19 40L19 43L18 43L18 42L16 42L16 43L18 43L18 45L19 45L19 46L20 46L20 45L21 45L21 43L20 43L20 42L22 42L22 41L23 41L23 40L26 40L26 38L25 38L25 35L26 35L26 34L27 34L27 32L28 32L28 35L29 35L29 34L30 34L30 37L31 37L31 34L30 34L30 32L31 32L31 31L30 31L30 28L31 28L31 27L32 27L32 25L33 25L33 26L34 26L34 28L32 28L32 29L33 29L33 31L34 31L34 32L32 32L32 33L33 33L33 35L32 35L32 43L33 43L33 44L32 44L32 46L30 46L30 47L31 47L31 48L32 48L32 47L35 47L35 48L36 48L36 49L35 49L35 50L36 50L36 51L37 51L37 50L38 50L38 49L39 49L39 48L40 48L40 47L37 47L37 48L36 48L36 45L37 45L37 43L40 43L40 42L38 42L38 41L39 41L39 39L38 39L38 37L39 37L39 38L40 38L40 37L41 37L41 36L40 36L40 37L39 37L39 36L38 36L38 35L37 35L37 34L36 34L36 33L37 33L37 32L38 32L38 33L39 33L39 32L38 32L38 31L39 31L39 30L38 30L38 29L37 29L37 28L40 28L40 26L41 26L41 27L42 27L42 25L43 25L43 24L42 24L42 25L41 25L41 23L42 23L42 21L43 21L43 22L44 22L44 21L43 21L43 20L44 20L44 19L41 19L41 16L42 16L42 17L43 17L43 18L44 18L44 17L43 17L43 16L42 16L42 12L43 12L43 10L42 10L42 12L40 12L40 13L41 13L41 14L40 14L40 15L41 15L41 16L40 16L40 17L39 17L39 18L38 18L38 19L37 19L37 18L35 18L35 19L34 19L34 17L35 17L35 16L36 16L36 13L35 13L35 12L32 12L32 14L31 14L31 15L32 15L32 18L30 18L30 17L31 17L31 16L30 16L30 13L29 13L29 12L28 12L28 13L27 13L27 14L25 14L25 13L26 13L26 11L25 11L25 10L24 10L24 9L23 9L23 8ZM6 9L6 10L7 10L7 9ZM8 9L8 10L9 10L9 11L10 11L10 12L9 12L9 15L10 15L10 16L11 16L11 15L10 15L10 14L11 14L11 13L10 13L10 12L12 12L12 13L13 13L13 12L14 12L14 10L12 10L12 11L10 11L10 10L9 10L9 9ZM39 10L39 11L40 11L40 10ZM50 10L50 12L51 12L51 11L52 11L52 10ZM5 11L5 12L7 12L7 13L5 13L5 14L4 14L4 12L2 12L2 14L3 14L3 15L5 15L5 17L6 17L6 18L7 18L7 17L8 17L8 16L7 16L7 15L6 15L6 14L8 14L8 12L7 12L7 11ZM12 11L12 12L13 12L13 11ZM24 11L24 12L23 12L23 14L22 14L22 15L21 15L21 16L22 16L22 15L24 15L24 12L25 12L25 11ZM34 13L34 14L35 14L35 13ZM50 13L50 14L51 14L51 15L52 15L52 14L51 14L51 13ZM12 14L12 17L13 17L13 18L11 18L11 17L9 17L9 18L8 18L8 19L9 19L9 20L7 20L7 19L5 19L5 21L6 21L6 22L5 22L5 24L7 24L7 23L6 23L6 22L8 22L8 23L9 23L9 22L8 22L8 21L10 21L10 23L11 23L11 24L10 24L10 25L13 25L13 24L12 24L12 22L11 22L11 21L13 21L13 19L14 19L14 20L15 20L15 19L14 19L14 18L15 18L15 16L14 16L14 15L16 15L16 14ZM27 14L27 15L26 15L26 16L27 16L27 15L28 15L28 14ZM32 14L32 15L33 15L33 17L34 17L34 15L33 15L33 14ZM6 16L6 17L7 17L7 16ZM45 17L45 19L46 19L46 20L47 20L47 19L46 19L46 17ZM29 18L29 19L30 19L30 18ZM32 18L32 19L31 19L31 21L30 21L30 22L31 22L31 23L29 23L29 24L30 24L30 26L29 26L29 28L30 28L30 27L31 27L31 25L32 25L32 23L33 23L33 22L32 22L32 19L33 19L33 18ZM10 19L10 20L11 20L11 19ZM36 19L36 20L34 20L34 23L36 23L36 24L34 24L34 26L35 26L35 25L36 25L36 27L35 27L35 28L34 28L34 31L35 31L35 30L36 30L36 27L38 27L38 26L39 26L39 25L38 25L38 24L39 24L39 23L37 23L37 21L38 21L38 22L39 22L39 21L38 21L38 20L37 20L37 19ZM6 20L6 21L7 21L7 20ZM36 20L36 21L35 21L35 22L36 22L36 21L37 21L37 20ZM17 21L17 22L18 22L18 21ZM40 21L40 22L41 22L41 21ZM16 23L16 25L17 25L17 23ZM23 24L23 25L24 25L24 24ZM36 24L36 25L37 25L37 26L38 26L38 25L37 25L37 24ZM5 25L5 28L8 28L8 25ZM25 25L25 28L28 28L28 25ZM45 25L45 28L48 28L48 25ZM49 25L49 26L50 26L50 25ZM1 26L1 27L2 27L2 28L4 28L4 27L3 27L3 26ZM6 26L6 27L7 27L7 26ZM9 26L9 27L10 27L10 29L9 29L9 30L10 30L10 31L9 31L9 33L10 33L10 31L11 31L11 30L10 30L10 29L11 29L11 27L12 27L12 28L14 28L14 27L13 27L13 26ZM26 26L26 27L27 27L27 26ZM46 26L46 27L47 27L47 26ZM50 27L50 28L51 28L51 27ZM25 29L25 30L24 30L24 31L25 31L25 32L26 32L26 31L25 31L25 30L26 30L26 29ZM28 29L28 30L29 30L29 29ZM42 29L42 30L41 30L41 33L42 33L42 34L44 34L44 33L43 33L43 32L44 32L44 31L42 31L42 30L43 30L43 29ZM37 30L37 31L38 31L38 30ZM48 30L48 32L50 32L50 31L51 31L51 30L50 30L50 31L49 31L49 30ZM6 31L6 32L8 32L8 31ZM28 31L28 32L30 32L30 31ZM20 32L20 33L21 33L21 32ZM34 32L34 35L33 35L33 37L34 37L34 38L33 38L33 40L34 40L34 39L35 39L35 41L34 41L34 44L33 44L33 45L34 45L34 46L35 46L35 45L36 45L36 42L37 42L37 41L38 41L38 39L37 39L37 38L36 38L36 36L37 36L37 35L36 35L36 34L35 34L35 32ZM24 34L24 35L25 35L25 34ZM52 34L52 35L53 35L53 34ZM22 35L22 36L23 36L23 35ZM34 35L34 36L35 36L35 35ZM43 35L43 36L44 36L44 35ZM3 37L3 38L4 38L4 37ZM22 37L22 38L24 38L24 39L25 39L25 38L24 38L24 37ZM6 38L6 39L7 39L7 38ZM30 38L30 39L31 39L31 38ZM35 38L35 39L36 39L36 38ZM14 39L14 40L15 40L15 39ZM20 39L20 40L21 40L21 39ZM22 39L22 40L23 40L23 39ZM29 40L29 42L30 42L30 44L31 44L31 42L30 42L30 40ZM36 40L36 41L35 41L35 42L36 42L36 41L37 41L37 40ZM52 40L52 41L53 41L53 40ZM2 42L2 43L3 43L3 42ZM47 43L47 44L48 44L48 43ZM19 44L19 45L20 45L20 44ZM14 45L14 46L15 46L15 45ZM25 45L25 48L28 48L28 45ZM45 45L45 48L48 48L48 45ZM49 45L49 46L50 46L50 45ZM26 46L26 47L27 47L27 46ZM46 46L46 47L47 47L47 46ZM52 46L52 47L51 47L51 48L52 48L52 47L53 47L53 46ZM8 47L8 48L9 48L9 47ZM24 49L24 50L23 50L23 51L24 51L24 52L25 52L25 49ZM26 49L26 51L27 51L27 49ZM43 49L43 50L44 50L44 49ZM8 50L8 53L9 53L9 50ZM10 50L10 52L11 52L11 50ZM12 50L12 51L13 51L13 52L12 52L12 53L13 53L13 52L14 52L14 51L13 51L13 50ZM16 50L16 51L17 51L17 50ZM20 50L20 51L21 51L21 50ZM20 52L20 53L21 53L21 52ZM52 52L52 53L53 53L53 52ZM0 0L0 7L7 7L7 0ZM1 1L1 6L6 6L6 1ZM2 2L2 5L5 5L5 2ZM46 0L46 7L53 7L53 0ZM47 1L47 6L52 6L52 1ZM48 2L48 5L51 5L51 2ZM0 46L0 53L7 53L7 46ZM1 47L1 52L6 52L6 47ZM2 48L2 51L5 51L5 48Z" fill="#000000"/></g></g></svg>
