<?xml version="1.0" encoding="UTF-8"?>
<svg xmlns="http://www.w3.org/2000/svg" version="1.1" width="356" height="356" viewBox="0 0 356 356"><rect x="0" y="0" width="356" height="356" fill="#ffffff"/><g transform="scale(6.717)"><g transform="translate(0,0)"><path fill-rule="evenodd" d="M8 0L8 2L9 2L9 0ZM13 0L13 1L15 1L15 0ZM18 0L18 1L16 1L16 2L18 2L18 1L19 1L19 4L20 4L20 5L18 5L18 3L15 3L15 2L14 2L14 3L15 3L15 5L16 5L16 7L17 7L17 6L18 6L18 8L19 8L19 12L18 12L18 10L16 10L16 11L17 11L17 12L18 12L18 14L16 14L16 12L15 12L15 10L14 10L14 9L15 9L15 8L14 8L14 7L15 7L15 6L14 6L14 7L13 7L13 6L12 6L12 4L11 4L11 3L13 3L13 2L11 2L11 3L9 3L9 4L8 4L8 10L6 10L6 11L5 11L5 10L3 10L3 8L0 8L0 9L1 9L1 10L0 10L0 12L3 12L3 13L2 13L2 14L0 14L0 16L1 16L1 18L0 18L0 20L2 20L2 21L1 21L1 22L0 22L0 26L2 26L2 25L3 25L3 26L4 26L4 31L7 31L7 30L11 30L11 31L9 31L9 32L10 32L10 33L9 33L9 34L10 34L10 33L11 33L11 31L13 31L13 30L16 30L16 32L15 32L15 31L14 31L14 32L15 32L15 34L13 34L13 32L12 32L12 34L11 34L11 35L9 35L9 36L5 36L5 37L4 37L4 35L7 35L7 34L8 34L8 33L7 33L7 32L6 32L6 33L4 33L4 32L3 32L3 30L1 30L1 29L2 29L2 28L3 28L3 27L1 27L1 28L0 28L0 30L1 30L1 31L0 31L0 32L1 32L1 34L0 34L0 35L2 35L2 33L3 33L3 34L4 34L4 35L3 35L3 37L4 37L4 38L3 38L3 39L2 39L2 37L1 37L1 36L0 36L0 37L1 37L1 38L0 38L0 39L1 39L1 40L0 40L0 43L1 43L1 44L3 44L3 45L4 45L4 44L3 44L3 43L8 43L8 44L6 44L6 45L8 45L8 46L11 46L11 47L8 47L8 48L10 48L10 51L9 51L9 50L8 50L8 53L11 53L11 52L13 52L13 51L15 51L15 52L14 52L14 53L16 53L16 52L18 52L18 53L20 53L20 52L18 52L18 49L19 49L19 48L20 48L20 49L21 49L21 48L20 48L20 47L21 47L21 46L23 46L23 47L22 47L22 48L23 48L23 49L25 49L25 51L26 51L26 49L29 49L29 50L27 50L27 51L29 51L29 52L28 52L28 53L29 53L29 52L30 52L30 53L31 53L31 52L32 52L32 53L33 53L33 52L34 52L34 53L35 53L35 50L36 50L36 51L37 51L37 52L36 52L36 53L37 53L37 52L38 52L38 51L39 51L39 53L41 53L41 50L42 50L42 48L40 48L40 47L44 47L44 48L43 48L43 50L44 50L44 51L42 51L42 53L43 53L43 52L44 52L44 53L46 53L46 51L47 51L47 50L46 50L46 51L45 51L45 50L44 50L44 49L48 49L48 51L49 51L49 52L47 52L47 53L49 53L49 52L50 52L50 51L51 51L51 50L50 50L50 49L49 49L49 48L50 48L50 46L52 46L52 47L51 47L51 48L52 48L52 47L53 47L53 45L52 45L52 44L53 44L53 42L52 42L52 44L50 44L50 43L51 43L51 41L52 41L52 40L53 40L53 38L52 38L52 40L50 40L50 39L51 39L51 37L50 37L50 34L51 34L51 33L49 33L49 35L48 35L48 32L50 32L50 31L51 31L51 32L52 32L52 33L53 33L53 32L52 32L52 31L53 31L53 29L52 29L52 27L53 27L53 26L52 26L52 27L51 27L51 28L50 28L50 27L49 27L49 25L50 25L50 26L51 26L51 25L53 25L53 22L52 22L52 23L51 23L51 21L53 21L53 18L52 18L52 20L51 20L51 21L50 21L50 16L49 16L49 15L51 15L51 16L52 16L52 15L53 15L53 14L52 14L52 15L51 15L51 14L50 14L50 13L53 13L53 10L52 10L52 9L53 9L53 8L51 8L51 10L50 10L50 9L49 9L49 8L45 8L45 6L44 6L44 7L43 7L43 3L44 3L44 4L45 4L45 3L44 3L44 1L43 1L43 0L42 0L42 1L41 1L41 2L40 2L40 0L38 0L38 1L39 1L39 2L38 2L38 3L39 3L39 4L38 4L38 7L37 7L37 6L36 6L36 5L37 5L37 4L36 4L36 3L37 3L37 0L36 0L36 3L35 3L35 0L34 0L34 1L33 1L33 0L32 0L32 2L33 2L33 4L32 4L32 5L31 5L31 4L30 4L30 5L31 5L31 6L30 6L30 7L31 7L31 6L32 6L32 9L31 9L31 10L30 10L30 9L29 9L29 3L31 3L31 0L30 0L30 2L28 2L28 1L29 1L29 0L27 0L27 2L26 2L26 1L25 1L25 0L24 0L24 2L23 2L23 0L22 0L22 1L21 1L21 0ZM20 1L20 2L21 2L21 3L22 3L22 4L21 4L21 5L20 5L20 6L19 6L19 8L20 8L20 6L21 6L21 7L22 7L22 6L23 6L23 7L24 7L24 3L25 3L25 2L24 2L24 3L22 3L22 2L21 2L21 1ZM42 2L42 3L43 3L43 2ZM27 3L27 4L28 4L28 3ZM34 3L34 4L33 4L33 5L32 5L32 6L33 6L33 9L34 9L34 10L35 10L35 9L36 9L36 8L37 8L37 7L36 7L36 6L35 6L35 7L34 7L34 6L33 6L33 5L34 5L34 4L35 4L35 3ZM40 3L40 5L39 5L39 7L38 7L38 10L37 10L37 11L36 11L36 12L35 12L35 11L34 11L34 12L33 12L33 10L31 10L31 13L30 13L30 12L29 12L29 13L30 13L30 14L31 14L31 17L30 17L30 18L32 18L32 20L31 20L31 19L30 19L30 20L31 20L31 21L30 21L30 23L28 23L28 21L29 21L29 20L28 20L28 18L29 18L29 16L30 16L30 15L29 15L29 16L28 16L28 18L27 18L27 17L26 17L26 16L27 16L27 15L28 15L28 14L27 14L27 13L28 13L28 12L27 12L27 11L28 11L28 10L29 10L29 9L27 9L27 11L26 11L26 10L25 10L25 9L24 9L24 8L23 8L23 9L22 9L22 8L21 8L21 10L20 10L20 11L21 11L21 12L20 12L20 14L19 14L19 15L18 15L18 16L19 16L19 17L18 17L18 18L19 18L19 20L21 20L21 21L20 21L20 22L19 22L19 21L18 21L18 19L17 19L17 18L16 18L16 19L17 19L17 20L16 20L16 23L14 23L14 24L15 24L15 25L14 25L14 26L15 26L15 28L16 28L16 30L21 30L21 31L18 31L18 32L19 32L19 33L18 33L18 34L16 34L16 35L17 35L17 36L16 36L16 38L15 38L15 37L14 37L14 36L15 36L15 35L13 35L13 36L12 36L12 38L10 38L10 37L11 37L11 36L10 36L10 37L8 37L8 38L7 38L7 37L5 37L5 39L4 39L4 40L1 40L1 42L2 42L2 43L3 43L3 42L5 42L5 41L4 41L4 40L5 40L5 39L6 39L6 40L7 40L7 39L8 39L8 38L9 38L9 40L10 40L10 39L11 39L11 42L9 42L9 43L11 43L11 44L8 44L8 45L11 45L11 46L12 46L12 47L14 47L14 49L15 49L15 48L16 48L16 47L17 47L17 46L19 46L19 45L20 45L20 46L21 46L21 44L19 44L19 45L18 45L18 43L19 43L19 40L20 40L20 39L21 39L21 38L22 38L22 36L23 36L23 38L24 38L24 36L23 36L23 35L22 35L22 36L21 36L21 35L20 35L20 34L24 34L24 33L26 33L26 35L25 35L25 38L26 38L26 40L27 40L27 42L26 42L26 43L25 43L25 42L24 42L24 43L25 43L25 44L26 44L26 43L28 43L28 44L29 44L29 43L31 43L31 44L30 44L30 47L29 47L29 48L31 48L31 49L30 49L30 50L29 50L29 51L31 51L31 50L32 50L32 52L33 52L33 49L32 49L32 48L34 48L34 50L35 50L35 49L36 49L36 47L38 47L38 48L37 48L37 49L38 49L38 50L37 50L37 51L38 51L38 50L39 50L39 49L40 49L40 48L39 48L39 46L40 46L40 44L41 44L41 45L42 45L42 46L43 46L43 45L42 45L42 44L41 44L41 41L42 41L42 42L43 42L43 44L44 44L44 43L46 43L46 42L47 42L47 41L46 41L46 40L47 40L47 39L46 39L46 38L47 38L47 35L46 35L46 33L47 33L47 32L48 32L48 30L49 30L49 31L50 31L50 30L51 30L51 29L50 29L50 30L49 30L49 29L48 29L48 30L47 30L47 32L46 32L46 29L45 29L45 30L43 30L43 29L42 29L42 30L40 30L40 25L39 25L39 23L38 23L38 22L39 22L39 21L40 21L40 20L39 20L39 21L38 21L38 22L37 22L37 23L36 23L36 22L35 22L35 21L36 21L36 20L38 20L38 18L40 18L40 16L41 16L41 15L42 15L42 18L43 18L43 16L44 16L44 19L45 19L45 17L46 17L46 19L47 19L47 20L46 20L46 22L45 22L45 20L43 20L43 19L41 19L41 20L42 20L42 23L41 23L41 25L42 25L42 26L41 26L41 27L42 27L42 26L43 26L43 28L44 28L44 25L42 25L42 23L43 23L43 24L45 24L45 23L47 23L47 24L49 24L49 23L50 23L50 25L51 25L51 23L50 23L50 22L48 22L48 20L49 20L49 17L48 17L48 19L47 19L47 17L46 17L46 15L45 15L45 13L46 13L46 14L47 14L47 15L49 15L49 13L48 13L48 12L47 12L47 11L48 11L48 9L46 9L46 10L47 10L47 11L46 11L46 12L45 12L45 11L44 11L44 12L45 12L45 13L44 13L44 15L42 15L42 14L43 14L43 13L42 13L42 14L41 14L41 13L40 13L40 12L41 12L41 10L40 10L40 8L41 8L41 9L42 9L42 10L43 10L43 7L42 7L42 6L41 6L41 7L40 7L40 5L41 5L41 3ZM9 4L9 5L10 5L10 6L9 6L9 8L10 8L10 9L9 9L9 10L11 10L11 11L10 11L10 12L12 12L12 11L13 11L13 9L11 9L11 8L12 8L12 6L11 6L11 4ZM22 4L22 5L23 5L23 4ZM25 5L25 8L28 8L28 5ZM10 6L10 7L11 7L11 6ZM26 6L26 7L27 7L27 6ZM41 7L41 8L42 8L42 7ZM5 8L5 9L7 9L7 8ZM16 8L16 9L17 9L17 8ZM23 9L23 10L21 10L21 11L22 11L22 13L21 13L21 14L20 14L20 17L21 17L21 18L20 18L20 19L21 19L21 18L22 18L22 19L23 19L23 20L22 20L22 22L20 22L20 24L19 24L19 23L18 23L18 24L19 24L19 26L18 26L18 27L17 27L17 26L16 26L16 27L17 27L17 28L18 28L18 29L19 29L19 28L21 28L21 30L23 30L23 31L22 31L22 32L23 32L23 33L24 33L24 32L25 32L25 31L26 31L26 30L27 30L27 32L26 32L26 33L28 33L28 35L26 35L26 37L27 37L27 36L28 36L28 38L29 38L29 40L28 40L28 39L27 39L27 40L28 40L28 43L29 43L29 40L30 40L30 41L31 41L31 40L30 40L30 39L31 39L31 38L32 38L32 37L33 37L33 36L34 36L34 37L35 37L35 38L36 38L36 37L37 37L37 38L38 38L38 39L36 39L36 41L35 41L35 39L34 39L34 40L33 40L33 39L32 39L32 43L34 43L34 41L35 41L35 42L36 42L36 41L37 41L37 43L36 43L36 46L38 46L38 45L39 45L39 44L40 44L40 41L41 41L41 40L40 40L40 37L41 37L41 39L42 39L42 37L43 37L43 41L44 41L44 40L46 40L46 39L44 39L44 38L45 38L45 37L44 37L44 36L45 36L45 34L44 34L44 33L46 33L46 32L45 32L45 31L44 31L44 32L43 32L43 30L42 30L42 33L43 33L43 34L44 34L44 36L43 36L43 35L42 35L42 37L41 37L41 35L40 35L40 34L39 34L39 35L38 35L38 33L37 33L37 32L38 32L38 29L39 29L39 26L38 26L38 23L37 23L37 24L36 24L36 23L35 23L35 22L34 22L34 21L35 21L35 19L37 19L37 18L38 18L38 17L39 17L39 16L40 16L40 14L39 14L39 16L36 16L36 15L35 15L35 14L37 14L37 15L38 15L38 13L39 13L39 12L40 12L40 10L39 10L39 11L37 11L37 12L36 12L36 13L35 13L35 14L34 14L34 13L33 13L33 12L32 12L32 13L31 13L31 14L32 14L32 18L33 18L33 20L32 20L32 21L31 21L31 22L33 22L33 23L32 23L32 25L31 25L31 24L30 24L30 25L29 25L29 24L28 24L28 23L27 23L27 20L26 20L26 19L27 19L27 18L26 18L26 17L25 17L25 16L26 16L26 15L27 15L27 14L26 14L26 13L27 13L27 12L26 12L26 11L25 11L25 10L24 10L24 9ZM44 9L44 10L45 10L45 9ZM1 10L1 11L2 11L2 10ZM23 10L23 11L24 11L24 12L25 12L25 13L26 13L26 12L25 12L25 11L24 11L24 10ZM51 10L51 11L50 11L50 12L51 12L51 11L52 11L52 10ZM4 11L4 13L3 13L3 15L2 15L2 17L3 17L3 18L4 18L4 19L2 19L2 20L4 20L4 22L3 22L3 24L4 24L4 23L6 23L6 24L8 24L8 23L9 23L9 26L10 26L10 25L11 25L11 29L12 29L12 30L13 30L13 29L12 29L12 28L14 28L14 27L12 27L12 26L13 26L13 25L12 25L12 24L13 24L13 23L12 23L12 22L13 22L13 20L12 20L12 19L11 19L11 18L13 18L13 19L14 19L14 20L15 20L15 19L14 19L14 18L15 18L15 16L14 16L14 15L16 15L16 14L13 14L13 13L9 13L9 12L7 12L7 11L6 11L6 12L7 12L7 13L5 13L5 11ZM42 11L42 12L43 12L43 11ZM8 13L8 14L9 14L9 13ZM22 13L22 15L21 15L21 16L22 16L22 15L24 15L24 16L25 16L25 15L26 15L26 14L25 14L25 15L24 15L24 13ZM47 13L47 14L48 14L48 13ZM4 14L4 16L3 16L3 17L7 17L7 18L5 18L5 19L4 19L4 20L5 20L5 21L7 21L7 20L6 20L6 19L7 19L7 18L8 18L8 17L10 17L10 18L11 18L11 15L12 15L12 17L13 17L13 15L12 15L12 14L10 14L10 15L9 15L9 16L6 16L6 15L7 15L7 14ZM33 15L33 17L34 17L34 19L35 19L35 18L37 18L37 17L36 17L36 16L35 16L35 17L34 17L34 15ZM24 17L24 21L23 21L23 22L22 22L22 24L23 24L23 25L21 25L21 26L20 26L20 27L21 27L21 26L24 26L24 24L25 24L25 23L26 23L26 24L27 24L27 23L26 23L26 21L25 21L25 17ZM8 19L8 20L9 20L9 23L11 23L11 22L12 22L12 21L11 21L11 20L9 20L9 19ZM33 20L33 21L34 21L34 20ZM17 21L17 22L18 22L18 21ZM6 22L6 23L8 23L8 22ZM44 22L44 23L45 23L45 22ZM47 22L47 23L48 23L48 22ZM1 23L1 25L2 25L2 23ZM16 23L16 25L17 25L17 23ZM34 24L34 26L33 26L33 25L32 25L32 27L31 27L31 25L30 25L30 26L29 26L29 27L31 27L31 29L30 29L30 31L28 31L28 32L30 32L30 34L29 34L29 35L28 35L28 36L30 36L30 34L31 34L31 35L33 35L33 33L32 33L32 32L34 32L34 35L35 35L35 37L36 37L36 36L37 36L37 37L38 37L38 38L39 38L39 37L40 37L40 36L39 36L39 37L38 37L38 36L37 36L37 35L35 35L35 32L34 32L34 31L32 31L32 30L31 30L31 29L32 29L32 28L33 28L33 29L34 29L34 30L35 30L35 31L37 31L37 29L38 29L38 26L37 26L37 25L36 25L36 24ZM5 25L5 28L8 28L8 25ZM25 25L25 28L28 28L28 25ZM35 25L35 26L34 26L34 27L33 27L33 28L34 28L34 27L35 27L35 28L36 28L36 29L35 29L35 30L36 30L36 29L37 29L37 27L36 27L36 25ZM45 25L45 28L48 28L48 25ZM6 26L6 27L7 27L7 26ZM26 26L26 27L27 27L27 26ZM46 26L46 27L47 27L47 26ZM9 27L9 28L10 28L10 27ZM22 27L22 28L23 28L23 30L24 30L24 27ZM6 29L6 30L7 30L7 29ZM27 29L27 30L29 30L29 29ZM39 30L39 32L40 32L40 33L41 33L41 32L40 32L40 30ZM1 31L1 32L2 32L2 31ZM23 31L23 32L24 32L24 31ZM30 31L30 32L31 32L31 31ZM20 32L20 33L21 33L21 32ZM6 33L6 34L7 34L7 33ZM18 34L18 38L19 38L19 39L18 39L18 40L19 40L19 39L20 39L20 38L19 38L19 34ZM52 34L52 35L53 35L53 34ZM31 36L31 37L30 37L30 38L31 38L31 37L32 37L32 36ZM48 36L48 38L49 38L49 39L48 39L48 40L49 40L49 39L50 39L50 37L49 37L49 36ZM6 38L6 39L7 39L7 38ZM12 38L12 41L13 41L13 43L12 43L12 44L11 44L11 45L12 45L12 46L13 46L13 45L12 45L12 44L14 44L14 47L16 47L16 44L15 44L15 42L14 42L14 41L15 41L15 40L16 40L16 41L17 41L17 39L15 39L15 38ZM14 39L14 40L15 40L15 39ZM22 39L22 40L23 40L23 41L22 41L22 43L23 43L23 41L24 41L24 40L23 40L23 39ZM38 39L38 40L39 40L39 41L38 41L38 42L39 42L39 41L40 41L40 40L39 40L39 39ZM6 41L6 42L8 42L8 41ZM45 41L45 42L46 42L46 41ZM48 41L48 42L49 42L49 43L50 43L50 42L49 42L49 41ZM16 42L16 43L18 43L18 42ZM20 42L20 43L21 43L21 42ZM37 43L37 45L38 45L38 44L39 44L39 43ZM47 43L47 44L48 44L48 43ZM32 44L32 45L31 45L31 46L32 46L32 47L31 47L31 48L32 48L32 47L35 47L35 46L34 46L34 44ZM23 45L23 46L24 46L24 45ZM25 45L25 48L28 48L28 45ZM45 45L45 48L48 48L48 45ZM49 45L49 46L50 46L50 45ZM26 46L26 47L27 47L27 46ZM46 46L46 47L47 47L47 46ZM18 47L18 48L19 48L19 47ZM12 48L12 50L13 50L13 48ZM38 48L38 49L39 49L39 48ZM16 50L16 51L17 51L17 50ZM20 50L20 51L23 51L23 52L22 52L22 53L23 53L23 52L24 52L24 53L25 53L25 52L24 52L24 50ZM49 50L49 51L50 51L50 50ZM26 52L26 53L27 53L27 52ZM52 52L52 53L53 53L53 52ZM0 0L0 7L7 7L7 0ZM1 1L1 6L6 6L6 1ZM2 2L2 5L5 5L5 2ZM46 0L46 7L53 7L53 0ZM47 1L47 6L52 6L52 1ZM48 2L48 5L51 5L51 2ZM0 46L0 53L7 53L7 46ZM1 47L1 52L6 52L6 47ZM2 48L2 51L5 51L5 48Z" fill="#000000"/></g></g></svg>
