<?xml version="1.0" encoding="UTF-8"?>
<svg xmlns="http://www.w3.org/2000/svg" version="1.1" width="356" height="356" viewBox="0 0 356 356"><rect x="0" y="0" width="356" height="356" fill="#ffffff"/><g transform="scale(6.717)"><g transform="translate(0,0)"><path fill-rule="evenodd" d="M8 0L8 1L9 1L9 2L8 2L8 5L9 5L9 6L8 6L8 7L9 7L9 8L8 8L8 9L7 9L7 8L6 8L6 9L4 9L4 8L0 8L0 9L3 9L3 10L6 10L6 11L5 11L5 12L4 12L4 11L2 11L2 10L1 10L1 11L0 11L0 12L1 12L1 13L0 13L0 20L1 20L1 19L2 19L2 20L5 20L5 18L6 18L6 19L7 19L7 20L6 20L6 21L8 21L8 23L7 23L7 22L5 22L5 21L3 21L3 22L4 22L4 25L2 25L2 24L3 24L3 23L2 23L2 24L1 24L1 22L2 22L2 21L1 21L1 22L0 22L0 24L1 24L1 25L0 25L0 26L1 26L1 27L2 27L2 26L4 26L4 27L3 27L3 29L2 29L2 28L1 28L1 29L0 29L0 30L1 30L1 31L0 31L0 32L1 32L1 33L2 33L2 34L3 34L3 36L2 36L2 37L1 37L1 35L0 35L0 37L1 37L1 38L0 38L0 39L2 39L2 38L3 38L3 39L4 39L4 40L5 40L5 39L7 39L7 40L6 40L6 41L5 41L5 42L3 42L3 40L2 40L2 42L1 42L1 41L0 41L0 43L1 43L1 44L3 44L3 45L4 45L4 44L3 44L3 43L7 43L7 44L6 44L6 45L7 45L7 44L8 44L8 42L6 42L6 41L8 41L8 40L10 40L10 41L9 41L9 42L10 42L10 43L11 43L11 44L9 44L9 45L8 45L8 46L10 46L10 47L9 47L9 48L10 48L10 49L8 49L8 53L9 53L9 50L10 50L10 51L11 51L11 49L13 49L13 50L12 50L12 51L14 51L14 52L15 52L15 50L17 50L17 49L16 49L16 48L15 48L15 49L14 49L14 48L13 48L13 47L14 47L14 46L15 46L15 42L12 42L12 39L13 39L13 40L14 40L14 41L16 41L16 42L17 42L17 41L16 41L16 40L17 40L17 39L20 39L20 43L17 43L17 45L18 45L18 46L16 46L16 47L17 47L17 48L18 48L18 49L20 49L20 50L21 50L21 53L22 53L22 52L23 52L23 51L24 51L24 52L25 52L25 51L24 51L24 49L26 49L26 51L27 51L27 52L26 52L26 53L28 53L28 51L29 51L29 53L30 53L30 52L32 52L32 53L33 53L33 50L34 50L34 53L35 53L35 50L34 50L34 49L37 49L37 50L39 50L39 51L38 51L38 52L37 52L37 51L36 51L36 52L37 52L37 53L40 53L40 52L43 52L43 51L42 51L42 50L41 50L41 49L38 49L38 45L36 45L36 44L37 44L37 43L38 43L38 42L37 42L37 41L33 41L33 40L35 40L35 39L33 39L33 38L34 38L34 35L35 35L35 38L36 38L36 40L38 40L38 38L39 38L39 42L40 42L40 43L41 43L41 42L42 42L42 43L45 43L45 44L43 44L43 45L41 45L41 44L39 44L39 46L40 46L40 48L41 48L41 46L44 46L44 47L43 47L43 50L46 50L46 49L47 49L47 51L48 51L48 52L47 52L47 53L48 53L48 52L49 52L49 53L50 53L50 52L49 52L49 51L48 51L48 50L51 50L51 53L52 53L52 50L51 50L51 48L52 48L52 49L53 49L53 47L52 47L52 45L50 45L50 46L51 46L51 48L49 48L49 44L51 44L51 41L52 41L52 42L53 42L53 41L52 41L52 39L53 39L53 38L51 38L51 40L50 40L50 39L47 39L47 36L49 36L49 35L46 35L46 34L51 34L51 35L52 35L52 37L53 37L53 35L52 35L52 32L53 32L53 31L52 31L52 32L51 32L51 31L50 31L50 30L48 30L48 29L49 29L49 28L50 28L50 29L51 29L51 28L50 28L50 27L53 27L53 26L50 26L50 27L49 27L49 24L46 24L46 23L47 23L47 22L46 22L46 23L45 23L45 22L43 22L43 21L42 21L42 20L44 20L44 21L45 21L45 20L47 20L47 21L48 21L48 22L49 22L49 23L51 23L51 24L50 24L50 25L51 25L51 24L52 24L52 25L53 25L53 23L52 23L52 21L53 21L53 19L52 19L52 21L51 21L51 18L50 18L50 19L49 19L49 21L48 21L48 19L47 19L47 18L48 18L48 14L46 14L46 13L43 13L43 12L42 12L42 11L44 11L44 12L45 12L45 11L44 11L44 7L45 7L45 6L44 6L44 7L43 7L43 3L44 3L44 4L45 4L45 3L44 3L44 1L43 1L43 0L42 0L42 2L43 2L43 3L41 3L41 2L40 2L40 3L41 3L41 4L40 4L40 5L42 5L42 7L41 7L41 6L40 6L40 7L39 7L39 6L38 6L38 8L37 8L37 9L39 9L39 8L40 8L40 11L39 11L39 12L42 12L42 13L43 13L43 14L46 14L46 15L45 15L45 16L44 16L44 17L45 17L45 20L44 20L44 18L42 18L42 14L41 14L41 13L40 13L40 14L41 14L41 18L40 18L40 15L39 15L39 13L38 13L38 10L37 10L37 11L36 11L36 7L37 7L37 5L39 5L39 4L37 4L37 3L36 3L36 2L39 2L39 1L40 1L40 0L39 0L39 1L38 1L38 0L35 0L35 1L33 1L33 2L32 2L32 3L31 3L31 2L30 2L30 1L32 1L32 0L27 0L27 2L28 2L28 3L25 3L25 2L26 2L26 0L21 0L21 1L19 1L19 0L16 0L16 2L15 2L15 1L13 1L13 0L11 0L11 1L10 1L10 0ZM17 1L17 2L16 2L16 3L14 3L14 2L13 2L13 4L12 4L12 5L11 5L11 7L10 7L10 6L9 6L9 7L10 7L10 9L11 9L11 7L12 7L12 6L13 6L13 7L14 7L14 6L15 6L15 8L14 8L14 10L13 10L13 11L12 11L12 10L7 10L7 9L6 9L6 10L7 10L7 11L6 11L6 12L7 12L7 11L8 11L8 12L10 12L10 11L11 11L11 12L13 12L13 13L10 13L10 14L12 14L12 15L13 15L13 16L11 16L11 15L10 15L10 16L9 16L9 14L8 14L8 13L6 13L6 14L5 14L5 15L6 15L6 16L7 16L7 17L6 17L6 18L7 18L7 19L8 19L8 21L9 21L9 23L10 23L10 22L11 22L11 23L12 23L12 27L13 27L13 28L12 28L12 29L11 29L11 30L10 30L10 28L9 28L9 29L8 29L8 32L7 32L7 31L6 31L6 32L5 32L5 36L4 36L4 37L3 37L3 38L4 38L4 37L5 37L5 36L7 36L7 37L6 37L6 38L7 38L7 39L8 39L8 37L9 37L9 38L10 38L10 40L11 40L11 38L14 38L14 40L16 40L16 39L17 39L17 37L16 37L16 39L15 39L15 38L14 38L14 37L15 37L15 35L16 35L16 36L18 36L18 35L19 35L19 34L21 34L21 32L22 32L22 34L23 34L23 33L24 33L24 31L28 31L28 32L25 32L25 35L27 35L27 33L28 33L28 35L29 35L29 38L28 38L28 37L27 37L27 36L26 36L26 37L25 37L25 36L22 36L22 35L20 35L20 36L21 36L21 41L23 41L23 42L21 42L21 43L20 43L20 44L18 44L18 45L20 45L20 46L18 46L18 48L20 48L20 49L21 49L21 50L23 50L23 49L24 49L24 48L23 48L23 47L20 47L20 46L24 46L24 45L20 45L20 44L22 44L22 43L23 43L23 44L24 44L24 43L26 43L26 44L27 44L27 43L28 43L28 44L29 44L29 45L30 45L30 44L29 44L29 41L30 41L30 42L31 42L31 40L32 40L32 39L31 39L31 37L33 37L33 36L32 36L32 35L34 35L34 34L35 34L35 35L36 35L36 36L39 36L39 37L40 37L40 41L41 41L41 39L44 39L44 40L43 40L43 41L42 41L42 42L43 42L43 41L44 41L44 42L45 42L45 41L46 41L46 40L47 40L47 39L46 39L46 40L45 40L45 39L44 39L44 37L45 37L45 38L46 38L46 37L45 37L45 36L43 36L43 37L41 37L41 35L40 35L40 34L41 34L41 33L42 33L42 32L44 32L44 34L42 34L42 35L44 35L44 34L45 34L45 33L47 33L47 30L46 30L46 29L44 29L44 24L45 24L45 23L43 23L43 25L42 25L42 24L41 24L41 23L42 23L42 21L39 21L39 15L38 15L38 14L37 14L37 13L35 13L35 12L36 12L36 11L35 11L35 7L36 7L36 6L35 6L35 5L37 5L37 4L34 4L34 5L31 5L31 4L29 4L29 3L30 3L30 2L29 2L29 1L28 1L28 2L29 2L29 3L28 3L28 4L29 4L29 10L28 10L28 11L25 11L25 10L27 10L27 9L24 9L24 5L22 5L22 4L23 4L23 3L22 3L22 2L25 2L25 1L21 1L21 2L20 2L20 3L21 3L21 5L19 5L19 8L20 8L20 9L21 9L21 7L22 7L22 8L23 8L23 9L22 9L22 11L21 11L21 10L19 10L19 11L18 11L18 12L19 12L19 13L20 13L20 11L21 11L21 14L17 14L17 13L16 13L16 14L17 14L17 15L19 15L19 16L18 16L18 18L17 18L17 16L16 16L16 15L15 15L15 16L14 16L14 14L15 14L15 12L16 12L16 11L17 11L17 10L18 10L18 9L16 9L16 11L15 11L15 12L14 12L14 10L15 10L15 8L17 8L17 7L18 7L18 6L17 6L17 4L16 4L16 3L17 3L17 2L19 2L19 1ZM33 2L33 3L32 3L32 4L33 4L33 3L35 3L35 2ZM10 3L10 4L9 4L9 5L10 5L10 4L11 4L11 3ZM24 3L24 4L25 4L25 3ZM13 4L13 6L14 6L14 4ZM25 5L25 8L28 8L28 5ZM16 6L16 7L17 7L17 6ZM20 6L20 7L21 7L21 6ZM22 6L22 7L23 7L23 6ZM26 6L26 7L27 7L27 6ZM30 6L30 8L31 8L31 6ZM32 6L32 7L33 7L33 6ZM34 6L34 7L35 7L35 6ZM12 8L12 9L13 9L13 8ZM33 8L33 9L30 9L30 11L29 11L29 12L27 12L27 14L25 14L25 15L24 15L24 14L23 14L23 13L22 13L22 14L23 14L23 15L20 15L20 16L19 16L19 18L18 18L18 19L17 19L17 18L16 18L16 17L15 17L15 19L14 19L14 16L13 16L13 17L12 17L12 18L10 18L10 17L11 17L11 16L10 16L10 17L9 17L9 16L8 16L8 15L7 15L7 14L6 14L6 15L7 15L7 16L8 16L8 17L9 17L9 18L8 18L8 19L11 19L11 20L9 20L9 21L11 21L11 20L12 20L12 21L13 21L13 22L12 22L12 23L13 23L13 22L14 22L14 23L15 23L15 21L14 21L14 20L17 20L17 22L16 22L16 23L17 23L17 22L18 22L18 24L17 24L17 26L15 26L15 25L13 25L13 27L14 27L14 30L13 30L13 29L12 29L12 31L11 31L11 32L13 32L13 31L15 31L15 30L17 30L17 28L18 28L18 24L21 24L21 25L22 25L22 24L23 24L23 26L20 26L20 25L19 25L19 30L18 30L18 31L19 31L19 30L20 30L20 28L21 28L21 29L22 29L22 27L23 27L23 29L24 29L24 30L27 30L27 29L28 29L28 30L30 30L30 29L31 29L31 30L32 30L32 29L33 29L33 31L32 31L32 32L33 32L33 31L34 31L34 32L35 32L35 30L36 30L36 27L37 27L37 26L36 26L36 27L35 27L35 26L34 26L34 25L38 25L38 28L37 28L37 29L40 29L40 27L41 27L41 30L39 30L39 31L38 31L38 30L37 30L37 31L36 31L36 32L37 32L37 31L38 31L38 33L35 33L35 34L38 34L38 35L39 35L39 34L40 34L40 33L41 33L41 32L42 32L42 31L43 31L43 30L42 30L42 28L43 28L43 27L42 27L42 26L41 26L41 25L40 25L40 27L39 27L39 25L38 25L38 23L39 23L39 22L38 22L38 20L37 20L37 24L36 24L36 20L35 20L35 17L34 17L34 16L37 16L37 17L38 17L38 16L37 16L37 14L36 14L36 15L35 15L35 14L34 14L34 13L33 13L33 15L32 15L32 14L30 14L30 13L32 13L32 12L31 12L31 11L32 11L32 10L33 10L33 9L34 9L34 8ZM41 8L41 9L43 9L43 8ZM45 8L45 9L46 9L46 8ZM48 8L48 9L51 9L51 8ZM52 8L52 9L53 9L53 8ZM23 10L23 11L22 11L22 12L24 12L24 13L25 13L25 12L24 12L24 10ZM51 10L51 13L50 13L50 12L49 12L49 11L47 11L47 13L49 13L49 15L50 15L50 14L52 14L52 15L51 15L51 17L52 17L52 18L53 18L53 13L52 13L52 10ZM1 11L1 12L2 12L2 13L3 13L3 12L2 12L2 11ZM13 13L13 14L14 14L14 13ZM1 14L1 16L2 16L2 18L3 18L3 19L4 19L4 18L3 18L3 17L4 17L4 16L2 16L2 14ZM3 14L3 15L4 15L4 14ZM26 15L26 16L25 16L25 18L24 18L24 16L21 16L21 17L20 17L20 19L19 19L19 20L18 20L18 21L19 21L19 20L20 20L20 22L21 22L21 23L22 23L22 22L23 22L23 21L21 21L21 20L22 20L22 18L24 18L24 21L26 21L26 16L28 16L28 18L27 18L27 19L28 19L28 20L27 20L27 21L28 21L28 23L27 23L27 22L24 22L24 24L30 24L30 26L31 26L31 24L30 24L30 23L31 23L31 22L29 22L29 21L30 21L30 20L31 20L31 19L32 19L32 23L33 23L33 22L35 22L35 21L33 21L33 20L34 20L34 19L32 19L32 18L31 18L31 17L30 17L30 18L29 18L29 16L30 16L30 15L29 15L29 16L28 16L28 15ZM31 15L31 16L32 16L32 15ZM46 16L46 17L47 17L47 16ZM21 17L21 18L22 18L22 17ZM12 18L12 19L13 19L13 18ZM36 18L36 19L38 19L38 18ZM41 18L41 19L42 19L42 18ZM20 19L20 20L21 20L21 19ZM29 19L29 20L30 20L30 19ZM6 23L6 24L7 24L7 23ZM34 23L34 24L35 24L35 23ZM9 24L9 26L11 26L11 24ZM32 24L32 25L33 25L33 24ZM5 25L5 28L8 28L8 25ZM25 25L25 28L28 28L28 25ZM45 25L45 28L48 28L48 25ZM6 26L6 27L7 27L7 26ZM14 26L14 27L15 27L15 26ZM23 26L23 27L24 27L24 26ZM26 26L26 27L27 27L27 26ZM46 26L46 27L47 27L47 26ZM16 27L16 28L15 28L15 29L16 29L16 28L17 28L17 27ZM29 27L29 28L33 28L33 29L34 29L34 28L33 28L33 27ZM52 28L52 29L53 29L53 28ZM3 29L3 30L4 30L4 31L5 31L5 30L7 30L7 29L5 29L5 30L4 30L4 29ZM9 30L9 31L10 31L10 30ZM22 30L22 32L23 32L23 30ZM41 30L41 31L40 31L40 32L41 32L41 31L42 31L42 30ZM1 31L1 32L2 32L2 33L3 33L3 34L4 34L4 33L3 33L3 32L2 32L2 31ZM16 31L16 35L17 35L17 34L19 34L19 33L17 33L17 31ZM20 31L20 32L21 32L21 31ZM6 32L6 33L7 33L7 34L6 34L6 35L8 35L8 36L9 36L9 37L10 37L10 36L11 36L11 34L8 34L8 33L7 33L7 32ZM14 32L14 33L15 33L15 32ZM28 32L28 33L29 33L29 35L30 35L30 36L31 36L31 35L32 35L32 34L31 34L31 33L30 33L30 32ZM48 32L48 33L50 33L50 32ZM38 33L38 34L39 34L39 33ZM14 34L14 35L12 35L12 37L14 37L14 35L15 35L15 34ZM9 35L9 36L10 36L10 35ZM50 36L50 37L51 37L51 36ZM19 37L19 38L20 38L20 37ZM23 37L23 38L22 38L22 39L23 39L23 38L24 38L24 39L26 39L26 40L24 40L24 42L25 42L25 41L28 41L28 38L27 38L27 39L26 39L26 38L25 38L25 37ZM29 38L29 40L31 40L31 39L30 39L30 38ZM18 40L18 41L19 41L19 40ZM48 40L48 42L46 42L46 43L48 43L48 44L49 44L49 43L50 43L50 42L49 42L49 41L50 41L50 40ZM10 41L10 42L11 42L11 41ZM2 42L2 43L3 43L3 42ZM32 42L32 43L31 43L31 46L29 46L29 47L30 47L30 50L32 50L32 49L33 49L33 48L34 48L34 47L35 47L35 48L36 48L36 46L35 46L35 45L33 45L33 44L34 44L34 43L33 43L33 42ZM35 42L35 43L37 43L37 42ZM48 42L48 43L49 43L49 42ZM13 43L13 44L14 44L14 43ZM32 43L32 44L33 44L33 43ZM52 43L52 44L53 44L53 43ZM11 44L11 46L14 46L14 45L12 45L12 44ZM25 45L25 48L28 48L28 45ZM32 45L32 47L33 47L33 45ZM45 45L45 48L48 48L48 45ZM26 46L26 47L27 47L27 46ZM46 46L46 47L47 47L47 46ZM11 47L11 48L12 48L12 47ZM22 48L22 49L23 49L23 48ZM31 48L31 49L32 49L32 48ZM28 49L28 50L29 50L29 49ZM18 50L18 51L16 51L16 53L17 53L17 52L19 52L19 50ZM39 51L39 52L40 52L40 51ZM12 52L12 53L13 53L13 52ZM44 52L44 53L46 53L46 52ZM0 0L0 7L7 7L7 0ZM1 1L1 6L6 6L6 1ZM2 2L2 5L5 5L5 2ZM46 0L46 7L53 7L53 0ZM47 1L47 6L52 6L52 1ZM48 2L48 5L51 5L51 2ZM0 46L0 53L7 53L7 46ZM1 47L1 52L6 52L6 47ZM2 48L2 51L5 51L5 48Z" fill="#000000"/></g></g></svg>
