<?xml version="1.0" encoding="UTF-8"?>
<svg xmlns="http://www.w3.org/2000/svg" version="1.1" width="356" height="356" viewBox="0 0 356 356"><rect x="0" y="0" width="356" height="356" fill="#ffffff"/><g transform="scale(6.717)"><g transform="translate(0,0)"><path fill-rule="evenodd" d="M8 0L8 2L10 2L10 3L9 3L9 4L8 4L8 9L7 9L7 8L5 8L5 10L6 10L6 11L8 11L8 12L9 12L9 14L8 14L8 13L7 13L7 12L6 12L6 13L4 13L4 12L5 12L5 11L2 11L2 12L1 12L1 10L0 10L0 15L1 15L1 13L3 13L3 16L0 16L0 17L1 17L1 18L0 18L0 20L1 20L1 23L0 23L0 24L1 24L1 26L0 26L0 27L1 27L1 28L2 28L2 29L1 29L1 31L0 31L0 32L1 32L1 31L2 31L2 32L3 32L3 33L1 33L1 34L0 34L0 41L1 41L1 40L4 40L4 41L3 41L3 43L2 43L2 42L0 42L0 43L1 43L1 44L3 44L3 45L4 45L4 44L3 44L3 43L7 43L7 44L6 44L6 45L7 45L7 44L8 44L8 42L9 42L9 41L10 41L10 44L11 44L11 43L12 43L12 44L13 44L13 42L14 42L14 44L15 44L15 45L14 45L14 46L15 46L15 47L16 47L16 48L15 48L15 51L14 51L14 48L13 48L13 46L9 46L9 45L8 45L8 46L9 46L9 47L8 47L8 48L9 48L9 49L10 49L10 47L12 47L12 48L11 48L11 49L12 49L12 48L13 48L13 51L14 51L14 52L13 52L13 53L14 53L14 52L15 52L15 53L16 53L16 52L18 52L18 53L19 53L19 52L18 52L18 49L19 49L19 48L18 48L18 47L20 47L20 49L21 49L21 47L20 47L20 45L19 45L19 44L21 44L21 43L22 43L22 41L23 41L23 40L22 40L22 39L24 39L24 42L23 42L23 43L24 43L24 42L26 42L26 44L22 44L22 45L21 45L21 46L23 46L23 47L22 47L22 48L23 48L23 49L25 49L25 51L24 51L24 50L23 50L23 51L24 51L24 53L26 53L26 52L25 52L25 51L26 51L26 49L29 49L29 51L28 51L28 50L27 50L27 51L28 51L28 53L31 53L31 52L30 52L30 49L29 49L29 46L30 46L30 47L31 47L31 48L32 48L32 49L33 49L33 51L32 51L32 50L31 50L31 51L32 51L32 53L34 53L34 52L35 52L35 51L37 51L37 52L36 52L36 53L37 53L37 52L38 52L38 51L39 51L39 52L40 52L40 53L41 53L41 49L43 49L43 50L44 50L44 51L42 51L42 52L44 52L44 53L46 53L46 50L47 50L47 49L48 49L48 51L49 51L49 52L47 52L47 53L50 53L50 50L51 50L51 49L50 49L50 50L49 50L49 48L50 48L50 46L51 46L51 45L52 45L52 44L53 44L53 42L52 42L52 44L50 44L50 43L49 43L49 42L50 42L50 41L51 41L51 40L50 40L50 39L51 39L51 36L50 36L50 34L51 34L51 33L50 33L50 34L49 34L49 35L48 35L48 33L49 33L49 32L50 32L50 31L51 31L51 30L50 30L50 29L52 29L52 33L53 33L53 29L52 29L52 27L53 27L53 26L52 26L52 27L51 27L51 28L50 28L50 27L49 27L49 26L50 26L50 23L51 23L51 21L53 21L53 18L52 18L52 20L51 20L51 21L49 21L49 20L50 20L50 19L51 19L51 17L50 17L50 16L49 16L49 15L51 15L51 14L52 14L52 16L53 16L53 10L52 10L52 9L53 9L53 8L51 8L51 9L50 9L50 10L49 10L49 8L45 8L45 6L44 6L44 7L43 7L43 3L44 3L44 4L45 4L45 3L44 3L44 1L43 1L43 0L42 0L42 2L41 2L41 0L38 0L38 2L37 2L37 0L36 0L36 2L35 2L35 0L34 0L34 1L33 1L33 0L32 0L32 2L35 2L35 4L34 4L34 3L33 3L33 4L32 4L32 5L33 5L33 6L32 6L32 9L31 9L31 10L33 10L33 11L34 11L34 12L32 12L32 11L30 11L30 8L31 8L31 6L30 6L30 8L29 8L29 4L28 4L28 3L30 3L30 5L31 5L31 2L30 2L30 1L31 1L31 0L30 0L30 1L29 1L29 0L28 0L28 1L26 1L26 0L24 0L24 1L22 1L22 2L23 2L23 3L24 3L24 7L23 7L23 5L22 5L22 3L21 3L21 2L20 2L20 1L21 1L21 0L18 0L18 1L16 1L16 2L18 2L18 1L19 1L19 4L20 4L20 5L18 5L18 3L15 3L15 2L14 2L14 1L15 1L15 0L13 0L13 1L12 1L12 3L15 3L15 5L16 5L16 7L17 7L17 6L18 6L18 8L19 8L19 12L18 12L18 10L16 10L16 11L17 11L17 12L18 12L18 14L16 14L16 12L14 12L14 11L15 11L15 10L14 10L14 9L15 9L15 8L14 8L14 7L15 7L15 6L14 6L14 7L13 7L13 6L12 6L12 7L13 7L13 9L12 9L12 8L11 8L11 1L10 1L10 0ZM24 1L24 3L25 3L25 4L26 4L26 1ZM28 1L28 2L27 2L27 3L28 3L28 2L29 2L29 1ZM39 1L39 2L38 2L38 3L36 3L36 4L35 4L35 5L36 5L36 6L35 6L35 7L34 7L34 6L33 6L33 9L34 9L34 10L35 10L35 9L36 9L36 8L37 8L37 7L38 7L38 3L39 3L39 2L40 2L40 5L41 5L41 7L40 7L40 6L39 6L39 7L40 7L40 8L39 8L39 9L38 9L38 10L37 10L37 11L35 11L35 12L34 12L34 14L33 14L33 13L32 13L32 12L30 12L30 14L29 14L29 15L27 15L27 14L26 14L26 13L29 13L29 11L28 11L28 10L29 10L29 9L24 9L24 10L23 10L23 9L22 9L22 8L23 8L23 7L22 7L22 5L20 5L20 6L19 6L19 8L20 8L20 6L21 6L21 7L22 7L22 8L21 8L21 10L20 10L20 11L21 11L21 12L20 12L20 14L19 14L19 15L18 15L18 16L19 16L19 17L18 17L18 18L19 18L19 20L21 20L21 21L20 21L20 22L19 22L19 21L18 21L18 19L17 19L17 18L16 18L16 19L17 19L17 20L16 20L16 23L14 23L14 24L15 24L15 25L14 25L14 26L15 26L15 28L16 28L16 30L13 30L13 28L14 28L14 27L13 27L13 28L12 28L12 27L11 27L11 26L10 26L10 25L11 25L11 24L13 24L13 22L12 22L12 21L13 21L13 19L14 19L14 20L15 20L15 19L14 19L14 18L15 18L15 16L14 16L14 15L16 15L16 14L11 14L11 13L12 13L12 11L14 11L14 10L12 10L12 11L11 11L11 10L10 10L10 9L11 9L11 8L9 8L9 10L8 10L8 11L9 11L9 12L10 12L10 11L11 11L11 13L10 13L10 15L12 15L12 16L13 16L13 17L10 17L10 18L9 18L9 17L8 17L8 15L5 15L5 14L4 14L4 15L5 15L5 16L3 16L3 17L4 17L4 18L1 18L1 20L3 20L3 22L2 22L2 23L3 23L3 24L5 24L5 23L6 23L6 24L7 24L7 23L8 23L8 24L9 24L9 29L8 29L8 30L7 30L7 29L4 29L4 31L3 31L3 32L4 32L4 34L3 34L3 35L2 35L2 36L1 36L1 39L4 39L4 38L3 38L3 37L4 37L4 36L3 36L3 35L5 35L5 32L7 32L7 33L6 33L6 34L8 34L8 35L6 35L6 36L7 36L7 37L5 37L5 38L7 38L7 37L8 37L8 39L5 39L5 41L6 41L6 42L8 42L8 41L9 41L9 40L8 40L8 39L10 39L10 41L11 41L11 42L12 42L12 41L11 41L11 39L10 39L10 37L11 37L11 38L12 38L12 39L13 39L13 38L15 38L15 39L14 39L14 40L15 40L15 41L14 41L14 42L15 42L15 44L16 44L16 47L17 47L17 46L19 46L19 45L18 45L18 43L19 43L19 40L20 40L20 39L21 39L21 38L22 38L22 35L20 35L20 34L24 34L24 33L25 33L25 35L23 35L23 38L24 38L24 39L26 39L26 40L27 40L27 42L29 42L29 43L28 43L28 44L30 44L30 46L31 46L31 47L32 47L32 48L34 48L34 50L35 50L35 49L36 49L36 50L37 50L37 51L38 51L38 50L39 50L39 49L40 49L40 48L42 48L42 47L43 47L43 46L44 46L44 45L43 45L43 44L42 44L42 43L44 43L44 44L45 44L45 41L46 41L46 42L47 42L47 41L46 41L46 38L47 38L47 37L46 37L46 36L47 36L47 35L46 35L46 34L47 34L47 33L48 33L48 30L49 30L49 31L50 31L50 30L49 30L49 29L50 29L50 28L49 28L49 29L48 29L48 30L47 30L47 33L46 33L46 29L45 29L45 30L44 30L44 29L43 29L43 28L44 28L44 24L45 24L45 23L46 23L46 22L47 22L47 24L49 24L49 23L50 23L50 22L49 22L49 21L48 21L48 19L50 19L50 17L48 17L48 19L47 19L47 17L46 17L46 15L45 15L45 13L44 13L44 14L43 14L43 13L42 13L42 14L40 14L40 12L41 12L41 11L42 11L42 12L46 12L46 14L47 14L47 15L48 15L48 14L47 14L47 11L48 11L48 9L46 9L46 10L47 10L47 11L44 11L44 10L45 10L45 9L44 9L44 8L43 8L43 7L42 7L42 5L41 5L41 2L40 2L40 1ZM42 2L42 3L43 3L43 2ZM9 4L9 7L10 7L10 4ZM33 4L33 5L34 5L34 4ZM25 5L25 8L28 8L28 5ZM26 6L26 7L27 7L27 6ZM36 6L36 7L37 7L37 6ZM41 7L41 8L40 8L40 9L39 9L39 10L41 10L41 8L42 8L42 7ZM0 8L0 9L3 9L3 10L4 10L4 9L3 9L3 8ZM16 8L16 9L17 9L17 8ZM6 9L6 10L7 10L7 9ZM43 9L43 10L44 10L44 9ZM22 10L22 11L23 11L23 12L22 12L22 13L23 13L23 14L24 14L24 15L22 15L22 14L20 14L20 17L21 17L21 18L20 18L20 19L21 19L21 20L22 20L22 22L20 22L20 24L19 24L19 23L18 23L18 24L19 24L19 26L18 26L18 27L17 27L17 26L16 26L16 27L17 27L17 28L18 28L18 29L19 29L19 28L21 28L21 30L16 30L16 32L15 32L15 31L14 31L14 32L15 32L15 34L13 34L13 35L12 35L12 37L13 37L13 35L15 35L15 36L14 36L14 37L15 37L15 38L16 38L16 36L17 36L17 35L16 35L16 34L18 34L18 38L19 38L19 39L18 39L18 40L19 40L19 39L20 39L20 38L19 38L19 34L18 34L18 33L19 33L19 32L18 32L18 31L21 31L21 30L23 30L23 31L22 31L22 32L23 32L23 33L24 33L24 32L25 32L25 31L26 31L26 33L27 33L27 34L26 34L26 35L27 35L27 36L26 36L26 37L25 37L25 36L24 36L24 38L26 38L26 37L27 37L27 38L30 38L30 40L31 40L31 38L32 38L32 43L33 43L33 44L32 44L32 45L31 45L31 46L32 46L32 45L33 45L33 46L34 46L34 47L35 47L35 48L36 48L36 49L37 49L37 50L38 50L38 49L39 49L39 48L40 48L40 45L41 45L41 47L42 47L42 44L40 44L40 43L42 43L42 41L43 41L43 42L44 42L44 41L45 41L45 39L44 39L44 38L43 38L43 39L42 39L42 37L44 37L44 36L46 36L46 35L45 35L45 33L44 33L44 32L45 32L45 31L44 31L44 30L42 30L42 28L43 28L43 26L42 26L42 24L40 24L40 26L38 26L38 23L41 23L41 22L42 22L42 21L43 21L43 19L44 19L44 20L45 20L45 22L44 22L44 23L45 23L45 22L46 22L46 20L47 20L47 19L46 19L46 17L45 17L45 16L44 16L44 17L43 17L43 16L42 16L42 17L41 17L41 16L40 16L40 17L39 17L39 18L38 18L38 16L36 16L36 15L35 15L35 14L38 14L38 13L37 13L37 12L36 12L36 13L35 13L35 14L34 14L34 17L33 17L33 15L32 15L32 18L30 18L30 16L31 16L31 14L32 14L32 13L31 13L31 14L30 14L30 16L26 16L26 15L25 15L25 14L24 14L24 13L26 13L26 11L27 11L27 12L28 12L28 11L27 11L27 10L26 10L26 11L25 11L25 10L24 10L24 11L23 11L23 10ZM50 10L50 12L51 12L51 11L52 11L52 10ZM24 11L24 12L23 12L23 13L24 13L24 12L25 12L25 11ZM38 11L38 12L39 12L39 11ZM6 13L6 14L7 14L7 13ZM50 13L50 14L51 14L51 13ZM39 14L39 15L40 15L40 14ZM42 14L42 15L43 15L43 14ZM21 15L21 16L22 16L22 15ZM24 15L24 16L25 16L25 17L24 17L24 18L22 18L22 20L23 20L23 22L22 22L22 24L25 24L25 22L26 22L26 24L30 24L30 26L31 26L31 25L32 25L32 27L30 27L30 28L29 28L29 29L28 29L28 30L27 30L27 29L25 29L25 30L24 30L24 26L23 26L23 25L21 25L21 26L20 26L20 27L21 27L21 26L23 26L23 30L24 30L24 31L25 31L25 30L26 30L26 31L28 31L28 32L27 32L27 33L28 33L28 36L27 36L27 37L28 37L28 36L29 36L29 37L30 37L30 38L31 38L31 37L30 37L30 36L31 36L31 35L33 35L33 37L32 37L32 38L33 38L33 40L34 40L34 39L35 39L35 41L34 41L34 44L33 44L33 45L34 45L34 46L35 46L35 47L36 47L36 48L39 48L39 45L40 45L40 44L39 44L39 43L40 43L40 40L38 40L38 39L39 39L39 38L40 38L40 39L41 39L41 40L42 40L42 39L41 39L41 38L40 38L40 36L41 36L41 37L42 37L42 34L43 34L43 33L42 33L42 32L44 32L44 31L42 31L42 30L41 30L41 29L40 29L40 28L42 28L42 26L41 26L41 27L39 27L39 28L38 28L38 34L37 34L37 35L35 35L35 32L34 32L34 31L37 31L37 29L36 29L36 30L35 30L35 29L34 29L34 31L31 31L31 29L32 29L32 28L33 28L33 27L34 27L34 28L35 28L35 27L34 27L34 26L35 26L35 25L36 25L36 27L38 27L38 26L37 26L37 25L36 25L36 24L37 24L37 23L36 23L36 24L34 24L34 26L33 26L33 25L32 25L32 23L34 23L34 22L35 22L35 21L36 21L36 20L38 20L38 22L39 22L39 21L40 21L40 22L41 22L41 21L42 21L42 18L43 18L43 17L42 17L42 18L41 18L41 17L40 17L40 18L39 18L39 19L40 19L40 18L41 18L41 21L40 21L40 20L38 20L38 18L37 18L37 17L36 17L36 16L35 16L35 17L34 17L34 19L33 19L33 18L32 18L32 19L30 19L30 18L29 18L29 19L28 19L28 17L26 17L26 16L25 16L25 15ZM6 16L6 17L5 17L5 18L4 18L4 19L3 19L3 20L4 20L4 19L7 19L7 20L5 20L5 21L4 21L4 22L5 22L5 21L7 21L7 22L6 22L6 23L7 23L7 22L8 22L8 21L9 21L9 24L11 24L11 23L12 23L12 22L11 22L11 21L12 21L12 19L11 19L11 18L10 18L10 19L9 19L9 20L8 20L8 19L7 19L7 18L8 18L8 17L7 17L7 16ZM6 17L6 18L7 18L7 17ZM25 17L25 20L24 20L24 22L25 22L25 20L26 20L26 19L27 19L27 21L26 21L26 22L27 22L27 23L30 23L30 24L31 24L31 22L32 22L32 21L33 21L33 22L34 22L34 20L35 20L35 19L37 19L37 18L35 18L35 19L34 19L34 20L33 20L33 19L32 19L32 21L31 21L31 20L30 20L30 19L29 19L29 21L28 21L28 19L27 19L27 18L26 18L26 17ZM44 17L44 19L45 19L45 17ZM10 19L10 20L11 20L11 19ZM17 21L17 22L18 22L18 21ZM30 21L30 22L31 22L31 21ZM10 22L10 23L11 23L11 22ZM48 22L48 23L49 23L49 22ZM52 22L52 24L51 24L51 25L52 25L52 24L53 24L53 22ZM16 23L16 25L17 25L17 23ZM5 25L5 28L8 28L8 25ZM12 25L12 26L13 26L13 25ZM25 25L25 28L28 28L28 25ZM45 25L45 28L48 28L48 25ZM1 26L1 27L2 27L2 28L4 28L4 26L3 26L3 27L2 27L2 26ZM6 26L6 27L7 27L7 26ZM26 26L26 27L27 27L27 26ZM46 26L46 27L47 27L47 26ZM11 28L11 29L12 29L12 28ZM30 28L30 29L31 29L31 28ZM9 29L9 30L8 30L8 34L9 34L9 37L10 37L10 36L11 36L11 34L12 34L12 33L13 33L13 32L11 32L11 34L10 34L10 31L13 31L13 30L10 30L10 29ZM6 30L6 31L7 31L7 30ZM28 30L28 31L29 31L29 35L31 35L31 34L30 34L30 33L31 33L31 31L29 31L29 30ZM40 30L40 31L39 31L39 32L40 32L40 34L38 34L38 36L36 36L36 37L35 37L35 38L36 38L36 37L37 37L37 39L36 39L36 41L35 41L35 42L36 42L36 46L38 46L38 45L37 45L37 42L38 42L38 43L39 43L39 42L38 42L38 40L37 40L37 39L38 39L38 36L39 36L39 35L40 35L40 34L42 34L42 33L41 33L41 32L40 32L40 31L41 31L41 30ZM20 32L20 33L21 33L21 32ZM32 32L32 33L33 33L33 35L34 35L34 32ZM52 34L52 35L53 35L53 34ZM2 36L2 37L3 37L3 36ZM48 36L48 38L49 38L49 39L48 39L48 40L49 40L49 39L50 39L50 37L49 37L49 36ZM52 38L52 39L53 39L53 38ZM15 39L15 40L16 40L16 41L17 41L17 39ZM27 39L27 40L28 40L28 39ZM43 39L43 40L44 40L44 39ZM6 40L6 41L8 41L8 40ZM52 40L52 41L53 41L53 40ZM48 41L48 42L49 42L49 41ZM16 42L16 43L18 43L18 42ZM20 42L20 43L21 43L21 42ZM30 43L30 44L31 44L31 43ZM47 43L47 44L48 44L48 43ZM34 44L34 45L35 45L35 44ZM23 45L23 46L24 46L24 45ZM25 45L25 48L28 48L28 45ZM45 45L45 48L48 48L48 45ZM49 45L49 46L50 46L50 45ZM26 46L26 47L27 47L27 46ZM46 46L46 47L47 47L47 46ZM52 46L52 47L51 47L51 48L52 48L52 47L53 47L53 46ZM44 49L44 50L45 50L45 49ZM8 50L8 53L9 53L9 50ZM10 50L10 53L12 53L12 52L11 52L11 51L12 51L12 50ZM16 50L16 51L17 51L17 50ZM20 50L20 51L21 51L21 52L20 52L20 53L21 53L21 52L22 52L22 53L23 53L23 52L22 52L22 50ZM33 51L33 52L34 52L34 51ZM44 51L44 52L45 52L45 51ZM52 52L52 53L53 53L53 52ZM0 0L0 7L7 7L7 0ZM1 1L1 6L6 6L6 1ZM2 2L2 5L5 5L5 2ZM46 0L46 7L53 7L53 0ZM47 1L47 6L52 6L52 1ZM48 2L48 5L51 5L51 2ZM0 46L0 53L7 53L7 46ZM1 47L1 52L6 52L6 47ZM2 48L2 51L5 51L5 48Z" fill="#000000"/></g></g></svg>
