<?xml version="1.0" encoding="UTF-8"?>
<svg xmlns="http://www.w3.org/2000/svg" version="1.1" width="356" height="356" viewBox="0 0 356 356"><rect x="0" y="0" width="356" height="356" fill="#ffffff"/><g transform="scale(6.717)"><g transform="translate(0,0)"><path fill-rule="evenodd" d="M8 0L8 2L9 2L9 1L10 1L10 0ZM12 0L12 2L10 2L10 3L9 3L9 4L8 4L8 9L10 9L10 11L9 11L9 10L6 10L6 9L7 9L7 8L5 8L5 9L4 9L4 10L3 10L3 8L0 8L0 9L2 9L2 10L1 10L1 12L0 12L0 13L1 13L1 14L0 14L0 15L1 15L1 16L0 16L0 17L1 17L1 18L0 18L0 19L1 19L1 21L0 21L0 25L1 25L1 26L2 26L2 27L3 27L3 28L1 28L1 29L0 29L0 34L2 34L2 37L1 37L1 38L3 38L3 39L2 39L2 40L3 40L3 41L2 41L2 42L1 42L1 39L0 39L0 43L1 43L1 44L3 44L3 45L4 45L4 44L3 44L3 43L7 43L7 44L6 44L6 45L7 45L7 44L8 44L8 46L9 46L9 47L8 47L8 48L11 48L11 47L10 47L10 46L12 46L12 49L9 49L9 50L8 50L8 53L10 53L10 52L11 52L11 53L12 53L12 52L13 52L13 53L14 53L14 51L15 51L15 53L16 53L16 52L18 52L18 53L20 53L20 52L18 52L18 49L19 49L19 48L20 48L20 49L21 49L21 48L20 48L20 47L21 47L21 46L22 46L22 45L24 45L24 46L23 46L23 47L22 47L22 48L23 48L23 50L24 50L24 51L23 51L23 52L22 52L22 53L23 53L23 52L24 52L24 53L25 53L25 52L26 52L26 53L27 53L27 51L28 51L28 53L30 53L30 52L32 52L32 53L34 53L34 52L35 52L35 51L37 51L37 52L36 52L36 53L37 53L37 52L38 52L38 53L41 53L41 52L42 52L42 53L43 53L43 52L44 52L44 53L45 53L45 52L46 52L46 53L49 53L49 52L50 52L50 51L51 51L51 50L50 50L50 49L49 49L49 48L50 48L50 46L51 46L51 47L52 47L52 48L53 48L53 45L52 45L52 44L53 44L53 42L52 42L52 44L50 44L50 43L48 43L48 41L49 41L49 42L50 42L50 41L53 41L53 38L52 38L52 40L50 40L50 39L51 39L51 36L50 36L50 34L51 34L51 33L52 33L52 31L53 31L53 29L52 29L52 27L53 27L53 26L52 26L52 27L51 27L51 28L50 28L50 27L49 27L49 25L50 25L50 26L51 26L51 25L52 25L52 24L51 24L51 25L50 25L50 23L51 23L51 21L53 21L53 18L52 18L52 20L51 20L51 21L50 21L50 18L51 18L51 17L50 17L50 16L49 16L49 15L51 15L51 16L52 16L52 15L53 15L53 14L52 14L52 15L51 15L51 14L50 14L50 13L53 13L53 10L52 10L52 9L53 9L53 8L51 8L51 10L50 10L50 9L49 9L49 8L45 8L45 6L44 6L44 8L45 8L45 11L44 11L44 10L42 10L42 9L43 9L43 8L42 8L42 9L41 9L41 5L39 5L39 4L40 4L40 3L41 3L41 4L42 4L42 7L43 7L43 3L44 3L44 4L45 4L45 3L44 3L44 1L43 1L43 0L42 0L42 2L41 2L41 1L40 1L40 3L39 3L39 0L38 0L38 3L39 3L39 4L38 4L38 5L37 5L37 4L36 4L36 3L37 3L37 0L36 0L36 3L35 3L35 0L34 0L34 1L33 1L33 0L32 0L32 2L34 2L34 3L33 3L33 4L32 4L32 3L30 3L30 2L31 2L31 0L30 0L30 2L29 2L29 3L30 3L30 5L29 5L29 4L28 4L28 1L29 1L29 0L27 0L27 2L26 2L26 4L25 4L25 3L24 3L24 2L25 2L25 0L24 0L24 2L23 2L23 0L22 0L22 1L21 1L21 0L18 0L18 1L16 1L16 2L18 2L18 1L19 1L19 4L20 4L20 5L18 5L18 3L15 3L15 5L16 5L16 7L17 7L17 6L18 6L18 8L19 8L19 12L18 12L18 10L16 10L16 11L17 11L17 12L18 12L18 14L16 14L16 12L14 12L14 9L15 9L15 8L14 8L14 7L15 7L15 6L14 6L14 7L13 7L13 5L12 5L12 4L13 4L13 3L12 3L12 2L13 2L13 1L15 1L15 0ZM20 1L20 2L21 2L21 3L22 3L22 4L21 4L21 5L20 5L20 6L19 6L19 8L20 8L20 6L21 6L21 7L22 7L22 6L23 6L23 9L22 9L22 8L21 8L21 10L20 10L20 11L21 11L21 12L20 12L20 14L19 14L19 15L18 15L18 16L19 16L19 17L18 17L18 18L19 18L19 20L21 20L21 21L20 21L20 22L19 22L19 21L18 21L18 19L17 19L17 18L16 18L16 19L17 19L17 20L16 20L16 23L14 23L14 24L15 24L15 25L14 25L14 26L15 26L15 28L16 28L16 30L13 30L13 32L12 32L12 33L13 33L13 34L12 34L12 35L11 35L11 30L12 30L12 29L13 29L13 28L14 28L14 27L13 27L13 26L12 26L12 25L10 25L10 24L11 24L11 23L12 23L12 22L11 22L11 21L12 21L12 20L13 20L13 19L14 19L14 20L15 20L15 19L14 19L14 18L15 18L15 16L14 16L14 15L16 15L16 14L13 14L13 13L11 13L11 14L9 14L9 16L11 16L11 17L10 17L10 18L9 18L9 19L8 19L8 17L6 17L6 16L8 16L8 14L7 14L7 13L6 13L6 12L8 12L8 13L9 13L9 11L6 11L6 12L4 12L4 13L3 13L3 14L2 14L2 15L3 15L3 14L4 14L4 13L6 13L6 14L7 14L7 15L5 15L5 16L4 16L4 17L3 17L3 16L1 16L1 17L2 17L2 18L1 18L1 19L2 19L2 21L1 21L1 24L2 24L2 26L3 26L3 27L4 27L4 26L3 26L3 24L7 24L7 23L5 23L5 22L8 22L8 21L10 21L10 24L9 24L9 26L12 26L12 27L10 27L10 29L9 29L9 30L10 30L10 32L9 32L9 31L8 31L8 29L6 29L6 30L7 30L7 31L6 31L6 32L7 32L7 31L8 31L8 34L7 34L7 33L5 33L5 31L4 31L4 30L5 30L5 29L4 29L4 28L3 28L3 29L2 29L2 30L3 30L3 31L4 31L4 32L1 32L1 33L2 33L2 34L7 34L7 35L5 35L5 36L4 36L4 35L3 35L3 38L4 38L4 39L5 39L5 40L7 40L7 41L6 41L6 42L9 42L9 43L11 43L11 44L9 44L9 46L10 46L10 45L13 45L13 49L12 49L12 51L11 51L11 52L12 52L12 51L14 51L14 50L15 50L15 49L14 49L14 47L15 47L15 48L16 48L16 47L17 47L17 46L19 46L19 45L20 45L20 46L21 46L21 45L22 45L22 43L23 43L23 41L24 41L24 42L26 42L26 44L27 44L27 43L28 43L28 44L29 44L29 45L30 45L30 46L29 46L29 47L32 47L32 48L31 48L31 49L30 49L30 50L32 50L32 52L33 52L33 49L32 49L32 48L34 48L34 50L36 50L36 48L38 48L38 50L37 50L37 51L38 51L38 52L39 52L39 51L38 51L38 50L39 50L39 49L40 49L40 48L41 48L41 47L40 47L40 46L41 46L41 45L40 45L40 44L42 44L42 46L43 46L43 47L42 47L42 50L41 50L41 51L42 51L42 52L43 52L43 51L44 51L44 52L45 52L45 51L46 51L46 52L49 52L49 51L50 51L50 50L49 50L49 51L48 51L48 49L46 49L46 50L45 50L45 49L44 49L44 50L43 50L43 48L44 48L44 46L43 46L43 44L44 44L44 43L45 43L45 41L44 41L44 42L43 42L43 41L42 41L42 40L44 40L44 39L43 39L43 37L42 37L42 36L41 36L41 35L42 35L42 34L43 34L43 33L42 33L42 32L44 32L44 33L46 33L46 30L47 30L47 33L48 33L48 34L47 34L47 35L46 35L46 34L45 34L45 35L46 35L46 36L44 36L44 35L43 35L43 36L44 36L44 37L45 37L45 39L46 39L46 42L47 42L47 41L48 41L48 40L49 40L49 39L50 39L50 36L48 36L48 34L50 34L50 33L51 33L51 31L52 31L52 30L51 30L51 29L50 29L50 28L49 28L49 29L48 29L48 30L47 30L47 29L46 29L46 30L43 30L43 28L44 28L44 26L43 26L43 24L44 24L44 23L46 23L46 22L47 22L47 24L49 24L49 23L50 23L50 22L49 22L49 23L48 23L48 22L47 22L47 21L48 21L48 20L49 20L49 17L48 17L48 19L47 19L47 17L46 17L46 15L45 15L45 13L44 13L44 12L43 12L43 13L42 13L42 12L41 12L41 11L40 11L40 6L39 6L39 5L38 5L38 6L37 6L37 5L36 5L36 6L35 6L35 7L34 7L34 6L33 6L33 9L34 9L34 10L35 10L35 9L36 9L36 8L37 8L37 7L38 7L38 8L39 8L39 9L38 9L38 10L37 10L37 11L34 11L34 12L33 12L33 10L31 10L31 9L32 9L32 4L31 4L31 5L30 5L30 6L29 6L29 7L30 7L30 8L29 8L29 9L30 9L30 10L31 10L31 12L30 12L30 11L28 11L28 9L26 9L26 10L27 10L27 11L26 11L26 12L25 12L25 11L24 11L24 10L25 10L25 9L24 9L24 3L22 3L22 2L21 2L21 1ZM42 2L42 3L43 3L43 2ZM10 3L10 4L11 4L11 3ZM34 3L34 4L33 4L33 5L34 5L34 4L35 4L35 3ZM9 5L9 8L10 8L10 9L11 9L11 10L13 10L13 7L12 7L12 5ZM25 5L25 8L28 8L28 5ZM10 6L10 8L12 8L12 7L11 7L11 6ZM26 6L26 7L27 7L27 6ZM30 6L30 7L31 7L31 6ZM36 6L36 7L37 7L37 6ZM38 6L38 7L39 7L39 6ZM16 8L16 9L17 9L17 8ZM30 8L30 9L31 9L31 8ZM46 9L46 10L47 10L47 13L46 13L46 14L48 14L48 15L49 15L49 14L48 14L48 9ZM2 10L2 11L3 11L3 10ZM4 10L4 11L5 11L5 10ZM21 10L21 11L22 11L22 10ZM38 10L38 11L39 11L39 10ZM51 10L51 11L50 11L50 12L51 12L51 11L52 11L52 10ZM11 11L11 12L12 12L12 11ZM23 11L23 12L22 12L22 14L20 14L20 17L21 17L21 18L20 18L20 19L21 19L21 20L22 20L22 21L21 21L21 22L20 22L20 24L19 24L19 23L18 23L18 24L19 24L19 26L18 26L18 27L17 27L17 26L16 26L16 27L17 27L17 28L18 28L18 29L19 29L19 28L21 28L21 27L22 27L22 29L21 29L21 30L16 30L16 32L15 32L15 31L14 31L14 32L15 32L15 34L13 34L13 35L15 35L15 36L14 36L14 37L15 37L15 38L13 38L13 39L9 39L9 40L8 40L8 41L9 41L9 42L10 42L10 41L13 41L13 42L14 42L14 41L15 41L15 40L16 40L16 41L17 41L17 39L15 39L15 38L16 38L16 36L17 36L17 35L16 35L16 34L18 34L18 38L19 38L19 39L18 39L18 40L19 40L19 43L18 43L18 42L16 42L16 43L18 43L18 45L19 45L19 44L21 44L21 43L22 43L22 41L23 41L23 40L25 40L25 39L26 39L26 42L27 42L27 39L26 39L26 37L27 37L27 36L28 36L28 38L29 38L29 39L31 39L31 38L30 38L30 37L29 37L29 36L28 36L28 35L30 35L30 36L31 36L31 35L30 35L30 33L31 33L31 31L32 31L32 30L34 30L34 32L32 32L32 33L33 33L33 35L32 35L32 43L34 43L34 41L35 41L35 39L34 39L34 40L33 40L33 36L34 36L34 37L35 37L35 38L36 38L36 41L37 41L37 43L38 43L38 40L37 40L37 38L38 38L38 39L39 39L39 38L40 38L40 37L41 37L41 38L42 38L42 37L41 37L41 36L40 36L40 34L38 34L38 32L39 32L39 31L37 31L37 30L36 30L36 29L37 29L37 28L38 28L38 29L39 29L39 28L40 28L40 29L41 29L41 30L40 30L40 33L41 33L41 34L42 34L42 33L41 33L41 32L42 32L42 31L43 31L43 30L42 30L42 28L43 28L43 27L42 27L42 24L43 24L43 23L44 23L44 20L45 20L45 22L46 22L46 20L47 20L47 19L46 19L46 17L45 17L45 15L44 15L44 13L43 13L43 14L42 14L42 13L41 13L41 12L40 12L40 13L41 13L41 14L42 14L42 15L44 15L44 16L43 16L43 18L42 18L42 16L40 16L40 15L38 15L38 16L36 16L36 15L35 15L35 14L38 14L38 13L39 13L39 12L38 12L38 13L37 13L37 12L36 12L36 13L35 13L35 14L34 14L34 13L33 13L33 12L32 12L32 13L33 13L33 14L32 14L32 18L31 18L31 20L30 20L30 19L29 19L29 18L28 18L28 17L29 17L29 16L30 16L30 15L31 15L31 14L30 14L30 12L28 12L28 13L27 13L27 12L26 12L26 15L25 15L25 16L26 16L26 19L25 19L25 21L24 21L24 18L25 18L25 17L23 17L23 16L24 16L24 14L25 14L25 12L24 12L24 11ZM45 11L45 12L46 12L46 11ZM1 12L1 13L2 13L2 12ZM23 12L23 14L22 14L22 15L21 15L21 16L22 16L22 15L23 15L23 14L24 14L24 12ZM28 13L28 14L27 14L27 15L26 15L26 16L27 16L27 17L28 17L28 16L29 16L29 15L28 15L28 14L29 14L29 13ZM11 14L11 16L12 16L12 17L13 17L13 14ZM33 15L33 17L34 17L34 19L35 19L35 20L34 20L34 23L35 23L35 22L36 22L36 20L37 20L37 21L38 21L38 22L40 22L40 23L39 23L39 25L38 25L38 23L36 23L36 24L34 24L34 26L33 26L33 25L32 25L32 23L33 23L33 22L32 22L32 20L33 20L33 18L32 18L32 20L31 20L31 21L30 21L30 24L29 24L29 23L28 23L28 22L29 22L29 20L27 20L27 19L28 19L28 18L27 18L27 19L26 19L26 21L25 21L25 22L24 22L24 21L22 21L22 24L23 24L23 22L24 22L24 24L25 24L25 22L26 22L26 24L27 24L27 23L28 23L28 24L29 24L29 25L30 25L30 27L29 27L29 28L30 28L30 27L31 27L31 29L30 29L30 31L28 31L28 32L27 32L27 33L26 33L26 32L24 32L24 33L23 33L23 32L22 32L22 31L23 31L23 30L24 30L24 31L25 31L25 30L26 30L26 31L27 31L27 30L29 30L29 29L27 29L27 30L26 30L26 29L25 29L25 30L24 30L24 26L23 26L23 25L21 25L21 26L20 26L20 27L21 27L21 26L23 26L23 30L21 30L21 31L18 31L18 32L19 32L19 33L18 33L18 34L19 34L19 38L20 38L20 39L19 39L19 40L20 40L20 39L21 39L21 37L22 37L22 38L24 38L24 39L25 39L25 38L24 38L24 37L22 37L22 35L23 35L23 36L25 36L25 37L26 37L26 36L27 36L27 35L28 35L28 34L29 34L29 33L28 33L28 32L30 32L30 31L31 31L31 29L32 29L32 28L33 28L33 29L34 29L34 30L35 30L35 31L36 31L36 30L35 30L35 29L34 29L34 28L33 28L33 27L34 27L34 26L35 26L35 25L36 25L36 27L37 27L37 25L38 25L38 27L40 27L40 28L42 28L42 27L40 27L40 26L41 26L41 25L40 25L40 24L42 24L42 23L43 23L43 21L42 21L42 18L41 18L41 17L40 17L40 16L39 16L39 17L38 17L38 18L37 18L37 17L36 17L36 16L35 16L35 17L34 17L34 15ZM5 17L5 19L4 19L4 20L5 20L5 21L2 21L2 22L5 22L5 21L7 21L7 20L5 20L5 19L7 19L7 18L6 18L6 17ZM39 17L39 18L38 18L38 19L37 19L37 18L35 18L35 19L37 19L37 20L38 20L38 19L39 19L39 18L40 18L40 22L42 22L42 21L41 21L41 18L40 18L40 17ZM44 17L44 18L45 18L45 17ZM2 18L2 19L3 19L3 18ZM10 18L10 20L11 20L11 18ZM12 18L12 19L13 19L13 18ZM22 18L22 19L23 19L23 18ZM43 19L43 20L44 20L44 19ZM17 21L17 22L18 22L18 21ZM26 21L26 22L28 22L28 21ZM52 22L52 23L53 23L53 22ZM16 23L16 25L17 25L17 23ZM30 24L30 25L31 25L31 27L32 27L32 25L31 25L31 24ZM36 24L36 25L37 25L37 24ZM5 25L5 28L8 28L8 25ZM25 25L25 28L28 28L28 25ZM45 25L45 28L48 28L48 25ZM6 26L6 27L7 27L7 26ZM26 26L26 27L27 27L27 26ZM46 26L46 27L47 27L47 26ZM11 28L11 29L12 29L12 28ZM3 29L3 30L4 30L4 29ZM49 29L49 30L48 30L48 33L49 33L49 32L50 32L50 31L51 31L51 30L50 30L50 29ZM49 30L49 31L50 31L50 30ZM44 31L44 32L45 32L45 31ZM20 32L20 33L21 33L21 32ZM34 32L34 36L35 36L35 37L36 37L36 36L38 36L38 38L39 38L39 37L40 37L40 36L39 36L39 35L38 35L38 34L37 34L37 35L36 35L36 36L35 36L35 32ZM24 33L24 34L23 34L23 35L25 35L25 36L26 36L26 35L25 35L25 34L26 34L26 33ZM9 34L9 35L8 35L8 37L7 37L7 36L5 36L5 37L7 37L7 38L5 38L5 39L7 39L7 38L10 38L10 37L11 37L11 38L12 38L12 36L11 36L11 35L10 35L10 34ZM20 34L20 35L22 35L22 34ZM52 34L52 35L53 35L53 34ZM0 35L0 36L1 36L1 35ZM47 36L47 38L46 38L46 39L47 39L47 40L48 40L48 39L49 39L49 38L48 38L48 36ZM14 39L14 40L15 40L15 39ZM22 39L22 40L23 40L23 39ZM41 39L41 40L40 40L40 42L39 42L39 43L40 43L40 42L41 42L41 43L42 43L42 44L43 44L43 42L42 42L42 41L41 41L41 40L42 40L42 39ZM30 40L30 41L28 41L28 43L29 43L29 44L30 44L30 45L31 45L31 46L32 46L32 47L35 47L35 48L36 48L36 47L35 47L35 46L36 46L36 45L37 45L37 44L36 44L36 45L35 45L35 46L34 46L34 44L32 44L32 45L31 45L31 43L30 43L30 41L31 41L31 40ZM3 41L3 42L2 42L2 43L3 43L3 42L5 42L5 41ZM11 42L11 43L12 43L12 42ZM20 42L20 43L21 43L21 42ZM35 42L35 43L36 43L36 42ZM13 43L13 45L15 45L15 47L16 47L16 44L15 44L15 43ZM24 43L24 44L25 44L25 43ZM47 43L47 44L48 44L48 43ZM38 44L38 45L39 45L39 44ZM25 45L25 48L28 48L28 45ZM45 45L45 48L48 48L48 45ZM49 45L49 46L50 46L50 45ZM26 46L26 47L27 47L27 46ZM46 46L46 47L47 47L47 46ZM18 47L18 48L19 48L19 47ZM38 47L38 48L40 48L40 47ZM24 49L24 50L25 50L25 51L24 51L24 52L25 52L25 51L27 51L27 50L28 50L28 49ZM9 50L9 52L10 52L10 50ZM16 50L16 51L17 51L17 50ZM20 50L20 51L22 51L22 50ZM44 50L44 51L45 51L45 50ZM46 50L46 51L47 51L47 50ZM29 51L29 52L30 52L30 51ZM52 52L52 53L53 53L53 52ZM0 0L0 7L7 7L7 0ZM1 1L1 6L6 6L6 1ZM2 2L2 5L5 5L5 2ZM46 0L46 7L53 7L53 0ZM47 1L47 6L52 6L52 1ZM48 2L48 5L51 5L51 2ZM0 46L0 53L7 53L7 46ZM1 47L1 52L6 52L6 47ZM2 48L2 51L5 51L5 48Z" fill="#000000"/></g></g></svg>
