<?xml version="1.0" encoding="UTF-8"?>
<svg xmlns="http://www.w3.org/2000/svg" version="1.1" width="356" height="356" viewBox="0 0 356 356"><rect x="0" y="0" width="356" height="356" fill="#ffffff"/><g transform="scale(6.717)"><g transform="translate(0,0)"><path fill-rule="evenodd" d="M8 0L8 2L9 2L9 4L8 4L8 10L6 10L6 11L9 11L9 12L10 12L10 13L8 13L8 12L5 12L5 11L4 11L4 10L2 10L2 12L3 12L3 11L4 11L4 12L5 12L5 14L4 14L4 13L2 13L2 14L1 14L1 11L0 11L0 14L1 14L1 15L2 15L2 16L3 16L3 18L2 18L2 17L1 17L1 16L0 16L0 20L2 20L2 21L1 21L1 22L0 22L0 23L1 23L1 22L2 22L2 25L4 25L4 26L3 26L3 27L1 27L1 24L0 24L0 28L1 28L1 29L0 29L0 30L1 30L1 31L0 31L0 36L2 36L2 38L3 38L3 39L2 39L2 40L3 40L3 41L1 41L1 40L0 40L0 43L1 43L1 44L3 44L3 45L4 45L4 44L3 44L3 43L7 43L7 44L6 44L6 45L8 45L8 46L9 46L9 47L8 47L8 48L9 48L9 49L11 49L11 51L10 51L10 50L8 50L8 53L9 53L9 51L10 51L10 52L11 52L11 53L12 53L12 50L13 50L13 53L16 53L16 52L18 52L18 53L19 53L19 52L18 52L18 49L19 49L19 48L18 48L18 47L19 47L19 46L20 46L20 47L21 47L21 46L23 46L23 47L22 47L22 48L23 48L23 50L20 50L20 51L21 51L21 52L20 52L20 53L21 53L21 52L22 52L22 53L23 53L23 52L22 52L22 51L23 51L23 50L24 50L24 51L25 51L25 50L26 50L26 49L29 49L29 52L28 52L28 53L29 53L29 52L30 52L30 53L31 53L31 52L32 52L32 53L33 53L33 52L34 52L34 53L35 53L35 50L34 50L34 48L32 48L32 46L33 46L33 47L35 47L35 49L36 49L36 50L37 50L37 51L38 51L38 52L36 52L36 53L41 53L41 50L40 50L40 51L39 51L39 50L38 50L38 48L40 48L40 49L41 49L41 48L42 48L42 49L43 49L43 50L44 50L44 51L43 51L43 52L44 52L44 53L50 53L50 50L51 50L51 49L50 49L50 50L49 50L49 48L50 48L50 46L52 46L52 47L51 47L51 48L52 48L52 47L53 47L53 45L52 45L52 44L53 44L53 42L52 42L52 44L50 44L50 42L51 42L51 41L52 41L52 40L53 40L53 37L52 37L52 40L50 40L50 39L51 39L51 37L50 37L50 34L51 34L51 33L53 33L53 29L52 29L52 27L53 27L53 26L52 26L52 27L51 27L51 25L50 25L50 23L51 23L51 22L52 22L52 23L53 23L53 22L52 22L52 21L53 21L53 18L52 18L52 20L51 20L51 21L49 21L49 20L50 20L50 19L51 19L51 17L52 17L52 16L53 16L53 10L52 10L52 9L53 9L53 8L51 8L51 9L50 9L50 10L49 10L49 8L45 8L45 6L44 6L44 9L43 9L43 8L42 8L42 7L43 7L43 3L44 3L44 4L45 4L45 3L44 3L44 1L43 1L43 0L38 0L38 1L37 1L37 0L36 0L36 2L35 2L35 0L34 0L34 1L33 1L33 0L32 0L32 2L34 2L34 3L33 3L33 4L32 4L32 5L33 5L33 6L32 6L32 9L31 9L31 8L30 8L30 7L31 7L31 6L30 6L30 5L31 5L31 2L30 2L30 1L31 1L31 0L30 0L30 1L29 1L29 0L24 0L24 2L25 2L25 1L26 1L26 4L24 4L24 3L23 3L23 2L22 2L22 1L23 1L23 0L18 0L18 1L16 1L16 2L18 2L18 1L19 1L19 4L20 4L20 5L18 5L18 3L15 3L15 0L11 0L11 1L9 1L9 0ZM12 1L12 2L11 2L11 3L12 3L12 2L13 2L13 7L14 7L14 8L15 8L15 9L14 9L14 12L16 12L16 14L13 14L13 12L12 12L12 13L10 13L10 14L7 14L7 13L6 13L6 14L5 14L5 15L4 15L4 14L2 14L2 15L3 15L3 16L4 16L4 17L6 17L6 18L7 18L7 17L6 17L6 16L8 16L8 17L9 17L9 20L8 20L8 19L5 19L5 20L8 20L8 21L9 21L9 22L10 22L10 23L11 23L11 24L9 24L9 23L8 23L8 22L7 22L7 21L5 21L5 22L4 22L4 19L3 19L3 21L2 21L2 22L4 22L4 23L6 23L6 24L7 24L7 23L8 23L8 24L9 24L9 25L10 25L10 26L9 26L9 27L10 27L10 28L9 28L9 29L13 29L13 28L14 28L14 27L13 27L13 28L12 28L12 23L13 23L13 22L12 22L12 21L11 21L11 20L10 20L10 19L12 19L12 20L13 20L13 19L14 19L14 20L15 20L15 19L14 19L14 18L15 18L15 16L14 16L14 15L16 15L16 14L18 14L18 12L19 12L19 8L20 8L20 6L21 6L21 7L22 7L22 6L23 6L23 9L22 9L22 8L21 8L21 10L20 10L20 11L21 11L21 10L22 10L22 12L20 12L20 14L19 14L19 15L18 15L18 16L19 16L19 17L18 17L18 18L19 18L19 20L21 20L21 21L20 21L20 22L19 22L19 21L18 21L18 19L17 19L17 18L16 18L16 19L17 19L17 20L16 20L16 23L14 23L14 24L15 24L15 25L14 25L14 26L15 26L15 28L16 28L16 30L11 30L11 31L13 31L13 32L11 32L11 33L13 33L13 34L11 34L11 37L10 37L10 35L9 35L9 37L8 37L8 40L7 40L7 39L6 39L6 38L7 38L7 37L6 37L6 36L8 36L8 34L10 34L10 31L9 31L9 30L7 30L7 29L6 29L6 30L4 30L4 27L3 27L3 29L2 29L2 31L3 31L3 32L1 32L1 34L2 34L2 36L3 36L3 37L4 37L4 39L3 39L3 40L4 40L4 41L3 41L3 42L2 42L2 43L3 43L3 42L5 42L5 39L6 39L6 40L7 40L7 41L6 41L6 42L8 42L8 44L9 44L9 45L10 45L10 48L12 48L12 49L13 49L13 50L14 50L14 49L13 49L13 48L14 48L14 47L13 47L13 45L12 45L12 46L11 46L11 44L12 44L12 43L10 43L10 44L9 44L9 42L13 42L13 43L15 43L15 44L14 44L14 45L15 45L15 44L16 44L16 47L15 47L15 48L16 48L16 47L17 47L17 46L19 46L19 45L20 45L20 46L21 46L21 45L22 45L22 43L21 43L21 42L20 42L20 43L21 43L21 45L20 45L20 44L19 44L19 45L18 45L18 43L19 43L19 40L18 40L18 39L19 39L19 38L21 38L21 37L22 37L22 38L24 38L24 39L22 39L22 40L23 40L23 41L22 41L22 42L23 42L23 41L24 41L24 42L25 42L25 41L26 41L26 39L27 39L27 38L28 38L28 41L30 41L30 42L28 42L28 44L29 44L29 45L30 45L30 48L29 48L29 49L30 49L30 51L31 51L31 50L32 50L32 51L33 51L33 49L32 49L32 48L31 48L31 46L32 46L32 44L34 44L34 46L35 46L35 47L37 47L37 48L38 48L38 47L39 47L39 46L40 46L40 44L42 44L42 48L43 48L43 49L44 49L44 50L47 50L47 51L46 51L46 52L49 52L49 51L48 51L48 49L44 49L44 48L43 48L43 47L44 47L44 45L43 45L43 44L44 44L44 43L46 43L46 42L47 42L47 41L46 41L46 40L47 40L47 39L46 39L46 36L47 36L47 35L48 35L48 34L50 34L50 33L51 33L51 31L50 31L50 30L51 30L51 29L50 29L50 28L51 28L51 27L50 27L50 28L49 28L49 29L48 29L48 30L47 30L47 31L46 31L46 30L43 30L43 28L44 28L44 24L46 24L46 23L47 23L47 24L49 24L49 23L50 23L50 22L49 22L49 21L48 21L48 20L49 20L49 19L50 19L50 18L49 18L49 17L48 17L48 19L47 19L47 17L46 17L46 15L45 15L45 13L44 13L44 12L45 12L45 11L44 11L44 10L45 10L45 9L44 9L44 10L43 10L43 9L42 9L42 8L41 8L41 9L42 9L42 10L43 10L43 13L42 13L42 12L41 12L41 11L39 11L39 9L38 9L38 10L37 10L37 13L36 13L36 14L35 14L35 13L34 13L34 12L35 12L35 11L33 11L33 10L31 10L31 9L28 9L28 10L27 10L27 11L26 11L26 9L24 9L24 4L23 4L23 3L22 3L22 4L21 4L21 5L20 5L20 6L19 6L19 8L18 8L18 6L17 6L17 7L16 7L16 5L15 5L15 3L14 3L14 1ZM20 1L20 2L21 2L21 1ZM28 1L28 3L29 3L29 5L30 5L30 3L29 3L29 1ZM39 1L39 2L38 2L38 3L36 3L36 5L35 5L35 7L34 7L34 6L33 6L33 9L34 9L34 10L35 10L35 9L36 9L36 8L37 8L37 7L38 7L38 8L39 8L39 7L40 7L40 6L39 6L39 5L40 5L40 4L41 4L41 7L42 7L42 4L41 4L41 1ZM39 2L39 3L38 3L38 5L37 5L37 6L36 6L36 7L37 7L37 6L38 6L38 7L39 7L39 6L38 6L38 5L39 5L39 4L40 4L40 2ZM42 2L42 3L43 3L43 2ZM34 3L34 4L35 4L35 3ZM11 4L11 5L9 5L9 7L10 7L10 6L11 6L11 7L12 7L12 4ZM22 4L22 5L23 5L23 4ZM25 5L25 8L28 8L28 5ZM14 6L14 7L15 7L15 6ZM26 6L26 7L27 7L27 6ZM29 6L29 7L30 7L30 6ZM0 8L0 10L1 10L1 9L3 9L3 8ZM5 8L5 9L7 9L7 8ZM9 8L9 11L10 11L10 10L12 10L12 11L13 11L13 10L12 10L12 9L13 9L13 8L12 8L12 9L10 9L10 8ZM16 8L16 9L17 9L17 8ZM46 9L46 10L47 10L47 13L46 13L46 14L48 14L48 15L49 15L49 16L50 16L50 17L51 17L51 16L52 16L52 13L50 13L50 14L51 14L51 15L49 15L49 14L48 14L48 9ZM16 10L16 11L17 11L17 12L18 12L18 10ZM23 10L23 12L22 12L22 13L21 13L21 14L20 14L20 17L21 17L21 18L20 18L20 19L21 19L21 20L22 20L22 21L21 21L21 22L20 22L20 24L19 24L19 23L18 23L18 24L19 24L19 26L18 26L18 27L17 27L17 26L16 26L16 27L17 27L17 28L18 28L18 29L19 29L19 28L22 28L22 29L23 29L23 27L24 27L24 30L23 30L23 31L22 31L22 32L23 32L23 34L22 34L22 35L21 35L21 34L20 34L20 35L21 35L21 36L22 36L22 37L24 37L24 38L25 38L25 37L24 37L24 34L25 34L25 31L26 31L26 30L25 30L25 29L28 29L28 31L27 31L27 32L26 32L26 33L27 33L27 32L28 32L28 35L27 35L27 34L26 34L26 35L27 35L27 36L26 36L26 38L27 38L27 37L28 37L28 38L30 38L30 39L32 39L32 43L34 43L34 44L35 44L35 46L36 46L36 45L37 45L37 47L38 47L38 45L39 45L39 43L40 43L40 41L41 41L41 43L42 43L42 44L43 44L43 42L42 42L42 41L44 41L44 40L46 40L46 39L44 39L44 38L45 38L45 34L44 34L44 33L46 33L46 35L47 35L47 34L48 34L48 33L49 33L49 32L50 32L50 31L49 31L49 30L50 30L50 29L49 29L49 30L48 30L48 32L46 32L46 31L44 31L44 32L43 32L43 30L42 30L42 28L43 28L43 26L42 26L42 24L43 24L43 23L42 23L42 20L44 20L44 19L45 19L45 20L46 20L46 21L47 21L47 19L46 19L46 17L45 17L45 18L44 18L44 15L43 15L43 14L44 14L44 13L43 13L43 14L42 14L42 13L41 13L41 12L40 12L40 13L39 13L39 12L38 12L38 13L37 13L37 14L38 14L38 13L39 13L39 16L40 16L40 19L39 19L39 18L38 18L38 17L37 17L37 16L38 16L38 15L37 15L37 16L36 16L36 15L35 15L35 14L34 14L34 13L33 13L33 12L32 12L32 11L30 11L30 13L29 13L29 14L28 14L28 16L26 16L26 15L25 15L25 20L24 20L24 19L23 19L23 20L22 20L22 18L23 18L23 17L24 17L24 14L25 14L25 12L26 12L26 14L27 14L27 13L28 13L28 12L29 12L29 10L28 10L28 12L26 12L26 11L25 11L25 10ZM50 10L50 12L51 12L51 11L52 11L52 10ZM24 11L24 12L25 12L25 11ZM31 12L31 13L30 13L30 14L29 14L29 16L28 16L28 17L26 17L26 20L28 20L28 21L27 21L27 23L26 23L26 22L24 22L24 20L23 20L23 21L22 21L22 24L23 24L23 25L21 25L21 26L20 26L20 27L21 27L21 26L23 26L23 25L24 25L24 24L25 24L25 23L26 23L26 24L27 24L27 23L28 23L28 24L29 24L29 23L28 23L28 21L29 21L29 20L28 20L28 17L30 17L30 18L32 18L32 20L31 20L31 19L30 19L30 20L31 20L31 21L30 21L30 23L31 23L31 24L30 24L30 28L29 28L29 29L30 29L30 30L29 30L29 31L28 31L28 32L29 32L29 31L31 31L31 33L30 33L30 34L29 34L29 35L28 35L28 36L29 36L29 37L30 37L30 38L31 38L31 37L30 37L30 34L31 34L31 35L33 35L33 33L32 33L32 32L34 32L34 35L36 35L36 36L35 36L35 37L34 37L34 36L33 36L33 37L32 37L32 39L33 39L33 40L34 40L34 39L35 39L35 41L34 41L34 43L35 43L35 41L36 41L36 42L37 42L37 41L38 41L38 43L37 43L37 44L38 44L38 43L39 43L39 41L40 41L40 40L41 40L41 41L42 41L42 40L43 40L43 38L44 38L44 37L42 37L42 36L41 36L41 35L43 35L43 36L44 36L44 34L43 34L43 33L42 33L42 31L40 31L40 30L39 30L39 29L40 29L40 28L42 28L42 26L41 26L41 27L40 27L40 24L42 24L42 23L41 23L41 21L40 21L40 24L39 24L39 23L38 23L38 22L39 22L39 20L38 20L38 18L37 18L37 17L36 17L36 16L35 16L35 17L34 17L34 15L33 15L33 17L34 17L34 19L35 19L35 20L33 20L33 18L32 18L32 14L33 14L33 13L32 13L32 12ZM23 13L23 14L22 14L22 15L21 15L21 16L22 16L22 15L23 15L23 14L24 14L24 13ZM40 13L40 14L41 14L41 13ZM6 14L6 15L7 15L7 14ZM10 14L10 16L9 16L9 17L13 17L13 16L12 16L12 15L13 15L13 14ZM30 14L30 15L31 15L31 14ZM40 15L40 16L41 16L41 15ZM42 15L42 19L44 19L44 18L43 18L43 15ZM30 16L30 17L31 17L31 16ZM12 18L12 19L13 19L13 18ZM35 18L35 19L37 19L37 18ZM32 20L32 21L31 21L31 23L32 23L32 25L31 25L31 28L32 28L32 29L31 29L31 31L34 31L34 32L35 32L35 34L36 34L36 35L37 35L37 36L36 36L36 38L35 38L35 39L38 39L38 41L39 41L39 40L40 40L40 39L38 39L38 37L39 37L39 38L40 38L40 37L41 37L41 39L42 39L42 37L41 37L41 36L40 36L40 37L39 37L39 36L38 36L38 35L37 35L37 34L36 34L36 33L37 33L37 32L38 32L38 31L39 31L39 30L38 30L38 29L39 29L39 26L38 26L38 23L37 23L37 24L36 24L36 22L34 22L34 21L33 21L33 20ZM36 20L36 21L37 21L37 22L38 22L38 20ZM10 21L10 22L11 22L11 21ZM17 21L17 22L18 22L18 21ZM32 21L32 23L33 23L33 21ZM43 21L43 22L44 22L44 23L45 23L45 22L44 22L44 21ZM6 22L6 23L7 23L7 22ZM48 22L48 23L49 23L49 22ZM16 23L16 25L17 25L17 23ZM34 24L34 26L33 26L33 25L32 25L32 28L33 28L33 29L34 29L34 30L35 30L35 29L36 29L36 31L38 31L38 30L37 30L37 29L38 29L38 26L37 26L37 25L36 25L36 24ZM52 24L52 25L53 25L53 24ZM5 25L5 28L8 28L8 25ZM25 25L25 28L28 28L28 25ZM35 25L35 26L34 26L34 27L33 27L33 28L34 28L34 27L35 27L35 28L36 28L36 29L37 29L37 27L36 27L36 25ZM45 25L45 28L48 28L48 25ZM49 25L49 26L50 26L50 25ZM6 26L6 27L7 27L7 26ZM10 26L10 27L11 27L11 26ZM26 26L26 27L27 27L27 26ZM46 26L46 27L47 27L47 26ZM3 30L3 31L4 31L4 32L3 32L3 34L4 34L4 33L5 33L5 35L7 35L7 34L6 34L6 33L8 33L8 32L9 32L9 31L7 31L7 30L6 30L6 31L4 31L4 30ZM16 30L16 32L15 32L15 31L14 31L14 32L15 32L15 34L13 34L13 35L15 35L15 36L14 36L14 37L15 37L15 38L13 38L13 37L12 37L12 38L13 38L13 39L10 39L10 38L9 38L9 40L13 40L13 42L14 42L14 41L15 41L15 40L16 40L16 41L17 41L17 39L15 39L15 38L16 38L16 36L17 36L17 35L16 35L16 34L18 34L18 38L19 38L19 34L18 34L18 33L19 33L19 32L18 32L18 31L21 31L21 30ZM24 30L24 31L25 31L25 30ZM6 31L6 32L7 32L7 31ZM20 32L20 33L21 33L21 32ZM40 32L40 33L39 33L39 34L40 34L40 35L41 35L41 34L40 34L40 33L41 33L41 32ZM52 34L52 35L53 35L53 34ZM3 35L3 36L4 36L4 35ZM48 36L48 38L49 38L49 39L48 39L48 40L49 40L49 39L50 39L50 37L49 37L49 36ZM33 37L33 38L34 38L34 37ZM14 39L14 40L15 40L15 39ZM20 39L20 40L21 40L21 39ZM24 39L24 40L25 40L25 39ZM36 40L36 41L37 41L37 40ZM8 41L8 42L9 42L9 41ZM45 41L45 42L46 42L46 41ZM48 41L48 42L50 42L50 41ZM16 42L16 43L18 43L18 42ZM30 42L30 45L31 45L31 42ZM23 43L23 46L24 46L24 43ZM47 43L47 44L48 44L48 43ZM25 45L25 48L28 48L28 45ZM45 45L45 48L48 48L48 45ZM49 45L49 46L50 46L50 45ZM26 46L26 47L27 47L27 46ZM46 46L46 47L47 47L47 46ZM40 47L40 48L41 48L41 47ZM20 48L20 49L21 49L21 48ZM16 50L16 51L17 51L17 50ZM27 50L27 51L28 51L28 50ZM14 51L14 52L15 52L15 51ZM24 52L24 53L25 53L25 52ZM52 52L52 53L53 53L53 52ZM0 0L0 7L7 7L7 0ZM1 1L1 6L6 6L6 1ZM2 2L2 5L5 5L5 2ZM46 0L46 7L53 7L53 0ZM47 1L47 6L52 6L52 1ZM48 2L48 5L51 5L51 2ZM0 46L0 53L7 53L7 46ZM1 47L1 52L6 52L6 47ZM2 48L2 51L5 51L5 48Z" fill="#000000"/></g></g></svg>
