<?xml version="1.0" encoding="UTF-8"?>
<svg xmlns="http://www.w3.org/2000/svg" version="1.1" width="356" height="356" viewBox="0 0 356 356"><rect x="0" y="0" width="356" height="356" fill="#ffffff"/><g transform="scale(6.717)"><g transform="translate(0,0)"><path fill-rule="evenodd" d="M8 0L8 4L9 4L9 5L8 5L8 7L9 7L9 8L11 8L11 6L10 6L10 7L9 7L9 5L10 5L10 4L11 4L11 3L12 3L12 7L13 7L13 8L12 8L12 9L10 9L10 10L9 10L9 9L7 9L7 8L4 8L4 9L2 9L2 8L0 8L0 15L1 15L1 16L0 16L0 19L1 19L1 16L3 16L3 17L2 17L2 19L3 19L3 20L2 20L2 21L1 21L1 20L0 20L0 21L1 21L1 22L0 22L0 26L2 26L2 27L0 27L0 28L1 28L1 29L2 29L2 30L1 30L1 31L2 31L2 32L1 32L1 33L0 33L0 35L1 35L1 36L3 36L3 37L4 37L4 35L5 35L5 36L6 36L6 37L7 37L7 36L8 36L8 38L5 38L5 39L4 39L4 38L3 38L3 39L2 39L2 37L0 37L0 38L1 38L1 40L0 40L0 41L1 41L1 42L0 42L0 43L1 43L1 44L3 44L3 45L4 45L4 44L3 44L3 43L8 43L8 44L6 44L6 45L8 45L8 46L9 46L9 47L8 47L8 49L9 49L9 50L10 50L10 49L9 49L9 48L10 48L10 46L9 46L9 45L8 45L8 44L10 44L10 45L11 45L11 47L12 47L12 48L13 48L13 49L11 49L11 50L13 50L13 53L14 53L14 52L15 52L15 51L16 51L16 50L17 50L17 51L20 51L20 50L21 50L21 49L23 49L23 48L22 48L22 47L21 47L21 46L22 46L22 41L21 41L21 39L22 39L22 40L23 40L23 44L24 44L24 45L23 45L23 47L24 47L24 49L25 49L25 51L24 51L24 50L22 50L22 52L20 52L20 53L22 53L22 52L23 52L23 53L28 53L28 52L32 52L32 53L34 53L34 52L32 52L32 51L36 51L36 50L37 50L37 48L39 48L39 49L38 49L38 52L35 52L35 53L38 53L38 52L39 52L39 53L40 53L40 52L39 52L39 50L40 50L40 51L41 51L41 53L44 53L44 52L43 52L43 51L44 51L44 50L45 50L45 51L46 51L46 52L45 52L45 53L46 53L46 52L48 52L48 53L50 53L50 51L51 51L51 53L52 53L52 52L53 52L53 51L51 51L51 49L50 49L50 51L49 51L49 52L48 52L48 51L46 51L46 50L47 50L47 49L49 49L49 48L50 48L50 47L51 47L51 48L52 48L52 49L53 49L53 48L52 48L52 47L53 47L53 44L52 44L52 43L53 43L53 42L52 42L52 43L51 43L51 44L50 44L50 42L49 42L49 41L51 41L51 40L52 40L52 41L53 41L53 40L52 40L52 39L53 39L53 38L52 38L52 39L51 39L51 40L50 40L50 34L49 34L49 32L50 32L50 30L51 30L51 28L50 28L50 27L51 27L51 25L50 25L50 22L49 22L49 20L50 20L50 18L51 18L51 17L50 17L50 16L49 16L49 12L50 12L50 14L52 14L52 15L51 15L51 16L52 16L52 17L53 17L53 16L52 16L52 15L53 15L53 14L52 14L52 13L51 13L51 12L50 12L50 11L48 11L48 13L47 13L47 14L46 14L46 13L45 13L45 12L47 12L47 10L46 10L46 9L44 9L44 8L45 8L45 6L44 6L44 8L43 8L43 3L44 3L44 4L45 4L45 3L44 3L44 1L43 1L43 0L42 0L42 1L41 1L41 0L35 0L35 1L34 1L34 0L32 0L32 1L31 1L31 0L23 0L23 1L22 1L22 2L21 2L21 0L13 0L13 2L12 2L12 1L10 1L10 2L9 2L9 0ZM15 1L15 3L14 3L14 2L13 2L13 5L15 5L15 7L14 7L14 6L13 6L13 7L14 7L14 8L15 8L15 7L16 7L16 5L18 5L18 6L17 6L17 7L18 7L18 6L19 6L19 8L18 8L18 9L17 9L17 8L16 8L16 9L15 9L15 10L14 10L14 9L12 9L12 10L13 10L13 12L14 12L14 11L16 11L16 10L18 10L18 9L19 9L19 11L17 11L17 12L19 12L19 11L20 11L20 10L21 10L21 11L22 11L22 13L21 13L21 12L20 12L20 13L16 13L16 12L15 12L15 13L12 13L12 14L10 14L10 13L11 13L11 12L12 12L12 11L11 11L11 12L10 12L10 11L9 11L9 10L7 10L7 9L5 9L5 10L3 10L3 11L2 11L2 9L1 9L1 11L2 11L2 12L3 12L3 14L2 14L2 13L1 13L1 14L2 14L2 15L5 15L5 17L4 17L4 18L3 18L3 19L5 19L5 21L4 21L4 20L3 20L3 21L2 21L2 22L1 22L1 24L2 24L2 22L4 22L4 23L5 23L5 24L7 24L7 23L6 23L6 22L8 22L8 21L6 21L6 20L8 20L8 19L9 19L9 20L10 20L10 21L11 21L11 22L10 22L10 23L8 23L8 24L10 24L10 23L11 23L11 24L13 24L13 23L14 23L14 24L15 24L15 21L16 21L16 25L15 25L15 26L14 26L14 25L13 25L13 27L12 27L12 25L9 25L9 26L11 26L11 27L9 27L9 29L8 29L8 30L9 30L9 29L11 29L11 30L10 30L10 31L11 31L11 30L12 30L12 31L13 31L13 32L12 32L12 34L11 34L11 33L9 33L9 31L8 31L8 32L7 32L7 31L5 31L5 30L2 30L2 31L5 31L5 33L4 33L4 32L2 32L2 34L1 34L1 35L4 35L4 34L9 34L9 35L8 35L8 36L9 36L9 37L11 37L11 35L12 35L12 37L13 37L13 38L12 38L12 39L11 39L11 38L9 38L9 39L5 39L5 40L4 40L4 39L3 39L3 41L6 41L6 42L8 42L8 43L10 43L10 42L11 42L11 41L12 41L12 43L13 43L13 44L14 44L14 45L12 45L12 44L11 44L11 45L12 45L12 46L13 46L13 48L14 48L14 46L15 46L15 45L16 45L16 48L15 48L15 49L18 49L18 48L19 48L19 49L20 49L20 45L21 45L21 44L19 44L19 46L18 46L18 45L16 45L16 44L15 44L15 43L16 43L16 42L18 42L18 41L19 41L19 43L20 43L20 42L21 42L21 41L19 41L19 40L20 40L20 38L19 38L19 37L21 37L21 38L23 38L23 34L24 34L24 35L25 35L25 37L24 37L24 39L23 39L23 40L25 40L25 41L24 41L24 43L26 43L26 44L28 44L28 41L29 41L29 40L31 40L31 41L32 41L32 43L31 43L31 42L29 42L29 43L31 43L31 45L32 45L32 43L33 43L33 44L34 44L34 43L35 43L35 42L36 42L36 44L38 44L38 45L34 45L34 46L37 46L37 47L38 47L38 45L39 45L39 46L40 46L40 47L41 47L41 46L40 46L40 45L41 45L41 44L42 44L42 45L43 45L43 43L41 43L41 42L38 42L38 41L35 41L35 39L38 39L38 40L40 40L40 41L42 41L42 40L40 40L40 39L43 39L43 40L44 40L44 41L43 41L43 42L45 42L45 43L44 43L44 44L48 44L48 43L49 43L49 42L48 42L48 43L46 43L46 42L47 42L47 41L48 41L48 40L49 40L49 38L48 38L48 39L47 39L47 40L44 40L44 39L46 39L46 37L49 37L49 36L48 36L48 34L47 34L47 32L46 32L46 30L45 30L45 29L44 29L44 31L43 31L43 30L41 30L41 27L40 27L40 26L41 26L41 25L42 25L42 24L43 24L43 27L42 27L42 29L43 29L43 28L44 28L44 24L45 24L45 23L46 23L46 24L47 24L47 23L48 23L48 24L49 24L49 22L48 22L48 21L46 21L46 20L49 20L49 19L47 19L47 17L48 17L48 15L46 15L46 19L44 19L44 17L45 17L45 16L44 16L44 15L45 15L45 14L44 14L44 12L45 12L45 11L44 11L44 9L43 9L43 10L41 10L41 12L40 12L40 14L39 14L39 15L38 15L38 13L39 13L39 12L38 12L38 13L35 13L35 12L34 12L34 11L31 11L31 13L32 13L32 12L34 12L34 14L35 14L35 15L34 15L34 19L32 19L32 18L33 18L33 17L32 17L32 15L33 15L33 14L32 14L32 15L31 15L31 16L30 16L30 17L32 17L32 18L31 18L31 22L29 22L29 21L26 21L26 20L27 20L27 19L28 19L28 20L30 20L30 18L29 18L29 17L28 17L28 16L27 16L27 15L28 15L28 14L29 14L29 12L28 12L28 13L27 13L27 14L26 14L26 12L27 12L27 11L28 11L28 10L29 10L29 9L31 9L31 10L33 10L33 9L32 9L32 6L33 6L33 7L34 7L34 6L33 6L33 5L35 5L35 4L37 4L37 5L36 5L36 6L35 6L35 7L36 7L36 8L40 8L40 9L42 9L42 6L41 6L41 8L40 8L40 6L39 6L39 7L38 7L38 6L37 6L37 5L38 5L38 2L39 2L39 4L40 4L40 5L42 5L42 3L43 3L43 2L42 2L42 3L41 3L41 1L40 1L40 2L39 2L39 1L35 1L35 2L36 2L36 3L35 3L35 4L34 4L34 2L33 2L33 1L32 1L32 2L33 2L33 3L31 3L31 2L30 2L30 4L31 4L31 5L32 5L32 6L31 6L31 7L30 7L30 6L29 6L29 9L28 9L28 10L27 10L27 9L26 9L26 12L25 12L25 10L23 10L23 9L24 9L24 5L23 5L23 4L24 4L24 3L23 3L23 2L25 2L25 3L27 3L27 4L29 4L29 3L28 3L28 2L29 2L29 1L28 1L28 2L26 2L26 1L23 1L23 2L22 2L22 3L21 3L21 2L20 2L20 1L19 1L19 3L18 3L18 2L16 2L16 1ZM19 3L19 4L20 4L20 8L19 8L19 9L22 9L22 8L21 8L21 5L22 5L22 4L23 4L23 3L22 3L22 4L21 4L21 3ZM40 3L40 4L41 4L41 3ZM32 4L32 5L33 5L33 4ZM25 5L25 8L28 8L28 5ZM22 6L22 7L23 7L23 6ZM26 6L26 7L27 7L27 6ZM36 6L36 7L37 7L37 6ZM47 8L47 9L48 9L48 8ZM49 8L49 9L50 9L50 10L52 10L52 11L53 11L53 10L52 10L52 9L53 9L53 8ZM34 9L34 10L35 10L35 9ZM36 9L36 11L37 11L37 10L38 10L38 9ZM6 10L6 11L7 11L7 12L5 12L5 13L4 13L4 14L6 14L6 15L10 15L10 14L9 14L9 13L8 13L8 12L9 12L9 11L7 11L7 10ZM22 10L22 11L23 11L23 10ZM23 12L23 13L24 13L24 12ZM42 12L42 13L41 13L41 15L42 15L42 14L43 14L43 12ZM6 13L6 14L7 14L7 13ZM15 13L15 14L12 14L12 15L14 15L14 16L15 16L15 14L16 14L16 15L18 15L18 14L16 14L16 13ZM20 13L20 14L19 14L19 15L20 15L20 17L19 17L19 16L18 16L18 17L13 17L13 20L12 20L12 19L11 19L11 21L12 21L12 23L13 23L13 21L15 21L15 20L14 20L14 18L15 18L15 19L16 19L16 18L17 18L17 20L16 20L16 21L17 21L17 22L18 22L18 23L17 23L17 25L18 25L18 26L19 26L19 25L21 25L21 23L22 23L22 24L23 24L23 23L22 23L22 19L25 19L25 20L26 20L26 19L27 19L27 16L26 16L26 14L25 14L25 17L24 17L24 16L23 16L23 17L21 17L21 16L22 16L22 14L21 14L21 13ZM20 14L20 15L21 15L21 14ZM36 14L36 15L37 15L37 16L35 16L35 17L36 17L36 18L35 18L35 20L32 20L32 22L31 22L31 23L32 23L32 27L33 27L33 26L34 26L34 28L35 28L35 27L36 27L36 29L35 29L35 30L34 30L34 29L33 29L33 28L32 28L32 31L33 31L33 32L32 32L32 33L29 33L29 30L27 30L27 31L28 31L28 32L26 32L26 30L23 30L23 29L30 29L30 31L31 31L31 28L29 28L29 26L30 26L30 27L31 27L31 24L30 24L30 25L29 25L29 22L28 22L28 24L26 24L26 23L27 23L27 22L26 22L26 23L25 23L25 24L24 24L24 25L23 25L23 26L20 26L20 27L18 27L18 28L17 28L17 26L16 26L16 27L14 27L14 28L13 28L13 29L15 29L15 30L13 30L13 31L14 31L14 32L16 32L16 31L18 31L18 30L21 30L21 29L22 29L22 30L23 30L23 32L22 32L22 31L21 31L21 32L20 32L20 33L19 33L19 32L18 32L18 33L13 33L13 34L15 34L15 35L16 35L16 34L19 34L19 35L17 35L17 36L16 36L16 37L15 37L15 36L14 36L14 38L16 38L16 37L19 37L19 35L20 35L20 34L21 34L21 37L22 37L22 34L21 34L21 33L25 33L25 32L26 32L26 38L25 38L25 39L26 39L26 41L28 41L28 40L29 40L29 39L26 39L26 38L27 38L27 37L29 37L29 38L31 38L31 37L29 37L29 36L30 36L30 35L28 35L28 34L27 34L27 33L29 33L29 34L31 34L31 36L32 36L32 37L33 37L33 38L32 38L32 41L33 41L33 43L34 43L34 41L33 41L33 40L34 40L34 39L33 39L33 38L34 38L34 36L33 36L33 35L34 35L34 33L35 33L35 37L36 37L36 38L37 38L37 37L38 37L38 38L39 38L39 39L40 39L40 36L43 36L43 37L41 37L41 38L43 38L43 37L44 37L44 38L45 38L45 37L46 37L46 36L47 36L47 34L46 34L46 35L41 35L41 34L43 34L43 33L44 33L44 32L45 32L45 33L46 33L46 32L45 32L45 31L44 31L44 32L42 32L42 33L41 33L41 34L40 34L40 32L39 32L39 31L38 31L38 30L39 30L39 29L40 29L40 27L38 27L38 28L37 28L37 24L39 24L39 25L38 25L38 26L39 26L39 25L40 25L40 24L42 24L42 23L43 23L43 24L44 24L44 22L46 22L46 23L47 23L47 22L46 22L46 21L44 21L44 22L43 22L43 20L44 20L44 19L43 19L43 17L44 17L44 16L41 16L41 17L42 17L42 19L43 19L43 20L41 20L41 21L42 21L42 23L41 23L41 22L40 22L40 23L38 23L38 22L39 22L39 21L40 21L40 18L39 18L39 17L40 17L40 15L39 15L39 17L38 17L38 15L37 15L37 14ZM6 16L6 17L7 17L7 16ZM10 16L10 17L12 17L12 16ZM8 17L8 18L5 18L5 19L8 19L8 18L9 18L9 17ZM23 17L23 18L24 18L24 17ZM37 17L37 18L36 18L36 20L38 20L38 19L39 19L39 18L38 18L38 17ZM49 17L49 18L50 18L50 17ZM18 18L18 19L19 19L19 20L21 20L21 18L20 18L20 19L19 19L19 18ZM25 18L25 19L26 19L26 18ZM28 18L28 19L29 19L29 18ZM52 18L52 19L51 19L51 20L52 20L52 19L53 19L53 18ZM19 21L19 22L20 22L20 23L19 23L19 24L18 24L18 25L19 25L19 24L20 24L20 23L21 23L21 22L20 22L20 21ZM24 21L24 22L25 22L25 21ZM34 21L34 22L33 22L33 25L34 25L34 26L35 26L35 25L34 25L34 24L37 24L37 22L38 22L38 21L36 21L36 23L34 23L34 22L35 22L35 21ZM51 21L51 22L52 22L52 23L51 23L51 24L52 24L52 25L53 25L53 24L52 24L52 23L53 23L53 22L52 22L52 21ZM3 24L3 25L4 25L4 24ZM5 25L5 28L8 28L8 25ZM25 25L25 28L28 28L28 25ZM45 25L45 28L48 28L48 25ZM49 25L49 26L50 26L50 25ZM3 26L3 27L2 27L2 29L3 29L3 28L4 28L4 26ZM6 26L6 27L7 27L7 26ZM23 26L23 27L22 27L22 29L23 29L23 27L24 27L24 26ZM26 26L26 27L27 27L27 26ZM46 26L46 27L47 27L47 26ZM52 26L52 31L51 31L51 32L52 32L52 33L53 33L53 32L52 32L52 31L53 31L53 26ZM15 28L15 29L16 29L16 30L15 30L15 31L16 31L16 30L18 30L18 29L16 29L16 28ZM19 28L19 29L21 29L21 28ZM38 28L38 29L37 29L37 30L36 30L36 31L34 31L34 32L33 32L33 33L34 33L34 32L35 32L35 33L36 33L36 36L37 36L37 35L38 35L38 36L40 36L40 34L39 34L39 35L38 35L38 33L36 33L36 31L37 31L37 32L38 32L38 31L37 31L37 30L38 30L38 29L39 29L39 28ZM6 29L6 30L7 30L7 29ZM49 29L49 30L47 30L47 31L49 31L49 30L50 30L50 29ZM40 30L40 31L41 31L41 30ZM6 32L6 33L7 33L7 32ZM10 34L10 35L9 35L9 36L10 36L10 35L11 35L11 34ZM52 34L52 35L51 35L51 37L53 37L53 34ZM6 35L6 36L7 36L7 35ZM27 35L27 36L28 36L28 35ZM44 36L44 37L45 37L45 36ZM18 38L18 39L17 39L17 41L18 41L18 40L19 40L19 38ZM9 39L9 40L8 40L8 41L9 41L9 40L11 40L11 39ZM13 39L13 40L12 40L12 41L14 41L14 42L13 42L13 43L14 43L14 42L15 42L15 41L16 41L16 40L14 40L14 39ZM1 40L1 41L2 41L2 40ZM6 40L6 41L7 41L7 40ZM45 41L45 42L46 42L46 41ZM2 42L2 43L3 43L3 42ZM38 43L38 44L39 44L39 45L40 45L40 44L41 44L41 43L40 43L40 44L39 44L39 43ZM51 44L51 45L50 45L50 46L49 46L49 47L50 47L50 46L51 46L51 47L52 47L52 44ZM25 45L25 48L28 48L28 45ZM45 45L45 48L48 48L48 45ZM17 46L17 47L18 47L18 46ZM26 46L26 47L27 47L27 46ZM32 46L32 48L31 48L31 47L29 47L29 48L30 48L30 49L32 49L32 48L33 48L33 49L34 49L34 50L35 50L35 49L36 49L36 47L35 47L35 49L34 49L34 48L33 48L33 46ZM42 46L42 47L43 47L43 49L44 49L44 47L43 47L43 46ZM46 46L46 47L47 47L47 46ZM40 48L40 50L41 50L41 51L42 51L42 48ZM27 49L27 51L26 51L26 52L27 52L27 51L29 51L29 50L28 50L28 49ZM45 49L45 50L46 50L46 49ZM30 50L30 51L32 51L32 50ZM8 51L8 53L10 53L10 51ZM11 51L11 52L12 52L12 51ZM16 52L16 53L19 53L19 52ZM0 0L0 7L7 7L7 0ZM1 1L1 6L6 6L6 1ZM2 2L2 5L5 5L5 2ZM46 0L46 7L53 7L53 0ZM47 1L47 6L52 6L52 1ZM48 2L48 5L51 5L51 2ZM0 46L0 53L7 53L7 46ZM1 47L1 52L6 52L6 47ZM2 48L2 51L5 51L5 48Z" fill="#000000"/></g></g></svg>
