<?xml version="1.0" encoding="UTF-8"?>
<svg xmlns="http://www.w3.org/2000/svg" version="1.1" width="356" height="356" viewBox="0 0 356 356"><rect x="0" y="0" width="356" height="356" fill="#ffffff"/><g transform="scale(6.717)"><g transform="translate(0,0)"><path fill-rule="evenodd" d="M8 0L8 2L9 2L9 4L8 4L8 9L7 9L7 8L5 8L5 9L4 9L4 10L5 10L5 9L7 9L7 10L6 10L6 11L4 11L4 12L6 12L6 13L7 13L7 12L8 12L8 13L13 13L13 14L16 14L16 15L14 15L14 16L15 16L15 18L14 18L14 19L13 19L13 15L12 15L12 16L11 16L11 15L8 15L8 16L6 16L6 17L8 17L8 16L11 16L11 17L9 17L9 18L8 18L8 19L10 19L10 18L11 18L11 17L12 17L12 19L11 19L11 20L10 20L10 22L11 22L11 20L12 20L12 23L13 23L13 24L11 24L11 25L10 25L10 24L5 24L5 23L3 23L3 24L2 24L2 22L6 22L6 23L9 23L9 20L5 20L5 19L4 19L4 20L3 20L3 18L2 18L2 17L4 17L4 18L5 18L5 15L4 15L4 16L2 16L2 15L3 15L3 14L2 14L2 13L3 13L3 12L0 12L0 13L1 13L1 14L0 14L0 17L1 17L1 19L0 19L0 21L1 21L1 19L2 19L2 20L3 20L3 21L2 21L2 22L1 22L1 25L3 25L3 26L2 26L2 27L1 27L1 29L0 29L0 30L1 30L1 29L2 29L2 30L4 30L4 31L3 31L3 32L2 32L2 31L0 31L0 32L2 32L2 33L3 33L3 35L2 35L2 34L1 34L1 33L0 33L0 37L2 37L2 39L0 39L0 43L1 43L1 44L3 44L3 45L4 45L4 44L3 44L3 43L8 43L8 40L9 40L9 41L11 41L11 42L12 42L12 43L11 43L11 44L13 44L13 46L12 46L12 48L13 48L13 47L14 47L14 44L13 44L13 43L14 43L14 41L15 41L15 40L16 40L16 41L17 41L17 39L15 39L15 38L16 38L16 36L17 36L17 35L16 35L16 34L18 34L18 38L19 38L19 39L18 39L18 40L19 40L19 43L18 43L18 42L16 42L16 43L18 43L18 45L19 45L19 46L17 46L17 47L16 47L16 44L15 44L15 47L16 47L16 48L15 48L15 49L13 49L13 50L14 50L14 51L15 51L15 53L16 53L16 52L18 52L18 53L19 53L19 52L18 52L18 49L19 49L19 48L20 48L20 49L21 49L21 48L20 48L20 47L21 47L21 46L23 46L23 47L22 47L22 48L23 48L23 49L25 49L25 50L26 50L26 49L27 49L27 52L26 52L26 53L27 53L27 52L28 52L28 53L29 53L29 52L30 52L30 51L32 51L32 53L33 53L33 51L34 51L34 53L35 53L35 52L36 52L36 53L41 53L41 52L42 52L42 53L44 53L44 51L45 51L45 52L46 52L46 53L49 53L49 52L46 52L46 51L47 51L47 49L48 49L48 51L49 51L49 48L50 48L50 46L51 46L51 45L52 45L52 48L53 48L53 45L52 45L52 44L53 44L53 42L52 42L52 44L50 44L50 43L49 43L49 42L50 42L50 41L52 41L52 40L53 40L53 38L52 38L52 37L51 37L51 36L50 36L50 34L51 34L51 33L52 33L52 32L53 32L53 29L52 29L52 27L53 27L53 26L52 26L52 27L51 27L51 25L52 25L52 24L53 24L53 22L52 22L52 23L51 23L51 21L53 21L53 18L52 18L52 20L51 20L51 21L49 21L49 20L50 20L50 19L51 19L51 18L50 18L50 16L49 16L49 15L52 15L52 16L53 16L53 10L52 10L52 9L53 9L53 8L51 8L51 10L52 10L52 11L51 11L51 12L50 12L50 10L49 10L49 8L45 8L45 6L44 6L44 8L42 8L42 7L43 7L43 3L44 3L44 4L45 4L45 3L44 3L44 1L43 1L43 0L42 0L42 2L40 2L40 1L41 1L41 0L38 0L38 1L39 1L39 2L38 2L38 3L39 3L39 4L38 4L38 7L39 7L39 8L40 8L40 9L39 9L39 10L38 10L38 8L36 8L36 9L35 9L35 10L34 10L34 9L33 9L33 4L32 4L32 9L31 9L31 10L33 10L33 11L34 11L34 12L32 12L32 14L31 14L31 15L30 15L30 12L31 12L31 11L30 11L30 7L31 7L31 6L30 6L30 5L31 5L31 4L30 4L30 5L29 5L29 3L28 3L28 1L29 1L29 2L30 2L30 3L31 3L31 2L30 2L30 1L31 1L31 0L30 0L30 1L29 1L29 0L28 0L28 1L27 1L27 0L24 0L24 1L23 1L23 0L22 0L22 1L21 1L21 0L18 0L18 1L16 1L16 2L18 2L18 1L19 1L19 4L20 4L20 5L18 5L18 3L15 3L15 2L14 2L14 1L15 1L15 0L11 0L11 1L10 1L10 2L9 2L9 0ZM32 0L32 2L35 2L35 4L34 4L34 7L35 7L35 5L36 5L36 7L37 7L37 5L36 5L36 2L37 2L37 0L36 0L36 2L35 2L35 0L34 0L34 1L33 1L33 0ZM11 1L11 2L10 2L10 3L11 3L11 4L10 4L10 5L9 5L9 7L10 7L10 6L11 6L11 7L12 7L12 5L13 5L13 7L14 7L14 8L15 8L15 9L14 9L14 10L13 10L13 8L9 8L9 9L10 9L10 10L12 10L12 12L14 12L14 10L15 10L15 12L16 12L16 14L18 14L18 12L19 12L19 8L20 8L20 6L21 6L21 7L22 7L22 6L23 6L23 7L24 7L24 3L25 3L25 1L24 1L24 3L23 3L23 2L22 2L22 5L20 5L20 6L19 6L19 8L18 8L18 6L17 6L17 7L16 7L16 5L15 5L15 3L13 3L13 2L12 2L12 1ZM20 1L20 2L21 2L21 1ZM26 1L26 2L27 2L27 1ZM39 2L39 3L40 3L40 5L39 5L39 7L40 7L40 8L41 8L41 9L40 9L40 12L39 12L39 11L38 11L38 10L37 10L37 14L36 14L36 11L35 11L35 13L34 13L34 14L32 14L32 15L31 15L31 17L30 17L30 19L29 19L29 20L27 20L27 19L28 19L28 18L29 18L29 15L28 15L28 14L29 14L29 13L28 13L28 12L30 12L30 11L28 11L28 10L29 10L29 9L28 9L28 10L26 10L26 9L24 9L24 10L23 10L23 9L22 9L22 8L21 8L21 10L20 10L20 11L24 11L24 12L23 12L23 13L24 13L24 12L25 12L25 11L24 11L24 10L26 10L26 13L25 13L25 14L24 14L24 16L25 16L25 14L26 14L26 16L28 16L28 17L23 17L23 18L22 18L22 19L20 19L20 18L21 18L21 17L20 17L20 14L21 14L21 13L22 13L22 12L20 12L20 14L19 14L19 15L18 15L18 16L19 16L19 17L18 17L18 18L19 18L19 20L21 20L21 21L20 21L20 22L19 22L19 21L18 21L18 19L17 19L17 18L16 18L16 19L17 19L17 20L16 20L16 23L14 23L14 24L15 24L15 25L14 25L14 26L15 26L15 28L16 28L16 30L13 30L13 29L12 29L12 28L14 28L14 27L12 27L12 26L13 26L13 25L12 25L12 26L11 26L11 27L10 27L10 29L11 29L11 30L10 30L10 31L9 31L9 32L8 32L8 31L6 31L6 32L5 32L5 33L6 33L6 34L5 34L5 35L3 35L3 36L4 36L4 37L5 37L5 38L7 38L7 39L6 39L6 40L8 40L8 39L9 39L9 37L10 37L10 40L11 40L11 41L13 41L13 38L15 38L15 37L14 37L14 36L15 36L15 35L12 35L12 36L11 36L11 34L15 34L15 32L16 32L16 30L21 30L21 31L18 31L18 32L19 32L19 33L18 33L18 34L19 34L19 38L23 38L23 37L22 37L22 34L23 34L23 33L24 33L24 35L23 35L23 36L24 36L24 35L26 35L26 36L25 36L25 38L24 38L24 39L22 39L22 40L23 40L23 41L22 41L22 42L20 42L20 43L22 43L22 44L21 44L21 45L20 45L20 44L19 44L19 45L20 45L20 46L19 46L19 47L18 47L18 48L19 48L19 47L20 47L20 46L21 46L21 45L22 45L22 44L23 44L23 45L24 45L24 44L25 44L25 43L26 43L26 44L27 44L27 43L28 43L28 44L29 44L29 45L30 45L30 46L29 46L29 47L30 47L30 48L29 48L29 49L28 49L28 52L29 52L29 49L30 49L30 50L32 50L32 51L33 51L33 49L32 49L32 48L34 48L34 50L35 50L35 51L36 51L36 52L39 52L39 51L40 51L40 50L39 50L39 49L40 49L40 48L42 48L42 50L41 50L41 51L42 51L42 52L43 52L43 51L44 51L44 50L45 50L45 51L46 51L46 49L43 49L43 48L42 48L42 46L43 46L43 47L44 47L44 46L43 46L43 45L42 45L42 46L41 46L41 47L40 47L40 48L39 48L39 49L38 49L38 50L37 50L37 49L36 49L36 48L37 48L37 47L39 47L39 46L40 46L40 44L41 44L41 43L42 43L42 44L44 44L44 41L46 41L46 42L45 42L45 43L46 43L46 42L47 42L47 41L46 41L46 38L47 38L47 37L46 37L46 38L44 38L44 37L45 37L45 36L47 36L47 35L48 35L48 34L49 34L49 33L51 33L51 32L52 32L52 29L50 29L50 30L49 30L49 29L48 29L48 30L47 30L47 32L48 32L48 34L47 34L47 35L46 35L46 34L44 34L44 35L45 35L45 36L44 36L44 37L42 37L42 34L43 34L43 32L44 32L44 33L46 33L46 32L44 32L44 31L42 31L42 30L44 30L44 29L43 29L43 28L44 28L44 27L42 27L42 26L43 26L43 25L44 25L44 24L46 24L46 23L44 23L44 22L45 22L45 21L46 21L46 22L47 22L47 24L49 24L49 23L50 23L50 25L49 25L49 26L50 26L50 25L51 25L51 23L50 23L50 22L49 22L49 21L48 21L48 20L49 20L49 19L50 19L50 18L49 18L49 17L48 17L48 19L47 19L47 17L46 17L46 15L45 15L45 13L46 13L46 14L47 14L47 15L48 15L48 14L49 14L49 13L48 13L48 14L47 14L47 13L46 13L46 12L47 12L47 11L48 11L48 9L46 9L46 10L47 10L47 11L46 11L46 12L45 12L45 11L44 11L44 12L43 12L43 9L42 9L42 8L41 8L41 7L42 7L42 5L41 5L41 3L40 3L40 2ZM42 2L42 3L43 3L43 2ZM12 3L12 4L13 4L13 3ZM27 3L27 4L28 4L28 3ZM25 5L25 8L28 8L28 5ZM40 5L40 7L41 7L41 5ZM14 6L14 7L15 7L15 6ZM26 6L26 7L27 7L27 6ZM29 6L29 7L30 7L30 6ZM0 8L0 9L1 9L1 10L0 10L0 11L2 11L2 9L3 9L3 8ZM16 8L16 9L17 9L17 8ZM44 9L44 10L45 10L45 9ZM16 10L16 11L17 11L17 12L18 12L18 10ZM6 11L6 12L7 12L7 11ZM8 11L8 12L9 12L9 11ZM10 11L10 12L11 12L11 11ZM41 11L41 12L40 12L40 13L39 13L39 14L40 14L40 13L41 13L41 16L40 16L40 15L39 15L39 16L38 16L38 17L37 17L37 16L36 16L36 14L34 14L34 17L33 17L33 15L32 15L32 18L31 18L31 19L30 19L30 20L29 20L29 22L28 22L28 21L24 21L24 18L23 18L23 20L22 20L22 21L24 21L24 22L26 22L26 23L25 23L25 24L22 24L22 22L20 22L20 24L19 24L19 23L18 23L18 24L19 24L19 26L18 26L18 27L17 27L17 26L16 26L16 27L17 27L17 28L18 28L18 29L19 29L19 28L21 28L21 27L20 27L20 26L21 26L21 25L24 25L24 26L23 26L23 27L22 27L22 29L21 29L21 30L22 30L22 29L24 29L24 30L23 30L23 31L22 31L22 32L23 32L23 31L24 31L24 32L25 32L25 31L26 31L26 33L28 33L28 34L27 34L27 36L26 36L26 37L28 37L28 38L27 38L27 39L26 39L26 38L25 38L25 39L26 39L26 42L27 42L27 41L28 41L28 38L29 38L29 39L30 39L30 41L29 41L29 42L30 42L30 43L29 43L29 44L31 44L31 42L30 42L30 41L31 41L31 39L32 39L32 43L34 43L34 44L32 44L32 46L30 46L30 47L31 47L31 48L32 48L32 46L34 46L34 47L35 47L35 48L36 48L36 45L37 45L37 44L38 44L38 45L39 45L39 43L41 43L41 42L42 42L42 43L43 43L43 42L42 42L42 41L44 41L44 40L45 40L45 39L44 39L44 38L42 38L42 37L41 37L41 34L42 34L42 31L41 31L41 32L40 32L40 30L42 30L42 29L41 29L41 28L40 28L40 30L39 30L39 31L38 31L38 28L39 28L39 27L41 27L41 26L42 26L42 25L43 25L43 24L44 24L44 23L43 23L43 24L42 24L42 23L41 23L41 20L42 20L42 21L43 21L43 22L44 22L44 21L43 21L43 20L42 20L42 19L41 19L41 17L43 17L43 19L45 19L45 20L46 20L46 21L47 21L47 22L48 22L48 21L47 21L47 19L46 19L46 17L45 17L45 18L44 18L44 15L43 15L43 14L44 14L44 13L45 13L45 12L44 12L44 13L43 13L43 12L42 12L42 11ZM42 13L42 14L43 14L43 13ZM50 13L50 14L51 14L51 13ZM1 14L1 15L2 15L2 14ZM6 14L6 15L7 15L7 14ZM22 14L22 15L21 15L21 16L22 16L22 15L23 15L23 14ZM42 15L42 16L43 16L43 15ZM35 16L35 17L34 17L34 19L33 19L33 18L32 18L32 19L31 19L31 20L30 20L30 22L29 22L29 23L28 23L28 22L27 22L27 23L26 23L26 24L29 24L29 25L30 25L30 26L29 26L29 28L30 28L30 31L28 31L28 32L30 32L30 31L31 31L31 33L30 33L30 34L28 34L28 37L30 37L30 38L32 38L32 39L33 39L33 40L34 40L34 39L35 39L35 41L34 41L34 43L35 43L35 45L34 45L34 46L35 46L35 45L36 45L36 43L37 43L37 41L36 41L36 39L37 39L37 38L36 38L36 36L37 36L37 37L38 37L38 38L39 38L39 39L41 39L41 40L42 40L42 38L40 38L40 35L39 35L39 34L41 34L41 33L40 33L40 32L38 32L38 31L37 31L37 32L38 32L38 35L39 35L39 37L38 37L38 36L37 36L37 35L35 35L35 32L34 32L34 30L35 30L35 31L36 31L36 30L37 30L37 29L36 29L36 28L35 28L35 27L34 27L34 26L35 26L35 25L36 25L36 27L39 27L39 26L40 26L40 24L41 24L41 23L40 23L40 24L39 24L39 23L37 23L37 22L36 22L36 20L37 20L37 21L38 21L38 22L40 22L40 18L39 18L39 17L40 17L40 16L39 16L39 17L38 17L38 19L36 19L36 20L35 20L35 21L34 21L34 19L35 19L35 18L37 18L37 17L36 17L36 16ZM6 18L6 19L7 19L7 18ZM12 19L12 20L13 20L13 19ZM14 19L14 20L15 20L15 19ZM25 19L25 20L26 20L26 19ZM32 19L32 22L33 22L33 19ZM38 20L38 21L39 21L39 20ZM6 21L6 22L7 22L7 21ZM17 21L17 22L18 22L18 21ZM30 22L30 23L29 23L29 24L31 24L31 22ZM35 22L35 23L32 23L32 25L31 25L31 27L32 27L32 25L33 25L33 26L34 26L34 24L36 24L36 25L37 25L37 26L38 26L38 25L39 25L39 24L38 24L38 25L37 25L37 24L36 24L36 22ZM16 23L16 25L17 25L17 23ZM5 25L5 28L8 28L8 25ZM25 25L25 28L28 28L28 25ZM45 25L45 28L48 28L48 25ZM6 26L6 27L7 27L7 26ZM26 26L26 27L27 27L27 26ZM46 26L46 27L47 27L47 26ZM2 27L2 29L4 29L4 30L9 30L9 29L4 29L4 28L3 28L3 27ZM11 27L11 28L12 28L12 27ZM50 27L50 28L51 28L51 27ZM32 28L32 29L31 29L31 31L32 31L32 29L33 29L33 30L34 30L34 28ZM25 29L25 30L24 30L24 31L25 31L25 30L26 30L26 31L27 31L27 30L26 30L26 29ZM28 29L28 30L29 30L29 29ZM35 29L35 30L36 30L36 29ZM12 30L12 31L13 31L13 30ZM48 30L48 32L50 32L50 31L51 31L51 30L50 30L50 31L49 31L49 30ZM14 31L14 32L15 32L15 31ZM6 32L6 33L7 33L7 32ZM9 32L9 33L8 33L8 34L9 34L9 35L7 35L7 34L6 34L6 35L5 35L5 37L7 37L7 38L8 38L8 36L10 36L10 34L11 34L11 32ZM12 32L12 33L13 33L13 32ZM20 32L20 33L21 33L21 32ZM32 32L32 33L33 33L33 35L32 35L32 38L33 38L33 39L34 39L34 36L35 36L35 35L34 35L34 32ZM20 34L20 35L21 35L21 34ZM30 34L30 36L31 36L31 34ZM52 34L52 35L53 35L53 34ZM6 35L6 36L7 36L7 35ZM33 35L33 36L34 36L34 35ZM12 36L12 38L13 38L13 36ZM48 36L48 38L49 38L49 39L48 39L48 40L49 40L49 39L50 39L50 40L52 40L52 38L51 38L51 39L50 39L50 36ZM3 38L3 40L4 40L4 38ZM35 38L35 39L36 39L36 38ZM11 39L11 40L12 40L12 39ZM14 39L14 40L15 40L15 39ZM20 39L20 40L21 40L21 39ZM43 39L43 40L44 40L44 39ZM1 40L1 41L2 41L2 40ZM3 41L3 42L2 42L2 43L3 43L3 42L4 42L4 41ZM6 41L6 42L7 42L7 41ZM24 41L24 42L22 42L22 43L24 43L24 42L25 42L25 41ZM38 41L38 43L39 43L39 41ZM48 41L48 42L49 42L49 41ZM9 42L9 43L10 43L10 42ZM35 42L35 43L36 43L36 42ZM47 43L47 44L49 44L49 46L50 46L50 44L49 44L49 43ZM6 44L6 45L7 45L7 44ZM8 44L8 46L9 46L9 45L10 45L10 44ZM25 45L25 48L28 48L28 45ZM45 45L45 48L48 48L48 45ZM26 46L26 47L27 47L27 46ZM46 46L46 47L47 47L47 46ZM8 47L8 48L9 48L9 50L8 50L8 53L10 53L10 52L9 52L9 50L10 50L10 51L11 51L11 52L12 52L12 53L14 53L14 52L13 52L13 51L11 51L11 50L12 50L12 49L10 49L10 48L11 48L11 47L10 47L10 48L9 48L9 47ZM35 49L35 50L36 50L36 51L37 51L37 50L36 50L36 49ZM16 50L16 51L17 51L17 50ZM20 50L20 51L22 51L22 53L23 53L23 52L24 52L24 53L25 53L25 52L24 52L24 50L23 50L23 51L22 51L22 50ZM38 50L38 51L39 51L39 50ZM50 50L50 51L51 51L51 50ZM20 52L20 53L21 53L21 52ZM52 52L52 53L53 53L53 52ZM0 0L0 7L7 7L7 0ZM1 1L1 6L6 6L6 1ZM2 2L2 5L5 5L5 2ZM46 0L46 7L53 7L53 0ZM47 1L47 6L52 6L52 1ZM48 2L48 5L51 5L51 2ZM0 46L0 53L7 53L7 46ZM1 47L1 52L6 52L6 47ZM2 48L2 51L5 51L5 48Z" fill="#000000"/></g></g></svg>
