<?xml version="1.0" encoding="UTF-8"?>
<svg xmlns="http://www.w3.org/2000/svg" version="1.1" width="356" height="356" viewBox="0 0 356 356"><rect x="0" y="0" width="356" height="356" fill="#ffffff"/><g transform="scale(6.717)"><g transform="translate(0,0)"><path fill-rule="evenodd" d="M8 0L8 1L9 1L9 0ZM16 0L16 2L15 2L15 1L13 1L13 2L15 2L15 3L16 3L16 4L17 4L17 6L16 6L16 7L17 7L17 8L15 8L15 6L14 6L14 4L12 4L12 5L11 5L11 3L12 3L12 2L11 2L11 1L10 1L10 2L8 2L8 5L9 5L9 6L8 6L8 7L9 7L9 8L8 8L8 9L7 9L7 8L6 8L6 9L7 9L7 10L5 10L5 9L4 9L4 8L0 8L0 11L1 11L1 10L2 10L2 14L1 14L1 12L0 12L0 14L1 14L1 18L2 18L2 19L1 19L1 20L2 20L2 22L5 22L5 21L8 21L8 24L6 24L6 23L7 23L7 22L6 22L6 23L5 23L5 24L4 24L4 25L3 25L3 23L2 23L2 26L1 26L1 25L0 25L0 26L1 26L1 27L0 27L0 31L1 31L1 28L2 28L2 31L3 31L3 33L2 33L2 32L1 32L1 33L0 33L0 34L1 34L1 35L0 35L0 36L2 36L2 39L1 39L1 40L0 40L0 43L1 43L1 44L3 44L3 45L4 45L4 44L3 44L3 43L8 43L8 44L6 44L6 45L8 45L8 46L9 46L9 47L11 47L11 48L10 48L10 49L8 49L8 53L10 53L10 52L12 52L12 50L13 50L13 51L14 51L14 50L13 50L13 49L15 49L15 50L17 50L17 49L16 49L16 48L15 48L15 46L12 46L12 45L14 45L14 44L15 44L15 43L14 43L14 42L13 42L13 43L12 43L12 45L11 45L11 44L10 44L10 45L11 45L11 46L9 46L9 45L8 45L8 44L9 44L9 43L8 43L8 41L9 41L9 42L10 42L10 43L11 43L11 42L12 42L12 41L11 41L11 39L12 39L12 37L14 37L14 38L13 38L13 40L14 40L14 41L16 41L16 42L17 42L17 41L16 41L16 40L17 40L17 39L20 39L20 43L17 43L17 45L18 45L18 46L16 46L16 47L17 47L17 48L18 48L18 49L20 49L20 50L21 50L21 49L20 49L20 48L18 48L18 46L20 46L20 47L23 47L23 48L22 48L22 49L23 49L23 50L22 50L22 51L21 51L21 53L22 53L22 51L23 51L23 52L25 52L25 53L26 53L26 51L27 51L27 53L28 53L28 51L31 51L31 52L29 52L29 53L35 53L35 51L36 51L36 52L37 52L37 53L40 53L40 52L41 52L41 51L42 51L42 53L46 53L46 52L43 52L43 50L42 50L42 49L43 49L43 48L44 48L44 50L45 50L45 49L47 49L47 51L48 51L48 52L47 52L47 53L48 53L48 52L50 52L50 51L51 51L51 53L52 53L52 50L50 50L50 49L51 49L51 48L52 48L52 49L53 49L53 47L52 47L52 46L53 46L53 45L50 45L50 44L51 44L51 43L50 43L50 42L51 42L51 40L52 40L52 42L53 42L53 38L52 38L52 37L53 37L53 35L52 35L52 33L51 33L51 32L52 32L52 29L53 29L53 28L52 28L52 29L51 29L51 28L50 28L50 26L51 26L51 27L53 27L53 26L51 26L51 24L50 24L50 25L49 25L49 24L44 24L44 23L46 23L46 22L43 22L43 21L42 21L42 20L44 20L44 21L46 21L46 20L47 20L47 21L48 21L48 22L49 22L49 23L52 23L52 24L53 24L53 23L52 23L52 21L53 21L53 19L52 19L52 21L51 21L51 19L50 19L50 18L49 18L49 19L50 19L50 21L48 21L48 19L47 19L47 18L48 18L48 15L47 15L47 14L46 14L46 13L49 13L49 15L50 15L50 14L51 14L51 15L52 15L52 16L51 16L51 17L52 17L52 18L53 18L53 14L51 14L51 13L52 13L52 10L51 10L51 13L50 13L50 12L49 12L49 11L50 11L50 9L51 9L51 8L48 8L48 9L49 9L49 11L47 11L47 12L45 12L45 11L44 11L44 12L42 12L42 11L43 11L43 9L42 9L42 11L40 11L40 10L39 10L39 11L40 11L40 12L42 12L42 13L43 13L43 14L44 14L44 15L45 15L45 16L44 16L44 17L45 17L45 19L43 19L43 18L42 18L42 17L41 17L41 19L40 19L40 20L39 20L39 22L38 22L38 20L37 20L37 22L38 22L38 23L37 23L37 24L36 24L36 23L35 23L35 24L34 24L34 23L29 23L29 24L28 24L28 19L26 19L26 18L25 18L25 17L24 17L24 16L26 16L26 17L27 17L27 18L30 18L30 19L29 19L29 20L30 20L30 21L29 21L29 22L31 22L31 18L32 18L32 19L33 19L33 21L32 21L32 22L33 22L33 21L34 21L34 20L35 20L35 22L36 22L36 20L35 20L35 17L34 17L34 16L38 16L38 15L39 15L39 14L41 14L41 15L42 15L42 16L43 16L43 15L42 15L42 14L41 14L41 13L38 13L38 12L37 12L37 11L38 11L38 9L41 9L41 8L42 8L42 7L43 7L43 3L44 3L44 4L45 4L45 3L44 3L44 1L43 1L43 0L42 0L42 2L43 2L43 3L41 3L41 4L40 4L40 5L39 5L39 3L40 3L40 2L38 2L38 0L35 0L35 1L33 1L33 2L32 2L32 3L31 3L31 2L30 2L30 3L31 3L31 6L30 6L30 7L29 7L29 2L28 2L28 1L32 1L32 0L28 0L28 1L27 1L27 0L26 0L26 1L25 1L25 0L23 0L23 1L22 1L22 3L23 3L23 4L24 4L24 8L23 8L23 5L22 5L22 4L21 4L21 3L20 3L20 2L21 2L21 1L19 1L19 0ZM40 0L40 1L41 1L41 0ZM17 1L17 2L16 2L16 3L17 3L17 2L19 2L19 1ZM23 1L23 2L25 2L25 3L27 3L27 2L25 2L25 1ZM10 2L10 3L9 3L9 5L10 5L10 6L9 6L9 7L10 7L10 9L11 9L11 10L10 10L10 11L9 11L9 12L10 12L10 13L8 13L8 11L4 11L4 9L3 9L3 11L4 11L4 12L7 12L7 13L6 13L6 14L5 14L5 13L3 13L3 14L5 14L5 15L6 15L6 16L5 16L5 17L4 17L4 15L3 15L3 17L4 17L4 18L3 18L3 21L4 21L4 18L8 18L8 19L6 19L6 20L8 20L8 21L9 21L9 20L8 20L8 19L11 19L11 20L10 20L10 22L11 22L11 23L10 23L10 24L12 24L12 26L13 26L13 25L15 25L15 26L14 26L14 27L13 27L13 28L12 28L12 27L11 27L11 25L9 25L9 33L10 33L10 34L9 34L9 35L8 35L8 33L6 33L6 32L7 32L7 31L6 31L6 30L8 30L8 29L6 29L6 30L5 30L5 36L7 36L7 35L8 35L8 38L7 38L7 37L6 37L6 38L7 38L7 39L5 39L5 38L4 38L4 35L3 35L3 34L4 34L4 33L3 33L3 34L2 34L2 36L3 36L3 41L2 41L2 40L1 40L1 41L2 41L2 43L3 43L3 42L4 42L4 41L5 41L5 42L7 42L7 41L6 41L6 40L7 40L7 39L8 39L8 38L9 38L9 39L10 39L10 37L11 37L11 33L12 33L12 34L13 34L13 35L14 35L14 37L15 37L15 35L16 35L16 36L18 36L18 35L19 35L19 34L21 34L21 35L20 35L20 36L21 36L21 37L22 37L22 38L21 38L21 41L25 41L25 42L23 42L23 43L24 43L24 44L25 44L25 43L26 43L26 41L25 41L25 40L27 40L27 43L28 43L28 44L29 44L29 45L30 45L30 42L31 42L31 41L30 41L30 42L29 42L29 41L28 41L28 40L30 40L30 39L31 39L31 40L32 40L32 39L35 39L35 40L33 40L33 41L35 41L35 45L33 45L33 44L34 44L34 43L33 43L33 42L32 42L32 43L33 43L33 44L31 44L31 46L33 46L33 47L29 47L29 48L30 48L30 49L27 49L27 50L32 50L32 49L33 49L33 48L34 48L34 47L35 47L35 48L37 48L37 49L38 49L38 48L37 48L37 47L39 47L39 50L36 50L36 49L34 49L34 50L33 50L33 51L32 51L32 52L34 52L34 50L36 50L36 51L37 51L37 52L38 52L38 51L39 51L39 52L40 52L40 51L39 51L39 50L41 50L41 48L42 48L42 47L40 47L40 46L41 46L41 45L43 45L43 43L41 43L41 42L39 42L39 39L41 39L41 40L40 40L40 41L41 41L41 40L42 40L42 42L44 42L44 44L45 44L45 42L44 42L44 41L45 41L45 40L46 40L46 41L47 41L47 39L50 39L50 40L48 40L48 42L46 42L46 43L49 43L49 42L50 42L50 40L51 40L51 37L52 37L52 35L51 35L51 34L50 34L50 32L47 32L47 29L46 29L46 30L45 30L45 31L44 31L44 27L42 27L42 26L43 26L43 23L42 23L42 22L41 22L41 21L40 21L40 22L39 22L39 23L38 23L38 24L39 24L39 26L38 26L38 27L39 27L39 26L40 26L40 25L41 25L41 28L40 28L40 29L37 29L37 27L36 27L36 26L37 26L37 25L34 25L34 26L35 26L35 27L32 27L32 28L33 28L33 29L32 29L32 30L33 30L33 29L36 29L36 30L35 30L35 32L34 32L34 31L33 31L33 32L32 32L32 31L31 31L31 28L29 28L29 29L30 29L30 31L31 31L31 32L29 32L29 30L28 30L28 29L26 29L26 33L27 33L27 34L28 34L28 35L29 35L29 36L28 36L28 38L26 38L26 37L27 37L27 36L26 36L26 35L25 35L25 36L24 36L24 35L23 35L23 34L25 34L25 33L23 33L23 32L25 32L25 31L24 31L24 30L23 30L23 28L24 28L24 27L21 27L21 28L20 28L20 30L19 30L19 25L20 25L20 26L24 26L24 24L27 24L27 22L25 22L25 21L27 21L27 20L25 20L25 18L24 18L24 17L23 17L23 16L21 16L21 17L20 17L20 19L19 19L19 20L18 20L18 21L19 21L19 20L20 20L20 22L21 22L21 23L22 23L22 22L24 22L24 24L22 24L22 25L21 25L21 24L18 24L18 22L17 22L17 20L14 20L14 21L15 21L15 23L14 23L14 22L12 22L12 21L13 21L13 20L12 20L12 19L11 19L11 18L13 18L13 16L14 16L14 19L15 19L15 17L16 17L16 18L17 18L17 19L18 19L18 18L19 18L19 16L20 16L20 15L23 15L23 14L17 14L17 13L16 13L16 14L17 14L17 15L19 15L19 16L18 16L18 18L17 18L17 16L16 16L16 15L15 15L15 16L14 16L14 14L15 14L15 12L16 12L16 11L17 11L17 10L18 10L18 9L16 9L16 11L14 11L14 10L15 10L15 8L14 8L14 10L12 10L12 9L11 9L11 7L12 7L12 6L11 6L11 5L10 5L10 3L11 3L11 2ZM33 2L33 3L32 3L32 4L33 4L33 5L34 5L34 6L33 6L33 7L32 7L32 6L31 6L31 7L30 7L30 9L33 9L33 10L32 10L32 13L29 13L29 12L28 12L28 11L31 11L31 10L29 10L29 9L25 9L25 10L24 10L24 12L21 12L21 13L24 13L24 12L25 12L25 13L26 13L26 12L27 12L27 13L29 13L29 14L33 14L33 15L34 15L34 14L35 14L35 15L36 15L36 14L35 14L35 13L34 13L34 14L33 14L33 12L34 12L34 11L35 11L35 12L36 12L36 11L37 11L37 9L38 9L38 6L39 6L39 7L40 7L40 8L41 8L41 7L42 7L42 6L41 6L41 5L40 5L40 6L39 6L39 5L38 5L38 6L37 6L37 7L36 7L36 5L35 5L35 3L37 3L37 4L38 4L38 3L37 3L37 2L35 2L35 3L34 3L34 2ZM19 5L19 8L20 8L20 9L21 9L21 7L22 7L22 5ZM25 5L25 8L28 8L28 5ZM10 6L10 7L11 7L11 6ZM13 6L13 7L14 7L14 6ZM17 6L17 7L18 7L18 6ZM20 6L20 7L21 7L21 6ZM26 6L26 7L27 7L27 6ZM34 6L34 7L35 7L35 11L36 11L36 7L35 7L35 6ZM40 6L40 7L41 7L41 6ZM44 6L44 7L45 7L45 6ZM33 8L33 9L34 9L34 8ZM44 8L44 9L46 9L46 8ZM52 8L52 9L53 9L53 8ZM22 9L22 11L23 11L23 9ZM19 10L19 11L18 11L18 12L19 12L19 13L20 13L20 11L21 11L21 10ZM27 10L27 11L28 11L28 10ZM11 11L11 12L12 12L12 11ZM44 12L44 13L45 13L45 12ZM12 13L12 14L14 14L14 13ZM6 14L6 15L8 15L8 16L9 16L9 18L11 18L11 17L12 17L12 16L13 16L13 15L12 15L12 16L11 16L11 15L8 15L8 14ZM24 14L24 15L26 15L26 16L27 16L27 17L29 17L29 16L28 16L28 14L27 14L27 15L26 15L26 14ZM37 14L37 15L38 15L38 14ZM45 14L45 15L46 15L46 14ZM31 15L31 16L30 16L30 18L31 18L31 16L32 16L32 15ZM6 16L6 17L7 17L7 16ZM39 16L39 18L38 18L38 19L39 19L39 18L40 18L40 16ZM46 16L46 17L47 17L47 16ZM21 17L21 19L20 19L20 20L21 20L21 21L25 21L25 20L21 20L21 19L24 19L24 18L22 18L22 17ZM36 18L36 19L37 19L37 18ZM16 22L16 23L17 23L17 22ZM40 22L40 23L39 23L39 24L41 24L41 25L42 25L42 24L41 24L41 22ZM17 24L17 26L15 26L15 27L14 27L14 30L13 30L13 29L12 29L12 28L11 28L11 27L10 27L10 28L11 28L11 30L10 30L10 32L11 32L11 31L12 31L12 33L13 33L13 31L15 31L15 30L17 30L17 28L18 28L18 24ZM29 24L29 27L30 27L30 26L31 26L31 24ZM32 24L32 25L33 25L33 24ZM5 25L5 28L8 28L8 25ZM25 25L25 28L28 28L28 25ZM45 25L45 28L48 28L48 25ZM6 26L6 27L7 27L7 26ZM26 26L26 27L27 27L27 26ZM46 26L46 27L47 27L47 26ZM3 27L3 29L4 29L4 27ZM16 27L16 28L15 28L15 29L16 29L16 28L17 28L17 27ZM35 27L35 28L36 28L36 27ZM41 28L41 29L40 29L40 30L41 30L41 32L40 32L40 31L38 31L38 30L36 30L36 32L37 32L37 34L38 34L38 35L39 35L39 36L41 36L41 37L40 37L40 38L41 38L41 39L42 39L42 38L41 38L41 37L43 37L43 38L44 38L44 37L43 37L43 36L45 36L45 35L46 35L46 36L49 36L49 35L46 35L46 33L47 33L47 34L49 34L49 33L47 33L47 32L46 32L46 31L45 31L45 32L42 32L42 31L43 31L43 30L42 30L42 28ZM21 29L21 30L22 30L22 32L21 32L21 31L20 31L20 32L21 32L21 34L22 34L22 32L23 32L23 30L22 30L22 29ZM48 29L48 30L50 30L50 31L51 31L51 29ZM18 30L18 31L19 31L19 30ZM27 30L27 33L28 33L28 34L29 34L29 35L30 35L30 36L29 36L29 37L32 37L32 36L33 36L33 38L34 38L34 35L35 35L35 38L37 38L37 40L38 40L38 39L39 39L39 37L37 37L37 36L36 36L36 33L35 33L35 34L34 34L34 35L32 35L32 34L31 34L31 33L29 33L29 32L28 32L28 30ZM16 31L16 35L17 35L17 34L19 34L19 33L17 33L17 31ZM14 32L14 33L15 33L15 32ZM38 32L38 34L39 34L39 35L40 35L40 34L39 34L39 32ZM41 32L41 33L42 33L42 32ZM6 34L6 35L7 35L7 34ZM14 34L14 35L15 35L15 34ZM42 34L42 35L41 35L41 36L42 36L42 35L44 35L44 34ZM9 35L9 37L10 37L10 35ZM22 35L22 36L23 36L23 37L24 37L24 40L25 40L25 37L26 37L26 36L25 36L25 37L24 37L24 36L23 36L23 35ZM50 36L50 37L51 37L51 36ZM16 37L16 39L15 39L15 38L14 38L14 40L16 40L16 39L17 39L17 37ZM19 37L19 38L20 38L20 37ZM46 37L46 38L45 38L45 39L44 39L44 40L45 40L45 39L47 39L47 37ZM22 38L22 39L23 39L23 38ZM31 38L31 39L32 39L32 38ZM18 40L18 41L19 41L19 40ZM20 43L20 44L18 44L18 45L20 45L20 46L23 46L23 45L20 45L20 44L22 44L22 43ZM36 43L36 44L37 44L37 46L36 46L36 47L37 47L37 46L38 46L38 44L39 44L39 45L41 45L41 44L40 44L40 43ZM52 43L52 44L53 44L53 43ZM25 45L25 48L28 48L28 45ZM45 45L45 48L48 48L48 45ZM49 45L49 48L51 48L51 46L50 46L50 45ZM11 46L11 47L12 47L12 46ZM26 46L26 47L27 47L27 46ZM46 46L46 47L47 47L47 46ZM13 47L13 48L12 48L12 49L11 49L11 50L10 50L10 51L11 51L11 50L12 50L12 49L13 49L13 48L14 48L14 47ZM23 48L23 49L24 49L24 51L26 51L26 49L24 49L24 48ZM31 48L31 49L32 49L32 48ZM18 50L18 51L16 51L16 53L17 53L17 52L19 52L19 50ZM48 50L48 51L49 51L49 50ZM0 0L0 7L7 7L7 0ZM1 1L1 6L6 6L6 1ZM2 2L2 5L5 5L5 2ZM46 0L46 7L53 7L53 0ZM47 1L47 6L52 6L52 1ZM48 2L48 5L51 5L51 2ZM0 46L0 53L7 53L7 46ZM1 47L1 52L6 52L6 47ZM2 48L2 51L5 51L5 48Z" fill="#000000"/></g></g></svg>
