<?xml version="1.0" encoding="UTF-8"?>
<svg xmlns="http://www.w3.org/2000/svg" version="1.1" width="356" height="356" viewBox="0 0 356 356"><rect x="0" y="0" width="356" height="356" fill="#ffffff"/><g transform="scale(6.717)"><g transform="translate(0,0)"><path fill-rule="evenodd" d="M10 0L10 2L9 2L9 1L8 1L8 2L9 2L9 3L8 3L8 4L9 4L9 5L8 5L8 7L9 7L9 5L10 5L10 8L6 8L6 9L7 9L7 10L4 10L4 9L5 9L5 8L0 8L0 9L2 9L2 10L0 10L0 11L1 11L1 12L0 12L0 13L2 13L2 12L3 12L3 11L2 11L2 10L4 10L4 11L5 11L5 12L6 12L6 13L8 13L8 12L9 12L9 11L10 11L10 13L9 13L9 15L8 15L8 14L6 14L6 15L7 15L7 16L6 16L6 17L5 17L5 16L4 16L4 14L3 14L3 15L2 15L2 16L1 16L1 14L0 14L0 17L1 17L1 19L0 19L0 21L1 21L1 22L0 22L0 25L2 25L2 26L1 26L1 27L0 27L0 28L1 28L1 27L2 27L2 28L3 28L3 30L5 30L5 29L8 29L8 31L7 31L7 30L6 30L6 31L4 31L4 32L3 32L3 34L2 34L2 35L3 35L3 36L5 36L5 37L7 37L7 38L5 38L5 39L8 39L8 38L11 38L11 39L14 39L14 40L13 40L13 41L16 41L16 42L14 42L14 44L15 44L15 45L13 45L13 46L11 46L11 43L12 43L12 40L10 40L10 39L9 39L9 42L8 42L8 40L6 40L6 41L7 41L7 42L3 42L3 43L2 43L2 41L3 41L3 39L4 39L4 37L2 37L2 36L1 36L1 37L0 37L0 39L1 39L1 40L2 40L2 41L0 41L0 43L1 43L1 44L3 44L3 45L4 45L4 44L3 44L3 43L7 43L7 44L6 44L6 45L8 45L8 47L9 47L9 48L8 48L8 53L9 53L9 48L10 48L10 49L11 49L11 48L13 48L13 46L15 46L15 47L14 47L14 48L17 48L17 49L18 49L18 50L20 50L20 51L17 51L17 52L16 52L16 51L15 51L15 53L19 53L19 52L20 52L20 53L21 53L21 51L22 51L22 52L23 52L23 53L27 53L27 52L26 52L26 51L25 51L25 52L23 52L23 51L24 51L24 49L25 49L25 50L26 50L26 49L29 49L29 51L28 51L28 52L29 52L29 53L32 53L32 52L31 52L31 49L32 49L32 46L33 46L33 49L35 49L35 51L37 51L37 52L34 52L34 53L37 53L37 52L38 52L38 53L39 53L39 51L41 51L41 50L42 50L42 51L44 51L44 53L47 53L47 52L45 52L45 51L44 51L44 50L43 50L43 48L42 48L42 46L43 46L43 47L44 47L44 49L45 49L45 50L46 50L46 51L48 51L48 53L50 53L50 50L46 50L46 49L51 49L51 50L52 50L52 51L51 51L51 52L52 52L52 51L53 51L53 50L52 50L52 49L51 49L51 48L52 48L52 47L51 47L51 46L52 46L52 45L53 45L53 44L45 44L45 41L44 41L44 45L43 45L43 43L42 43L42 44L41 44L41 46L39 46L39 47L35 47L35 48L34 48L34 46L33 46L33 45L32 45L32 44L33 44L33 43L34 43L34 45L37 45L37 46L38 46L38 45L37 45L37 44L38 44L38 43L35 43L35 42L33 42L33 41L34 41L34 40L35 40L35 41L36 41L36 42L38 42L38 41L39 41L39 42L40 42L40 41L39 41L39 40L40 40L40 39L39 39L39 38L37 38L37 37L38 37L38 36L40 36L40 35L41 35L41 36L42 36L42 37L40 37L40 38L42 38L42 41L41 41L41 42L43 42L43 40L46 40L46 39L43 39L43 35L44 35L44 36L45 36L45 35L46 35L46 36L50 36L50 35L49 35L49 34L50 34L50 33L51 33L51 34L52 34L52 33L53 33L53 31L52 31L52 32L50 32L50 29L49 29L49 28L50 28L50 26L52 26L52 25L53 25L53 24L50 24L50 22L53 22L53 21L52 21L52 20L53 20L53 19L51 19L51 18L52 18L52 17L53 17L53 15L51 15L51 16L50 16L50 19L49 19L49 20L47 20L47 18L49 18L49 16L48 16L48 15L47 15L47 14L46 14L46 15L44 15L44 13L49 13L49 14L50 14L50 13L51 13L51 14L52 14L52 12L53 12L53 11L52 11L52 12L50 12L50 11L51 11L51 9L52 9L52 8L51 8L51 9L50 9L50 8L49 8L49 10L47 10L47 11L46 11L46 10L44 10L44 9L43 9L43 3L44 3L44 4L45 4L45 3L44 3L44 1L43 1L43 0L39 0L39 2L37 2L37 3L35 3L35 1L38 1L38 0L35 0L35 1L34 1L34 2L33 2L33 1L32 1L32 0L29 0L29 1L32 1L32 2L33 2L33 3L35 3L35 4L37 4L37 5L35 5L35 6L34 6L34 5L32 5L32 3L31 3L31 4L30 4L30 2L27 2L27 4L26 4L26 1L28 1L28 0L23 0L23 1L22 1L22 0L18 0L18 1L17 1L17 3L16 3L16 2L15 2L15 3L16 3L16 4L13 4L13 3L14 3L14 2L12 2L12 4L11 4L11 0ZM13 0L13 1L14 1L14 0ZM15 0L15 1L16 1L16 0ZM19 1L19 2L18 2L18 3L19 3L19 2L20 2L20 1ZM21 1L21 3L22 3L22 4L20 4L20 6L19 6L19 8L20 8L20 9L19 9L19 10L17 10L17 11L19 11L19 13L15 13L15 12L16 12L16 11L15 11L15 10L16 10L16 9L18 9L18 8L17 8L17 7L18 7L18 5L19 5L19 4L16 4L16 5L17 5L17 7L16 7L16 6L15 6L15 7L16 7L16 9L13 9L13 8L14 8L14 6L13 6L13 4L12 4L12 6L11 6L11 7L12 7L12 6L13 6L13 8L12 8L12 10L11 10L11 11L13 11L13 10L14 10L14 12L13 12L13 13L15 13L15 14L13 14L13 15L12 15L12 14L11 14L11 13L12 13L12 12L11 12L11 13L10 13L10 14L11 14L11 15L12 15L12 17L14 17L14 18L12 18L12 19L9 19L9 22L8 22L8 21L6 21L6 20L8 20L8 19L6 19L6 20L5 20L5 18L4 18L4 16L3 16L3 17L2 17L2 18L3 18L3 19L1 19L1 20L3 20L3 21L4 21L4 22L3 22L3 23L2 23L2 22L1 22L1 24L2 24L2 25L4 25L4 24L5 24L5 23L6 23L6 24L8 24L8 23L9 23L9 24L10 24L10 23L12 23L12 25L13 25L13 26L12 26L12 27L11 27L11 26L10 26L10 25L9 25L9 29L11 29L11 31L10 31L10 30L9 30L9 31L10 31L10 32L8 32L8 33L9 33L9 34L8 34L8 35L6 35L6 36L9 36L9 37L13 37L13 38L15 38L15 40L16 40L16 41L18 41L18 40L16 40L16 38L17 38L17 39L18 39L18 38L19 38L19 40L20 40L20 41L19 41L19 42L17 42L17 44L22 44L22 45L20 45L20 46L18 46L18 45L15 45L15 46L18 46L18 47L17 47L17 48L18 48L18 49L21 49L21 50L22 50L22 51L23 51L23 49L24 49L24 48L23 48L23 47L24 47L24 46L22 46L22 45L24 45L24 44L25 44L25 43L26 43L26 44L27 44L27 43L28 43L28 44L29 44L29 45L30 45L30 44L29 44L29 43L30 43L30 42L29 42L29 43L28 43L28 42L25 42L25 43L24 43L24 42L23 42L23 41L25 41L25 40L26 40L26 41L27 41L27 40L29 40L29 41L31 41L31 42L32 42L32 43L31 43L31 44L32 44L32 43L33 43L33 42L32 42L32 41L33 41L33 40L32 40L32 39L29 39L29 37L28 37L28 36L32 36L32 38L34 38L34 39L35 39L35 40L37 40L37 41L38 41L38 39L35 39L35 37L36 37L36 36L37 36L37 35L39 35L39 33L40 33L40 34L42 34L42 35L43 35L43 34L44 34L44 35L45 35L45 34L46 34L46 35L48 35L48 34L47 34L47 33L49 33L49 31L47 31L47 29L45 29L45 30L43 30L43 31L42 31L42 30L41 30L41 31L42 31L42 32L38 32L38 31L40 31L40 30L39 30L39 29L41 29L41 28L39 28L39 29L38 29L38 27L40 27L40 26L41 26L41 27L42 27L42 29L44 29L44 27L42 27L42 26L41 26L41 25L43 25L43 24L42 24L42 22L41 22L41 20L42 20L42 21L44 21L44 22L43 22L43 23L45 23L45 24L46 24L46 23L47 23L47 24L48 24L48 23L49 23L49 22L48 22L48 21L45 21L45 20L44 20L44 19L45 19L45 18L47 18L47 17L48 17L48 16L43 16L43 17L44 17L44 18L42 18L42 17L41 17L41 15L43 15L43 14L41 14L41 15L39 15L39 13L42 13L42 12L43 12L43 13L44 13L44 12L43 12L43 10L42 10L42 9L41 9L41 8L40 8L40 6L41 6L41 7L42 7L42 5L41 5L41 3L43 3L43 2L42 2L42 1L41 1L41 2L40 2L40 3L39 3L39 4L38 4L38 3L37 3L37 4L38 4L38 5L37 5L37 9L36 9L36 10L35 10L35 9L34 9L34 8L36 8L36 6L35 6L35 7L34 7L34 6L33 6L33 7L34 7L34 8L32 8L32 5L31 5L31 8L30 8L30 6L29 6L29 10L26 10L26 9L24 9L24 8L22 8L22 9L21 9L21 8L20 8L20 6L21 6L21 7L22 7L22 6L21 6L21 5L22 5L22 4L25 4L25 2L22 2L22 1ZM9 3L9 4L10 4L10 3ZM39 4L39 5L38 5L38 7L39 7L39 5L40 5L40 4ZM23 5L23 7L24 7L24 5ZM25 5L25 8L28 8L28 5ZM26 6L26 7L27 7L27 6ZM44 6L44 8L45 8L45 9L46 9L46 8L45 8L45 6ZM10 8L10 9L11 9L11 8ZM31 8L31 9L30 9L30 10L29 10L29 11L27 11L27 12L26 12L26 10L25 10L25 11L23 11L23 9L22 9L22 10L21 10L21 12L20 12L20 13L19 13L19 15L20 15L20 16L21 16L21 17L18 17L18 16L17 16L17 15L18 15L18 14L17 14L17 15L16 15L16 16L17 16L17 17L18 17L18 19L19 19L19 20L16 20L16 19L14 19L14 20L15 20L15 21L12 21L12 20L10 20L10 21L11 21L11 22L13 22L13 23L14 23L14 24L13 24L13 25L16 25L16 26L15 26L15 27L16 27L16 28L15 28L15 29L18 29L18 30L17 30L17 31L15 31L15 32L17 32L17 33L18 33L18 34L17 34L17 35L19 35L19 36L16 36L16 35L15 35L15 34L16 34L16 33L15 33L15 34L14 34L14 33L13 33L13 32L14 32L14 31L12 31L12 33L13 33L13 34L11 34L11 35L10 35L10 34L9 34L9 36L12 36L12 35L13 35L13 37L14 37L14 36L15 36L15 37L21 37L21 38L20 38L20 40L22 40L22 41L21 41L21 43L23 43L23 42L22 42L22 41L23 41L23 40L24 40L24 39L23 39L23 38L22 38L22 37L21 37L21 36L27 36L27 35L33 35L33 37L35 37L35 36L36 36L36 35L37 35L37 34L38 34L38 33L37 33L37 32L36 32L36 31L37 31L37 30L38 30L38 29L37 29L37 27L38 27L38 25L39 25L39 26L40 26L40 25L39 25L39 23L40 23L40 24L41 24L41 22L40 22L40 21L39 21L39 22L38 22L38 20L39 20L39 19L42 19L42 18L39 18L39 19L38 19L38 20L35 20L35 23L34 23L34 22L33 22L33 21L34 21L34 20L33 20L33 21L32 21L32 20L31 20L31 19L30 19L30 18L31 18L31 17L32 17L32 19L35 19L35 18L33 18L33 17L32 17L32 16L35 16L35 17L36 17L36 19L37 19L37 18L38 18L38 17L37 17L37 15L38 15L38 16L39 16L39 15L38 15L38 13L37 13L37 11L38 11L38 12L39 12L39 11L40 11L40 10L39 10L39 11L38 11L38 9L39 9L39 8L38 8L38 9L37 9L37 10L36 10L36 12L35 12L35 11L34 11L34 10L33 10L33 9L32 9L32 8ZM47 8L47 9L48 9L48 8ZM8 10L8 11L6 11L6 12L8 12L8 11L9 11L9 10ZM19 10L19 11L20 11L20 10ZM30 10L30 11L31 11L31 10ZM41 10L41 12L42 12L42 10ZM49 10L49 11L50 11L50 10ZM22 11L22 12L21 12L21 13L20 13L20 15L21 15L21 16L22 16L22 18L23 18L23 19L22 19L22 20L19 20L19 21L20 21L20 23L19 23L19 24L20 24L20 25L19 25L19 26L20 26L20 27L18 27L18 28L21 28L21 29L19 29L19 30L18 30L18 31L17 31L17 32L18 32L18 33L21 33L21 34L23 34L23 35L25 35L25 34L26 34L26 35L27 35L27 32L29 32L29 33L31 33L31 34L35 34L35 35L36 35L36 34L37 34L37 33L36 33L36 32L35 32L35 33L33 33L33 31L34 31L34 30L35 30L35 31L36 31L36 29L35 29L35 28L36 28L36 27L37 27L37 26L35 26L35 25L33 25L33 24L34 24L34 23L33 23L33 22L32 22L32 21L31 21L31 20L30 20L30 19L29 19L29 17L30 17L30 14L29 14L29 13L30 13L30 12L29 12L29 13L28 13L28 14L27 14L27 15L26 15L26 12L25 12L25 13L24 13L24 14L25 14L25 15L26 15L26 17L23 17L23 15L21 15L21 14L22 14L22 13L23 13L23 11ZM33 11L33 12L32 12L32 15L31 15L31 16L32 16L32 15L35 15L35 13L33 13L33 12L34 12L34 11ZM45 11L45 12L46 12L46 11ZM47 11L47 12L48 12L48 11ZM49 12L49 13L50 13L50 12ZM36 14L36 15L37 15L37 14ZM9 15L9 17L8 17L8 16L7 16L7 17L6 17L6 18L11 18L11 17L10 17L10 15ZM13 15L13 16L14 16L14 15ZM27 15L27 16L28 16L28 17L29 17L29 16L28 16L28 15ZM15 17L15 18L16 18L16 17ZM19 18L19 19L20 19L20 18ZM24 18L24 19L23 19L23 21L24 21L24 22L22 22L22 23L20 23L20 24L22 24L22 25L21 25L21 27L22 27L22 25L23 25L23 26L24 26L24 27L23 27L23 29L21 29L21 31L22 31L22 30L25 30L25 29L26 29L26 32L25 32L25 31L24 31L24 32L23 32L23 33L26 33L26 32L27 32L27 31L29 31L29 32L31 32L31 33L32 33L32 32L31 32L31 31L33 31L33 29L32 29L32 30L31 30L31 28L35 28L35 27L33 27L33 26L32 26L32 24L33 24L33 23L32 23L32 24L31 24L31 23L28 23L28 24L26 24L26 23L24 23L24 22L26 22L26 21L27 21L27 22L31 22L31 21L29 21L29 19L27 19L27 18ZM26 19L26 20L24 20L24 21L26 21L26 20L27 20L27 19ZM50 19L50 20L49 20L49 21L51 21L51 19ZM4 20L4 21L5 21L5 22L6 22L6 23L7 23L7 22L6 22L6 21L5 21L5 20ZM15 21L15 22L17 22L17 23L18 23L18 22L17 22L17 21ZM9 22L9 23L10 23L10 22ZM36 22L36 23L37 23L37 22ZM45 22L45 23L46 23L46 22ZM3 23L3 24L4 24L4 23ZM16 24L16 25L18 25L18 24ZM23 24L23 25L24 25L24 24ZM30 24L30 25L31 25L31 24ZM37 24L37 25L38 25L38 24ZM49 24L49 25L50 25L50 24ZM5 25L5 28L8 28L8 25ZM25 25L25 28L28 28L28 25ZM45 25L45 28L48 28L48 25ZM2 26L2 27L3 27L3 28L4 28L4 27L3 27L3 26ZM6 26L6 27L7 27L7 26ZM26 26L26 27L27 27L27 26ZM30 26L30 28L31 28L31 27L32 27L32 26ZM46 26L46 27L47 27L47 26ZM12 27L12 28L13 28L13 29L14 29L14 28L13 28L13 27ZM51 28L51 29L53 29L53 28ZM28 29L28 30L29 30L29 29ZM0 30L0 32L1 32L1 33L0 33L0 35L1 35L1 33L2 33L2 32L1 32L1 30ZM6 31L6 32L7 32L7 31ZM43 31L43 32L45 32L45 31ZM21 32L21 33L22 33L22 32ZM46 32L46 33L47 33L47 32ZM6 33L6 34L7 34L7 33ZM35 33L35 34L36 34L36 33ZM42 33L42 34L43 34L43 33ZM4 34L4 35L5 35L5 34ZM19 34L19 35L20 35L20 34ZM51 35L51 36L52 36L52 37L50 37L50 38L49 38L49 37L44 37L44 38L48 38L48 39L47 39L47 42L49 42L49 43L50 43L50 42L52 42L52 41L53 41L53 39L51 39L51 40L52 40L52 41L49 41L49 40L50 40L50 38L53 38L53 36L52 36L52 35ZM25 37L25 39L26 39L26 40L27 40L27 39L26 39L26 38L28 38L28 37ZM21 38L21 39L22 39L22 38ZM4 40L4 41L5 41L5 40ZM31 40L31 41L32 41L32 40ZM9 42L9 43L8 43L8 45L10 45L10 44L9 44L9 43L11 43L11 42ZM19 42L19 43L20 43L20 42ZM15 43L15 44L16 44L16 43ZM25 45L25 48L28 48L28 45ZM31 45L31 46L32 46L32 45ZM45 45L45 48L48 48L48 45ZM49 45L49 47L50 47L50 48L51 48L51 47L50 47L50 45ZM9 46L9 47L11 47L11 46ZM21 46L21 47L22 47L22 46ZM26 46L26 47L27 47L27 46ZM29 46L29 49L30 49L30 48L31 48L31 47L30 47L30 46ZM46 46L46 47L47 47L47 46ZM19 47L19 48L20 48L20 47ZM39 47L39 48L38 48L38 51L39 51L39 49L42 49L42 48L41 48L41 47ZM21 48L21 49L22 49L22 48ZM12 49L12 50L14 50L14 49ZM15 49L15 50L16 50L16 49ZM36 49L36 50L37 50L37 49ZM32 50L32 51L34 51L34 50ZM29 51L29 52L30 52L30 51ZM10 52L10 53L13 53L13 52ZM41 52L41 53L43 53L43 52ZM0 0L0 7L7 7L7 0ZM1 1L1 6L6 6L6 1ZM2 2L2 5L5 5L5 2ZM46 0L46 7L53 7L53 0ZM47 1L47 6L52 6L52 1ZM48 2L48 5L51 5L51 2ZM0 46L0 53L7 53L7 46ZM1 47L1 52L6 52L6 47ZM2 48L2 51L5 51L5 48Z" fill="#000000"/></g></g></svg>
