<?xml version="1.0" encoding="UTF-8"?>
<svg xmlns="http://www.w3.org/2000/svg" version="1.1" width="356" height="356" viewBox="0 0 356 356"><rect x="0" y="0" width="356" height="356" fill="#ffffff"/><g transform="scale(6.717)"><g transform="translate(0,0)"><path fill-rule="evenodd" d="M11 0L11 1L12 1L12 2L11 2L11 3L10 3L10 4L13 4L13 5L16 5L16 7L17 7L17 6L18 6L18 7L19 7L19 6L20 6L20 8L23 8L23 6L22 6L22 7L21 7L21 6L20 6L20 3L18 3L18 2L20 2L20 1L21 1L21 2L22 2L22 3L21 3L21 5L22 5L22 4L23 4L23 5L24 5L24 9L22 9L22 13L23 13L23 12L26 12L26 14L25 14L25 13L24 13L24 14L25 14L25 15L23 15L23 14L21 14L21 15L23 15L23 17L22 17L22 16L21 16L21 18L20 18L20 19L21 19L21 18L24 18L24 17L26 17L26 16L27 16L27 18L26 18L26 19L24 19L24 20L23 20L23 19L22 19L22 20L23 20L23 21L22 21L22 22L21 22L21 21L19 21L19 20L17 20L17 19L19 19L19 17L20 17L20 16L19 16L19 15L20 15L20 12L21 12L21 10L20 10L20 9L18 9L18 8L17 8L17 9L16 9L16 10L17 10L17 9L18 9L18 10L20 10L20 11L17 11L17 12L18 12L18 13L19 13L19 14L18 14L18 15L17 15L17 16L18 16L18 17L16 17L16 15L15 15L15 14L16 14L16 12L14 12L14 11L15 11L15 9L13 9L13 8L14 8L14 7L15 7L15 6L14 6L14 7L13 7L13 6L12 6L12 5L11 5L11 6L10 6L10 7L9 7L9 6L8 6L8 7L9 7L9 9L8 9L8 8L5 8L5 9L7 9L7 10L6 10L6 11L7 11L7 12L6 12L6 13L7 13L7 12L8 12L8 14L4 14L4 13L3 13L3 12L4 12L4 11L5 11L5 10L3 10L3 9L2 9L2 8L0 8L0 9L2 9L2 11L0 11L0 12L2 12L2 13L3 13L3 14L1 14L1 13L0 13L0 15L2 15L2 16L1 16L1 17L0 17L0 18L1 18L1 19L0 19L0 26L1 26L1 27L0 27L0 28L1 28L1 27L2 27L2 28L3 28L3 29L5 29L5 30L3 30L3 32L2 32L2 35L1 35L1 33L0 33L0 40L1 40L1 41L0 41L0 43L1 43L1 44L3 44L3 45L4 45L4 44L3 44L3 43L8 43L8 48L9 48L9 50L10 50L10 51L8 51L8 53L9 53L9 52L10 52L10 53L12 53L12 51L13 51L13 50L12 50L12 51L11 51L11 50L10 50L10 48L11 48L11 49L14 49L14 50L15 50L15 51L14 51L14 53L20 53L20 52L23 52L23 53L26 53L26 52L27 52L27 51L28 51L28 52L29 52L29 51L30 51L30 50L31 50L31 48L32 48L32 49L33 49L33 50L32 50L32 52L31 52L31 53L32 53L32 52L33 52L33 53L37 53L37 52L40 52L40 51L39 51L39 50L42 50L42 52L41 52L41 53L43 53L43 51L44 51L44 50L43 50L43 49L45 49L45 52L44 52L44 53L47 53L47 51L48 51L48 53L49 53L49 52L50 52L50 53L51 53L51 49L52 49L52 48L53 48L53 47L52 47L52 48L51 48L51 49L50 49L50 51L49 51L49 50L47 50L47 49L49 49L49 48L50 48L50 47L51 47L51 46L53 46L53 42L52 42L52 44L51 44L51 46L50 46L50 47L49 47L49 44L50 44L50 43L49 43L49 42L50 42L50 41L49 41L49 40L51 40L51 39L50 39L50 38L52 38L52 37L51 37L51 36L50 36L50 35L51 35L51 34L50 34L50 33L52 33L52 34L53 34L53 32L52 32L52 31L53 31L53 27L50 27L50 26L51 26L51 25L52 25L52 23L51 23L51 25L50 25L50 21L52 21L52 22L53 22L53 21L52 21L52 20L53 20L53 18L52 18L52 20L50 20L50 18L51 18L51 16L52 16L52 17L53 17L53 16L52 16L52 15L50 15L50 18L49 18L49 16L48 16L48 14L50 14L50 13L53 13L53 11L51 11L51 10L53 10L53 9L50 9L50 8L48 8L48 9L49 9L49 10L47 10L47 9L43 9L43 8L45 8L45 6L44 6L44 7L43 7L43 3L44 3L44 4L45 4L45 3L44 3L44 1L43 1L43 0L41 0L41 1L40 1L40 0L38 0L38 1L40 1L40 2L39 2L39 4L42 4L42 7L41 7L41 5L39 5L39 6L38 6L38 2L36 2L36 3L35 3L35 0L34 0L34 1L33 1L33 0L32 0L32 2L31 2L31 0L30 0L30 1L29 1L29 2L28 2L28 3L27 3L27 4L25 4L25 3L26 3L26 2L27 2L27 0L26 0L26 2L25 2L25 3L23 3L23 2L22 2L22 1L23 1L23 0L18 0L18 1L16 1L16 3L15 3L15 2L14 2L14 1L15 1L15 0ZM24 0L24 1L25 1L25 0ZM36 0L36 1L37 1L37 0ZM9 1L9 2L10 2L10 1ZM13 2L13 4L14 4L14 2ZM29 2L29 3L28 3L28 4L29 4L29 3L31 3L31 2ZM33 2L33 3L34 3L34 2ZM40 2L40 3L43 3L43 2ZM8 3L8 5L9 5L9 3ZM16 3L16 5L18 5L18 6L19 6L19 4L17 4L17 3ZM32 4L32 5L31 5L31 8L30 8L30 5L29 5L29 9L31 9L31 8L32 8L32 10L33 10L33 9L34 9L34 8L36 8L36 6L35 6L35 7L34 7L34 6L33 6L33 8L32 8L32 5L35 5L35 4ZM36 4L36 5L37 5L37 4ZM25 5L25 8L28 8L28 5ZM11 6L11 7L12 7L12 8L11 8L11 9L10 9L10 10L11 10L11 9L12 9L12 10L13 10L13 11L14 11L14 10L13 10L13 9L12 9L12 8L13 8L13 7L12 7L12 6ZM26 6L26 7L27 7L27 6ZM37 6L37 7L38 7L38 8L37 8L37 9L36 9L36 10L34 10L34 11L32 11L32 12L31 12L31 10L27 10L27 11L26 11L26 12L28 12L28 11L30 11L30 13L32 13L32 14L33 14L33 13L32 13L32 12L34 12L34 11L36 11L36 10L37 10L37 11L38 11L38 12L37 12L37 13L36 13L36 12L35 12L35 13L34 13L34 15L30 15L30 14L28 14L28 13L27 13L27 16L28 16L28 17L29 17L29 16L30 16L30 17L31 17L31 18L32 18L32 19L31 19L31 20L30 20L30 21L31 21L31 23L29 23L29 21L28 21L28 20L29 20L29 19L28 19L28 20L27 20L27 19L26 19L26 20L27 20L27 21L24 21L24 22L23 22L23 23L22 23L22 24L23 24L23 23L24 23L24 22L26 22L26 23L25 23L25 24L27 24L27 21L28 21L28 24L30 24L30 25L32 25L32 26L31 26L31 27L32 27L32 26L33 26L33 27L35 27L35 28L34 28L34 30L33 30L33 31L31 31L31 30L32 30L32 29L33 29L33 28L32 28L32 29L31 29L31 28L30 28L30 26L29 26L29 29L31 29L31 30L30 30L30 32L29 32L29 31L28 31L28 32L26 32L26 31L27 31L27 30L28 30L28 29L27 29L27 30L26 30L26 31L25 31L25 29L24 29L24 27L22 27L22 26L23 26L23 25L21 25L21 27L20 27L20 26L19 26L19 27L18 27L18 28L19 28L19 27L20 27L20 28L21 28L21 29L19 29L19 30L21 30L21 31L19 31L19 32L20 32L20 33L19 33L19 34L20 34L20 35L17 35L17 36L16 36L16 38L15 38L15 37L14 37L14 36L15 36L15 34L14 34L14 33L12 33L12 32L14 32L14 31L15 31L15 32L16 32L16 34L17 34L17 33L18 33L18 32L16 32L16 30L18 30L18 29L16 29L16 30L12 30L12 29L15 29L15 28L16 28L16 27L17 27L17 26L18 26L18 25L19 25L19 24L20 24L20 23L21 23L21 22L20 22L20 23L19 23L19 22L18 22L18 23L17 23L17 25L16 25L16 23L15 23L15 19L14 19L14 18L15 18L15 17L13 17L13 18L11 18L11 16L15 16L15 15L12 15L12 13L13 13L13 12L12 12L12 11L8 11L8 12L11 12L11 13L10 13L10 14L8 14L8 15L4 15L4 17L2 17L2 19L3 19L3 23L2 23L2 20L1 20L1 26L2 26L2 25L4 25L4 24L7 24L7 23L10 23L10 24L12 24L12 23L10 23L10 22L11 22L11 21L12 21L12 19L14 19L14 20L13 20L13 21L14 21L14 22L13 22L13 23L14 23L14 24L15 24L15 25L14 25L14 26L12 26L12 25L10 25L10 26L9 26L9 27L10 27L10 26L12 26L12 27L11 27L11 28L12 28L12 29L10 29L10 30L8 30L8 29L6 29L6 30L7 30L7 31L5 31L5 32L4 32L4 34L5 34L5 32L7 32L7 31L9 31L9 32L10 32L10 31L11 31L11 36L10 36L10 37L12 37L12 38L9 38L9 37L8 37L8 39L11 39L11 40L12 40L12 41L11 41L11 43L9 43L9 42L10 42L10 40L8 40L8 43L9 43L9 44L10 44L10 47L13 47L13 46L14 46L14 45L15 45L15 44L19 44L19 42L18 42L18 41L21 41L21 40L19 40L19 39L21 39L21 37L22 37L22 39L23 39L23 40L22 40L22 42L23 42L23 40L24 40L24 39L25 39L25 40L26 40L26 41L28 41L28 42L25 42L25 41L24 41L24 43L23 43L23 44L22 44L22 43L21 43L21 42L20 42L20 43L21 43L21 44L20 44L20 45L21 45L21 46L20 46L20 48L19 48L19 50L17 50L17 51L16 51L16 52L17 52L17 51L19 51L19 52L20 52L20 51L22 51L22 50L23 50L23 48L22 48L22 45L24 45L24 44L25 44L25 43L26 43L26 44L32 44L32 45L31 45L31 46L30 46L30 47L29 47L29 49L26 49L26 50L28 50L28 51L29 51L29 49L30 49L30 47L31 47L31 46L32 46L32 48L34 48L34 52L35 52L35 50L36 50L36 47L37 47L37 49L38 49L38 50L37 50L37 51L38 51L38 50L39 50L39 49L40 49L40 48L42 48L42 49L43 49L43 48L44 48L44 46L43 46L43 47L41 47L41 42L40 42L40 41L42 41L42 40L43 40L43 41L45 41L45 40L46 40L46 42L45 42L45 43L46 43L46 42L47 42L47 43L48 43L48 44L49 44L49 43L48 43L48 42L47 42L47 41L48 41L48 40L47 40L47 39L48 39L48 38L47 38L47 34L46 34L46 33L47 33L47 32L49 32L49 31L50 31L50 32L51 32L51 31L52 31L52 30L51 30L51 28L49 28L49 29L50 29L50 30L49 30L49 31L48 31L48 30L47 30L47 29L46 29L46 30L45 30L45 29L44 29L44 27L41 27L41 28L40 28L40 27L39 27L39 25L40 25L40 24L38 24L38 26L35 26L35 25L36 25L36 24L34 24L34 26L33 26L33 25L32 25L32 22L33 22L33 23L40 23L40 22L36 22L36 21L35 21L35 22L33 22L33 20L32 20L32 19L33 19L33 18L32 18L32 17L34 17L34 19L35 19L35 20L36 20L36 19L35 19L35 18L36 18L36 17L35 17L35 13L36 13L36 15L37 15L37 17L38 17L38 18L39 18L39 19L37 19L37 21L43 21L43 22L41 22L41 24L43 24L43 22L44 22L44 24L45 24L45 22L44 22L44 21L43 21L43 20L39 20L39 19L40 19L40 18L39 18L39 17L42 17L42 16L41 16L41 15L37 15L37 14L39 14L39 13L40 13L40 14L41 14L41 13L40 13L40 12L41 12L41 11L43 11L43 10L40 10L40 11L38 11L38 10L37 10L37 9L38 9L38 8L39 8L39 9L42 9L42 8L39 8L39 7L40 7L40 6L39 6L39 7L38 7L38 6ZM25 9L25 10L26 10L26 9ZM44 10L44 12L45 12L45 13L44 13L44 14L43 14L43 16L44 16L44 20L45 20L45 17L46 17L46 19L47 19L47 20L48 20L48 19L49 19L49 18L48 18L48 19L47 19L47 17L48 17L48 16L47 16L47 13L46 13L46 12L47 12L47 10L46 10L46 11L45 11L45 10ZM2 11L2 12L3 12L3 11ZM48 11L48 12L49 12L49 13L50 13L50 12L51 12L51 11L50 11L50 12L49 12L49 11ZM38 12L38 13L39 13L39 12ZM45 13L45 15L44 15L44 16L45 16L45 15L46 15L46 13ZM8 15L8 17L7 17L7 16L5 16L5 17L4 17L4 20L6 20L6 21L7 21L7 22L5 22L5 21L4 21L4 23L3 23L3 24L4 24L4 23L7 23L7 22L8 22L8 20L10 20L10 21L9 21L9 22L10 22L10 21L11 21L11 19L9 19L9 15ZM10 15L10 16L11 16L11 15ZM28 15L28 16L29 16L29 15ZM31 16L31 17L32 17L32 16ZM38 16L38 17L39 17L39 16ZM5 17L5 19L6 19L6 20L8 20L8 19L6 19L6 18L7 18L7 17ZM16 18L16 19L17 19L17 18ZM41 18L41 19L43 19L43 18ZM31 20L31 21L32 21L32 20ZM49 20L49 21L50 21L50 20ZM47 21L47 22L46 22L46 23L47 23L47 24L48 24L48 23L47 23L47 22L48 22L48 21ZM5 25L5 28L8 28L8 25ZM25 25L25 28L28 28L28 25ZM43 25L43 26L44 26L44 25ZM45 25L45 28L48 28L48 25ZM6 26L6 27L7 27L7 26ZM26 26L26 27L27 27L27 26ZM46 26L46 27L47 27L47 26ZM37 27L37 28L35 28L35 29L37 29L37 30L38 30L38 31L37 31L37 32L36 32L36 30L34 30L34 32L33 32L33 33L32 33L32 32L30 32L30 33L29 33L29 32L28 32L28 33L27 33L27 34L30 34L30 35L29 35L29 36L30 36L30 37L29 37L29 38L28 38L28 39L27 39L27 38L25 38L25 39L26 39L26 40L29 40L29 41L30 41L30 42L31 42L31 41L32 41L32 43L33 43L33 44L35 44L35 45L32 45L32 46L33 46L33 47L34 47L34 46L35 46L35 45L38 45L38 46L37 46L37 47L38 47L38 49L39 49L39 48L40 48L40 47L39 47L39 46L40 46L40 45L38 45L38 43L37 43L37 42L38 42L38 41L40 41L40 39L44 39L44 36L45 36L45 37L46 37L46 35L45 35L45 34L44 34L44 36L42 36L42 35L43 35L43 33L42 33L42 32L43 32L43 30L44 30L44 29L40 29L40 30L38 30L38 29L39 29L39 28L38 28L38 27ZM37 28L37 29L38 29L38 28ZM0 29L0 32L1 32L1 29ZM23 30L23 31L22 31L22 34L21 34L21 33L20 33L20 34L21 34L21 35L23 35L23 36L22 36L22 37L23 37L23 38L24 38L24 37L25 37L25 36L24 36L24 35L25 35L25 34L24 34L24 35L23 35L23 33L26 33L26 32L23 32L23 31L24 31L24 30ZM46 30L46 31L44 31L44 32L47 32L47 30ZM50 30L50 31L51 31L51 30ZM38 31L38 32L37 32L37 33L41 33L41 32L42 32L42 31L41 31L41 32L40 32L40 31ZM35 32L35 33L36 33L36 32ZM6 33L6 34L7 34L7 33ZM9 33L9 34L8 34L8 35L2 35L2 36L1 36L1 37L3 37L3 38L2 38L2 39L1 39L1 40L2 40L2 43L3 43L3 41L4 41L4 42L5 42L5 41L6 41L6 42L7 42L7 41L6 41L6 40L7 40L7 39L6 39L6 38L7 38L7 37L6 37L6 36L8 36L8 35L9 35L9 34L10 34L10 33ZM31 33L31 34L32 34L32 33ZM12 34L12 35L13 35L13 34ZM37 34L37 35L38 35L38 36L37 36L37 37L38 37L38 38L36 38L36 39L30 39L30 40L32 40L32 41L33 41L33 40L34 40L34 43L35 43L35 44L37 44L37 43L36 43L36 42L35 42L35 40L36 40L36 39L37 39L37 40L38 40L38 39L40 39L40 37L39 37L39 35L38 35L38 34ZM40 34L40 35L41 35L41 34ZM26 35L26 37L28 37L28 35ZM30 35L30 36L31 36L31 35ZM33 35L33 36L34 36L34 38L35 38L35 37L36 37L36 36L35 36L35 35ZM48 35L48 37L49 37L49 38L50 38L50 37L49 37L49 35ZM3 36L3 37L4 37L4 36ZM18 36L18 37L19 37L19 36ZM23 36L23 37L24 37L24 36ZM41 36L41 37L42 37L42 36ZM5 37L5 38L6 38L6 37ZM13 37L13 38L12 38L12 40L16 40L16 39L18 39L18 38L16 38L16 39L13 39L13 38L14 38L14 37ZM32 37L32 38L33 38L33 37ZM3 39L3 40L4 40L4 39ZM52 39L52 40L53 40L53 39ZM17 40L17 41L18 41L18 40ZM13 41L13 42L12 42L12 45L14 45L14 44L13 44L13 42L14 42L14 43L15 43L15 42L14 42L14 41ZM16 42L16 43L18 43L18 42ZM39 42L39 43L40 43L40 42ZM43 42L43 43L44 43L44 42ZM6 44L6 45L7 45L7 44ZM42 44L42 45L44 45L44 44ZM17 45L17 47L18 47L18 45ZM25 45L25 48L28 48L28 45ZM45 45L45 48L48 48L48 45ZM23 46L23 47L24 47L24 46ZM26 46L26 47L27 47L27 46ZM46 46L46 47L47 47L47 46ZM14 47L14 49L15 49L15 48L16 48L16 47ZM20 48L20 49L21 49L21 48ZM24 49L24 50L25 50L25 49ZM19 50L19 51L20 51L20 50ZM52 50L52 52L53 52L53 50ZM23 51L23 52L26 52L26 51ZM0 0L0 7L7 7L7 0ZM1 1L1 6L6 6L6 1ZM2 2L2 5L5 5L5 2ZM46 0L46 7L53 7L53 0ZM47 1L47 6L52 6L52 1ZM48 2L48 5L51 5L51 2ZM0 46L0 53L7 53L7 46ZM1 47L1 52L6 52L6 47ZM2 48L2 51L5 51L5 48Z" fill="#000000"/></g></g></svg>
