<?xml version="1.0" encoding="UTF-8"?>
<svg xmlns="http://www.w3.org/2000/svg" version="1.1" width="356" height="356" viewBox="0 0 356 356"><rect x="0" y="0" width="356" height="356" fill="#ffffff"/><g transform="scale(6.717)"><g transform="translate(0,0)"><path fill-rule="evenodd" d="M8 0L8 4L9 4L9 5L8 5L8 7L9 7L9 6L10 6L10 7L11 7L11 8L10 8L10 9L11 9L11 12L10 12L10 11L9 11L9 9L8 9L8 10L5 10L5 9L7 9L7 8L4 8L4 11L5 11L5 12L2 12L2 11L0 11L0 13L1 13L1 14L0 14L0 16L1 16L1 14L2 14L2 13L5 13L5 14L3 14L3 15L2 15L2 17L3 17L3 18L4 18L4 19L3 19L3 20L2 20L2 19L1 19L1 17L0 17L0 21L3 21L3 20L4 20L4 21L5 21L5 18L6 18L6 19L7 19L7 20L6 20L6 21L7 21L7 20L8 20L8 22L5 22L5 23L4 23L4 22L3 22L3 24L2 24L2 22L0 22L0 24L2 24L2 25L0 25L0 27L1 27L1 26L2 26L2 27L4 27L4 29L7 29L7 30L5 30L5 31L4 31L4 32L6 32L6 33L8 33L8 34L5 34L5 33L4 33L4 38L6 38L6 39L4 39L4 40L3 40L3 39L1 39L1 38L3 38L3 34L2 34L2 33L3 33L3 30L2 30L2 29L3 29L3 28L0 28L0 29L1 29L1 30L2 30L2 32L1 32L1 31L0 31L0 33L1 33L1 34L0 34L0 35L1 35L1 36L0 36L0 43L1 43L1 44L3 44L3 45L4 45L4 44L3 44L3 43L8 43L8 42L9 42L9 43L10 43L10 44L9 44L9 45L8 45L8 44L6 44L6 45L8 45L8 46L9 46L9 47L8 47L8 49L9 49L9 51L8 51L8 53L10 53L10 46L9 46L9 45L10 45L10 44L11 44L11 49L12 49L12 50L11 50L11 51L12 51L12 50L13 50L13 49L14 49L14 50L15 50L15 49L16 49L16 45L18 45L18 47L17 47L17 49L18 49L18 50L16 50L16 51L15 51L15 52L16 52L16 53L19 53L19 52L20 52L20 53L22 53L22 52L21 52L21 51L26 51L26 50L27 50L27 49L28 49L28 50L29 50L29 51L30 51L30 50L32 50L32 51L34 51L34 52L35 52L35 53L38 53L38 52L39 52L39 53L40 53L40 52L42 52L42 51L40 51L40 50L43 50L43 52L44 52L44 50L45 50L45 51L46 51L46 52L45 52L45 53L46 53L46 52L48 52L48 53L52 53L52 52L53 52L53 51L51 51L51 49L49 49L49 48L50 48L50 47L51 47L51 48L52 48L52 49L53 49L53 48L52 48L52 47L53 47L53 46L52 46L52 45L53 45L53 42L52 42L52 45L51 45L51 46L50 46L50 45L49 45L49 43L51 43L51 41L52 41L52 40L53 40L53 34L52 34L52 35L51 35L51 34L50 34L50 33L49 33L49 32L50 32L50 30L51 30L51 29L50 29L50 27L51 27L51 26L50 26L50 22L49 22L49 24L48 24L48 23L47 23L47 22L46 22L46 21L49 21L49 20L50 20L50 21L51 21L51 20L52 20L52 19L53 19L53 18L52 18L52 19L51 19L51 18L50 18L50 16L49 16L49 12L50 12L50 10L52 10L52 11L53 11L53 10L52 10L52 9L53 9L53 8L49 8L49 12L47 12L47 13L48 13L48 14L47 14L47 15L48 15L48 17L47 17L47 20L46 20L46 11L47 11L47 10L46 10L46 9L45 9L45 6L44 6L44 10L45 10L45 13L44 13L44 14L43 14L43 12L44 12L44 11L43 11L43 12L41 12L41 13L40 13L40 11L42 11L42 10L43 10L43 8L41 8L41 9L40 9L40 7L41 7L41 6L42 6L42 7L43 7L43 3L44 3L44 4L45 4L45 3L44 3L44 1L43 1L43 0L38 0L38 1L37 1L37 0L35 0L35 1L34 1L34 0L32 0L32 1L31 1L31 0L27 0L27 1L26 1L26 2L25 2L25 3L24 3L24 1L25 1L25 0L23 0L23 1L22 1L22 2L23 2L23 3L22 3L22 4L21 4L21 2L20 2L20 1L19 1L19 0L18 0L18 1L17 1L17 2L16 2L16 1L15 1L15 0L14 0L14 2L12 2L12 1L11 1L11 0ZM28 1L28 3L27 3L27 2L26 2L26 4L29 4L29 2L31 2L31 1ZM32 1L32 6L31 6L31 7L30 7L30 5L29 5L29 7L30 7L30 8L31 8L31 10L29 10L29 11L28 11L28 9L27 9L27 10L26 10L26 16L25 16L25 9L24 9L24 5L23 5L23 4L22 4L22 5L21 5L21 7L22 7L22 8L21 8L21 9L23 9L23 10L24 10L24 11L23 11L23 12L22 12L22 11L21 11L21 10L20 10L20 11L17 11L17 10L16 10L16 11L15 11L15 10L14 10L14 12L15 12L15 13L13 13L13 15L12 15L12 16L11 16L11 15L10 15L10 14L9 14L9 12L7 12L7 11L6 11L6 12L7 12L7 13L6 13L6 14L5 14L5 15L4 15L4 16L3 16L3 17L4 17L4 18L5 18L5 16L8 16L8 17L9 17L9 16L10 16L10 18L9 18L9 19L11 19L11 18L12 18L12 19L13 19L13 20L10 20L10 21L12 21L12 22L10 22L10 23L8 23L8 24L9 24L9 25L10 25L10 24L11 24L11 26L9 26L9 30L7 30L7 31L6 31L6 32L9 32L9 31L10 31L10 30L13 30L13 31L14 31L14 32L15 32L15 31L16 31L16 33L15 33L15 35L16 35L16 34L17 34L17 35L20 35L20 34L21 34L21 36L19 36L19 37L16 37L16 36L15 36L15 37L14 37L14 35L13 35L13 34L14 34L14 33L13 33L13 32L12 32L12 31L11 31L11 33L9 33L9 36L11 36L11 37L10 37L10 39L9 39L9 38L8 38L8 35L5 35L5 37L6 37L6 38L7 38L7 39L6 39L6 40L5 40L5 41L3 41L3 42L2 42L2 43L3 43L3 42L5 42L5 41L6 41L6 42L7 42L7 41L6 41L6 40L7 40L7 39L9 39L9 40L10 40L10 41L9 41L9 42L10 42L10 41L11 41L11 42L12 42L12 41L11 41L11 40L10 40L10 39L11 39L11 38L12 38L12 36L11 36L11 33L12 33L12 35L13 35L13 37L14 37L14 38L15 38L15 40L14 40L14 39L12 39L12 40L13 40L13 41L18 41L18 40L19 40L19 41L20 41L20 40L21 40L21 39L22 39L22 40L23 40L23 41L21 41L21 42L20 42L20 43L19 43L19 46L20 46L20 47L19 47L19 48L18 48L18 49L19 49L19 51L17 51L17 52L19 52L19 51L20 51L20 50L21 50L21 49L22 49L22 50L23 50L23 49L24 49L24 48L22 48L22 47L21 47L21 46L20 46L20 44L21 44L21 45L24 45L24 44L25 44L25 43L26 43L26 42L28 42L28 43L27 43L27 44L28 44L28 43L29 43L29 44L30 44L30 45L32 45L32 46L30 46L30 47L29 47L29 49L30 49L30 48L31 48L31 49L32 49L32 48L33 48L33 49L34 49L34 50L35 50L35 51L36 51L36 52L38 52L38 51L39 51L39 52L40 52L40 51L39 51L39 50L40 50L40 49L43 49L43 48L40 48L40 47L42 47L42 45L41 45L41 43L46 43L46 42L47 42L47 44L48 44L48 43L49 43L49 42L47 42L47 40L49 40L49 38L48 38L48 39L46 39L46 38L47 38L47 37L49 37L49 35L50 35L50 40L52 40L52 38L51 38L51 35L50 35L50 34L49 34L49 35L48 35L48 34L47 34L47 33L48 33L48 32L47 32L47 33L46 33L46 32L45 32L45 33L46 33L46 34L47 34L47 35L45 35L45 36L44 36L44 38L45 38L45 40L44 40L44 39L43 39L43 38L42 38L42 40L41 40L41 38L40 38L40 37L41 37L41 36L42 36L42 37L43 37L43 35L44 35L44 33L43 33L43 35L42 35L42 33L41 33L41 32L42 32L42 31L46 31L46 29L44 29L44 30L41 30L41 29L43 29L43 28L44 28L44 27L43 27L43 26L44 26L44 25L43 25L43 22L44 22L44 23L46 23L46 24L47 24L47 23L46 23L46 22L44 22L44 21L43 21L43 22L42 22L42 23L39 23L39 24L38 24L38 20L37 20L37 18L38 18L38 19L39 19L39 18L40 18L40 17L43 17L43 19L42 19L42 18L41 18L41 20L40 20L40 22L41 22L41 21L42 21L42 20L44 20L44 19L45 19L45 18L44 18L44 16L43 16L43 15L42 15L42 13L41 13L41 14L40 14L40 13L39 13L39 11L40 11L40 9L39 9L39 7L40 7L40 3L39 3L39 2L40 2L40 1L38 1L38 2L37 2L37 1L35 1L35 3L36 3L36 4L37 4L37 3L38 3L38 4L39 4L39 5L36 5L36 6L35 6L35 4L34 4L34 3L33 3L33 1ZM41 1L41 2L42 2L42 3L41 3L41 5L42 5L42 3L43 3L43 2L42 2L42 1ZM11 2L11 3L10 3L10 4L11 4L11 5L10 5L10 6L11 6L11 7L12 7L12 6L11 6L11 5L13 5L13 8L11 8L11 9L12 9L12 11L13 11L13 9L18 9L18 8L19 8L19 9L20 9L20 4L19 4L19 3L18 3L18 2L17 2L17 3L13 3L13 4L11 4L11 3L12 3L12 2ZM36 2L36 3L37 3L37 2ZM33 4L33 6L32 6L32 9L33 9L33 10L31 10L31 12L30 12L30 13L29 13L29 12L28 12L28 11L27 11L27 12L28 12L28 13L29 13L29 14L28 14L28 16L26 16L26 18L25 18L25 16L24 16L24 18L20 18L20 19L18 19L18 18L19 18L19 17L21 17L21 15L22 15L22 16L23 16L23 15L22 15L22 14L24 14L24 13L20 13L20 12L16 12L16 13L15 13L15 14L16 14L16 15L17 15L17 17L18 17L18 18L16 18L16 19L14 19L14 20L13 20L13 21L15 21L15 22L13 22L13 23L14 23L14 24L16 24L16 21L17 21L17 23L18 23L18 22L19 22L19 23L20 23L20 25L19 25L19 24L18 24L18 25L13 25L13 24L12 24L12 23L11 23L11 24L12 24L12 25L13 25L13 26L15 26L15 27L16 27L16 26L19 26L19 27L18 27L18 28L16 28L16 29L15 29L15 28L14 28L14 29L13 29L13 28L12 28L12 26L11 26L11 28L10 28L10 29L13 29L13 30L16 30L16 31L17 31L17 33L18 33L18 34L19 34L19 33L21 33L21 34L22 34L22 36L21 36L21 37L19 37L19 38L21 38L21 37L22 37L22 36L25 36L25 33L23 33L23 34L22 34L22 33L21 33L21 32L19 32L19 30L21 30L21 31L22 31L22 32L26 32L26 33L27 33L27 31L25 31L25 29L26 29L26 30L28 30L28 36L29 36L29 35L30 35L30 36L31 36L31 35L34 35L34 33L35 33L35 35L36 35L36 36L35 36L35 38L34 38L34 36L32 36L32 37L33 37L33 38L32 38L32 41L30 41L30 38L31 38L31 37L27 37L27 35L26 35L26 37L25 37L25 39L26 39L26 37L27 37L27 38L28 38L28 40L29 40L29 41L28 41L28 42L29 42L29 43L30 43L30 42L31 42L31 43L32 43L32 45L33 45L33 48L34 48L34 49L35 49L35 46L36 46L36 45L38 45L38 46L37 46L37 47L36 47L36 49L38 49L38 50L39 50L39 49L40 49L40 48L39 48L39 47L40 47L40 43L41 43L41 42L43 42L43 41L44 41L44 40L42 40L42 41L40 41L40 38L39 38L39 37L40 37L40 36L41 36L41 35L40 35L40 36L39 36L39 34L40 34L40 33L39 33L39 31L37 31L37 30L35 30L35 31L36 31L36 33L35 33L35 32L34 32L34 29L33 29L33 28L32 28L32 27L33 27L33 26L34 26L34 28L35 28L35 29L37 29L37 28L38 28L38 30L40 30L40 31L41 31L41 30L40 30L40 29L39 29L39 25L40 25L40 24L39 24L39 25L38 25L38 24L34 24L34 25L33 25L33 23L34 23L34 21L33 21L33 20L32 20L32 19L34 19L34 20L35 20L35 22L36 22L36 23L37 23L37 20L35 20L35 19L36 19L36 18L37 18L37 16L35 16L35 17L36 17L36 18L35 18L35 19L34 19L34 15L35 15L35 14L34 14L34 13L36 13L36 14L37 14L37 12L36 12L36 9L37 9L37 8L36 8L36 7L37 7L37 6L36 6L36 7L35 7L35 6L34 6L34 4ZM16 5L16 7L15 7L15 6L14 6L14 8L17 8L17 5ZM18 5L18 7L19 7L19 5ZM22 5L22 7L23 7L23 5ZM25 5L25 8L28 8L28 5ZM26 6L26 7L27 7L27 6ZM33 6L33 7L34 7L34 6ZM38 6L38 7L39 7L39 6ZM0 8L0 9L2 9L2 10L3 10L3 9L2 9L2 8ZM47 8L47 9L48 9L48 8ZM34 9L34 10L35 10L35 9ZM38 9L38 10L37 10L37 11L39 11L39 9ZM34 11L34 12L33 12L33 13L34 13L34 12L35 12L35 11ZM1 12L1 13L2 13L2 12ZM11 12L11 13L12 13L12 12ZM31 12L31 14L29 14L29 16L28 16L28 18L26 18L26 20L25 20L25 18L24 18L24 19L22 19L22 22L20 22L20 21L19 21L19 22L20 22L20 23L22 23L22 24L25 24L25 22L26 22L26 20L28 20L28 21L27 21L27 23L26 23L26 24L28 24L28 22L29 22L29 24L31 24L31 26L30 26L30 29L31 29L31 30L30 30L30 31L31 31L31 32L30 32L30 33L32 33L32 32L33 32L33 33L34 33L34 32L33 32L33 31L31 31L31 30L33 30L33 29L32 29L32 28L31 28L31 27L32 27L32 23L33 23L33 21L32 21L32 20L31 20L31 19L32 19L32 18L33 18L33 17L32 17L32 15L34 15L34 14L32 14L32 12ZM7 13L7 14L6 14L6 15L7 15L7 14L8 14L8 16L9 16L9 14L8 14L8 13ZM16 13L16 14L17 14L17 15L18 15L18 14L20 14L20 15L19 15L19 16L18 16L18 17L19 17L19 16L20 16L20 15L21 15L21 14L20 14L20 13ZM38 13L38 14L39 14L39 13ZM50 13L50 14L52 14L52 15L53 15L53 14L52 14L52 13ZM44 14L44 15L45 15L45 14ZM13 15L13 17L12 17L12 18L13 18L13 17L14 17L14 18L15 18L15 17L16 17L16 16L14 16L14 15ZM38 15L38 18L39 18L39 17L40 17L40 16L41 16L41 15L40 15L40 16L39 16L39 15ZM29 16L29 17L30 17L30 19L29 19L29 18L28 18L28 19L29 19L29 21L30 21L30 23L32 23L32 22L31 22L31 20L30 20L30 19L31 19L31 18L32 18L32 17L31 17L31 16ZM51 16L51 17L52 17L52 16ZM6 17L6 18L7 18L7 19L8 19L8 18L7 18L7 17ZM49 18L49 19L50 19L50 20L51 20L51 19L50 19L50 18ZM15 20L15 21L16 21L16 20ZM23 20L23 22L25 22L25 20ZM45 20L45 21L46 21L46 20ZM52 22L52 23L51 23L51 25L53 25L53 24L52 24L52 23L53 23L53 22ZM5 23L5 24L7 24L7 23ZM3 24L3 25L2 25L2 26L3 26L3 25L4 25L4 24ZM41 24L41 26L40 26L40 27L42 27L42 28L43 28L43 27L42 27L42 26L43 26L43 25L42 25L42 24ZM5 25L5 28L8 28L8 25ZM21 25L21 26L20 26L20 27L19 27L19 29L21 29L21 26L23 26L23 27L22 27L22 30L23 30L23 27L24 27L24 25ZM25 25L25 28L28 28L28 25ZM34 25L34 26L35 26L35 25ZM37 25L37 27L36 27L36 28L37 28L37 27L38 27L38 25ZM45 25L45 28L48 28L48 25ZM6 26L6 27L7 27L7 26ZM26 26L26 27L27 27L27 26ZM46 26L46 27L47 27L47 26ZM49 26L49 27L50 27L50 26ZM52 26L52 29L53 29L53 26ZM16 29L16 30L17 30L17 31L18 31L18 29ZM28 29L28 30L29 30L29 29ZM49 29L49 30L47 30L47 31L49 31L49 30L50 30L50 29ZM52 30L52 31L51 31L51 32L52 32L52 33L53 33L53 32L52 32L52 31L53 31L53 30ZM18 32L18 33L19 33L19 32ZM37 32L37 33L36 33L36 35L37 35L37 36L38 36L38 37L37 37L37 41L35 41L35 39L34 39L34 40L33 40L33 41L32 41L32 43L33 43L33 44L37 44L37 42L38 42L38 41L39 41L39 43L40 43L40 41L39 41L39 40L38 40L38 37L39 37L39 36L38 36L38 32ZM1 36L1 37L2 37L2 36ZM6 36L6 37L7 37L7 36ZM46 36L46 37L45 37L45 38L46 38L46 37L47 37L47 36ZM15 37L15 38L16 38L16 37ZM17 38L17 39L18 39L18 38ZM23 38L23 39L24 39L24 38ZM19 39L19 40L20 40L20 39ZM1 40L1 41L2 41L2 40ZM24 40L24 41L25 41L25 40ZM26 40L26 41L27 41L27 40ZM45 40L45 42L46 42L46 40ZM33 41L33 43L34 43L34 41ZM13 42L13 43L14 43L14 42ZM16 42L16 43L15 43L15 45L16 45L16 44L17 44L17 42ZM21 42L21 44L22 44L22 42ZM23 42L23 43L24 43L24 42ZM35 42L35 43L36 43L36 42ZM11 43L11 44L12 44L12 43ZM13 44L13 46L14 46L14 44ZM25 45L25 48L28 48L28 45ZM34 45L34 46L35 46L35 45ZM43 45L43 47L44 47L44 45ZM45 45L45 48L48 48L48 45ZM23 46L23 47L24 47L24 46ZM26 46L26 47L27 47L27 46ZM38 46L38 47L37 47L37 48L38 48L38 47L39 47L39 46ZM46 46L46 47L47 47L47 46ZM49 46L49 47L50 47L50 46ZM51 46L51 47L52 47L52 46ZM12 47L12 48L14 48L14 49L15 49L15 47ZM31 47L31 48L32 48L32 47ZM19 48L19 49L21 49L21 48ZM25 49L25 50L26 50L26 49ZM46 49L46 51L48 51L48 52L49 52L49 51L50 51L50 52L51 52L51 51L50 51L50 50L49 50L49 49ZM36 50L36 51L37 51L37 50ZM27 51L27 53L28 53L28 51ZM11 52L11 53L14 53L14 52ZM23 52L23 53L25 53L25 52ZM32 52L32 53L33 53L33 52ZM0 0L0 7L7 7L7 0ZM1 1L1 6L6 6L6 1ZM2 2L2 5L5 5L5 2ZM46 0L46 7L53 7L53 0ZM47 1L47 6L52 6L52 1ZM48 2L48 5L51 5L51 2ZM0 46L0 53L7 53L7 46ZM1 47L1 52L6 52L6 47ZM2 48L2 51L5 51L5 48Z" fill="#000000"/></g></g></svg>
