<?xml version="1.0" encoding="UTF-8"?>
<svg xmlns="http://www.w3.org/2000/svg" version="1.1" width="356" height="356" viewBox="0 0 356 356"><rect x="0" y="0" width="356" height="356" fill="#ffffff"/><g transform="scale(6.717)"><g transform="translate(0,0)"><path fill-rule="evenodd" d="M11 0L11 2L10 2L10 3L11 3L11 2L12 2L12 3L14 3L14 2L15 2L15 3L16 3L16 4L13 4L13 5L12 5L12 4L9 4L9 3L8 3L8 4L9 4L9 5L8 5L8 7L9 7L9 5L10 5L10 7L11 7L11 6L12 6L12 8L13 8L13 9L16 9L16 10L15 10L15 11L16 11L16 12L15 12L15 13L13 13L13 12L14 12L14 10L11 10L11 9L10 9L10 11L13 11L13 12L9 12L9 13L7 13L7 12L6 12L6 13L7 13L7 14L6 14L6 15L5 15L5 14L4 14L4 13L5 13L5 12L3 12L3 13L2 13L2 14L1 14L1 13L0 13L0 14L1 14L1 15L0 15L0 18L3 18L3 19L2 19L2 20L1 20L1 22L0 22L0 23L3 23L3 24L4 24L4 25L2 25L2 28L1 28L1 26L0 26L0 29L1 29L1 30L0 30L0 32L1 32L1 33L0 33L0 38L1 38L1 37L2 37L2 38L3 38L3 37L4 37L4 36L5 36L5 35L7 35L7 36L6 36L6 37L5 37L5 42L3 42L3 43L2 43L2 42L0 42L0 43L1 43L1 44L3 44L3 45L4 45L4 44L3 44L3 43L7 43L7 44L6 44L6 45L8 45L8 47L9 47L9 48L8 48L8 53L10 53L10 52L12 52L12 53L19 53L19 52L20 52L20 53L21 53L21 52L23 52L23 53L25 53L25 52L26 52L26 51L25 51L25 52L23 52L23 51L24 51L24 49L25 49L25 50L26 50L26 49L27 49L27 50L28 50L28 51L27 51L27 52L31 52L31 53L32 53L32 52L31 52L31 49L32 49L32 47L33 47L33 49L35 49L35 51L34 51L34 50L32 50L32 51L33 51L33 53L38 53L38 52L40 52L40 51L41 51L41 50L43 50L43 51L42 51L42 52L43 52L43 53L47 53L47 52L44 52L44 49L45 49L45 51L48 51L48 53L50 53L50 51L49 51L49 50L47 50L47 49L51 49L51 50L52 50L52 51L51 51L51 52L52 52L52 51L53 51L53 50L52 50L52 49L53 49L53 47L51 47L51 46L52 46L52 45L53 45L53 44L46 44L46 43L43 43L43 42L46 42L46 41L47 41L47 42L49 42L49 43L50 43L50 42L52 42L52 41L50 41L50 42L49 42L49 40L50 40L50 38L51 38L51 37L50 37L50 35L51 35L51 36L52 36L52 38L53 38L53 36L52 36L52 35L51 35L51 34L52 34L52 33L53 33L53 32L50 32L50 27L51 27L51 26L52 26L52 25L53 25L53 24L52 24L52 25L51 25L51 24L50 24L50 22L51 22L51 23L52 23L52 22L53 22L53 21L52 21L52 20L53 20L53 19L51 19L51 21L49 21L49 20L50 20L50 17L51 17L51 18L52 18L52 16L53 16L53 15L51 15L51 16L50 16L50 17L49 17L49 16L48 16L48 15L47 15L47 14L48 14L48 13L49 13L49 14L50 14L50 13L51 13L51 14L52 14L52 12L53 12L53 11L52 11L52 12L49 12L49 11L50 11L50 8L49 8L49 10L47 10L47 11L46 11L46 10L44 10L44 9L43 9L43 8L45 8L45 9L46 9L46 8L45 8L45 6L44 6L44 7L43 7L43 3L44 3L44 4L45 4L45 3L44 3L44 1L43 1L43 0L42 0L42 1L41 1L41 0L39 0L39 1L40 1L40 2L43 2L43 3L41 3L41 4L40 4L40 5L41 5L41 6L40 6L40 7L39 7L39 5L35 5L35 6L34 6L34 5L33 5L33 6L32 6L32 8L31 8L31 5L32 5L32 3L30 3L30 2L31 2L31 1L32 1L32 2L33 2L33 3L35 3L35 4L38 4L38 3L35 3L35 1L38 1L38 0L35 0L35 1L34 1L34 2L33 2L33 1L32 1L32 0L29 0L29 2L27 2L27 3L29 3L29 4L25 4L25 3L26 3L26 1L28 1L28 0L26 0L26 1L25 1L25 0L23 0L23 2L24 2L24 3L23 3L23 4L21 4L21 1L22 1L22 0L18 0L18 1L17 1L17 3L16 3L16 2L15 2L15 1L16 1L16 0L15 0L15 1L14 1L14 0ZM8 1L8 2L9 2L9 1ZM12 1L12 2L14 2L14 1ZM19 1L19 2L18 2L18 3L19 3L19 2L20 2L20 1ZM24 1L24 2L25 2L25 1ZM16 4L16 5L17 5L17 7L16 7L16 6L15 6L15 7L16 7L16 9L18 9L18 8L17 8L17 7L18 7L18 5L19 5L19 4ZM20 4L20 6L19 6L19 8L20 8L20 9L19 9L19 10L17 10L17 11L19 11L19 13L15 13L15 14L13 14L13 13L11 13L11 14L13 14L13 15L12 15L12 16L11 16L11 15L10 15L10 14L9 14L9 15L10 15L10 16L8 16L8 15L6 15L6 16L8 16L8 18L9 18L9 19L8 19L8 21L9 21L9 22L10 22L10 23L11 23L11 25L10 25L10 26L9 26L9 30L8 30L8 29L5 29L5 30L4 30L4 29L3 29L3 28L4 28L4 26L3 26L3 28L2 28L2 29L3 29L3 30L4 30L4 31L3 31L3 33L1 33L1 34L3 34L3 36L2 36L2 37L3 37L3 36L4 36L4 34L5 34L5 32L7 32L7 31L9 31L9 32L8 32L8 33L9 33L9 34L8 34L8 36L9 36L9 37L10 37L10 38L9 38L9 39L8 39L8 37L6 37L6 38L7 38L7 39L6 39L6 40L7 40L7 39L8 39L8 41L6 41L6 42L8 42L8 43L9 43L9 44L8 44L8 45L9 45L9 47L10 47L10 46L13 46L13 45L12 45L12 44L14 44L14 42L16 42L16 41L18 41L18 40L16 40L16 38L17 38L17 39L18 39L18 38L19 38L19 40L20 40L20 41L19 41L19 42L17 42L17 44L22 44L22 45L20 45L20 46L18 46L18 45L14 45L14 47L15 47L15 46L18 46L18 47L17 47L17 48L13 48L13 47L11 47L11 48L10 48L10 49L9 49L9 50L11 50L11 48L13 48L13 50L12 50L12 51L13 51L13 52L14 52L14 51L13 51L13 50L15 50L15 51L16 51L16 52L17 52L17 51L20 51L20 50L18 50L18 49L21 49L21 50L22 50L22 51L23 51L23 49L24 49L24 48L23 48L23 47L24 47L24 44L29 44L29 45L30 45L30 44L29 44L29 43L31 43L31 42L32 42L32 43L33 43L33 42L35 42L35 40L37 40L37 39L38 39L38 42L39 42L39 43L40 43L40 42L41 42L41 43L42 43L42 44L43 44L43 45L44 45L44 44L43 44L43 43L42 43L42 42L41 42L41 41L42 41L42 40L43 40L43 41L44 41L44 39L46 39L46 40L45 40L45 41L46 41L46 40L47 40L47 41L48 41L48 40L47 40L47 39L48 39L48 38L45 38L45 37L49 37L49 38L50 38L50 37L49 37L49 36L44 36L44 35L48 35L48 34L47 34L47 33L48 33L48 32L49 32L49 31L47 31L47 29L46 29L46 30L44 30L44 31L46 31L46 32L47 32L47 33L46 33L46 34L45 34L45 32L43 32L43 30L41 30L41 28L40 28L40 27L41 27L41 26L39 26L39 25L43 25L43 24L44 24L44 22L47 22L47 24L48 24L48 23L49 23L49 21L45 21L45 19L43 19L43 21L44 21L44 22L43 22L43 23L42 23L42 22L41 22L41 21L42 21L42 19L40 19L40 20L38 20L38 18L41 18L41 17L43 17L43 14L42 14L42 13L41 13L41 11L42 11L42 10L41 10L41 9L42 9L42 8L43 8L43 7L42 7L42 6L41 6L41 8L39 8L39 9L38 9L38 6L37 6L37 9L36 9L36 10L35 10L35 9L34 9L34 8L36 8L36 6L35 6L35 7L34 7L34 6L33 6L33 7L34 7L34 8L32 8L32 9L33 9L33 10L34 10L34 11L33 11L33 12L30 12L30 13L32 13L32 15L31 15L31 16L30 16L30 14L29 14L29 13L27 13L27 12L29 12L29 10L30 10L30 11L31 11L31 10L30 10L30 9L31 9L31 8L29 8L29 10L28 10L28 9L27 9L27 10L25 10L25 11L26 11L26 12L23 12L23 10L22 10L22 9L24 9L24 5L23 5L23 8L22 8L22 9L21 9L21 8L20 8L20 6L21 6L21 7L22 7L22 6L21 6L21 4ZM41 4L41 5L42 5L42 4ZM25 5L25 8L28 8L28 5ZM13 6L13 8L14 8L14 6ZM26 6L26 7L27 7L27 6ZM29 6L29 7L30 7L30 6ZM0 8L0 11L1 11L1 12L2 12L2 11L1 11L1 9L3 9L3 11L5 11L5 8ZM6 8L6 9L8 9L8 11L9 11L9 8ZM47 8L47 9L48 9L48 8ZM51 8L51 9L52 9L52 8ZM37 9L37 10L36 10L36 11L34 11L34 12L35 12L35 13L37 13L37 14L36 14L36 15L35 15L35 14L34 14L34 13L33 13L33 14L34 14L34 15L32 15L32 16L31 16L31 17L30 17L30 16L29 16L29 15L28 15L28 16L29 16L29 18L31 18L31 17L32 17L32 19L31 19L31 20L29 20L29 19L28 19L28 20L29 20L29 21L30 21L30 22L29 22L29 23L27 23L27 21L26 21L26 19L27 19L27 16L26 16L26 15L27 15L27 13L25 13L25 14L26 14L26 15L23 15L23 14L22 14L22 13L21 13L21 12L22 12L22 11L21 11L21 12L20 12L20 13L19 13L19 15L20 15L20 16L21 16L21 17L18 17L18 16L17 16L17 15L18 15L18 14L17 14L17 15L16 15L16 16L17 16L17 17L18 17L18 19L19 19L19 20L16 20L16 19L14 19L14 20L15 20L15 21L13 21L13 22L12 22L12 20L13 20L13 18L14 18L14 17L13 17L13 16L14 16L14 15L13 15L13 16L12 16L12 17L13 17L13 18L11 18L11 17L9 17L9 18L10 18L10 19L9 19L9 21L10 21L10 22L12 22L12 24L13 24L13 25L12 25L12 26L13 26L13 25L16 25L16 26L15 26L15 27L16 27L16 28L15 28L15 29L18 29L18 30L17 30L17 31L15 31L15 32L17 32L17 33L18 33L18 34L17 34L17 35L19 35L19 36L16 36L16 35L15 35L15 34L16 34L16 33L15 33L15 34L14 34L14 33L13 33L13 32L14 32L14 31L12 31L12 34L14 34L14 35L13 35L13 38L10 38L10 39L9 39L9 41L10 41L10 42L11 42L11 44L12 44L12 43L13 43L13 41L16 41L16 40L15 40L15 37L21 37L21 35L22 35L22 34L21 34L21 33L22 33L22 32L21 32L21 33L18 33L18 32L17 32L17 31L18 31L18 30L19 30L19 29L22 29L22 30L21 30L21 31L22 31L22 30L25 30L25 31L26 31L26 32L24 32L24 33L23 33L23 34L24 34L24 35L23 35L23 37L24 37L24 36L25 36L25 37L26 37L26 38L27 38L27 39L26 39L26 40L25 40L25 42L24 42L24 41L23 41L23 38L22 38L22 39L21 39L21 38L20 38L20 40L22 40L22 41L21 41L21 43L22 43L22 41L23 41L23 42L24 42L24 43L25 43L25 42L26 42L26 43L29 43L29 42L31 42L31 41L32 41L32 42L33 42L33 41L34 41L34 40L35 40L35 39L36 39L36 38L38 38L38 39L39 39L39 40L40 40L40 39L41 39L41 38L42 38L42 39L44 39L44 37L39 37L39 36L40 36L40 35L39 35L39 36L38 36L38 37L37 37L37 36L36 36L36 35L37 35L37 34L38 34L38 33L39 33L39 31L38 31L38 28L39 28L39 26L38 26L38 25L39 25L39 24L38 24L38 25L37 25L37 23L36 23L36 22L38 22L38 23L41 23L41 22L38 22L38 20L36 20L36 19L37 19L37 18L38 18L38 17L39 17L39 16L42 16L42 14L41 14L41 13L40 13L40 15L39 15L39 16L37 16L37 15L38 15L38 13L39 13L39 12L37 12L37 11L39 11L39 10L38 10L38 9ZM6 10L6 11L7 11L7 10ZM19 10L19 11L20 11L20 10ZM44 11L44 12L43 12L43 13L44 13L44 15L45 15L45 14L47 14L47 13L44 13L44 12L46 12L46 11ZM47 11L47 12L48 12L48 11ZM20 13L20 15L21 15L21 16L22 16L22 19L23 19L23 18L24 18L24 17L25 17L25 16L24 16L24 17L23 17L23 15L21 15L21 13ZM2 14L2 16L1 16L1 17L3 17L3 18L4 18L4 19L3 19L3 20L5 20L5 15L4 15L4 14ZM3 16L3 17L4 17L4 16ZM32 16L32 17L33 17L33 18L35 18L35 19L34 19L34 20L35 20L35 21L33 21L33 19L32 19L32 21L31 21L31 22L30 22L30 24L29 24L29 25L30 25L30 24L32 24L32 26L30 26L30 27L32 27L32 26L33 26L33 28L32 28L32 29L31 29L31 30L32 30L32 29L33 29L33 31L31 31L31 32L32 32L32 33L31 33L31 34L35 34L35 35L36 35L36 34L37 34L37 33L38 33L38 31L36 31L36 32L35 32L35 33L33 33L33 31L34 31L34 30L36 30L36 29L35 29L35 28L36 28L36 27L38 27L38 26L35 26L35 25L33 25L33 24L34 24L34 23L35 23L35 21L36 21L36 20L35 20L35 19L36 19L36 17L35 17L35 16ZM44 16L44 18L47 18L47 20L49 20L49 18L47 18L47 17L48 17L48 16ZM6 17L6 18L7 18L7 17ZM15 17L15 18L16 18L16 17ZM19 18L19 19L20 19L20 18ZM25 18L25 19L26 19L26 18ZM6 19L6 20L7 20L7 19ZM10 19L10 21L11 21L11 19ZM19 20L19 21L20 21L20 23L19 23L19 24L20 24L20 25L19 25L19 26L20 26L20 27L18 27L18 28L21 28L21 25L22 25L22 26L23 26L23 27L24 27L24 24L23 24L23 25L22 25L22 24L20 24L20 23L22 23L22 22L23 22L23 21L24 21L24 20ZM2 21L2 22L4 22L4 21ZM6 21L6 22L5 22L5 23L6 23L6 24L8 24L8 23L6 23L6 22L7 22L7 21ZM15 21L15 22L17 22L17 23L18 23L18 22L17 22L17 21ZM25 21L25 23L26 23L26 24L27 24L27 23L26 23L26 21ZM32 21L32 24L33 24L33 23L34 23L34 22L33 22L33 21ZM51 21L51 22L52 22L52 21ZM13 23L13 24L14 24L14 23ZM45 23L45 24L46 24L46 23ZM0 24L0 25L1 25L1 24ZM16 24L16 25L18 25L18 24ZM49 24L49 25L50 25L50 24ZM5 25L5 28L8 28L8 25ZM25 25L25 28L28 28L28 25ZM45 25L45 28L48 28L48 25ZM6 26L6 27L7 27L7 26ZM26 26L26 27L27 27L27 26ZM46 26L46 27L47 27L47 26ZM49 26L49 27L50 27L50 26ZM10 27L10 30L9 30L9 31L10 31L10 30L11 30L11 27ZM34 27L34 28L35 28L35 27ZM42 27L42 28L43 28L43 29L44 29L44 27ZM12 28L12 29L13 29L13 30L14 30L14 28ZM22 28L22 29L23 29L23 28ZM51 28L51 30L52 30L52 29L53 29L53 28ZM25 29L25 30L26 30L26 31L27 31L27 32L26 32L26 33L24 33L24 34L26 34L26 35L25 35L25 36L26 36L26 37L31 37L31 36L32 36L32 38L31 38L31 39L29 39L29 38L28 38L28 39L27 39L27 40L26 40L26 42L28 42L28 41L31 41L31 40L32 40L32 41L33 41L33 40L32 40L32 38L33 38L33 39L35 39L35 37L36 37L36 36L35 36L35 37L33 37L33 35L29 35L29 34L28 34L28 32L30 32L30 31L29 31L29 29ZM1 30L1 32L2 32L2 30ZM6 30L6 31L7 31L7 30ZM27 30L27 31L28 31L28 30ZM40 30L40 31L41 31L41 30ZM4 31L4 32L5 32L5 31ZM10 32L10 35L9 35L9 36L10 36L10 37L12 37L12 36L10 36L10 35L11 35L11 32ZM36 32L36 33L35 33L35 34L36 34L36 33L37 33L37 32ZM41 32L41 33L40 33L40 34L41 34L41 35L44 35L44 33L43 33L43 32ZM6 33L6 34L7 34L7 33ZM50 33L50 34L51 34L51 33ZM19 34L19 35L20 35L20 34ZM14 35L14 37L15 37L15 35ZM26 35L26 36L27 36L27 35ZM38 37L38 38L39 38L39 37ZM24 38L24 39L25 39L25 38ZM0 39L0 41L1 41L1 39ZM10 39L10 41L11 41L11 42L12 42L12 41L13 41L13 40L14 40L14 39ZM2 40L2 41L4 41L4 40ZM11 40L11 41L12 41L12 40ZM36 41L36 42L37 42L37 41ZM19 42L19 43L20 43L20 42ZM15 43L15 44L16 44L16 43ZM35 43L35 44L32 44L32 46L31 46L31 47L30 47L30 46L29 46L29 48L30 48L30 49L31 49L31 47L32 47L32 46L36 46L36 45L35 45L35 44L36 44L36 43ZM37 43L37 44L38 44L38 47L37 47L37 49L38 49L38 50L36 50L36 51L37 51L37 52L38 52L38 51L40 51L40 50L41 50L41 49L44 49L44 47L43 47L43 46L42 46L42 45L41 45L41 44L38 44L38 43ZM9 44L9 45L10 45L10 44ZM22 45L22 46L21 46L21 47L22 47L22 46L23 46L23 45ZM25 45L25 48L28 48L28 45ZM45 45L45 48L48 48L48 45ZM49 45L49 47L50 47L50 48L51 48L51 47L50 47L50 45ZM26 46L26 47L27 47L27 46ZM40 46L40 47L38 47L38 48L40 48L40 47L42 47L42 48L43 48L43 47L42 47L42 46ZM46 46L46 47L47 47L47 46ZM19 47L19 48L20 48L20 47ZM34 47L34 48L36 48L36 47ZM17 48L17 49L18 49L18 48ZM21 48L21 49L22 49L22 48ZM15 49L15 50L16 50L16 49ZM39 49L39 50L40 50L40 49ZM29 50L29 51L30 51L30 50ZM0 0L0 7L7 7L7 0ZM1 1L1 6L6 6L6 1ZM2 2L2 5L5 5L5 2ZM46 0L46 7L53 7L53 0ZM47 1L47 6L52 6L52 1ZM48 2L48 5L51 5L51 2ZM0 46L0 53L7 53L7 46ZM1 47L1 52L6 52L6 47ZM2 48L2 51L5 51L5 48Z" fill="#000000"/></g></g></svg>
