<?xml version="1.0" encoding="UTF-8"?>
<svg xmlns="http://www.w3.org/2000/svg" version="1.1" width="356" height="356" viewBox="0 0 356 356"><rect x="0" y="0" width="356" height="356" fill="#ffffff"/><g transform="scale(6.717)"><g transform="translate(0,0)"><path fill-rule="evenodd" d="M8 0L8 4L9 4L9 5L8 5L8 7L9 7L9 5L10 5L10 7L11 7L11 8L10 8L10 10L9 10L9 11L10 11L10 13L9 13L9 12L8 12L8 10L5 10L5 11L4 11L4 9L7 9L7 8L4 8L4 9L3 9L3 10L2 10L2 12L1 12L1 13L0 13L0 14L1 14L1 15L4 15L4 16L2 16L2 20L1 20L1 21L2 21L2 22L1 22L1 24L0 24L0 28L1 28L1 27L2 27L2 26L1 26L1 24L2 24L2 23L3 23L3 21L2 21L2 20L3 20L3 19L4 19L4 20L5 20L5 18L6 18L6 19L8 19L8 20L9 20L9 21L11 21L11 20L12 20L12 21L15 21L15 24L14 24L14 23L13 23L13 22L11 22L11 23L13 23L13 25L14 25L14 26L15 26L15 25L16 25L16 21L17 21L17 22L18 22L18 23L17 23L17 25L18 25L18 26L19 26L19 25L21 25L21 23L22 23L22 24L23 24L23 23L25 23L25 24L24 24L24 25L23 25L23 27L24 27L24 29L25 29L25 31L26 31L26 33L25 33L25 32L22 32L22 31L21 31L21 32L20 32L20 33L19 33L19 32L18 32L18 33L13 33L13 34L15 34L15 35L16 35L16 34L19 34L19 35L17 35L17 36L16 36L16 37L15 37L15 36L14 36L14 38L16 38L16 37L19 37L19 38L18 38L18 39L17 39L17 41L18 41L18 42L16 42L16 43L15 43L15 44L14 44L14 43L13 43L13 41L14 41L14 42L15 42L15 41L16 41L16 40L14 40L14 39L13 39L13 36L12 36L12 35L11 35L11 38L10 38L10 39L11 39L11 38L12 38L12 39L13 39L13 40L12 40L12 41L11 41L11 40L9 40L9 39L8 39L8 36L9 36L9 37L10 37L10 35L8 35L8 34L6 34L6 33L7 33L7 32L9 32L9 34L11 34L11 33L12 33L12 32L11 32L11 31L10 31L10 30L8 30L8 31L7 31L7 30L6 30L6 29L9 29L9 28L11 28L11 29L12 29L12 27L10 27L10 26L9 26L9 25L11 25L11 24L9 24L9 23L10 23L10 22L9 22L9 23L8 23L8 22L6 22L6 21L7 21L7 20L6 20L6 21L5 21L5 22L6 22L6 23L4 23L4 24L3 24L3 27L4 27L4 28L2 28L2 29L1 29L1 30L0 30L0 31L1 31L1 32L3 32L3 33L2 33L2 34L3 34L3 33L4 33L4 31L2 31L2 29L3 29L3 30L6 30L6 31L7 31L7 32L5 32L5 34L4 34L4 35L5 35L5 34L6 34L6 35L8 35L8 36L6 36L6 37L4 37L4 36L3 36L3 35L2 35L2 36L1 36L1 37L0 37L0 38L1 38L1 39L0 39L0 40L1 40L1 39L2 39L2 41L0 41L0 43L1 43L1 44L3 44L3 45L4 45L4 44L3 44L3 43L7 43L7 42L6 42L6 41L8 41L8 44L6 44L6 45L8 45L8 46L10 46L10 45L11 45L11 47L8 47L8 49L9 49L9 50L11 50L11 51L12 51L12 50L15 50L15 51L14 51L14 53L15 53L15 51L16 51L16 50L17 50L17 51L20 51L20 50L21 50L21 49L23 49L23 50L22 50L22 51L21 51L21 52L20 52L20 53L22 53L22 52L23 52L23 53L25 53L25 52L26 52L26 51L27 51L27 53L28 53L28 50L27 50L27 49L29 49L29 51L31 51L31 52L30 52L30 53L31 53L31 52L32 52L32 53L34 53L34 51L35 51L35 50L34 50L34 49L38 49L38 50L37 50L37 51L38 51L38 52L35 52L35 53L39 53L39 51L38 51L38 50L39 50L39 49L40 49L40 48L41 48L41 51L44 51L44 50L45 50L45 49L46 49L46 50L47 50L47 49L49 49L49 50L50 50L50 51L49 51L49 52L48 52L48 51L46 51L46 53L47 53L47 52L48 52L48 53L50 53L50 51L51 51L51 53L52 53L52 52L53 52L53 51L51 51L51 50L50 50L50 49L49 49L49 48L50 48L50 47L51 47L51 48L52 48L52 49L53 49L53 48L52 48L52 47L53 47L53 44L52 44L52 43L53 43L53 42L52 42L52 43L51 43L51 42L50 42L50 41L53 41L53 38L52 38L52 40L50 40L50 35L51 35L51 37L53 37L53 34L52 34L52 35L51 35L51 34L50 34L50 33L49 33L49 32L50 32L50 30L52 30L52 32L51 32L51 33L52 33L52 32L53 32L53 26L52 26L52 29L51 29L51 28L50 28L50 22L49 22L49 24L48 24L48 23L47 23L47 24L44 24L44 23L46 23L46 21L47 21L47 22L48 22L48 21L50 21L50 19L51 19L51 20L52 20L52 19L53 19L53 18L52 18L52 19L51 19L51 17L53 17L53 16L52 16L52 15L53 15L53 14L52 14L52 15L51 15L51 17L50 17L50 16L49 16L49 15L48 15L48 14L49 14L49 13L50 13L50 14L51 14L51 12L50 12L50 11L48 11L48 12L46 12L46 11L47 11L47 10L46 10L46 9L45 9L45 6L44 6L44 8L43 8L43 9L42 9L42 8L41 8L41 6L42 6L42 7L43 7L43 3L44 3L44 4L45 4L45 3L44 3L44 1L43 1L43 0L40 0L40 1L39 1L39 0L38 0L38 1L37 1L37 0L35 0L35 1L34 1L34 0L32 0L32 1L31 1L31 0L27 0L27 1L26 1L26 0L23 0L23 1L22 1L22 2L21 2L21 0L13 0L13 1L14 1L14 3L15 3L15 1L16 1L16 2L18 2L18 3L19 3L19 4L20 4L20 8L19 8L19 6L18 6L18 5L16 5L16 7L15 7L15 5L12 5L12 3L13 3L13 2L12 2L12 0L11 0L11 3L10 3L10 4L9 4L9 0ZM19 1L19 3L21 3L21 4L22 4L22 5L21 5L21 8L22 8L22 9L19 9L19 8L18 8L18 9L17 9L17 8L16 8L16 9L15 9L15 10L14 10L14 9L11 9L11 10L10 10L10 11L11 11L11 13L13 13L13 14L11 14L11 18L13 18L13 17L18 17L18 16L19 16L19 17L20 17L20 15L21 15L21 14L20 14L20 13L21 13L21 12L20 12L20 13L16 13L16 12L15 12L15 11L16 11L16 10L18 10L18 9L19 9L19 11L17 11L17 12L19 12L19 11L20 11L20 10L23 10L23 11L22 11L22 13L24 13L24 15L23 15L23 14L22 14L22 16L21 16L21 17L23 17L23 16L25 16L25 13L24 13L24 12L25 12L25 11L26 11L26 16L27 16L27 17L28 17L28 18L26 18L26 17L24 17L24 18L25 18L25 19L22 19L22 23L23 23L23 21L25 21L25 22L27 22L27 23L26 23L26 24L28 24L28 20L30 20L30 21L31 21L31 22L29 22L29 25L31 25L31 26L30 26L30 28L29 28L29 29L27 29L27 33L26 33L26 35L25 35L25 36L23 36L23 35L22 35L22 34L25 34L25 33L21 33L21 34L20 34L20 35L19 35L19 37L24 37L24 38L25 38L25 39L24 39L24 41L23 41L23 40L22 40L22 39L21 39L21 41L19 41L19 40L20 40L20 38L19 38L19 40L18 40L18 41L19 41L19 43L20 43L20 42L21 42L21 44L19 44L19 46L18 46L18 45L16 45L16 44L15 44L15 45L16 45L16 48L15 48L15 49L18 49L18 48L19 48L19 49L20 49L20 45L24 45L24 44L22 44L22 42L24 42L24 43L25 43L25 44L26 44L26 43L27 43L27 44L28 44L28 42L29 42L29 41L32 41L32 43L31 43L31 42L30 42L30 43L29 43L29 44L30 44L30 43L31 43L31 46L29 46L29 47L31 47L31 46L32 46L32 48L31 48L31 49L32 49L32 48L33 48L33 49L34 49L34 48L33 48L33 47L34 47L34 46L35 46L35 45L34 45L34 46L33 46L33 45L32 45L32 44L33 44L33 41L34 41L34 44L37 44L37 46L38 46L38 44L39 44L39 43L38 43L38 44L37 44L37 43L36 43L36 41L35 41L35 39L36 39L36 40L37 40L37 38L38 38L38 40L39 40L39 39L41 39L41 36L42 36L42 35L41 35L41 36L40 36L40 38L38 38L38 37L39 37L39 35L40 35L40 34L39 34L39 35L38 35L38 36L37 36L37 34L38 34L38 33L39 33L39 32L40 32L40 33L41 33L41 32L40 32L40 30L41 30L41 29L42 29L42 28L43 28L43 29L44 29L44 24L43 24L43 23L42 23L42 21L41 21L41 20L43 20L43 22L44 22L44 21L46 21L46 20L49 20L49 19L50 19L50 18L49 18L49 19L47 19L47 17L48 17L48 15L46 15L46 14L47 14L47 13L46 13L46 12L45 12L45 11L44 11L44 9L43 9L43 10L42 10L42 11L41 11L41 12L40 12L40 11L39 11L39 10L38 10L38 9L36 9L36 11L35 11L35 12L34 12L34 14L33 14L33 15L34 15L34 22L33 22L33 25L34 25L34 26L33 26L33 27L32 27L32 23L31 23L31 22L32 22L32 18L33 18L33 17L32 17L32 15L31 15L31 14L32 14L32 12L33 12L33 11L31 11L31 10L33 10L33 9L32 9L32 5L36 5L36 4L37 4L37 5L38 5L38 4L39 4L39 7L38 7L38 6L37 6L37 7L36 7L36 6L35 6L35 7L36 7L36 8L37 8L37 7L38 7L38 8L39 8L39 7L40 7L40 3L39 3L39 1L38 1L38 3L37 3L37 1L35 1L35 2L36 2L36 3L35 3L35 4L34 4L34 3L32 3L32 2L33 2L33 1L32 1L32 2L31 2L31 3L30 3L30 1L27 1L27 2L26 2L26 1L23 1L23 2L26 2L26 3L27 3L27 4L28 4L28 3L27 3L27 2L29 2L29 3L30 3L30 4L31 4L31 3L32 3L32 5L31 5L31 8L30 8L30 6L29 6L29 9L27 9L27 10L26 10L26 9L24 9L24 10L23 10L23 7L24 7L24 5L23 5L23 4L22 4L22 3L21 3L21 2L20 2L20 1ZM40 1L40 2L42 2L42 3L41 3L41 5L42 5L42 3L43 3L43 2L42 2L42 1ZM24 3L24 4L25 4L25 3ZM11 5L11 7L12 7L12 8L13 8L13 7L14 7L14 8L15 8L15 7L14 7L14 6L13 6L13 7L12 7L12 5ZM25 5L25 8L28 8L28 5ZM17 6L17 7L18 7L18 6ZM22 6L22 7L23 7L23 6ZM26 6L26 7L27 7L27 6ZM33 6L33 7L34 7L34 6ZM0 8L0 10L1 10L1 9L2 9L2 8ZM40 8L40 9L41 9L41 8ZM47 8L47 9L48 9L48 8ZM49 8L49 9L50 9L50 10L52 10L52 11L53 11L53 10L52 10L52 9L53 9L53 8ZM29 9L29 10L28 10L28 11L29 11L29 12L31 12L31 11L30 11L30 10L31 10L31 9ZM34 9L34 10L35 10L35 9ZM3 11L3 14L5 14L5 15L6 15L6 16L8 16L8 18L10 18L10 16L8 16L8 15L10 15L10 14L8 14L8 12L7 12L7 11L6 11L6 12L7 12L7 13L5 13L5 12L4 12L4 11ZM12 11L12 12L13 12L13 13L15 13L15 14L13 14L13 15L12 15L12 16L13 16L13 15L14 15L14 16L15 16L15 14L16 14L16 15L18 15L18 14L16 14L16 13L15 13L15 12L13 12L13 11ZM37 11L37 12L35 12L35 14L34 14L34 15L35 15L35 14L36 14L36 15L37 15L37 16L35 16L35 17L36 17L36 18L35 18L35 22L34 22L34 23L37 23L37 22L36 22L36 21L38 21L38 22L39 22L39 21L40 21L40 22L41 22L41 21L40 21L40 19L41 19L41 18L42 18L42 19L43 19L43 15L42 15L42 14L43 14L43 12L42 12L42 13L41 13L41 15L40 15L40 14L39 14L39 13L40 13L40 12L39 12L39 11ZM27 12L27 13L28 13L28 15L27 15L27 16L28 16L28 17L29 17L29 18L28 18L28 19L27 19L27 20L28 20L28 19L30 19L30 18L32 18L32 17L30 17L30 16L28 16L28 15L29 15L29 14L31 14L31 13L28 13L28 12ZM38 12L38 13L37 13L37 15L38 15L38 17L37 17L37 18L36 18L36 20L38 20L38 19L39 19L39 18L38 18L38 17L39 17L39 16L40 16L40 18L41 18L41 16L42 16L42 15L41 15L41 16L40 16L40 15L38 15L38 13L39 13L39 12ZM44 12L44 14L46 14L46 13L45 13L45 12ZM6 14L6 15L8 15L8 14ZM19 14L19 15L20 15L20 14ZM44 15L44 18L45 18L45 20L46 20L46 15ZM4 16L4 18L5 18L5 16ZM6 17L6 18L7 18L7 17ZM0 18L0 19L1 19L1 18ZM14 18L14 20L15 20L15 21L16 21L16 20L17 20L17 18L16 18L16 19L15 19L15 18ZM18 18L18 19L19 19L19 20L21 20L21 18L20 18L20 19L19 19L19 18ZM37 18L37 19L38 19L38 18ZM10 19L10 20L11 20L11 19ZM12 19L12 20L13 20L13 19ZM25 19L25 21L26 21L26 19ZM19 21L19 22L20 22L20 23L19 23L19 24L18 24L18 25L19 25L19 24L20 24L20 23L21 23L21 22L20 22L20 21ZM52 22L52 23L53 23L53 22ZM6 23L6 24L7 24L7 23ZM30 23L30 24L31 24L31 23ZM34 24L34 25L35 25L35 26L34 26L34 28L35 28L35 29L37 29L37 28L39 28L39 29L38 29L38 30L34 30L34 29L33 29L33 28L32 28L32 29L33 29L33 30L32 30L32 31L33 31L33 32L32 32L32 33L31 33L31 32L30 32L30 33L28 33L28 34L27 34L27 35L28 35L28 36L26 36L26 37L25 37L25 38L26 38L26 39L27 39L27 38L28 38L28 36L29 36L29 35L28 35L28 34L31 34L31 35L30 35L30 37L29 37L29 39L28 39L28 40L26 40L26 41L25 41L25 42L27 42L27 41L29 41L29 40L31 40L31 39L30 39L30 38L32 38L32 41L33 41L33 40L34 40L34 37L36 37L36 38L37 38L37 36L34 36L34 37L33 37L33 35L34 35L34 33L35 33L35 34L37 34L37 31L38 31L38 32L39 32L39 31L38 31L38 30L39 30L39 29L40 29L40 28L42 28L42 27L41 27L41 26L43 26L43 25L42 25L42 24L41 24L41 26L40 26L40 25L39 25L39 24L38 24L38 27L37 27L37 24ZM51 24L51 25L52 25L52 24ZM5 25L5 28L8 28L8 25ZM25 25L25 28L28 28L28 25ZM45 25L45 28L48 28L48 25ZM6 26L6 27L7 27L7 26ZM16 26L16 27L14 27L14 28L13 28L13 29L15 29L15 30L13 30L13 31L14 31L14 32L16 32L16 31L18 31L18 30L22 30L22 26L20 26L20 27L18 27L18 28L17 28L17 26ZM26 26L26 27L27 27L27 26ZM46 26L46 27L47 27L47 26ZM15 28L15 29L16 29L16 30L15 30L15 31L16 31L16 30L18 30L18 29L16 29L16 28ZM19 28L19 29L21 29L21 28ZM49 28L49 30L47 30L47 29L46 29L46 30L42 30L42 33L43 33L43 34L44 34L44 35L43 35L43 36L44 36L44 35L46 35L46 34L47 34L47 37L49 37L49 36L48 36L48 34L47 34L47 33L46 33L46 34L44 34L44 33L43 33L43 31L46 31L46 30L47 30L47 31L49 31L49 30L50 30L50 28ZM29 29L29 30L28 30L28 32L29 32L29 31L31 31L31 29ZM23 30L23 31L24 31L24 30ZM34 31L34 32L33 32L33 33L34 33L34 32L35 32L35 33L36 33L36 31ZM10 32L10 33L11 33L11 32ZM0 34L0 35L1 35L1 34ZM49 34L49 35L50 35L50 34ZM31 35L31 37L32 37L32 38L33 38L33 37L32 37L32 35ZM45 36L45 37L44 37L44 38L42 38L42 39L46 39L46 36ZM2 37L2 38L4 38L4 37ZM6 37L6 38L5 38L5 39L6 39L6 40L8 40L8 41L9 41L9 42L10 42L10 43L9 43L9 44L12 44L12 45L13 45L13 44L12 44L12 42L10 42L10 41L9 41L9 40L8 40L8 39L6 39L6 38L7 38L7 37ZM48 38L48 39L47 39L47 40L46 40L46 41L45 41L45 40L44 40L44 42L45 42L45 43L46 43L46 44L47 44L47 43L46 43L46 41L48 41L48 40L49 40L49 38ZM3 39L3 41L4 41L4 39ZM40 40L40 41L39 41L39 42L40 42L40 43L41 43L41 44L40 44L40 45L39 45L39 46L41 46L41 45L42 45L42 44L44 44L44 43L42 43L42 41L41 41L41 40ZM21 41L21 42L22 42L22 41ZM37 41L37 42L38 42L38 41ZM40 41L40 42L41 42L41 41ZM2 42L2 43L3 43L3 42ZM48 42L48 43L50 43L50 44L49 44L49 45L50 45L50 46L49 46L49 47L50 47L50 46L51 46L51 47L52 47L52 44L51 44L51 43L50 43L50 42ZM50 44L50 45L51 45L51 44ZM25 45L25 48L28 48L28 45ZM45 45L45 48L48 48L48 45ZM14 46L14 47L15 47L15 46ZM17 46L17 47L18 47L18 46ZM21 46L21 47L22 47L22 48L23 48L23 49L24 49L24 47L23 47L23 46ZM26 46L26 47L27 47L27 46ZM42 46L42 47L44 47L44 46ZM46 46L46 47L47 47L47 46ZM12 47L12 49L14 49L14 48L13 48L13 47ZM37 47L37 48L38 48L38 49L39 49L39 48L40 48L40 47ZM29 48L29 49L30 49L30 48ZM25 49L25 51L23 51L23 52L25 52L25 51L26 51L26 49ZM31 50L31 51L32 51L32 52L33 52L33 51L32 51L32 50ZM8 51L8 53L12 53L12 52L10 52L10 51ZM16 52L16 53L19 53L19 52ZM41 52L41 53L43 53L43 52ZM0 0L0 7L7 7L7 0ZM1 1L1 6L6 6L6 1ZM2 2L2 5L5 5L5 2ZM46 0L46 7L53 7L53 0ZM47 1L47 6L52 6L52 1ZM48 2L48 5L51 5L51 2ZM0 46L0 53L7 53L7 46ZM1 47L1 52L6 52L6 47ZM2 48L2 51L5 51L5 48Z" fill="#000000"/></g></g></svg>
