<?xml version="1.0" encoding="UTF-8"?>
<svg xmlns="http://www.w3.org/2000/svg" version="1.1" width="356" height="356" viewBox="0 0 356 356"><rect x="0" y="0" width="356" height="356" fill="#ffffff"/><g transform="scale(6.717)"><g transform="translate(0,0)"><path fill-rule="evenodd" d="M8 0L8 1L9 1L9 2L8 2L8 5L9 5L9 3L10 3L10 4L12 4L12 7L11 7L11 5L10 5L10 7L9 7L9 6L8 6L8 7L9 7L9 8L8 8L8 9L7 9L7 8L6 8L6 9L4 9L4 8L0 8L0 9L1 9L1 10L2 10L2 12L3 12L3 11L4 11L4 13L0 13L0 15L1 15L1 18L0 18L0 20L1 20L1 18L2 18L2 22L1 22L1 25L0 25L0 28L1 28L1 25L2 25L2 26L3 26L3 27L2 27L2 28L4 28L4 29L9 29L9 28L11 28L11 26L13 26L13 27L14 27L14 30L13 30L13 31L12 31L12 29L13 29L13 28L12 28L12 29L11 29L11 30L9 30L9 31L7 31L7 30L6 30L6 31L5 31L5 30L3 30L3 29L1 29L1 30L0 30L0 31L2 31L2 30L3 30L3 31L4 31L4 32L2 32L2 33L1 33L1 34L3 34L3 35L7 35L7 36L5 36L5 37L7 37L7 38L6 38L6 39L5 39L5 38L4 38L4 41L7 41L7 42L3 42L3 40L1 40L1 41L0 41L0 43L1 43L1 44L3 44L3 45L4 45L4 44L3 44L3 43L9 43L9 42L10 42L10 43L11 43L11 41L12 41L12 43L14 43L14 42L13 42L13 40L14 40L14 41L16 41L16 42L17 42L17 41L16 41L16 40L17 40L17 39L20 39L20 43L17 43L17 45L18 45L18 46L16 46L16 47L17 47L17 48L18 48L18 49L20 49L20 50L21 50L21 52L19 52L19 50L18 50L18 51L16 51L16 53L17 53L17 52L19 52L19 53L22 53L22 51L23 51L23 50L24 50L24 51L25 51L25 52L26 52L26 53L28 53L28 52L26 52L26 51L27 51L27 49L28 49L28 51L29 51L29 53L30 53L30 52L31 52L31 53L35 53L35 51L36 51L36 52L37 52L37 53L39 53L39 52L37 52L37 51L36 51L36 50L39 50L39 49L37 49L37 48L41 48L41 47L40 47L40 46L39 46L39 47L38 47L38 46L36 46L36 47L34 47L34 48L33 48L33 49L32 49L32 48L31 48L31 49L32 49L32 50L31 50L31 51L29 51L29 48L30 48L30 47L29 47L29 46L31 46L31 47L33 47L33 45L34 45L34 43L36 43L36 44L35 44L35 45L36 45L36 44L37 44L37 43L38 43L38 44L39 44L39 45L41 45L41 46L43 46L43 47L42 47L42 49L43 49L43 48L44 48L44 50L45 50L45 51L46 51L46 49L47 49L47 51L48 51L48 52L47 52L47 53L48 53L48 52L49 52L49 53L50 53L50 51L48 51L48 50L51 50L51 53L52 53L52 50L51 50L51 48L49 48L49 44L51 44L51 43L49 43L49 42L48 42L48 41L47 41L47 40L50 40L50 41L51 41L51 40L52 40L52 42L53 42L53 35L52 35L52 33L51 33L51 32L53 32L53 31L52 31L52 29L53 29L53 28L52 28L52 29L51 29L51 28L50 28L50 27L49 27L49 26L51 26L51 27L53 27L53 26L51 26L51 25L52 25L52 21L53 21L53 19L52 19L52 21L51 21L51 19L50 19L50 17L49 17L49 19L50 19L50 21L49 21L49 22L47 22L47 23L51 23L51 24L50 24L50 25L49 25L49 24L45 24L45 23L46 23L46 22L45 22L45 23L44 23L44 29L47 29L47 31L46 31L46 32L43 32L43 33L42 33L42 31L44 31L44 30L42 30L42 29L43 29L43 27L42 27L42 26L41 26L41 25L42 25L42 23L43 23L43 22L44 22L44 21L45 21L45 19L46 19L46 20L47 20L47 21L48 21L48 19L47 19L47 18L48 18L48 15L50 15L50 14L51 14L51 17L52 17L52 18L53 18L53 14L51 14L51 13L52 13L52 10L50 10L50 9L51 9L51 8L48 8L48 9L49 9L49 10L50 10L50 11L51 11L51 13L50 13L50 12L49 12L49 11L48 11L48 12L47 12L47 14L46 14L46 12L45 12L45 11L44 11L44 7L45 7L45 6L44 6L44 7L43 7L43 3L44 3L44 4L45 4L45 3L44 3L44 1L43 1L43 0L42 0L42 2L43 2L43 3L41 3L41 4L40 4L40 5L39 5L39 2L41 2L41 1L38 1L38 0L35 0L35 1L33 1L33 2L32 2L32 3L35 3L35 5L36 5L36 7L35 7L35 6L34 6L34 5L33 5L33 4L31 4L31 5L33 5L33 6L32 6L32 7L33 7L33 6L34 6L34 7L35 7L35 11L33 11L33 12L35 12L35 13L37 13L37 14L34 14L34 13L33 13L33 15L32 15L32 16L31 16L31 15L30 15L30 14L29 14L29 13L28 13L28 14L27 14L27 13L26 13L26 12L25 12L25 14L27 14L27 16L26 16L26 15L24 15L24 10L25 10L25 11L27 11L27 12L28 12L28 10L27 10L27 9L29 9L29 10L31 10L31 11L29 11L29 12L31 12L31 14L32 14L32 12L31 12L31 11L32 11L32 10L33 10L33 9L34 9L34 8L33 8L33 9L30 9L30 8L31 8L31 6L30 6L30 8L29 8L29 4L27 4L27 3L26 3L26 2L28 2L28 3L29 3L29 2L30 2L30 1L32 1L32 0L28 0L28 1L27 1L27 0L26 0L26 1L25 1L25 0L21 0L21 1L19 1L19 0L16 0L16 2L15 2L15 1L14 1L14 2L13 2L13 0L11 0L11 1L12 1L12 3L11 3L11 2L10 2L10 0ZM17 1L17 2L16 2L16 3L13 3L13 4L14 4L14 6L13 6L13 7L12 7L12 8L13 8L13 7L14 7L14 6L15 6L15 8L14 8L14 10L13 10L13 9L11 9L11 10L10 10L10 8L11 8L11 7L10 7L10 8L9 8L9 9L8 9L8 10L7 10L7 9L6 9L6 10L7 10L7 11L5 11L5 10L4 10L4 9L2 9L2 10L4 10L4 11L5 11L5 13L4 13L4 14L2 14L2 16L3 16L3 15L4 15L4 14L5 14L5 16L9 16L9 17L8 17L8 18L7 18L7 17L3 17L3 18L7 18L7 19L6 19L6 20L7 20L7 19L9 19L9 17L10 17L10 20L9 20L9 21L8 21L8 22L9 22L9 21L11 21L11 22L10 22L10 23L8 23L8 24L10 24L10 25L9 25L9 27L10 27L10 25L15 25L15 26L14 26L14 27L15 27L15 26L17 26L17 24L18 24L18 28L17 28L17 27L16 27L16 28L15 28L15 29L16 29L16 28L17 28L17 30L15 30L15 31L13 31L13 32L12 32L12 34L10 34L10 36L9 36L9 35L8 35L8 36L9 36L9 37L8 37L8 38L7 38L7 39L6 39L6 40L7 40L7 41L10 41L10 39L8 39L8 38L12 38L12 39L11 39L11 40L12 40L12 39L13 39L13 38L14 38L14 40L16 40L16 39L17 39L17 37L16 37L16 39L15 39L15 38L14 38L14 37L15 37L15 35L16 35L16 36L18 36L18 35L19 35L19 34L21 34L21 35L20 35L20 36L21 36L21 41L23 41L23 43L20 43L20 44L18 44L18 45L20 45L20 46L18 46L18 48L19 48L19 47L21 47L21 48L20 48L20 49L21 49L21 50L23 50L23 49L24 49L24 50L25 50L25 49L24 49L24 48L23 48L23 47L21 47L21 46L24 46L24 44L23 44L23 43L25 43L25 44L27 44L27 43L28 43L28 44L29 44L29 45L30 45L30 43L29 43L29 41L30 41L30 42L31 42L31 40L32 40L32 38L33 38L33 37L34 37L34 39L35 39L35 40L33 40L33 41L36 41L36 42L39 42L39 44L41 44L41 45L42 45L42 44L41 44L41 43L43 43L43 42L44 42L44 39L45 39L45 43L44 43L44 44L46 44L46 43L47 43L47 41L46 41L46 40L47 40L47 39L50 39L50 40L51 40L51 38L52 38L52 35L51 35L51 34L49 34L49 36L48 36L48 35L47 35L47 34L46 34L46 33L45 33L45 34L43 34L43 35L45 35L45 34L46 34L46 35L47 35L47 36L42 36L42 33L41 33L41 34L40 34L40 36L39 36L39 32L41 32L41 31L39 31L39 30L41 30L41 28L42 28L42 27L40 27L40 25L41 25L41 24L40 24L40 23L42 23L42 21L43 21L43 20L42 20L42 18L43 18L43 19L44 19L44 18L45 18L45 17L44 17L44 15L45 15L45 14L43 14L43 13L45 13L45 12L44 12L44 11L43 11L43 10L41 10L41 9L42 9L42 8L43 8L43 7L42 7L42 6L41 6L41 5L40 5L40 6L39 6L39 7L38 7L38 6L37 6L37 7L36 7L36 11L35 11L35 12L36 12L36 11L37 11L37 13L39 13L39 15L40 15L40 19L41 19L41 20L42 20L42 21L40 21L40 20L39 20L39 19L38 19L38 18L39 18L39 16L38 16L38 15L37 15L37 16L34 16L34 17L35 17L35 19L36 19L36 21L38 21L38 22L37 22L37 23L36 23L36 24L37 24L37 23L38 23L38 25L39 25L39 26L38 26L38 27L40 27L40 29L37 29L37 27L36 27L36 26L37 26L37 25L34 25L34 26L35 26L35 27L32 27L32 28L35 28L35 29L36 29L36 30L38 30L38 31L39 31L39 32L36 32L36 31L35 31L35 30L33 30L33 29L32 29L32 30L31 30L31 29L30 29L30 30L28 30L28 32L30 32L30 33L31 33L31 34L29 34L29 33L27 33L27 30L25 30L25 31L24 31L24 28L22 28L22 27L21 27L21 28L20 28L20 30L19 30L19 25L20 25L20 26L23 26L23 27L24 27L24 24L28 24L28 23L29 23L29 24L30 24L30 23L33 23L33 22L34 22L34 24L35 24L35 21L33 21L33 20L34 20L34 19L33 19L33 20L32 20L32 18L31 18L31 16L27 16L27 17L25 17L25 16L24 16L24 17L23 17L23 16L21 16L21 17L20 17L20 19L19 19L19 20L18 20L18 21L19 21L19 20L20 20L20 22L21 22L21 23L22 23L22 22L23 22L23 23L24 23L24 24L22 24L22 25L21 25L21 24L18 24L18 22L17 22L17 20L14 20L14 21L15 21L15 23L14 23L14 22L13 22L13 24L12 24L12 23L11 23L11 22L12 22L12 21L13 21L13 20L12 20L12 19L13 19L13 16L14 16L14 19L15 19L15 17L16 17L16 18L17 18L17 19L18 19L18 18L19 18L19 16L20 16L20 15L23 15L23 14L17 14L17 13L16 13L16 14L17 14L17 15L19 15L19 16L18 16L18 18L17 18L17 16L16 16L16 15L15 15L15 16L14 16L14 14L15 14L15 12L16 12L16 11L17 11L17 10L18 10L18 9L16 9L16 11L15 11L15 12L14 12L14 10L15 10L15 8L17 8L17 7L18 7L18 6L17 6L17 4L16 4L16 3L17 3L17 2L19 2L19 1ZM23 1L23 2L20 2L20 3L21 3L21 5L19 5L19 8L20 8L20 9L21 9L21 7L22 7L22 8L24 8L24 4L25 4L25 3L23 3L23 2L25 2L25 1ZM28 1L28 2L29 2L29 1ZM37 1L37 2L36 2L36 3L37 3L37 4L38 4L38 3L37 3L37 2L38 2L38 1ZM25 5L25 8L28 8L28 5ZM16 6L16 7L17 7L17 6ZM20 6L20 7L21 7L21 6ZM22 6L22 7L23 7L23 6ZM26 6L26 7L27 7L27 6ZM40 6L40 8L38 8L38 7L37 7L37 10L38 10L38 12L39 12L39 11L40 11L40 12L42 12L42 13L43 13L43 12L42 12L42 11L41 11L41 10L38 10L38 9L41 9L41 6ZM45 8L45 9L46 9L46 8ZM52 8L52 9L53 9L53 8ZM22 9L22 10L24 10L24 9ZM25 9L25 10L26 10L26 9ZM12 10L12 11L11 11L11 13L10 13L10 12L9 12L9 11L7 11L7 12L6 12L6 13L5 13L5 14L6 14L6 15L9 15L9 14L6 14L6 13L8 13L8 12L9 12L9 13L10 13L10 14L11 14L11 16L10 16L10 17L11 17L11 16L13 16L13 14L14 14L14 13L12 13L12 12L13 12L13 10ZM19 10L19 11L18 11L18 12L19 12L19 13L20 13L20 11L21 11L21 10ZM21 12L21 13L23 13L23 12ZM11 13L11 14L12 14L12 13ZM40 14L40 15L41 15L41 18L42 18L42 17L43 17L43 15L41 15L41 14ZM46 16L46 17L47 17L47 16ZM21 17L21 19L20 19L20 20L21 20L21 21L24 21L24 23L25 23L25 21L24 21L24 18L25 18L25 17L24 17L24 18L22 18L22 17ZM28 17L28 18L29 18L29 19L28 19L28 20L27 20L27 19L26 19L26 22L27 22L27 21L28 21L28 22L31 22L31 21L28 21L28 20L29 20L29 19L30 19L30 18L29 18L29 17ZM11 18L11 19L12 19L12 18ZM36 18L36 19L37 19L37 18ZM3 19L3 20L5 20L5 19ZM22 19L22 20L23 20L23 19ZM38 20L38 21L39 21L39 20ZM4 21L4 22L5 22L5 21ZM6 21L6 22L7 22L7 21ZM32 21L32 22L33 22L33 21ZM16 22L16 23L17 23L17 22ZM38 22L38 23L39 23L39 22ZM4 23L4 24L2 24L2 25L3 25L3 26L4 26L4 24L5 24L5 23ZM6 23L6 24L7 24L7 23ZM32 24L32 25L33 25L33 24ZM5 25L5 28L8 28L8 25ZM25 25L25 28L28 28L28 25ZM29 25L29 27L30 27L30 26L31 26L31 25ZM45 25L45 28L48 28L48 25ZM6 26L6 27L7 27L7 26ZM26 26L26 27L27 27L27 26ZM46 26L46 27L47 27L47 26ZM35 27L35 28L36 28L36 27ZM21 28L21 30L22 30L22 32L21 32L21 31L20 31L20 32L21 32L21 34L22 34L22 36L23 36L23 35L24 35L24 38L26 38L26 39L27 39L27 40L26 40L26 42L27 42L27 41L28 41L28 37L29 37L29 35L28 35L28 34L27 34L27 33L26 33L26 34L27 34L27 35L25 35L25 34L22 34L22 32L23 32L23 33L24 33L24 32L23 32L23 29L22 29L22 28ZM49 28L49 29L48 29L48 30L50 30L50 31L51 31L51 29L50 29L50 28ZM18 30L18 31L19 31L19 30ZM32 30L32 32L33 32L33 30ZM6 31L6 32L7 32L7 31ZM10 31L10 32L8 32L8 34L9 34L9 33L10 33L10 32L11 32L11 31ZM16 31L16 35L17 35L17 34L19 34L19 33L17 33L17 31ZM30 31L30 32L31 32L31 31ZM34 31L34 32L35 32L35 31ZM14 32L14 33L15 33L15 32ZM47 32L47 33L48 33L48 32ZM49 32L49 33L50 33L50 32ZM6 33L6 34L7 34L7 33ZM35 33L35 34L34 34L34 36L35 36L35 38L36 38L36 40L37 40L37 41L38 41L38 39L37 39L37 38L39 38L39 42L42 42L42 40L43 40L43 38L45 38L45 39L47 39L47 38L45 38L45 37L43 37L43 38L42 38L42 40L41 40L41 41L40 41L40 37L37 37L37 36L36 36L36 35L35 35L35 34L37 34L37 35L38 35L38 33ZM14 34L14 35L13 35L13 37L12 37L12 38L13 38L13 37L14 37L14 35L15 35L15 34ZM31 34L31 35L30 35L30 37L32 37L32 36L33 36L33 35L32 35L32 34ZM1 36L1 39L2 39L2 38L3 38L3 37L4 37L4 36ZM10 36L10 37L11 37L11 36ZM26 36L26 37L28 37L28 36ZM49 36L49 37L50 37L50 36ZM19 37L19 38L20 38L20 37ZM22 37L22 39L23 39L23 40L24 40L24 39L23 39L23 37ZM7 39L7 40L8 40L8 39ZM18 40L18 41L19 41L19 40ZM1 41L1 42L2 42L2 43L3 43L3 42L2 42L2 41ZM24 41L24 42L25 42L25 41ZM32 42L32 43L31 43L31 45L33 45L33 44L32 44L32 43L33 43L33 42ZM52 43L52 44L53 44L53 43ZM6 44L6 45L7 45L7 44ZM8 44L8 46L9 46L9 47L10 47L10 46L11 46L11 49L10 49L10 48L9 48L9 49L8 49L8 53L10 53L10 52L11 52L11 53L13 53L13 52L11 52L11 49L12 49L12 50L13 50L13 49L15 49L15 50L17 50L17 49L16 49L16 48L15 48L15 46L14 46L14 45L15 45L15 44L14 44L14 45L12 45L12 44L11 44L11 45L9 45L9 44ZM20 44L20 45L23 45L23 44ZM25 45L25 48L28 48L28 45ZM43 45L43 46L44 46L44 45ZM45 45L45 48L48 48L48 45ZM50 45L50 46L51 46L51 47L52 47L52 46L53 46L53 45ZM12 46L12 47L13 47L13 48L12 48L12 49L13 49L13 48L14 48L14 47L13 47L13 46ZM26 46L26 47L27 47L27 46ZM46 46L46 47L47 47L47 46ZM36 47L36 48L37 48L37 47ZM22 48L22 49L23 49L23 48ZM52 48L52 49L53 49L53 48ZM34 49L34 50L33 50L33 51L31 51L31 52L34 52L34 50L35 50L35 49ZM9 50L9 52L10 52L10 50ZM41 50L41 51L40 51L40 52L41 52L41 51L42 51L42 52L44 52L44 51L43 51L43 50ZM14 51L14 53L15 53L15 51ZM45 52L45 53L46 53L46 52ZM0 0L0 7L7 7L7 0ZM1 1L1 6L6 6L6 1ZM2 2L2 5L5 5L5 2ZM46 0L46 7L53 7L53 0ZM47 1L47 6L52 6L52 1ZM48 2L48 5L51 5L51 2ZM0 46L0 53L7 53L7 46ZM1 47L1 52L6 52L6 47ZM2 48L2 51L5 51L5 48Z" fill="#000000"/></g></g></svg>
