<?xml version="1.0" encoding="UTF-8"?>
<svg xmlns="http://www.w3.org/2000/svg" version="1.1" width="356" height="356" viewBox="0 0 356 356"><rect x="0" y="0" width="356" height="356" fill="#ffffff"/><g transform="scale(6.717)"><g transform="translate(0,0)"><path fill-rule="evenodd" d="M8 0L8 1L9 1L9 0ZM12 0L12 1L11 1L11 2L9 2L9 6L8 6L8 8L9 8L9 10L8 10L8 9L7 9L7 8L6 8L6 9L7 9L7 10L5 10L5 8L3 8L3 9L4 9L4 10L3 10L3 13L2 13L2 12L1 12L1 13L0 13L0 14L2 14L2 15L0 15L0 17L1 17L1 18L0 18L0 21L1 21L1 20L2 20L2 19L3 19L3 20L4 20L4 19L5 19L5 18L6 18L6 19L7 19L7 20L5 20L5 21L4 21L4 22L3 22L3 21L2 21L2 22L0 22L0 23L2 23L2 25L1 25L1 24L0 24L0 26L1 26L1 27L0 27L0 28L1 28L1 27L2 27L2 28L4 28L4 30L3 30L3 29L2 29L2 30L0 30L0 31L2 31L2 32L1 32L1 36L0 36L0 37L1 37L1 39L2 39L2 41L1 41L1 40L0 40L0 43L1 43L1 44L3 44L3 45L4 45L4 44L3 44L3 43L7 43L7 42L5 42L5 41L7 41L7 40L5 40L5 39L8 39L8 38L9 38L9 39L10 39L10 41L11 41L11 42L13 42L13 43L12 43L12 44L11 44L11 43L10 43L10 46L9 46L9 45L8 45L8 46L9 46L9 47L10 47L10 48L8 48L8 50L11 50L11 51L8 51L8 53L9 53L9 52L11 52L11 53L12 53L12 52L11 52L11 51L13 51L13 50L14 50L14 51L15 51L15 48L14 48L14 47L12 47L12 46L13 46L13 45L14 45L14 46L15 46L15 47L17 47L17 48L16 48L16 49L17 49L17 48L18 48L18 47L17 47L17 45L18 45L18 46L19 46L19 49L18 49L18 50L19 50L19 51L17 51L17 50L16 50L16 52L13 52L13 53L17 53L17 52L18 52L18 53L21 53L21 52L20 52L20 51L21 51L21 50L22 50L22 49L23 49L23 50L25 50L25 49L26 49L26 50L27 50L27 49L28 49L28 51L27 51L27 52L26 52L26 51L25 51L25 52L24 52L24 53L25 53L25 52L26 52L26 53L28 53L28 51L29 51L29 52L30 52L30 53L34 53L34 52L36 52L36 53L38 53L38 51L37 51L37 50L36 50L36 49L38 49L38 50L39 50L39 52L41 52L41 53L42 53L42 52L43 52L43 53L44 53L44 52L43 52L43 49L44 49L44 50L45 50L45 52L47 52L47 53L49 53L49 52L50 52L50 53L51 53L51 50L50 50L50 49L49 49L49 48L50 48L50 47L49 47L49 44L48 44L48 43L49 43L49 42L50 42L50 45L51 45L51 46L53 46L53 45L52 45L52 43L53 43L53 40L51 40L51 39L49 39L49 38L50 38L50 37L51 37L51 36L50 36L50 34L51 34L51 32L52 32L52 31L53 31L53 26L52 26L52 27L49 27L49 25L50 25L50 23L51 23L51 24L52 24L52 23L51 23L51 22L53 22L53 17L52 17L52 20L51 20L51 18L50 18L50 17L49 17L49 16L48 16L48 15L47 15L47 17L45 17L45 19L44 19L44 17L43 17L43 16L44 16L44 15L46 15L46 13L47 13L47 12L48 12L48 13L49 13L49 11L51 11L51 13L50 13L50 14L49 14L49 15L50 15L50 16L52 16L52 15L53 15L53 14L52 14L52 15L50 15L50 14L51 14L51 13L53 13L53 12L52 12L52 11L51 11L51 10L53 10L53 8L52 8L52 9L51 9L51 10L48 10L48 11L47 11L47 12L46 12L46 10L47 10L47 8L46 8L46 9L43 9L43 8L44 8L44 7L45 7L45 6L44 6L44 7L43 7L43 3L44 3L44 4L45 4L45 3L44 3L44 1L43 1L43 0L42 0L42 2L43 2L43 3L41 3L41 2L40 2L40 1L41 1L41 0L38 0L38 1L37 1L37 0L36 0L36 1L37 1L37 3L34 3L34 2L35 2L35 0L34 0L34 1L33 1L33 0L32 0L32 1L31 1L31 0L30 0L30 2L29 2L29 3L28 3L28 1L29 1L29 0L24 0L24 1L23 1L23 0L21 0L21 2L20 2L20 1L19 1L19 0L14 0L14 1L13 1L13 0ZM12 1L12 2L11 2L11 3L10 3L10 6L9 6L9 7L10 7L10 6L11 6L11 8L12 8L12 6L13 6L13 7L14 7L14 8L13 8L13 10L14 10L14 8L17 8L17 9L16 9L16 10L17 10L17 9L18 9L18 8L17 8L17 7L18 7L18 6L17 6L17 3L16 3L16 5L15 5L15 4L14 4L14 2L13 2L13 1ZM16 1L16 2L17 2L17 1ZM22 1L22 2L23 2L23 3L24 3L24 2L25 2L25 4L26 4L26 3L27 3L27 4L28 4L28 3L27 3L27 2L25 2L25 1L24 1L24 2L23 2L23 1ZM32 1L32 3L33 3L33 1ZM38 1L38 2L39 2L39 3L37 3L37 4L36 4L36 6L35 6L35 7L34 7L34 5L35 5L35 4L32 4L32 5L31 5L31 7L30 7L30 4L29 4L29 7L30 7L30 8L31 8L31 9L32 9L32 11L31 11L31 10L30 10L30 9L28 9L28 12L30 12L30 11L31 11L31 13L32 13L32 11L33 11L33 9L35 9L35 8L36 8L36 6L37 6L37 9L36 9L36 10L38 10L38 11L39 11L39 13L40 13L40 14L38 14L38 13L36 13L36 12L35 12L35 10L34 10L34 12L33 12L33 13L34 13L34 14L31 14L31 16L33 16L33 17L36 17L36 16L35 16L35 15L37 15L37 14L38 14L38 15L39 15L39 17L38 17L38 16L37 16L37 17L38 17L38 19L36 19L36 20L37 20L37 21L35 21L35 18L34 18L34 20L33 20L33 18L32 18L32 17L31 17L31 18L32 18L32 20L31 20L31 22L30 22L30 21L28 21L28 20L29 20L29 19L28 19L28 18L30 18L30 15L28 15L28 14L29 14L29 13L28 13L28 14L27 14L27 13L26 13L26 12L27 12L27 10L25 10L25 11L26 11L26 12L24 12L24 9L22 9L22 10L21 10L21 11L19 11L19 10L20 10L20 9L21 9L21 8L22 8L22 6L23 6L23 8L24 8L24 6L23 6L23 5L24 5L24 4L23 4L23 5L20 5L20 6L19 6L19 7L20 7L20 8L19 8L19 10L18 10L18 11L16 11L16 14L15 14L15 13L11 13L11 14L12 14L12 15L9 15L9 14L8 14L8 13L6 13L6 12L7 12L7 11L6 11L6 12L5 12L5 13L4 13L4 14L3 14L3 15L2 15L2 16L3 16L3 17L2 17L2 18L1 18L1 19L2 19L2 18L5 18L5 16L3 16L3 15L4 15L4 14L5 14L5 13L6 13L6 14L8 14L8 15L6 15L6 16L8 16L8 18L7 18L7 17L6 17L6 18L7 18L7 19L8 19L8 20L7 20L7 21L5 21L5 24L7 24L7 23L6 23L6 22L8 22L8 23L9 23L9 22L10 22L10 24L9 24L9 25L10 25L10 24L12 24L12 21L13 21L13 18L12 18L12 17L14 17L14 18L15 18L15 19L14 19L14 23L13 23L13 25L12 25L12 27L11 27L11 26L10 26L10 27L9 27L9 29L6 29L6 30L8 30L8 32L7 32L7 31L6 31L6 32L5 32L5 33L4 33L4 31L5 31L5 30L4 30L4 31L3 31L3 30L2 30L2 31L3 31L3 32L2 32L2 34L3 34L3 37L2 37L2 39L5 39L5 38L8 38L8 37L5 37L5 36L7 36L7 35L8 35L8 36L9 36L9 38L10 38L10 39L11 39L11 37L10 37L10 34L12 34L12 33L13 33L13 32L14 32L14 33L15 33L15 34L14 34L14 36L16 36L16 38L15 38L15 37L13 37L13 35L12 35L12 38L13 38L13 39L12 39L12 40L11 40L11 41L12 41L12 40L14 40L14 41L13 41L13 42L14 42L14 43L13 43L13 44L14 44L14 45L15 45L15 39L16 39L16 43L17 43L17 44L16 44L16 45L17 45L17 44L19 44L19 45L21 45L21 46L22 46L22 47L23 47L23 48L24 48L24 46L22 46L22 44L23 44L23 45L24 45L24 44L23 44L23 42L24 42L24 41L25 41L25 44L27 44L27 43L26 43L26 42L28 42L28 44L29 44L29 45L34 45L34 44L33 44L33 43L32 43L32 41L31 41L31 40L34 40L34 41L36 41L36 40L37 40L37 41L38 41L38 42L39 42L39 43L38 43L38 44L37 44L37 45L36 45L36 46L34 46L34 47L32 47L32 48L31 48L31 47L30 47L30 48L29 48L29 49L32 49L32 48L34 48L34 50L35 50L35 51L36 51L36 50L35 50L35 49L36 49L36 46L37 46L37 47L38 47L38 48L39 48L39 49L40 49L40 48L39 48L39 47L38 47L38 46L37 46L37 45L38 45L38 44L39 44L39 45L40 45L40 44L47 44L47 43L48 43L48 41L47 41L47 39L48 39L48 38L47 38L47 39L46 39L46 40L45 40L45 39L44 39L44 37L43 37L43 35L44 35L44 34L45 34L45 33L43 33L43 35L42 35L42 37L43 37L43 39L40 39L40 38L41 38L41 37L40 37L40 36L41 36L41 35L39 35L39 34L41 34L41 33L40 33L40 32L42 32L42 31L43 31L43 32L44 32L44 31L46 31L46 33L48 33L48 32L49 32L49 33L50 33L50 30L51 30L51 31L52 31L52 29L50 29L50 28L49 28L49 29L50 29L50 30L49 30L49 31L48 31L48 29L47 29L47 31L46 31L46 29L44 29L44 27L43 27L43 26L44 26L44 24L45 24L45 23L44 23L44 24L43 24L43 23L42 23L42 24L43 24L43 26L41 26L41 25L40 25L40 24L41 24L41 21L42 21L42 20L44 20L44 21L45 21L45 20L46 20L46 21L47 21L47 20L46 20L46 19L47 19L47 18L48 18L48 20L50 20L50 22L51 22L51 20L50 20L50 18L48 18L48 17L47 17L47 18L46 18L46 19L45 19L45 20L44 20L44 19L40 19L40 18L42 18L42 17L41 17L41 15L42 15L42 16L43 16L43 14L44 14L44 13L46 13L46 12L45 12L45 10L44 10L44 11L43 11L43 10L42 10L42 11L41 11L41 9L40 9L40 8L41 8L41 7L42 7L42 5L41 5L41 4L40 4L40 5L41 5L41 7L40 7L40 6L39 6L39 10L38 10L38 5L37 5L37 4L39 4L39 3L40 3L40 2L39 2L39 1ZM12 2L12 5L11 5L11 6L12 6L12 5L13 5L13 6L14 6L14 7L15 7L15 5L14 5L14 4L13 4L13 2ZM18 2L18 3L20 3L20 4L21 4L21 3L20 3L20 2ZM30 2L30 3L31 3L31 2ZM18 4L18 5L19 5L19 4ZM25 5L25 8L28 8L28 5ZM32 5L32 7L31 7L31 8L32 8L32 7L33 7L33 5ZM16 6L16 7L17 7L17 6ZM20 6L20 7L21 7L21 6ZM26 6L26 7L27 7L27 6ZM0 8L0 9L2 9L2 8ZM10 9L10 10L9 10L9 11L8 11L8 12L9 12L9 13L10 13L10 12L11 12L11 11L12 11L12 9ZM0 10L0 11L1 11L1 10ZM4 10L4 11L5 11L5 10ZM10 10L10 11L11 11L11 10ZM39 10L39 11L40 11L40 13L41 13L41 14L43 14L43 13L42 13L42 12L43 12L43 11L42 11L42 12L41 12L41 11L40 11L40 10ZM14 11L14 12L15 12L15 11ZM18 11L18 13L20 13L20 14L21 14L21 16L20 16L20 17L16 17L16 19L20 19L20 18L21 18L21 20L22 20L22 21L20 21L20 20L17 20L17 21L16 21L16 20L15 20L15 23L14 23L14 24L15 24L15 25L13 25L13 27L12 27L12 28L13 28L13 29L15 29L15 30L12 30L12 31L11 31L11 28L10 28L10 29L9 29L9 31L10 31L10 32L9 32L9 33L8 33L8 35L9 35L9 34L10 34L10 32L11 32L11 33L12 33L12 31L14 31L14 32L15 32L15 30L16 30L16 34L17 34L17 33L18 33L18 35L16 35L16 36L18 36L18 37L19 37L19 38L18 38L18 39L17 39L17 41L18 41L18 42L17 42L17 43L18 43L18 42L19 42L19 41L21 41L21 39L20 39L20 38L24 38L24 39L23 39L23 40L22 40L22 42L20 42L20 43L19 43L19 44L22 44L22 42L23 42L23 40L25 40L25 41L27 41L27 40L28 40L28 42L29 42L29 43L30 43L30 44L31 44L31 43L30 43L30 42L31 42L31 41L30 41L30 40L31 40L31 39L30 39L30 38L31 38L31 37L30 37L30 36L29 36L29 35L24 35L24 34L23 34L23 32L22 32L22 31L25 31L25 30L23 30L23 29L26 29L26 30L27 30L27 31L26 31L26 32L27 32L27 33L25 33L25 32L24 32L24 33L25 33L25 34L28 34L28 31L31 31L31 32L29 32L29 34L30 34L30 35L31 35L31 36L32 36L32 37L33 37L33 39L35 39L35 38L36 38L36 39L37 39L37 40L38 40L38 41L39 41L39 37L38 37L38 36L39 36L39 35L38 35L38 34L39 34L39 33L37 33L37 32L36 32L36 29L37 29L37 30L38 30L38 31L39 31L39 30L40 30L40 31L42 31L42 30L43 30L43 28L42 28L42 27L41 27L41 28L42 28L42 30L40 30L40 27L39 27L39 26L40 26L40 25L38 25L38 26L37 26L37 23L36 23L36 25L35 25L35 26L34 26L34 23L33 23L33 22L35 22L35 21L32 21L32 22L31 22L31 23L32 23L32 26L31 26L31 25L30 25L30 23L27 23L27 22L28 22L28 21L27 21L27 18L26 18L26 17L29 17L29 16L27 16L27 14L25 14L25 15L22 15L22 14L24 14L24 12L23 12L23 11L22 11L22 14L21 14L21 13L20 13L20 12L19 12L19 11ZM13 14L13 15L12 15L12 16L14 16L14 17L15 17L15 16L16 16L16 15L18 15L18 14L16 14L16 15L14 15L14 14ZM34 14L34 15L35 15L35 14ZM22 16L22 17L21 17L21 18L22 18L22 20L23 20L23 21L24 21L24 23L22 23L22 22L21 22L21 26L19 26L19 27L18 27L18 28L17 28L17 26L16 26L16 28L17 28L17 29L18 29L18 28L20 28L20 29L19 29L19 30L17 30L17 32L18 32L18 33L19 33L19 30L21 30L21 29L23 29L23 28L20 28L20 27L22 27L22 26L23 26L23 24L24 24L24 23L26 23L26 24L27 24L27 23L26 23L26 22L25 22L25 21L24 21L24 20L23 20L23 18L22 18L22 17L24 17L24 18L25 18L25 17L26 17L26 16L25 16L25 17L24 17L24 16ZM10 17L10 19L11 19L11 17ZM39 17L39 18L40 18L40 17ZM25 19L25 20L26 20L26 19ZM8 20L8 22L9 22L9 20ZM38 20L38 21L37 21L37 22L38 22L38 23L39 23L39 24L40 24L40 21L41 21L41 20L40 20L40 21L39 21L39 20ZM10 21L10 22L11 22L11 21ZM2 22L2 23L3 23L3 22ZM46 22L46 24L47 24L47 23L49 23L49 22ZM15 23L15 24L18 24L18 23ZM19 23L19 25L20 25L20 23ZM3 25L3 26L4 26L4 25ZM5 25L5 28L8 28L8 25ZM25 25L25 28L28 28L28 25ZM45 25L45 28L48 28L48 25ZM6 26L6 27L7 27L7 26ZM14 26L14 27L13 27L13 28L14 28L14 27L15 27L15 26ZM26 26L26 27L27 27L27 26ZM29 26L29 29L27 29L27 30L30 30L30 26ZM33 26L33 27L34 27L34 26ZM35 26L35 28L33 28L33 30L32 30L32 29L31 29L31 30L32 30L32 31L33 31L33 32L31 32L31 34L32 34L32 36L34 36L34 38L35 38L35 37L36 37L36 36L38 36L38 35L35 35L35 36L34 36L34 35L33 35L33 34L32 34L32 33L33 33L33 32L34 32L34 33L36 33L36 34L37 34L37 33L36 33L36 32L34 32L34 31L35 31L35 30L34 30L34 29L36 29L36 27L37 27L37 26ZM46 26L46 27L47 27L47 26ZM31 27L31 28L32 28L32 27ZM37 28L37 29L38 29L38 30L39 30L39 29L38 29L38 28ZM6 32L6 33L5 33L5 34L6 34L6 35L7 35L7 34L6 34L6 33L7 33L7 32ZM20 32L20 34L19 34L19 35L18 35L18 36L19 36L19 37L21 37L21 36L19 36L19 35L21 35L21 32ZM3 33L3 34L4 34L4 33ZM52 33L52 34L53 34L53 33ZM22 34L22 36L24 36L24 35L23 35L23 34ZM46 34L46 36L48 36L48 37L49 37L49 36L48 36L48 35L49 35L49 34ZM52 35L52 36L53 36L53 35ZM25 36L25 37L24 37L24 38L27 38L27 37L28 37L28 36L27 36L27 37L26 37L26 36ZM3 37L3 38L4 38L4 37ZM29 37L29 38L30 38L30 37ZM37 37L37 38L38 38L38 37ZM45 37L45 38L46 38L46 37ZM52 37L52 39L53 39L53 37ZM14 38L14 39L15 39L15 38ZM25 39L25 40L27 40L27 39ZM4 40L4 41L5 41L5 40ZM41 40L41 41L42 41L42 42L43 42L43 43L45 43L45 41L43 41L43 40ZM49 40L49 41L50 41L50 40ZM8 41L8 44L9 44L9 41ZM29 41L29 42L30 42L30 41ZM46 41L46 43L47 43L47 41ZM51 41L51 43L52 43L52 41ZM2 42L2 43L3 43L3 42ZM34 42L34 43L35 43L35 42ZM36 42L36 43L37 43L37 42ZM40 42L40 43L39 43L39 44L40 44L40 43L41 43L41 42ZM6 44L6 45L7 45L7 44ZM11 45L11 46L10 46L10 47L11 47L11 46L12 46L12 45ZM25 45L25 48L28 48L28 45ZM41 45L41 47L44 47L44 45L43 45L43 46L42 46L42 45ZM45 45L45 48L48 48L48 45ZM26 46L26 47L27 47L27 46ZM46 46L46 47L47 47L47 46ZM20 47L20 48L21 48L21 47ZM34 47L34 48L35 48L35 47ZM10 48L10 49L11 49L11 50L13 50L13 49L14 49L14 48L12 48L12 49L11 49L11 48ZM51 48L51 49L53 49L53 48ZM19 49L19 50L21 50L21 49ZM46 49L46 51L47 51L47 52L48 52L48 51L47 51L47 50L49 50L49 49ZM40 50L40 51L41 51L41 52L42 52L42 50ZM30 51L30 52L32 52L32 51ZM52 51L52 52L53 52L53 51ZM0 0L0 7L7 7L7 0ZM1 1L1 6L6 6L6 1ZM2 2L2 5L5 5L5 2ZM46 0L46 7L53 7L53 0ZM47 1L47 6L52 6L52 1ZM48 2L48 5L51 5L51 2ZM0 46L0 53L7 53L7 46ZM1 47L1 52L6 52L6 47ZM2 48L2 51L5 51L5 48Z" fill="#000000"/></g></g></svg>
