<?xml version="1.0" encoding="UTF-8"?>
<svg xmlns="http://www.w3.org/2000/svg" version="1.1" width="356" height="356" viewBox="0 0 356 356"><rect x="0" y="0" width="356" height="356" fill="#ffffff"/><g transform="scale(6.717)"><g transform="translate(0,0)"><path fill-rule="evenodd" d="M8 0L8 2L9 2L9 3L11 3L11 4L10 4L10 5L11 5L11 4L12 4L12 5L13 5L13 4L12 4L12 3L11 3L11 2L9 2L9 0ZM12 0L12 2L14 2L14 3L15 3L15 5L16 5L16 7L17 7L17 6L18 6L18 8L19 8L19 12L18 12L18 10L16 10L16 11L17 11L17 12L18 12L18 14L16 14L16 12L14 12L14 9L15 9L15 8L14 8L14 7L15 7L15 6L14 6L14 7L13 7L13 6L12 6L12 8L11 8L11 6L10 6L10 8L11 8L11 9L13 9L13 11L12 11L12 10L6 10L6 9L7 9L7 8L5 8L5 9L3 9L3 8L0 8L0 11L1 11L1 12L0 12L0 13L1 13L1 12L2 12L2 14L0 14L0 15L1 15L1 16L0 16L0 17L1 17L1 16L2 16L2 17L3 17L3 18L2 18L2 19L0 19L0 20L2 20L2 21L1 21L1 23L0 23L0 29L3 29L3 28L1 28L1 27L2 27L2 25L3 25L3 27L4 27L4 30L3 30L3 31L2 31L2 32L3 32L3 33L2 33L2 35L3 35L3 33L4 33L4 34L5 34L5 33L7 33L7 32L6 32L6 31L8 31L8 33L10 33L10 34L11 34L11 35L12 35L12 36L13 36L13 35L15 35L15 36L14 36L14 37L15 37L15 38L13 38L13 37L12 37L12 39L11 39L11 40L10 40L10 39L8 39L8 38L3 38L3 37L1 37L1 34L0 34L0 37L1 37L1 38L0 38L0 41L1 41L1 42L0 42L0 43L1 43L1 44L3 44L3 45L4 45L4 44L3 44L3 43L7 43L7 44L6 44L6 45L8 45L8 46L9 46L9 47L8 47L8 48L9 48L9 49L10 49L10 46L12 46L12 45L11 45L11 44L10 44L10 46L9 46L9 44L8 44L8 42L3 42L3 43L2 43L2 41L3 41L3 40L4 40L4 39L7 39L7 40L6 40L6 41L7 41L7 40L8 40L8 41L9 41L9 40L10 40L10 42L9 42L9 43L12 43L12 44L13 44L13 46L14 46L14 44L13 44L13 43L14 43L14 41L15 41L15 40L16 40L16 41L17 41L17 39L15 39L15 38L16 38L16 36L17 36L17 35L16 35L16 34L18 34L18 38L19 38L19 39L18 39L18 40L19 40L19 43L18 43L18 42L16 42L16 43L18 43L18 45L19 45L19 46L17 46L17 47L16 47L16 44L15 44L15 47L11 47L11 48L13 48L13 49L11 49L11 50L10 50L10 51L11 51L11 50L14 50L14 49L15 49L15 51L13 51L13 52L11 52L11 53L13 53L13 52L14 52L14 53L16 53L16 52L18 52L18 53L20 53L20 52L18 52L18 49L19 49L19 48L20 48L20 49L21 49L21 48L20 48L20 47L21 47L21 46L23 46L23 47L22 47L22 48L23 48L23 50L22 50L22 51L23 51L23 52L22 52L22 53L23 53L23 52L24 52L24 53L26 53L26 51L25 51L25 49L29 49L29 52L28 52L28 51L27 51L27 52L28 52L28 53L29 53L29 52L30 52L30 49L31 49L31 48L32 48L32 49L33 49L33 52L32 52L32 53L33 53L33 52L35 52L35 51L37 51L37 52L36 52L36 53L39 53L39 52L40 52L40 53L41 53L41 52L42 52L42 53L43 53L43 52L44 52L44 51L45 51L45 53L46 53L46 50L44 50L44 51L43 51L43 52L42 52L42 51L41 51L41 50L40 50L40 51L39 51L39 50L38 50L38 48L36 48L36 47L35 47L35 46L37 46L37 44L36 44L36 45L35 45L35 46L34 46L34 45L33 45L33 44L32 44L32 45L33 45L33 46L32 46L32 47L31 47L31 46L30 46L30 44L31 44L31 42L30 42L30 41L31 41L31 40L30 40L30 39L32 39L32 43L34 43L34 44L35 44L35 43L36 43L36 42L35 42L35 43L34 43L34 41L35 41L35 39L34 39L34 36L35 36L35 35L39 35L39 34L40 34L40 35L41 35L41 36L40 36L40 38L38 38L38 36L36 36L36 37L37 37L37 38L36 38L36 41L37 41L37 43L38 43L38 45L39 45L39 48L40 48L40 49L41 49L41 48L42 48L42 47L43 47L43 46L44 46L44 48L43 48L43 49L48 49L48 51L49 51L49 52L47 52L47 53L49 53L49 52L50 52L50 51L51 51L51 50L50 50L50 51L49 51L49 48L50 48L50 46L52 46L52 47L51 47L51 48L52 48L52 47L53 47L53 45L52 45L52 44L53 44L53 42L52 42L52 44L50 44L50 42L51 42L51 41L52 41L52 40L53 40L53 37L52 37L52 40L50 40L50 39L51 39L51 37L50 37L50 39L49 39L49 38L48 38L48 36L50 36L50 35L51 35L51 33L53 33L53 29L52 29L52 27L53 27L53 26L52 26L52 27L51 27L51 28L50 28L50 27L49 27L49 25L50 25L50 23L51 23L51 22L52 22L52 23L53 23L53 22L52 22L52 21L53 21L53 18L52 18L52 20L51 20L51 21L49 21L49 20L48 20L48 17L50 17L50 16L49 16L49 15L51 15L51 17L52 17L52 15L53 15L53 14L52 14L52 13L53 13L53 10L52 10L52 9L53 9L53 8L51 8L51 10L50 10L50 9L49 9L49 8L45 8L45 6L44 6L44 9L43 9L43 10L42 10L42 7L43 7L43 3L44 3L44 4L45 4L45 3L44 3L44 1L43 1L43 0L41 0L41 1L40 1L40 0L38 0L38 1L37 1L37 0L36 0L36 2L35 2L35 0L34 0L34 1L33 1L33 0L32 0L32 2L33 2L33 6L32 6L32 9L31 9L31 10L33 10L33 11L32 11L32 14L31 14L31 15L30 15L30 13L31 13L31 11L30 11L30 7L31 7L31 6L30 6L30 7L29 7L29 4L28 4L28 0L27 0L27 2L26 2L26 0L24 0L24 1L23 1L23 0L22 0L22 1L21 1L21 0L18 0L18 1L16 1L16 2L18 2L18 1L19 1L19 4L20 4L20 5L18 5L18 3L15 3L15 2L14 2L14 1L15 1L15 0ZM30 0L30 1L29 1L29 3L31 3L31 2L30 2L30 1L31 1L31 0ZM20 1L20 2L21 2L21 1ZM22 1L22 2L23 2L23 3L22 3L22 4L23 4L23 5L20 5L20 6L19 6L19 8L20 8L20 6L21 6L21 7L22 7L22 6L23 6L23 9L22 9L22 8L21 8L21 10L20 10L20 11L21 11L21 12L20 12L20 14L19 14L19 15L18 15L18 16L19 16L19 17L18 17L18 18L19 18L19 20L21 20L21 21L20 21L20 22L19 22L19 21L18 21L18 19L17 19L17 18L16 18L16 19L17 19L17 20L16 20L16 23L14 23L14 24L15 24L15 25L14 25L14 26L15 26L15 28L16 28L16 30L13 30L13 28L14 28L14 27L13 27L13 28L10 28L10 27L11 27L11 25L12 25L12 26L13 26L13 22L12 22L12 24L10 24L10 23L9 23L9 22L11 22L11 21L12 21L12 20L13 20L13 19L14 19L14 20L15 20L15 19L14 19L14 18L15 18L15 16L14 16L14 15L16 15L16 14L13 14L13 12L12 12L12 14L13 14L13 16L12 16L12 15L11 15L11 16L12 16L12 19L11 19L11 18L10 18L10 21L8 21L8 22L7 22L7 21L4 21L4 19L5 19L5 20L7 20L7 19L5 19L5 18L7 18L7 17L8 17L8 20L9 20L9 17L10 17L10 15L9 15L9 14L11 14L11 13L10 13L10 11L9 11L9 12L8 12L8 11L6 11L6 10L5 10L5 11L3 11L3 12L7 12L7 13L6 13L6 14L5 14L5 13L4 13L4 15L3 15L3 14L2 14L2 16L3 16L3 17L4 17L4 16L7 16L7 17L5 17L5 18L3 18L3 19L2 19L2 20L3 20L3 21L2 21L2 23L3 23L3 24L4 24L4 23L6 23L6 24L10 24L10 27L9 27L9 28L10 28L10 29L6 29L6 30L4 30L4 33L5 33L5 31L6 31L6 30L8 30L8 31L9 31L9 32L10 32L10 33L11 33L11 32L12 32L12 31L11 31L11 29L12 29L12 30L13 30L13 33L12 33L12 34L15 34L15 32L16 32L16 30L21 30L21 31L18 31L18 32L19 32L19 33L18 33L18 34L19 34L19 38L20 38L20 39L19 39L19 40L20 40L20 39L21 39L21 38L24 38L24 39L25 39L25 41L26 41L26 40L27 40L27 42L24 42L24 43L23 43L23 41L24 41L24 40L23 40L23 39L22 39L22 40L23 40L23 41L22 41L22 43L21 43L21 42L20 42L20 43L21 43L21 44L19 44L19 45L20 45L20 46L21 46L21 45L22 45L22 43L23 43L23 44L24 44L24 43L26 43L26 44L27 44L27 43L28 43L28 44L30 44L30 43L28 43L28 40L29 40L29 41L30 41L30 40L29 40L29 39L30 39L30 38L31 38L31 37L30 37L30 36L31 36L31 35L33 35L33 33L32 33L32 32L34 32L34 35L35 35L35 32L34 32L34 31L31 31L31 29L32 29L32 28L33 28L33 29L34 29L34 30L36 30L36 31L38 31L38 32L37 32L37 33L38 33L38 34L39 34L39 33L40 33L40 34L41 34L41 35L43 35L43 33L42 33L42 32L44 32L44 33L45 33L45 35L46 35L46 38L47 38L47 36L48 36L48 35L50 35L50 34L49 34L49 33L51 33L51 31L50 31L50 30L51 30L51 29L50 29L50 30L49 30L49 29L48 29L48 30L47 30L47 31L46 31L46 29L43 29L43 28L44 28L44 25L42 25L42 23L44 23L44 24L46 24L46 23L47 23L47 24L49 24L49 23L50 23L50 22L49 22L49 21L48 21L48 20L46 20L46 22L45 22L45 20L44 20L44 19L45 19L45 17L46 17L46 19L47 19L47 17L46 17L46 15L45 15L45 13L44 13L44 12L46 12L46 11L44 11L44 12L43 12L43 11L38 11L38 10L39 10L39 9L40 9L40 10L41 10L41 9L40 9L40 8L39 8L39 7L40 7L40 6L39 6L39 5L40 5L40 4L41 4L41 5L42 5L42 3L43 3L43 2L42 2L42 3L40 3L40 4L39 4L39 3L38 3L38 2L40 2L40 1L38 1L38 2L36 2L36 4L37 4L37 5L36 5L36 6L35 6L35 7L34 7L34 6L33 6L33 9L34 9L34 10L35 10L35 9L36 9L36 8L38 8L38 10L37 10L37 11L33 11L33 13L34 13L34 14L35 14L35 15L36 15L36 16L35 16L35 17L34 17L34 15L33 15L33 14L32 14L32 15L31 15L31 17L30 17L30 16L29 16L29 15L28 15L28 14L29 14L29 13L30 13L30 12L29 12L29 11L28 11L28 10L29 10L29 9L28 9L28 10L26 10L26 9L25 9L25 10L26 10L26 12L25 12L25 11L24 11L24 12L23 12L23 14L22 14L22 15L21 15L21 16L22 16L22 15L23 15L23 14L24 14L24 12L25 12L25 14L26 14L26 12L27 12L27 13L28 13L28 14L27 14L27 15L26 15L26 16L25 16L25 15L24 15L24 16L25 16L25 17L24 17L24 18L23 18L23 19L24 19L24 20L23 20L23 21L22 21L22 18L21 18L21 17L20 17L20 14L21 14L21 12L22 12L22 11L21 11L21 10L23 10L23 9L24 9L24 4L25 4L25 3L26 3L26 2L25 2L25 1L24 1L24 2L23 2L23 1ZM23 3L23 4L24 4L24 3ZM8 4L8 9L9 9L9 4ZM30 4L30 5L31 5L31 4ZM38 4L38 5L37 5L37 6L36 6L36 7L37 7L37 6L38 6L38 7L39 7L39 6L38 6L38 5L39 5L39 4ZM25 5L25 8L28 8L28 5ZM26 6L26 7L27 7L27 6ZM41 6L41 7L42 7L42 6ZM16 8L16 9L17 9L17 8ZM1 9L1 11L2 11L2 10L3 10L3 9ZM44 9L44 10L45 10L45 9ZM46 9L46 10L47 10L47 13L46 13L46 14L48 14L48 9ZM51 10L51 11L50 11L50 12L51 12L51 11L52 11L52 10ZM27 11L27 12L28 12L28 11ZM36 12L36 13L35 13L35 14L37 14L37 16L36 16L36 17L37 17L37 18L35 18L35 19L34 19L34 17L33 17L33 15L32 15L32 18L31 18L31 19L29 19L29 16L28 16L28 15L27 15L27 16L26 16L26 17L27 17L27 16L28 16L28 19L27 19L27 20L26 20L26 18L25 18L25 20L24 20L24 21L23 21L23 22L24 22L24 23L23 23L23 24L22 24L22 21L21 21L21 22L20 22L20 24L19 24L19 23L18 23L18 24L19 24L19 26L18 26L18 27L17 27L17 26L16 26L16 27L17 27L17 28L18 28L18 29L19 29L19 28L21 28L21 27L20 27L20 26L21 26L21 25L23 25L23 26L22 26L22 30L23 30L23 31L22 31L22 32L23 32L23 33L24 33L24 34L23 34L23 35L22 35L22 34L20 34L20 35L22 35L22 37L23 37L23 36L24 36L24 34L25 34L25 30L26 30L26 35L25 35L25 36L26 36L26 37L29 37L29 38L30 38L30 37L29 37L29 36L30 36L30 35L31 35L31 34L30 34L30 33L31 33L31 31L30 31L30 33L29 33L29 34L28 34L28 33L27 33L27 32L28 32L28 31L29 31L29 30L26 30L26 29L29 29L29 28L30 28L30 29L31 29L31 28L30 28L30 27L29 27L29 26L30 26L30 25L31 25L31 27L32 27L32 25L33 25L33 26L34 26L34 27L33 27L33 28L34 28L34 27L36 27L36 30L37 30L37 28L38 28L38 29L39 29L39 28L40 28L40 29L41 29L41 30L40 30L40 31L39 31L39 32L38 32L38 33L39 33L39 32L40 32L40 33L41 33L41 32L40 32L40 31L43 31L43 30L42 30L42 29L41 29L41 28L40 28L40 27L42 27L42 28L43 28L43 27L42 27L42 25L41 25L41 23L42 23L42 20L43 20L43 18L44 18L44 15L43 15L43 14L44 14L44 13L43 13L43 14L42 14L42 12L40 12L40 13L39 13L39 15L40 15L40 18L42 18L42 20L41 20L41 19L40 19L40 27L39 27L39 26L38 26L38 24L39 24L39 22L38 22L38 21L39 21L39 18L38 18L38 17L37 17L37 16L38 16L38 12ZM8 13L8 14L6 14L6 15L7 15L7 16L8 16L8 17L9 17L9 15L8 15L8 14L9 14L9 13ZM40 13L40 15L41 15L41 13ZM50 13L50 14L51 14L51 15L52 15L52 14L51 14L51 13ZM42 16L42 18L43 18L43 16ZM20 18L20 19L21 19L21 18ZM32 18L32 19L33 19L33 18ZM37 18L37 19L35 19L35 21L34 21L34 20L33 20L33 21L34 21L34 22L32 22L32 20L31 20L31 21L30 21L30 20L29 20L29 19L28 19L28 20L27 20L27 21L28 21L28 22L26 22L26 21L25 21L25 22L26 22L26 24L27 24L27 23L28 23L28 22L29 22L29 24L31 24L31 25L32 25L32 23L34 23L34 22L35 22L35 21L36 21L36 20L38 20L38 18ZM50 18L50 19L51 19L51 18ZM3 21L3 22L4 22L4 21ZM17 21L17 22L18 22L18 21ZM29 21L29 22L30 22L30 23L31 23L31 22L30 22L30 21ZM43 21L43 22L44 22L44 23L45 23L45 22L44 22L44 21ZM47 21L47 22L48 22L48 21ZM6 22L6 23L7 23L7 22ZM36 22L36 24L34 24L34 26L35 26L35 25L36 25L36 27L37 27L37 25L36 25L36 24L38 24L38 23L37 23L37 22ZM16 23L16 25L17 25L17 23ZM24 23L24 24L25 24L25 23ZM1 24L1 25L2 25L2 24ZM51 24L51 25L53 25L53 24ZM5 25L5 28L8 28L8 25ZM25 25L25 28L28 28L28 25ZM45 25L45 28L48 28L48 25ZM6 26L6 27L7 27L7 26ZM23 26L23 28L24 28L24 26ZM26 26L26 27L27 27L27 26ZM46 26L46 27L47 27L47 26ZM23 29L23 30L24 30L24 29ZM0 30L0 32L1 32L1 30ZM48 30L48 32L47 32L47 33L46 33L46 31L44 31L44 32L45 32L45 33L46 33L46 35L48 35L48 32L50 32L50 31L49 31L49 30ZM14 31L14 32L15 32L15 31ZM23 31L23 32L24 32L24 31ZM20 32L20 33L21 33L21 32ZM6 34L6 35L7 35L7 34ZM8 34L8 36L5 36L5 35L4 35L4 37L11 37L11 36L9 36L9 34ZM27 34L27 35L28 35L28 36L29 36L29 35L30 35L30 34L29 34L29 35L28 35L28 34ZM52 34L52 35L53 35L53 34ZM42 36L42 39L41 39L41 38L40 38L40 40L38 40L38 42L39 42L39 41L40 41L40 44L39 44L39 45L40 45L40 48L41 48L41 47L42 47L42 46L43 46L43 44L42 44L42 43L45 43L45 44L46 44L46 41L48 41L48 42L47 42L47 43L48 43L48 44L49 44L49 42L50 42L50 41L48 41L48 40L49 40L49 39L48 39L48 40L46 40L46 41L45 41L45 40L44 40L44 39L45 39L45 37L44 37L44 38L43 38L43 36ZM24 37L24 38L25 38L25 37ZM32 37L32 38L33 38L33 37ZM1 38L1 41L2 41L2 38ZM26 38L26 39L27 39L27 40L28 40L28 39L27 39L27 38ZM14 39L14 40L15 40L15 39ZM33 39L33 40L34 40L34 39ZM12 40L12 41L11 41L11 42L12 42L12 41L13 41L13 40ZM40 40L40 41L41 41L41 43L42 43L42 41L44 41L44 42L45 42L45 41L44 41L44 40L42 40L42 41L41 41L41 40ZM40 44L40 45L41 45L41 46L42 46L42 44ZM23 45L23 46L24 46L24 45ZM25 45L25 48L28 48L28 45ZM45 45L45 48L48 48L48 45ZM49 45L49 46L50 46L50 45ZM26 46L26 47L27 47L27 46ZM29 46L29 47L30 47L30 48L31 48L31 47L30 47L30 46ZM46 46L46 47L47 47L47 46ZM15 47L15 48L16 48L16 47ZM18 47L18 48L19 48L19 47ZM32 47L32 48L34 48L34 50L35 50L35 49L36 49L36 48L35 48L35 47ZM8 50L8 53L10 53L10 52L9 52L9 50ZM16 50L16 51L17 51L17 50ZM20 50L20 51L21 51L21 50ZM31 50L31 51L32 51L32 50ZM37 50L37 51L38 51L38 52L39 52L39 51L38 51L38 50ZM24 51L24 52L25 52L25 51ZM52 52L52 53L53 53L53 52ZM0 0L0 7L7 7L7 0ZM1 1L1 6L6 6L6 1ZM2 2L2 5L5 5L5 2ZM46 0L46 7L53 7L53 0ZM47 1L47 6L52 6L52 1ZM48 2L48 5L51 5L51 2ZM0 46L0 53L7 53L7 46ZM1 47L1 52L6 52L6 47ZM2 48L2 51L5 51L5 48Z" fill="#000000"/></g></g></svg>
