<?xml version="1.0" encoding="UTF-8"?>
<svg xmlns="http://www.w3.org/2000/svg" version="1.1" width="356" height="356" viewBox="0 0 356 356"><rect x="0" y="0" width="356" height="356" fill="#ffffff"/><g transform="scale(6.717)"><g transform="translate(0,0)"><path fill-rule="evenodd" d="M11 0L11 1L8 1L8 2L9 2L9 3L8 3L8 4L9 4L9 3L10 3L10 5L8 5L8 7L9 7L9 6L10 6L10 8L11 8L11 10L12 10L12 11L11 11L11 12L10 12L10 11L9 11L9 12L10 12L10 13L11 13L11 14L10 14L10 16L11 16L11 17L10 17L10 19L8 19L8 20L9 20L9 21L8 21L8 22L6 22L6 23L5 23L5 24L3 24L3 23L4 23L4 22L3 22L3 23L1 23L1 24L0 24L0 25L1 25L1 26L2 26L2 27L3 27L3 28L2 28L2 29L3 29L3 28L4 28L4 30L2 30L2 31L4 31L4 32L3 32L3 33L2 33L2 32L0 32L0 34L1 34L1 35L0 35L0 36L1 36L1 37L0 37L0 38L2 38L2 36L3 36L3 35L4 35L4 38L3 38L3 39L0 39L0 40L4 40L4 41L5 41L5 42L3 42L3 43L2 43L2 42L0 42L0 43L1 43L1 44L3 44L3 45L4 45L4 44L3 44L3 43L7 43L7 44L6 44L6 45L7 45L7 44L8 44L8 42L9 42L9 43L10 43L10 42L9 42L9 40L10 40L10 41L12 41L12 42L11 42L11 43L12 43L12 42L13 42L13 43L15 43L15 44L14 44L14 45L12 45L12 46L15 46L15 47L14 47L14 48L11 48L11 49L9 49L9 48L10 48L10 47L9 47L9 45L10 45L10 46L11 46L11 45L10 45L10 44L9 44L9 45L8 45L8 47L9 47L9 48L8 48L8 53L10 53L10 51L9 51L9 50L11 50L11 53L14 53L14 52L12 52L12 51L14 51L14 50L15 50L15 51L16 51L16 52L15 52L15 53L20 53L20 52L19 52L19 51L20 51L20 50L19 50L19 49L20 49L20 44L21 44L21 45L22 45L22 47L21 47L21 48L22 48L22 49L21 49L21 51L22 51L22 49L23 49L23 48L24 48L24 50L23 50L23 53L25 53L25 52L26 52L26 51L27 51L27 52L28 52L28 50L26 50L26 49L29 49L29 47L30 47L30 48L31 48L31 49L30 49L30 50L29 50L29 52L30 52L30 53L32 53L32 52L35 52L35 53L37 53L37 50L38 50L38 51L39 51L39 52L38 52L38 53L39 53L39 52L41 52L41 51L42 51L42 50L43 50L43 51L44 51L44 50L43 50L43 49L41 49L41 51L40 51L40 50L38 50L38 48L34 48L34 47L33 47L33 45L32 45L32 42L33 42L33 44L34 44L34 45L39 45L39 44L36 44L36 42L38 42L38 43L39 43L39 42L38 42L38 41L37 41L37 40L35 40L35 38L34 38L34 37L32 37L32 36L33 36L33 35L34 35L34 36L35 36L35 37L37 37L37 38L38 38L38 39L39 39L39 40L40 40L40 39L43 39L43 40L45 40L45 41L41 41L41 42L40 42L40 43L41 43L41 44L42 44L42 45L40 45L40 46L37 46L37 47L39 47L39 48L40 48L40 47L41 47L41 46L43 46L43 44L44 44L44 47L42 47L42 48L44 48L44 49L45 49L45 51L46 51L46 49L49 49L49 50L47 50L47 51L48 51L48 53L49 53L49 52L50 52L50 53L51 53L51 52L52 52L52 51L53 51L53 50L52 50L52 49L53 49L53 48L52 48L52 49L51 49L51 48L50 48L50 47L51 47L51 45L53 45L53 43L51 43L51 42L52 42L52 41L50 41L50 43L49 43L49 40L50 40L50 38L52 38L52 37L53 37L53 36L52 36L52 35L51 35L51 36L50 36L50 34L52 34L52 33L51 33L51 32L50 32L50 27L49 27L49 26L52 26L52 24L50 24L50 22L52 22L52 20L53 20L53 19L51 19L51 18L52 18L52 17L53 17L53 15L52 15L52 14L53 14L53 13L52 13L52 12L53 12L53 11L52 11L52 12L51 12L51 13L52 13L52 14L51 14L51 16L50 16L50 17L49 17L49 16L48 16L48 14L47 14L47 15L46 15L46 14L45 14L45 15L43 15L43 14L44 14L44 13L41 13L41 14L40 14L40 13L39 13L39 12L40 12L40 11L39 11L39 10L38 10L38 9L39 9L39 8L41 8L41 9L40 9L40 10L41 10L41 11L42 11L42 10L43 10L43 11L44 11L44 12L45 12L45 13L49 13L49 14L50 14L50 11L51 11L51 10L50 10L50 11L49 11L49 10L47 10L47 11L46 11L46 10L45 10L45 11L44 11L44 9L46 9L46 8L45 8L45 6L44 6L44 7L43 7L43 3L44 3L44 4L45 4L45 3L44 3L44 1L43 1L43 0L40 0L40 1L39 1L39 2L38 2L38 0L35 0L35 1L34 1L34 2L33 2L33 1L32 1L32 0L27 0L27 1L29 1L29 2L27 2L27 3L26 3L26 1L25 1L25 0L23 0L23 1L25 1L25 3L24 3L24 2L22 2L22 3L23 3L23 5L24 5L24 8L23 8L23 6L22 6L22 5L21 5L21 6L20 6L20 4L21 4L21 3L18 3L18 2L20 2L20 1L19 1L19 0L16 0L16 1L15 1L15 2L14 2L14 1L13 1L13 0ZM11 1L11 2L10 2L10 3L11 3L11 5L12 5L12 6L11 6L11 7L12 7L12 8L13 8L13 9L14 9L14 11L12 11L12 13L15 13L15 16L16 16L16 17L13 17L13 16L14 16L14 15L12 15L12 14L11 14L11 16L12 16L12 17L11 17L11 19L10 19L10 22L9 22L9 23L8 23L8 24L9 24L9 26L11 26L11 25L14 25L14 26L12 26L12 28L11 28L11 27L9 27L9 28L11 28L11 30L10 30L10 29L9 29L9 30L8 30L8 29L6 29L6 30L5 30L5 31L6 31L6 32L5 32L5 33L3 33L3 34L2 34L2 35L1 35L1 36L2 36L2 35L3 35L3 34L4 34L4 35L5 35L5 39L4 39L4 40L7 40L7 41L6 41L6 42L8 42L8 40L9 40L9 39L8 39L8 40L7 40L7 39L6 39L6 38L7 38L7 37L6 37L6 36L8 36L8 37L9 37L9 38L10 38L10 37L9 37L9 36L11 36L11 35L12 35L12 38L11 38L11 39L10 39L10 40L13 40L13 41L14 41L14 42L15 42L15 43L16 43L16 44L19 44L19 43L20 43L20 42L18 42L18 41L21 41L21 42L23 42L23 44L22 44L22 45L24 45L24 44L26 44L26 43L27 43L27 44L29 44L29 45L31 45L31 47L32 47L32 49L31 49L31 50L30 50L30 51L32 51L32 50L34 50L34 51L35 51L35 52L36 52L36 50L37 50L37 49L36 49L36 50L35 50L35 49L33 49L33 47L32 47L32 45L31 45L31 42L32 42L32 41L33 41L33 42L35 42L35 40L34 40L34 41L33 41L33 40L32 40L32 39L34 39L34 38L32 38L32 37L31 37L31 40L29 40L29 39L30 39L30 38L29 38L29 37L30 37L30 36L32 36L32 35L29 35L29 34L27 34L27 33L30 33L30 31L31 31L31 32L32 32L32 33L31 33L31 34L35 34L35 36L37 36L37 37L38 37L38 38L39 38L39 37L44 37L44 39L45 39L45 40L46 40L46 41L47 41L47 40L46 40L46 39L48 39L48 38L45 38L45 37L44 37L44 35L43 35L43 34L44 34L44 30L45 30L45 31L46 31L46 32L45 32L45 33L46 33L46 34L45 34L45 35L46 35L46 37L49 37L49 38L50 38L50 37L49 37L49 35L47 35L47 32L48 32L48 33L49 33L49 34L50 34L50 33L49 33L49 31L47 31L47 30L45 30L45 29L44 29L44 27L43 27L43 29L44 29L44 30L43 30L43 34L41 34L41 33L42 33L42 32L41 32L41 28L42 28L42 27L41 27L41 26L40 26L40 28L39 28L39 29L38 29L38 30L37 30L37 29L36 29L36 28L37 28L37 27L38 27L38 26L39 26L39 25L41 25L41 22L42 22L42 23L43 23L43 25L44 25L44 22L46 22L46 23L47 23L47 24L48 24L48 23L49 23L49 21L50 21L50 20L51 20L51 19L50 19L50 18L51 18L51 17L52 17L52 16L51 16L51 17L50 17L50 18L47 18L47 17L48 17L48 16L44 16L44 18L43 18L43 19L42 19L42 18L40 18L40 17L41 17L41 15L42 15L42 14L41 14L41 15L39 15L39 16L37 16L37 17L38 17L38 20L37 20L37 21L35 21L35 20L33 20L33 19L32 19L32 17L33 17L33 18L35 18L35 19L36 19L36 17L35 17L35 16L32 16L32 15L37 15L37 14L39 14L39 13L37 13L37 14L35 14L35 13L33 13L33 12L32 12L32 11L31 11L31 10L29 10L29 9L31 9L31 8L32 8L32 9L33 9L33 10L34 10L34 12L35 12L35 11L36 11L36 12L37 12L37 11L38 11L38 12L39 12L39 11L38 11L38 10L37 10L37 9L38 9L38 8L39 8L39 7L40 7L40 5L41 5L41 3L43 3L43 2L42 2L42 1L41 1L41 3L40 3L40 2L39 2L39 4L38 4L38 2L37 2L37 1L35 1L35 2L37 2L37 4L35 4L35 3L32 3L32 4L34 4L34 5L32 5L32 6L31 6L31 7L30 7L30 5L29 5L29 9L25 9L25 10L26 10L26 13L24 13L24 12L22 12L22 13L20 13L20 12L19 12L19 13L15 13L15 11L16 11L16 12L17 12L17 11L20 11L20 10L18 10L18 9L22 9L22 10L21 10L21 11L24 11L24 9L23 9L23 8L22 8L22 6L21 6L21 8L20 8L20 6L19 6L19 4L16 4L16 2L15 2L15 3L11 3L11 2L13 2L13 1ZM31 1L31 2L32 2L32 1ZM27 3L27 4L29 4L29 3ZM30 3L30 4L31 4L31 3ZM12 4L12 5L15 5L15 6L14 6L14 7L13 7L13 6L12 6L12 7L13 7L13 8L14 8L14 7L15 7L15 8L16 8L16 7L17 7L17 6L18 6L18 7L19 7L19 6L18 6L18 5L16 5L16 4ZM37 4L37 5L38 5L38 7L39 7L39 5L38 5L38 4ZM25 5L25 8L28 8L28 5ZM34 5L34 7L33 7L33 6L32 6L32 8L34 8L34 9L35 9L35 10L36 10L36 11L37 11L37 10L36 10L36 9L37 9L37 6L36 6L36 8L34 8L34 7L35 7L35 5ZM15 6L15 7L16 7L16 6ZM26 6L26 7L27 7L27 6ZM41 6L41 7L42 7L42 8L43 8L43 9L44 9L44 8L43 8L43 7L42 7L42 6ZM0 8L0 13L2 13L2 14L1 14L1 15L0 15L0 17L1 17L1 18L0 18L0 21L1 21L1 22L2 22L2 20L4 20L4 21L7 21L7 20L6 20L6 19L7 19L7 18L9 18L9 14L8 14L8 12L5 12L5 11L8 11L8 10L10 10L10 9L9 9L9 8L6 8L6 9L8 9L8 10L5 10L5 8ZM17 8L17 9L18 9L18 8ZM47 8L47 9L48 9L48 8ZM49 8L49 9L50 9L50 8ZM51 8L51 9L52 9L52 8ZM3 9L3 10L1 10L1 12L3 12L3 16L4 16L4 17L5 17L5 18L2 18L2 19L4 19L4 20L5 20L5 18L7 18L7 17L6 17L6 16L8 16L8 14L7 14L7 13L5 13L5 15L6 15L6 16L4 16L4 12L3 12L3 10L4 10L4 9ZM15 9L15 10L16 10L16 9ZM41 9L41 10L42 10L42 9ZM27 11L27 12L28 12L28 11ZM29 11L29 12L30 12L30 11ZM47 11L47 12L49 12L49 11ZM31 12L31 13L29 13L29 14L30 14L30 15L29 15L29 16L30 16L30 17L29 17L29 19L28 19L28 21L29 21L29 23L27 23L27 21L26 21L26 19L27 19L27 18L28 18L28 17L27 17L27 18L26 18L26 19L23 19L23 20L25 20L25 21L26 21L26 23L24 23L24 22L23 22L23 21L21 21L21 23L20 23L20 21L19 21L19 20L17 20L17 18L18 18L18 19L20 19L20 18L19 18L19 17L20 17L20 16L21 16L21 17L22 17L22 18L23 18L23 17L24 17L24 18L25 18L25 17L26 17L26 14L28 14L28 13L26 13L26 14L25 14L25 15L23 15L23 13L22 13L22 14L21 14L21 15L20 15L20 13L19 13L19 14L18 14L18 15L16 15L16 16L18 16L18 17L16 17L16 18L15 18L15 19L16 19L16 20L15 20L15 21L13 21L13 20L14 20L14 18L13 18L13 19L12 19L12 20L11 20L11 24L12 24L12 21L13 21L13 22L15 22L15 24L17 24L17 25L18 25L18 26L17 26L17 28L16 28L16 27L14 27L14 28L15 28L15 29L12 29L12 30L11 30L11 31L10 31L10 30L9 30L9 31L8 31L8 30L6 30L6 31L8 31L8 32L6 32L6 33L8 33L8 32L9 32L9 34L8 34L8 35L10 35L10 33L12 33L12 32L11 32L11 31L14 31L14 32L13 32L13 33L16 33L16 34L15 34L15 35L16 35L16 36L15 36L15 37L21 37L21 36L22 36L22 35L21 35L21 36L17 36L17 35L20 35L20 34L19 34L19 33L20 33L20 32L19 32L19 29L21 29L21 27L22 27L22 24L21 24L21 23L24 23L24 27L23 27L23 29L26 29L26 30L25 30L25 31L26 31L26 32L24 32L24 31L23 31L23 30L22 30L22 31L21 31L21 32L22 32L22 33L21 33L21 34L22 34L22 33L23 33L23 34L24 34L24 35L25 35L25 34L26 34L26 36L25 36L25 37L26 37L26 36L27 36L27 34L26 34L26 32L27 32L27 31L28 31L28 29L29 29L29 31L30 31L30 30L32 30L32 31L33 31L33 33L35 33L35 34L36 34L36 35L37 35L37 36L38 36L38 35L39 35L39 36L40 36L40 35L41 35L41 34L40 34L40 33L39 33L39 34L38 34L38 32L39 32L39 31L37 31L37 30L36 30L36 29L35 29L35 28L36 28L36 27L35 27L35 28L34 28L34 27L33 27L33 26L32 26L32 24L33 24L33 25L35 25L35 26L38 26L38 23L37 23L37 22L38 22L38 21L37 21L37 22L36 22L36 23L35 23L35 22L34 22L34 21L32 21L32 19L31 19L31 17L32 17L32 16L30 16L30 15L32 15L32 14L31 14L31 13L32 13L32 12ZM6 14L6 15L7 15L7 14ZM19 15L19 16L20 16L20 15ZM1 16L1 17L2 17L2 16ZM22 16L22 17L23 17L23 16ZM44 18L44 19L43 19L43 20L41 20L41 19L39 19L39 20L41 20L41 21L39 21L39 22L41 22L41 21L42 21L42 22L44 22L44 21L49 21L49 20L50 20L50 19L48 19L48 20L47 20L47 18ZM21 19L21 20L22 20L22 19ZM45 19L45 20L46 20L46 19ZM29 20L29 21L30 21L30 20ZM43 20L43 21L44 21L44 20ZM15 21L15 22L17 22L17 21ZM31 21L31 22L32 22L32 21ZM18 22L18 23L17 23L17 24L18 24L18 25L21 25L21 24L20 24L20 23L19 23L19 22ZM33 22L33 24L34 24L34 22ZM6 23L6 24L7 24L7 23ZM13 23L13 24L14 24L14 23ZM26 23L26 24L27 24L27 23ZM31 23L31 24L29 24L29 25L31 25L31 24L32 24L32 23ZM39 23L39 24L40 24L40 23ZM2 24L2 25L3 25L3 24ZM49 24L49 25L50 25L50 24ZM5 25L5 28L8 28L8 25ZM15 25L15 26L16 26L16 25ZM25 25L25 28L28 28L28 25ZM45 25L45 28L48 28L48 25ZM3 26L3 27L4 27L4 26ZM6 26L6 27L7 27L7 26ZM19 26L19 27L18 27L18 28L19 28L19 27L20 27L20 26ZM26 26L26 27L27 27L27 26ZM30 26L30 27L31 27L31 28L32 28L32 30L34 30L34 31L35 31L35 29L33 29L33 27L32 27L32 26ZM46 26L46 27L47 27L47 26ZM0 28L0 29L1 29L1 28ZM51 28L51 29L52 29L52 30L51 30L51 31L52 31L52 30L53 30L53 28ZM15 29L15 31L18 31L18 29ZM39 29L39 30L40 30L40 29ZM0 30L0 31L1 31L1 30ZM26 30L26 31L27 31L27 30ZM9 31L9 32L10 32L10 31ZM36 31L36 32L35 32L35 33L36 33L36 34L37 34L37 33L36 33L36 32L37 32L37 31ZM16 32L16 33L18 33L18 32ZM23 32L23 33L24 33L24 34L25 34L25 33L24 33L24 32ZM6 34L6 35L7 35L7 34ZM12 34L12 35L13 35L13 34ZM13 36L13 37L14 37L14 36ZM51 36L51 37L52 37L52 36ZM12 38L12 39L13 39L13 40L14 40L14 39L13 39L13 38ZM16 38L16 40L17 40L17 41L18 41L18 40L17 40L17 39L18 39L18 38ZM21 38L21 39L22 39L22 38ZM24 38L24 39L23 39L23 41L26 41L26 40L27 40L27 39L26 39L26 40L25 40L25 38ZM28 38L28 39L29 39L29 38ZM19 39L19 40L20 40L20 39ZM52 39L52 40L53 40L53 39ZM21 40L21 41L22 41L22 40ZM31 40L31 41L30 41L30 42L28 42L28 43L29 43L29 44L30 44L30 42L31 42L31 41L32 41L32 40ZM15 41L15 42L16 42L16 41ZM25 42L25 43L26 43L26 42ZM41 42L41 43L42 43L42 42ZM44 42L44 43L47 43L47 42ZM34 43L34 44L35 44L35 43ZM48 43L48 44L49 44L49 47L50 47L50 44L51 44L51 43L50 43L50 44L49 44L49 43ZM15 45L15 46L17 46L17 47L18 47L18 45ZM25 45L25 48L28 48L28 45ZM45 45L45 48L48 48L48 45ZM23 46L23 47L24 47L24 46ZM26 46L26 47L27 47L27 46ZM35 46L35 47L36 47L36 46ZM46 46L46 47L47 47L47 46ZM14 48L14 49L15 49L15 50L16 50L16 49L18 49L18 48L16 48L16 49L15 49L15 48ZM17 50L17 51L19 51L19 50ZM24 50L24 51L26 51L26 50ZM49 50L49 51L50 51L50 52L51 52L51 51L52 51L52 50ZM42 52L42 53L43 53L43 52ZM44 52L44 53L45 53L45 52ZM0 0L0 7L7 7L7 0ZM1 1L1 6L6 6L6 1ZM2 2L2 5L5 5L5 2ZM46 0L46 7L53 7L53 0ZM47 1L47 6L52 6L52 1ZM48 2L48 5L51 5L51 2ZM0 46L0 53L7 53L7 46ZM1 47L1 52L6 52L6 47ZM2 48L2 51L5 51L5 48Z" fill="#000000"/></g></g></svg>
