<?xml version="1.0" encoding="UTF-8"?>
<svg xmlns="http://www.w3.org/2000/svg" version="1.1" width="356" height="356" viewBox="0 0 356 356"><rect x="0" y="0" width="356" height="356" fill="#ffffff"/><g transform="scale(6.717)"><g transform="translate(0,0)"><path fill-rule="evenodd" d="M8 0L8 2L9 2L9 4L8 4L8 10L6 10L6 11L7 11L7 12L6 12L6 13L5 13L5 12L3 12L3 11L5 11L5 9L7 9L7 8L5 8L5 9L3 9L3 8L0 8L0 9L1 9L1 10L3 10L3 11L0 11L0 12L1 12L1 13L0 13L0 15L2 15L2 14L5 14L5 15L3 15L3 16L6 16L6 17L7 17L7 18L5 18L5 17L4 17L4 18L3 18L3 17L2 17L2 18L1 18L1 20L3 20L3 19L4 19L4 18L5 18L5 19L8 19L8 18L9 18L9 17L10 17L10 18L12 18L12 17L13 17L13 15L12 15L12 14L11 14L11 15L8 15L8 14L10 14L10 13L11 13L11 12L10 12L10 13L9 13L9 11L12 11L12 10L11 10L11 9L13 9L13 11L15 11L15 10L14 10L14 9L15 9L15 8L14 8L14 7L15 7L15 6L14 6L14 7L13 7L13 6L12 6L12 7L11 7L11 6L10 6L10 5L11 5L11 4L12 4L12 5L13 5L13 4L12 4L12 3L15 3L15 5L16 5L16 7L17 7L17 6L18 6L18 8L19 8L19 12L18 12L18 10L16 10L16 11L17 11L17 12L18 12L18 14L16 14L16 12L13 12L13 14L16 14L16 15L14 15L14 16L15 16L15 18L14 18L14 19L11 19L11 23L10 23L10 20L4 20L4 21L7 21L7 22L6 22L6 23L10 23L10 24L11 24L11 23L12 23L12 21L13 21L13 25L11 25L11 26L9 26L9 24L5 24L5 22L3 22L3 21L2 21L2 22L1 22L1 21L0 21L0 22L1 22L1 23L2 23L2 24L3 24L3 23L4 23L4 25L3 25L3 26L2 26L2 27L1 27L1 24L0 24L0 27L1 27L1 28L0 28L0 29L1 29L1 31L2 31L2 33L3 33L3 34L2 34L2 35L1 35L1 32L0 32L0 35L1 35L1 36L2 36L2 37L1 37L1 38L0 38L0 41L2 41L2 42L0 42L0 43L1 43L1 44L3 44L3 45L4 45L4 44L3 44L3 43L7 43L7 42L8 42L8 41L7 41L7 40L3 40L3 39L4 39L4 38L3 38L3 37L4 37L4 36L3 36L3 34L4 34L4 35L5 35L5 36L6 36L6 37L7 37L7 38L6 38L6 39L7 39L7 38L9 38L9 39L8 39L8 40L10 40L10 41L9 41L9 43L10 43L10 41L11 41L11 40L10 40L10 39L13 39L13 40L12 40L12 41L13 41L13 42L14 42L14 41L15 41L15 40L16 40L16 41L17 41L17 39L15 39L15 38L16 38L16 36L17 36L17 35L16 35L16 34L18 34L18 38L19 38L19 39L18 39L18 40L19 40L19 43L18 43L18 42L16 42L16 43L18 43L18 45L19 45L19 46L17 46L17 47L16 47L16 44L15 44L15 43L11 43L11 44L12 44L12 45L11 45L11 46L10 46L10 45L9 45L9 44L8 44L8 46L9 46L9 47L8 47L8 48L9 48L9 49L10 49L10 50L8 50L8 53L9 53L9 52L10 52L10 51L11 51L11 53L12 53L12 51L13 51L13 49L12 49L12 47L11 47L11 46L13 46L13 45L14 45L14 44L15 44L15 47L16 47L16 48L15 48L15 50L14 50L14 51L15 51L15 53L16 53L16 52L18 52L18 53L19 53L19 52L18 52L18 49L19 49L19 48L20 48L20 49L21 49L21 48L20 48L20 47L21 47L21 46L23 46L23 47L22 47L22 48L23 48L23 49L24 49L24 50L20 50L20 51L21 51L21 52L20 52L20 53L21 53L21 52L22 52L22 53L23 53L23 51L24 51L24 53L25 53L25 49L29 49L29 50L28 50L28 51L26 51L26 53L27 53L27 52L28 52L28 53L29 53L29 52L30 52L30 49L31 49L31 48L32 48L32 49L33 49L33 51L32 51L32 50L31 50L31 51L32 51L32 53L34 53L34 52L36 52L36 53L38 53L38 52L39 52L39 53L41 53L41 51L42 51L42 53L44 53L44 52L46 52L46 53L49 53L49 52L46 52L46 50L44 50L44 49L48 49L48 51L49 51L49 48L50 48L50 46L52 46L52 48L53 48L53 46L52 46L52 44L53 44L53 42L52 42L52 44L51 44L51 45L50 45L50 42L51 42L51 40L52 40L52 41L53 41L53 38L52 38L52 39L51 39L51 37L50 37L50 35L51 35L51 33L50 33L50 35L49 35L49 34L48 34L48 33L49 33L49 32L50 32L50 31L51 31L51 30L50 30L50 29L52 29L52 33L53 33L53 29L52 29L52 27L53 27L53 26L52 26L52 27L51 27L51 25L52 25L52 24L51 24L51 25L50 25L50 23L51 23L51 21L53 21L53 18L52 18L52 20L51 20L51 21L50 21L50 18L51 18L51 17L50 17L50 16L49 16L49 15L51 15L51 16L53 16L53 14L52 14L52 13L53 13L53 10L52 10L52 9L53 9L53 8L51 8L51 10L50 10L50 9L49 9L49 8L45 8L45 6L44 6L44 7L43 7L43 3L44 3L44 4L45 4L45 3L44 3L44 1L43 1L43 0L38 0L38 1L39 1L39 2L38 2L38 3L37 3L37 0L36 0L36 3L35 3L35 0L34 0L34 1L33 1L33 0L32 0L32 2L33 2L33 4L32 4L32 5L31 5L31 4L30 4L30 5L31 5L31 6L30 6L30 7L31 7L31 6L32 6L32 9L31 9L31 8L30 8L30 9L29 9L29 4L28 4L28 3L31 3L31 2L30 2L30 1L31 1L31 0L30 0L30 1L29 1L29 2L28 2L28 3L27 3L27 0L26 0L26 4L24 4L24 2L25 2L25 0L24 0L24 2L23 2L23 1L22 1L22 0L18 0L18 1L16 1L16 2L18 2L18 1L19 1L19 4L20 4L20 5L18 5L18 3L15 3L15 0L13 0L13 1L14 1L14 2L12 2L12 0L11 0L11 1L9 1L9 0ZM20 1L20 2L22 2L22 1ZM40 1L40 2L39 2L39 3L40 3L40 4L39 4L39 5L38 5L38 4L37 4L37 3L36 3L36 4L37 4L37 5L36 5L36 6L35 6L35 7L34 7L34 6L33 6L33 5L32 5L32 6L33 6L33 9L34 9L34 10L35 10L35 9L36 9L36 8L37 8L37 7L38 7L38 9L37 9L37 11L36 11L36 12L35 12L35 11L34 11L34 12L35 12L35 13L34 13L34 14L33 14L33 13L32 13L32 12L33 12L33 10L31 10L31 9L30 9L30 11L32 11L32 12L30 12L30 14L31 14L31 17L30 17L30 16L29 16L29 15L28 15L28 14L29 14L29 13L27 13L27 15L26 15L26 14L25 14L25 15L24 15L24 13L26 13L26 12L28 12L28 10L29 10L29 9L26 9L26 10L25 10L25 11L24 11L24 9L22 9L22 8L23 8L23 7L24 7L24 4L23 4L23 3L22 3L22 4L23 4L23 7L22 7L22 5L20 5L20 6L19 6L19 8L20 8L20 6L21 6L21 7L22 7L22 8L21 8L21 10L20 10L20 11L21 11L21 12L20 12L20 14L19 14L19 15L18 15L18 16L19 16L19 17L18 17L18 18L19 18L19 20L21 20L21 21L20 21L20 22L19 22L19 21L18 21L18 19L17 19L17 18L16 18L16 19L17 19L17 20L16 20L16 23L14 23L14 24L15 24L15 25L14 25L14 26L15 26L15 28L16 28L16 30L13 30L13 29L11 29L11 28L10 28L10 27L9 27L9 30L8 30L8 29L5 29L5 31L3 31L3 32L5 32L5 34L7 34L7 35L6 35L6 36L7 36L7 37L10 37L10 38L12 38L12 36L11 36L11 35L9 35L9 36L7 36L7 35L8 35L8 34L12 34L12 35L13 35L13 38L15 38L15 37L14 37L14 36L15 36L15 35L13 35L13 34L15 34L15 32L16 32L16 30L21 30L21 31L18 31L18 32L19 32L19 33L18 33L18 34L19 34L19 38L21 38L21 37L22 37L22 36L21 36L21 35L22 35L22 34L24 34L24 35L23 35L23 37L26 37L26 38L24 38L24 39L22 39L22 40L23 40L23 41L22 41L22 43L21 43L21 42L20 42L20 43L21 43L21 44L23 44L23 41L24 41L24 40L25 40L25 41L26 41L26 42L24 42L24 44L25 44L25 43L26 43L26 44L27 44L27 43L28 43L28 44L29 44L29 43L31 43L31 44L30 44L30 46L29 46L29 49L30 49L30 48L31 48L31 47L30 47L30 46L32 46L32 48L34 48L34 50L35 50L35 49L36 49L36 48L37 48L37 45L36 45L36 43L38 43L38 50L37 50L37 51L36 51L36 52L38 52L38 50L39 50L39 49L40 49L40 48L41 48L41 47L40 47L40 48L39 48L39 46L41 46L41 45L40 45L40 44L42 44L42 46L43 46L43 47L42 47L42 50L43 50L43 52L44 52L44 50L43 50L43 47L44 47L44 45L43 45L43 43L44 43L44 42L45 42L45 43L46 43L46 42L45 42L45 39L46 39L46 40L47 40L47 39L46 39L46 37L47 37L47 36L46 36L46 33L48 33L48 30L49 30L49 31L50 31L50 30L49 30L49 29L50 29L50 28L51 28L51 27L50 27L50 25L49 25L49 27L50 27L50 28L49 28L49 29L48 29L48 30L47 30L47 29L45 29L45 30L44 30L44 29L43 29L43 28L44 28L44 25L43 25L43 23L44 23L44 24L45 24L45 23L47 23L47 24L49 24L49 23L50 23L50 22L49 22L49 21L48 21L48 20L49 20L49 18L50 18L50 17L48 17L48 20L47 20L47 21L46 21L46 20L45 20L45 19L44 19L44 20L43 20L43 21L42 21L42 20L41 20L41 21L42 21L42 22L40 22L40 19L42 19L42 18L43 18L43 17L44 17L44 18L45 18L45 17L46 17L46 19L47 19L47 17L46 17L46 15L44 15L44 14L45 14L45 13L46 13L46 14L48 14L48 15L49 15L49 14L48 14L48 9L46 9L46 10L47 10L47 13L46 13L46 11L45 11L45 9L44 9L44 8L43 8L43 9L42 9L42 12L41 12L41 11L40 11L40 10L39 10L39 9L40 9L40 8L42 8L42 6L41 6L41 7L40 7L40 6L39 6L39 5L41 5L41 3L40 3L40 2L41 2L41 1ZM10 2L10 4L11 4L11 3L12 3L12 2ZM42 2L42 3L43 3L43 2ZM34 3L34 4L35 4L35 3ZM25 5L25 8L28 8L28 5ZM9 6L9 8L10 8L10 9L11 9L11 7L10 7L10 6ZM26 6L26 7L27 7L27 6ZM36 6L36 7L37 7L37 6ZM38 6L38 7L39 7L39 8L40 8L40 7L39 7L39 6ZM12 7L12 8L13 8L13 7ZM16 8L16 9L17 9L17 8ZM43 9L43 10L44 10L44 9ZM8 10L8 11L9 11L9 10ZM21 10L21 11L22 11L22 13L21 13L21 14L20 14L20 17L21 17L21 18L20 18L20 19L22 19L22 18L23 18L23 20L22 20L22 21L21 21L21 22L20 22L20 24L19 24L19 23L18 23L18 24L19 24L19 26L18 26L18 27L17 27L17 26L16 26L16 27L17 27L17 28L18 28L18 29L19 29L19 28L21 28L21 27L22 27L22 29L21 29L21 30L22 30L22 29L23 29L23 27L24 27L24 30L23 30L23 31L22 31L22 32L24 32L24 31L25 31L25 30L26 30L26 33L28 33L28 35L27 35L27 34L26 34L26 35L24 35L24 36L26 36L26 37L27 37L27 38L26 38L26 41L27 41L27 40L28 40L28 41L30 41L30 40L28 40L28 39L27 39L27 38L28 38L28 37L29 37L29 39L32 39L32 46L34 46L34 47L36 47L36 45L35 45L35 43L36 43L36 42L35 42L35 43L34 43L34 41L35 41L35 39L36 39L36 41L37 41L37 42L38 42L38 41L39 41L39 43L40 43L40 41L41 41L41 43L43 43L43 42L42 42L42 40L43 40L43 41L44 41L44 39L42 39L42 40L41 40L41 39L39 39L39 38L38 38L38 37L39 37L39 36L40 36L40 38L41 38L41 37L42 37L42 36L43 36L43 38L44 38L44 36L45 36L45 37L46 37L46 36L45 36L45 34L44 34L44 33L46 33L46 32L45 32L45 31L44 31L44 32L43 32L43 30L42 30L42 28L43 28L43 26L42 26L42 24L41 24L41 23L40 23L40 26L39 26L39 27L38 27L38 29L37 29L37 27L36 27L36 25L39 25L39 24L38 24L38 23L39 23L39 22L38 22L38 20L39 20L39 19L40 19L40 18L39 18L39 19L38 19L38 17L37 17L37 16L36 16L36 13L37 13L37 14L38 14L38 13L39 13L39 11L38 11L38 13L37 13L37 12L36 12L36 13L35 13L35 14L34 14L34 17L33 17L33 14L32 14L32 18L31 18L31 19L32 19L32 18L33 18L33 19L34 19L34 20L32 20L32 22L31 22L31 23L32 23L32 25L31 25L31 24L30 24L30 21L31 21L31 20L30 20L30 19L29 19L29 16L26 16L26 15L25 15L25 16L24 16L24 15L22 15L22 13L24 13L24 11L22 11L22 10ZM26 10L26 11L25 11L25 12L26 12L26 11L27 11L27 10ZM51 10L51 11L50 11L50 12L49 12L49 13L50 13L50 14L51 14L51 15L52 15L52 14L51 14L51 13L50 13L50 12L51 12L51 11L52 11L52 10ZM43 11L43 14L42 14L42 13L41 13L41 12L40 12L40 13L41 13L41 15L42 15L42 16L40 16L40 14L39 14L39 16L40 16L40 17L41 17L41 18L42 18L42 17L43 17L43 14L44 14L44 13L45 13L45 12L44 12L44 11ZM2 12L2 13L1 13L1 14L2 14L2 13L3 13L3 12ZM7 12L7 13L6 13L6 14L8 14L8 12ZM6 15L6 16L7 16L7 17L9 17L9 16L7 16L7 15ZM21 15L21 16L22 16L22 15ZM10 16L10 17L11 17L11 16ZM23 16L23 17L24 17L24 21L22 21L22 24L23 24L23 23L24 23L24 24L25 24L25 23L26 23L26 24L28 24L28 23L26 23L26 20L27 20L27 21L29 21L29 19L28 19L28 20L27 20L27 18L26 18L26 16L25 16L25 17L24 17L24 16ZM35 16L35 17L34 17L34 19L35 19L35 18L37 18L37 17L36 17L36 16ZM44 16L44 17L45 17L45 16ZM2 18L2 19L3 19L3 18ZM25 18L25 20L26 20L26 18ZM14 19L14 20L15 20L15 19ZM36 19L36 20L34 20L34 23L35 23L35 22L36 22L36 24L34 24L34 26L33 26L33 25L32 25L32 28L31 28L31 25L30 25L30 24L29 24L29 25L30 25L30 27L29 27L29 31L28 31L28 32L29 32L29 33L30 33L30 35L28 35L28 36L29 36L29 37L30 37L30 38L31 38L31 37L32 37L32 36L31 36L31 35L33 35L33 37L34 37L34 38L33 38L33 40L34 40L34 39L35 39L35 38L36 38L36 39L37 39L37 40L38 40L38 38L36 38L36 35L35 35L35 32L34 32L34 31L35 31L35 30L36 30L36 31L37 31L37 32L39 32L39 33L37 33L37 35L38 35L38 36L39 36L39 34L40 34L40 36L41 36L41 34L40 34L40 32L41 32L41 31L40 31L40 30L39 30L39 29L40 29L40 28L42 28L42 27L39 27L39 29L38 29L38 30L37 30L37 29L36 29L36 27L35 27L35 28L34 28L34 26L35 26L35 25L36 25L36 24L37 24L37 23L38 23L38 22L36 22L36 20L38 20L38 19ZM17 21L17 22L18 22L18 21ZM45 21L45 22L44 22L44 23L45 23L45 22L46 22L46 21ZM2 22L2 23L3 23L3 22ZM32 22L32 23L33 23L33 22ZM48 22L48 23L49 23L49 22ZM52 22L52 23L53 23L53 22ZM16 23L16 25L17 25L17 23ZM5 25L5 28L8 28L8 25ZM21 25L21 26L20 26L20 27L21 27L21 26L22 26L22 27L23 27L23 25ZM25 25L25 28L28 28L28 25ZM45 25L45 28L48 28L48 25ZM3 26L3 27L4 27L4 26ZM6 26L6 27L7 27L7 26ZM11 26L11 27L12 27L12 28L14 28L14 27L12 27L12 26ZM26 26L26 27L27 27L27 26ZM46 26L46 27L47 27L47 26ZM32 28L32 29L31 29L31 30L32 30L32 31L34 31L34 28ZM26 29L26 30L28 30L28 29ZM6 30L6 31L5 31L5 32L6 32L6 33L7 33L7 32L6 32L6 31L8 31L8 33L10 33L10 31L11 31L11 30L10 30L10 31L8 31L8 30ZM38 30L38 31L39 31L39 30ZM46 30L46 31L47 31L47 30ZM12 31L12 32L13 32L13 31ZM14 31L14 32L15 32L15 31ZM29 31L29 32L31 32L31 31ZM20 32L20 33L21 33L21 32ZM32 32L32 33L33 33L33 35L34 35L34 32ZM42 32L42 35L43 35L43 32ZM12 33L12 34L13 34L13 33ZM24 33L24 34L25 34L25 33ZM20 34L20 35L21 35L21 34ZM47 34L47 35L48 35L48 34ZM52 34L52 35L53 35L53 34ZM10 36L10 37L11 37L11 36ZM30 36L30 37L31 37L31 36ZM48 36L48 38L49 38L49 39L48 39L48 40L49 40L49 39L50 39L50 40L51 40L51 39L50 39L50 37L49 37L49 36ZM1 38L1 40L2 40L2 41L3 41L3 42L2 42L2 43L3 43L3 42L4 42L4 41L3 41L3 40L2 40L2 39L3 39L3 38ZM14 39L14 40L15 40L15 39ZM20 39L20 40L21 40L21 39ZM39 40L39 41L40 41L40 40ZM5 41L5 42L7 42L7 41ZM48 41L48 42L47 42L47 43L48 43L48 44L49 44L49 43L48 43L48 42L50 42L50 41ZM26 42L26 43L27 43L27 42ZM33 43L33 44L34 44L34 43ZM6 44L6 45L7 45L7 44ZM19 44L19 45L20 45L20 46L19 46L19 47L18 47L18 48L19 48L19 47L20 47L20 46L21 46L21 45L20 45L20 44ZM25 45L25 48L28 48L28 45ZM34 45L34 46L35 46L35 45ZM45 45L45 48L48 48L48 45ZM49 45L49 46L50 46L50 45ZM26 46L26 47L27 47L27 46ZM46 46L46 47L47 47L47 46ZM9 47L9 48L10 48L10 47ZM13 47L13 48L14 48L14 47ZM11 49L11 51L12 51L12 49ZM16 50L16 51L17 51L17 50ZM28 51L28 52L29 52L29 51ZM33 51L33 52L34 52L34 51ZM52 52L52 53L53 53L53 52ZM0 0L0 7L7 7L7 0ZM1 1L1 6L6 6L6 1ZM2 2L2 5L5 5L5 2ZM46 0L46 7L53 7L53 0ZM47 1L47 6L52 6L52 1ZM48 2L48 5L51 5L51 2ZM0 46L0 53L7 53L7 46ZM1 47L1 52L6 52L6 47ZM2 48L2 51L5 51L5 48Z" fill="#000000"/></g></g></svg>
