<?xml version="1.0" encoding="UTF-8"?>
<svg xmlns="http://www.w3.org/2000/svg" version="1.1" width="356" height="356" viewBox="0 0 356 356"><rect x="0" y="0" width="356" height="356" fill="#ffffff"/><g transform="scale(6.717)"><g transform="translate(0,0)"><path fill-rule="evenodd" d="M8 0L8 2L9 2L9 3L10 3L10 4L8 4L8 10L6 10L6 11L5 11L5 9L7 9L7 8L5 8L5 9L4 9L4 10L3 10L3 8L0 8L0 9L2 9L2 10L3 10L3 11L1 11L1 10L0 10L0 11L1 11L1 12L3 12L3 11L5 11L5 12L4 12L4 13L2 13L2 14L4 14L4 15L7 15L7 14L4 14L4 13L5 13L5 12L6 12L6 13L8 13L8 12L6 12L6 11L9 11L9 13L10 13L10 14L9 14L9 15L8 15L8 16L5 16L5 18L6 18L6 19L8 19L8 20L10 20L10 17L11 17L11 16L12 16L12 19L13 19L13 20L11 20L11 21L10 21L10 22L8 22L8 21L7 21L7 20L6 20L6 21L5 21L5 20L4 20L4 16L0 16L0 17L1 17L1 19L0 19L0 20L2 20L2 21L3 21L3 22L1 22L1 21L0 21L0 22L1 22L1 23L3 23L3 24L2 24L2 25L1 25L1 24L0 24L0 25L1 25L1 26L0 26L0 27L3 27L3 28L4 28L4 29L3 29L3 31L0 31L0 32L1 32L1 34L2 34L2 35L1 35L1 36L0 36L0 37L1 37L1 38L0 38L0 39L1 39L1 42L0 42L0 43L1 43L1 44L3 44L3 45L4 45L4 44L3 44L3 43L7 43L7 42L6 42L6 41L8 41L8 40L9 40L9 42L8 42L8 43L9 43L9 44L6 44L6 45L8 45L8 46L9 46L9 47L8 47L8 48L10 48L10 49L9 49L9 50L8 50L8 53L9 53L9 52L11 52L11 53L16 53L16 52L18 52L18 53L19 53L19 52L18 52L18 49L19 49L19 48L18 48L18 47L20 47L20 49L21 49L21 47L20 47L20 45L19 45L19 44L21 44L21 46L23 46L23 47L22 47L22 48L23 48L23 50L20 50L20 51L21 51L21 52L20 52L20 53L21 53L21 52L22 52L22 53L23 53L23 50L24 50L24 53L27 53L27 52L28 52L28 53L31 53L31 52L30 52L30 51L32 51L32 53L33 53L33 51L34 51L34 53L35 53L35 52L36 52L36 53L38 53L38 52L39 52L39 53L41 53L41 50L42 50L42 48L43 48L43 50L44 50L44 51L45 51L45 53L46 53L46 51L47 51L47 50L46 50L46 49L48 49L48 51L49 51L49 48L50 48L50 46L52 46L52 47L51 47L51 48L53 48L53 46L52 46L52 44L53 44L53 42L52 42L52 44L50 44L50 43L49 43L49 42L50 42L50 41L51 41L51 40L50 40L50 39L51 39L51 38L52 38L52 39L53 39L53 38L52 38L52 37L51 37L51 36L50 36L50 35L48 35L48 33L49 33L49 34L51 34L51 33L52 33L52 32L53 32L53 29L52 29L52 27L53 27L53 26L52 26L52 27L51 27L51 28L50 28L50 27L49 27L49 26L50 26L50 23L51 23L51 24L52 24L52 23L53 23L53 22L52 22L52 23L51 23L51 21L53 21L53 18L52 18L52 20L51 20L51 21L49 21L49 20L50 20L50 19L49 19L49 20L48 20L48 17L50 17L50 18L51 18L51 17L50 17L50 16L49 16L49 15L51 15L51 16L53 16L53 14L52 14L52 13L53 13L53 10L52 10L52 9L53 9L53 8L51 8L51 10L50 10L50 9L49 9L49 8L45 8L45 6L44 6L44 7L43 7L43 3L44 3L44 4L45 4L45 3L44 3L44 1L43 1L43 0L42 0L42 2L40 2L40 3L39 3L39 0L38 0L38 3L39 3L39 4L38 4L38 5L40 5L40 7L39 7L39 6L38 6L38 7L39 7L39 9L40 9L40 10L39 10L39 12L40 12L40 13L39 13L39 14L40 14L40 13L41 13L41 15L43 15L43 14L44 14L44 15L46 15L46 17L45 17L45 19L44 19L44 16L42 16L42 17L41 17L41 16L40 16L40 15L39 15L39 16L40 16L40 17L39 17L39 18L40 18L40 23L39 23L39 22L38 22L38 21L37 21L37 20L36 20L36 21L35 21L35 19L38 19L38 20L39 20L39 19L38 19L38 11L37 11L37 10L38 10L38 9L37 9L37 8L36 8L36 9L35 9L35 10L34 10L34 9L33 9L33 5L32 5L32 2L34 2L34 7L35 7L35 6L36 6L36 7L37 7L37 4L36 4L36 3L37 3L37 0L36 0L36 3L35 3L35 0L34 0L34 1L33 1L33 0L32 0L32 2L31 2L31 0L30 0L30 2L28 2L28 0L26 0L26 4L24 4L24 1L25 1L25 0L24 0L24 1L23 1L23 0L22 0L22 1L21 1L21 0L18 0L18 1L16 1L16 2L18 2L18 1L19 1L19 4L20 4L20 5L18 5L18 3L15 3L15 5L16 5L16 7L17 7L17 6L18 6L18 8L19 8L19 12L18 12L18 10L16 10L16 11L17 11L17 12L18 12L18 14L16 14L16 12L14 12L14 11L15 11L15 10L14 10L14 9L15 9L15 8L14 8L14 7L15 7L15 6L14 6L14 7L13 7L13 6L12 6L12 5L13 5L13 4L11 4L11 3L12 3L12 2L13 2L13 3L14 3L14 1L15 1L15 0L13 0L13 1L12 1L12 0L10 0L10 2L9 2L9 0ZM20 1L20 2L21 2L21 1ZM22 1L22 2L23 2L23 1ZM30 2L30 3L31 3L31 2ZM42 2L42 3L40 3L40 5L42 5L42 3L43 3L43 2ZM22 3L22 4L23 4L23 5L20 5L20 6L19 6L19 8L20 8L20 6L21 6L21 7L22 7L22 6L23 6L23 7L24 7L24 4L23 4L23 3ZM28 3L28 4L29 4L29 5L30 5L30 6L29 6L29 9L27 9L27 11L26 11L26 10L25 10L25 9L24 9L24 8L23 8L23 9L22 9L22 8L21 8L21 10L20 10L20 11L21 11L21 12L20 12L20 14L19 14L19 15L18 15L18 16L19 16L19 17L18 17L18 18L19 18L19 20L21 20L21 21L20 21L20 22L19 22L19 21L18 21L18 19L17 19L17 18L16 18L16 19L17 19L17 20L16 20L16 23L14 23L14 24L15 24L15 25L14 25L14 26L15 26L15 28L16 28L16 30L13 30L13 28L14 28L14 27L11 27L11 26L10 26L10 28L9 28L9 30L7 30L7 29L5 29L5 32L4 32L4 31L3 31L3 32L4 32L4 33L3 33L3 35L2 35L2 36L1 36L1 37L2 37L2 38L1 38L1 39L2 39L2 38L3 38L3 35L4 35L4 36L5 36L5 37L4 37L4 38L7 38L7 39L4 39L4 40L8 40L8 38L9 38L9 39L10 39L10 40L12 40L12 41L10 41L10 42L9 42L9 43L10 43L10 44L9 44L9 46L11 46L11 45L10 45L10 44L11 44L11 43L12 43L12 42L13 42L13 40L12 40L12 39L10 39L10 38L9 38L9 37L12 37L12 36L13 36L13 38L15 38L15 39L14 39L14 40L15 40L15 41L14 41L14 42L15 42L15 44L16 44L16 47L15 47L15 48L14 48L14 49L15 49L15 48L16 48L16 47L17 47L17 46L19 46L19 45L18 45L18 43L19 43L19 40L20 40L20 39L21 39L21 37L22 37L22 38L24 38L24 39L22 39L22 40L23 40L23 41L22 41L22 42L23 42L23 41L24 41L24 42L25 42L25 43L24 43L24 44L25 44L25 43L26 43L26 44L27 44L27 43L28 43L28 44L30 44L30 46L29 46L29 47L30 47L30 50L32 50L32 51L33 51L33 49L32 49L32 48L34 48L34 50L35 50L35 51L36 51L36 52L38 52L38 50L40 50L40 48L42 48L42 46L43 46L43 48L44 48L44 46L43 46L43 44L42 44L42 43L41 43L41 42L40 42L40 40L42 40L42 42L43 42L43 43L44 43L44 42L45 42L45 43L46 43L46 42L45 42L45 40L44 40L44 41L43 41L43 39L46 39L46 38L47 38L47 36L48 36L48 38L49 38L49 39L48 39L48 40L46 40L46 41L48 41L48 42L47 42L47 43L48 43L48 44L49 44L49 46L50 46L50 44L49 44L49 43L48 43L48 42L49 42L49 41L48 41L48 40L49 40L49 39L50 39L50 36L48 36L48 35L47 35L47 36L46 36L46 33L47 33L47 32L48 32L48 30L49 30L49 31L50 31L50 32L49 32L49 33L51 33L51 32L52 32L52 29L50 29L50 30L49 30L49 29L48 29L48 30L47 30L47 32L46 32L46 33L44 33L44 34L43 34L43 33L42 33L42 30L45 30L45 31L46 31L46 30L45 30L45 29L44 29L44 26L43 26L43 25L44 25L44 24L46 24L46 23L47 23L47 24L49 24L49 23L50 23L50 22L49 22L49 21L48 21L48 20L46 20L46 22L45 22L45 20L44 20L44 19L43 19L43 17L42 17L42 18L41 18L41 19L42 19L42 20L41 20L41 21L42 21L42 22L41 22L41 23L42 23L42 24L41 24L41 25L40 25L40 24L39 24L39 23L38 23L38 24L37 24L37 23L36 23L36 22L37 22L37 21L36 21L36 22L35 22L35 21L34 21L34 19L35 19L35 18L37 18L37 17L36 17L36 16L37 16L37 13L36 13L36 11L35 11L35 12L34 12L34 11L33 11L33 10L31 10L31 9L32 9L32 5L30 5L30 4L29 4L29 3ZM10 4L10 5L9 5L9 9L10 9L10 13L11 13L11 14L10 14L10 15L11 15L11 14L13 14L13 19L14 19L14 20L15 20L15 19L14 19L14 18L15 18L15 16L14 16L14 15L16 15L16 14L13 14L13 13L12 13L12 12L11 12L11 8L10 8L10 6L11 6L11 7L12 7L12 8L13 8L13 7L12 7L12 6L11 6L11 4ZM35 4L35 5L36 5L36 4ZM25 5L25 8L28 8L28 5ZM26 6L26 7L27 7L27 6ZM30 6L30 7L31 7L31 6ZM41 6L41 7L42 7L42 6ZM16 8L16 9L17 9L17 8ZM30 8L30 9L29 9L29 10L28 10L28 11L29 11L29 10L30 10L30 12L28 12L28 16L26 16L26 15L27 15L27 12L26 12L26 11L25 11L25 10L24 10L24 11L23 11L23 10L21 10L21 11L22 11L22 13L21 13L21 14L20 14L20 17L21 17L21 18L20 18L20 19L22 19L22 18L23 18L23 20L22 20L22 21L21 21L21 22L20 22L20 24L19 24L19 23L18 23L18 24L19 24L19 26L18 26L18 27L17 27L17 26L16 26L16 27L17 27L17 28L18 28L18 29L19 29L19 28L21 28L21 27L20 27L20 26L21 26L21 25L23 25L23 26L22 26L22 29L21 29L21 30L16 30L16 32L15 32L15 31L14 31L14 32L15 32L15 34L13 34L13 33L11 33L11 32L9 32L9 33L8 33L8 35L7 35L7 34L6 34L6 33L7 33L7 32L6 32L6 33L5 33L5 35L7 35L7 36L6 36L6 37L7 37L7 36L8 36L8 37L9 37L9 35L10 35L10 36L12 36L12 35L15 35L15 36L14 36L14 37L15 37L15 38L16 38L16 36L17 36L17 35L16 35L16 34L18 34L18 38L19 38L19 39L18 39L18 40L19 40L19 39L20 39L20 38L19 38L19 34L18 34L18 33L19 33L19 32L18 32L18 31L21 31L21 30L22 30L22 29L23 29L23 26L24 26L24 30L23 30L23 31L22 31L22 32L23 32L23 33L24 33L24 34L22 34L22 35L21 35L21 34L20 34L20 35L21 35L21 36L22 36L22 37L24 37L24 38L25 38L25 37L24 37L24 36L22 36L22 35L26 35L26 37L27 37L27 36L28 36L28 35L29 35L29 36L30 36L30 37L29 37L29 38L30 38L30 39L29 39L29 40L30 40L30 39L31 39L31 38L32 38L32 37L33 37L33 35L34 35L34 36L35 36L35 35L37 35L37 36L36 36L36 37L37 37L37 38L36 38L36 41L37 41L37 42L38 42L38 41L39 41L39 40L38 40L38 37L39 37L39 36L40 36L40 38L42 38L42 37L44 37L44 38L45 38L45 37L46 37L46 36L45 36L45 37L44 37L44 35L42 35L42 37L41 37L41 36L40 36L40 35L41 35L41 34L40 34L40 33L41 33L41 30L42 30L42 28L43 28L43 26L42 26L42 25L41 25L41 26L38 26L38 25L39 25L39 24L38 24L38 25L37 25L37 24L36 24L36 23L35 23L35 22L34 22L34 21L33 21L33 19L34 19L34 17L35 17L35 16L36 16L36 15L35 15L35 14L36 14L36 13L35 13L35 14L34 14L34 12L32 12L32 11L31 11L31 10L30 10L30 9L31 9L31 8ZM42 8L42 10L41 10L41 11L40 11L40 12L42 12L42 14L43 14L43 12L45 12L45 13L44 13L44 14L45 14L45 13L46 13L46 14L48 14L48 15L49 15L49 14L48 14L48 9L46 9L46 10L47 10L47 13L46 13L46 12L45 12L45 11L44 11L44 10L45 10L45 8L44 8L44 10L43 10L43 8ZM13 10L13 11L14 11L14 10ZM42 10L42 11L43 11L43 10ZM51 10L51 11L50 11L50 14L51 14L51 15L52 15L52 14L51 14L51 11L52 11L52 10ZM24 11L24 12L25 12L25 11ZM30 12L30 14L29 14L29 15L30 15L30 16L31 16L31 17L30 17L30 18L32 18L32 19L30 19L30 20L31 20L31 21L30 21L30 22L32 22L32 23L29 23L29 24L30 24L30 26L29 26L29 27L31 27L31 25L32 25L32 28L31 28L31 29L30 29L30 28L29 28L29 29L28 29L28 30L26 30L26 29L25 29L25 30L26 30L26 31L25 31L25 34L26 34L26 35L28 35L28 34L26 34L26 31L28 31L28 32L27 32L27 33L28 33L28 32L30 32L30 31L31 31L31 33L30 33L30 34L29 34L29 35L30 35L30 36L31 36L31 35L33 35L33 33L32 33L32 32L34 32L34 35L35 35L35 32L34 32L34 31L38 31L38 32L39 32L39 31L40 31L40 30L41 30L41 29L40 29L40 28L42 28L42 26L41 26L41 27L39 27L39 29L38 29L38 28L37 28L37 29L36 29L36 30L35 30L35 29L34 29L34 31L31 31L31 29L32 29L32 30L33 30L33 29L32 29L32 28L33 28L33 27L34 27L34 28L35 28L35 27L34 27L34 26L35 26L35 25L36 25L36 27L38 27L38 26L37 26L37 25L36 25L36 24L34 24L34 26L33 26L33 25L32 25L32 23L34 23L34 22L32 22L32 19L33 19L33 18L32 18L32 15L33 15L33 17L34 17L34 14L32 14L32 12ZM25 13L25 14L24 14L24 16L25 16L25 17L26 17L26 16L25 16L25 14L26 14L26 13ZM0 14L0 15L1 15L1 14ZM22 14L22 15L21 15L21 16L22 16L22 15L23 15L23 14ZM30 14L30 15L32 15L32 14ZM8 16L8 17L6 17L6 18L8 18L8 17L9 17L9 16ZM2 17L2 19L3 19L3 17ZM28 17L28 18L26 18L26 20L25 20L25 18L24 18L24 24L25 24L25 22L26 22L26 24L28 24L28 23L27 23L27 22L26 22L26 21L27 21L27 19L28 19L28 21L29 21L29 19L28 19L28 18L29 18L29 17ZM46 17L46 19L47 19L47 17ZM3 20L3 21L4 21L4 22L3 22L3 23L4 23L4 24L3 24L3 25L2 25L2 26L3 26L3 27L4 27L4 24L5 24L5 23L4 23L4 22L5 22L5 21L4 21L4 20ZM42 20L42 21L43 21L43 20ZM6 21L6 22L7 22L7 23L6 23L6 24L9 24L9 25L10 25L10 23L8 23L8 22L7 22L7 21ZM12 21L12 24L13 24L13 21ZM17 21L17 22L18 22L18 21ZM22 21L22 24L23 24L23 21ZM44 22L44 23L43 23L43 24L44 24L44 23L45 23L45 22ZM48 22L48 23L49 23L49 22ZM16 23L16 25L17 25L17 23ZM5 25L5 28L8 28L8 25ZM25 25L25 28L28 28L28 25ZM45 25L45 28L48 28L48 25ZM6 26L6 27L7 27L7 26ZM26 26L26 27L27 27L27 26ZM46 26L46 27L47 27L47 26ZM1 28L1 30L2 30L2 28ZM10 28L10 31L11 31L11 29L12 29L12 28ZM37 29L37 30L38 30L38 31L39 31L39 30L38 30L38 29ZM6 30L6 31L7 31L7 30ZM28 30L28 31L29 31L29 30ZM50 30L50 31L51 31L51 30ZM23 31L23 32L24 32L24 31ZM43 31L43 32L44 32L44 31ZM20 32L20 33L21 33L21 32ZM9 33L9 34L11 34L11 33ZM38 33L38 36L39 36L39 35L40 35L40 34L39 34L39 33ZM30 34L30 35L31 35L31 34ZM52 34L52 35L53 35L53 34ZM30 37L30 38L31 38L31 37ZM26 38L26 39L27 39L27 40L26 40L26 41L25 41L25 42L26 42L26 41L27 41L27 42L28 42L28 38ZM15 39L15 40L16 40L16 41L17 41L17 39ZM32 39L32 43L34 43L34 41L35 41L35 39L34 39L34 40L33 40L33 39ZM2 40L2 43L3 43L3 40ZM52 40L52 41L53 41L53 40ZM29 41L29 42L30 42L30 44L31 44L31 42L30 42L30 41ZM16 42L16 43L18 43L18 42ZM20 42L20 43L21 43L21 44L22 44L22 43L21 43L21 42ZM35 42L35 44L36 44L36 45L35 45L35 46L34 46L34 44L32 44L32 46L30 46L30 47L31 47L31 48L32 48L32 46L34 46L34 47L36 47L36 45L37 45L37 47L38 47L38 48L36 48L36 49L37 49L37 50L36 50L36 51L37 51L37 50L38 50L38 48L40 48L40 47L41 47L41 46L42 46L42 44L40 44L40 45L41 45L41 46L40 46L40 47L38 47L38 45L39 45L39 43L40 43L40 42L39 42L39 43L37 43L37 44L36 44L36 42ZM12 44L12 46L13 46L13 45L14 45L14 44ZM25 45L25 48L28 48L28 45ZM45 45L45 48L48 48L48 45ZM26 46L26 47L27 47L27 46ZM46 46L46 47L47 47L47 46ZM11 47L11 48L12 48L12 49L11 49L11 50L10 50L10 51L12 51L12 50L13 50L13 51L15 51L15 50L13 50L13 47ZM26 49L26 50L25 50L25 52L27 52L27 50L28 50L28 49ZM44 49L44 50L45 50L45 51L46 51L46 50L45 50L45 49ZM16 50L16 51L17 51L17 50ZM50 50L50 51L51 51L51 50ZM28 51L28 52L29 52L29 51ZM42 51L42 53L44 53L44 52L43 52L43 51ZM47 52L47 53L49 53L49 52ZM52 52L52 53L53 53L53 52ZM0 0L0 7L7 7L7 0ZM1 1L1 6L6 6L6 1ZM2 2L2 5L5 5L5 2ZM46 0L46 7L53 7L53 0ZM47 1L47 6L52 6L52 1ZM48 2L48 5L51 5L51 2ZM0 46L0 53L7 53L7 46ZM1 47L1 52L6 52L6 47ZM2 48L2 51L5 51L5 48Z" fill="#000000"/></g></g></svg>
