<?xml version="1.0" encoding="UTF-8"?>
<svg xmlns="http://www.w3.org/2000/svg" version="1.1" width="356" height="356" viewBox="0 0 356 356"><rect x="0" y="0" width="356" height="356" fill="#ffffff"/><g transform="scale(6.717)"><g transform="translate(0,0)"><path fill-rule="evenodd" d="M8 0L8 4L10 4L10 5L11 5L11 6L10 6L10 8L9 8L9 9L8 9L8 10L6 10L6 9L7 9L7 8L4 8L4 10L6 10L6 11L7 11L7 12L6 12L6 13L5 13L5 15L3 15L3 13L2 13L2 11L3 11L3 12L5 12L5 11L3 11L3 9L2 9L2 8L0 8L0 11L1 11L1 13L0 13L0 14L1 14L1 15L0 15L0 18L2 18L2 19L5 19L5 20L3 20L3 21L5 21L5 23L4 23L4 22L2 22L2 20L1 20L1 22L2 22L2 23L1 23L1 25L2 25L2 24L3 24L3 25L4 25L4 26L2 26L2 27L4 27L4 29L5 29L5 32L6 32L6 33L4 33L4 30L3 30L3 34L2 34L2 35L3 35L3 36L4 36L4 35L5 35L5 37L7 37L7 38L5 38L5 39L4 39L4 42L3 42L3 41L2 41L2 40L3 40L3 39L0 39L0 40L1 40L1 41L0 41L0 43L1 43L1 44L3 44L3 45L4 45L4 44L3 44L3 43L7 43L7 42L9 42L9 43L8 43L8 44L6 44L6 45L8 45L8 46L10 46L10 45L11 45L11 47L12 47L12 49L11 49L11 50L10 50L10 51L8 51L8 53L10 53L10 51L11 51L11 52L12 52L12 53L13 53L13 52L14 52L14 50L15 50L15 51L16 51L16 50L17 50L17 51L20 51L20 50L21 50L21 51L22 51L22 50L21 50L21 49L23 49L23 48L22 48L22 47L21 47L21 48L20 48L20 46L21 46L21 45L22 45L22 43L21 43L21 42L22 42L22 41L21 41L21 40L20 40L20 39L19 39L19 38L21 38L21 39L22 39L22 40L23 40L23 43L24 43L24 44L23 44L23 47L24 47L24 50L25 50L25 52L24 52L24 51L23 51L23 53L25 53L25 52L27 52L27 53L28 53L28 52L29 52L29 53L30 53L30 52L29 52L29 51L30 51L30 50L32 50L32 51L31 51L31 52L32 52L32 53L34 53L34 51L35 51L35 53L38 53L38 52L36 52L36 51L35 51L35 50L37 50L37 51L38 51L38 50L39 50L39 51L41 51L41 53L42 53L42 51L43 51L43 53L44 53L44 50L45 50L45 51L46 51L46 53L47 53L47 52L48 52L48 53L49 53L49 52L50 52L50 49L49 49L49 48L50 48L50 47L51 47L51 49L53 49L53 48L52 48L52 47L53 47L53 44L52 44L52 43L53 43L53 42L52 42L52 43L51 43L51 44L50 44L50 43L49 43L49 41L50 41L50 42L51 42L51 40L52 40L52 41L53 41L53 40L52 40L52 39L53 39L53 38L52 38L52 39L51 39L51 40L50 40L50 37L53 37L53 34L52 34L52 35L51 35L51 34L49 34L49 33L47 33L47 34L46 34L46 35L45 35L45 34L44 34L44 35L41 35L41 34L43 34L43 33L44 33L44 32L45 32L45 33L46 33L46 31L47 31L47 32L50 32L50 30L51 30L51 28L50 28L50 27L49 27L49 25L50 25L50 26L51 26L51 25L53 25L53 22L52 22L52 21L51 21L51 22L52 22L52 24L51 24L51 25L50 25L50 22L46 22L46 15L48 15L48 17L47 17L47 21L49 21L49 20L48 20L48 19L51 19L51 20L52 20L52 19L53 19L53 18L52 18L52 19L51 19L51 17L50 17L50 16L49 16L49 15L48 15L48 14L49 14L49 13L50 13L50 14L51 14L51 13L50 13L50 11L51 11L51 10L52 10L52 11L53 11L53 10L52 10L52 9L53 9L53 8L49 8L49 10L50 10L50 11L48 11L48 12L47 12L47 14L46 14L46 11L47 11L47 10L46 10L46 9L45 9L45 6L44 6L44 7L43 7L43 3L44 3L44 4L45 4L45 3L44 3L44 1L43 1L43 0L42 0L42 1L40 1L40 0L38 0L38 1L37 1L37 0L35 0L35 1L34 1L34 0L32 0L32 1L31 1L31 0L27 0L27 3L25 3L25 1L26 1L26 0L22 0L22 1L21 1L21 0L11 0L11 1L10 1L10 0ZM13 1L13 5L12 5L12 6L11 6L11 8L10 8L10 11L9 11L9 12L10 12L10 15L9 15L9 16L8 16L8 15L6 15L6 16L8 16L8 17L6 17L6 18L9 18L9 20L10 20L10 23L5 23L5 24L9 24L9 26L10 26L10 25L11 25L11 24L10 24L10 23L12 23L12 24L13 24L13 23L14 23L14 24L15 24L15 21L16 21L16 25L15 25L15 26L14 26L14 25L13 25L13 28L14 28L14 27L16 27L16 26L17 26L17 28L18 28L18 27L20 27L20 26L23 26L23 27L21 27L21 28L19 28L19 29L21 29L21 30L18 30L18 29L16 29L16 28L15 28L15 29L12 29L12 28L11 28L11 29L10 29L10 30L11 30L11 31L9 31L9 29L8 29L8 30L7 30L7 29L6 29L6 30L7 30L7 31L6 31L6 32L8 32L8 33L6 33L6 34L5 34L5 35L6 35L6 36L7 36L7 37L8 37L8 38L7 38L7 39L6 39L6 40L7 40L7 39L8 39L8 41L9 41L9 42L11 42L11 45L12 45L12 47L13 47L13 46L15 46L15 45L16 45L16 48L15 48L15 47L14 47L14 48L13 48L13 49L14 49L14 48L15 48L15 49L18 49L18 48L19 48L19 49L20 49L20 48L19 48L19 46L20 46L20 44L19 44L19 46L18 46L18 45L16 45L16 44L15 44L15 43L16 43L16 42L18 42L18 41L19 41L19 43L20 43L20 42L21 42L21 41L19 41L19 40L18 40L18 41L17 41L17 39L18 39L18 38L19 38L19 37L21 37L21 38L26 38L26 39L24 39L24 41L26 41L26 39L30 39L30 40L28 40L28 41L27 41L27 42L26 42L26 44L28 44L28 43L29 43L29 42L28 42L28 41L32 41L32 44L29 44L29 45L32 45L32 44L33 44L33 41L34 41L34 43L38 43L38 44L37 44L37 45L38 45L38 44L39 44L39 43L40 43L40 42L41 42L41 43L42 43L42 42L41 42L41 41L43 41L43 42L44 42L44 41L43 41L43 40L44 40L44 39L46 39L46 40L45 40L45 41L46 41L46 42L45 42L45 44L47 44L47 43L46 43L46 42L47 42L47 41L48 41L48 40L49 40L49 38L48 38L48 39L46 39L46 38L47 38L47 37L49 37L49 36L48 36L48 35L47 35L47 36L46 36L46 37L45 37L45 35L44 35L44 37L43 37L43 39L41 39L41 36L40 36L40 38L38 38L38 36L37 36L37 34L38 34L38 33L39 33L39 35L40 35L40 34L41 34L41 32L42 32L42 33L43 33L43 32L44 32L44 30L41 30L41 29L44 29L44 27L43 27L43 26L41 26L41 27L43 27L43 28L40 28L40 25L43 25L43 23L41 23L41 21L42 21L42 20L43 20L43 21L45 21L45 19L44 19L44 16L45 16L45 15L46 15L46 14L44 14L44 13L43 13L43 12L40 12L40 11L39 11L39 10L38 10L38 9L39 9L39 8L38 8L38 9L36 9L36 12L37 12L37 11L38 11L38 13L34 13L34 12L35 12L35 11L34 11L34 12L33 12L33 11L31 11L31 10L33 10L33 9L32 9L32 6L33 6L33 7L34 7L34 6L33 6L33 5L32 5L32 4L34 4L34 5L35 5L35 4L36 4L36 5L37 5L37 7L36 7L36 6L35 6L35 7L36 7L36 8L37 8L37 7L38 7L38 4L37 4L37 1L35 1L35 2L34 2L34 3L31 3L31 2L30 2L30 1L28 1L28 3L27 3L27 4L28 4L28 3L29 3L29 2L30 2L30 4L31 4L31 8L30 8L30 6L29 6L29 9L31 9L31 10L30 10L30 11L31 11L31 12L29 12L29 11L28 11L28 9L27 9L27 10L26 10L26 9L25 9L25 10L24 10L24 11L23 11L23 8L22 8L22 5L23 5L23 7L24 7L24 5L23 5L23 4L22 4L22 3L24 3L24 2L22 2L22 3L21 3L21 2L20 2L20 1L19 1L19 3L18 3L18 2L16 2L16 1L15 1L15 3L14 3L14 1ZM32 1L32 2L33 2L33 1ZM9 2L9 3L10 3L10 2ZM38 2L38 3L39 3L39 7L40 7L40 9L41 9L41 8L42 8L42 9L43 9L43 10L41 10L41 11L43 11L43 10L44 10L44 8L43 8L43 7L42 7L42 6L41 6L41 7L40 7L40 3L39 3L39 2ZM42 2L42 3L41 3L41 4L42 4L42 3L43 3L43 2ZM19 3L19 4L20 4L20 8L19 8L19 6L18 6L18 5L16 5L16 7L15 7L15 5L13 5L13 6L12 6L12 8L13 8L13 9L11 9L11 11L10 11L10 12L11 12L11 11L12 11L12 14L11 14L11 15L12 15L12 16L9 16L9 18L12 18L12 16L13 16L13 15L14 15L14 16L15 16L15 14L16 14L16 15L18 15L18 14L16 14L16 13L20 13L20 14L19 14L19 15L20 15L20 17L19 17L19 16L18 16L18 17L13 17L13 19L10 19L10 20L13 20L13 21L11 21L11 22L13 22L13 21L15 21L15 20L14 20L14 18L15 18L15 19L16 19L16 18L17 18L17 20L16 20L16 21L17 21L17 22L18 22L18 23L17 23L17 25L18 25L18 26L19 26L19 25L21 25L21 23L22 23L22 24L23 24L23 23L22 23L22 20L19 20L19 19L20 19L20 18L24 18L24 19L23 19L23 21L25 21L25 20L26 20L26 21L28 21L28 23L27 23L27 22L26 22L26 23L25 23L25 24L24 24L24 27L23 27L23 28L24 28L24 29L25 29L25 31L24 31L24 30L23 30L23 29L22 29L22 28L21 28L21 29L22 29L22 30L23 30L23 32L22 32L22 31L21 31L21 32L20 32L20 33L19 33L19 32L18 32L18 33L12 33L12 32L13 32L13 31L14 31L14 32L16 32L16 31L18 31L18 30L16 30L16 29L15 29L15 30L12 30L12 29L11 29L11 30L12 30L12 31L11 31L11 34L10 34L10 36L11 36L11 37L13 37L13 38L10 38L10 37L9 37L9 38L8 38L8 39L12 39L12 40L11 40L11 41L12 41L12 44L13 44L13 45L15 45L15 44L13 44L13 43L15 43L15 41L16 41L16 40L14 40L14 39L13 39L13 38L16 38L16 37L19 37L19 35L20 35L20 34L21 34L21 33L23 33L23 35L24 35L24 33L25 33L25 36L26 36L26 38L28 38L28 36L30 36L30 37L29 37L29 38L31 38L31 39L32 39L32 41L33 41L33 40L34 40L34 39L32 39L32 38L33 38L33 37L34 37L34 33L35 33L35 38L36 38L36 39L35 39L35 42L36 42L36 41L38 41L38 43L39 43L39 41L40 41L40 40L41 40L41 39L40 39L40 40L37 40L37 36L36 36L36 33L37 33L37 32L38 32L38 31L39 31L39 33L40 33L40 32L41 32L41 30L40 30L40 31L39 31L39 29L40 29L40 28L39 28L39 27L37 27L37 24L38 24L38 26L39 26L39 25L40 25L40 24L39 24L39 23L40 23L40 21L38 21L38 20L39 20L39 19L42 19L42 18L43 18L43 17L41 17L41 18L39 18L39 17L40 17L40 15L41 15L41 16L42 16L42 15L43 15L43 16L44 16L44 14L43 14L43 13L40 13L40 12L39 12L39 13L38 13L38 15L39 15L39 17L38 17L38 18L39 18L39 19L38 19L38 20L34 20L34 15L37 15L37 14L34 14L34 13L33 13L33 12L32 12L32 14L31 14L31 13L29 13L29 12L28 12L28 11L27 11L27 12L26 12L26 10L25 10L25 12L23 12L23 13L22 13L22 10L20 10L20 11L19 11L19 9L22 9L22 8L21 8L21 5L22 5L22 4L21 4L21 3ZM34 3L34 4L35 4L35 3ZM8 5L8 7L9 7L9 5ZM25 5L25 8L28 8L28 5ZM13 6L13 7L14 7L14 8L15 8L15 7L14 7L14 6ZM17 6L17 7L18 7L18 6ZM26 6L26 7L27 7L27 6ZM16 8L16 9L15 9L15 10L14 10L14 9L13 9L13 10L14 10L14 12L15 12L15 13L13 13L13 14L12 14L12 15L13 15L13 14L15 14L15 13L16 13L16 12L15 12L15 11L16 11L16 10L18 10L18 9L19 9L19 8L18 8L18 9L17 9L17 8ZM47 8L47 9L48 9L48 8ZM1 9L1 10L2 10L2 9ZM34 9L34 10L35 10L35 9ZM50 9L50 10L51 10L51 9ZM17 11L17 12L19 12L19 11ZM44 11L44 12L45 12L45 11ZM7 12L7 13L6 13L6 14L7 14L7 13L8 13L8 14L9 14L9 13L8 13L8 12ZM20 12L20 13L21 13L21 14L20 14L20 15L21 15L21 14L22 14L22 16L21 16L21 17L23 17L23 16L25 16L25 14L26 14L26 16L28 16L28 14L29 14L29 13L28 13L28 12L27 12L27 13L28 13L28 14L26 14L26 12L25 12L25 14L24 14L24 13L23 13L23 14L22 14L22 13L21 13L21 12ZM52 13L52 15L51 15L51 16L52 16L52 17L53 17L53 16L52 16L52 15L53 15L53 13ZM30 14L30 15L29 15L29 17L30 17L30 16L31 16L31 17L32 17L32 18L31 18L31 19L29 19L29 21L30 21L30 20L31 20L31 21L32 21L32 22L33 22L33 21L34 21L34 23L33 23L33 25L34 25L34 26L33 26L33 27L32 27L32 23L31 23L31 27L29 27L29 29L26 29L26 31L27 31L27 32L28 32L28 35L26 35L26 36L28 36L28 35L29 35L29 32L30 32L30 33L32 33L32 32L33 32L33 33L34 33L34 32L35 32L35 33L36 33L36 31L34 31L34 30L35 30L35 29L36 29L36 27L34 27L34 26L35 26L35 25L34 25L34 24L37 24L37 23L39 23L39 22L38 22L38 21L37 21L37 22L36 22L36 21L34 21L34 20L33 20L33 21L32 21L32 18L33 18L33 17L32 17L32 15L31 15L31 14ZM33 14L33 15L34 15L34 14ZM1 16L1 17L2 17L2 16ZM4 16L4 17L3 17L3 18L5 18L5 16ZM35 16L35 17L36 17L36 18L35 18L35 19L36 19L36 18L37 18L37 16ZM25 17L25 19L24 19L24 20L25 20L25 19L26 19L26 20L28 20L28 18L27 18L27 19L26 19L26 17ZM49 17L49 18L50 18L50 17ZM18 18L18 19L19 19L19 18ZM6 19L6 20L5 20L5 21L6 21L6 22L9 22L9 21L8 21L8 20L7 20L7 19ZM6 20L6 21L7 21L7 20ZM19 21L19 22L20 22L20 23L19 23L19 24L18 24L18 25L19 25L19 24L20 24L20 23L21 23L21 22L20 22L20 21ZM44 22L44 24L45 24L45 23L46 23L46 24L47 24L47 23L46 23L46 22ZM26 23L26 24L27 24L27 23ZM28 23L28 24L29 24L29 25L30 25L30 24L29 24L29 23ZM48 23L48 24L49 24L49 23ZM5 25L5 28L8 28L8 25ZM25 25L25 28L28 28L28 25ZM45 25L45 28L48 28L48 25ZM0 26L0 30L1 30L1 26ZM6 26L6 27L7 27L7 26ZM11 26L11 27L12 27L12 26ZM26 26L26 27L27 27L27 26ZM46 26L46 27L47 27L47 26ZM52 26L52 31L51 31L51 33L53 33L53 32L52 32L52 31L53 31L53 26ZM30 28L30 29L29 29L29 30L27 30L27 31L28 31L28 32L29 32L29 31L30 31L30 32L31 32L31 28ZM32 28L32 31L33 31L33 32L34 32L34 31L33 31L33 30L34 30L34 28ZM38 28L38 29L37 29L37 31L38 31L38 29L39 29L39 28ZM49 29L49 30L47 30L47 31L49 31L49 30L50 30L50 29ZM15 30L15 31L16 31L16 30ZM45 30L45 31L46 31L46 30ZM0 31L0 35L1 35L1 33L2 33L2 31ZM23 32L23 33L24 33L24 32ZM25 32L25 33L26 33L26 32ZM6 34L6 35L7 35L7 36L9 36L9 35L8 35L8 34ZM11 34L11 36L13 36L13 37L14 37L14 36L15 36L15 37L16 37L16 36L17 36L17 35L19 35L19 34L16 34L16 35L15 35L15 34L13 34L13 35L12 35L12 34ZM21 35L21 37L22 37L22 35ZM50 35L50 36L51 36L51 35ZM1 36L1 37L0 37L0 38L1 38L1 37L2 37L2 36ZM31 36L31 38L32 38L32 36ZM3 37L3 38L4 38L4 37ZM9 40L9 41L10 41L10 40ZM12 40L12 41L13 41L13 42L14 42L14 41L13 41L13 40ZM1 41L1 42L2 42L2 43L3 43L3 42L2 42L2 41ZM5 41L5 42L7 42L7 41ZM24 42L24 43L25 43L25 42ZM43 43L43 44L40 44L40 45L39 45L39 48L40 48L40 49L42 49L42 48L44 48L44 47L42 47L42 48L40 48L40 46L41 46L41 45L43 45L43 46L44 46L44 45L43 45L43 44L44 44L44 43ZM8 44L8 45L10 45L10 44ZM51 44L51 45L50 45L50 46L49 46L49 47L50 47L50 46L51 46L51 47L52 47L52 46L51 46L51 45L52 45L52 44ZM25 45L25 48L28 48L28 45ZM34 45L34 46L32 46L32 48L29 48L29 49L32 49L32 48L33 48L33 49L34 49L34 50L35 50L35 49L34 49L34 48L33 48L33 47L34 47L34 46L35 46L35 47L36 47L36 48L38 48L38 47L36 47L36 46L35 46L35 45ZM45 45L45 48L48 48L48 45ZM17 46L17 47L18 47L18 46ZM26 46L26 47L27 47L27 46ZM30 46L30 47L31 47L31 46ZM46 46L46 47L47 47L47 46ZM8 47L8 49L10 49L10 48L9 48L9 47ZM27 49L27 51L28 51L28 49ZM37 49L37 50L38 50L38 49ZM43 49L43 50L44 50L44 49ZM45 49L45 50L46 50L46 49ZM47 49L47 51L48 51L48 52L49 52L49 49ZM12 50L12 51L13 51L13 50ZM41 50L41 51L42 51L42 50ZM32 51L32 52L33 52L33 51ZM51 51L51 53L52 53L52 52L53 52L53 51ZM16 52L16 53L19 53L19 52ZM20 52L20 53L22 53L22 52ZM0 0L0 7L7 7L7 0ZM1 1L1 6L6 6L6 1ZM2 2L2 5L5 5L5 2ZM46 0L46 7L53 7L53 0ZM47 1L47 6L52 6L52 1ZM48 2L48 5L51 5L51 2ZM0 46L0 53L7 53L7 46ZM1 47L1 52L6 52L6 47ZM2 48L2 51L5 51L5 48Z" fill="#000000"/></g></g></svg>
