<?xml version="1.0" encoding="UTF-8"?>
<svg xmlns="http://www.w3.org/2000/svg" version="1.1" width="356" height="356" viewBox="0 0 356 356"><rect x="0" y="0" width="356" height="356" fill="#ffffff"/><g transform="scale(6.717)"><g transform="translate(0,0)"><path fill-rule="evenodd" d="M8 0L8 1L9 1L9 0ZM10 0L10 1L11 1L11 2L8 2L8 5L9 5L9 6L8 6L8 7L9 7L9 8L8 8L8 10L6 10L6 9L7 9L7 8L6 8L6 9L4 9L4 8L0 8L0 11L1 11L1 12L0 12L0 13L3 13L3 15L4 15L4 16L6 16L6 17L5 17L5 18L6 18L6 19L5 19L5 20L4 20L4 19L3 19L3 20L2 20L2 18L1 18L1 20L0 20L0 21L1 21L1 23L0 23L0 26L2 26L2 25L3 25L3 23L5 23L5 22L6 22L6 23L7 23L7 24L4 24L4 26L3 26L3 28L2 28L2 27L0 27L0 30L1 30L1 31L0 31L0 33L3 33L3 34L4 34L4 35L7 35L7 36L6 36L6 37L7 37L7 38L6 38L6 39L5 39L5 36L2 36L2 34L1 34L1 36L2 36L2 37L3 37L3 40L4 40L4 41L3 41L3 43L2 43L2 42L0 42L0 43L1 43L1 44L3 44L3 45L4 45L4 44L3 44L3 43L7 43L7 42L4 42L4 41L5 41L5 40L6 40L6 41L7 41L7 40L6 40L6 39L7 39L7 38L8 38L8 40L9 40L9 39L10 39L10 41L9 41L9 42L8 42L8 44L6 44L6 45L8 45L8 46L9 46L9 47L11 47L11 43L13 43L13 44L12 44L12 45L14 45L14 46L13 46L13 47L12 47L12 48L10 48L10 49L11 49L11 50L9 50L9 49L8 49L8 53L9 53L9 51L12 51L12 52L10 52L10 53L12 53L12 52L14 52L14 53L15 53L15 52L14 52L14 50L17 50L17 49L16 49L16 48L15 48L15 47L14 47L14 46L15 46L15 45L14 45L14 43L13 43L13 40L14 40L14 41L16 41L16 42L17 42L17 41L16 41L16 40L17 40L17 39L19 39L19 40L18 40L18 41L19 41L19 40L20 40L20 43L17 43L17 45L18 45L18 46L16 46L16 47L17 47L17 48L18 48L18 49L20 49L20 50L21 50L21 52L19 52L19 50L18 50L18 51L16 51L16 53L17 53L17 52L19 52L19 53L22 53L22 51L24 51L24 52L26 52L26 51L27 51L27 53L28 53L28 51L27 51L27 49L29 49L29 46L31 46L31 43L32 43L32 42L33 42L33 44L34 44L34 45L35 45L35 46L36 46L36 47L34 47L34 46L33 46L33 45L32 45L32 46L33 46L33 47L34 47L34 48L33 48L33 49L32 49L32 48L31 48L31 47L30 47L30 48L31 48L31 49L32 49L32 50L30 50L30 51L29 51L29 53L30 53L30 52L31 52L31 53L34 53L34 52L35 52L35 51L36 51L36 52L37 52L37 53L40 53L40 52L41 52L41 53L42 53L42 52L41 52L41 51L38 51L38 50L41 50L41 49L38 49L38 48L36 48L36 47L37 47L37 46L38 46L38 45L39 45L39 47L40 47L40 48L41 48L41 47L42 47L42 49L43 49L43 48L44 48L44 50L45 50L45 51L46 51L46 50L47 50L47 51L48 51L48 52L47 52L47 53L48 53L48 52L49 52L49 53L50 53L50 51L48 51L48 50L51 50L51 53L52 53L52 50L51 50L51 48L49 48L49 45L50 45L50 46L51 46L51 47L52 47L52 46L53 46L53 45L52 45L52 46L51 46L51 45L50 45L50 44L51 44L51 42L49 42L49 43L46 43L46 44L43 44L43 45L41 45L41 44L40 44L40 43L42 43L42 41L40 41L40 40L39 40L39 39L38 39L38 40L37 40L37 43L36 43L36 44L35 44L35 41L33 41L33 40L35 40L35 39L32 39L32 36L33 36L33 38L34 38L34 35L36 35L36 36L35 36L35 38L36 38L36 39L37 39L37 38L39 38L39 36L41 36L41 37L40 37L40 38L41 38L41 40L43 40L43 39L44 39L44 40L45 40L45 41L43 41L43 43L45 43L45 41L46 41L46 40L47 40L47 42L48 42L48 40L50 40L50 41L51 41L51 40L52 40L52 42L53 42L53 35L52 35L52 33L51 33L51 32L53 32L53 31L52 31L52 29L53 29L53 28L52 28L52 29L51 29L51 28L50 28L50 25L51 25L51 24L50 24L50 25L49 25L49 24L46 24L46 23L52 23L52 24L53 24L53 23L52 23L52 22L51 22L51 18L50 18L50 19L49 19L49 22L46 22L46 21L48 21L48 20L47 20L47 18L48 18L48 14L46 14L46 13L44 13L44 12L42 12L42 10L43 10L43 11L44 11L44 9L41 9L41 8L40 8L40 7L41 7L41 6L40 6L40 5L42 5L42 7L43 7L43 3L44 3L44 4L45 4L45 3L44 3L44 1L43 1L43 0L41 0L41 1L40 1L40 0L39 0L39 1L38 1L38 0L35 0L35 1L33 1L33 2L31 2L31 1L32 1L32 0L29 0L29 2L28 2L28 1L27 1L27 3L26 3L26 4L24 4L24 3L25 3L25 0L23 0L23 4L22 4L22 7L21 7L21 6L20 6L20 7L21 7L21 9L20 9L20 8L19 8L19 5L21 5L21 3L20 3L20 2L21 2L21 1L19 1L19 0L16 0L16 2L15 2L15 1L14 1L14 2L12 2L12 1L13 1L13 0L12 0L12 1L11 1L11 0ZM17 1L17 2L16 2L16 3L13 3L13 4L11 4L11 3L10 3L10 6L9 6L9 7L10 7L10 6L11 6L11 7L12 7L12 8L9 8L9 10L8 10L8 11L6 11L6 12L9 12L9 13L4 13L4 12L3 12L3 13L4 13L4 15L6 15L6 16L7 16L7 15L6 15L6 14L9 14L9 13L11 13L11 15L12 15L12 16L9 16L9 15L8 15L8 16L9 16L9 17L10 17L10 18L9 18L9 19L8 19L8 20L9 20L9 19L10 19L10 21L12 21L12 20L13 20L13 18L12 18L12 17L13 17L13 16L14 16L14 19L15 19L15 17L16 17L16 18L17 18L17 19L18 19L18 18L19 18L19 16L20 16L20 15L24 15L24 14L25 14L25 15L26 15L26 16L21 16L21 17L20 17L20 19L19 19L19 20L18 20L18 21L19 21L19 20L20 20L20 22L21 22L21 23L22 23L22 22L23 22L23 21L22 21L22 22L21 22L21 20L22 20L22 19L23 19L23 17L26 17L26 19L27 19L27 20L28 20L28 23L27 23L27 22L26 22L26 23L25 23L25 22L24 22L24 24L22 24L22 25L21 25L21 24L18 24L18 22L17 22L17 20L14 20L14 21L15 21L15 23L14 23L14 22L13 22L13 25L12 25L12 27L10 27L10 28L9 28L9 30L8 30L8 31L6 31L6 32L5 32L5 33L4 33L4 32L3 32L3 33L4 33L4 34L5 34L5 33L6 33L6 34L7 34L7 35L10 35L10 36L7 36L7 37L10 37L10 36L11 36L11 37L12 37L12 38L10 38L10 39L11 39L11 41L10 41L10 42L11 42L11 41L12 41L12 38L14 38L14 40L16 40L16 39L17 39L17 37L16 37L16 39L15 39L15 38L14 38L14 37L15 37L15 35L16 35L16 36L18 36L18 35L19 35L19 34L21 34L21 32L22 32L22 35L20 35L20 36L21 36L21 38L20 38L20 37L19 37L19 38L20 38L20 40L21 40L21 41L24 41L24 42L21 42L21 43L20 43L20 44L18 44L18 45L20 45L20 46L22 46L22 45L21 45L21 44L24 44L24 42L25 42L25 43L26 43L26 44L27 44L27 43L28 43L28 44L29 44L29 45L30 45L30 44L29 44L29 43L31 43L31 41L30 41L30 42L28 42L28 41L29 41L29 38L30 38L30 40L32 40L32 39L31 39L31 36L32 36L32 35L34 35L34 34L35 34L35 33L36 33L36 35L37 35L37 36L39 36L39 32L41 32L41 33L42 33L42 31L41 31L41 30L40 30L40 29L41 29L41 28L44 28L44 27L43 27L43 24L44 24L44 23L45 23L45 21L44 21L44 22L43 22L43 24L42 24L42 25L41 25L41 23L42 23L42 22L41 22L41 21L40 21L40 24L38 24L38 22L39 22L39 20L40 20L40 19L39 19L39 15L40 15L40 17L41 17L41 16L42 16L42 15L43 15L43 16L44 16L44 15L46 15L46 14L43 14L43 13L42 13L42 12L40 12L40 11L39 11L39 15L37 15L37 16L34 16L34 17L35 17L35 20L34 20L34 21L33 21L33 19L32 19L32 18L31 18L31 16L32 16L32 14L31 14L31 13L29 13L29 14L30 14L30 15L31 15L31 16L29 16L29 15L28 15L28 14L27 14L27 12L30 12L30 11L31 11L31 10L29 10L29 9L26 9L26 10L28 10L28 11L25 11L25 10L24 10L24 12L22 12L22 10L23 10L23 9L24 9L24 8L23 8L23 9L22 9L22 10L19 10L19 11L18 11L18 12L19 12L19 13L20 13L20 11L21 11L21 13L22 13L22 14L17 14L17 13L16 13L16 14L17 14L17 15L19 15L19 16L18 16L18 18L17 18L17 16L16 16L16 15L15 15L15 16L14 16L14 14L15 14L15 12L16 12L16 11L17 11L17 10L18 10L18 9L16 9L16 11L14 11L14 10L15 10L15 8L17 8L17 7L18 7L18 6L17 6L17 4L16 4L16 3L17 3L17 2L19 2L19 1ZM39 1L39 2L34 2L34 3L39 3L39 5L38 5L38 6L37 6L37 7L36 7L36 5L35 5L35 4L34 4L34 5L33 5L33 3L32 3L32 4L30 4L30 3L28 3L28 4L29 4L29 5L30 5L30 6L29 6L29 7L30 7L30 9L33 9L33 10L32 10L32 13L33 13L33 12L34 12L34 14L33 14L33 15L34 15L34 14L35 14L35 15L36 15L36 14L35 14L35 12L36 12L36 11L37 11L37 13L38 13L38 10L40 10L40 9L38 9L38 10L37 10L37 7L38 7L38 6L39 6L39 7L40 7L40 6L39 6L39 5L40 5L40 4L41 4L41 3L43 3L43 2L41 2L41 3L39 3L39 2L40 2L40 1ZM13 4L13 6L12 6L12 5L11 5L11 6L12 6L12 7L13 7L13 8L12 8L12 9L10 9L10 10L9 10L9 12L12 12L12 15L13 15L13 14L14 14L14 13L13 13L13 11L12 11L12 9L13 9L13 10L14 10L14 8L15 8L15 6L14 6L14 4ZM23 5L23 7L24 7L24 5ZM25 5L25 8L28 8L28 5ZM32 5L32 7L33 7L33 5ZM13 6L13 7L14 7L14 6ZM16 6L16 7L17 7L17 6ZM26 6L26 7L27 7L27 6ZM30 6L30 7L31 7L31 6ZM34 6L34 7L35 7L35 11L36 11L36 7L35 7L35 6ZM44 6L44 7L45 7L45 6ZM33 8L33 9L34 9L34 8ZM45 8L45 9L46 9L46 8ZM48 8L48 9L49 9L49 11L45 11L45 12L48 12L48 13L49 13L49 15L50 15L50 14L51 14L51 16L52 16L52 18L53 18L53 14L51 14L51 13L52 13L52 10L51 10L51 13L49 13L49 11L50 11L50 9L51 9L51 8ZM52 8L52 9L53 9L53 8ZM1 9L1 11L2 11L2 10L3 10L3 11L4 11L4 9ZM24 12L24 13L23 13L23 14L24 14L24 13L26 13L26 12ZM40 13L40 14L41 14L41 13ZM26 14L26 15L27 15L27 14ZM0 15L0 16L2 16L2 17L3 17L3 18L4 18L4 17L3 17L3 16L2 16L2 15ZM26 16L26 17L27 17L27 18L28 18L28 16ZM46 16L46 17L47 17L47 16ZM6 17L6 18L7 18L7 17ZM21 17L21 19L20 19L20 20L21 20L21 19L22 19L22 17ZM29 17L29 18L30 18L30 19L31 19L31 18L30 18L30 17ZM42 17L42 18L41 18L41 20L42 20L42 21L43 21L43 20L44 20L44 19L43 19L43 18L45 18L45 17ZM10 18L10 19L11 19L11 18ZM24 18L24 21L25 21L25 18ZM36 18L36 19L37 19L37 18ZM6 19L6 20L7 20L7 19ZM28 19L28 20L29 20L29 23L30 23L30 24L31 24L31 26L30 26L30 27L29 27L29 24L24 24L24 26L23 26L23 27L22 27L22 26L20 26L20 25L19 25L19 30L18 30L18 31L19 31L19 30L20 30L20 28L21 28L21 30L22 30L22 32L28 32L28 33L29 33L29 35L27 35L27 34L23 34L23 35L22 35L22 36L23 36L23 35L25 35L25 36L24 36L24 37L22 37L22 39L23 39L23 40L24 40L24 41L25 41L25 39L26 39L26 42L27 42L27 41L28 41L28 38L25 38L25 37L26 37L26 35L27 35L27 36L29 36L29 37L30 37L30 36L31 36L31 35L32 35L32 34L31 34L31 31L30 31L30 33L29 33L29 32L28 32L28 29L29 29L29 30L30 30L30 29L31 29L31 30L32 30L32 32L33 32L33 31L34 31L34 32L35 32L35 31L36 31L36 32L37 32L37 33L38 33L38 32L39 32L39 31L38 31L38 30L37 30L37 29L40 29L40 28L41 28L41 27L40 27L40 25L38 25L38 24L36 24L36 22L38 22L38 20L37 20L37 21L36 21L36 20L35 20L35 24L34 24L34 23L30 23L30 22L31 22L31 20L29 20L29 19ZM52 19L52 21L53 21L53 19ZM3 20L3 21L2 21L2 23L1 23L1 24L2 24L2 23L3 23L3 21L4 21L4 20ZM6 21L6 22L7 22L7 23L8 23L8 24L9 24L9 23L10 23L10 24L11 24L11 23L12 23L12 22L11 22L11 23L10 23L10 22L9 22L9 21L8 21L8 22L7 22L7 21ZM32 21L32 22L33 22L33 21ZM8 22L8 23L9 23L9 22ZM16 22L16 23L17 23L17 22ZM17 24L17 26L15 26L15 25L13 25L13 27L12 27L12 28L11 28L11 31L12 31L12 32L11 32L11 33L12 33L12 32L13 32L13 31L15 31L15 30L17 30L17 28L18 28L18 24ZM32 24L32 25L33 25L33 24ZM5 25L5 28L8 28L8 25ZM25 25L25 28L28 28L28 25ZM34 25L34 26L35 26L35 27L32 27L32 28L33 28L33 29L32 29L32 30L33 30L33 29L35 29L35 27L36 27L36 29L37 29L37 27L38 27L38 25ZM45 25L45 28L48 28L48 25ZM6 26L6 27L7 27L7 26ZM14 26L14 27L13 27L13 28L12 28L12 29L13 29L13 30L12 30L12 31L13 31L13 30L14 30L14 27L15 27L15 26ZM26 26L26 27L27 27L27 26ZM36 26L36 27L37 27L37 26ZM46 26L46 27L47 27L47 26ZM51 26L51 27L53 27L53 26ZM16 27L16 28L15 28L15 29L16 29L16 28L17 28L17 27ZM21 27L21 28L22 28L22 29L23 29L23 31L24 31L24 29L23 29L23 28L22 28L22 27ZM30 27L30 28L31 28L31 27ZM1 28L1 29L2 29L2 28ZM3 28L3 31L5 31L5 30L7 30L7 29L5 29L5 30L4 30L4 28ZM49 28L49 29L48 29L48 30L50 30L50 31L51 31L51 29L50 29L50 28ZM26 29L26 30L27 30L27 29ZM42 29L42 30L43 30L43 32L45 32L45 33L46 33L46 32L47 32L47 33L48 33L48 32L47 32L47 30L46 30L46 29ZM1 31L1 32L2 32L2 31ZM16 31L16 35L17 35L17 34L19 34L19 33L17 33L17 31ZM20 31L20 32L21 32L21 31ZM37 31L37 32L38 32L38 31ZM45 31L45 32L46 32L46 31ZM6 32L6 33L8 33L8 32ZM9 32L9 33L10 33L10 32ZM14 32L14 33L15 33L15 32ZM49 32L49 33L50 33L50 32ZM11 34L11 36L12 36L12 37L14 37L14 35L15 35L15 34L14 34L14 35L13 35L13 36L12 36L12 34ZM30 34L30 35L29 35L29 36L30 36L30 35L31 35L31 34ZM37 34L37 35L38 35L38 34ZM40 34L40 35L41 35L41 36L42 36L42 35L43 35L43 37L41 37L41 38L42 38L42 39L43 39L43 37L44 37L44 39L45 39L45 38L46 38L46 37L44 37L44 34ZM46 34L46 35L45 35L45 36L46 36L46 35L47 35L47 34ZM50 34L50 35L49 35L49 36L47 36L47 39L50 39L50 40L51 40L51 38L52 38L52 35L51 35L51 34ZM49 36L49 37L50 37L50 36ZM1 38L1 39L0 39L0 41L1 41L1 40L2 40L2 38ZM23 38L23 39L25 39L25 38ZM38 41L38 42L39 42L39 43L40 43L40 42L39 42L39 41ZM9 43L9 44L10 44L10 43ZM37 43L37 44L36 44L36 45L37 45L37 44L38 44L38 43ZM52 43L52 44L53 44L53 43ZM9 45L9 46L10 46L10 45ZM25 45L25 48L28 48L28 45ZM40 45L40 46L41 46L41 45ZM45 45L45 48L48 48L48 45ZM18 46L18 48L19 48L19 46ZM26 46L26 47L27 47L27 46ZM46 46L46 47L47 47L47 46ZM13 47L13 48L12 48L12 49L13 49L13 50L12 50L12 51L13 51L13 50L14 50L14 49L15 49L15 48L14 48L14 47ZM20 47L20 49L21 49L21 50L24 50L24 51L26 51L26 49L24 49L24 48L23 48L23 47ZM22 48L22 49L23 49L23 48ZM52 48L52 49L53 49L53 48ZM34 49L34 50L33 50L33 51L34 51L34 50L37 50L37 49ZM45 49L45 50L46 50L46 49ZM31 51L31 52L32 52L32 51ZM37 51L37 52L38 52L38 51ZM43 52L43 53L44 53L44 52ZM45 52L45 53L46 53L46 52ZM0 0L0 7L7 7L7 0ZM1 1L1 6L6 6L6 1ZM2 2L2 5L5 5L5 2ZM46 0L46 7L53 7L53 0ZM47 1L47 6L52 6L52 1ZM48 2L48 5L51 5L51 2ZM0 46L0 53L7 53L7 46ZM1 47L1 52L6 52L6 47ZM2 48L2 51L5 51L5 48Z" fill="#000000"/></g></g></svg>
