<?xml version="1.0" encoding="UTF-8"?>
<svg xmlns="http://www.w3.org/2000/svg" version="1.1" width="356" height="356" viewBox="0 0 356 356"><rect x="0" y="0" width="356" height="356" fill="#ffffff"/><g transform="scale(6.717)"><g transform="translate(0,0)"><path fill-rule="evenodd" d="M8 0L8 1L9 1L9 2L8 2L8 5L9 5L9 6L8 6L8 7L9 7L9 6L10 6L10 7L11 7L11 8L12 8L12 7L13 7L13 10L12 10L12 9L11 9L11 10L12 10L12 11L11 11L11 13L10 13L10 8L8 8L8 9L7 9L7 8L6 8L6 9L5 9L5 11L8 11L8 12L9 12L9 13L10 13L10 15L9 15L9 14L8 14L8 15L9 15L9 17L7 17L7 16L6 16L6 17L7 17L7 18L6 18L6 19L5 19L5 17L4 17L4 15L7 15L7 14L6 14L6 13L7 13L7 12L6 12L6 13L5 13L5 14L3 14L3 15L0 15L0 16L2 16L2 17L0 17L0 19L1 19L1 18L2 18L2 20L1 20L1 21L0 21L0 23L1 23L1 21L3 21L3 22L5 22L5 23L2 23L2 25L0 25L0 27L1 27L1 26L2 26L2 25L3 25L3 27L2 27L2 28L1 28L1 29L0 29L0 31L1 31L1 32L0 32L0 33L1 33L1 32L2 32L2 31L1 31L1 30L3 30L3 31L4 31L4 32L5 32L5 31L7 31L7 32L6 32L6 33L2 33L2 34L0 34L0 36L1 36L1 35L2 35L2 37L0 37L0 40L1 40L1 38L2 38L2 39L3 39L3 40L2 40L2 41L3 41L3 43L2 43L2 42L0 42L0 43L1 43L1 44L3 44L3 45L4 45L4 44L3 44L3 43L7 43L7 44L6 44L6 45L8 45L8 46L9 46L9 45L10 45L10 44L9 44L9 43L12 43L12 45L13 45L13 46L12 46L12 47L11 47L11 46L10 46L10 50L12 50L12 48L13 48L13 51L15 51L15 50L17 50L17 49L16 49L16 48L15 48L15 47L14 47L14 45L13 45L13 44L15 44L15 42L14 42L14 43L13 43L13 41L12 41L12 39L11 39L11 40L10 40L10 38L12 38L12 37L10 37L10 38L8 38L8 37L7 37L7 36L6 36L6 35L8 35L8 36L10 36L10 35L11 35L11 36L12 36L12 34L10 34L10 32L11 32L11 31L12 31L12 32L13 32L13 31L15 31L15 30L17 30L17 28L18 28L18 24L21 24L21 25L22 25L22 24L23 24L23 26L22 26L22 27L24 27L24 31L25 31L25 32L24 32L24 33L23 33L23 34L22 34L22 32L23 32L23 30L22 30L22 32L21 32L21 31L20 31L20 32L21 32L21 34L19 34L19 33L17 33L17 31L16 31L16 35L15 35L15 34L14 34L14 35L13 35L13 37L14 37L14 38L13 38L13 40L14 40L14 41L16 41L16 42L17 42L17 41L16 41L16 40L17 40L17 39L20 39L20 43L17 43L17 45L18 45L18 46L16 46L16 47L17 47L17 48L18 48L18 49L20 49L20 50L21 50L21 49L20 49L20 48L18 48L18 46L20 46L20 47L23 47L23 48L22 48L22 49L23 49L23 48L24 48L24 49L26 49L26 51L25 51L25 53L28 53L28 52L26 52L26 51L28 51L28 50L27 50L27 49L29 49L29 48L30 48L30 49L32 49L32 50L30 50L30 51L29 51L29 53L30 53L30 52L31 52L31 53L34 53L34 52L37 52L37 51L35 51L35 50L34 50L34 49L37 49L37 50L39 50L39 49L38 49L38 48L37 48L37 46L38 46L38 45L40 45L40 46L39 46L39 48L42 48L42 49L43 49L43 48L42 48L42 46L43 46L43 47L44 47L44 50L45 50L45 51L48 51L48 52L47 52L47 53L48 53L48 52L49 52L49 53L50 53L50 51L51 51L51 53L52 53L52 50L50 50L50 51L48 51L48 50L49 50L49 49L51 49L51 48L52 48L52 49L53 49L53 47L52 47L52 46L53 46L53 45L51 45L51 41L52 41L52 42L53 42L53 40L50 40L50 39L47 39L47 38L45 38L45 37L46 37L46 36L49 36L49 37L51 37L51 36L49 36L49 35L52 35L52 37L53 37L53 35L52 35L52 33L51 33L51 32L52 32L52 29L53 29L53 28L52 28L52 29L51 29L51 28L50 28L50 27L53 27L53 26L50 26L50 27L49 27L49 24L46 24L46 23L45 23L45 22L44 22L44 21L45 21L45 19L46 19L46 20L47 20L47 21L48 21L48 22L49 22L49 23L52 23L52 24L50 24L50 25L52 25L52 24L53 24L53 23L52 23L52 21L53 21L53 19L52 19L52 21L51 21L51 19L47 19L47 18L48 18L48 14L49 14L49 15L50 15L50 14L51 14L51 15L53 15L53 14L51 14L51 13L52 13L52 10L50 10L50 9L51 9L51 8L48 8L48 9L49 9L49 10L50 10L50 11L51 11L51 12L50 12L50 13L49 13L49 11L45 11L45 10L44 10L44 9L46 9L46 8L43 8L43 3L44 3L44 4L45 4L45 3L44 3L44 1L43 1L43 0L42 0L42 2L43 2L43 3L41 3L41 4L40 4L40 5L39 5L39 1L40 1L40 2L41 2L41 1L40 1L40 0L39 0L39 1L38 1L38 0L35 0L35 1L33 1L33 2L27 2L27 3L26 3L26 4L25 4L25 2L23 2L23 3L24 3L24 7L23 7L23 6L22 6L22 7L21 7L21 6L20 6L20 7L21 7L21 9L20 9L20 8L19 8L19 5L22 5L22 4L21 4L21 3L22 3L22 1L26 1L26 0L22 0L22 1L19 1L19 0L16 0L16 2L15 2L15 1L13 1L13 0L12 0L12 1L11 1L11 0ZM28 0L28 1L32 1L32 0ZM10 1L10 3L9 3L9 4L10 4L10 6L11 6L11 7L12 7L12 6L13 6L13 7L14 7L14 6L15 6L15 8L14 8L14 10L15 10L15 8L17 8L17 7L18 7L18 6L17 6L17 4L16 4L16 3L17 3L17 2L19 2L19 1L17 1L17 2L16 2L16 3L13 3L13 2L12 2L12 3L11 3L11 1ZM37 1L37 2L34 2L34 3L32 3L32 4L29 4L29 3L28 3L28 4L29 4L29 5L30 5L30 6L29 6L29 7L30 7L30 6L31 6L31 8L30 8L30 9L33 9L33 10L32 10L32 11L31 11L31 12L30 12L30 11L29 11L29 9L28 9L28 11L29 11L29 15L28 15L28 14L27 14L27 13L28 13L28 12L27 12L27 11L26 11L26 10L27 10L27 9L25 9L25 10L24 10L24 12L21 12L21 13L24 13L24 14L17 14L17 13L16 13L16 14L17 14L17 15L19 15L19 16L18 16L18 18L17 18L17 16L16 16L16 15L15 15L15 16L14 16L14 14L15 14L15 12L16 12L16 11L17 11L17 10L18 10L18 9L16 9L16 11L15 11L15 12L13 12L13 13L14 13L14 14L13 14L13 16L14 16L14 19L15 19L15 17L16 17L16 18L17 18L17 19L18 19L18 18L19 18L19 16L20 16L20 15L24 15L24 14L27 14L27 15L26 15L26 16L25 16L25 18L24 18L24 17L23 17L23 16L21 16L21 17L20 17L20 19L19 19L19 20L18 20L18 21L19 21L19 20L20 20L20 22L21 22L21 23L22 23L22 22L21 22L21 20L22 20L22 19L23 19L23 18L24 18L24 21L23 21L23 23L24 23L24 24L29 24L29 26L30 26L30 27L31 27L31 28L29 28L29 30L28 30L28 29L26 29L26 30L25 30L25 31L26 31L26 32L25 32L25 34L27 34L27 35L26 35L26 37L29 37L29 38L28 38L28 39L27 39L27 38L25 38L25 36L23 36L23 35L20 35L20 36L21 36L21 37L22 37L22 38L21 38L21 41L23 41L23 42L22 42L22 43L20 43L20 44L18 44L18 45L20 45L20 46L22 46L22 43L24 43L24 41L25 41L25 40L26 40L26 39L27 39L27 40L28 40L28 41L29 41L29 40L32 40L32 39L33 39L33 38L34 38L34 39L35 39L35 40L33 40L33 41L35 41L35 42L36 42L36 43L37 43L37 44L36 44L36 45L33 45L33 44L35 44L35 43L33 43L33 42L32 42L32 43L31 43L31 46L29 46L29 47L30 47L30 48L32 48L32 49L33 49L33 48L34 48L34 47L35 47L35 48L36 48L36 47L35 47L35 46L37 46L37 44L39 44L39 43L37 43L37 41L38 41L38 42L39 42L39 40L36 40L36 39L35 39L35 38L37 38L37 39L40 39L40 44L41 44L41 45L42 45L42 44L41 44L41 40L42 40L42 39L41 39L41 38L43 38L43 41L42 41L42 43L43 43L43 44L45 44L45 43L43 43L43 41L47 41L47 40L46 40L46 39L45 39L45 40L44 40L44 37L45 37L45 36L46 36L46 35L49 35L49 34L50 34L50 32L47 32L47 33L46 33L46 35L45 35L45 34L43 34L43 35L45 35L45 36L43 36L43 37L41 37L41 36L42 36L42 32L45 32L45 31L47 31L47 30L46 30L46 29L44 29L44 25L43 25L43 24L45 24L45 23L42 23L42 22L40 22L40 24L39 24L39 23L38 23L38 22L39 22L39 20L40 20L40 19L41 19L41 20L42 20L42 21L44 21L44 20L43 20L43 19L41 19L41 18L40 18L40 19L38 19L38 18L39 18L39 17L37 17L37 16L40 16L40 17L41 17L41 14L42 14L42 15L43 15L43 17L42 17L42 18L45 18L45 16L44 16L44 15L45 15L45 14L43 14L43 10L40 10L40 9L39 9L39 8L41 8L41 9L42 9L42 8L41 8L41 7L42 7L42 6L41 6L41 5L40 5L40 6L39 6L39 5L37 5L37 4L38 4L38 3L37 3L37 2L38 2L38 1ZM20 2L20 3L21 3L21 2ZM12 3L12 4L11 4L11 6L12 6L12 4L13 4L13 6L14 6L14 4L13 4L13 3ZM35 3L35 6L34 6L34 4L33 4L33 6L32 6L32 7L33 7L33 6L34 6L34 7L35 7L35 11L33 11L33 12L34 12L34 13L32 13L32 12L31 12L31 13L32 13L32 14L34 14L34 15L32 15L32 16L30 16L30 15L31 15L31 14L30 14L30 15L29 15L29 18L30 18L30 19L28 19L28 20L30 20L30 21L29 21L29 22L31 22L31 23L29 23L29 24L31 24L31 27L35 27L35 26L34 26L34 25L37 25L37 26L36 26L36 27L37 27L37 28L39 28L39 29L40 29L40 26L41 26L41 25L40 25L40 26L39 26L39 25L37 25L37 24L36 24L36 23L37 23L37 22L38 22L38 21L36 21L36 19L37 19L37 18L36 18L36 19L35 19L35 17L34 17L34 16L37 16L37 14L38 14L38 15L39 15L39 13L38 13L38 10L37 10L37 12L36 12L36 7L37 7L37 8L39 8L39 6L38 6L38 7L37 7L37 6L36 6L36 4L37 4L37 3ZM25 5L25 8L28 8L28 5ZM16 6L16 7L17 7L17 6ZM26 6L26 7L27 7L27 6ZM35 6L35 7L36 7L36 6ZM40 6L40 7L41 7L41 6ZM44 6L44 7L45 7L45 6ZM22 7L22 8L23 8L23 9L22 9L22 10L19 10L19 11L18 11L18 12L19 12L19 13L20 13L20 11L23 11L23 9L24 9L24 8L23 8L23 7ZM0 8L0 9L3 9L3 10L4 10L4 8ZM33 8L33 9L34 9L34 8ZM52 8L52 9L53 9L53 8ZM6 9L6 10L7 10L7 9ZM8 9L8 10L9 10L9 9ZM1 10L1 11L0 11L0 12L2 12L2 10ZM39 10L39 11L40 11L40 12L41 12L41 13L42 13L42 11L40 11L40 10ZM3 11L3 13L4 13L4 11ZM44 11L44 13L46 13L46 14L48 14L48 13L46 13L46 12L45 12L45 11ZM24 12L24 13L26 13L26 12ZM11 13L11 19L9 19L9 18L7 18L7 19L6 19L6 20L7 20L7 21L5 21L5 19L3 19L3 20L4 20L4 21L5 21L5 22L7 22L7 23L6 23L6 24L7 24L7 23L8 23L8 24L10 24L10 25L9 25L9 26L10 26L10 25L11 25L11 24L10 24L10 23L8 23L8 22L9 22L9 21L10 21L10 22L13 22L13 25L15 25L15 26L14 26L14 27L13 27L13 26L11 26L11 28L10 28L10 27L9 27L9 29L6 29L6 30L8 30L8 31L9 31L9 32L8 32L8 33L6 33L6 34L2 34L2 35L3 35L3 36L4 36L4 38L3 38L3 39L4 39L4 38L5 38L5 41L6 41L6 42L8 42L8 41L9 41L9 42L12 42L12 41L9 41L9 40L8 40L8 39L6 39L6 38L7 38L7 37L6 37L6 36L4 36L4 35L6 35L6 34L9 34L9 32L10 32L10 31L11 31L11 30L10 30L10 29L11 29L11 28L12 28L12 27L13 27L13 30L12 30L12 31L13 31L13 30L14 30L14 27L15 27L15 26L17 26L17 24L18 24L18 22L17 22L17 20L14 20L14 21L15 21L15 23L14 23L14 22L13 22L13 20L12 20L12 21L10 21L10 20L11 20L11 19L13 19L13 17L12 17L12 13ZM34 13L34 14L35 14L35 13ZM26 16L26 17L28 17L28 16ZM46 16L46 17L47 17L47 16ZM51 16L51 17L50 17L50 18L51 18L51 17L52 17L52 18L53 18L53 16ZM3 17L3 18L4 18L4 17ZM21 17L21 18L22 18L22 17ZM30 17L30 18L31 18L31 22L32 22L32 23L33 23L33 22L34 22L34 24L35 24L35 23L36 23L36 22L35 22L35 20L32 20L32 18L31 18L31 17ZM25 18L25 19L26 19L26 21L25 21L25 23L28 23L28 22L27 22L27 19L26 19L26 18ZM7 19L7 20L9 20L9 19ZM20 19L20 20L21 20L21 19ZM48 20L48 21L49 21L49 20ZM7 21L7 22L8 22L8 21ZM32 21L32 22L33 22L33 21ZM16 22L16 23L17 23L17 22ZM41 23L41 24L42 24L42 23ZM32 24L32 25L33 25L33 24ZM5 25L5 28L8 28L8 25ZM19 25L19 30L18 30L18 31L19 31L19 30L20 30L20 28L21 28L21 29L22 29L22 28L21 28L21 26L20 26L20 25ZM25 25L25 28L28 28L28 25ZM45 25L45 28L48 28L48 25ZM6 26L6 27L7 27L7 26ZM26 26L26 27L27 27L27 26ZM37 26L37 27L39 27L39 26ZM42 26L42 27L43 27L43 26ZM46 26L46 27L47 27L47 26ZM3 27L3 28L2 28L2 29L3 29L3 28L4 28L4 27ZM16 27L16 28L15 28L15 29L16 29L16 28L17 28L17 27ZM31 28L31 29L33 29L33 30L31 30L31 31L32 31L32 32L33 32L33 30L35 30L35 29L33 29L33 28ZM41 28L41 30L39 30L39 31L38 31L38 30L37 30L37 29L36 29L36 30L37 30L37 31L36 31L36 32L38 32L38 33L35 33L35 34L34 34L34 35L35 35L35 37L37 37L37 38L40 38L40 37L39 37L39 36L40 36L40 35L41 35L41 34L40 34L40 33L41 33L41 32L42 32L42 31L43 31L43 30L42 30L42 29L43 29L43 28ZM48 29L48 30L50 30L50 31L51 31L51 29ZM4 30L4 31L5 31L5 30ZM29 30L29 31L30 31L30 30ZM44 30L44 31L45 31L45 30ZM27 31L27 33L28 33L28 31ZM34 31L34 32L35 32L35 31ZM39 31L39 32L41 32L41 31ZM14 32L14 33L15 33L15 32ZM29 32L29 34L28 34L28 35L27 35L27 36L29 36L29 34L31 34L31 36L30 36L30 37L32 37L32 38L33 38L33 37L32 37L32 36L33 36L33 35L32 35L32 34L31 34L31 33L30 33L30 32ZM38 33L38 34L35 34L35 35L36 35L36 36L39 36L39 35L40 35L40 34L39 34L39 33ZM47 33L47 34L49 34L49 33ZM17 34L17 35L16 35L16 36L18 36L18 35L19 35L19 34ZM38 34L38 35L39 35L39 34ZM14 35L14 37L15 37L15 35ZM5 37L5 38L6 38L6 37ZM16 37L16 39L15 39L15 38L14 38L14 40L16 40L16 39L17 39L17 37ZM19 37L19 38L20 38L20 37ZM22 38L22 39L23 39L23 38ZM24 38L24 39L25 39L25 38ZM51 38L51 39L53 39L53 38ZM3 40L3 41L4 41L4 40ZM6 40L6 41L8 41L8 40ZM18 40L18 41L19 41L19 40ZM48 40L48 43L47 43L47 42L46 42L46 43L47 43L47 44L49 44L49 43L50 43L50 42L49 42L49 41L50 41L50 40ZM26 41L26 42L25 42L25 43L26 43L26 42L27 42L27 41ZM30 41L30 42L31 42L31 41ZM28 43L28 44L29 44L29 45L30 45L30 43ZM52 43L52 44L53 44L53 43ZM20 44L20 45L21 45L21 44ZM23 44L23 46L24 46L24 44ZM25 45L25 48L28 48L28 45ZM32 45L32 46L33 46L33 45ZM43 45L43 46L44 46L44 45ZM45 45L45 48L48 48L48 45ZM49 45L49 48L51 48L51 46L50 46L50 45ZM26 46L26 47L27 47L27 46ZM40 46L40 47L41 47L41 46ZM46 46L46 47L47 47L47 46ZM13 47L13 48L14 48L14 49L15 49L15 48L14 48L14 47ZM8 49L8 53L10 53L10 52L9 52L9 49ZM46 49L46 50L47 50L47 49ZM18 50L18 51L16 51L16 53L17 53L17 52L19 52L19 50ZM22 50L22 51L21 51L21 53L22 53L22 52L23 52L23 51L24 51L24 50ZM33 50L33 52L34 52L34 50ZM41 50L41 51L40 51L40 52L39 52L39 51L38 51L38 52L39 52L39 53L40 53L40 52L41 52L41 51L43 51L43 50ZM31 51L31 52L32 52L32 51ZM11 52L11 53L12 53L12 52ZM13 52L13 53L14 53L14 52ZM43 52L43 53L46 53L46 52ZM0 0L0 7L7 7L7 0ZM1 1L1 6L6 6L6 1ZM2 2L2 5L5 5L5 2ZM46 0L46 7L53 7L53 0ZM47 1L47 6L52 6L52 1ZM48 2L48 5L51 5L51 2ZM0 46L0 53L7 53L7 46ZM1 47L1 52L6 52L6 47ZM2 48L2 51L5 51L5 48Z" fill="#000000"/></g></g></svg>
