<?xml version="1.0" encoding="UTF-8"?>
<svg xmlns="http://www.w3.org/2000/svg" version="1.1" width="356" height="356" viewBox="0 0 356 356"><rect x="0" y="0" width="356" height="356" fill="#ffffff"/><g transform="scale(6.717)"><g transform="translate(0,0)"><path fill-rule="evenodd" d="M8 0L8 4L9 4L9 0ZM13 0L13 1L14 1L14 2L12 2L12 1L11 1L11 2L10 2L10 5L11 5L11 3L14 3L14 2L15 2L15 1L16 1L16 2L18 2L18 3L19 3L19 4L20 4L20 8L19 8L19 6L18 6L18 5L16 5L16 7L15 7L15 5L13 5L13 4L12 4L12 7L13 7L13 9L12 9L12 8L11 8L11 9L12 9L12 10L13 10L13 13L12 13L12 14L11 14L11 13L9 13L9 12L12 12L12 11L11 11L11 10L10 10L10 7L11 7L11 6L10 6L10 7L9 7L9 5L8 5L8 7L9 7L9 10L8 10L8 9L7 9L7 8L4 8L4 9L5 9L5 11L4 11L4 10L3 10L3 9L2 9L2 8L0 8L0 10L1 10L1 12L2 12L2 13L0 13L0 14L3 14L3 16L2 16L2 15L0 15L0 20L1 20L1 21L0 21L0 22L2 22L2 23L0 23L0 24L1 24L1 25L0 25L0 26L2 26L2 23L3 23L3 24L4 24L4 25L3 25L3 26L4 26L4 27L1 27L1 28L0 28L0 29L1 29L1 30L0 30L0 31L1 31L1 30L2 30L2 28L3 28L3 29L5 29L5 31L8 31L8 29L9 29L9 31L10 31L10 30L11 30L11 29L12 29L12 31L11 31L11 32L13 32L13 31L14 31L14 32L16 32L16 31L18 31L18 30L21 30L21 29L22 29L22 27L23 27L23 29L25 29L25 30L23 30L23 31L24 31L24 32L25 32L25 31L26 31L26 37L25 37L25 38L26 38L26 42L22 42L22 41L21 41L21 40L20 40L20 39L19 39L19 38L21 38L21 39L22 39L22 40L23 40L23 41L24 41L24 40L23 40L23 39L24 39L24 38L22 38L22 36L23 36L23 35L25 35L25 34L24 34L24 33L23 33L23 32L22 32L22 31L21 31L21 32L20 32L20 33L19 33L19 32L18 32L18 33L13 33L13 34L15 34L15 35L16 35L16 34L19 34L19 35L17 35L17 36L16 36L16 37L15 37L15 36L14 36L14 37L13 37L13 36L12 36L12 35L11 35L11 34L12 34L12 33L11 33L11 34L10 34L10 32L8 32L8 33L7 33L7 32L5 32L5 33L4 33L4 35L5 35L5 36L6 36L6 37L5 37L5 38L6 38L6 39L7 39L7 38L6 38L6 37L8 37L8 36L9 36L9 35L10 35L10 36L11 36L11 37L13 37L13 38L10 38L10 37L9 37L9 38L10 38L10 40L11 40L11 39L12 39L12 42L10 42L10 41L9 41L9 40L8 40L8 41L7 41L7 40L6 40L6 41L4 41L4 40L5 40L5 39L3 39L3 37L4 37L4 36L3 36L3 37L0 37L0 38L1 38L1 42L0 42L0 43L1 43L1 44L3 44L3 45L4 45L4 44L3 44L3 43L7 43L7 42L8 42L8 41L9 41L9 43L8 43L8 46L9 46L9 47L8 47L8 49L9 49L9 51L8 51L8 53L9 53L9 51L10 51L10 53L11 53L11 51L12 51L12 53L15 53L15 51L16 51L16 50L17 50L17 51L20 51L20 50L21 50L21 51L25 51L25 52L23 52L23 53L25 53L25 52L26 52L26 51L27 51L27 53L28 53L28 51L27 51L27 49L29 49L29 51L31 51L31 52L30 52L30 53L31 53L31 52L32 52L32 53L34 53L34 51L35 51L35 53L37 53L37 52L38 52L38 53L39 53L39 51L41 51L41 50L40 50L40 48L42 48L42 46L43 46L43 45L44 45L44 47L43 47L43 49L42 49L42 51L44 51L44 50L45 50L45 49L46 49L46 52L45 52L45 53L46 53L46 52L48 52L48 53L49 53L49 52L50 52L50 51L51 51L51 53L52 53L52 52L53 52L53 51L51 51L51 49L53 49L53 46L52 46L52 48L51 48L51 49L49 49L49 48L50 48L50 47L51 47L51 46L50 46L50 43L51 43L51 44L52 44L52 45L53 45L53 44L52 44L52 43L53 43L53 42L52 42L52 43L51 43L51 42L50 42L50 41L52 41L52 40L50 40L50 33L49 33L49 32L50 32L50 30L51 30L51 31L52 31L52 33L53 33L53 26L52 26L52 29L51 29L51 28L50 28L50 22L49 22L49 24L48 24L48 23L47 23L47 24L44 24L44 22L45 22L45 23L46 23L46 15L48 15L48 17L47 17L47 19L49 19L49 20L47 20L47 22L48 22L48 21L50 21L50 19L51 19L51 20L52 20L52 19L53 19L53 18L52 18L52 19L51 19L51 17L50 17L50 16L49 16L49 13L50 13L50 14L52 14L52 17L53 17L53 13L51 13L51 12L50 12L50 11L51 11L51 10L52 10L52 11L53 11L53 10L52 10L52 9L53 9L53 8L49 8L49 10L50 10L50 11L48 11L48 12L47 12L47 14L46 14L46 13L45 13L45 12L46 12L46 11L47 11L47 10L46 10L46 9L45 9L45 6L44 6L44 8L43 8L43 3L44 3L44 4L45 4L45 3L44 3L44 1L43 1L43 0L42 0L42 1L41 1L41 2L40 2L40 0L38 0L38 1L39 1L39 3L40 3L40 4L38 4L38 5L37 5L37 6L36 6L36 7L35 7L35 5L34 5L34 4L35 4L35 3L36 3L36 2L35 2L35 1L37 1L37 0L35 0L35 1L34 1L34 0L32 0L32 1L31 1L31 0L26 0L26 1L29 1L29 2L28 2L28 3L29 3L29 4L27 4L27 3L25 3L25 2L24 2L24 3L22 3L22 2L23 2L23 1L25 1L25 0L22 0L22 1L21 1L21 0ZM19 1L19 3L21 3L21 4L22 4L22 3L21 3L21 2L20 2L20 1ZM32 1L32 2L31 2L31 3L30 3L30 2L29 2L29 3L30 3L30 4L31 4L31 3L32 3L32 6L31 6L31 7L30 7L30 6L29 6L29 7L30 7L30 8L29 8L29 9L31 9L31 10L33 10L33 9L32 9L32 6L33 6L33 7L34 7L34 6L33 6L33 4L34 4L34 2L33 2L33 1ZM32 2L32 3L33 3L33 2ZM37 2L37 3L38 3L38 2ZM42 2L42 3L41 3L41 5L42 5L42 3L43 3L43 2ZM21 5L21 8L22 8L22 9L19 9L19 8L18 8L18 9L17 9L17 8L16 8L16 9L15 9L15 10L14 10L14 9L13 9L13 10L14 10L14 12L15 12L15 13L13 13L13 14L15 14L15 16L14 16L14 15L12 15L12 16L13 16L13 17L10 17L10 16L8 16L8 15L11 15L11 14L8 14L8 15L5 15L5 14L4 14L4 13L5 13L5 12L7 12L7 11L8 11L8 12L9 12L9 11L8 11L8 10L7 10L7 9L6 9L6 10L7 10L7 11L5 11L5 12L4 12L4 13L3 13L3 14L4 14L4 16L3 16L3 17L2 17L2 16L1 16L1 20L2 20L2 18L4 18L4 19L5 19L5 22L4 22L4 24L7 24L7 23L8 23L8 24L9 24L9 25L10 25L10 26L9 26L9 27L10 27L10 28L11 28L11 27L12 27L12 25L10 25L10 24L11 24L11 23L14 23L14 24L15 24L15 21L16 21L16 25L15 25L15 26L14 26L14 25L13 25L13 28L12 28L12 29L13 29L13 30L15 30L15 31L16 31L16 30L18 30L18 29L16 29L16 28L15 28L15 29L13 29L13 28L14 28L14 27L16 27L16 26L17 26L17 28L18 28L18 27L20 27L20 26L23 26L23 27L24 27L24 24L25 24L25 23L26 23L26 24L28 24L28 23L26 23L26 22L27 22L27 21L26 21L26 22L25 22L25 23L23 23L23 21L25 21L25 19L26 19L26 20L28 20L28 18L29 18L29 17L30 17L30 15L31 15L31 17L32 17L32 18L30 18L30 19L29 19L29 20L30 20L30 21L32 21L32 22L33 22L33 21L32 21L32 20L34 20L34 22L36 22L36 23L33 23L33 25L34 25L34 26L33 26L33 27L32 27L32 23L31 23L31 22L30 22L30 23L29 23L29 25L31 25L31 26L29 26L29 29L26 29L26 31L27 31L27 36L28 36L28 37L27 37L27 39L29 39L29 41L30 41L30 40L31 40L31 41L32 41L32 44L30 44L30 43L31 43L31 42L28 42L28 41L27 41L27 43L26 43L26 44L28 44L28 43L29 43L29 44L30 44L30 45L32 45L32 46L30 46L30 47L29 47L29 48L30 48L30 49L32 49L32 48L33 48L33 49L34 49L34 50L35 50L35 51L36 51L36 52L37 52L37 51L39 51L39 50L38 50L38 48L40 48L40 46L41 46L41 44L42 44L42 45L43 45L43 44L44 44L44 43L43 43L43 42L45 42L45 44L47 44L47 43L46 43L46 42L47 42L47 41L48 41L48 40L49 40L49 38L48 38L48 39L46 39L46 38L47 38L47 37L49 37L49 36L48 36L48 35L49 35L49 34L47 34L47 36L46 36L46 37L45 37L45 41L43 41L43 40L44 40L44 39L43 39L43 38L42 38L42 39L43 39L43 40L41 40L41 36L42 36L42 37L43 37L43 36L44 36L44 34L45 34L45 35L46 35L46 32L47 32L47 31L49 31L49 30L50 30L50 28L49 28L49 30L47 30L47 29L46 29L46 30L45 30L45 29L43 29L43 30L42 30L42 32L44 32L44 31L46 31L46 32L45 32L45 33L44 33L44 34L43 34L43 36L42 36L42 34L41 34L41 32L40 32L40 34L39 34L39 35L41 35L41 36L40 36L40 38L38 38L38 36L37 36L37 34L38 34L38 33L36 33L36 31L37 31L37 32L39 32L39 31L40 31L40 30L41 30L41 29L42 29L42 27L43 27L43 28L44 28L44 27L43 27L43 26L41 26L41 21L45 21L45 18L44 18L44 17L43 17L43 18L42 18L42 19L43 19L43 20L41 20L41 19L39 19L39 18L40 18L40 17L42 17L42 16L45 16L45 15L46 15L46 14L45 14L45 15L43 15L43 14L44 14L44 12L43 12L43 11L42 11L42 10L41 10L41 9L42 9L42 8L40 8L40 10L41 10L41 12L40 12L40 13L39 13L39 12L38 12L38 11L39 11L39 10L38 10L38 9L36 9L36 11L34 11L34 12L33 12L33 11L32 11L32 12L31 12L31 13L32 13L32 12L33 12L33 13L34 13L34 14L35 14L35 15L34 15L34 19L32 19L32 18L33 18L33 17L32 17L32 15L33 15L33 14L32 14L32 15L31 15L31 14L29 14L29 12L28 12L28 13L27 13L27 14L25 14L25 13L26 13L26 12L27 12L27 11L28 11L28 9L27 9L27 11L26 11L26 12L25 12L25 9L24 9L24 5L23 5L23 8L22 8L22 5ZM25 5L25 8L28 8L28 5ZM38 5L38 6L37 6L37 7L36 7L36 8L37 8L37 7L38 7L38 8L39 8L39 7L40 7L40 6L39 6L39 5ZM13 6L13 7L14 7L14 8L15 8L15 7L14 7L14 6ZM17 6L17 7L18 7L18 6ZM26 6L26 7L27 7L27 6ZM38 6L38 7L39 7L39 6ZM41 6L41 7L42 7L42 6ZM47 8L47 9L48 9L48 8ZM18 9L18 10L16 10L16 11L15 11L15 12L16 12L16 13L15 13L15 14L16 14L16 15L18 15L18 14L16 14L16 13L20 13L20 14L19 14L19 15L20 15L20 17L19 17L19 16L18 16L18 17L13 17L13 19L12 19L12 20L13 20L13 21L12 21L12 22L13 22L13 21L15 21L15 20L14 20L14 18L15 18L15 19L16 19L16 18L17 18L17 20L16 20L16 21L17 21L17 22L18 22L18 23L17 23L17 25L18 25L18 26L19 26L19 25L21 25L21 23L22 23L22 24L23 24L23 23L22 23L22 20L23 20L23 19L25 19L25 18L26 18L26 19L27 19L27 18L26 18L26 17L27 17L27 16L26 16L26 15L25 15L25 16L26 16L26 17L25 17L25 18L23 18L23 17L24 17L24 16L23 16L23 17L21 17L21 16L22 16L22 14L23 14L23 15L24 15L24 13L25 13L25 12L24 12L24 13L22 13L22 12L23 12L23 11L24 11L24 9L23 9L23 10L20 10L20 11L19 11L19 9ZM34 9L34 10L35 10L35 9ZM43 9L43 10L44 10L44 11L45 11L45 10L44 10L44 9ZM50 9L50 10L51 10L51 9ZM2 10L2 11L3 11L3 10ZM37 10L37 11L36 11L36 12L34 12L34 13L35 13L35 14L36 14L36 15L38 15L38 18L39 18L39 17L40 17L40 15L41 15L41 16L42 16L42 14L43 14L43 13L42 13L42 12L41 12L41 14L40 14L40 15L39 15L39 13L38 13L38 14L37 14L37 11L38 11L38 10ZM17 11L17 12L19 12L19 11ZM20 12L20 13L21 13L21 12ZM6 13L6 14L7 14L7 13ZM20 14L20 15L21 15L21 14ZM28 14L28 16L29 16L29 14ZM6 16L6 17L7 17L7 16ZM35 16L35 17L36 17L36 18L35 18L35 21L36 21L36 22L37 22L37 21L38 21L38 22L39 22L39 23L37 23L37 24L34 24L34 25L35 25L35 26L34 26L34 28L35 28L35 27L36 27L36 29L35 29L35 30L34 30L34 29L33 29L33 28L32 28L32 29L29 29L29 30L27 30L27 31L28 31L28 32L29 32L29 34L28 34L28 36L29 36L29 37L28 37L28 38L29 38L29 39L30 39L30 38L31 38L31 37L32 37L32 38L33 38L33 39L32 39L32 41L33 41L33 43L34 43L34 41L33 41L33 40L34 40L34 37L37 37L37 36L35 36L35 35L36 35L36 33L35 33L35 32L34 32L34 31L35 31L35 30L37 30L37 29L38 29L38 31L39 31L39 29L40 29L40 28L41 28L41 26L40 26L40 24L39 24L39 23L40 23L40 21L38 21L38 20L39 20L39 19L38 19L38 20L36 20L36 18L37 18L37 16ZM4 17L4 18L5 18L5 17ZM8 17L8 18L6 18L6 19L8 19L8 18L9 18L9 21L11 21L11 19L10 19L10 17ZM18 18L18 19L19 19L19 20L21 20L21 18L20 18L20 19L19 19L19 18ZM49 18L49 19L50 19L50 18ZM31 19L31 20L32 20L32 19ZM3 20L3 21L2 21L2 22L3 22L3 21L4 21L4 20ZM6 20L6 21L7 21L7 20ZM19 21L19 22L20 22L20 23L19 23L19 24L18 24L18 25L19 25L19 24L20 24L20 23L21 23L21 22L20 22L20 21ZM51 21L51 22L52 22L52 24L53 24L53 22L52 22L52 21ZM5 22L5 23L7 23L7 22ZM9 23L9 24L10 24L10 23ZM30 23L30 24L31 24L31 23ZM37 24L37 25L38 25L38 24ZM43 24L43 25L44 25L44 24ZM5 25L5 28L8 28L8 25ZM25 25L25 28L28 28L28 25ZM45 25L45 28L48 28L48 25ZM6 26L6 27L7 27L7 26ZM10 26L10 27L11 27L11 26ZM26 26L26 27L27 27L27 26ZM39 26L39 28L38 28L38 29L39 29L39 28L40 28L40 26ZM46 26L46 27L47 27L47 26ZM30 27L30 28L31 28L31 27ZM19 28L19 29L21 29L21 28ZM6 29L6 30L7 30L7 29ZM15 29L15 30L16 30L16 29ZM32 29L32 30L31 30L31 31L30 31L30 32L31 32L31 33L32 33L32 32L33 32L33 33L34 33L34 35L35 35L35 33L34 33L34 32L33 32L33 31L34 31L34 30L33 30L33 29ZM46 30L46 31L47 31L47 30ZM3 31L3 32L1 32L1 33L0 33L0 34L1 34L1 35L0 35L0 36L1 36L1 35L2 35L2 33L3 33L3 32L4 32L4 31ZM5 33L5 34L7 34L7 33ZM8 33L8 34L9 34L9 33ZM21 33L21 34L20 34L20 35L19 35L19 37L16 37L16 38L13 38L13 39L14 39L14 40L16 40L16 41L15 41L15 42L14 42L14 41L13 41L13 42L12 42L12 44L13 44L13 45L12 45L12 46L10 46L10 47L12 47L12 46L13 46L13 45L14 45L14 44L15 44L15 45L16 45L16 48L14 48L14 49L13 49L13 48L11 48L11 49L10 49L10 48L9 48L9 49L10 49L10 50L12 50L12 49L13 49L13 50L14 50L14 49L18 49L18 48L19 48L19 49L20 49L20 48L21 48L21 47L22 47L22 48L23 48L23 49L21 49L21 50L24 50L24 47L23 47L23 46L20 46L20 44L19 44L19 46L18 46L18 45L16 45L16 44L15 44L15 43L16 43L16 42L18 42L18 41L19 41L19 43L20 43L20 42L21 42L21 45L24 45L24 43L23 43L23 44L22 44L22 42L21 42L21 41L19 41L19 40L18 40L18 41L17 41L17 39L18 39L18 38L19 38L19 37L21 37L21 34L22 34L22 35L23 35L23 33ZM29 34L29 36L30 36L30 35L31 35L31 34ZM52 34L52 35L51 35L51 38L52 38L52 39L53 39L53 38L52 38L52 37L53 37L53 34ZM6 35L6 36L7 36L7 35ZM33 36L33 37L34 37L34 36ZM35 38L35 42L36 42L36 43L35 43L35 45L38 45L38 47L37 47L37 46L36 46L36 47L35 47L35 46L34 46L34 45L33 45L33 44L32 44L32 45L33 45L33 46L32 46L32 47L31 47L31 48L32 48L32 47L33 47L33 48L34 48L34 49L35 49L35 50L36 50L36 51L37 51L37 48L38 48L38 47L39 47L39 46L40 46L40 44L41 44L41 42L43 42L43 41L40 41L40 39L39 39L39 40L38 40L38 39L37 39L37 38ZM6 41L6 42L7 42L7 41ZM37 41L37 44L38 44L38 45L39 45L39 44L38 44L38 43L40 43L40 42L38 42L38 41ZM45 41L45 42L46 42L46 41ZM2 42L2 43L3 43L3 42ZM13 42L13 43L14 43L14 42ZM49 42L49 43L50 43L50 42ZM6 44L6 45L7 45L7 44ZM9 44L9 45L11 45L11 44ZM25 45L25 48L28 48L28 45ZM45 45L45 48L48 48L48 45ZM17 46L17 47L18 47L18 46ZM19 46L19 47L20 47L20 46ZM26 46L26 47L27 47L27 46ZM33 46L33 47L34 47L34 46ZM46 46L46 47L47 47L47 46ZM49 46L49 47L50 47L50 46ZM25 49L25 50L26 50L26 49ZM47 49L47 51L48 51L48 52L49 52L49 49ZM31 50L31 51L32 51L32 50ZM13 51L13 52L14 52L14 51ZM16 52L16 53L19 53L19 52ZM20 52L20 53L22 53L22 52ZM41 52L41 53L44 53L44 52ZM0 0L0 7L7 7L7 0ZM1 1L1 6L6 6L6 1ZM2 2L2 5L5 5L5 2ZM46 0L46 7L53 7L53 0ZM47 1L47 6L52 6L52 1ZM48 2L48 5L51 5L51 2ZM0 46L0 53L7 53L7 46ZM1 47L1 52L6 52L6 47ZM2 48L2 51L5 51L5 48Z" fill="#000000"/></g></g></svg>
