<?xml version="1.0" encoding="UTF-8"?>
<svg xmlns="http://www.w3.org/2000/svg" version="1.1" width="356" height="356" viewBox="0 0 356 356"><rect x="0" y="0" width="356" height="356" fill="#ffffff"/><g transform="scale(6.717)"><g transform="translate(0,0)"><path fill-rule="evenodd" d="M8 0L8 1L9 1L9 2L8 2L8 5L9 5L9 3L10 3L10 4L11 4L11 2L10 2L10 1L9 1L9 0ZM11 0L11 1L12 1L12 2L13 2L13 0ZM16 0L16 2L15 2L15 3L16 3L16 4L17 4L17 6L16 6L16 7L17 7L17 8L15 8L15 6L14 6L14 4L12 4L12 5L10 5L10 7L9 7L9 6L8 6L8 7L9 7L9 8L8 8L8 9L7 9L7 8L6 8L6 9L7 9L7 10L5 10L5 11L4 11L4 8L0 8L0 9L1 9L1 10L0 10L0 11L1 11L1 12L0 12L0 15L1 15L1 16L2 16L2 17L0 17L0 20L2 20L2 22L1 22L1 23L0 23L0 24L1 24L1 25L0 25L0 27L1 27L1 25L2 25L2 28L3 28L3 29L7 29L7 30L5 30L5 31L2 31L2 30L0 30L0 32L1 32L1 37L0 37L0 38L1 38L1 39L0 39L0 41L1 41L1 40L2 40L2 42L0 42L0 43L1 43L1 44L3 44L3 45L4 45L4 44L3 44L3 43L7 43L7 44L6 44L6 45L7 45L7 44L8 44L8 46L9 46L9 47L10 47L10 48L9 48L9 49L8 49L8 53L9 53L9 52L10 52L10 49L11 49L11 50L12 50L12 51L14 51L14 49L13 49L13 47L12 47L12 46L11 46L11 45L10 45L10 44L8 44L8 43L7 43L7 42L8 42L8 40L10 40L10 39L8 39L8 38L10 38L10 37L12 37L12 36L13 36L13 37L14 37L14 38L13 38L13 39L11 39L11 40L12 40L12 42L11 42L11 41L9 41L9 43L10 43L10 42L11 42L11 44L12 44L12 43L13 43L13 40L14 40L14 41L16 41L16 42L17 42L17 41L16 41L16 40L17 40L17 39L20 39L20 43L17 43L17 45L18 45L18 46L16 46L16 47L17 47L17 48L18 48L18 49L20 49L20 50L21 50L21 49L20 49L20 48L21 48L21 47L23 47L23 48L22 48L22 49L23 49L23 50L22 50L22 51L21 51L21 52L19 52L19 50L18 50L18 51L16 51L16 53L17 53L17 52L19 52L19 53L22 53L22 51L23 51L23 50L24 50L24 52L26 52L26 51L27 51L27 50L28 50L28 51L31 51L31 52L29 52L29 53L33 53L33 52L32 52L32 51L33 51L33 50L34 50L34 53L35 53L35 52L38 52L38 53L40 53L40 52L42 52L42 50L41 50L41 49L38 49L38 48L39 48L39 47L38 47L38 46L35 46L35 47L34 47L34 48L33 48L33 49L32 49L32 48L31 48L31 49L32 49L32 50L30 50L30 49L29 49L29 46L30 46L30 47L33 47L33 46L31 46L31 45L30 45L30 44L31 44L31 43L32 43L32 42L33 42L33 43L35 43L35 42L36 42L36 43L37 43L37 44L38 44L38 45L39 45L39 46L40 46L40 47L42 47L42 48L43 48L43 47L42 47L42 46L44 46L44 50L45 50L45 51L46 51L46 49L47 49L47 51L48 51L48 52L47 52L47 53L48 53L48 52L49 52L49 53L50 53L50 52L49 52L49 51L48 51L48 50L49 50L49 49L50 49L50 51L51 51L51 53L52 53L52 50L51 50L51 48L52 48L52 49L53 49L53 47L52 47L52 46L53 46L53 45L51 45L51 41L52 41L52 42L53 42L53 40L50 40L50 39L47 39L47 37L46 37L46 36L49 36L49 34L51 34L51 35L52 35L52 37L51 37L51 36L50 36L50 37L51 37L51 39L53 39L53 38L52 38L52 37L53 37L53 35L52 35L52 33L53 33L53 31L52 31L52 32L51 32L51 31L50 31L50 30L48 30L48 29L49 29L49 28L50 28L50 29L51 29L51 28L50 28L50 26L51 26L51 27L53 27L53 26L51 26L51 25L53 25L53 24L50 24L50 25L49 25L49 24L46 24L46 22L45 22L45 24L43 24L43 26L44 26L44 29L47 29L47 32L45 32L45 33L46 33L46 34L44 34L44 32L42 32L42 33L41 33L41 31L38 31L38 30L36 30L36 27L37 27L37 26L39 26L39 25L37 25L37 24L36 24L36 23L35 23L35 24L34 24L34 23L32 23L32 22L33 22L33 21L31 21L31 20L35 20L35 21L36 21L36 22L37 22L37 23L39 23L39 24L40 24L40 23L41 23L41 24L42 24L42 23L43 23L43 22L44 22L44 21L45 21L45 20L47 20L47 22L48 22L48 20L47 20L47 18L48 18L48 15L50 15L50 14L51 14L51 17L50 17L50 18L49 18L49 19L50 19L50 21L49 21L49 23L52 23L52 21L53 21L53 19L52 19L52 21L51 21L51 19L50 19L50 18L51 18L51 17L52 17L52 18L53 18L53 13L52 13L52 10L51 10L51 8L48 8L48 9L50 9L50 10L51 10L51 13L49 13L49 11L46 11L46 12L48 12L48 13L49 13L49 14L48 14L48 15L47 15L47 14L46 14L46 13L44 13L44 12L42 12L42 11L43 11L43 10L44 10L44 11L45 11L45 10L44 10L44 9L46 9L46 8L43 8L43 3L44 3L44 4L45 4L45 3L44 3L44 1L43 1L43 0L39 0L39 1L38 1L38 0L35 0L35 1L33 1L33 2L32 2L32 3L31 3L31 2L30 2L30 1L32 1L32 0L28 0L28 1L27 1L27 2L28 2L28 1L29 1L29 2L30 2L30 4L31 4L31 5L33 5L33 6L32 6L32 7L33 7L33 6L34 6L34 7L35 7L35 11L34 11L34 12L35 12L35 13L38 13L38 15L37 15L37 14L34 14L34 13L33 13L33 14L34 14L34 15L32 15L32 16L31 16L31 15L30 15L30 14L27 14L27 13L31 13L31 14L32 14L32 10L33 10L33 9L34 9L34 8L33 8L33 9L30 9L30 8L31 8L31 6L30 6L30 5L29 5L29 3L26 3L26 1L25 1L25 0L23 0L23 1L22 1L22 0L21 0L21 1L19 1L19 0ZM17 1L17 2L16 2L16 3L17 3L17 2L19 2L19 1ZM23 1L23 2L25 2L25 1ZM37 1L37 2L35 2L35 3L32 3L32 4L33 4L33 5L34 5L34 6L35 6L35 7L36 7L36 12L37 12L37 8L39 8L39 7L40 7L40 8L42 8L42 9L43 9L43 8L42 8L42 6L41 6L41 5L40 5L40 4L41 4L41 3L43 3L43 2L41 2L41 1L40 1L40 2L38 2L38 1ZM20 2L20 3L21 3L21 5L19 5L19 8L20 8L20 9L21 9L21 7L22 7L22 5L23 5L23 9L22 9L22 11L21 11L21 10L19 10L19 11L18 11L18 12L19 12L19 13L20 13L20 11L21 11L21 14L17 14L17 13L16 13L16 14L17 14L17 15L19 15L19 16L18 16L18 18L17 18L17 16L16 16L16 15L15 15L15 16L14 16L14 14L15 14L15 12L16 12L16 11L17 11L17 10L18 10L18 9L16 9L16 11L15 11L15 12L14 12L14 10L15 10L15 8L14 8L14 10L10 10L10 8L11 8L11 9L13 9L13 8L11 8L11 7L12 7L12 6L13 6L13 7L14 7L14 6L13 6L13 5L12 5L12 6L11 6L11 7L10 7L10 8L9 8L9 10L7 10L7 11L6 11L6 12L8 12L8 13L5 13L5 14L8 14L8 15L6 15L6 16L5 16L5 15L4 15L4 16L5 16L5 17L2 17L2 18L1 18L1 19L2 19L2 20L4 20L4 22L2 22L2 23L1 23L1 24L2 24L2 25L3 25L3 24L4 24L4 23L5 23L5 24L7 24L7 23L6 23L6 22L9 22L9 24L11 24L11 25L12 25L12 23L13 23L13 25L15 25L15 26L14 26L14 27L13 27L13 26L12 26L12 27L13 27L13 28L12 28L12 29L11 29L11 28L9 28L9 29L11 29L11 30L10 30L10 31L11 31L11 33L10 33L10 32L9 32L9 30L8 30L8 31L6 31L6 32L2 32L2 35L4 35L4 36L5 36L5 37L6 37L6 38L8 38L8 34L9 34L9 33L10 33L10 34L11 34L11 33L12 33L12 35L11 35L11 36L12 36L12 35L14 35L14 37L15 37L15 35L16 35L16 36L18 36L18 35L19 35L19 34L21 34L21 32L22 32L22 35L20 35L20 36L21 36L21 37L24 37L24 36L25 36L25 34L26 34L26 33L27 33L27 32L26 32L26 31L25 31L25 30L27 30L27 31L28 31L28 33L29 33L29 32L31 32L31 34L32 34L32 35L30 35L30 36L28 36L28 37L27 37L27 35L28 35L28 34L27 34L27 35L26 35L26 37L27 37L27 38L23 38L23 39L22 39L22 38L21 38L21 41L24 41L24 42L22 42L22 43L20 43L20 44L18 44L18 45L20 45L20 46L18 46L18 48L19 48L19 47L21 47L21 46L24 46L24 45L20 45L20 44L24 44L24 42L25 42L25 41L24 41L24 40L27 40L27 41L26 41L26 43L28 43L28 44L30 44L30 43L31 43L31 40L32 40L32 39L31 39L31 37L32 37L32 38L34 38L34 39L35 39L35 40L33 40L33 41L37 41L37 42L40 42L40 43L39 43L39 44L43 44L43 43L42 43L42 42L44 42L44 44L46 44L46 43L47 43L47 44L49 44L49 43L50 43L50 42L49 42L49 41L50 41L50 40L48 40L48 42L49 42L49 43L47 43L47 39L46 39L46 41L45 41L45 42L44 42L44 40L45 40L45 39L44 39L44 38L43 38L43 37L44 37L44 36L42 36L42 37L41 37L41 36L39 36L39 34L40 34L40 35L41 35L41 34L40 34L40 33L38 33L38 32L36 32L36 31L35 31L35 30L32 30L32 29L31 29L31 28L35 28L35 27L36 27L36 26L37 26L37 25L34 25L34 26L35 26L35 27L29 27L29 30L28 30L28 29L25 29L25 30L24 30L24 26L23 26L23 25L24 25L24 24L27 24L27 22L26 22L26 21L25 21L25 23L24 23L24 22L23 22L23 21L24 21L24 20L25 20L25 16L21 16L21 17L20 17L20 19L19 19L19 20L18 20L18 21L19 21L19 20L20 20L20 22L21 22L21 23L22 23L22 22L23 22L23 24L22 24L22 25L21 25L21 24L18 24L18 22L17 22L17 20L14 20L14 21L15 21L15 23L14 23L14 22L13 22L13 18L11 18L11 17L12 17L12 16L14 16L14 19L15 19L15 17L16 17L16 18L17 18L17 19L18 19L18 18L19 18L19 16L20 16L20 15L23 15L23 13L26 13L26 12L30 12L30 11L31 11L31 10L30 10L30 11L29 11L29 10L28 10L28 11L27 11L27 9L26 9L26 10L25 10L25 9L24 9L24 4L25 4L25 3L22 3L22 2ZM40 2L40 3L41 3L41 2ZM35 3L35 6L36 6L36 7L37 7L37 6L36 6L36 4L37 4L37 5L39 5L39 4L37 4L37 3ZM25 5L25 8L28 8L28 5ZM17 6L17 7L18 7L18 6ZM20 6L20 7L21 7L21 6ZM26 6L26 7L27 7L27 6ZM29 6L29 8L30 8L30 6ZM38 6L38 7L39 7L39 6ZM40 6L40 7L41 7L41 6ZM44 6L44 7L45 7L45 6ZM52 8L52 9L53 9L53 8ZM2 9L2 11L3 11L3 13L4 13L4 11L3 11L3 9ZM38 9L38 13L40 13L40 14L39 14L39 15L38 15L38 17L37 17L37 16L34 16L34 17L35 17L35 19L36 19L36 21L37 21L37 20L38 20L38 19L39 19L39 18L41 18L41 15L42 15L42 18L43 18L43 19L45 19L45 16L44 16L44 15L43 15L43 13L42 13L42 12L39 12L39 11L40 11L40 10L41 10L41 9ZM9 10L9 12L10 12L10 10ZM23 10L23 12L24 12L24 10ZM11 11L11 12L12 12L12 13L11 13L11 14L9 14L9 13L8 13L8 14L9 14L9 15L8 15L8 16L9 16L9 17L7 17L7 16L6 16L6 17L7 17L7 18L5 18L5 19L8 19L8 21L9 21L9 19L8 19L8 18L10 18L10 17L11 17L11 16L12 16L12 15L13 15L13 14L14 14L14 13L13 13L13 12L12 12L12 11ZM12 13L12 14L11 14L11 15L12 15L12 14L13 14L13 13ZM1 14L1 15L2 15L2 16L3 16L3 14ZM24 14L24 15L26 15L26 16L29 16L29 17L28 17L28 18L27 18L27 17L26 17L26 19L28 19L28 20L27 20L27 21L29 21L29 20L31 20L31 19L32 19L32 18L31 18L31 17L30 17L30 16L29 16L29 15L27 15L27 14ZM40 14L40 15L41 15L41 14ZM45 14L45 15L46 15L46 14ZM9 15L9 16L10 16L10 15ZM39 16L39 17L40 17L40 16ZM46 16L46 17L47 17L47 16ZM21 17L21 18L22 18L22 17ZM23 17L23 18L24 18L24 17ZM3 18L3 19L4 19L4 18ZM29 18L29 19L30 19L30 18ZM36 18L36 19L38 19L38 18ZM20 19L20 20L21 20L21 21L23 21L23 19ZM5 20L5 22L6 22L6 21L7 21L7 20ZM11 20L11 21L10 21L10 23L12 23L12 22L11 22L11 21L12 21L12 20ZM39 20L39 21L38 21L38 22L39 22L39 23L40 23L40 22L41 22L41 23L42 23L42 21L43 21L43 20L42 20L42 21L40 21L40 20ZM16 22L16 23L17 23L17 22ZM28 22L28 24L29 24L29 26L31 26L31 25L30 25L30 23L31 23L31 22L30 22L30 23L29 23L29 22ZM17 24L17 26L15 26L15 27L14 27L14 30L13 30L13 29L12 29L12 32L13 32L13 31L15 31L15 30L17 30L17 28L18 28L18 24ZM32 24L32 25L33 25L33 24ZM5 25L5 28L8 28L8 25ZM9 25L9 27L10 27L10 25ZM19 25L19 30L18 30L18 31L19 31L19 30L20 30L20 28L21 28L21 30L22 30L22 32L23 32L23 29L22 29L22 28L21 28L21 27L23 27L23 26L20 26L20 25ZM25 25L25 28L28 28L28 25ZM45 25L45 28L48 28L48 25ZM6 26L6 27L7 27L7 26ZM26 26L26 27L27 27L27 26ZM40 26L40 27L38 27L38 28L39 28L39 30L40 30L40 27L41 27L41 28L43 28L43 27L42 27L42 26ZM46 26L46 27L47 27L47 26ZM3 27L3 28L4 28L4 27ZM16 27L16 28L15 28L15 29L16 29L16 28L17 28L17 27ZM52 28L52 29L53 29L53 28ZM41 29L41 30L42 30L42 31L45 31L45 30L42 30L42 29ZM29 30L29 31L30 31L30 30ZM16 31L16 35L17 35L17 34L19 34L19 33L17 33L17 31ZM20 31L20 32L21 32L21 31ZM24 31L24 33L23 33L23 36L24 36L24 34L25 34L25 31ZM32 31L32 32L33 32L33 31ZM34 31L34 32L35 32L35 31ZM6 32L6 33L5 33L5 34L6 34L6 35L7 35L7 34L8 34L8 33L7 33L7 32ZM14 32L14 33L15 33L15 32ZM47 32L47 33L50 33L50 32ZM3 33L3 34L4 34L4 33ZM6 33L6 34L7 34L7 33ZM35 33L35 34L34 34L34 35L32 35L32 36L35 36L35 37L36 37L36 38L35 38L35 39L36 39L36 38L37 38L37 41L38 41L38 39L39 39L39 41L40 41L40 37L37 37L37 36L35 36L35 35L36 35L36 33ZM37 33L37 35L38 35L38 33ZM14 34L14 35L15 35L15 34ZM42 34L42 35L44 35L44 34ZM46 34L46 35L45 35L45 36L46 36L46 35L47 35L47 34ZM6 36L6 37L7 37L7 36ZM9 36L9 37L10 37L10 36ZM30 36L30 37L31 37L31 36ZM1 37L1 38L2 38L2 37ZM16 37L16 39L15 39L15 38L14 38L14 40L16 40L16 39L17 39L17 37ZM19 37L19 38L20 38L20 37ZM28 37L28 38L29 38L29 37ZM45 37L45 38L46 38L46 37ZM6 39L6 40L5 40L5 41L6 41L6 42L7 42L7 41L6 41L6 40L8 40L8 39ZM23 39L23 40L24 40L24 39ZM30 39L30 40L31 40L31 39ZM41 39L41 40L44 40L44 39ZM18 40L18 41L19 41L19 40ZM28 40L28 41L29 41L29 40ZM3 41L3 42L2 42L2 43L3 43L3 42L4 42L4 41ZM41 41L41 42L42 42L42 41ZM14 42L14 44L15 44L15 42ZM28 42L28 43L30 43L30 42ZM52 43L52 44L53 44L53 43ZM33 44L33 45L36 45L36 44ZM13 45L13 46L14 46L14 45ZM25 45L25 48L28 48L28 45ZM40 45L40 46L41 46L41 45ZM45 45L45 48L48 48L48 45ZM49 45L49 48L51 48L51 46L50 46L50 45ZM10 46L10 47L11 47L11 49L12 49L12 47L11 47L11 46ZM26 46L26 47L27 47L27 46ZM46 46L46 47L47 47L47 46ZM15 48L15 50L17 50L17 49L16 49L16 48ZM23 48L23 49L24 49L24 50L25 50L25 51L26 51L26 50L25 50L25 49L24 49L24 48ZM35 48L35 49L34 49L34 50L35 50L35 49L36 49L36 48ZM28 49L28 50L29 50L29 49ZM36 50L36 51L38 51L38 52L40 52L40 50ZM12 52L12 53L15 53L15 52ZM27 52L27 53L28 53L28 52ZM43 52L43 53L44 53L44 52ZM45 52L45 53L46 53L46 52ZM0 0L0 7L7 7L7 0ZM1 1L1 6L6 6L6 1ZM2 2L2 5L5 5L5 2ZM46 0L46 7L53 7L53 0ZM47 1L47 6L52 6L52 1ZM48 2L48 5L51 5L51 2ZM0 46L0 53L7 53L7 46ZM1 47L1 52L6 52L6 47ZM2 48L2 51L5 51L5 48Z" fill="#000000"/></g></g></svg>
