<?xml version="1.0" encoding="UTF-8"?>
<svg xmlns="http://www.w3.org/2000/svg" version="1.1" width="356" height="356" viewBox="0 0 356 356"><rect x="0" y="0" width="356" height="356" fill="#ffffff"/><g transform="scale(6.717)"><g transform="translate(0,0)"><path fill-rule="evenodd" d="M10 0L10 2L9 2L9 1L8 1L8 2L9 2L9 3L8 3L8 4L9 4L9 5L8 5L8 7L9 7L9 6L10 6L10 8L6 8L6 9L9 9L9 10L6 10L6 11L5 11L5 10L4 10L4 9L5 9L5 8L0 8L0 10L2 10L2 11L1 11L1 14L0 14L0 18L2 18L2 20L1 20L1 19L0 19L0 21L2 21L2 20L3 20L3 22L5 22L5 23L4 23L4 28L3 28L3 26L2 26L2 25L3 25L3 23L2 23L2 22L0 22L0 23L1 23L1 25L0 25L0 29L1 29L1 30L0 30L0 34L1 34L1 35L0 35L0 41L4 41L4 42L3 42L3 43L2 43L2 42L0 42L0 43L1 43L1 44L3 44L3 45L4 45L4 44L3 44L3 43L7 43L7 44L6 44L6 45L7 45L7 44L8 44L8 47L9 47L9 45L10 45L10 47L11 47L11 49L10 49L10 48L8 48L8 53L9 53L9 52L10 52L10 53L11 53L11 51L14 51L14 52L15 52L15 53L20 53L20 52L19 52L19 51L20 51L20 50L19 50L19 49L20 49L20 48L22 48L22 49L21 49L21 50L22 50L22 49L23 49L23 51L22 51L22 52L23 52L23 53L25 53L25 52L23 52L23 51L24 51L24 50L26 50L26 52L28 52L28 51L29 51L29 52L30 52L30 53L32 53L32 51L34 51L34 52L33 52L33 53L38 53L38 52L39 52L39 53L40 53L40 52L41 52L41 53L42 53L42 52L41 52L41 51L40 51L40 50L42 50L42 51L44 51L44 50L43 50L43 48L44 48L44 49L45 49L45 51L46 51L46 50L47 50L47 51L48 51L48 53L49 53L49 52L50 52L50 53L51 53L51 52L52 52L52 51L53 51L53 50L52 50L52 49L53 49L53 47L52 47L52 46L53 46L53 43L51 43L51 45L50 45L50 47L49 47L49 44L50 44L50 43L49 43L49 42L50 42L50 41L49 41L49 40L50 40L50 38L51 38L51 37L50 37L50 38L49 38L49 37L47 37L47 38L48 38L48 39L47 39L47 40L48 40L48 41L47 41L47 43L46 43L46 42L45 42L45 41L46 41L46 40L45 40L45 39L44 39L44 41L42 41L42 42L40 42L40 43L39 43L39 42L38 42L38 41L37 41L37 40L35 40L35 39L36 39L36 38L38 38L38 40L41 40L41 38L43 38L43 37L40 37L40 39L39 39L39 38L38 38L38 37L39 37L39 36L40 36L40 35L42 35L42 34L43 34L43 32L42 32L42 31L44 31L44 32L45 32L45 33L44 33L44 34L47 34L47 36L48 36L48 34L49 34L49 36L50 36L50 34L52 34L52 33L51 33L51 32L50 32L50 29L49 29L49 28L50 28L50 27L49 27L49 24L50 24L50 25L51 25L51 26L52 26L52 23L51 23L51 24L50 24L50 22L52 22L52 20L53 20L53 19L51 19L51 20L49 20L49 19L50 19L50 18L52 18L52 17L53 17L53 15L51 15L51 16L50 16L50 17L49 17L49 16L48 16L48 15L49 15L49 14L50 14L50 13L49 13L49 12L50 12L50 10L51 10L51 9L52 9L52 8L51 8L51 9L50 9L50 8L49 8L49 10L47 10L47 11L46 11L46 10L45 10L45 13L46 13L46 12L47 12L47 13L49 13L49 14L48 14L48 15L45 15L45 16L48 16L48 17L47 17L47 18L45 18L45 20L43 20L43 19L44 19L44 15L43 15L43 14L44 14L44 13L43 13L43 12L44 12L44 10L43 10L43 9L46 9L46 8L45 8L45 6L44 6L44 7L43 7L43 3L44 3L44 4L45 4L45 3L44 3L44 1L43 1L43 0L39 0L39 1L38 1L38 0L35 0L35 1L34 1L34 2L33 2L33 1L32 1L32 0L28 0L28 1L29 1L29 2L27 2L27 3L24 3L24 1L25 1L25 2L26 2L26 1L27 1L27 0L26 0L26 1L25 1L25 0L23 0L23 5L24 5L24 7L23 7L23 6L22 6L22 4L21 4L21 3L18 3L18 2L20 2L20 1L19 1L19 0L16 0L16 1L15 1L15 2L13 2L13 3L15 3L15 2L16 2L16 4L12 4L12 3L11 3L11 1L13 1L13 0ZM31 1L31 2L32 2L32 1ZM35 1L35 2L37 2L37 4L38 4L38 5L37 5L37 9L36 9L36 10L35 10L35 9L34 9L34 8L36 8L36 6L35 6L35 7L34 7L34 5L36 5L36 4L35 4L35 3L31 3L31 4L32 4L32 5L31 5L31 8L29 8L29 9L26 9L26 10L27 10L27 11L26 11L26 13L25 13L25 14L26 14L26 17L25 17L25 18L24 18L24 16L22 16L22 17L21 17L21 16L20 16L20 15L21 15L21 14L23 14L23 15L24 15L24 12L21 12L21 13L20 13L20 12L19 12L19 13L15 13L15 11L16 11L16 12L17 12L17 11L20 11L20 10L18 10L18 9L22 9L22 10L23 10L23 11L24 11L24 10L25 10L25 9L24 9L24 8L22 8L22 6L21 6L21 4L20 4L20 6L19 6L19 4L16 4L16 5L18 5L18 6L17 6L17 7L16 7L16 6L15 6L15 5L11 5L11 4L10 4L10 5L11 5L11 7L12 7L12 6L13 6L13 7L14 7L14 8L11 8L11 11L10 11L10 10L9 10L9 11L6 11L6 12L9 12L9 13L6 13L6 14L7 14L7 15L5 15L5 13L4 13L4 15L3 15L3 17L2 17L2 16L1 16L1 17L2 17L2 18L4 18L4 20L5 20L5 18L9 18L9 20L8 20L8 19L6 19L6 20L8 20L8 21L6 21L6 22L8 22L8 23L10 23L10 24L12 24L12 25L14 25L14 26L10 26L10 25L9 25L9 26L10 26L10 28L9 28L9 29L8 29L8 30L9 30L9 32L7 32L7 31L6 31L6 30L7 30L7 29L2 29L2 30L1 30L1 32L2 32L2 33L1 33L1 34L2 34L2 35L1 35L1 37L2 37L2 36L4 36L4 37L3 37L3 38L2 38L2 39L1 39L1 40L2 40L2 39L4 39L4 37L5 37L5 39L6 39L6 40L4 40L4 41L6 41L6 42L7 42L7 43L8 43L8 44L10 44L10 45L11 45L11 46L12 46L12 45L13 45L13 44L10 44L10 41L11 41L11 43L14 43L14 42L15 42L15 43L16 43L16 44L19 44L19 43L20 43L20 42L18 42L18 41L21 41L21 42L23 42L23 44L21 44L21 45L20 45L20 46L19 46L19 48L20 48L20 46L21 46L21 47L22 47L22 46L23 46L23 47L24 47L24 43L25 43L25 44L26 44L26 43L27 43L27 44L29 44L29 43L30 43L30 45L31 45L31 46L32 46L32 49L31 49L31 51L32 51L32 50L34 50L34 51L35 51L35 52L36 52L36 50L35 50L35 49L36 49L36 48L37 48L37 49L38 49L38 51L37 51L37 52L38 52L38 51L39 51L39 52L40 52L40 51L39 51L39 49L41 49L41 48L42 48L42 47L44 47L44 46L41 46L41 45L44 45L44 43L45 43L45 44L46 44L46 43L45 43L45 42L44 42L44 43L43 43L43 42L42 42L42 43L40 43L40 44L39 44L39 43L38 43L38 44L39 44L39 45L38 45L38 46L39 46L39 47L40 47L40 48L38 48L38 47L37 47L37 46L36 46L36 48L35 48L35 44L37 44L37 43L36 43L36 42L37 42L37 41L36 41L36 42L35 42L35 40L34 40L34 41L33 41L33 40L32 40L32 38L31 38L31 40L32 40L32 41L31 41L31 42L32 42L32 43L30 43L30 42L29 42L29 39L30 39L30 38L29 38L29 39L28 39L28 36L30 36L30 37L31 37L31 36L30 36L30 35L31 35L31 34L35 34L35 35L33 35L33 36L32 36L32 37L34 37L34 38L33 38L33 39L34 39L34 38L35 38L35 36L36 36L36 34L39 34L39 35L40 35L40 34L42 34L42 32L41 32L41 29L42 29L42 28L38 28L38 30L37 30L37 31L36 31L36 32L35 32L35 33L33 33L33 31L32 31L32 29L33 29L33 30L34 30L34 31L35 31L35 29L36 29L36 28L37 28L37 26L35 26L35 25L33 25L33 24L34 24L34 23L36 23L36 21L33 21L33 20L34 20L34 19L32 19L32 17L33 17L33 18L35 18L35 19L36 19L36 17L35 17L35 16L32 16L32 15L33 15L33 14L34 14L34 15L37 15L37 16L38 16L38 18L37 18L37 21L38 21L38 22L37 22L37 23L39 23L39 25L38 25L38 24L37 24L37 25L38 25L38 27L39 27L39 25L41 25L41 24L43 24L43 22L44 22L44 23L46 23L46 22L48 22L48 21L47 21L47 20L45 20L45 21L43 21L43 22L42 22L42 21L41 21L41 20L42 20L42 19L41 19L41 20L39 20L39 21L38 21L38 19L39 19L39 17L40 17L40 18L41 18L41 17L43 17L43 15L41 15L41 16L39 16L39 15L38 15L38 14L39 14L39 13L42 13L42 12L41 12L41 11L42 11L42 10L41 10L41 9L43 9L43 8L42 8L42 6L41 6L41 8L40 8L40 5L42 5L42 4L41 4L41 3L43 3L43 2L41 2L41 1L40 1L40 2L39 2L39 4L38 4L38 2L37 2L37 1ZM40 2L40 3L41 3L41 2ZM28 3L28 4L29 4L29 3ZM33 4L33 5L34 5L34 4ZM25 5L25 8L28 8L28 5ZM29 5L29 7L30 7L30 5ZM38 5L38 7L39 7L39 5ZM14 6L14 7L15 7L15 8L16 8L16 7L15 7L15 6ZM18 6L18 7L19 7L19 6ZM20 6L20 8L21 8L21 6ZM26 6L26 7L27 7L27 6ZM32 6L32 8L31 8L31 9L30 9L30 10L29 10L29 11L27 11L27 14L28 14L28 13L29 13L29 14L30 14L30 16L31 16L31 17L27 17L27 18L30 18L30 19L29 19L29 20L26 20L26 18L25 18L25 19L24 19L24 18L23 18L23 17L22 17L22 18L21 18L21 19L22 19L22 18L23 18L23 19L24 19L24 20L23 20L23 22L22 22L22 21L21 21L21 23L20 23L20 21L19 21L19 20L17 20L17 18L18 18L18 19L20 19L20 18L19 18L19 17L20 17L20 16L19 16L19 15L20 15L20 13L19 13L19 14L18 14L18 15L16 15L16 16L15 16L15 13L13 13L13 12L14 12L14 9L12 9L12 11L11 11L11 12L10 12L10 11L9 11L9 12L10 12L10 14L11 14L11 15L12 15L12 16L11 16L11 18L10 18L10 15L9 15L9 14L8 14L8 15L9 15L9 16L8 16L8 17L9 17L9 18L10 18L10 20L9 20L9 21L10 21L10 23L13 23L13 24L14 24L14 23L13 23L13 22L15 22L15 24L17 24L17 25L18 25L18 26L17 26L17 28L16 28L16 27L14 27L14 28L15 28L15 29L13 29L13 27L12 27L12 29L11 29L11 28L10 28L10 29L9 29L9 30L10 30L10 29L11 29L11 31L12 31L12 34L11 34L11 33L10 33L10 32L9 32L9 34L6 34L6 33L7 33L7 32L6 32L6 31L4 31L4 32L3 32L3 33L4 33L4 34L3 34L3 35L7 35L7 36L5 36L5 37L7 37L7 36L8 36L8 37L9 37L9 38L8 38L8 39L7 39L7 38L6 38L6 39L7 39L7 40L6 40L6 41L7 41L7 40L8 40L8 42L9 42L9 41L10 41L10 40L11 40L11 39L12 39L12 40L14 40L14 39L13 39L13 37L14 37L14 36L13 36L13 33L16 33L16 34L15 34L15 35L16 35L16 36L15 36L15 37L21 37L21 36L22 36L22 35L23 35L23 34L24 34L24 33L23 33L23 30L22 30L22 29L21 29L21 26L22 26L22 27L24 27L24 29L25 29L25 30L24 30L24 31L25 31L25 33L26 33L26 34L25 34L25 35L24 35L24 36L23 36L23 37L24 37L24 36L25 36L25 43L26 43L26 42L27 42L27 43L28 43L28 41L26 41L26 40L27 40L27 38L26 38L26 36L25 36L25 35L26 35L26 34L27 34L27 35L28 35L28 34L31 34L31 33L32 33L32 32L31 32L31 31L30 31L30 30L31 30L31 29L32 29L32 28L29 28L29 26L30 26L30 27L31 27L31 26L32 26L32 27L33 27L33 26L32 26L32 24L33 24L33 23L34 23L34 22L32 22L32 20L31 20L31 17L32 17L32 16L31 16L31 15L32 15L32 14L31 14L31 13L32 13L32 11L33 11L33 12L34 12L34 13L37 13L37 14L38 14L38 13L37 13L37 11L38 11L38 12L40 12L40 11L39 11L39 10L40 10L40 8L39 8L39 10L38 10L38 9L37 9L37 10L36 10L36 11L35 11L35 12L34 12L34 10L33 10L33 9L32 9L32 8L34 8L34 7L33 7L33 6ZM17 8L17 9L18 9L18 8ZM47 8L47 9L48 9L48 8ZM2 9L2 10L3 10L3 9ZM15 9L15 10L16 10L16 9ZM23 9L23 10L24 10L24 9ZM30 10L30 12L31 12L31 10ZM2 11L2 14L3 14L3 12L5 12L5 11ZM47 11L47 12L49 12L49 11ZM52 11L52 12L51 12L51 14L53 14L53 13L52 13L52 12L53 12L53 11ZM11 12L11 13L12 13L12 12ZM4 15L4 16L5 16L5 15ZM13 15L13 16L14 16L14 15ZM27 15L27 16L29 16L29 15ZM6 16L6 17L7 17L7 16ZM16 16L16 17L13 17L13 18L14 18L14 20L12 20L12 19L11 19L11 22L13 22L13 21L15 21L15 22L17 22L17 21L15 21L15 20L16 20L16 19L15 19L15 18L16 18L16 17L18 17L18 16ZM51 16L51 17L52 17L52 16ZM47 18L47 19L49 19L49 18ZM25 20L25 22L26 22L26 24L28 24L28 23L29 23L29 21L27 21L27 22L26 22L26 20ZM30 20L30 21L31 21L31 20ZM39 21L39 22L40 22L40 21ZM45 21L45 22L46 22L46 21ZM18 22L18 23L17 23L17 24L18 24L18 25L21 25L21 24L22 24L22 26L24 26L24 24L23 24L23 23L21 23L21 24L20 24L20 23L19 23L19 22ZM41 22L41 23L42 23L42 22ZM6 23L6 24L7 24L7 23ZM30 23L30 24L29 24L29 25L31 25L31 24L32 24L32 23ZM47 23L47 24L48 24L48 23ZM5 25L5 28L8 28L8 25ZM15 25L15 26L16 26L16 25ZM25 25L25 28L28 28L28 25ZM43 25L43 26L44 26L44 25ZM45 25L45 28L48 28L48 25ZM1 26L1 28L2 28L2 26ZM6 26L6 27L7 27L7 26ZM19 26L19 27L18 27L18 28L19 28L19 27L20 27L20 26ZM26 26L26 27L27 27L27 26ZM41 26L41 27L42 27L42 26ZM46 26L46 27L47 27L47 26ZM35 27L35 28L36 28L36 27ZM43 27L43 30L44 30L44 31L45 31L45 32L46 32L46 33L48 33L48 32L49 32L49 31L47 31L47 30L46 30L46 29L44 29L44 27ZM33 28L33 29L34 29L34 28ZM51 28L51 29L52 29L52 30L51 30L51 31L52 31L52 30L53 30L53 28ZM12 29L12 30L13 30L13 29ZM15 29L15 31L18 31L18 29ZM19 29L19 32L20 32L20 33L19 33L19 34L20 34L20 35L17 35L17 36L21 36L21 33L22 33L22 34L23 34L23 33L22 33L22 32L21 32L21 31L22 31L22 30L21 30L21 29ZM26 29L26 30L25 30L25 31L26 31L26 30L27 30L27 32L26 32L26 33L30 33L30 32L29 32L29 30L30 30L30 29L29 29L29 30L28 30L28 29ZM39 29L39 30L38 30L38 31L37 31L37 32L36 32L36 33L35 33L35 34L36 34L36 33L39 33L39 34L40 34L40 33L39 33L39 32L40 32L40 31L39 31L39 30L40 30L40 29ZM13 31L13 32L14 32L14 31ZM38 31L38 32L39 32L39 31ZM46 31L46 32L47 32L47 31ZM4 32L4 33L5 33L5 32ZM16 32L16 33L18 33L18 32ZM9 34L9 37L10 37L10 38L11 38L11 36L12 36L12 37L13 37L13 36L12 36L12 35L11 35L11 34ZM37 35L37 37L38 37L38 35ZM43 35L43 36L44 36L44 38L46 38L46 37L45 37L45 35ZM51 35L51 36L52 36L52 37L53 37L53 36L52 36L52 35ZM16 38L16 40L17 40L17 41L18 41L18 40L17 40L17 39L18 39L18 38ZM20 38L20 40L21 40L21 41L22 41L22 40L21 40L21 39L22 39L22 38ZM23 39L23 42L24 42L24 39ZM42 39L42 40L43 40L43 39ZM51 39L51 42L52 42L52 40L53 40L53 39ZM13 41L13 42L14 42L14 41ZM15 41L15 42L16 42L16 41ZM32 41L32 42L33 42L33 43L32 43L32 44L31 44L31 45L32 45L32 44L33 44L33 43L35 43L35 42L33 42L33 41ZM47 43L47 44L49 44L49 43ZM14 44L14 50L16 50L16 49L18 49L18 48L16 48L16 49L15 49L15 46L17 46L17 47L18 47L18 45L15 45L15 44ZM25 45L25 48L28 48L28 45ZM39 45L39 46L40 46L40 45ZM45 45L45 48L48 48L48 45ZM51 45L51 46L52 46L52 45ZM26 46L26 47L27 47L27 46ZM33 46L33 49L35 49L35 48L34 48L34 46ZM46 46L46 47L47 47L47 46ZM12 47L12 49L11 49L11 50L9 50L9 51L11 51L11 50L13 50L13 47ZM50 47L50 48L51 48L51 49L52 49L52 48L51 48L51 47ZM23 48L23 49L24 49L24 48ZM26 49L26 50L27 50L27 49ZM47 49L47 50L49 50L49 51L50 51L50 52L51 52L51 51L52 51L52 50L51 50L51 51L50 51L50 49ZM17 50L17 51L19 51L19 50ZM15 51L15 52L16 52L16 51ZM43 52L43 53L44 53L44 52ZM0 0L0 7L7 7L7 0ZM1 1L1 6L6 6L6 1ZM2 2L2 5L5 5L5 2ZM46 0L46 7L53 7L53 0ZM47 1L47 6L52 6L52 1ZM48 2L48 5L51 5L51 2ZM0 46L0 53L7 53L7 46ZM1 47L1 52L6 52L6 47ZM2 48L2 51L5 51L5 48Z" fill="#000000"/></g></g></svg>
