<?xml version="1.0" encoding="UTF-8"?>
<svg xmlns="http://www.w3.org/2000/svg" version="1.1" width="356" height="356" viewBox="0 0 356 356"><rect x="0" y="0" width="356" height="356" fill="#ffffff"/><g transform="scale(6.717)"><g transform="translate(0,0)"><path fill-rule="evenodd" d="M9 0L9 1L8 1L8 2L9 2L9 3L8 3L8 4L9 4L9 5L8 5L8 7L9 7L9 6L10 6L10 7L11 7L11 6L12 6L12 8L11 8L11 9L10 9L10 10L12 10L12 8L13 8L13 9L16 9L16 10L15 10L15 11L16 11L16 12L15 12L15 13L12 13L12 14L11 14L11 13L10 13L10 14L11 14L11 16L5 16L5 17L4 17L4 16L3 16L3 14L2 14L2 13L0 13L0 16L1 16L1 17L0 17L0 22L1 22L1 20L2 20L2 21L4 21L4 22L6 22L6 23L4 23L4 24L1 24L1 23L0 23L0 27L1 27L1 28L3 28L3 26L2 26L2 25L4 25L4 30L5 30L5 29L8 29L8 30L6 30L6 31L8 31L8 32L5 32L5 31L3 31L3 32L2 32L2 31L1 31L1 33L0 33L0 34L2 34L2 35L1 35L1 36L0 36L0 40L1 40L1 39L2 39L2 41L0 41L0 43L1 43L1 44L3 44L3 45L4 45L4 44L3 44L3 43L7 43L7 44L6 44L6 45L7 45L7 44L8 44L8 43L9 43L9 42L10 42L10 41L11 41L11 39L14 39L14 40L13 40L13 41L16 41L16 42L15 42L15 43L13 43L13 42L12 42L12 43L10 43L10 44L12 44L12 45L10 45L10 46L9 46L9 45L8 45L8 47L9 47L9 48L8 48L8 53L10 53L10 52L11 52L11 50L12 50L12 52L13 52L13 50L12 50L12 48L13 48L13 49L14 49L14 48L13 48L13 46L12 46L12 45L14 45L14 44L15 44L15 45L18 45L18 46L15 46L15 48L17 48L17 49L18 49L18 50L20 50L20 51L17 51L17 52L16 52L16 51L15 51L15 50L16 50L16 49L15 49L15 50L14 50L14 52L15 52L15 53L20 53L20 52L23 52L23 53L25 53L25 51L24 51L24 50L26 50L26 49L27 49L27 50L28 50L28 49L29 49L29 51L27 51L27 52L26 52L26 53L27 53L27 52L30 52L30 53L32 53L32 52L31 52L31 51L30 51L30 50L31 50L31 49L32 49L32 47L30 47L30 48L31 48L31 49L29 49L29 46L32 46L32 45L31 45L31 44L35 44L35 45L36 45L36 46L33 46L33 49L35 49L35 50L37 50L37 51L36 51L36 52L35 52L35 51L34 51L34 50L32 50L32 51L33 51L33 53L38 53L38 52L40 52L40 50L39 50L39 51L38 51L38 49L39 49L39 48L40 48L40 47L41 47L41 49L42 49L42 50L41 50L41 51L42 51L42 50L43 50L43 52L44 52L44 53L47 53L47 52L44 52L44 49L45 49L45 50L47 50L47 51L48 51L48 53L49 53L49 52L50 52L50 51L51 51L51 52L52 52L52 51L53 51L53 50L52 50L52 49L51 49L51 48L52 48L52 47L51 47L51 46L52 46L52 45L53 45L53 44L48 44L48 43L47 43L47 44L44 44L44 43L45 43L45 42L46 42L46 41L47 41L47 42L49 42L49 43L50 43L50 42L52 42L52 41L53 41L53 40L52 40L52 41L49 41L49 40L50 40L50 38L51 38L51 39L52 39L52 38L53 38L53 36L52 36L52 35L51 35L51 34L52 34L52 33L51 33L51 32L52 32L52 31L51 31L51 32L50 32L50 29L51 29L51 30L52 30L52 29L53 29L53 28L49 28L49 27L50 27L50 26L52 26L52 25L53 25L53 23L51 23L51 24L50 24L50 22L51 22L51 21L52 21L52 22L53 22L53 21L52 21L52 20L53 20L53 19L51 19L51 18L52 18L52 17L53 17L53 15L51 15L51 16L50 16L50 17L51 17L51 18L49 18L49 16L48 16L48 15L49 15L49 14L50 14L50 13L51 13L51 14L52 14L52 12L53 12L53 11L52 11L52 12L49 12L49 11L50 11L50 10L51 10L51 9L52 9L52 8L51 8L51 9L50 9L50 8L49 8L49 10L47 10L47 11L46 11L46 10L43 10L43 9L46 9L46 8L44 8L44 7L45 7L45 6L44 6L44 7L43 7L43 3L44 3L44 4L45 4L45 3L44 3L44 1L43 1L43 0L42 0L42 2L43 2L43 3L41 3L41 5L40 5L40 7L41 7L41 5L42 5L42 9L41 9L41 10L40 10L40 11L39 11L39 10L36 10L36 9L38 9L38 8L37 8L37 6L36 6L36 8L34 8L34 7L35 7L35 6L34 6L34 5L31 5L31 4L32 4L32 3L31 3L31 4L30 4L30 2L31 2L31 1L32 1L32 2L33 2L33 3L35 3L35 4L37 4L37 5L38 5L38 7L39 7L39 5L38 5L38 4L39 4L39 3L40 3L40 2L39 2L39 1L37 1L37 0L35 0L35 1L34 1L34 2L33 2L33 1L32 1L32 0L28 0L28 1L29 1L29 2L28 2L28 3L27 3L27 4L26 4L26 1L27 1L27 0L26 0L26 1L25 1L25 0L23 0L23 2L22 2L22 0L18 0L18 1L17 1L17 3L16 3L16 2L15 2L15 3L16 3L16 4L13 4L13 3L12 3L12 2L14 2L14 0L11 0L11 1L10 1L10 0ZM15 0L15 1L16 1L16 0ZM9 1L9 2L10 2L10 1ZM11 1L11 2L12 2L12 1ZM19 1L19 2L18 2L18 3L19 3L19 2L20 2L20 1ZM35 1L35 3L37 3L37 4L38 4L38 3L37 3L37 1ZM21 2L21 4L20 4L20 6L19 6L19 8L20 8L20 9L19 9L19 10L17 10L17 11L19 11L19 13L15 13L15 14L13 14L13 15L14 15L14 16L13 16L13 17L12 17L12 16L11 16L11 17L10 17L10 18L9 18L9 19L8 19L8 18L7 18L7 17L6 17L6 18L7 18L7 19L5 19L5 18L3 18L3 17L1 17L1 18L3 18L3 19L4 19L4 20L5 20L5 21L6 21L6 22L7 22L7 23L6 23L6 24L8 24L8 23L9 23L9 24L10 24L10 25L9 25L9 26L10 26L10 25L11 25L11 26L12 26L12 29L13 29L13 28L14 28L14 30L12 30L12 31L14 31L14 32L13 32L13 33L14 33L14 34L12 34L12 33L11 33L11 28L9 28L9 32L8 32L8 33L6 33L6 34L5 34L5 35L4 35L4 36L5 36L5 38L4 38L4 41L5 41L5 42L8 42L8 41L10 41L10 39L11 39L11 38L15 38L15 40L16 40L16 41L18 41L18 40L16 40L16 38L17 38L17 39L18 39L18 38L19 38L19 40L20 40L20 41L19 41L19 42L17 42L17 44L21 44L21 45L20 45L20 46L18 46L18 47L17 47L17 48L18 48L18 49L21 49L21 50L23 50L23 49L24 49L24 48L23 48L23 45L24 45L24 43L25 43L25 41L24 41L24 42L23 42L23 41L22 41L22 40L20 40L20 38L21 38L21 39L22 39L22 38L23 38L23 39L24 39L24 38L25 38L25 40L26 40L26 41L27 41L27 43L26 43L26 44L29 44L29 45L30 45L30 44L29 44L29 42L30 42L30 43L31 43L31 42L32 42L32 43L33 43L33 42L35 42L35 43L36 43L36 41L35 41L35 40L36 40L36 39L37 39L37 41L38 41L38 43L37 43L37 45L38 45L38 46L37 46L37 47L36 47L36 48L35 48L35 47L34 47L34 48L35 48L35 49L36 49L36 48L37 48L37 47L38 47L38 48L39 48L39 47L40 47L40 46L41 46L41 44L43 44L43 45L44 45L44 44L43 44L43 43L44 43L44 42L43 42L43 43L42 43L42 42L41 42L41 43L40 43L40 41L44 41L44 38L45 38L45 41L46 41L46 39L48 39L48 38L46 38L46 37L49 37L49 38L50 38L50 37L51 37L51 38L52 38L52 36L51 36L51 35L50 35L50 34L51 34L51 33L49 33L49 35L50 35L50 36L45 36L45 37L44 37L44 35L48 35L48 34L44 34L44 32L45 32L45 33L46 33L46 32L45 32L45 31L47 31L47 32L49 32L49 31L47 31L47 30L46 30L46 29L45 29L45 31L44 31L44 32L43 32L43 35L41 35L41 36L39 36L39 33L40 33L40 34L41 34L41 32L39 32L39 33L38 33L38 32L37 32L37 31L36 31L36 30L37 30L37 29L38 29L38 31L43 31L43 30L41 30L41 29L44 29L44 27L42 27L42 28L39 28L39 27L41 27L41 24L43 24L43 26L44 26L44 24L45 24L45 23L44 23L44 22L46 22L46 23L47 23L47 24L48 24L48 23L47 23L47 21L48 21L48 20L49 20L49 18L47 18L47 17L48 17L48 16L44 16L44 15L48 15L48 14L49 14L49 13L48 13L48 14L47 14L47 13L45 13L45 11L43 11L43 10L42 10L42 11L41 11L41 12L37 12L37 13L33 13L33 12L34 12L34 11L35 11L35 12L36 12L36 10L35 10L35 9L34 9L34 8L32 8L32 6L31 6L31 7L30 7L30 6L29 6L29 9L31 9L31 8L32 8L32 9L33 9L33 10L34 10L34 11L33 11L33 12L32 12L32 11L31 11L31 10L28 10L28 9L23 9L23 8L22 8L22 9L21 9L21 8L20 8L20 6L21 6L21 7L22 7L22 6L21 6L21 5L22 5L22 4L23 4L23 7L24 7L24 4L25 4L25 2L23 2L23 3L22 3L22 2ZM10 3L10 4L12 4L12 3ZM23 3L23 4L24 4L24 3ZM28 3L28 4L29 4L29 3ZM16 4L16 5L17 5L17 7L16 7L16 6L15 6L15 7L16 7L16 9L18 9L18 8L17 8L17 7L18 7L18 5L19 5L19 4ZM12 5L12 6L13 6L13 8L14 8L14 6L13 6L13 5ZM25 5L25 8L28 8L28 5ZM26 6L26 7L27 7L27 6ZM33 6L33 7L34 7L34 6ZM0 8L0 10L1 10L1 9L2 9L2 12L3 12L3 10L6 10L6 11L4 11L4 12L5 12L5 13L4 13L4 14L6 14L6 15L7 15L7 14L6 14L6 13L7 13L7 12L6 12L6 11L8 11L8 12L14 12L14 10L13 10L13 11L8 11L8 9L9 9L9 8L6 8L6 9L5 9L5 8ZM47 8L47 9L48 9L48 8ZM6 9L6 10L7 10L7 9ZM22 9L22 10L21 10L21 12L20 12L20 13L19 13L19 15L20 15L20 16L21 16L21 17L18 17L18 16L17 16L17 15L18 15L18 14L17 14L17 15L16 15L16 16L17 16L17 17L18 17L18 19L19 19L19 20L16 20L16 19L14 19L14 20L15 20L15 21L13 21L13 20L11 20L11 18L10 18L10 19L9 19L9 20L6 20L6 21L7 21L7 22L9 22L9 23L10 23L10 24L11 24L11 25L12 25L12 26L13 26L13 25L16 25L16 26L15 26L15 27L16 27L16 28L15 28L15 29L18 29L18 30L17 30L17 31L15 31L15 32L17 32L17 33L18 33L18 34L17 34L17 35L19 35L19 36L16 36L16 35L15 35L15 34L16 34L16 33L15 33L15 34L14 34L14 36L9 36L9 35L10 35L10 34L6 34L6 35L8 35L8 36L6 36L6 37L7 37L7 38L6 38L6 39L5 39L5 41L8 41L8 40L9 40L9 39L8 39L8 38L10 38L10 37L14 37L14 36L15 36L15 37L21 37L21 36L22 36L22 35L23 35L23 37L24 37L24 36L25 36L25 37L26 37L26 40L27 40L27 39L28 39L28 37L29 37L29 41L28 41L28 42L29 42L29 41L30 41L30 42L31 42L31 41L32 41L32 42L33 42L33 41L34 41L34 40L35 40L35 39L32 39L32 40L31 40L31 38L33 38L33 37L32 37L32 36L31 36L31 37L29 37L29 36L28 36L28 37L26 37L26 36L27 36L27 35L26 35L26 36L25 36L25 34L24 34L24 35L23 35L23 34L22 34L22 35L21 35L21 33L22 33L22 32L21 32L21 33L18 33L18 32L17 32L17 31L18 31L18 30L19 30L19 29L21 29L21 31L22 31L22 30L26 30L26 31L27 31L27 30L28 30L28 29L29 29L29 31L33 31L33 33L35 33L35 34L31 34L31 33L32 33L32 32L29 32L29 33L28 33L28 34L29 34L29 35L33 35L33 36L36 36L36 37L35 37L35 38L37 38L37 39L39 39L39 40L38 40L38 41L39 41L39 40L40 40L40 39L39 39L39 38L40 38L40 37L39 37L39 38L37 38L37 37L38 37L38 36L36 36L36 35L37 35L37 34L38 34L38 33L37 33L37 32L36 32L36 31L35 31L35 30L34 30L34 31L33 31L33 30L32 30L32 28L31 28L31 27L30 27L30 26L32 26L32 27L33 27L33 28L35 28L35 29L37 29L37 27L36 27L36 28L35 28L35 27L33 27L33 26L32 26L32 24L33 24L33 25L35 25L35 26L38 26L38 27L39 27L39 26L40 26L40 25L39 25L39 24L40 24L40 23L41 23L41 22L42 22L42 23L43 23L43 22L44 22L44 20L45 20L45 19L47 19L47 20L46 20L46 21L47 21L47 20L48 20L48 19L47 19L47 18L45 18L45 19L44 19L44 16L43 16L43 15L44 15L44 12L42 12L42 13L41 13L41 14L39 14L39 16L40 16L40 15L41 15L41 16L42 16L42 17L39 17L39 18L42 18L42 19L43 19L43 20L41 20L41 22L40 22L40 21L39 21L39 19L38 19L38 17L37 17L37 16L38 16L38 15L37 15L37 14L38 14L38 13L37 13L37 14L36 14L36 15L34 15L34 14L33 14L33 13L32 13L32 12L31 12L31 11L29 11L29 12L28 12L28 13L27 13L27 12L26 12L26 11L27 11L27 10L26 10L26 11L24 11L24 10L23 10L23 9ZM19 10L19 11L20 11L20 10ZM22 10L22 12L21 12L21 13L20 13L20 15L21 15L21 16L22 16L22 18L21 18L21 19L22 19L22 20L19 20L19 21L20 21L20 23L19 23L19 24L20 24L20 25L19 25L19 26L20 26L20 27L18 27L18 28L21 28L21 29L23 29L23 28L24 28L24 27L23 27L23 28L21 28L21 25L22 25L22 26L24 26L24 25L22 25L22 24L20 24L20 23L22 23L22 22L23 22L23 19L24 19L24 18L23 18L23 15L24 15L24 14L26 14L26 16L25 16L25 17L26 17L26 20L25 20L25 22L24 22L24 23L23 23L23 24L24 24L24 23L26 23L26 24L32 24L32 23L33 23L33 24L34 24L34 23L35 23L35 22L36 22L36 23L37 23L37 22L39 22L39 21L38 21L38 20L37 20L37 19L36 19L36 17L35 17L35 16L32 16L32 15L31 15L31 14L32 14L32 13L31 13L31 14L26 14L26 12L25 12L25 13L24 13L24 14L23 14L23 10ZM29 12L29 13L30 13L30 12ZM21 14L21 15L23 15L23 14ZM41 14L41 15L43 15L43 14ZM1 15L1 16L2 16L2 15ZM29 15L29 16L30 16L30 15ZM26 16L26 17L27 17L27 18L28 18L28 17L27 17L27 16ZM31 16L31 17L29 17L29 19L28 19L28 20L29 20L29 21L30 21L30 22L29 22L29 23L30 23L30 22L31 22L31 23L32 23L32 22L33 22L33 23L34 23L34 22L33 22L33 21L32 21L32 20L31 20L31 17L32 17L32 19L35 19L35 20L34 20L34 21L35 21L35 20L36 20L36 21L37 21L37 20L36 20L36 19L35 19L35 18L33 18L33 17L32 17L32 16ZM13 17L13 18L14 18L14 17ZM15 17L15 18L16 18L16 17ZM19 18L19 19L20 19L20 18ZM50 19L50 21L51 21L51 19ZM9 20L9 21L10 21L10 23L11 23L11 24L12 24L12 22L13 22L13 21L10 21L10 20ZM30 20L30 21L31 21L31 20ZM15 21L15 22L17 22L17 23L18 23L18 22L17 22L17 21ZM26 21L26 23L27 23L27 21ZM13 23L13 24L14 24L14 23ZM38 23L38 24L39 24L39 23ZM16 24L16 25L18 25L18 24ZM49 24L49 26L50 26L50 24ZM51 24L51 25L52 25L52 24ZM5 25L5 28L8 28L8 25ZM25 25L25 28L28 28L28 25ZM38 25L38 26L39 26L39 25ZM45 25L45 28L48 28L48 25ZM1 26L1 27L2 27L2 26ZM6 26L6 27L7 27L7 26ZM26 26L26 27L27 27L27 26ZM46 26L46 27L47 27L47 26ZM29 27L29 28L30 28L30 27ZM38 28L38 29L39 29L39 30L40 30L40 29L39 29L39 28ZM26 29L26 30L27 30L27 29ZM3 32L3 33L4 33L4 32ZM24 32L24 33L26 33L26 32ZM35 32L35 33L36 33L36 32ZM19 34L19 35L20 35L20 34ZM2 35L2 36L1 36L1 37L2 37L2 38L3 38L3 35ZM41 37L41 40L43 40L43 38L44 38L44 37ZM6 39L6 40L8 40L8 39ZM32 40L32 41L33 41L33 40ZM2 41L2 43L3 43L3 41ZM21 41L21 42L22 42L22 41ZM19 42L19 43L20 43L20 42ZM12 43L12 44L13 44L13 43ZM15 43L15 44L16 44L16 43ZM21 43L21 44L23 44L23 43ZM39 43L39 44L38 44L38 45L39 45L39 44L40 44L40 43ZM21 45L21 46L20 46L20 48L21 48L21 49L22 49L22 48L21 48L21 47L22 47L22 45ZM25 45L25 48L28 48L28 45ZM45 45L45 48L48 48L48 45ZM49 45L49 47L50 47L50 48L51 48L51 47L50 47L50 45ZM10 46L10 47L11 47L11 48L12 48L12 47L11 47L11 46ZM26 46L26 47L27 47L27 46ZM42 46L42 48L43 48L43 49L44 49L44 46ZM46 46L46 47L47 47L47 46ZM9 48L9 50L11 50L11 49L10 49L10 48ZM47 49L47 50L49 50L49 51L50 51L50 50L51 50L51 51L52 51L52 50L51 50L51 49ZM9 51L9 52L10 52L10 51ZM0 0L0 7L7 7L7 0ZM1 1L1 6L6 6L6 1ZM2 2L2 5L5 5L5 2ZM46 0L46 7L53 7L53 0ZM47 1L47 6L52 6L52 1ZM48 2L48 5L51 5L51 2ZM0 46L0 53L7 53L7 46ZM1 47L1 52L6 52L6 47ZM2 48L2 51L5 51L5 48Z" fill="#000000"/></g></g></svg>
