<?xml version="1.0" encoding="UTF-8"?>
<svg xmlns="http://www.w3.org/2000/svg" version="1.1" width="356" height="356" viewBox="0 0 356 356"><rect x="0" y="0" width="356" height="356" fill="#ffffff"/><g transform="scale(6.717)"><g transform="translate(0,0)"><path fill-rule="evenodd" d="M8 0L8 2L9 2L9 4L8 4L8 9L7 9L7 8L5 8L5 9L3 9L3 8L0 8L0 9L1 9L1 10L2 10L2 12L1 12L1 11L0 11L0 12L1 12L1 14L2 14L2 15L1 15L1 16L2 16L2 17L0 17L0 18L1 18L1 20L0 20L0 22L1 22L1 25L2 25L2 23L3 23L3 25L4 25L4 26L2 26L2 27L1 27L1 30L0 30L0 31L1 31L1 32L0 32L0 33L1 33L1 32L2 32L2 34L1 34L1 35L0 35L0 39L1 39L1 40L0 40L0 41L1 41L1 40L2 40L2 39L1 39L1 38L2 38L2 36L3 36L3 35L2 35L2 34L4 34L4 35L5 35L5 36L4 36L4 37L7 37L7 38L6 38L6 39L5 39L5 40L6 40L6 41L5 41L5 42L3 42L3 43L2 43L2 42L0 42L0 43L1 43L1 44L3 44L3 45L4 45L4 44L3 44L3 43L7 43L7 44L6 44L6 45L7 45L7 44L8 44L8 43L9 43L9 44L10 44L10 45L8 45L8 46L9 46L9 47L8 47L8 48L9 48L9 50L8 50L8 53L9 53L9 52L10 52L10 51L11 51L11 53L12 53L12 52L13 52L13 51L12 51L12 47L13 47L13 45L12 45L12 42L13 42L13 43L14 43L14 41L15 41L15 40L16 40L16 41L17 41L17 39L15 39L15 38L16 38L16 36L17 36L17 35L16 35L16 34L18 34L18 38L19 38L19 39L18 39L18 40L19 40L19 43L18 43L18 42L16 42L16 43L18 43L18 45L19 45L19 46L17 46L17 47L16 47L16 44L15 44L15 46L14 46L14 47L16 47L16 48L15 48L15 50L14 50L14 52L15 52L15 53L16 53L16 52L18 52L18 53L19 53L19 52L18 52L18 49L19 49L19 48L18 48L18 47L19 47L19 46L20 46L20 47L21 47L21 46L23 46L23 47L22 47L22 48L23 48L23 49L29 49L29 50L28 50L28 51L30 51L30 49L29 49L29 45L30 45L30 44L31 44L31 43L30 43L30 41L28 41L28 38L26 38L26 42L25 42L25 39L24 39L24 38L25 38L25 37L24 37L24 38L22 38L22 37L23 37L23 36L24 36L24 35L26 35L26 37L27 37L27 36L28 36L28 37L29 37L29 40L30 40L30 39L31 39L31 38L30 38L30 37L31 37L31 36L28 36L28 34L30 34L30 35L31 35L31 34L30 34L30 33L31 33L31 32L30 32L30 31L29 31L29 30L28 30L28 29L29 29L29 28L30 28L30 29L31 29L31 31L32 31L32 29L33 29L33 30L34 30L34 32L32 32L32 33L33 33L33 35L32 35L32 37L33 37L33 38L34 38L34 37L35 37L35 36L36 36L36 38L35 38L35 39L34 39L34 40L33 40L33 39L32 39L32 46L31 46L31 47L30 47L30 48L32 48L32 49L33 49L33 51L32 51L32 50L31 50L31 51L32 51L32 53L34 53L34 52L35 52L35 51L37 51L37 50L38 50L38 53L41 53L41 52L42 52L42 53L44 53L44 52L46 52L46 53L49 53L49 52L50 52L50 51L49 51L49 50L50 50L50 49L49 49L49 48L50 48L50 46L52 46L52 48L53 48L53 45L52 45L52 44L53 44L53 42L52 42L52 44L51 44L51 45L50 45L50 42L51 42L51 41L52 41L52 40L53 40L53 38L52 38L52 37L50 37L50 39L49 39L49 38L48 38L48 36L50 36L50 35L51 35L51 33L53 33L53 32L52 32L52 31L53 31L53 29L52 29L52 27L53 27L53 26L52 26L52 27L51 27L51 26L50 26L50 23L51 23L51 21L53 21L53 18L52 18L52 20L51 20L51 21L49 21L49 20L48 20L48 22L47 22L47 23L46 23L46 20L47 20L47 19L48 19L48 17L49 17L49 18L50 18L50 19L51 19L51 18L50 18L50 16L49 16L49 15L51 15L51 14L50 14L50 13L53 13L53 10L52 10L52 9L53 9L53 8L51 8L51 10L52 10L52 11L51 11L51 12L50 12L50 11L49 11L49 10L50 10L50 9L49 9L49 8L45 8L45 6L44 6L44 8L43 8L43 3L44 3L44 4L45 4L45 3L44 3L44 1L43 1L43 0L42 0L42 2L41 2L41 1L40 1L40 0L38 0L38 1L40 1L40 3L39 3L39 2L38 2L38 3L39 3L39 4L38 4L38 7L39 7L39 8L40 8L40 9L39 9L39 12L40 12L40 13L39 13L39 14L40 14L40 15L39 15L39 16L38 16L38 15L37 15L37 16L36 16L36 14L37 14L37 12L38 12L38 11L37 11L37 9L38 9L38 8L36 8L36 9L35 9L35 10L34 10L34 9L33 9L33 6L34 6L34 7L35 7L35 6L36 6L36 7L37 7L37 6L36 6L36 5L37 5L37 4L36 4L36 3L37 3L37 0L36 0L36 2L35 2L35 0L34 0L34 1L33 1L33 0L32 0L32 2L33 2L33 4L32 4L32 3L31 3L31 4L30 4L30 5L29 5L29 3L30 3L30 2L31 2L31 0L30 0L30 2L28 2L28 1L27 1L27 0L24 0L24 1L22 1L22 0L18 0L18 1L16 1L16 2L18 2L18 1L19 1L19 4L20 4L20 5L18 5L18 3L15 3L15 2L14 2L14 1L15 1L15 0L13 0L13 1L12 1L12 0L10 0L10 2L9 2L9 0ZM20 1L20 2L22 2L22 1ZM24 1L24 4L23 4L23 3L22 3L22 5L20 5L20 6L19 6L19 8L18 8L18 6L17 6L17 7L16 7L16 5L15 5L15 3L11 3L11 2L10 2L10 4L9 4L9 7L10 7L10 4L13 4L13 5L12 5L12 6L11 6L11 7L12 7L12 6L13 6L13 7L14 7L14 8L15 8L15 9L14 9L14 10L13 10L13 9L12 9L12 10L10 10L10 13L9 13L9 12L8 12L8 13L6 13L6 14L7 14L7 15L5 15L5 16L7 16L7 15L9 15L9 16L10 16L10 18L9 18L9 17L8 17L8 18L7 18L7 17L4 17L4 14L3 14L3 17L2 17L2 19L3 19L3 20L4 20L4 21L3 21L3 23L4 23L4 21L5 21L5 23L6 23L6 24L9 24L9 25L10 25L10 26L11 26L11 25L12 25L12 26L13 26L13 22L12 22L12 23L11 23L11 21L12 21L12 18L13 18L13 19L14 19L14 20L15 20L15 19L14 19L14 18L15 18L15 16L14 16L14 15L16 15L16 14L18 14L18 12L19 12L19 8L20 8L20 6L21 6L21 7L22 7L22 8L21 8L21 10L20 10L20 11L21 11L21 12L20 12L20 14L19 14L19 15L18 15L18 16L19 16L19 17L18 17L18 18L19 18L19 20L21 20L21 21L20 21L20 22L19 22L19 21L18 21L18 19L17 19L17 18L16 18L16 19L17 19L17 20L16 20L16 23L14 23L14 24L15 24L15 25L14 25L14 26L15 26L15 28L16 28L16 30L13 30L13 28L14 28L14 27L13 27L13 28L11 28L11 29L12 29L12 31L13 31L13 33L12 33L12 32L11 32L11 33L10 33L10 31L11 31L11 30L10 30L10 29L9 29L9 31L8 31L8 30L7 30L7 29L4 29L4 32L5 32L5 30L7 30L7 31L6 31L6 32L7 32L7 33L5 33L5 34L7 34L7 35L6 35L6 36L7 36L7 35L8 35L8 33L10 33L10 34L9 34L9 36L8 36L8 37L9 37L9 39L6 39L6 40L7 40L7 41L6 41L6 42L10 42L10 43L11 43L11 42L12 42L12 41L13 41L13 39L12 39L12 38L15 38L15 37L14 37L14 36L15 36L15 35L13 35L13 34L15 34L15 32L16 32L16 30L21 30L21 31L18 31L18 32L19 32L19 33L18 33L18 34L19 34L19 38L21 38L21 37L22 37L22 36L23 36L23 35L22 35L22 34L23 34L23 32L24 32L24 31L23 31L23 30L24 30L24 29L22 29L22 27L23 27L23 26L24 26L24 25L21 25L21 26L20 26L20 27L21 27L21 28L19 28L19 29L18 29L18 28L17 28L17 27L18 27L18 26L19 26L19 24L20 24L20 22L21 22L21 21L22 21L22 24L23 24L23 23L24 23L24 24L25 24L25 23L24 23L24 20L25 20L25 17L26 17L26 21L25 21L25 22L26 22L26 24L29 24L29 27L30 27L30 28L31 28L31 29L32 29L32 28L33 28L33 29L34 29L34 30L35 30L35 31L36 31L36 30L37 30L37 31L38 31L38 32L39 32L39 33L38 33L38 34L39 34L39 35L38 35L38 36L37 36L37 35L36 35L36 36L37 36L37 37L38 37L38 38L37 38L37 40L38 40L38 42L39 42L39 41L40 41L40 40L41 40L41 37L40 37L40 39L39 39L39 40L38 40L38 38L39 38L39 35L40 35L40 34L41 34L41 33L42 33L42 35L43 35L43 36L42 36L42 39L43 39L43 40L42 40L42 42L43 42L43 44L42 44L42 43L40 43L40 44L38 44L38 43L37 43L37 44L38 44L38 50L39 50L39 51L41 51L41 50L39 50L39 49L40 49L40 48L41 48L41 47L42 47L42 50L43 50L43 51L42 51L42 52L43 52L43 51L44 51L44 50L45 50L45 51L46 51L46 52L49 52L49 51L48 51L48 49L44 49L44 47L42 47L42 46L43 46L43 44L44 44L44 43L45 43L45 44L46 44L46 41L47 41L47 39L46 39L46 37L45 37L45 38L44 38L44 39L43 39L43 36L44 36L44 35L45 35L45 36L47 36L47 35L46 35L46 34L47 34L47 33L48 33L48 35L50 35L50 34L49 34L49 33L51 33L51 31L52 31L52 30L51 30L51 29L50 29L50 30L49 30L49 29L48 29L48 30L47 30L47 31L46 31L46 30L45 30L45 29L44 29L44 27L43 27L43 25L44 25L44 22L45 22L45 20L46 20L46 19L47 19L47 17L46 17L46 14L47 14L47 15L49 15L49 14L48 14L48 9L46 9L46 10L47 10L47 13L46 13L46 11L45 11L45 8L44 8L44 12L42 12L42 10L43 10L43 9L42 9L42 10L41 10L41 11L40 11L40 12L42 12L42 15L40 15L40 16L39 16L39 17L38 17L38 19L36 19L36 20L34 20L34 22L33 22L33 21L32 21L32 20L31 20L31 19L30 19L30 20L27 20L27 19L28 19L28 18L29 18L29 17L28 17L28 16L30 16L30 18L32 18L32 19L33 19L33 18L32 18L32 15L33 15L33 17L34 17L34 19L35 19L35 18L37 18L37 17L36 17L36 16L35 16L35 17L34 17L34 15L33 15L33 14L32 14L32 12L33 12L33 13L34 13L34 14L36 14L36 12L37 12L37 11L34 11L34 12L33 12L33 10L31 10L31 9L32 9L32 6L33 6L33 5L32 5L32 4L31 4L31 5L30 5L30 6L29 6L29 7L30 7L30 8L31 8L31 9L30 9L30 10L29 10L29 9L27 9L27 11L26 11L26 12L25 12L25 11L24 11L24 4L25 4L25 1ZM26 1L26 2L27 2L27 4L28 4L28 2L27 2L27 1ZM42 2L42 3L43 3L43 2ZM34 3L34 4L35 4L35 3ZM40 3L40 4L39 4L39 7L40 7L40 4L41 4L41 7L42 7L42 4L41 4L41 3ZM22 5L22 7L23 7L23 5ZM25 5L25 8L28 8L28 5ZM14 6L14 7L15 7L15 6ZM26 6L26 7L27 7L27 6ZM30 6L30 7L31 7L31 6ZM16 8L16 9L17 9L17 8ZM22 8L22 9L23 9L23 8ZM5 9L5 11L3 11L3 12L4 12L4 13L5 13L5 11L6 11L6 12L7 12L7 11L9 11L9 10L7 10L7 9ZM25 9L25 10L26 10L26 9ZM6 10L6 11L7 11L7 10ZM14 10L14 11L15 11L15 10ZM16 10L16 11L17 11L17 12L18 12L18 10ZM28 10L28 11L29 11L29 10ZM12 11L12 12L11 12L11 13L10 13L10 14L9 14L9 15L10 15L10 16L11 16L11 18L12 18L12 17L13 17L13 15L10 15L10 14L11 14L11 13L12 13L12 14L16 14L16 12L13 12L13 11ZM23 11L23 12L22 12L22 13L21 13L21 14L20 14L20 17L21 17L21 18L20 18L20 19L22 19L22 18L24 18L24 15L25 15L25 16L26 16L26 17L27 17L27 16L26 16L26 14L24 14L24 15L22 15L22 13L23 13L23 12L24 12L24 11ZM30 11L30 13L29 13L29 12L28 12L28 13L27 13L27 12L26 12L26 13L27 13L27 14L28 14L28 15L29 15L29 14L30 14L30 16L31 16L31 15L32 15L32 14L30 14L30 13L31 13L31 12L32 12L32 11ZM12 12L12 13L13 13L13 12ZM34 12L34 13L35 13L35 12ZM44 12L44 13L43 13L43 14L44 14L44 13L45 13L45 14L46 14L46 13L45 13L45 12ZM28 13L28 14L29 14L29 13ZM40 13L40 14L41 14L41 13ZM52 14L52 16L53 16L53 14ZM21 15L21 16L22 16L22 15ZM42 15L42 16L40 16L40 17L39 17L39 22L38 22L38 21L37 21L37 20L36 20L36 21L35 21L35 22L34 22L34 23L32 23L32 21L31 21L31 22L30 22L30 21L29 21L29 22L28 22L28 21L26 21L26 22L28 22L28 23L32 23L32 25L31 25L31 24L30 24L30 25L31 25L31 28L32 28L32 25L33 25L33 26L34 26L34 27L33 27L33 28L34 28L34 27L35 27L35 30L36 30L36 29L37 29L37 30L38 30L38 31L40 31L40 33L41 33L41 31L44 31L44 32L42 32L42 33L44 33L44 34L43 34L43 35L44 35L44 34L46 34L46 33L45 33L45 32L46 32L46 31L44 31L44 30L42 30L42 29L43 29L43 28L42 28L42 25L43 25L43 23L42 23L42 24L41 24L41 22L40 22L40 21L41 21L41 20L42 20L42 16L44 16L44 17L43 17L43 18L44 18L44 19L43 19L43 20L44 20L44 19L46 19L46 17L45 17L45 16L44 16L44 15ZM3 17L3 18L4 18L4 17ZM40 17L40 18L41 18L41 17ZM44 17L44 18L45 18L45 17ZM5 18L5 19L4 19L4 20L5 20L5 21L7 21L7 22L6 22L6 23L7 23L7 22L8 22L8 23L9 23L9 21L8 21L8 19L7 19L7 18ZM5 19L5 20L7 20L7 19ZM9 19L9 20L10 20L10 21L11 21L11 20L10 20L10 19ZM1 20L1 22L2 22L2 20ZM22 20L22 21L23 21L23 20ZM17 21L17 22L18 22L18 21ZM36 21L36 22L37 22L37 21ZM43 21L43 22L44 22L44 21ZM39 22L39 23L36 23L36 24L34 24L34 26L35 26L35 25L36 25L36 27L38 27L38 26L39 26L39 27L40 27L40 28L37 28L37 29L38 29L38 30L40 30L40 28L41 28L41 29L42 29L42 28L41 28L41 27L40 27L40 26L41 26L41 25L39 25L39 23L40 23L40 22ZM48 22L48 23L47 23L47 24L49 24L49 23L50 23L50 22ZM52 22L52 24L51 24L51 25L52 25L52 24L53 24L53 22ZM10 23L10 24L11 24L11 23ZM16 23L16 25L17 25L17 23ZM18 23L18 24L19 24L19 23ZM45 23L45 24L46 24L46 23ZM36 24L36 25L37 25L37 26L38 26L38 24ZM5 25L5 28L8 28L8 25ZM25 25L25 28L28 28L28 25ZM45 25L45 28L48 28L48 25ZM6 26L6 27L7 27L7 26ZM16 26L16 27L17 27L17 26ZM21 26L21 27L22 27L22 26ZM26 26L26 27L27 27L27 26ZM46 26L46 27L47 27L47 26ZM49 26L49 27L50 27L50 28L51 28L51 27L50 27L50 26ZM2 27L2 29L3 29L3 27ZM25 29L25 30L26 30L26 31L27 31L27 30L26 30L26 29ZM48 30L48 32L50 32L50 31L51 31L51 30L50 30L50 31L49 31L49 30ZM2 31L2 32L3 32L3 31ZM14 31L14 32L15 32L15 31ZM22 31L22 32L23 32L23 31ZM28 31L28 32L29 32L29 31ZM20 32L20 33L21 33L21 32ZM25 32L25 34L26 34L26 35L27 35L27 34L28 34L28 33L26 33L26 32ZM34 32L34 35L33 35L33 37L34 37L34 35L35 35L35 32ZM11 33L11 34L10 34L10 35L11 35L11 36L10 36L10 39L9 39L9 40L8 40L8 41L9 41L9 40L10 40L10 39L11 39L11 41L12 41L12 39L11 39L11 38L12 38L12 37L13 37L13 36L12 36L12 35L11 35L11 34L12 34L12 33ZM20 34L20 35L21 35L21 34ZM52 34L52 35L53 35L53 34ZM11 36L11 37L12 37L12 36ZM51 38L51 39L50 39L50 40L52 40L52 38ZM3 39L3 41L4 41L4 39ZM14 39L14 40L15 40L15 39ZM20 39L20 40L21 40L21 39ZM22 39L22 40L23 40L23 41L22 41L22 42L23 42L23 41L24 41L24 39ZM35 39L35 41L34 41L34 43L33 43L33 45L34 45L34 46L32 46L32 48L34 48L34 50L35 50L35 47L37 47L37 45L36 45L36 46L35 46L35 45L34 45L34 43L35 43L35 41L36 41L36 39ZM44 39L44 40L43 40L43 41L44 41L44 40L45 40L45 41L46 41L46 39ZM48 39L48 40L49 40L49 39ZM27 41L27 42L26 42L26 44L27 44L27 42L28 42L28 44L29 44L29 42L28 42L28 41ZM48 41L48 42L47 42L47 43L48 43L48 44L49 44L49 42L50 42L50 41ZM20 42L20 43L21 43L21 45L20 45L20 44L19 44L19 45L20 45L20 46L21 46L21 45L22 45L22 43L21 43L21 42ZM24 43L24 44L25 44L25 43ZM40 44L40 45L39 45L39 48L40 48L40 47L41 47L41 46L42 46L42 44ZM10 45L10 46L11 46L11 47L12 47L12 46L11 46L11 45ZM23 45L23 46L24 46L24 45ZM25 45L25 48L28 48L28 45ZM45 45L45 48L48 48L48 45ZM49 45L49 46L50 46L50 45ZM26 46L26 47L27 47L27 46ZM34 46L34 47L35 47L35 46ZM46 46L46 47L47 47L47 46ZM9 47L9 48L10 48L10 47ZM13 48L13 49L14 49L14 48ZM20 48L20 49L21 49L21 48ZM10 49L10 50L11 50L11 49ZM43 49L43 50L44 50L44 49ZM16 50L16 51L17 51L17 50ZM20 50L20 51L21 51L21 50ZM22 50L22 51L23 51L23 52L22 52L22 53L23 53L23 52L24 52L24 53L27 53L27 51L25 51L25 50ZM24 51L24 52L25 52L25 51ZM33 51L33 52L34 52L34 51ZM20 52L20 53L21 53L21 52ZM28 52L28 53L30 53L30 52ZM36 52L36 53L37 53L37 52ZM52 52L52 53L53 53L53 52ZM0 0L0 7L7 7L7 0ZM1 1L1 6L6 6L6 1ZM2 2L2 5L5 5L5 2ZM46 0L46 7L53 7L53 0ZM47 1L47 6L52 6L52 1ZM48 2L48 5L51 5L51 2ZM0 46L0 53L7 53L7 46ZM1 47L1 52L6 52L6 47ZM2 48L2 51L5 51L5 48Z" fill="#000000"/></g></g></svg>
