<?xml version="1.0" encoding="UTF-8"?>
<svg xmlns="http://www.w3.org/2000/svg" version="1.1" width="356" height="356" viewBox="0 0 356 356"><rect x="0" y="0" width="356" height="356" fill="#ffffff"/><g transform="scale(6.717)"><g transform="translate(0,0)"><path fill-rule="evenodd" d="M10 0L10 1L8 1L8 3L9 3L9 2L10 2L10 1L11 1L11 0ZM12 0L12 2L13 2L13 3L11 3L11 4L12 4L12 5L13 5L13 6L12 6L12 7L13 7L13 8L12 8L12 9L13 9L13 8L14 8L14 7L15 7L15 10L11 10L11 6L10 6L10 4L8 4L8 8L6 8L6 9L5 9L5 10L4 10L4 8L3 8L3 10L2 10L2 8L0 8L0 11L1 11L1 10L2 10L2 12L4 12L4 13L1 13L1 12L0 12L0 13L1 13L1 14L0 14L0 18L1 18L1 19L0 19L0 22L2 22L2 21L3 21L3 24L4 24L4 26L3 26L3 25L0 25L0 30L1 30L1 29L9 29L9 30L10 30L10 31L11 31L11 30L12 30L12 32L11 32L11 33L10 33L10 32L9 32L9 31L8 31L8 33L9 33L9 34L8 34L8 35L7 35L7 34L6 34L6 35L7 35L7 36L6 36L6 37L8 37L8 38L5 38L5 33L4 33L4 34L3 34L3 33L0 33L0 34L1 34L1 35L0 35L0 36L2 36L2 37L1 37L1 38L2 38L2 40L1 40L1 39L0 39L0 43L1 43L1 44L3 44L3 45L4 45L4 44L3 44L3 43L7 43L7 44L6 44L6 45L7 45L7 44L8 44L8 43L10 43L10 44L11 44L11 42L13 42L13 44L12 44L12 45L13 45L13 44L18 44L18 45L17 45L17 46L16 46L16 47L13 47L13 48L10 48L10 46L11 46L11 47L12 47L12 46L11 46L11 45L10 45L10 46L9 46L9 45L8 45L8 47L9 47L9 49L8 49L8 50L9 50L9 51L8 51L8 53L9 53L9 51L10 51L10 53L12 53L12 52L13 52L13 53L14 53L14 51L15 51L15 49L14 49L14 50L12 50L12 49L13 49L13 48L16 48L16 49L17 49L17 48L18 48L18 49L21 49L21 52L20 52L20 50L19 50L19 52L17 52L17 51L18 51L18 50L17 50L17 51L16 51L16 53L19 53L19 52L20 52L20 53L22 53L22 52L23 52L23 53L28 53L28 52L29 52L29 51L30 51L30 50L26 50L26 49L29 49L29 48L31 48L31 49L33 49L33 48L34 48L34 47L32 47L32 46L33 46L33 45L35 45L35 43L33 43L33 42L32 42L32 41L33 41L33 40L35 40L35 41L36 41L36 43L38 43L38 45L40 45L40 46L39 46L39 47L38 47L38 46L37 46L37 44L36 44L36 46L35 46L35 48L36 48L36 49L37 49L37 50L35 50L35 49L34 49L34 52L33 52L33 50L32 50L32 53L34 53L34 52L35 52L35 53L38 53L38 52L39 52L39 53L40 53L40 52L41 52L41 53L44 53L44 52L45 52L45 53L46 53L46 52L45 52L45 51L47 51L47 52L48 52L48 53L49 53L49 52L50 52L50 50L49 50L49 49L50 49L50 48L51 48L51 53L52 53L52 50L53 50L53 49L52 49L52 48L53 48L53 47L52 47L52 46L51 46L51 45L50 45L50 43L51 43L51 44L52 44L52 43L53 43L53 42L52 42L52 39L53 39L53 37L52 37L52 33L53 33L53 28L52 28L52 30L51 30L51 28L50 28L50 30L48 30L48 29L49 29L49 24L47 24L47 23L49 23L49 22L48 22L48 21L49 21L49 20L50 20L50 24L52 24L52 22L51 22L51 20L52 20L52 21L53 21L53 20L52 20L52 19L53 19L53 18L52 18L52 17L53 17L53 16L52 16L52 17L51 17L51 18L50 18L50 19L49 19L49 20L48 20L48 19L47 19L47 20L48 20L48 21L47 21L47 23L46 23L46 24L44 24L44 22L43 22L43 23L42 23L42 21L43 21L43 19L41 19L41 18L42 18L42 17L41 17L41 18L40 18L40 16L41 16L41 15L43 15L43 16L44 16L44 19L45 19L45 17L46 17L46 16L47 16L47 14L48 14L48 17L47 17L47 18L48 18L48 17L50 17L50 15L49 15L49 14L50 14L50 13L49 13L49 11L50 11L50 12L51 12L51 11L52 11L52 13L51 13L51 15L53 15L53 14L52 14L52 13L53 13L53 11L52 11L52 10L51 10L51 9L52 9L52 8L50 8L50 9L49 9L49 8L46 8L46 9L47 9L47 11L44 11L44 10L41 10L41 9L42 9L42 8L41 8L41 4L38 4L38 2L39 2L39 3L42 3L42 7L43 7L43 8L45 8L45 6L44 6L44 7L43 7L43 3L44 3L44 4L45 4L45 3L44 3L44 1L43 1L43 0L41 0L41 1L40 1L40 0L29 0L29 1L28 1L28 0L20 0L20 1L19 1L19 0L17 0L17 1L19 1L19 2L20 2L20 1L21 1L21 3L20 3L20 8L21 8L21 9L20 9L20 10L19 10L19 11L20 11L20 10L22 10L22 11L21 11L21 13L22 13L22 14L24 14L24 15L26 15L26 14L27 14L27 16L24 16L24 17L25 17L25 20L26 20L26 22L27 22L27 23L26 23L26 24L24 24L24 22L22 22L22 21L23 21L23 19L24 19L24 18L23 18L23 17L22 17L22 18L21 18L21 16L23 16L23 15L20 15L20 13L19 13L19 12L18 12L18 11L17 11L17 13L16 13L16 14L15 14L15 12L16 12L16 9L17 9L17 10L18 10L18 9L17 9L17 8L19 8L19 5L13 5L13 4L14 4L14 1L15 1L15 3L16 3L16 4L17 4L17 3L16 3L16 0L14 0L14 1L13 1L13 0ZM25 1L25 2L23 2L23 3L21 3L21 5L22 5L22 6L21 6L21 8L24 8L24 3L25 3L25 2L26 2L26 3L28 3L28 4L31 4L31 5L30 5L30 6L29 6L29 9L26 9L26 11L24 11L24 10L23 10L23 9L22 9L22 10L23 10L23 11L24 11L24 12L26 12L26 11L27 11L27 10L28 10L28 11L29 11L29 12L27 12L27 14L32 14L32 15L33 15L33 14L34 14L34 13L35 13L35 12L36 12L36 8L37 8L37 11L38 11L38 10L39 10L39 11L40 11L40 12L41 12L41 14L39 14L39 12L37 12L37 13L38 13L38 14L35 14L35 16L34 16L34 17L32 17L32 16L31 16L31 15L28 15L28 16L30 16L30 18L29 18L29 20L28 20L28 19L26 19L26 20L28 20L28 21L29 21L29 22L28 22L28 23L27 23L27 24L28 24L28 23L30 23L30 22L31 22L31 20L32 20L32 21L33 21L33 22L32 22L32 24L33 24L33 25L32 25L32 26L31 26L31 25L30 25L30 24L29 24L29 26L31 26L31 27L29 27L29 28L31 28L31 29L28 29L28 30L26 30L26 29L25 29L25 30L26 30L26 31L25 31L25 32L26 32L26 33L25 33L25 35L26 35L26 34L27 34L27 37L28 37L28 38L26 38L26 37L25 37L25 39L22 39L22 38L21 38L21 36L20 36L20 37L19 37L19 38L16 38L16 37L17 37L17 36L18 36L18 35L17 35L17 36L16 36L16 32L20 32L20 34L19 34L19 33L17 33L17 34L19 34L19 35L20 35L20 34L21 34L21 35L22 35L22 36L23 36L23 35L24 35L24 33L23 33L23 31L24 31L24 30L23 30L23 29L24 29L24 27L23 27L23 26L22 26L22 27L21 27L21 28L20 28L20 26L19 26L19 25L20 25L20 24L21 24L21 25L22 25L22 24L23 24L23 25L24 25L24 24L23 24L23 23L22 23L22 22L21 22L21 19L19 19L19 21L18 21L18 20L17 20L17 19L18 19L18 18L19 18L19 17L20 17L20 16L19 16L19 15L17 15L17 16L16 16L16 15L15 15L15 16L12 16L12 13L14 13L14 12L15 12L15 11L11 11L11 10L9 10L9 8L8 8L8 9L6 9L6 10L8 10L8 12L9 12L9 13L6 13L6 12L7 12L7 11L5 11L5 13L4 13L4 14L7 14L7 15L6 15L6 16L7 16L7 15L8 15L8 18L7 18L7 17L5 17L5 19L4 19L4 20L3 20L3 19L2 19L2 20L3 20L3 21L4 21L4 23L6 23L6 24L7 24L7 23L9 23L9 22L10 22L10 21L9 21L9 20L10 20L10 17L11 17L11 18L12 18L12 19L11 19L11 23L10 23L10 25L9 25L9 28L10 28L10 30L11 30L11 28L12 28L12 27L15 27L15 25L14 25L14 23L12 23L12 19L13 19L13 17L15 17L15 19L14 19L14 20L13 20L13 22L14 22L14 21L15 21L15 23L16 23L16 22L18 22L18 23L17 23L17 24L18 24L18 26L17 26L17 27L16 27L16 28L15 28L15 29L12 29L12 30L14 30L14 31L13 31L13 32L12 32L12 33L11 33L11 34L9 34L9 37L13 37L13 40L11 40L11 38L9 38L9 39L10 39L10 40L11 40L11 41L13 41L13 42L14 42L14 41L13 41L13 40L16 40L16 42L17 42L17 43L22 43L22 44L20 44L20 45L18 45L18 46L17 46L17 47L18 47L18 48L19 48L19 47L20 47L20 46L22 46L22 44L25 44L25 43L24 43L24 42L23 42L23 40L25 40L25 42L27 42L27 41L29 41L29 40L30 40L30 42L28 42L28 43L27 43L27 44L28 44L28 43L31 43L31 41L32 41L32 40L31 40L31 39L33 39L33 37L32 37L32 36L36 36L36 33L35 33L35 32L36 32L36 31L37 31L37 29L38 29L38 26L39 26L39 25L38 25L38 26L37 26L37 25L35 25L35 24L34 24L34 23L36 23L36 24L37 24L37 22L40 22L40 23L39 23L39 24L41 24L41 26L40 26L40 27L42 27L42 28L40 28L40 30L41 30L41 31L40 31L40 32L41 32L41 31L42 31L42 30L43 30L43 32L42 32L42 35L43 35L43 33L45 33L45 34L44 34L44 36L41 36L41 35L40 35L40 34L41 34L41 33L40 33L40 34L39 34L39 33L38 33L38 32L37 32L37 34L38 34L38 35L39 35L39 36L37 36L37 37L36 37L36 38L34 38L34 39L36 39L36 38L37 38L37 39L38 39L38 40L37 40L37 41L39 41L39 42L38 42L38 43L39 43L39 42L40 42L40 43L41 43L41 46L40 46L40 48L41 48L41 47L42 47L42 50L41 50L41 52L42 52L42 51L43 51L43 47L42 47L42 46L44 46L44 44L43 44L43 42L44 42L44 41L42 41L42 40L43 40L43 39L42 39L42 38L44 38L44 39L45 39L45 40L46 40L46 41L45 41L45 42L47 42L47 40L51 40L51 38L52 38L52 37L51 37L51 36L50 36L50 35L51 35L51 34L50 34L50 35L49 35L49 33L47 33L47 34L46 34L46 33L45 33L45 32L47 32L47 31L46 31L46 30L47 30L47 29L45 29L45 32L44 32L44 30L43 30L43 29L44 29L44 28L43 28L43 27L44 27L44 26L43 26L43 24L41 24L41 22L40 22L40 21L39 21L39 20L41 20L41 21L42 21L42 20L41 20L41 19L39 19L39 20L38 20L38 19L36 19L36 18L38 18L38 17L35 17L35 16L39 16L39 15L41 15L41 14L43 14L43 13L44 13L44 15L46 15L46 12L45 12L45 13L44 13L44 11L42 11L42 12L41 12L41 10L40 10L40 9L39 9L39 8L40 8L40 5L39 5L39 7L38 7L38 4L37 4L37 3L36 3L36 2L35 2L35 1L33 1L33 2L35 2L35 3L32 3L32 4L31 4L31 3L30 3L30 2L32 2L32 1L30 1L30 2L29 2L29 3L28 3L28 2L26 2L26 1ZM39 1L39 2L40 2L40 1ZM42 2L42 3L43 3L43 2ZM32 4L32 5L34 5L34 7L33 7L33 6L32 6L32 8L31 8L31 6L30 6L30 9L32 9L32 10L33 10L33 9L34 9L34 8L36 8L36 7L37 7L37 4L35 4L35 5L34 5L34 4ZM25 5L25 8L28 8L28 5ZM9 6L9 7L10 7L10 6ZM13 6L13 7L14 7L14 6ZM15 6L15 7L16 7L16 6ZM17 6L17 7L18 7L18 6ZM22 6L22 7L23 7L23 6ZM26 6L26 7L27 7L27 6ZM35 6L35 7L36 7L36 6ZM32 8L32 9L33 9L33 8ZM3 10L3 11L4 11L4 10ZM29 10L29 11L30 11L30 12L31 12L31 13L34 13L34 12L33 12L33 11L31 11L31 10ZM50 10L50 11L51 11L51 10ZM9 11L9 12L11 12L11 11ZM47 11L47 12L48 12L48 11ZM42 12L42 13L43 13L43 12ZM25 13L25 14L26 14L26 13ZM1 14L1 15L2 15L2 16L1 16L1 18L2 18L2 16L3 16L3 14ZM8 14L8 15L9 15L9 16L10 16L10 15L11 15L11 14ZM38 14L38 15L39 15L39 14ZM4 15L4 16L5 16L5 15ZM11 16L11 17L12 17L12 16ZM18 16L18 17L16 17L16 18L18 18L18 17L19 17L19 16ZM3 17L3 18L4 18L4 17ZM26 17L26 18L28 18L28 17ZM31 17L31 18L32 18L32 17ZM6 18L6 19L7 19L7 18ZM8 18L8 19L9 19L9 18ZM33 19L33 21L35 21L35 20L36 20L36 22L37 22L37 21L38 21L38 20L36 20L36 19L35 19L35 20L34 20L34 19ZM50 19L50 20L51 20L51 19ZM4 20L4 21L5 21L5 22L6 22L6 23L7 23L7 22L8 22L8 21L7 21L7 20L6 20L6 21L5 21L5 20ZM44 20L44 21L45 21L45 20ZM6 21L6 22L7 22L7 21ZM20 22L20 23L18 23L18 24L20 24L20 23L21 23L21 22ZM33 22L33 23L34 23L34 22ZM1 23L1 24L2 24L2 23ZM11 23L11 24L12 24L12 25L11 25L11 26L10 26L10 28L11 28L11 27L12 27L12 25L13 25L13 26L14 26L14 25L13 25L13 24L12 24L12 23ZM5 25L5 28L8 28L8 25ZM25 25L25 28L28 28L28 25ZM34 25L34 26L32 26L32 27L35 27L35 28L32 28L32 29L37 29L37 27L36 27L36 26L35 26L35 25ZM45 25L45 28L48 28L48 25ZM50 25L50 26L51 26L51 27L53 27L53 25ZM6 26L6 27L7 27L7 26ZM18 26L18 28L16 28L16 29L19 29L19 30L18 30L18 31L19 31L19 30L20 30L20 31L21 31L21 34L22 34L22 35L23 35L23 34L22 34L22 30L21 30L21 29L22 29L22 28L23 28L23 27L22 27L22 28L21 28L21 29L19 29L19 26ZM26 26L26 27L27 27L27 26ZM42 26L42 27L43 27L43 26ZM46 26L46 27L47 27L47 26ZM2 27L2 28L4 28L4 27ZM41 29L41 30L42 30L42 29ZM3 30L3 31L0 31L0 32L3 32L3 31L5 31L5 32L6 32L6 33L7 33L7 32L6 32L6 31L7 31L7 30L6 30L6 31L5 31L5 30ZM15 30L15 31L14 31L14 32L13 32L13 34L12 34L12 36L13 36L13 37L15 37L15 34L14 34L14 33L15 33L15 32L16 32L16 31L17 31L17 30ZM28 30L28 32L29 32L29 31L30 31L30 32L31 32L31 34L29 34L29 33L27 33L27 34L28 34L28 35L29 35L29 37L31 37L31 38L30 38L30 39L31 39L31 38L32 38L32 37L31 37L31 36L30 36L30 35L31 35L31 34L32 34L32 32L31 32L31 31L30 31L30 30ZM32 30L32 31L33 31L33 32L34 32L34 31L35 31L35 30L34 30L34 31L33 31L33 30ZM38 30L38 31L39 31L39 30ZM26 31L26 32L27 32L27 31ZM50 31L50 32L52 32L52 31ZM2 34L2 36L4 36L4 35L3 35L3 34ZM34 34L34 35L35 35L35 34ZM45 34L45 37L44 37L44 38L45 38L45 39L46 39L46 40L47 40L47 39L50 39L50 38L51 38L51 37L50 37L50 38L47 38L47 36L46 36L46 34ZM10 35L10 36L11 36L11 35ZM48 35L48 36L49 36L49 35ZM39 36L39 37L41 37L41 36ZM2 37L2 38L3 38L3 40L4 40L4 42L7 42L7 41L9 41L9 42L10 42L10 41L9 41L9 40L7 40L7 39L5 39L5 38L3 38L3 37ZM37 37L37 38L38 38L38 37ZM45 37L45 38L46 38L46 37ZM15 38L15 39L16 39L16 40L17 40L17 41L18 41L18 40L19 40L19 41L21 41L21 40L19 40L19 39L16 39L16 38ZM39 38L39 41L40 41L40 38ZM25 39L25 40L26 40L26 41L27 41L27 39ZM41 39L41 40L42 40L42 39ZM5 40L5 41L7 41L7 40ZM1 41L1 42L2 42L2 43L3 43L3 41ZM41 41L41 42L42 42L42 41ZM48 41L48 44L49 44L49 42L51 42L51 41ZM22 42L22 43L23 43L23 42ZM32 43L32 45L33 45L33 43ZM45 43L45 44L47 44L47 43ZM30 44L30 45L29 45L29 47L30 47L30 46L31 46L31 44ZM23 45L23 47L24 47L24 45ZM25 45L25 48L28 48L28 45ZM45 45L45 48L48 48L48 45ZM18 46L18 47L19 47L19 46ZM26 46L26 47L27 47L27 46ZM36 46L36 47L37 47L37 46ZM46 46L46 47L47 47L47 46ZM50 46L50 47L49 47L49 48L50 48L50 47L51 47L51 48L52 48L52 47L51 47L51 46ZM31 47L31 48L32 48L32 47ZM22 48L22 49L24 49L24 51L25 51L25 49L24 49L24 48ZM37 48L37 49L38 49L38 50L37 50L37 51L36 51L36 52L37 52L37 51L38 51L38 50L40 50L40 49L39 49L39 48ZM10 49L10 51L12 51L12 50L11 50L11 49ZM44 49L44 51L45 51L45 50L46 50L46 49ZM47 50L47 51L48 51L48 52L49 52L49 51L48 51L48 50ZM26 51L26 52L27 52L27 51ZM39 51L39 52L40 52L40 51ZM30 52L30 53L31 53L31 52ZM0 0L0 7L7 7L7 0ZM1 1L1 6L6 6L6 1ZM2 2L2 5L5 5L5 2ZM46 0L46 7L53 7L53 0ZM47 1L47 6L52 6L52 1ZM48 2L48 5L51 5L51 2ZM0 46L0 53L7 53L7 46ZM1 47L1 52L6 52L6 47ZM2 48L2 51L5 51L5 48Z" fill="#000000"/></g></g></svg>
