<?xml version="1.0" encoding="UTF-8"?>
<svg xmlns="http://www.w3.org/2000/svg" version="1.1" width="356" height="356" viewBox="0 0 356 356"><rect x="0" y="0" width="356" height="356" fill="#ffffff"/><g transform="scale(6.717)"><g transform="translate(0,0)"><path fill-rule="evenodd" d="M8 0L8 2L9 2L9 0ZM11 0L11 1L10 1L10 2L11 2L11 3L9 3L9 4L8 4L8 9L7 9L7 8L5 8L5 9L3 9L3 8L0 8L0 9L1 9L1 10L0 10L0 12L1 12L1 13L0 13L0 14L1 14L1 15L3 15L3 13L2 13L2 12L4 12L4 15L5 15L5 16L6 16L6 17L5 17L5 18L4 18L4 20L3 20L3 19L2 19L2 16L0 16L0 18L1 18L1 20L0 20L0 21L1 21L1 20L2 20L2 22L1 22L1 23L0 23L0 24L1 24L1 25L2 25L2 26L1 26L1 27L4 27L4 28L3 28L3 30L4 30L4 31L2 31L2 32L4 32L4 33L5 33L5 35L7 35L7 34L6 34L6 33L8 33L8 32L10 32L10 31L8 31L8 30L10 30L10 28L11 28L11 27L10 27L10 28L9 28L9 26L10 26L10 24L11 24L11 26L12 26L12 27L14 27L14 28L13 28L13 30L16 30L16 32L15 32L15 31L14 31L14 32L15 32L15 34L13 34L13 33L12 33L12 30L11 30L11 34L13 34L13 35L12 35L12 36L11 36L11 37L10 37L10 36L6 36L6 37L7 37L7 38L5 38L5 37L4 37L4 36L2 36L2 35L0 35L0 37L1 37L1 36L2 36L2 38L4 38L4 39L3 39L3 40L4 40L4 39L5 39L5 41L3 41L3 43L2 43L2 40L0 40L0 41L1 41L1 42L0 42L0 43L1 43L1 44L3 44L3 45L4 45L4 44L3 44L3 43L7 43L7 44L6 44L6 45L8 45L8 46L9 46L9 47L8 47L8 48L9 48L9 50L8 50L8 53L11 53L11 52L12 52L12 53L13 53L13 51L15 51L15 53L16 53L16 52L18 52L18 53L19 53L19 52L18 52L18 49L19 49L19 48L20 48L20 49L21 49L21 48L20 48L20 47L21 47L21 46L20 46L20 45L21 45L21 43L22 43L22 46L23 46L23 47L22 47L22 48L23 48L23 50L24 50L24 49L25 49L25 51L26 51L26 49L29 49L29 52L28 52L28 50L27 50L27 52L28 52L28 53L31 53L31 52L30 52L30 49L31 49L31 48L32 48L32 49L33 49L33 52L32 52L32 53L33 53L33 52L35 52L35 50L36 50L36 49L37 49L37 51L38 51L38 52L36 52L36 53L38 53L38 52L39 52L39 51L40 51L40 53L42 53L42 49L45 49L45 50L44 50L44 51L43 51L43 52L44 52L44 51L45 51L45 52L46 52L46 53L49 53L49 52L46 52L46 51L47 51L47 50L46 50L46 49L48 49L48 51L49 51L49 50L50 50L50 49L49 49L49 48L50 48L50 46L52 46L52 47L51 47L51 48L52 48L52 47L53 47L53 45L52 45L52 44L53 44L53 42L52 42L52 44L51 44L51 45L50 45L50 43L51 43L51 42L50 42L50 41L52 41L52 40L53 40L53 38L52 38L52 37L53 37L53 34L52 34L52 35L51 35L51 36L50 36L50 35L48 35L48 33L49 33L49 34L51 34L51 33L53 33L53 26L52 26L52 23L53 23L53 22L52 22L52 21L53 21L53 18L52 18L52 16L53 16L53 14L52 14L52 13L53 13L53 12L52 12L52 11L53 11L53 10L52 10L52 11L51 11L51 10L50 10L50 9L49 9L49 8L45 8L45 6L44 6L44 8L43 8L43 10L42 10L42 7L43 7L43 3L44 3L44 4L45 4L45 3L44 3L44 1L43 1L43 0L41 0L41 2L40 2L40 3L39 3L39 1L40 1L40 0L36 0L36 2L35 2L35 0L34 0L34 1L33 1L33 0L32 0L32 2L34 2L34 3L33 3L33 4L32 4L32 5L31 5L31 2L29 2L29 4L28 4L28 1L29 1L29 0L28 0L28 1L27 1L27 0L26 0L26 1L27 1L27 2L26 2L26 4L24 4L24 2L25 2L25 0L24 0L24 2L22 2L22 1L23 1L23 0L18 0L18 1L16 1L16 2L18 2L18 1L19 1L19 4L20 4L20 5L18 5L18 3L15 3L15 0ZM30 0L30 1L31 1L31 0ZM11 1L11 2L13 2L13 7L14 7L14 8L15 8L15 9L14 9L14 10L12 10L12 4L9 4L9 5L10 5L10 6L9 6L9 9L10 9L10 10L12 10L12 11L11 11L11 12L12 12L12 11L14 11L14 10L15 10L15 12L16 12L16 14L13 14L13 13L11 13L11 14L9 14L9 13L8 13L8 12L7 12L7 11L6 11L6 10L7 10L7 9L5 9L5 10L3 10L3 9L2 9L2 10L1 10L1 11L2 11L2 10L3 10L3 11L4 11L4 12L5 12L5 13L6 13L6 14L8 14L8 16L9 16L9 17L6 17L6 18L9 18L9 19L6 19L6 20L7 20L7 21L5 21L5 20L4 20L4 24L3 24L3 23L1 23L1 24L3 24L3 26L4 26L4 24L5 24L5 23L6 23L6 24L7 24L7 23L6 23L6 22L7 22L7 21L9 21L9 22L8 22L8 24L9 24L9 23L10 23L10 22L11 22L11 24L12 24L12 26L13 26L13 24L12 24L12 22L11 22L11 21L12 21L12 20L11 20L11 18L13 18L13 19L14 19L14 20L15 20L15 19L14 19L14 18L15 18L15 16L14 16L14 15L16 15L16 14L18 14L18 12L19 12L19 8L20 8L20 6L21 6L21 7L22 7L22 6L23 6L23 7L24 7L24 4L23 4L23 3L22 3L22 2L21 2L21 1L20 1L20 2L21 2L21 3L22 3L22 5L20 5L20 6L19 6L19 8L18 8L18 6L17 6L17 7L16 7L16 5L15 5L15 3L14 3L14 1ZM37 2L37 3L36 3L36 4L35 4L35 3L34 3L34 4L33 4L33 5L32 5L32 6L31 6L31 5L30 5L30 4L29 4L29 7L30 7L30 6L31 6L31 9L30 9L30 8L29 8L29 11L32 11L32 12L31 12L31 13L30 13L30 12L28 12L28 9L26 9L26 10L27 10L27 11L26 11L26 12L28 12L28 14L27 14L27 15L26 15L26 16L25 16L25 15L24 15L24 16L25 16L25 17L23 17L23 21L22 21L22 19L20 19L20 18L21 18L21 17L20 17L20 14L21 14L21 12L20 12L20 14L19 14L19 15L18 15L18 16L19 16L19 17L18 17L18 18L19 18L19 20L21 20L21 21L20 21L20 22L19 22L19 21L18 21L18 19L17 19L17 18L16 18L16 19L17 19L17 20L16 20L16 23L14 23L14 24L15 24L15 25L14 25L14 26L15 26L15 28L16 28L16 30L21 30L21 31L18 31L18 32L19 32L19 33L18 33L18 34L16 34L16 35L17 35L17 36L16 36L16 38L15 38L15 37L14 37L14 36L15 36L15 35L13 35L13 36L12 36L12 38L8 38L8 39L6 39L6 40L8 40L8 41L9 41L9 42L7 42L7 41L6 41L6 42L7 42L7 43L9 43L9 44L10 44L10 46L11 46L11 47L12 47L12 48L13 48L13 45L15 45L15 44L16 44L16 47L15 47L15 46L14 46L14 47L15 47L15 48L14 48L14 49L12 49L12 50L14 50L14 49L15 49L15 48L16 48L16 47L17 47L17 46L19 46L19 47L18 47L18 48L19 48L19 47L20 47L20 46L19 46L19 45L20 45L20 44L19 44L19 45L18 45L18 43L19 43L19 40L18 40L18 39L19 39L19 38L21 38L21 37L22 37L22 38L24 38L24 39L25 39L25 42L24 42L24 43L25 43L25 44L26 44L26 42L27 42L27 43L28 43L28 44L29 44L29 45L30 45L30 46L29 46L29 47L30 47L30 48L31 48L31 47L32 47L32 48L34 48L34 50L35 50L35 49L36 49L36 48L37 48L37 46L36 46L36 44L38 44L38 48L39 48L39 49L38 49L38 50L39 50L39 49L40 49L40 51L41 51L41 49L40 49L40 48L42 48L42 46L43 46L43 47L44 47L44 45L43 45L43 44L44 44L44 42L43 42L43 37L42 37L42 35L41 35L41 38L40 38L40 36L38 36L38 35L40 35L40 34L41 34L41 33L42 33L42 34L43 34L43 33L42 33L42 32L44 32L44 30L45 30L45 33L44 33L44 35L43 35L43 36L44 36L44 37L45 37L45 38L44 38L44 40L45 40L45 38L47 38L47 37L46 37L46 36L48 36L48 38L49 38L49 39L48 39L48 40L47 40L47 41L48 41L48 42L47 42L47 43L48 43L48 44L49 44L49 43L48 43L48 42L49 42L49 41L48 41L48 40L49 40L49 39L50 39L50 40L52 40L52 38L51 38L51 39L50 39L50 36L48 36L48 35L46 35L46 34L47 34L47 33L46 33L46 30L45 30L45 29L44 29L44 30L43 30L43 28L44 28L44 25L43 25L43 23L44 23L44 24L46 24L46 22L47 22L47 24L49 24L49 23L50 23L50 25L51 25L51 23L52 23L52 22L51 22L51 23L50 23L50 22L49 22L49 21L48 21L48 19L49 19L49 18L50 18L50 21L51 21L51 19L52 19L52 18L51 18L51 16L52 16L52 14L51 14L51 13L52 13L52 12L51 12L51 11L50 11L50 12L51 12L51 13L49 13L49 16L50 16L50 17L48 17L48 19L47 19L47 17L46 17L46 14L47 14L47 13L46 13L46 12L47 12L47 11L48 11L48 9L46 9L46 10L47 10L47 11L45 11L45 9L44 9L44 11L43 11L43 12L42 12L42 11L40 11L40 10L41 10L41 9L40 9L40 10L39 10L39 9L37 9L37 11L34 11L34 12L33 12L33 10L31 10L31 9L32 9L32 6L33 6L33 9L34 9L34 10L35 10L35 9L36 9L36 8L38 8L38 6L39 6L39 7L40 7L40 6L39 6L39 5L41 5L41 7L42 7L42 4L41 4L41 3L40 3L40 4L39 4L39 5L38 5L38 4L37 4L37 3L38 3L38 2ZM42 2L42 3L43 3L43 2ZM34 4L34 5L33 5L33 6L34 6L34 7L35 7L35 6L36 6L36 7L37 7L37 6L36 6L36 5L35 5L35 4ZM25 5L25 8L28 8L28 5ZM10 6L10 7L11 7L11 6ZM14 6L14 7L15 7L15 6ZM26 6L26 7L27 7L27 6ZM10 8L10 9L11 9L11 8ZM16 8L16 9L17 9L17 8ZM21 8L21 10L20 10L20 11L22 11L22 10L23 10L23 11L24 11L24 12L23 12L23 13L24 13L24 14L26 14L26 13L24 13L24 12L25 12L25 11L24 11L24 10L23 10L23 9L24 9L24 8L23 8L23 9L22 9L22 8ZM51 8L51 9L53 9L53 8ZM16 10L16 11L17 11L17 12L18 12L18 10ZM5 11L5 12L6 12L6 13L7 13L7 12L6 12L6 11ZM38 11L38 12L36 12L36 13L35 13L35 14L34 14L34 13L33 13L33 12L32 12L32 13L31 13L31 14L30 14L30 13L29 13L29 14L28 14L28 15L29 15L29 14L30 14L30 15L31 15L31 14L32 14L32 13L33 13L33 15L32 15L32 18L31 18L31 19L32 19L32 21L31 21L31 22L30 22L30 21L29 21L29 22L28 22L28 19L29 19L29 20L30 20L30 17L31 17L31 16L28 16L28 19L27 19L27 21L26 21L26 23L25 23L25 22L24 22L24 23L23 23L23 24L22 24L22 21L21 21L21 22L20 22L20 24L19 24L19 23L18 23L18 24L19 24L19 26L18 26L18 27L17 27L17 26L16 26L16 27L17 27L17 28L18 28L18 29L19 29L19 28L21 28L21 27L22 27L22 29L23 29L23 26L24 26L24 30L23 30L23 31L22 31L22 32L23 32L23 33L24 33L24 34L22 34L22 35L21 35L21 34L20 34L20 35L21 35L21 36L22 36L22 37L23 37L23 35L24 35L24 38L25 38L25 39L26 39L26 41L27 41L27 40L28 40L28 41L29 41L29 42L28 42L28 43L29 43L29 44L31 44L31 42L30 42L30 41L31 41L31 40L30 40L30 39L31 39L31 38L32 38L32 37L33 37L33 38L34 38L34 37L35 37L35 36L34 36L34 32L35 32L35 35L36 35L36 37L37 37L37 38L36 38L36 41L37 41L37 40L39 40L39 38L38 38L38 36L37 36L37 35L38 35L38 32L37 32L37 31L38 31L38 28L39 28L39 27L36 27L36 25L38 25L38 24L39 24L39 22L40 22L40 23L41 23L41 24L40 24L40 25L39 25L39 26L40 26L40 30L39 30L39 34L40 34L40 33L41 33L41 32L42 32L42 31L43 31L43 30L42 30L42 28L43 28L43 26L42 26L42 23L41 23L41 22L42 22L42 21L41 21L41 19L40 19L40 17L41 17L41 18L42 18L42 16L43 16L43 18L44 18L44 19L42 19L42 20L45 20L45 19L46 19L46 21L45 21L45 22L44 22L44 21L43 21L43 22L44 22L44 23L45 23L45 22L46 22L46 21L47 21L47 19L46 19L46 17L45 17L45 18L44 18L44 16L45 16L45 14L46 14L46 13L45 13L45 12L44 12L44 13L43 13L43 15L42 15L42 12L40 12L40 13L41 13L41 14L39 14L39 16L36 16L36 15L35 15L35 14L37 14L37 15L38 15L38 12L39 12L39 11ZM44 13L44 14L45 14L45 13ZM11 14L11 15L10 15L10 17L13 17L13 14ZM22 14L22 15L21 15L21 16L22 16L22 15L23 15L23 14ZM50 14L50 15L51 15L51 14ZM6 15L6 16L7 16L7 15ZM11 15L11 16L12 16L12 15ZM33 15L33 17L34 17L34 19L35 19L35 20L33 20L33 21L32 21L32 23L31 23L31 25L30 25L30 26L31 26L31 25L32 25L32 28L31 28L31 29L30 29L30 27L29 27L29 29L28 29L28 30L27 30L27 29L26 29L26 30L27 30L27 31L28 31L28 33L26 33L26 31L25 31L25 30L24 30L24 31L25 31L25 33L26 33L26 34L25 34L25 38L27 38L27 39L28 39L28 40L29 40L29 41L30 41L30 40L29 40L29 38L28 38L28 37L26 37L26 36L27 36L27 35L26 35L26 34L28 34L28 36L29 36L29 35L30 35L30 36L31 36L31 35L33 35L33 33L32 33L32 32L34 32L34 30L36 30L36 31L37 31L37 29L36 29L36 27L34 27L34 26L35 26L35 25L36 25L36 24L38 24L38 23L37 23L37 21L38 21L38 22L39 22L39 20L38 20L38 18L39 18L39 17L40 17L40 16L42 16L42 15L40 15L40 16L39 16L39 17L38 17L38 18L37 18L37 17L36 17L36 16L35 16L35 17L34 17L34 15ZM43 15L43 16L44 16L44 15ZM26 16L26 18L27 18L27 16ZM32 18L32 19L33 19L33 18ZM35 18L35 19L37 19L37 18ZM9 20L9 21L10 21L10 20ZM24 20L24 21L25 21L25 20ZM36 20L36 21L37 21L37 20ZM17 21L17 22L18 22L18 21ZM33 21L33 23L32 23L32 25L33 25L33 26L34 26L34 24L36 24L36 23L35 23L35 22L34 22L34 21ZM27 22L27 23L26 23L26 24L27 24L27 23L28 23L28 24L29 24L29 23L30 23L30 22L29 22L29 23L28 23L28 22ZM48 22L48 23L49 23L49 22ZM16 23L16 25L17 25L17 23ZM24 23L24 24L25 24L25 23ZM5 25L5 28L8 28L8 25ZM21 25L21 26L20 26L20 27L21 27L21 26L23 26L23 25ZM25 25L25 28L28 28L28 25ZM40 25L40 26L41 26L41 28L42 28L42 26L41 26L41 25ZM45 25L45 28L48 28L48 25ZM6 26L6 27L7 27L7 26ZM26 26L26 27L27 27L27 26ZM46 26L46 27L47 27L47 26ZM49 26L49 27L50 27L50 28L52 28L52 26L51 26L51 27L50 27L50 26ZM33 27L33 28L32 28L32 29L31 29L31 31L33 31L33 30L34 30L34 29L35 29L35 28L34 28L34 27ZM0 29L0 30L1 30L1 29ZM5 29L5 30L8 30L8 29ZM32 29L32 30L33 30L33 29ZM48 29L48 30L47 30L47 32L48 32L48 30L49 30L49 31L50 31L50 32L49 32L49 33L51 33L51 32L52 32L52 29L50 29L50 30L49 30L49 29ZM28 30L28 31L29 31L29 30ZM40 30L40 31L42 31L42 30ZM50 30L50 31L51 31L51 30ZM6 31L6 32L5 32L5 33L6 33L6 32L8 32L8 31ZM0 32L0 33L1 33L1 34L3 34L3 35L4 35L4 34L3 34L3 33L1 33L1 32ZM20 32L20 33L21 33L21 32ZM9 33L9 35L10 35L10 33ZM28 33L28 34L30 34L30 35L31 35L31 34L30 34L30 33ZM18 34L18 38L19 38L19 34ZM44 35L44 36L45 36L45 35ZM33 36L33 37L34 37L34 36ZM30 37L30 38L31 38L31 37ZM0 38L0 39L1 39L1 38ZM13 38L13 39L11 39L11 41L10 41L10 39L8 39L8 40L9 40L9 41L10 41L10 42L9 42L9 43L10 43L10 42L12 42L12 43L13 43L13 44L12 44L12 45L11 45L11 46L12 46L12 45L13 45L13 44L14 44L14 43L13 43L13 42L14 42L14 41L15 41L15 40L16 40L16 41L17 41L17 39L15 39L15 38ZM37 38L37 39L38 39L38 38ZM14 39L14 40L15 40L15 39ZM20 39L20 40L21 40L21 39ZM22 39L22 40L23 40L23 41L22 41L22 43L23 43L23 41L24 41L24 40L23 40L23 39ZM32 39L32 43L34 43L34 44L32 44L32 45L31 45L31 46L30 46L30 47L31 47L31 46L32 46L32 47L35 47L35 48L36 48L36 47L35 47L35 46L34 46L34 44L36 44L36 42L35 42L35 43L34 43L34 41L35 41L35 39L34 39L34 40L33 40L33 39ZM41 39L41 40L40 40L40 43L42 43L42 41L41 41L41 40L42 40L42 39ZM45 41L45 44L46 44L46 41ZM16 42L16 43L18 43L18 42ZM20 42L20 43L21 43L21 42ZM38 43L38 44L39 44L39 43ZM40 44L40 45L39 45L39 48L40 48L40 45L41 45L41 46L42 46L42 44ZM23 45L23 46L24 46L24 45ZM25 45L25 48L28 48L28 45ZM45 45L45 48L48 48L48 45ZM49 45L49 46L50 46L50 45ZM26 46L26 47L27 47L27 46ZM46 46L46 47L47 47L47 46ZM9 47L9 48L10 48L10 49L11 49L11 48L10 48L10 47ZM16 50L16 51L17 51L17 50ZM20 50L20 51L21 51L21 50ZM31 50L31 51L32 51L32 50ZM45 50L45 51L46 51L46 50ZM10 51L10 52L11 52L11 51ZM22 51L22 53L23 53L23 52L24 52L24 53L25 53L25 52L24 52L24 51ZM20 52L20 53L21 53L21 52ZM52 52L52 53L53 53L53 52ZM0 0L0 7L7 7L7 0ZM1 1L1 6L6 6L6 1ZM2 2L2 5L5 5L5 2ZM46 0L46 7L53 7L53 0ZM47 1L47 6L52 6L52 1ZM48 2L48 5L51 5L51 2ZM0 46L0 53L7 53L7 46ZM1 47L1 52L6 52L6 47ZM2 48L2 51L5 51L5 48Z" fill="#000000"/></g></g></svg>
