<?xml version="1.0" encoding="UTF-8"?>
<svg xmlns="http://www.w3.org/2000/svg" version="1.1" width="356" height="356" viewBox="0 0 356 356"><rect x="0" y="0" width="356" height="356" fill="#ffffff"/><g transform="scale(6.717)"><g transform="translate(0,0)"><path fill-rule="evenodd" d="M10 0L10 1L11 1L11 2L10 2L10 4L9 4L9 3L8 3L8 4L9 4L9 5L8 5L8 7L9 7L9 5L10 5L10 4L11 4L11 3L12 3L12 5L11 5L11 6L10 6L10 8L12 8L12 9L10 9L10 10L12 10L12 11L13 11L13 12L11 12L11 11L10 11L10 12L9 12L9 10L8 10L8 9L9 9L9 8L6 8L6 9L5 9L5 8L0 8L0 10L1 10L1 9L5 9L5 13L4 13L4 11L3 11L3 12L0 12L0 13L2 13L2 16L1 16L1 15L0 15L0 17L1 17L1 18L0 18L0 19L1 19L1 18L2 18L2 16L3 16L3 17L4 17L4 18L3 18L3 19L4 19L4 20L5 20L5 22L4 22L4 21L1 21L1 20L0 20L0 21L1 21L1 22L3 22L3 24L2 24L2 23L1 23L1 24L2 24L2 25L1 25L1 27L0 27L0 29L1 29L1 31L0 31L0 33L1 33L1 34L0 34L0 35L1 35L1 34L2 34L2 36L0 36L0 38L5 38L5 39L0 39L0 43L1 43L1 44L3 44L3 45L4 45L4 44L3 44L3 43L7 43L7 44L6 44L6 45L8 45L8 47L9 47L9 48L8 48L8 53L12 53L12 52L10 52L10 50L11 50L11 51L13 51L13 53L14 53L14 52L15 52L15 53L20 53L20 52L19 52L19 51L20 51L20 50L19 50L19 49L20 49L20 44L21 44L21 43L22 43L22 42L21 42L21 41L22 41L22 40L21 40L21 41L18 41L18 40L17 40L17 39L18 39L18 38L16 38L16 40L17 40L17 41L18 41L18 42L20 42L20 43L19 43L19 44L16 44L16 43L15 43L15 42L16 42L16 41L15 41L15 42L14 42L14 41L12 41L12 42L11 42L11 40L14 40L14 39L11 39L11 38L12 38L12 37L11 37L11 36L12 36L12 35L10 35L10 34L13 34L13 33L16 33L16 34L15 34L15 35L16 35L16 36L15 36L15 37L22 37L22 38L21 38L21 39L22 39L22 38L24 38L24 36L25 36L25 39L26 39L26 36L25 36L25 35L26 35L26 34L27 34L27 35L29 35L29 36L30 36L30 37L28 37L28 36L27 36L27 37L28 37L28 39L30 39L30 40L29 40L29 42L31 42L31 45L29 45L29 44L26 44L26 42L25 42L25 44L24 44L24 43L23 43L23 44L24 44L24 47L23 47L23 46L22 46L22 47L21 47L21 48L22 48L22 49L21 49L21 52L22 52L22 49L23 49L23 53L26 53L26 51L27 51L27 52L28 52L28 51L29 51L29 50L30 50L30 51L31 51L31 53L32 53L32 51L34 51L34 53L37 53L37 51L38 51L38 53L39 53L39 51L38 51L38 49L39 49L39 50L41 50L41 51L40 51L40 52L41 52L41 53L43 53L43 51L44 51L44 50L43 50L43 49L42 49L42 47L44 47L44 49L45 49L45 50L46 50L46 51L48 51L48 53L49 53L49 52L50 52L50 53L51 53L51 52L52 52L52 51L53 51L53 50L52 50L52 49L53 49L53 47L51 47L51 45L52 45L52 46L53 46L53 43L51 43L51 42L52 42L52 41L53 41L53 39L51 39L51 41L50 41L50 43L49 43L49 40L50 40L50 38L52 38L52 37L53 37L53 36L52 36L52 35L51 35L51 34L52 34L52 33L53 33L53 31L51 31L51 32L50 32L50 29L49 29L49 28L50 28L50 27L49 27L49 24L50 24L50 25L51 25L51 26L52 26L52 25L53 25L53 24L52 24L52 23L51 23L51 24L50 24L50 22L52 22L52 20L53 20L53 19L51 19L51 20L47 20L47 18L49 18L49 19L50 19L50 17L51 17L51 18L52 18L52 17L53 17L53 16L52 16L52 17L51 17L51 16L50 16L50 17L49 17L49 16L48 16L48 15L44 15L44 13L43 13L43 11L45 11L45 13L47 13L47 14L48 14L48 13L49 13L49 14L50 14L50 11L51 11L51 10L50 10L50 11L49 11L49 10L47 10L47 12L46 12L46 10L43 10L43 9L46 9L46 8L45 8L45 6L44 6L44 7L43 7L43 3L44 3L44 4L45 4L45 3L44 3L44 1L43 1L43 0L41 0L41 1L40 1L40 0L39 0L39 3L40 3L40 2L41 2L41 1L42 1L42 2L43 2L43 3L41 3L41 4L39 4L39 6L38 6L38 4L37 4L37 3L38 3L38 2L36 2L36 3L33 3L33 1L32 1L32 0L28 0L28 1L27 1L27 0L26 0L26 1L27 1L27 2L28 2L28 3L29 3L29 2L31 2L31 3L30 3L30 4L27 4L27 3L26 3L26 2L25 2L25 3L26 3L26 4L23 4L23 5L24 5L24 9L23 9L23 10L24 10L24 11L22 11L22 9L18 9L18 8L17 8L17 9L18 9L18 10L20 10L20 11L17 11L17 12L16 12L16 11L15 11L15 13L13 13L13 12L14 12L14 9L13 9L13 8L14 8L14 7L15 7L15 8L16 8L16 7L17 7L17 6L18 6L18 7L19 7L19 6L20 6L20 8L21 8L21 6L22 6L22 8L23 8L23 6L22 6L22 4L21 4L21 3L24 3L24 1L25 1L25 0L23 0L23 1L22 1L22 0L21 0L21 1L22 1L22 2L21 2L21 3L18 3L18 2L20 2L20 1L19 1L19 0L16 0L16 1L15 1L15 2L14 2L14 1L13 1L13 2L14 2L14 3L15 3L15 2L16 2L16 4L13 4L13 3L12 3L12 0ZM35 0L35 1L34 1L34 2L35 2L35 1L38 1L38 0ZM8 1L8 2L9 2L9 1ZM28 1L28 2L29 2L29 1ZM31 1L31 2L32 2L32 1ZM32 3L32 4L33 4L33 5L35 5L35 4L33 4L33 3ZM16 4L16 5L18 5L18 6L19 6L19 4ZM20 4L20 6L21 6L21 4ZM36 4L36 5L37 5L37 4ZM41 4L41 5L42 5L42 4ZM12 5L12 6L11 6L11 7L12 7L12 8L13 8L13 7L14 7L14 6L15 6L15 7L16 7L16 6L15 6L15 5ZM25 5L25 8L28 8L28 5ZM29 5L29 8L30 8L30 9L31 9L31 8L32 8L32 9L33 9L33 10L34 10L34 11L35 11L35 12L34 12L34 13L33 13L33 12L32 12L32 11L31 11L31 10L30 10L30 12L32 12L32 13L31 13L31 14L32 14L32 15L30 15L30 14L27 14L27 15L26 15L26 17L25 17L25 16L22 16L22 17L21 17L21 16L20 16L20 15L21 15L21 13L22 13L22 14L23 14L23 15L25 15L25 14L26 14L26 13L29 13L29 10L27 10L27 9L25 9L25 11L26 11L26 13L25 13L25 14L24 14L24 13L23 13L23 12L21 12L21 13L20 13L20 12L19 12L19 13L15 13L15 16L16 16L16 17L13 17L13 16L14 16L14 15L12 15L12 14L11 14L11 13L8 13L8 10L7 10L7 9L6 9L6 10L7 10L7 11L6 11L6 12L7 12L7 13L5 13L5 14L4 14L4 15L5 15L5 14L7 14L7 13L8 13L8 16L9 16L9 17L10 17L10 18L7 18L7 17L6 17L6 16L7 16L7 15L6 15L6 16L4 16L4 17L5 17L5 18L4 18L4 19L5 19L5 20L7 20L7 21L6 21L6 22L7 22L7 23L6 23L6 24L9 24L9 23L12 23L12 25L11 25L11 24L10 24L10 26L9 26L9 27L10 27L10 26L12 26L12 27L11 27L11 28L12 28L12 29L10 29L10 31L11 31L11 32L10 32L10 33L6 33L6 32L8 32L8 29L4 29L4 28L3 28L3 27L4 27L4 25L2 25L2 27L1 27L1 28L2 28L2 29L4 29L4 30L3 30L3 31L1 31L1 32L5 32L5 33L3 33L3 34L4 34L4 35L3 35L3 36L2 36L2 37L3 37L3 36L4 36L4 35L5 35L5 33L6 33L6 34L7 34L7 35L6 35L6 36L7 36L7 37L5 37L5 38L8 38L8 37L9 37L9 34L10 34L10 33L12 33L12 32L14 32L14 31L12 31L12 30L13 30L13 29L15 29L15 31L18 31L18 29L15 29L15 28L14 28L14 27L16 27L16 28L17 28L17 26L18 26L18 25L21 25L21 24L22 24L22 27L23 27L23 28L21 28L21 29L19 29L19 32L20 32L20 33L19 33L19 34L20 34L20 35L17 35L17 36L22 36L22 37L23 37L23 36L22 36L22 35L21 35L21 33L22 33L22 34L23 34L23 35L25 35L25 32L24 32L24 33L22 33L22 32L21 32L21 31L22 31L22 30L21 30L21 29L24 29L24 30L23 30L23 31L24 31L24 30L26 30L26 31L27 31L27 32L26 32L26 33L30 33L30 31L31 31L31 32L32 32L32 33L31 33L31 34L29 34L29 35L30 35L30 36L31 36L31 37L32 37L32 38L31 38L31 40L30 40L30 41L31 41L31 42L32 42L32 45L31 45L31 46L29 46L29 47L30 47L30 48L31 48L31 46L32 46L32 49L31 49L31 51L32 51L32 50L34 50L34 51L35 51L35 52L36 52L36 50L37 50L37 49L38 49L38 47L37 47L37 45L36 45L36 48L35 48L35 44L36 44L36 42L37 42L37 44L38 44L38 46L39 46L39 45L41 45L41 43L42 43L42 44L43 44L43 46L44 46L44 44L46 44L46 43L47 43L47 42L46 42L46 41L48 41L48 40L46 40L46 39L48 39L48 38L45 38L45 36L44 36L44 35L47 35L47 34L45 34L45 32L44 32L44 31L43 31L43 32L42 32L42 31L41 31L41 32L39 32L39 31L38 31L38 30L39 30L39 29L44 29L44 30L45 30L45 31L46 31L46 32L49 32L49 31L47 31L47 29L46 29L46 30L45 30L45 29L44 29L44 27L43 27L43 26L41 26L41 25L43 25L43 24L44 24L44 22L45 22L45 24L46 24L46 22L48 22L48 21L47 21L47 20L45 20L45 21L44 21L44 18L47 18L47 17L48 17L48 16L44 16L44 15L43 15L43 16L44 16L44 18L42 18L42 16L39 16L39 15L38 15L38 16L39 16L39 17L38 17L38 19L37 19L37 21L38 21L38 24L37 24L37 25L38 25L38 26L35 26L35 25L33 25L33 24L34 24L34 23L33 23L33 24L32 24L32 22L35 22L35 23L37 23L37 22L36 22L36 21L35 21L35 20L34 20L34 19L32 19L32 17L33 17L33 18L35 18L35 19L36 19L36 17L35 17L35 16L32 16L32 15L33 15L33 14L34 14L34 15L37 15L37 14L39 14L39 13L42 13L42 12L41 12L41 10L40 10L40 9L42 9L42 6L41 6L41 7L40 7L40 6L39 6L39 7L38 7L38 6L37 6L37 9L36 9L36 10L35 10L35 9L34 9L34 8L36 8L36 6L35 6L35 7L34 7L34 6L33 6L33 7L34 7L34 8L32 8L32 5L31 5L31 8L30 8L30 5ZM12 6L12 7L13 7L13 6ZM26 6L26 7L27 7L27 6ZM38 8L38 9L37 9L37 10L36 10L36 12L35 12L35 13L38 13L38 9L39 9L39 8ZM47 8L47 9L48 9L48 8ZM49 8L49 9L50 9L50 8ZM51 8L51 9L52 9L52 8ZM15 9L15 10L16 10L16 9ZM39 10L39 11L40 11L40 10ZM42 10L42 11L43 11L43 10ZM27 11L27 12L28 12L28 11ZM48 11L48 12L47 12L47 13L48 13L48 12L49 12L49 11ZM52 11L52 12L51 12L51 13L52 13L52 14L51 14L51 15L52 15L52 14L53 14L53 13L52 13L52 12L53 12L53 11ZM19 13L19 14L18 14L18 15L16 15L16 16L18 16L18 17L16 17L16 18L15 18L15 19L16 19L16 20L15 20L15 21L13 21L13 20L14 20L14 18L13 18L13 17L12 17L12 16L10 16L10 15L9 15L9 16L10 16L10 17L11 17L11 19L10 19L10 20L11 20L11 21L9 21L9 20L8 20L8 19L7 19L7 18L6 18L6 19L7 19L7 20L8 20L8 23L9 23L9 22L12 22L12 23L13 23L13 24L14 24L14 23L13 23L13 22L15 22L15 24L17 24L17 25L18 25L18 24L17 24L17 23L18 23L18 22L19 22L19 23L20 23L20 24L21 24L21 23L23 23L23 24L24 24L24 25L23 25L23 27L24 27L24 29L29 29L29 30L31 30L31 31L32 31L32 30L31 30L31 29L32 29L32 27L33 27L33 29L35 29L35 30L33 30L33 33L35 33L35 34L31 34L31 36L33 36L33 37L34 37L34 36L35 36L35 37L36 37L36 38L32 38L32 40L31 40L31 41L32 41L32 42L33 42L33 43L34 43L34 44L33 44L33 45L34 45L34 44L35 44L35 42L33 42L33 41L34 41L34 40L35 40L35 41L37 41L37 42L38 42L38 41L40 41L40 40L41 40L41 38L44 38L44 39L42 39L42 40L44 40L44 42L43 42L43 41L41 41L41 42L43 42L43 44L44 44L44 43L46 43L46 42L45 42L45 41L46 41L46 40L45 40L45 38L44 38L44 37L41 37L41 38L39 38L39 39L40 39L40 40L38 40L38 36L39 36L39 35L40 35L40 36L41 36L41 35L42 35L42 34L43 34L43 35L44 35L44 33L42 33L42 34L41 34L41 33L39 33L39 35L37 35L37 34L38 34L38 33L37 33L37 32L38 32L38 31L37 31L37 32L36 32L36 30L38 30L38 28L39 28L39 27L38 27L38 28L36 28L36 27L33 27L33 26L32 26L32 24L30 24L30 23L31 23L31 22L32 22L32 19L29 19L29 20L28 20L28 21L26 21L26 19L27 19L27 18L28 18L28 17L26 17L26 19L24 19L24 17L22 17L22 19L21 19L21 20L23 20L23 22L21 22L21 23L20 23L20 21L19 21L19 20L17 20L17 18L18 18L18 19L20 19L20 18L19 18L19 17L20 17L20 16L19 16L19 15L20 15L20 13ZM28 15L28 16L29 16L29 15ZM31 16L31 17L29 17L29 18L31 18L31 17L32 17L32 16ZM39 17L39 18L41 18L41 19L40 19L40 20L41 20L41 21L42 21L42 22L39 22L39 23L40 23L40 24L43 24L43 23L42 23L42 22L44 22L44 21L43 21L43 20L41 20L41 19L42 19L42 18L41 18L41 17ZM12 18L12 19L13 19L13 18ZM23 19L23 20L24 20L24 21L25 21L25 23L26 23L26 24L27 24L27 23L28 23L28 24L29 24L29 26L30 26L30 27L29 27L29 29L31 29L31 27L32 27L32 26L30 26L30 24L29 24L29 21L28 21L28 22L27 22L27 23L26 23L26 21L25 21L25 20L24 20L24 19ZM30 20L30 21L31 21L31 20ZM15 21L15 22L17 22L17 21ZM23 22L23 23L24 23L24 22ZM4 23L4 24L5 24L5 23ZM47 23L47 24L48 24L48 23ZM5 25L5 28L8 28L8 25ZM13 25L13 26L14 26L14 25ZM15 25L15 26L16 26L16 25ZM25 25L25 28L28 28L28 25ZM39 25L39 26L40 26L40 27L41 27L41 26L40 26L40 25ZM45 25L45 28L48 28L48 25ZM6 26L6 27L7 27L7 26ZM19 26L19 27L18 27L18 28L19 28L19 27L20 27L20 26ZM26 26L26 27L27 27L27 26ZM46 26L46 27L47 27L47 26ZM42 27L42 28L43 28L43 27ZM51 28L51 30L53 30L53 28ZM4 30L4 31L5 31L5 32L6 32L6 31L7 31L7 30L6 30L6 31L5 31L5 30ZM27 30L27 31L28 31L28 30ZM16 32L16 33L18 33L18 32ZM35 32L35 33L36 33L36 34L35 34L35 36L36 36L36 34L37 34L37 33L36 33L36 32ZM51 32L51 33L52 33L52 32ZM40 34L40 35L41 35L41 34ZM48 34L48 36L47 36L47 37L49 37L49 38L50 38L50 37L49 37L49 35L50 35L50 36L51 36L51 37L52 37L52 36L51 36L51 35L50 35L50 34ZM7 35L7 36L8 36L8 35ZM33 35L33 36L34 36L34 35ZM13 36L13 37L14 37L14 36ZM9 38L9 39L8 39L8 40L7 40L7 39L5 39L5 40L2 40L2 41L1 41L1 42L2 42L2 43L3 43L3 42L4 42L4 41L5 41L5 40L7 40L7 41L6 41L6 42L7 42L7 41L8 41L8 42L9 42L9 43L8 43L8 45L9 45L9 46L10 46L10 45L9 45L9 44L12 44L12 45L11 45L11 48L9 48L9 50L10 50L10 49L11 49L11 50L12 50L12 49L14 49L14 50L13 50L13 51L15 51L15 52L16 52L16 51L15 51L15 50L16 50L16 49L18 49L18 48L16 48L16 49L15 49L15 46L17 46L17 47L18 47L18 45L14 45L14 43L13 43L13 42L12 42L12 43L10 43L10 42L9 42L9 41L8 41L8 40L9 40L9 39L10 39L10 40L11 40L11 39L10 39L10 38ZM19 39L19 40L20 40L20 39ZM35 39L35 40L37 40L37 41L38 41L38 40L37 40L37 39ZM23 40L23 42L24 42L24 41L26 41L26 40ZM32 40L32 41L33 41L33 40ZM2 41L2 42L3 42L3 41ZM27 42L27 43L28 43L28 42ZM39 42L39 43L38 43L38 44L39 44L39 43L40 43L40 42ZM12 43L12 44L13 44L13 43ZM48 43L48 44L49 44L49 43ZM50 43L50 45L49 45L49 47L50 47L50 48L51 48L51 49L50 49L50 50L49 50L49 49L46 49L46 50L49 50L49 51L50 51L50 52L51 52L51 51L52 51L52 50L51 50L51 49L52 49L52 48L51 48L51 47L50 47L50 45L51 45L51 43ZM12 45L12 46L13 46L13 45ZM25 45L25 48L28 48L28 45ZM45 45L45 48L48 48L48 45ZM26 46L26 47L27 47L27 46ZM33 46L33 49L35 49L35 48L34 48L34 46ZM41 46L41 47L42 47L42 46ZM46 46L46 47L47 47L47 46ZM13 47L13 48L14 48L14 47ZM11 48L11 49L12 49L12 48ZM23 48L23 49L24 49L24 50L25 50L25 49L24 49L24 48ZM36 48L36 49L37 49L37 48ZM39 48L39 49L41 49L41 48ZM26 49L26 50L27 50L27 51L28 51L28 50L27 50L27 49ZM17 50L17 51L19 51L19 50ZM42 50L42 51L43 51L43 50ZM50 50L50 51L51 51L51 50ZM0 0L0 7L7 7L7 0ZM1 1L1 6L6 6L6 1ZM2 2L2 5L5 5L5 2ZM46 0L46 7L53 7L53 0ZM47 1L47 6L52 6L52 1ZM48 2L48 5L51 5L51 2ZM0 46L0 53L7 53L7 46ZM1 47L1 52L6 52L6 47ZM2 48L2 51L5 51L5 48Z" fill="#000000"/></g></g></svg>
