<?xml version="1.0" encoding="UTF-8"?>
<svg xmlns="http://www.w3.org/2000/svg" version="1.1" width="356" height="356" viewBox="0 0 356 356"><rect x="0" y="0" width="356" height="356" fill="#ffffff"/><g transform="scale(6.717)"><g transform="translate(0,0)"><path fill-rule="evenodd" d="M8 0L8 1L9 1L9 2L8 2L8 5L9 5L9 6L8 6L8 7L9 7L9 8L8 8L8 9L7 9L7 8L6 8L6 9L7 9L7 10L6 10L6 11L4 11L4 10L5 10L5 9L4 9L4 8L0 8L0 14L2 14L2 13L1 13L1 10L2 10L2 11L3 11L3 13L4 13L4 12L5 12L5 13L8 13L8 14L6 14L6 15L8 15L8 18L9 18L9 19L10 19L10 18L11 18L11 23L10 23L10 22L9 22L9 21L10 21L10 20L9 20L9 21L8 21L8 19L7 19L7 18L6 18L6 19L5 19L5 18L4 18L4 19L3 19L3 20L2 20L2 19L1 19L1 16L3 16L3 17L4 17L4 16L3 16L3 15L4 15L4 14L3 14L3 15L0 15L0 19L1 19L1 20L2 20L2 21L1 21L1 22L2 22L2 23L3 23L3 22L2 22L2 21L3 21L3 20L4 20L4 23L5 23L5 24L3 24L3 25L4 25L4 27L3 27L3 26L2 26L2 25L1 25L1 23L0 23L0 26L2 26L2 27L3 27L3 29L2 29L2 28L1 28L1 27L0 27L0 30L1 30L1 29L2 29L2 31L1 31L1 32L0 32L0 33L1 33L1 34L3 34L3 35L2 35L2 36L3 36L3 35L4 35L4 38L5 38L5 39L4 39L4 41L5 41L5 40L6 40L6 41L7 41L7 42L3 42L3 43L2 43L2 42L1 42L1 41L0 41L0 43L1 43L1 44L3 44L3 45L4 45L4 44L3 44L3 43L7 43L7 42L9 42L9 43L8 43L8 44L9 44L9 45L8 45L8 46L9 46L9 47L10 47L10 48L11 48L11 51L13 51L13 50L12 50L12 48L11 48L11 47L10 47L10 46L9 46L9 45L11 45L11 43L12 43L12 46L13 46L13 45L14 45L14 46L15 46L15 43L13 43L13 42L11 42L11 43L10 43L10 40L11 40L11 41L13 41L13 40L14 40L14 41L16 41L16 42L17 42L17 41L16 41L16 40L17 40L17 39L19 39L19 40L18 40L18 41L19 41L19 40L20 40L20 43L17 43L17 45L18 45L18 46L16 46L16 47L17 47L17 48L18 48L18 49L20 49L20 50L21 50L21 49L20 49L20 48L18 48L18 46L19 46L19 47L23 47L23 48L22 48L22 49L23 49L23 50L24 50L24 51L25 51L25 53L26 53L26 51L27 51L27 53L28 53L28 50L27 50L27 49L29 49L29 48L30 48L30 47L32 47L32 45L30 45L30 44L31 44L31 43L32 43L32 44L33 44L33 45L34 45L34 43L35 43L35 45L36 45L36 43L35 43L35 41L33 41L33 40L35 40L35 39L36 39L36 38L39 38L39 39L40 39L40 40L41 40L41 39L40 39L40 38L41 38L41 37L43 37L43 36L45 36L45 37L44 37L44 38L43 38L43 39L42 39L42 41L41 41L41 43L42 43L42 41L43 41L43 39L44 39L44 41L46 41L46 39L47 39L47 43L46 43L46 44L45 44L45 42L43 42L43 44L39 44L39 43L40 43L40 42L38 42L38 40L37 40L37 44L39 44L39 48L42 48L42 49L43 49L43 50L46 50L46 49L47 49L47 51L48 51L48 52L47 52L47 53L48 53L48 52L50 52L50 51L51 51L51 53L52 53L52 50L51 50L51 49L53 49L53 47L52 47L52 46L53 46L53 45L50 45L50 44L51 44L51 43L49 43L49 42L48 42L48 40L50 40L50 41L51 41L51 40L52 40L52 42L53 42L53 38L52 38L52 33L53 33L53 32L52 32L52 29L51 29L51 28L53 28L53 26L52 26L52 24L50 24L50 26L51 26L51 28L50 28L50 27L49 27L49 24L46 24L46 22L45 22L45 24L43 24L43 22L44 22L44 21L45 21L45 20L47 20L47 21L48 21L48 22L49 22L49 23L52 23L52 21L53 21L53 19L50 19L50 18L53 18L53 16L51 16L51 17L49 17L49 19L50 19L50 21L48 21L48 20L47 20L47 18L48 18L48 15L47 15L47 14L46 14L46 12L48 12L48 13L50 13L50 14L51 14L51 15L53 15L53 14L51 14L51 13L50 13L50 12L49 12L49 11L50 11L50 9L51 9L51 12L53 12L53 11L52 11L52 9L53 9L53 8L52 8L52 9L51 9L51 8L48 8L48 9L49 9L49 11L46 11L46 12L45 12L45 13L43 13L43 14L42 14L42 15L44 15L44 16L41 16L41 15L39 15L39 13L38 13L38 12L36 12L36 7L37 7L37 6L36 6L36 5L39 5L39 6L38 6L38 8L39 8L39 9L41 9L41 11L40 11L40 10L39 10L39 11L40 11L40 12L41 12L41 11L42 11L42 12L44 12L44 11L42 11L42 10L43 10L43 8L44 8L44 9L46 9L46 8L44 8L44 7L45 7L45 6L44 6L44 7L43 7L43 3L44 3L44 4L45 4L45 3L44 3L44 1L43 1L43 0L41 0L41 2L40 2L40 0L39 0L39 1L38 1L38 0L35 0L35 1L33 1L33 2L31 2L31 1L32 1L32 0L29 0L29 2L30 2L30 3L31 3L31 4L32 4L32 7L33 7L33 6L34 6L34 7L35 7L35 11L34 11L34 12L33 12L33 11L32 11L32 10L33 10L33 9L34 9L34 8L33 8L33 9L30 9L30 7L31 7L31 6L30 6L30 7L29 7L29 3L28 3L28 4L27 4L27 3L25 3L25 2L28 2L28 0L26 0L26 1L25 1L25 0L23 0L23 1L22 1L22 0L21 0L21 1L19 1L19 0L16 0L16 2L15 2L15 3L16 3L16 4L17 4L17 6L16 6L16 7L17 7L17 8L15 8L15 6L14 6L14 4L13 4L13 6L12 6L12 7L11 7L11 6L10 6L10 4L12 4L12 3L13 3L13 1L12 1L12 0L11 0L11 1L9 1L9 0ZM17 1L17 2L16 2L16 3L17 3L17 2L19 2L19 1ZM21 1L21 2L20 2L20 3L21 3L21 2L22 2L22 4L23 4L23 9L22 9L22 11L23 11L23 10L24 10L24 12L21 12L21 14L17 14L17 13L16 13L16 14L17 14L17 15L19 15L19 16L18 16L18 18L17 18L17 16L16 16L16 15L15 15L15 16L14 16L14 14L15 14L15 12L16 12L16 11L17 11L17 10L18 10L18 9L16 9L16 11L14 11L14 12L13 12L13 13L12 13L12 14L13 14L13 15L12 15L12 16L11 16L11 17L12 17L12 18L13 18L13 17L12 17L12 16L14 16L14 19L15 19L15 17L16 17L16 18L17 18L17 19L18 19L18 18L19 18L19 16L20 16L20 15L23 15L23 14L24 14L24 15L25 15L25 14L26 14L26 16L24 16L24 17L26 17L26 19L27 19L27 20L28 20L28 21L27 21L27 22L25 22L25 21L24 21L24 20L25 20L25 18L23 18L23 16L21 16L21 17L20 17L20 19L19 19L19 20L18 20L18 21L19 21L19 20L20 20L20 22L21 22L21 23L22 23L22 22L24 22L24 24L22 24L22 25L21 25L21 24L18 24L18 22L17 22L17 20L14 20L14 21L15 21L15 23L14 23L14 22L13 22L13 25L15 25L15 26L14 26L14 27L13 27L13 26L12 26L12 25L11 25L11 26L10 26L10 23L9 23L9 22L8 22L8 21L6 21L6 20L7 20L7 19L6 19L6 20L5 20L5 21L6 21L6 22L5 22L5 23L6 23L6 24L7 24L7 23L8 23L8 24L9 24L9 26L10 26L10 27L11 27L11 30L10 30L10 29L9 29L9 30L8 30L8 32L9 32L9 31L11 31L11 30L14 30L14 27L15 27L15 26L17 26L17 24L18 24L18 28L17 28L17 27L16 27L16 28L15 28L15 29L16 29L16 28L17 28L17 30L15 30L15 31L13 31L13 32L11 32L11 33L12 33L12 34L13 34L13 35L11 35L11 34L10 34L10 35L9 35L9 36L8 36L8 34L9 34L9 33L8 33L8 34L7 34L7 33L6 33L6 34L7 34L7 35L6 35L6 36L5 36L5 38L7 38L7 39L6 39L6 40L7 40L7 41L9 41L9 40L10 40L10 39L11 39L11 40L12 40L12 39L13 39L13 35L14 35L14 37L15 37L15 35L16 35L16 36L18 36L18 35L19 35L19 34L21 34L21 35L20 35L20 36L21 36L21 35L22 35L22 37L23 37L23 36L24 36L24 37L25 37L25 39L24 39L24 38L23 38L23 39L22 39L22 38L20 38L20 37L19 37L19 38L20 38L20 40L21 40L21 41L25 41L25 42L26 42L26 41L25 41L25 39L26 39L26 40L27 40L27 39L26 39L26 38L28 38L28 41L27 41L27 43L28 43L28 44L30 44L30 43L28 43L28 42L29 42L29 41L30 41L30 42L31 42L31 41L30 41L30 40L29 40L29 39L31 39L31 40L32 40L32 39L33 39L33 38L31 38L31 37L34 37L34 39L35 39L35 38L36 38L36 37L35 37L35 36L37 36L37 37L38 37L38 36L37 36L37 35L39 35L39 38L40 38L40 37L41 37L41 35L45 35L45 36L46 36L46 35L48 35L48 34L47 34L47 33L46 33L46 35L45 35L45 34L40 34L40 33L39 33L39 32L41 32L41 33L43 33L43 32L47 32L47 30L45 30L45 31L44 31L44 27L43 27L43 29L42 29L42 28L40 28L40 29L37 29L37 27L42 27L42 26L43 26L43 25L42 25L42 22L41 22L41 21L40 21L40 22L39 22L39 20L40 20L40 19L39 19L39 20L38 20L38 18L39 18L39 15L38 15L38 13L35 13L35 12L34 12L34 14L33 14L33 12L32 12L32 13L26 13L26 12L29 12L29 9L26 9L26 10L25 10L25 9L24 9L24 4L25 4L25 3L23 3L23 2L25 2L25 1L23 1L23 2L22 2L22 1ZM37 1L37 2L33 2L33 3L32 3L32 4L33 4L33 5L34 5L34 6L35 6L35 7L36 7L36 6L35 6L35 5L36 5L36 4L35 4L35 3L39 3L39 4L41 4L41 5L40 5L40 6L39 6L39 7L40 7L40 8L41 8L41 7L42 7L42 8L43 8L43 7L42 7L42 4L41 4L41 3L43 3L43 2L41 2L41 3L39 3L39 2L38 2L38 1ZM9 2L9 4L10 4L10 2ZM19 5L19 8L20 8L20 9L21 9L21 7L22 7L22 5ZM25 5L25 8L28 8L28 5ZM9 6L9 7L10 7L10 8L9 8L9 10L8 10L8 12L10 12L10 11L13 11L13 10L11 10L11 9L10 9L10 8L11 8L11 7L10 7L10 6ZM13 6L13 7L12 7L12 8L13 8L13 7L14 7L14 6ZM17 6L17 7L18 7L18 6ZM20 6L20 7L21 7L21 6ZM26 6L26 7L27 7L27 6ZM40 6L40 7L41 7L41 6ZM14 8L14 10L15 10L15 8ZM37 9L37 11L38 11L38 9ZM19 10L19 11L18 11L18 12L19 12L19 13L20 13L20 11L21 11L21 10ZM27 10L27 11L28 11L28 10ZM30 10L30 11L31 11L31 10ZM6 11L6 12L7 12L7 11ZM24 12L24 14L25 14L25 12ZM10 13L10 14L11 14L11 13ZM13 13L13 14L14 14L14 13ZM40 13L40 14L41 14L41 13ZM27 14L27 16L26 16L26 17L27 17L27 16L28 16L28 17L29 17L29 19L28 19L28 20L29 20L29 19L30 19L30 17L29 17L29 16L31 16L31 18L32 18L32 19L31 19L31 20L32 20L32 19L33 19L33 21L34 21L34 20L35 20L35 22L36 22L36 23L35 23L35 24L34 24L34 22L33 22L33 23L32 23L32 21L29 21L29 22L31 22L31 24L30 24L30 25L31 25L31 27L35 27L35 26L34 26L34 25L37 25L37 26L36 26L36 27L37 27L37 26L39 26L39 24L40 24L40 23L41 23L41 22L40 22L40 23L39 23L39 22L38 22L38 21L36 21L36 19L37 19L37 18L36 18L36 19L35 19L35 17L34 17L34 16L38 16L38 15L37 15L37 14L34 14L34 15L33 15L33 14L31 14L31 15L29 15L29 14ZM44 14L44 15L46 15L46 14ZM28 15L28 16L29 16L29 15ZM31 15L31 16L32 16L32 15ZM5 16L5 17L7 17L7 16ZM9 16L9 17L10 17L10 16ZM40 16L40 17L41 17L41 16ZM46 16L46 17L47 17L47 16ZM21 17L21 18L22 18L22 17ZM42 17L42 18L41 18L41 19L42 19L42 18L43 18L43 20L44 20L44 19L45 19L45 17ZM12 19L12 20L13 20L13 19ZM20 19L20 20L21 20L21 21L23 21L23 20L22 20L22 19ZM51 20L51 21L52 21L52 20ZM6 22L6 23L7 23L7 22ZM16 22L16 23L17 23L17 22ZM27 22L27 24L24 24L24 26L23 26L23 27L24 27L24 30L25 30L25 31L24 31L24 33L25 33L25 31L27 31L27 34L28 34L28 33L29 33L29 34L31 34L31 35L32 35L32 36L33 36L33 35L32 35L32 34L31 34L31 32L30 32L30 30L29 30L29 32L28 32L28 29L29 29L29 27L30 27L30 26L29 26L29 23L28 23L28 22ZM37 22L37 23L36 23L36 24L37 24L37 25L38 25L38 24L39 24L39 23L38 23L38 22ZM37 23L37 24L38 24L38 23ZM32 24L32 25L33 25L33 24ZM5 25L5 28L8 28L8 25ZM19 25L19 30L18 30L18 31L19 31L19 30L20 30L20 28L21 28L21 29L22 29L22 28L21 28L21 26L20 26L20 25ZM25 25L25 28L28 28L28 25ZM40 25L40 26L41 26L41 25ZM45 25L45 28L48 28L48 25ZM6 26L6 27L7 27L7 26ZM11 26L11 27L12 27L12 26ZM26 26L26 27L27 27L27 26ZM46 26L46 27L47 27L47 26ZM31 28L31 29L33 29L33 30L35 30L35 28ZM49 28L49 29L48 29L48 30L50 30L50 31L51 31L51 29L50 29L50 28ZM4 29L4 30L3 30L3 31L2 31L2 32L3 32L3 31L4 31L4 30L5 30L5 32L7 32L7 31L6 31L6 30L7 30L7 29ZM25 29L25 30L26 30L26 29ZM36 29L36 30L37 30L37 31L36 31L36 32L37 32L37 34L38 34L38 32L39 32L39 31L41 31L41 30L42 30L42 31L43 31L43 30L42 30L42 29L41 29L41 30L37 30L37 29ZM22 30L22 32L21 32L21 31L20 31L20 32L21 32L21 34L22 34L22 35L24 35L24 36L25 36L25 37L26 37L26 36L27 36L27 37L28 37L28 36L29 36L29 37L31 37L31 36L29 36L29 35L25 35L25 34L22 34L22 32L23 32L23 30ZM31 30L31 31L32 31L32 32L33 32L33 31L32 31L32 30ZM16 31L16 35L17 35L17 34L19 34L19 33L17 33L17 31ZM34 31L34 32L35 32L35 31ZM14 32L14 33L15 33L15 32ZM29 32L29 33L30 33L30 32ZM48 32L48 33L50 33L50 32ZM51 32L51 33L52 33L52 32ZM4 33L4 34L5 34L5 33ZM35 33L35 34L34 34L34 36L35 36L35 35L36 35L36 33ZM14 34L14 35L15 35L15 34ZM50 34L50 35L49 35L49 36L47 36L47 39L50 39L50 40L51 40L51 34ZM0 35L0 37L1 37L1 35ZM6 36L6 37L7 37L7 36ZM9 36L9 37L11 37L11 39L12 39L12 36ZM49 36L49 37L50 37L50 36ZM2 37L2 38L0 38L0 40L3 40L3 37ZM16 37L16 39L15 39L15 38L14 38L14 40L16 40L16 39L17 39L17 37ZM45 37L45 38L44 38L44 39L45 39L45 38L46 38L46 37ZM23 39L23 40L24 40L24 39ZM22 42L22 44L23 44L23 46L24 46L24 44L23 44L23 43L24 43L24 42ZM32 42L32 43L33 43L33 42ZM20 43L20 44L18 44L18 45L20 45L20 46L22 46L22 45L21 45L21 43ZM25 43L25 44L26 44L26 43ZM47 43L47 44L48 44L48 43ZM52 43L52 44L53 44L53 43ZM6 44L6 45L7 45L7 44ZM25 45L25 48L28 48L28 45ZM37 45L37 46L36 46L36 47L34 47L34 48L33 48L33 49L32 49L32 48L31 48L31 49L32 49L32 50L30 50L30 51L32 51L32 52L29 52L29 53L33 53L33 50L34 50L34 53L35 53L35 51L36 51L36 52L37 52L37 53L40 53L40 52L41 52L41 53L43 53L43 51L42 51L42 50L41 50L41 49L40 49L40 50L39 50L39 49L37 49L37 48L36 48L36 47L38 47L38 45ZM40 45L40 46L41 46L41 47L42 47L42 48L43 48L43 47L44 47L44 46L41 46L41 45ZM45 45L45 48L48 48L48 45ZM49 45L49 48L51 48L51 46L50 46L50 45ZM26 46L26 47L27 47L27 46ZM29 46L29 47L30 47L30 46ZM46 46L46 47L47 47L47 46ZM14 47L14 51L15 51L15 50L17 50L17 49L16 49L16 48L15 48L15 47ZM23 48L23 49L24 49L24 48ZM8 49L8 53L9 53L9 51L10 51L10 50L9 50L9 49ZM34 49L34 50L36 50L36 51L37 51L37 52L38 52L38 51L39 51L39 50L36 50L36 49ZM49 49L49 50L48 50L48 51L49 51L49 50L50 50L50 49ZM18 50L18 51L16 51L16 53L17 53L17 52L19 52L19 53L22 53L22 52L23 52L23 51L21 51L21 52L19 52L19 50ZM41 51L41 52L42 52L42 51ZM44 51L44 52L45 52L45 53L46 53L46 52L45 52L45 51ZM11 52L11 53L12 53L12 52ZM14 52L14 53L15 53L15 52ZM0 0L0 7L7 7L7 0ZM1 1L1 6L6 6L6 1ZM2 2L2 5L5 5L5 2ZM46 0L46 7L53 7L53 0ZM47 1L47 6L52 6L52 1ZM48 2L48 5L51 5L51 2ZM0 46L0 53L7 53L7 46ZM1 47L1 52L6 52L6 47ZM2 48L2 51L5 51L5 48Z" fill="#000000"/></g></g></svg>
