<?xml version="1.0" encoding="UTF-8"?>
<svg xmlns="http://www.w3.org/2000/svg" version="1.1" width="356" height="356" viewBox="0 0 356 356"><rect x="0" y="0" width="356" height="356" fill="#ffffff"/><g transform="scale(6.717)"><g transform="translate(0,0)"><path fill-rule="evenodd" d="M8 0L8 4L9 4L9 3L10 3L10 1L11 1L11 2L12 2L12 1L13 1L13 0L12 0L12 1L11 1L11 0ZM14 0L14 2L13 2L13 3L14 3L14 2L15 2L15 3L17 3L17 2L18 2L18 3L19 3L19 4L20 4L20 9L19 9L19 8L18 8L18 9L12 9L12 8L11 8L11 9L9 9L9 11L7 11L7 10L8 10L8 9L7 9L7 8L4 8L4 9L3 9L3 10L2 10L2 8L0 8L0 9L1 9L1 10L0 10L0 11L3 11L3 12L5 12L5 14L3 14L3 13L1 13L1 12L0 12L0 13L1 13L1 14L0 14L0 17L2 17L2 16L3 16L3 17L4 17L4 18L5 18L5 19L7 19L7 18L5 18L5 17L8 17L8 18L9 18L9 17L10 17L10 18L11 18L11 19L12 19L12 20L10 20L10 19L9 19L9 21L8 21L8 20L6 20L6 21L5 21L5 23L7 23L7 24L4 24L4 26L2 26L2 28L3 28L3 27L4 27L4 29L5 29L5 30L3 30L3 29L1 29L1 27L0 27L0 29L1 29L1 30L0 30L0 31L1 31L1 34L0 34L0 36L1 36L1 37L0 37L0 38L1 38L1 39L0 39L0 41L1 41L1 40L2 40L2 39L4 39L4 40L3 40L3 41L5 41L5 40L6 40L6 41L9 41L9 42L8 42L8 43L7 43L7 42L3 42L3 43L2 43L2 42L0 42L0 43L1 43L1 44L3 44L3 45L4 45L4 44L3 44L3 43L7 43L7 44L6 44L6 45L7 45L7 44L8 44L8 46L9 46L9 47L8 47L8 49L10 49L10 51L8 51L8 53L9 53L9 52L11 52L11 53L12 53L12 52L13 52L13 50L14 50L14 51L15 51L15 52L16 52L16 53L19 53L19 52L20 52L20 53L22 53L22 52L21 52L21 51L23 51L23 53L26 53L26 52L25 52L25 51L26 51L26 50L28 50L28 49L29 49L29 51L30 51L30 50L32 50L32 51L33 51L33 52L32 52L32 53L33 53L33 52L34 52L34 53L38 53L38 52L39 52L39 53L40 53L40 52L42 52L42 50L43 50L43 53L44 53L44 50L45 50L45 51L46 51L46 52L48 52L48 53L49 53L49 52L50 52L50 53L52 53L52 52L53 52L53 51L51 51L51 52L50 52L50 49L49 49L49 48L50 48L50 47L51 47L51 46L52 46L52 47L53 47L53 46L52 46L52 45L53 45L53 42L52 42L52 45L51 45L51 46L50 46L50 43L47 43L47 42L49 42L49 41L51 41L51 40L50 40L50 35L49 35L49 32L50 32L50 30L51 30L51 28L50 28L50 27L51 27L51 26L50 26L50 22L49 22L49 24L48 24L48 22L46 22L46 21L45 21L45 20L43 20L43 19L42 19L42 18L43 18L43 17L44 17L44 18L45 18L45 19L46 19L46 20L47 20L47 21L49 21L49 20L50 20L50 21L51 21L51 22L52 22L52 24L51 24L51 25L53 25L53 21L51 21L51 20L52 20L52 19L53 19L53 18L52 18L52 19L51 19L51 20L50 20L50 16L49 16L49 13L50 13L50 14L51 14L51 13L50 13L50 11L51 11L51 10L52 10L52 11L53 11L53 10L52 10L52 9L53 9L53 8L49 8L49 9L51 9L51 10L50 10L50 11L49 11L49 12L48 12L48 11L47 11L47 10L46 10L46 9L45 9L45 8L44 8L44 7L45 7L45 6L44 6L44 7L43 7L43 3L44 3L44 4L45 4L45 3L44 3L44 1L43 1L43 0L42 0L42 2L41 2L41 0L35 0L35 1L34 1L34 0L32 0L32 1L31 1L31 0L27 0L27 1L26 1L26 0L23 0L23 2L22 2L22 7L21 7L21 2L20 2L20 1L19 1L19 0L18 0L18 1L17 1L17 2L16 2L16 1L15 1L15 0ZM25 1L25 2L26 2L26 4L27 4L27 3L28 3L28 4L30 4L30 2L29 2L29 1L28 1L28 2L26 2L26 1ZM32 1L32 2L31 2L31 3L32 3L32 4L31 4L31 5L32 5L32 4L34 4L34 6L33 6L33 7L34 7L34 6L35 6L35 7L36 7L36 8L37 8L37 9L36 9L36 11L37 11L37 12L38 12L38 13L35 13L35 11L34 11L34 14L32 14L32 13L31 13L31 14L30 14L30 15L29 15L29 16L28 16L28 18L27 18L27 15L28 15L28 14L29 14L29 13L30 13L30 12L31 12L31 10L33 10L33 9L32 9L32 6L31 6L31 7L30 7L30 5L29 5L29 9L30 9L30 8L31 8L31 10L30 10L30 11L29 11L29 12L28 12L28 10L27 10L27 11L26 11L26 10L25 10L25 11L24 11L24 3L23 3L23 7L22 7L22 8L21 8L21 9L23 9L23 12L22 12L22 13L21 13L21 11L22 11L22 10L20 10L20 11L17 11L17 10L16 10L16 11L15 11L15 10L14 10L14 12L15 12L15 13L13 13L13 14L12 14L12 13L11 13L11 14L10 14L10 13L9 13L9 12L10 12L10 11L9 11L9 12L7 12L7 11L5 11L5 10L7 10L7 9L4 9L4 11L5 11L5 12L7 12L7 13L6 13L6 14L5 14L5 16L7 16L7 15L9 15L9 16L10 16L10 15L11 15L11 18L12 18L12 16L13 16L13 15L14 15L14 16L16 16L16 17L15 17L15 18L14 18L14 17L13 17L13 20L14 20L14 19L16 19L16 18L18 18L18 19L20 19L20 18L21 18L21 19L22 19L22 18L24 18L24 19L23 19L23 20L22 20L22 22L20 22L20 21L19 21L19 22L18 22L18 23L17 23L17 21L16 21L16 20L15 20L15 21L13 21L13 22L15 22L15 21L16 21L16 24L14 24L14 23L13 23L13 25L12 25L12 24L11 24L11 25L12 25L12 26L10 26L10 29L8 29L8 30L7 30L7 29L6 29L6 30L7 30L7 31L6 31L6 32L7 32L7 33L5 33L5 31L4 31L4 32L3 32L3 30L2 30L2 33L5 33L5 34L3 34L3 35L2 35L2 38L5 38L5 39L6 39L6 40L10 40L10 41L11 41L11 39L9 39L9 38L10 38L10 37L11 37L11 38L12 38L12 37L13 37L13 38L14 38L14 33L13 33L13 31L14 31L14 32L15 32L15 31L16 31L16 33L15 33L15 35L16 35L16 34L17 34L17 35L20 35L20 34L21 34L21 36L19 36L19 37L16 37L16 36L15 36L15 37L16 37L16 38L15 38L15 40L14 40L14 39L13 39L13 40L12 40L12 41L18 41L18 40L19 40L19 41L20 41L20 38L19 38L19 37L21 37L21 39L22 39L22 40L23 40L23 41L21 41L21 42L20 42L20 43L19 43L19 48L18 48L18 49L17 49L17 47L18 47L18 45L16 45L16 44L17 44L17 42L16 42L16 43L15 43L15 42L14 42L14 43L13 43L13 42L11 42L11 43L12 43L12 44L11 44L11 45L10 45L10 42L9 42L9 46L10 46L10 49L14 49L14 50L15 50L15 51L16 51L16 50L18 50L18 49L19 49L19 51L17 51L17 52L19 52L19 51L20 51L20 50L21 50L21 49L22 49L22 50L26 50L26 49L24 49L24 47L23 47L23 48L22 48L22 47L21 47L21 49L19 49L19 48L20 48L20 45L21 45L21 46L23 46L23 45L24 45L24 44L22 44L22 45L21 45L21 43L22 43L22 42L25 42L25 43L26 43L26 40L27 40L27 41L28 41L28 42L27 42L27 44L28 44L28 43L29 43L29 44L30 44L30 41L32 41L32 43L31 43L31 45L32 45L32 46L29 46L29 47L30 47L30 48L29 48L29 49L32 49L32 48L33 48L33 49L34 49L34 50L35 50L35 51L34 51L34 52L35 52L35 51L37 51L37 52L38 52L38 51L39 51L39 52L40 52L40 51L41 51L41 49L42 49L42 48L40 48L40 47L42 47L42 45L43 45L43 47L44 47L44 45L43 45L43 44L42 44L42 45L41 45L41 43L40 43L40 45L39 45L39 44L38 44L38 43L37 43L37 42L38 42L38 41L39 41L39 40L40 40L40 41L43 41L43 40L44 40L44 39L46 39L46 40L45 40L45 41L44 41L44 42L43 42L43 43L44 43L44 44L46 44L46 40L49 40L49 38L48 38L48 39L46 39L46 37L49 37L49 35L48 35L48 34L47 34L47 35L46 35L46 32L45 32L45 35L46 35L46 36L45 36L45 38L43 38L43 39L42 39L42 40L40 40L40 39L41 39L41 37L42 37L42 36L43 36L43 35L44 35L44 33L43 33L43 35L42 35L42 33L41 33L41 32L42 32L42 31L46 31L46 29L44 29L44 30L41 30L41 29L43 29L43 28L44 28L44 27L43 27L43 26L44 26L44 23L45 23L45 24L47 24L47 23L45 23L45 22L44 22L44 21L43 21L43 20L40 20L40 21L39 21L39 20L38 20L38 21L37 21L37 23L34 23L34 22L35 22L35 20L36 20L36 19L38 19L38 17L39 17L39 19L40 19L40 17L42 17L42 16L43 16L43 15L44 15L44 13L43 13L43 12L42 12L42 10L40 10L40 9L42 9L42 8L41 8L41 7L42 7L42 3L43 3L43 2L42 2L42 3L41 3L41 4L40 4L40 3L38 3L38 2L40 2L40 1L35 1L35 2L34 2L34 3L33 3L33 1ZM28 2L28 3L29 3L29 2ZM35 2L35 3L34 3L34 4L35 4L35 3L37 3L37 4L36 4L36 5L35 5L35 6L36 6L36 7L37 7L37 8L38 8L38 11L39 11L39 9L40 9L40 7L41 7L41 6L40 6L40 5L39 5L39 4L38 4L38 3L37 3L37 2ZM12 4L12 5L11 5L11 6L10 6L10 5L8 5L8 7L9 7L9 8L10 8L10 7L11 7L11 6L12 6L12 7L13 7L13 4ZM16 5L16 7L15 7L15 6L14 6L14 8L17 8L17 5ZM18 5L18 7L19 7L19 5ZM25 5L25 8L28 8L28 5ZM36 5L36 6L37 6L37 7L38 7L38 8L39 8L39 7L40 7L40 6L39 6L39 5ZM9 6L9 7L10 7L10 6ZM26 6L26 7L27 7L27 6ZM38 6L38 7L39 7L39 6ZM47 8L47 9L48 9L48 8ZM11 9L11 11L12 11L12 12L13 12L13 10L12 10L12 9ZM34 9L34 10L35 10L35 9ZM43 9L43 11L44 11L44 12L45 12L45 13L46 13L46 14L45 14L45 15L46 15L46 19L47 19L47 17L48 17L48 14L47 14L47 13L46 13L46 12L47 12L47 11L45 11L45 10L44 10L44 9ZM25 11L25 12L23 12L23 15L22 15L22 14L21 14L21 13L20 13L20 12L16 12L16 13L15 13L15 14L16 14L16 15L17 15L17 17L18 17L18 18L19 18L19 17L21 17L21 15L22 15L22 16L23 16L23 15L25 15L25 16L24 16L24 18L25 18L25 17L26 17L26 15L27 15L27 14L28 14L28 13L27 13L27 12L26 12L26 11ZM40 11L40 12L39 12L39 13L38 13L38 14L40 14L40 12L41 12L41 11ZM16 13L16 14L17 14L17 15L18 15L18 14L20 14L20 15L19 15L19 16L18 16L18 17L19 17L19 16L20 16L20 15L21 15L21 14L20 14L20 13ZM24 13L24 14L25 14L25 15L26 15L26 14L27 14L27 13L26 13L26 14L25 14L25 13ZM41 13L41 15L37 15L37 14L34 14L34 15L32 15L32 14L31 14L31 15L32 15L32 17L31 17L31 16L29 16L29 18L28 18L28 20L26 20L26 19L27 19L27 18L26 18L26 19L25 19L25 20L23 20L23 22L26 22L26 23L25 23L25 24L24 24L24 25L23 25L23 24L22 24L22 23L20 23L20 22L19 22L19 23L20 23L20 25L19 25L19 24L18 24L18 25L13 25L13 26L15 26L15 27L16 27L16 26L19 26L19 27L18 27L18 28L16 28L16 29L15 29L15 28L14 28L14 30L16 30L16 31L17 31L17 33L18 33L18 34L19 34L19 33L21 33L21 34L22 34L22 36L21 36L21 37L22 37L22 38L23 38L23 40L24 40L24 41L25 41L25 40L26 40L26 39L27 39L27 38L26 38L26 37L28 37L28 40L29 40L29 41L30 41L30 40L31 40L31 38L32 38L32 41L33 41L33 43L32 43L32 45L33 45L33 46L32 46L32 47L31 47L31 48L32 48L32 47L33 47L33 48L34 48L34 49L35 49L35 50L37 50L37 51L38 51L38 50L40 50L40 48L39 48L39 49L38 49L38 46L39 46L39 47L40 47L40 46L41 46L41 45L40 45L40 46L39 46L39 45L38 45L38 44L34 44L34 45L33 45L33 43L34 43L34 41L33 41L33 40L34 40L34 39L35 39L35 43L36 43L36 42L37 42L37 40L38 40L38 39L39 39L39 38L40 38L40 36L41 36L41 33L38 33L38 36L37 36L37 35L35 35L35 36L34 36L34 33L35 33L35 34L37 34L37 32L38 32L38 30L40 30L40 31L41 31L41 30L40 30L40 29L38 29L38 28L39 28L39 27L38 27L38 28L35 28L35 27L37 27L37 24L34 24L34 25L33 25L33 22L34 22L34 21L33 21L33 20L32 20L32 22L31 22L31 21L29 21L29 19L30 19L30 20L31 20L31 18L32 18L32 19L34 19L34 20L35 20L35 19L36 19L36 18L37 18L37 16L39 16L39 17L40 17L40 16L42 16L42 15L43 15L43 13ZM2 14L2 15L3 15L3 16L4 16L4 15L3 15L3 14ZM6 14L6 15L7 15L7 14ZM9 14L9 15L10 15L10 14ZM11 14L11 15L12 15L12 14ZM46 14L46 15L47 15L47 14ZM52 14L52 15L51 15L51 16L52 16L52 17L53 17L53 16L52 16L52 15L53 15L53 14ZM34 15L34 19L35 19L35 18L36 18L36 17L35 17L35 16L37 16L37 15ZM44 16L44 17L45 17L45 16ZM32 17L32 18L33 18L33 17ZM0 18L0 20L1 20L1 21L0 21L0 22L3 22L3 20L1 20L1 18ZM2 18L2 19L3 19L3 18ZM6 21L6 22L7 22L7 23L8 23L8 24L10 24L10 22L8 22L8 21ZM11 21L11 22L12 22L12 21ZM26 21L26 22L27 22L27 23L26 23L26 24L29 24L29 25L30 25L30 23L28 23L28 22L29 22L29 21L28 21L28 22L27 22L27 21ZM38 21L38 23L40 23L40 24L38 24L38 26L40 26L40 27L42 27L42 28L43 28L43 27L42 27L42 26L43 26L43 25L42 25L42 24L43 24L43 23L44 23L44 22L43 22L43 21L40 21L40 22L39 22L39 21ZM42 22L42 23L43 23L43 22ZM0 23L0 25L1 25L1 24L2 24L2 25L3 25L3 23ZM31 23L31 26L30 26L30 27L31 27L31 28L30 28L30 29L32 29L32 30L33 30L33 31L31 31L31 30L30 30L30 31L29 31L29 29L27 29L27 30L25 30L25 31L24 31L24 32L22 32L22 31L21 31L21 30L23 30L23 28L24 28L24 26L23 26L23 25L21 25L21 26L20 26L20 27L19 27L19 29L21 29L21 30L19 30L19 32L18 32L18 33L19 33L19 32L21 32L21 33L22 33L22 34L25 34L25 37L24 37L24 35L23 35L23 36L22 36L22 37L23 37L23 38L24 38L24 39L26 39L26 38L25 38L25 37L26 37L26 35L27 35L27 36L28 36L28 37L32 37L32 38L33 38L33 37L34 37L34 38L37 38L37 39L36 39L36 40L37 40L37 39L38 39L38 37L39 37L39 36L40 36L40 34L39 34L39 36L38 36L38 37L34 37L34 36L33 36L33 35L31 35L31 34L30 34L30 35L29 35L29 36L28 36L28 31L29 31L29 33L30 33L30 31L31 31L31 33L32 33L32 32L33 32L33 33L34 33L34 32L35 32L35 33L36 33L36 31L35 31L35 30L36 30L36 29L35 29L35 28L34 28L34 26L35 26L35 25L34 25L34 26L33 26L33 28L34 28L34 30L33 30L33 29L32 29L32 23ZM40 24L40 26L41 26L41 24ZM5 25L5 28L8 28L8 25ZM25 25L25 28L28 28L28 25ZM45 25L45 28L48 28L48 25ZM6 26L6 27L7 27L7 26ZM21 26L21 29L22 29L22 26ZM26 26L26 27L27 27L27 26ZM46 26L46 27L47 27L47 26ZM49 26L49 27L50 27L50 26ZM52 26L52 29L53 29L53 26ZM12 27L12 28L13 28L13 27ZM49 28L49 30L47 30L47 31L49 31L49 30L50 30L50 28ZM11 29L11 30L12 30L12 29ZM16 29L16 30L17 30L17 31L18 31L18 29ZM37 29L37 30L38 30L38 29ZM9 30L9 31L10 31L10 33L9 33L9 32L8 32L8 31L7 31L7 32L8 32L8 34L5 34L5 35L3 35L3 37L5 37L5 38L6 38L6 39L7 39L7 38L9 38L9 37L10 37L10 36L12 36L12 34L13 34L13 33L12 33L12 31L10 31L10 30ZM27 30L27 31L25 31L25 32L24 32L24 33L27 33L27 31L28 31L28 30ZM52 30L52 31L53 31L53 30ZM33 31L33 32L34 32L34 31ZM51 32L51 33L50 33L50 34L51 34L51 33L52 33L52 32ZM10 33L10 34L9 34L9 35L8 35L8 37L9 37L9 35L11 35L11 33ZM52 34L52 35L51 35L51 38L52 38L52 41L53 41L53 34ZM6 35L6 36L5 36L5 37L6 37L6 38L7 38L7 37L6 37L6 36L7 36L7 35ZM30 35L30 36L31 36L31 35ZM32 36L32 37L33 37L33 36ZM17 38L17 39L18 39L18 38ZM44 42L44 43L45 43L45 42ZM11 45L11 46L13 46L13 45ZM15 45L15 48L14 48L14 49L16 49L16 45ZM25 45L25 48L28 48L28 45ZM34 45L34 47L35 47L35 49L36 49L36 47L35 47L35 46L38 46L38 45ZM45 45L45 48L48 48L48 45ZM26 46L26 47L27 47L27 46ZM46 46L46 47L47 47L47 46ZM49 46L49 47L50 47L50 46ZM11 47L11 48L13 48L13 47ZM43 48L43 50L44 50L44 48ZM51 48L51 49L52 49L52 48ZM37 49L37 50L38 50L38 49ZM47 49L47 51L48 51L48 52L49 52L49 49ZM11 50L11 51L12 51L12 50ZM29 52L29 53L31 53L31 52ZM0 0L0 7L7 7L7 0ZM1 1L1 6L6 6L6 1ZM2 2L2 5L5 5L5 2ZM46 0L46 7L53 7L53 0ZM47 1L47 6L52 6L52 1ZM48 2L48 5L51 5L51 2ZM0 46L0 53L7 53L7 46ZM1 47L1 52L6 52L6 47ZM2 48L2 51L5 51L5 48Z" fill="#000000"/></g></g></svg>
