<?xml version="1.0" encoding="UTF-8"?>
<svg xmlns="http://www.w3.org/2000/svg" version="1.1" width="356" height="356" viewBox="0 0 356 356"><rect x="0" y="0" width="356" height="356" fill="#ffffff"/><g transform="scale(6.717)"><g transform="translate(0,0)"><path fill-rule="evenodd" d="M8 0L8 1L9 1L9 2L8 2L8 5L10 5L10 3L9 3L9 2L10 2L10 1L11 1L11 0L10 0L10 1L9 1L9 0ZM16 0L16 2L15 2L15 1L13 1L13 3L16 3L16 4L17 4L17 6L16 6L16 7L17 7L17 8L15 8L15 6L14 6L14 4L13 4L13 5L11 5L11 6L10 6L10 7L9 7L9 6L8 6L8 7L9 7L9 8L8 8L8 9L7 9L7 8L6 8L6 9L7 9L7 10L5 10L5 11L4 11L4 8L0 8L0 9L2 9L2 10L0 10L0 15L2 15L2 16L0 16L0 17L3 17L3 18L5 18L5 17L7 17L7 18L6 18L6 19L7 19L7 20L5 20L5 19L4 19L4 20L5 20L5 21L3 21L3 19L0 19L0 20L1 20L1 21L0 21L0 25L1 25L1 23L2 23L2 24L3 24L3 23L4 23L4 25L2 25L2 26L4 26L4 27L2 27L2 29L5 29L5 31L2 31L2 32L5 32L5 33L7 33L7 34L4 34L4 33L3 33L3 35L1 35L1 37L2 37L2 39L1 39L1 38L0 38L0 43L1 43L1 44L3 44L3 45L4 45L4 44L3 44L3 43L7 43L7 44L6 44L6 45L8 45L8 46L10 46L10 45L9 45L9 44L8 44L8 42L9 42L9 43L10 43L10 44L11 44L11 42L9 42L9 41L7 41L7 40L6 40L6 39L7 39L7 38L4 38L4 37L2 37L2 36L3 36L3 35L5 35L5 36L6 36L6 37L7 37L7 36L8 36L8 40L9 40L9 37L10 37L10 40L11 40L11 39L12 39L12 40L14 40L14 41L16 41L16 42L17 42L17 41L16 41L16 40L17 40L17 39L19 39L19 40L18 40L18 41L19 41L19 40L20 40L20 43L17 43L17 45L18 45L18 46L16 46L16 47L17 47L17 48L18 48L18 49L20 49L20 50L21 50L21 51L22 51L22 52L19 52L19 50L18 50L18 51L16 51L16 53L17 53L17 52L19 52L19 53L22 53L22 52L25 52L25 53L28 53L28 51L29 51L29 50L27 50L27 49L29 49L29 46L30 46L30 48L31 48L31 49L32 49L32 50L30 50L30 51L31 51L31 52L29 52L29 53L33 53L33 52L34 52L34 53L35 53L35 51L36 51L36 52L37 52L37 51L36 51L36 49L37 49L37 50L39 50L39 51L38 51L38 53L39 53L39 51L40 51L40 52L41 52L41 51L42 51L42 50L40 50L40 49L39 49L39 48L42 48L42 49L43 49L43 48L42 48L42 46L43 46L43 45L44 45L44 50L45 50L45 49L47 49L47 51L48 51L48 52L46 52L46 53L48 53L48 52L50 52L50 51L51 51L51 53L52 53L52 50L51 50L51 49L53 49L53 47L52 47L52 46L51 46L51 45L50 45L50 46L51 46L51 48L49 48L49 44L51 44L51 41L52 41L52 42L53 42L53 41L52 41L52 40L53 40L53 38L52 38L52 37L53 37L53 35L52 35L52 33L53 33L53 32L52 32L52 29L53 29L53 28L52 28L52 29L51 29L51 28L50 28L50 27L53 27L53 26L50 26L50 27L49 27L49 24L46 24L46 23L43 23L43 22L44 22L44 21L45 21L45 19L46 19L46 20L47 20L47 21L48 21L48 20L49 20L49 22L47 22L47 23L51 23L51 24L50 24L50 25L51 25L51 24L53 24L53 23L52 23L52 22L51 22L51 18L50 18L50 17L49 17L49 18L50 18L50 19L47 19L47 18L48 18L48 15L50 15L50 14L51 14L51 15L53 15L53 14L52 14L52 10L50 10L50 9L51 9L51 8L48 8L48 9L49 9L49 10L50 10L50 11L51 11L51 13L49 13L49 11L48 11L48 12L47 12L47 14L46 14L46 11L45 11L45 13L44 13L44 11L42 11L42 10L44 10L44 9L46 9L46 8L44 8L44 9L43 9L43 3L44 3L44 4L45 4L45 3L44 3L44 1L43 1L43 0L39 0L39 1L41 1L41 2L39 2L39 3L36 3L36 2L38 2L38 1L37 1L37 0L35 0L35 1L33 1L33 2L30 2L30 3L29 3L29 4L28 4L28 2L27 2L27 3L26 3L26 0L23 0L23 1L22 1L22 0L21 0L21 1L19 1L19 0ZM28 0L28 1L32 1L32 0ZM17 1L17 2L16 2L16 3L17 3L17 2L19 2L19 1ZM21 1L21 2L20 2L20 3L21 3L21 5L19 5L19 8L20 8L20 9L21 9L21 7L22 7L22 4L23 4L23 9L22 9L22 10L23 10L23 9L24 9L24 12L22 12L22 11L21 11L21 10L19 10L19 11L18 11L18 12L19 12L19 13L20 13L20 11L21 11L21 12L22 12L22 13L24 13L24 12L25 12L25 14L17 14L17 13L16 13L16 14L17 14L17 15L19 15L19 16L18 16L18 18L17 18L17 16L16 16L16 15L15 15L15 16L14 16L14 14L15 14L15 12L16 12L16 11L17 11L17 10L18 10L18 9L16 9L16 11L15 11L15 12L14 12L14 10L15 10L15 8L14 8L14 10L13 10L13 7L14 7L14 6L13 6L13 7L12 7L12 6L11 6L11 7L10 7L10 8L9 8L9 9L10 9L10 8L11 8L11 7L12 7L12 9L11 9L11 10L13 10L13 12L12 12L12 11L11 11L11 12L12 12L12 15L10 15L10 14L11 14L11 13L9 13L9 12L10 12L10 11L9 11L9 12L8 12L8 10L7 10L7 11L5 11L5 12L8 12L8 13L6 13L6 14L7 14L7 15L6 15L6 16L7 16L7 17L8 17L8 18L9 18L9 19L8 19L8 22L7 22L7 21L5 21L5 22L4 22L4 23L5 23L5 22L7 22L7 23L6 23L6 24L8 24L8 22L9 22L9 25L11 25L11 24L12 24L12 27L11 27L11 30L9 30L9 31L5 31L5 32L7 32L7 33L8 33L8 34L7 34L7 35L6 35L6 36L7 36L7 35L8 35L8 36L9 36L9 34L12 34L12 35L11 35L11 36L10 36L10 37L11 37L11 38L12 38L12 39L13 39L13 38L12 38L12 37L11 37L11 36L12 36L12 35L14 35L14 37L15 37L15 35L16 35L16 36L18 36L18 35L19 35L19 34L21 34L21 35L20 35L20 36L21 36L21 37L24 37L24 36L26 36L26 37L28 37L28 36L26 36L26 35L25 35L25 34L26 34L26 33L28 33L28 35L29 35L29 38L28 38L28 41L29 41L29 39L30 39L30 40L32 40L32 39L33 39L33 37L34 37L34 39L35 39L35 40L33 40L33 41L35 41L35 42L36 42L36 43L35 43L35 44L34 44L34 43L33 43L33 42L32 42L32 43L31 43L31 41L30 41L30 43L29 43L29 42L28 42L28 44L29 44L29 45L30 45L30 43L31 43L31 46L34 46L34 47L31 47L31 48L32 48L32 49L33 49L33 48L34 48L34 47L35 47L35 48L36 48L36 46L37 46L37 45L38 45L38 47L37 47L37 49L38 49L38 48L39 48L39 47L41 47L41 46L40 46L40 45L39 45L39 44L37 44L37 42L39 42L39 41L40 41L40 44L41 44L41 45L42 45L42 44L45 44L45 43L43 43L43 41L46 41L46 43L48 43L48 42L49 42L49 43L50 43L50 42L49 42L49 41L50 41L50 40L52 40L52 39L51 39L51 37L52 37L52 35L51 35L51 34L50 34L50 32L49 32L49 34L47 34L47 33L48 33L48 32L47 32L47 30L46 30L46 29L45 29L45 30L43 30L43 29L44 29L44 27L43 27L43 23L42 23L42 21L43 21L43 20L42 20L42 21L39 21L39 18L40 18L40 17L41 17L41 16L42 16L42 15L45 15L45 14L43 14L43 13L41 13L41 12L38 12L38 10L39 10L39 11L41 11L41 10L40 10L40 8L37 8L37 7L38 7L38 6L39 6L39 7L40 7L40 6L41 6L41 7L42 7L42 4L41 4L41 3L43 3L43 2L41 2L41 3L39 3L39 5L38 5L38 6L37 6L37 4L36 4L36 6L35 6L35 4L34 4L34 5L33 5L33 3L32 3L32 4L29 4L29 5L30 5L30 6L29 6L29 7L30 7L30 8L29 8L29 9L30 9L30 8L31 8L31 9L33 9L33 10L32 10L32 11L31 11L31 12L32 12L32 13L29 13L29 12L30 12L30 11L29 11L29 10L28 10L28 11L26 11L26 10L27 10L27 9L26 9L26 10L25 10L25 9L24 9L24 4L25 4L25 3L23 3L23 2L24 2L24 1L23 1L23 2L22 2L22 1ZM11 2L11 4L12 4L12 2ZM21 2L21 3L22 3L22 2ZM40 4L40 5L41 5L41 4ZM25 5L25 8L28 8L28 5ZM31 5L31 6L30 6L30 7L31 7L31 6L32 6L32 7L33 7L33 6L32 6L32 5ZM17 6L17 7L18 7L18 6ZM20 6L20 7L21 7L21 6ZM26 6L26 7L27 7L27 6ZM34 6L34 7L35 7L35 13L37 13L37 14L34 14L34 13L32 13L32 14L34 14L34 15L32 15L32 16L31 16L31 18L30 18L30 17L29 17L29 16L30 16L30 14L29 14L29 13L28 13L28 14L27 14L27 12L26 12L26 14L25 14L25 15L20 15L20 16L19 16L19 18L18 18L18 19L17 19L17 18L16 18L16 17L15 17L15 19L14 19L14 16L13 16L13 17L12 17L12 18L11 18L11 17L10 17L10 18L11 18L11 19L9 19L9 22L10 22L10 21L11 21L11 23L13 23L13 22L14 22L14 23L15 23L15 21L14 21L14 20L17 20L17 22L16 22L16 23L17 23L17 22L18 22L18 24L17 24L17 26L15 26L15 25L13 25L13 27L12 27L12 30L13 30L13 31L9 31L9 33L10 33L10 32L13 32L13 31L15 31L15 30L17 30L17 28L18 28L18 24L21 24L21 25L22 25L22 24L24 24L24 27L23 27L23 26L20 26L20 25L19 25L19 30L18 30L18 31L19 31L19 30L20 30L20 28L23 28L23 29L24 29L24 31L23 31L23 30L22 30L22 29L21 29L21 30L22 30L22 32L21 32L21 31L20 31L20 32L21 32L21 34L22 34L22 32L24 32L24 33L25 33L25 29L27 29L27 30L26 30L26 32L28 32L28 30L29 30L29 32L30 32L30 33L29 33L29 35L30 35L30 37L32 37L32 36L33 36L33 35L32 35L32 34L31 34L31 32L30 32L30 29L29 29L29 28L31 28L31 30L32 30L32 32L33 32L33 31L34 31L34 32L35 32L35 31L36 31L36 32L37 32L37 31L36 31L36 30L37 30L37 29L36 29L36 30L35 30L35 26L34 26L34 25L38 25L38 28L39 28L39 29L40 29L40 27L41 27L41 25L40 25L40 27L39 27L39 25L38 25L38 24L39 24L39 22L38 22L38 21L36 21L36 19L37 19L37 18L36 18L36 19L35 19L35 17L34 17L34 16L38 16L38 17L40 17L40 16L38 16L38 15L39 15L39 14L40 14L40 13L38 13L38 12L36 12L36 7L37 7L37 6L36 6L36 7L35 7L35 6ZM44 6L44 7L45 7L45 6ZM33 8L33 9L34 9L34 8ZM41 8L41 9L42 9L42 8ZM52 8L52 9L53 9L53 8ZM37 9L37 10L38 10L38 9ZM2 10L2 11L3 11L3 10ZM28 11L28 12L29 12L29 11ZM33 11L33 12L34 12L34 11ZM1 12L1 14L2 14L2 12ZM3 12L3 13L4 13L4 14L5 14L5 13L4 13L4 12ZM13 13L13 14L14 14L14 13ZM48 13L48 14L49 14L49 13ZM8 14L8 16L10 16L10 15L9 15L9 14ZM37 14L37 15L38 15L38 14ZM4 15L4 16L3 16L3 17L5 17L5 15ZM26 15L26 16L21 16L21 17L20 17L20 19L19 19L19 20L18 20L18 21L19 21L19 20L20 20L20 22L21 22L21 23L22 23L22 22L23 22L23 21L24 21L24 24L28 24L28 23L30 23L30 24L29 24L29 25L30 25L30 26L31 26L31 22L32 22L32 23L33 23L33 22L36 22L36 21L35 21L35 20L31 20L31 19L32 19L32 18L31 18L31 19L29 19L29 18L27 18L27 17L28 17L28 16L27 16L27 15ZM26 16L26 17L25 17L25 20L24 20L24 21L25 21L25 23L26 23L26 22L27 22L27 23L28 23L28 22L31 22L31 20L29 20L29 19L27 19L27 18L26 18L26 17L27 17L27 16ZM43 16L43 17L42 17L42 18L41 18L41 19L42 19L42 18L44 18L44 19L45 19L45 16ZM46 16L46 17L47 17L47 16ZM52 16L52 18L53 18L53 16ZM21 17L21 19L20 19L20 20L21 20L21 21L23 21L23 20L21 20L21 19L22 19L22 17ZM23 17L23 18L24 18L24 17ZM11 19L11 20L12 20L12 19ZM52 19L52 21L53 21L53 19ZM25 20L25 21L27 21L27 20ZM28 20L28 21L29 21L29 20ZM1 21L1 22L2 22L2 21ZM32 21L32 22L33 22L33 21ZM40 22L40 24L42 24L42 23L41 23L41 22ZM34 23L34 24L35 24L35 23ZM36 23L36 24L38 24L38 23ZM32 24L32 25L33 25L33 24ZM5 25L5 28L8 28L8 25ZM25 25L25 28L28 28L28 25ZM45 25L45 28L48 28L48 25ZM0 26L0 27L1 27L1 26ZM6 26L6 27L7 27L7 26ZM9 26L9 27L10 27L10 26ZM14 26L14 27L13 27L13 30L14 30L14 27L15 27L15 26ZM26 26L26 27L27 27L27 26ZM36 26L36 27L37 27L37 26ZM46 26L46 27L47 27L47 26ZM16 27L16 28L15 28L15 29L16 29L16 28L17 28L17 27ZM31 27L31 28L33 28L33 29L32 29L32 30L33 30L33 29L34 29L34 28L33 28L33 27ZM42 27L42 29L41 29L41 30L39 30L39 31L38 31L38 32L39 32L39 33L40 33L40 34L41 34L41 37L40 37L40 38L41 38L41 39L40 39L40 40L41 40L41 42L42 42L42 40L43 40L43 39L44 39L44 40L45 40L45 39L46 39L46 40L47 40L47 42L48 42L48 40L50 40L50 39L47 39L47 37L46 37L46 38L44 38L44 37L45 37L45 35L46 35L46 33L47 33L47 32L46 32L46 31L45 31L45 32L43 32L43 30L42 30L42 29L43 29L43 27ZM9 28L9 29L10 29L10 28ZM0 29L0 31L1 31L1 29ZM6 29L6 30L8 30L8 29ZM48 29L48 30L50 30L50 31L51 31L51 29ZM41 30L41 31L40 31L40 32L41 32L41 33L42 33L42 30ZM16 31L16 35L17 35L17 34L19 34L19 33L17 33L17 31ZM14 32L14 33L15 33L15 32ZM51 32L51 33L52 33L52 32ZM0 33L0 34L1 34L1 33ZM12 33L12 34L13 34L13 33ZM35 33L35 34L34 34L34 37L35 37L35 39L36 39L36 40L37 40L37 41L38 41L38 40L39 40L39 39L38 39L38 38L39 38L39 36L35 36L35 34L38 34L38 33ZM14 34L14 35L15 35L15 34ZM23 34L23 35L22 35L22 36L24 36L24 34ZM30 34L30 35L31 35L31 34ZM42 34L42 35L43 35L43 37L42 37L42 38L43 38L43 37L44 37L44 35L45 35L45 34ZM47 35L47 36L49 36L49 35ZM50 36L50 37L51 37L51 36ZM16 37L16 39L15 39L15 38L14 38L14 40L16 40L16 39L17 39L17 37ZM19 37L19 38L20 38L20 40L21 40L21 41L24 41L24 42L21 42L21 43L20 43L20 44L18 44L18 45L20 45L20 46L21 46L21 44L23 44L23 45L22 45L22 46L24 46L24 44L25 44L25 43L26 43L26 40L25 40L25 39L27 39L27 38L23 38L23 39L22 39L22 38L20 38L20 37ZM36 37L36 39L37 39L37 37ZM3 39L3 40L4 40L4 41L2 41L2 40L1 40L1 42L2 42L2 43L3 43L3 42L5 42L5 41L6 41L6 42L7 42L7 41L6 41L6 40L4 40L4 39ZM23 39L23 40L24 40L24 41L25 41L25 40L24 40L24 39ZM12 41L12 45L13 45L13 43L15 43L15 42L13 42L13 41ZM23 43L23 44L24 44L24 43ZM32 43L32 44L33 44L33 43ZM41 43L41 44L42 44L42 43ZM52 43L52 44L53 44L53 43ZM35 44L35 46L36 46L36 44ZM14 45L14 46L12 46L12 47L13 47L13 48L12 48L12 49L11 49L11 47L9 47L9 49L8 49L8 53L9 53L9 51L10 51L10 53L11 53L11 50L12 50L12 51L13 51L13 53L14 53L14 52L15 52L15 50L17 50L17 49L16 49L16 48L15 48L15 47L14 47L14 46L15 46L15 45ZM25 45L25 48L28 48L28 45ZM45 45L45 48L48 48L48 45ZM18 46L18 48L19 48L19 46ZM26 46L26 47L27 47L27 46ZM46 46L46 47L47 47L47 46ZM20 47L20 49L21 49L21 50L22 50L22 51L26 51L26 52L27 52L27 51L26 51L26 49L24 49L24 48L23 48L23 47ZM22 48L22 49L23 49L23 48ZM10 49L10 50L11 50L11 49ZM12 49L12 50L15 50L15 49ZM34 49L34 50L33 50L33 51L32 51L32 52L33 52L33 51L34 51L34 50L35 50L35 49ZM49 49L49 50L48 50L48 51L49 51L49 50L50 50L50 49ZM44 52L44 53L45 53L45 52ZM0 0L0 7L7 7L7 0ZM1 1L1 6L6 6L6 1ZM2 2L2 5L5 5L5 2ZM46 0L46 7L53 7L53 0ZM47 1L47 6L52 6L52 1ZM48 2L48 5L51 5L51 2ZM0 46L0 53L7 53L7 46ZM1 47L1 52L6 52L6 47ZM2 48L2 51L5 51L5 48Z" fill="#000000"/></g></g></svg>
