<?xml version="1.0" encoding="UTF-8"?>
<svg xmlns="http://www.w3.org/2000/svg" version="1.1" width="356" height="356" viewBox="0 0 356 356"><rect x="0" y="0" width="356" height="356" fill="#ffffff"/><g transform="scale(6.717)"><g transform="translate(0,0)"><path fill-rule="evenodd" d="M8 0L8 2L10 2L10 4L8 4L8 9L9 9L9 8L10 8L10 9L11 9L11 10L14 10L14 11L15 11L15 10L14 10L14 9L15 9L15 8L14 8L14 7L15 7L15 6L14 6L14 7L13 7L13 6L12 6L12 7L13 7L13 9L12 9L12 8L10 8L10 7L11 7L11 5L12 5L12 4L13 4L13 3L14 3L14 1L15 1L15 0L11 0L11 1L9 1L9 0ZM18 0L18 1L16 1L16 2L18 2L18 1L19 1L19 4L20 4L20 5L18 5L18 3L15 3L15 5L16 5L16 7L17 7L17 6L18 6L18 8L19 8L19 12L18 12L18 10L16 10L16 11L17 11L17 12L18 12L18 14L16 14L16 12L13 12L13 11L10 11L10 10L9 10L9 11L8 11L8 12L5 12L5 11L3 11L3 14L2 14L2 15L1 15L1 12L2 12L2 11L1 11L1 9L3 9L3 10L5 10L5 9L7 9L7 8L5 8L5 9L3 9L3 8L0 8L0 16L2 16L2 17L0 17L0 18L2 18L2 19L3 19L3 20L2 20L2 23L1 23L1 19L0 19L0 23L1 23L1 24L2 24L2 26L4 26L4 29L7 29L7 30L4 30L4 31L2 31L2 32L4 32L4 33L5 33L5 31L12 31L12 30L16 30L16 32L15 32L15 31L14 31L14 32L15 32L15 34L13 34L13 35L15 35L15 36L14 36L14 37L15 37L15 38L12 38L12 39L11 39L11 40L10 40L10 41L7 41L7 40L9 40L9 39L10 39L10 38L11 38L11 37L12 37L12 36L10 36L10 33L11 33L11 34L12 34L12 33L11 33L11 32L10 32L10 33L9 33L9 32L6 32L6 33L9 33L9 36L8 36L8 34L5 34L5 35L4 35L4 36L5 36L5 37L4 37L4 38L3 38L3 37L1 37L1 38L3 38L3 40L2 40L2 39L1 39L1 40L2 40L2 41L0 41L0 43L1 43L1 44L3 44L3 45L4 45L4 44L3 44L3 43L7 43L7 42L9 42L9 44L8 44L8 46L9 46L9 44L12 44L12 45L11 45L11 46L12 46L12 48L13 48L13 47L14 47L14 46L15 46L15 47L16 47L16 48L14 48L14 49L11 49L11 47L10 47L10 49L9 49L9 50L8 50L8 53L12 53L12 50L14 50L14 52L13 52L13 53L14 53L14 52L15 52L15 53L16 53L16 52L18 52L18 53L20 53L20 52L18 52L18 49L19 49L19 48L20 48L20 49L21 49L21 48L20 48L20 47L21 47L21 46L23 46L23 47L22 47L22 48L23 48L23 49L25 49L25 50L26 50L26 49L29 49L29 48L30 48L30 49L31 49L31 48L32 48L32 49L33 49L33 51L32 51L32 50L31 50L31 51L30 51L30 52L28 52L28 53L30 53L30 52L31 52L31 51L32 51L32 53L33 53L33 51L34 51L34 53L35 53L35 50L36 50L36 51L37 51L37 52L36 52L36 53L37 53L37 52L38 52L38 53L41 53L41 52L42 52L42 53L44 53L44 51L45 51L45 53L46 53L46 50L44 50L44 51L40 51L40 50L38 50L38 49L39 49L39 47L41 47L41 48L40 48L40 49L41 49L41 50L42 50L42 49L48 49L48 51L49 51L49 52L47 52L47 53L50 53L50 50L51 50L51 49L50 49L50 50L49 50L49 48L50 48L50 46L51 46L51 45L52 45L52 44L53 44L53 42L52 42L52 44L50 44L50 43L51 43L51 42L50 42L50 41L51 41L51 40L52 40L52 41L53 41L53 38L52 38L52 37L51 37L51 36L50 36L50 35L51 35L51 33L50 33L50 35L48 35L48 32L50 32L50 31L51 31L51 32L52 32L52 33L53 33L53 32L52 32L52 31L53 31L53 29L52 29L52 27L53 27L53 26L52 26L52 27L51 27L51 26L50 26L50 23L51 23L51 22L52 22L52 24L51 24L51 25L53 25L53 22L52 22L52 21L53 21L53 18L52 18L52 20L51 20L51 21L49 21L49 20L48 20L48 22L46 22L46 20L47 20L47 19L48 19L48 17L49 17L49 18L50 18L50 19L51 19L51 18L50 18L50 16L49 16L49 15L51 15L51 17L52 17L52 15L53 15L53 10L52 10L52 9L53 9L53 8L51 8L51 9L50 9L50 10L49 10L49 8L45 8L45 6L44 6L44 7L43 7L43 3L44 3L44 4L45 4L45 3L44 3L44 1L43 1L43 0L42 0L42 1L40 1L40 2L39 2L39 3L38 3L38 2L37 2L37 0L36 0L36 2L35 2L35 0L34 0L34 1L33 1L33 0L32 0L32 2L31 2L31 3L30 3L30 2L28 2L28 1L27 1L27 0L24 0L24 1L23 1L23 2L20 2L20 1L22 1L22 0ZM30 0L30 1L31 1L31 0ZM38 0L38 1L39 1L39 0ZM24 1L24 3L25 3L25 4L26 4L26 1ZM11 2L11 4L10 4L10 5L9 5L9 7L10 7L10 5L11 5L11 4L12 4L12 2ZM27 2L27 4L29 4L29 7L30 7L30 6L31 6L31 9L30 9L30 8L29 8L29 9L28 9L28 10L27 10L27 11L26 11L26 12L28 12L28 10L29 10L29 9L30 9L30 11L31 11L31 12L30 12L30 14L31 14L31 16L30 16L30 18L29 18L29 19L28 19L28 21L29 21L29 19L30 19L30 20L31 20L31 21L30 21L30 23L29 23L29 29L30 29L30 30L29 30L29 31L28 31L28 29L27 29L27 31L28 31L28 32L29 32L29 33L30 33L30 34L29 34L29 35L28 35L28 33L26 33L26 30L25 30L25 34L27 34L27 35L28 35L28 37L26 37L26 35L25 35L25 36L24 36L24 37L22 37L22 36L21 36L21 35L22 35L22 34L24 34L24 33L23 33L23 32L24 32L24 31L23 31L23 30L24 30L24 29L22 29L22 27L24 27L24 26L23 26L23 25L21 25L21 26L20 26L20 27L21 27L21 28L19 28L19 29L18 29L18 28L17 28L17 27L18 27L18 26L19 26L19 24L20 24L20 22L21 22L21 21L22 21L22 24L23 24L23 23L24 23L24 24L28 24L28 22L26 22L26 23L24 23L24 22L25 22L25 21L24 21L24 20L25 20L25 19L26 19L26 20L27 20L27 18L25 18L25 17L23 17L23 18L22 18L22 19L20 19L20 18L21 18L21 17L20 17L20 14L21 14L21 13L22 13L22 10L23 10L23 11L24 11L24 12L25 12L25 11L24 11L24 10L26 10L26 9L24 9L24 10L23 10L23 9L22 9L22 8L24 8L24 5L23 5L23 7L22 7L22 5L20 5L20 6L19 6L19 8L20 8L20 6L21 6L21 7L22 7L22 8L21 8L21 10L20 10L20 11L21 11L21 12L20 12L20 14L19 14L19 15L18 15L18 16L19 16L19 17L18 17L18 18L19 18L19 20L21 20L21 21L20 21L20 22L19 22L19 21L18 21L18 19L17 19L17 18L16 18L16 19L17 19L17 20L16 20L16 23L14 23L14 24L15 24L15 25L14 25L14 26L15 26L15 28L16 28L16 30L21 30L21 31L18 31L18 32L19 32L19 33L18 33L18 34L16 34L16 35L17 35L17 36L16 36L16 38L15 38L15 39L14 39L14 40L15 40L15 41L14 41L14 43L12 43L12 44L14 44L14 43L15 43L15 44L16 44L16 47L17 47L17 46L19 46L19 45L20 45L20 46L21 46L21 44L19 44L19 45L18 45L18 43L19 43L19 40L20 40L20 39L21 39L21 38L24 38L24 37L25 37L25 40L26 40L26 39L27 39L27 38L28 38L28 41L30 41L30 42L24 42L24 40L23 40L23 39L22 39L22 40L23 40L23 41L22 41L22 44L24 44L24 43L26 43L26 44L27 44L27 43L28 43L28 44L29 44L29 43L30 43L30 42L31 42L31 44L30 44L30 46L29 46L29 47L30 47L30 48L31 48L31 46L32 46L32 48L34 48L34 50L35 50L35 49L36 49L36 48L37 48L37 49L38 49L38 47L39 47L39 45L40 45L40 44L41 44L41 41L42 41L42 44L44 44L44 43L46 43L46 42L47 42L47 40L46 40L46 42L43 42L43 40L44 40L44 41L45 41L45 40L44 40L44 39L45 39L45 38L47 38L47 35L46 35L46 34L47 34L47 33L46 33L46 32L44 32L44 31L43 31L43 32L42 32L42 31L41 31L41 32L42 32L42 34L43 34L43 32L44 32L44 33L45 33L45 34L44 34L44 37L45 37L45 38L44 38L44 39L42 39L42 40L41 40L41 38L40 38L40 36L41 36L41 35L40 35L40 34L41 34L41 33L40 33L40 34L39 34L39 33L38 33L38 34L39 34L39 36L38 36L38 35L36 35L36 34L37 34L37 33L36 33L36 34L35 34L35 32L34 32L34 31L33 31L33 30L32 30L32 28L34 28L34 30L35 30L35 31L36 31L36 30L37 30L37 29L36 29L36 28L34 28L34 26L35 26L35 25L36 25L36 27L37 27L37 28L38 28L38 32L39 32L39 31L40 31L40 30L39 30L39 29L40 29L40 28L43 28L43 29L42 29L42 30L45 30L45 29L44 29L44 25L42 25L42 24L43 24L43 21L42 21L42 19L43 19L43 17L42 17L42 18L41 18L41 17L40 17L40 15L42 15L42 16L43 16L43 15L44 15L44 14L45 14L45 13L44 13L44 14L43 14L43 13L42 13L42 14L41 14L41 13L40 13L40 12L41 12L41 11L39 11L39 9L40 9L40 6L39 6L39 5L40 5L40 4L41 4L41 2L40 2L40 4L39 4L39 5L38 5L38 3L36 3L36 5L35 5L35 7L34 7L34 6L33 6L33 9L34 9L34 10L35 10L35 9L36 9L36 8L38 8L38 10L37 10L37 14L36 14L36 12L35 12L35 11L33 11L33 10L31 10L31 9L32 9L32 5L33 5L33 2L32 2L32 5L30 5L30 4L29 4L29 3L28 3L28 2ZM42 2L42 3L43 3L43 2ZM22 3L22 4L23 4L23 3ZM34 3L34 4L35 4L35 3ZM25 5L25 8L28 8L28 5ZM36 5L36 7L37 7L37 5ZM26 6L26 7L27 7L27 6ZM38 6L38 8L39 8L39 6ZM41 6L41 8L42 8L42 6ZM16 8L16 9L17 9L17 8ZM43 8L43 9L42 9L42 12L43 12L43 11L44 11L44 10L45 10L45 9L44 9L44 8ZM43 9L43 10L44 10L44 9ZM46 9L46 10L47 10L47 11L45 11L45 12L46 12L46 14L47 14L47 11L48 11L48 9ZM6 10L6 11L7 11L7 10ZM50 10L50 12L49 12L49 13L48 13L48 14L49 14L49 13L50 13L50 14L51 14L51 15L52 15L52 14L51 14L51 13L50 13L50 12L51 12L51 11L52 11L52 10ZM4 12L4 13L5 13L5 12ZM8 12L8 13L6 13L6 14L5 14L5 15L4 15L4 14L3 14L3 15L2 15L2 16L3 16L3 17L2 17L2 18L3 18L3 17L4 17L4 16L5 16L5 20L7 20L7 19L6 19L6 18L8 18L8 17L9 17L9 19L8 19L8 20L9 20L9 19L10 19L10 20L12 20L12 21L11 21L11 22L10 22L10 21L8 21L8 22L10 22L10 23L6 23L6 22L7 22L7 21L6 21L6 22L5 22L5 21L3 21L3 22L5 22L5 24L10 24L10 26L9 26L9 27L10 27L10 29L8 29L8 30L12 30L12 29L13 29L13 28L14 28L14 27L13 27L13 25L11 25L11 24L13 24L13 23L11 23L11 22L12 22L12 21L13 21L13 20L12 20L12 18L13 18L13 19L14 19L14 20L15 20L15 19L14 19L14 18L15 18L15 16L14 16L14 15L16 15L16 14L13 14L13 15L12 15L12 13L13 13L13 12L12 12L12 13L10 13L10 12ZM32 12L32 13L33 13L33 14L32 14L32 18L30 18L30 19L31 19L31 20L32 20L32 22L31 22L31 23L30 23L30 25L31 25L31 27L30 27L30 28L32 28L32 25L33 25L33 26L34 26L34 24L36 24L36 25L37 25L37 27L38 27L38 28L40 28L40 25L41 25L41 26L42 26L42 27L43 27L43 26L42 26L42 25L41 25L41 24L42 24L42 23L41 23L41 19L40 19L40 18L38 18L38 17L39 17L39 15L40 15L40 13L39 13L39 12L38 12L38 13L39 13L39 15L38 15L38 16L36 16L36 15L35 15L35 14L34 14L34 12ZM9 13L9 17L11 17L11 18L10 18L10 19L11 19L11 18L12 18L12 17L11 17L11 14L10 14L10 13ZM23 13L23 14L22 14L22 15L21 15L21 16L22 16L22 15L23 15L23 14L24 14L24 16L25 16L25 14L26 14L26 13L25 13L25 14L24 14L24 13ZM28 13L28 14L27 14L27 15L26 15L26 16L28 16L28 17L29 17L29 16L28 16L28 14L29 14L29 13ZM6 14L6 15L7 15L7 16L6 16L6 17L7 17L7 16L8 16L8 14ZM42 14L42 15L43 15L43 14ZM33 15L33 17L34 17L34 19L35 19L35 21L34 21L34 20L33 20L33 18L32 18L32 20L33 20L33 21L34 21L34 22L32 22L32 23L31 23L31 25L32 25L32 23L35 23L35 22L36 22L36 24L37 24L37 23L38 23L38 22L40 22L40 19L35 19L35 18L37 18L37 17L36 17L36 16L35 16L35 17L34 17L34 15ZM45 15L45 17L44 17L44 18L45 18L45 17L46 17L46 19L47 19L47 17L46 17L46 15ZM23 19L23 20L22 20L22 21L23 21L23 20L24 20L24 19ZM36 20L36 22L38 22L38 20ZM44 20L44 23L46 23L46 22L45 22L45 20ZM17 21L17 22L18 22L18 21ZM48 22L48 23L47 23L47 24L49 24L49 23L50 23L50 22ZM2 23L2 24L3 24L3 25L4 25L4 23ZM10 23L10 24L11 24L11 23ZM16 23L16 25L17 25L17 23ZM18 23L18 24L19 24L19 23ZM38 24L38 26L39 26L39 25L40 25L40 24ZM5 25L5 28L8 28L8 25ZM25 25L25 28L28 28L28 25ZM45 25L45 28L48 28L48 25ZM6 26L6 27L7 27L7 26ZM10 26L10 27L11 27L11 28L13 28L13 27L11 27L11 26ZM16 26L16 27L17 27L17 26ZM21 26L21 27L22 27L22 26ZM26 26L26 27L27 27L27 26ZM46 26L46 27L47 27L47 26ZM49 26L49 27L50 27L50 28L49 28L49 29L48 29L48 30L47 30L47 29L46 29L46 30L47 30L47 32L48 32L48 30L49 30L49 31L50 31L50 30L51 30L51 29L50 29L50 28L51 28L51 27L50 27L50 26ZM0 27L0 29L1 29L1 27ZM2 27L2 28L3 28L3 27ZM35 29L35 30L36 30L36 29ZM49 29L49 30L50 30L50 29ZM31 30L31 31L32 31L32 30ZM0 31L0 34L2 34L2 33L1 33L1 31ZM22 31L22 32L23 32L23 31ZM29 31L29 32L30 32L30 33L31 33L31 32L30 32L30 31ZM20 32L20 33L21 33L21 32ZM32 32L32 33L33 33L33 35L31 35L31 34L30 34L30 36L29 36L29 40L30 40L30 41L31 41L31 40L30 40L30 39L32 39L32 46L34 46L34 47L35 47L35 48L36 48L36 47L35 47L35 46L34 46L34 45L36 45L36 46L37 46L37 42L38 42L38 41L39 41L39 42L40 42L40 41L41 41L41 40L40 40L40 38L39 38L39 40L38 40L38 41L37 41L37 40L36 40L36 43L34 43L34 41L35 41L35 39L38 39L38 36L36 36L36 38L35 38L35 39L34 39L34 40L33 40L33 38L34 38L34 37L35 37L35 36L34 36L34 32ZM18 34L18 38L19 38L19 39L18 39L18 40L19 40L19 39L20 39L20 38L19 38L19 34ZM20 34L20 35L21 35L21 34ZM52 34L52 35L53 35L53 34ZM0 35L0 36L2 36L2 35ZM6 35L6 36L7 36L7 37L6 37L6 38L7 38L7 39L4 39L4 40L3 40L3 41L2 41L2 43L3 43L3 41L5 41L5 42L7 42L7 41L6 41L6 40L7 40L7 39L9 39L9 38L10 38L10 36L9 36L9 37L8 37L8 36L7 36L7 35ZM30 36L30 38L31 38L31 37L32 37L32 36ZM33 36L33 37L34 37L34 36ZM42 36L42 38L43 38L43 36ZM45 36L45 37L46 37L46 36ZM48 36L48 38L49 38L49 39L48 39L48 40L49 40L49 39L50 39L50 40L51 40L51 39L52 39L52 38L51 38L51 39L50 39L50 36ZM12 39L12 40L11 40L11 41L10 41L10 42L11 42L11 41L13 41L13 39ZM15 39L15 40L16 40L16 41L17 41L17 39ZM39 40L39 41L40 41L40 40ZM48 41L48 43L47 43L47 44L48 44L48 43L49 43L49 41ZM16 42L16 43L18 43L18 42ZM20 42L20 43L21 43L21 42ZM23 42L23 43L24 43L24 42ZM33 43L33 45L34 45L34 43ZM39 43L39 44L40 44L40 43ZM6 44L6 45L7 45L7 44ZM13 45L13 46L14 46L14 45ZM23 45L23 46L24 46L24 45ZM25 45L25 48L28 48L28 45ZM42 45L42 46L43 46L43 47L42 47L42 48L44 48L44 45ZM45 45L45 48L48 48L48 45ZM49 45L49 46L50 46L50 45ZM26 46L26 47L27 47L27 46ZM46 46L46 47L47 47L47 46ZM52 46L52 47L51 47L51 48L52 48L52 47L53 47L53 46ZM8 47L8 48L9 48L9 47ZM18 47L18 48L19 48L19 47ZM14 49L14 50L15 50L15 49ZM9 50L9 52L11 52L11 50ZM16 50L16 51L17 51L17 50ZM20 50L20 51L21 51L21 52L22 52L22 53L23 53L23 52L22 52L22 51L24 51L24 53L26 53L26 52L25 52L25 51L24 51L24 50L22 50L22 51L21 51L21 50ZM27 50L27 51L29 51L29 50ZM37 50L37 51L38 51L38 52L39 52L39 51L38 51L38 50ZM52 52L52 53L53 53L53 52ZM0 0L0 7L7 7L7 0ZM1 1L1 6L6 6L6 1ZM2 2L2 5L5 5L5 2ZM46 0L46 7L53 7L53 0ZM47 1L47 6L52 6L52 1ZM48 2L48 5L51 5L51 2ZM0 46L0 53L7 53L7 46ZM1 47L1 52L6 52L6 47ZM2 48L2 51L5 51L5 48Z" fill="#000000"/></g></g></svg>
